M48
;Layer_Color=9474304
;FILE_FORMAT=4:4
METRIC,LZ
;TYPE=PLATED
T01F00S00C0.2032
T02F00S00C0.2540
T03F00S00C0.3048
T04F00S00C0.3810
T05F00S00C0.7500
T06F00S00C1.0160
T07F00S00C1.0200
T08F00S00C1.0400
T09F00S00C1.1000
T10F00S00C1.5000
T11F00S00C1.6000
T12F00S00C2.5000
T13F00S00C3.2512
;TYPE=NON_PLATED
T14F00S00C1.2700
%
T01
X004065Y0019135
X004175
Y0020235
X004065
T02
X-0000254Y-0018923
X0047117Y0018923
X00370052Y00244385
X0031623Y0004445
X0020828Y-0000635
X0014351Y-0013716
X0005207Y0005207
X0009271Y0010668
X0007366Y0017272
X-0000508Y0016383
X0001778Y0010287
X0012954Y0026162
Y0027686
X00169926
X0016129Y0026162
T03
X-001016Y-002794
X-00096Y-002159
Y-001905
X-000706
X-000381Y-0015367
X-0001397
X0001143
X0000508Y-00171704
Y-00179832
X0Y-002667
X-0002921Y-0025908
X0002286Y-0020066
X001326Y-002159
X0019685Y-0016891
X0026035Y-0017145
X002596Y-001905
X00285
Y-002159
X002596
X002921Y-002794
X003556
X003358Y-001905
X0033358Y-00157734
X00344424Y-00150114
X004064Y-002159
X0044323Y-0021717
X0045593Y-0019177
X004628Y-001651
X0042291Y-0016002
X005136Y-001651
X00539
X005136Y-001905
X00524206Y-00208006
X005588Y-002794
X004826
X004191
X0042291Y-0013462
X004628Y-001397
X00485394Y-00141224
X004628Y-001143
Y-000889
Y-000635
X0042164
X00422448Y-00076454
X0042291Y-000889
X004374Y000635
X0044069Y0017018
X0044323Y0018161
Y0019304
X0045466Y0018923
X0045593Y0020955
X004699
Y0023495
X0045593
X004445Y0024384
X0042672Y002286
X0043307Y002159
X00415798Y00230886
X0037973Y0023495
X0037979Y0020707
X0037973Y0019304
X0037211Y0019812
X0036195Y0020447
X0031115Y0021082
X00284734Y00233426
X002032Y002286
X0021082Y0017907
X0022225Y001397
X002596
Y001651
Y001143
Y000889
X0027184Y0008007
X0028321Y0008001
Y0009525
X003104Y000889
X003358
X003612
X003866
Y001143
Y001397
X0038735Y0016383
X0040005
X0036068Y001397
X0033782
X003358Y001143
X003612
X003104
X0032818Y0004826
X003612Y000381
X003866
X00412
X00415036Y00019304
X003866Y000635
X00397972Y-00076454
X0041656Y-0011176
X00381254Y-00120142
X00333074Y-00115184
X0030226Y-0009525
X0028448Y-0010287
X0025781Y-0009144
X0026035Y-0006985
X0027305
Y-0005715
X0026035
X002977Y-0003175
X003104
X003231
X0032258Y-00060198
X0024003Y-001016
X0021209Y-0009906
X0016383Y-0011049
Y-0013462
X001016Y-0010922
X001143Y-0009017
X001016Y-0006985
X0008128
X0007874Y-0009017
X0005461
X0004572Y-0010922
X0006604
X0005461Y-0013462
X000508Y-00057658
X00041656Y-000508
X00033528Y-0004318
X00025698Y-00037353
X0006143Y-00033325
X000762Y-0002032
X00068805Y00032795
X0010795Y000254
X0012065
X0013335
Y000127
X0012065
X0010795
X0014605
X00157734
Y000254
X0014605
X0014986Y-0002286
X0018415Y-0005461
X0022225Y000635
Y001016
X0013335Y0009906
X0014986Y0012573
Y0014732
X0007366
X00074176Y00158361
X0007366Y0020574
Y0021717
X0012278Y0021377
X00031Y002413
X0005715Y0011938
X0007493Y000889
X00031
X-0002159Y0007747
X-0004953Y00127
Y0015113
X-00042608Y0017634
X-00049432Y00189533
X-0005334Y002032
X-00042164Y00226822
X-0004953Y0023495
X-0000635Y0018669
X-0001558Y-00092902
X-0001651Y-0012065
X0000127Y-0012573
X0001524Y-0010287
X00006289Y00261681
X0001397Y0027686
X0001905Y002921
X-0001016Y00343779
X-0001778Y0035179
X-00024384Y0036195
X-000452Y003683
Y003429
X-0004191Y0024765
X-00024384Y0059563
X-00016764Y00602617
X-0000889Y0061087
X0006275Y006096
Y005969
Y005842
Y005715
Y006223
X0007545
X0008815
X0010085
X0014732Y0060452
Y0059436
Y005842
Y0057404
Y0056388
Y0055372
X0009525Y00508
X000762
X0009652Y0041529
Y0040259
X0010922
Y0041529
X0012192
Y0040259
X0013462
X00147259Y00402651
X0014732Y0041529
X0013462
X001397Y003556
X00127Y003175
X00122492Y00253428
X002032Y0029845
Y0033655
Y0037465
X002286Y0039624
Y0042164
Y0044196
Y0046228
Y004826
Y0050292
X0020574Y004953
X00200914Y004826
X002286Y005334
X0027432Y0048895
X00285Y004699
Y004445
Y004191
X0027305Y0033655
X003175
X0036195
X0034671Y0028448
X0031623Y002921
X0031496Y0026289
X0037338Y0027305
X0040565Y004318
Y004445
Y004572
Y004699
Y004826
Y004953
Y00508
Y005207
X0032766Y0049911
X003302Y005461
Y005842
X0033147Y0061976
Y0063246
X0031877
X0034417
Y0061976
X0035687
Y0063246
X0036957
Y0061976
X0026543Y0061468
X000635Y004064
X000564Y003429
X0005715Y003302
X004374Y003429
X004882Y003683
Y003937
Y004191
Y004445
Y004699
Y004953
Y005207
Y005461
Y005715
Y005969
Y006223
X004445
Y005842
Y005461
Y00508
X0041835
Y005207
Y004953
Y004826
Y004699
Y004572
Y004445
Y004318
X004445
Y004699
Y006604
X004882Y006731
Y006985
X004628
X004882Y006477
X0051614Y007493
X00539
Y007747
X005136
Y008001
X004882Y008255
X004628
Y008763
X004882
X005136
X00539
Y009017
Y009271
Y009525
Y009779
Y010033
X005136
Y009779
X00506521Y0097484
X004882Y009779
X00481121Y0097484
X004628Y009779
Y010033
X004882
X004374
Y009779
Y009525
X004628
Y009271
X004374
Y008763
X0048133Y00899239
X0050673Y0089916
X00412Y008763
X00397251Y00858111
X0039751Y00848868
X0034544Y0085471
X0032512
X00305816Y00841502
X0030861Y0082296
Y0077343
X0029083Y00762
X0027178
X0032893Y0075057
X0035052Y0073787
Y0070358
X0034925Y0066802
X003302Y0068072
X0030861Y0070358
X0029083Y0069342
X0027178Y0069215
X0022733Y006858
Y007366
X00169672Y0072517
X00174752Y0070485
X0017018Y0067818
X00161036Y0065532
X001326Y006731
X00137801Y00749167
X00128016Y00757301
X001326Y007747
Y008001
Y008255
Y008509
Y008763
Y009017
Y009271
X001397Y0094107
X001326Y009525
Y009779
X0014986Y0098425
Y0096393
X0014605Y0091821
X0016002Y0088519
X0020447Y0089281
X0019939Y0092329
X0022225
X0023495
X0025908Y0091948
Y0090678
X00252904Y0087884
X002286Y0087122
Y0084328
X0024257Y0085217
X0026289
X0021463
X0019431
X0017526Y0084328
X0020701Y0083439
X0020447Y0081915
X0021336Y0081026
X0023495Y0080264
X00174752Y007747
X00169926Y00761746
X0015621Y0077216
X00112776Y00767588
X000889Y007239
X0006985Y007112
X000508Y006985
X0002286Y0064897
X00031Y008763
X00056178Y00876078
X000564Y009017
X0005117Y0093218
X00032584Y009271
X0005117Y0095885
X001072Y009525
Y009779
Y010033
X001326
X000818
X001072Y009271
Y009017
Y008763
X00205893Y00967345
X00234603Y00969933
X0024511Y0096647
X0026543Y0096901
X00262795Y00954232
X0025527Y0098044
X0026924Y0099187
X0028067Y0098298
X0029972
X0031369Y0096901
X0032766Y0094488
Y0091948
X0034215Y0090805
X0035485
X00367685Y00907802
X00380385
X003866Y009271
X00412
Y009779
Y010033
X003866
Y009779
Y009525
X003612
Y009779
Y010033
Y009271
X0032131Y00899327
X0031115
X0030099
X0029083
X0025527Y01016
X0019431
X0035052Y0077343
X00412Y007747
X-000071Y0080772
Y0081915
X-000198
Y0080772
Y0083185
X-000071
Y0084455
X-000198
X-000706Y008509
Y008001
Y007747
Y007493
X-0001905Y0067945
Y0066675
X-0000635
Y0067945
X-0001143Y0091948
X-0002286Y0091186
X000056Y009271
X0001397
X0000127Y0096139
X-000198Y009779
Y010033
X000056
X-000452
Y009779
X-000706Y010033
X-00096
X-00099314Y009271
X-00070976Y00927476
X-0006223Y0092456
X-001143Y0090297
X-00105226Y00888817
T04
X-0005409Y-0027305
X0015165Y-002794
X001707
X0018975
X002088
X0022785
X002469
Y-0026035
X0019864Y-0024003
X001707Y-0020574
Y-0019304
X0014351Y-0017272
X0015165Y-0026035
X0022658Y-0020574
Y-0019304
X00552572Y-00194039
T05
X-0008203Y-0027305
Y-0024765
Y-0022225
X0053773
Y-0024765
Y-0027305
T06
X0049149Y-0018034
X0008255Y0001905
X0041656Y0095885
T07
X0007085Y-00254
X0010085
T08
X005207Y-001399
Y-001145
Y-000891
Y-000637
Y-000383
Y-000129
Y000125
Y000379
Y000633
Y000887
Y001141
Y001395
Y001649
Y001903
Y002157
Y002411
X005461
Y002157
Y001903
Y001649
Y001395
Y001141
Y000887
Y000633
Y000379
Y000125
Y-000129
Y-000383
Y-000637
Y-000891
Y-001145
Y-001399
X-000635Y-001399
Y-001145
Y-000891
Y-000637
Y-000383
Y-000129
Y000125
Y000379
Y000633
Y000887
Y001141
Y001395
Y001649
Y001903
Y002157
Y002411
X-000889
Y002157
Y001903
Y001649
Y001395
Y001141
Y000887
Y000633
Y000379
Y000125
Y-000129
Y-000383
Y-000637
Y-000891
Y-001145
Y-001399
Y002665
Y002919
Y003173
Y003427
Y003681
Y003935
Y004189
Y004443
Y004697
Y004951
Y005205
Y005459
Y005713
Y005967
Y006221
X-000635
Y005967
Y005713
Y005459
Y005205
Y004951
Y004697
Y004443
Y004189
Y003935
Y003681
Y003427
Y003173
Y002919
Y002665
X005207Y002665
Y002919
Y003173
Y003427
Y003681
Y003935
Y004189
Y004443
Y004697
Y004951
Y005205
Y005459
Y005713
Y005967
Y006221
X005461
Y005967
Y005713
Y005459
Y005205
Y004951
Y004697
Y004443
Y004189
Y003935
Y003681
Y003427
Y003173
Y002919
Y002665
Y006475
Y006729
Y006983
Y007237
X005207
Y006983
Y006729
Y006475
X-000635Y006475
Y006729
Y006983
Y007237
X-000889
Y006983
Y006729
Y006475
T09
X0030532Y-0025146
X0033072
X0035612
Y-0022606
X0033072
X0030532
T10
X004318Y001016
Y0029845
T11
X004572Y000762
Y00127
X004064
Y000762
Y0027305
Y0032385
X004572
Y0027305
T12
X004216Y0081432
X000346
T13
X004572Y0
X0
X00469859Y00749279
X-00012739Y0076198
T14
X0004085Y-002736
X0013085
M30
