G04*
G04 #@! TF.GenerationSoftware,Altium Limited,DefaultClient, ()*
G04*
G04 Layer_Color=16711935*
%FSLAX44Y44*%
%MOMM*%
G71*
G04*
G04 #@! TF.SameCoordinates,8DA877EA-5960-4089-89AF-F9EF2ED2926F*
G04*
G04*
G04 #@! TF.FilePolarity,Positive*
G04*
G01*
G75*
%ADD11C,0.1270*%
%ADD12C,0.1500*%
%ADD14C,0.1778*%
%ADD151C,0.0600*%
D11*
X-121400Y-292100D02*
X577100D01*
Y1041400D01*
X-121400D02*
X577100D01*
X-121400Y-292100D02*
Y1041400D01*
D12*
X49020Y162227D02*
Y155563D01*
X50353Y154230D01*
X53019D01*
X54352Y155563D01*
Y162227D01*
X62349D02*
X57017D01*
Y158229D01*
X59683Y159562D01*
X61016D01*
X62349Y158229D01*
Y155563D01*
X61016Y154230D01*
X58350D01*
X57017Y155563D01*
D14*
X314960Y-121923D02*
Y-130387D01*
X316653Y-132080D01*
X320038D01*
X321731Y-130387D01*
Y-121923D01*
X325117Y-132080D02*
X328502D01*
X326810D01*
Y-121923D01*
X325117Y-123616D01*
D151*
X9221Y-107950D02*
X12553D01*
X13220Y-107284D01*
Y-105951D01*
X12553Y-105284D01*
X9221D01*
Y-101286D02*
X9888Y-102619D01*
X11221Y-103951D01*
X12553D01*
X13220Y-103285D01*
Y-101952D01*
X12553Y-101286D01*
X11887D01*
X11221Y-101952D01*
Y-103951D01*
M02*
