G04*
G04 #@! TF.GenerationSoftware,Altium Limited,DefaultClient, ()*
G04*
G04 Layer_Color=8421504*
%FSLAX44Y44*%
%MOMM*%
G71*
G04*
G04 #@! TF.SameCoordinates,8DA877EA-5960-4089-89AF-F9EF2ED2926F*
G04*
G04*
G04 #@! TF.FilePolarity,Positive*
G04*
G01*
G75*
%ADD20R,1.0000X2.3500*%
%ADD21R,3.2500X2.3500*%
%ADD22R,1.0500X1.0500*%
%ADD23R,0.8000X1.3000*%
%ADD24R,2.1000X3.0000*%
G04:AMPARAMS|DCode=25|XSize=0.3mm|YSize=0.9mm|CornerRadius=0.075mm|HoleSize=0mm|Usage=FLASHONLY|Rotation=0.000|XOffset=0mm|YOffset=0mm|HoleType=Round|Shape=RoundedRectangle|*
%AMROUNDEDRECTD25*
21,1,0.3000,0.7500,0,0,0.0*
21,1,0.1500,0.9000,0,0,0.0*
1,1,0.1500,0.0750,-0.3750*
1,1,0.1500,-0.0750,-0.3750*
1,1,0.1500,-0.0750,0.3750*
1,1,0.1500,0.0750,0.3750*
%
%ADD25ROUNDEDRECTD25*%
G04:AMPARAMS|DCode=26|XSize=0.3mm|YSize=0.9mm|CornerRadius=0.075mm|HoleSize=0mm|Usage=FLASHONLY|Rotation=270.000|XOffset=0mm|YOffset=0mm|HoleType=Round|Shape=RoundedRectangle|*
%AMROUNDEDRECTD26*
21,1,0.3000,0.7500,0,0,270.0*
21,1,0.1500,0.9000,0,0,270.0*
1,1,0.1500,-0.3750,-0.0750*
1,1,0.1500,-0.3750,0.0750*
1,1,0.1500,0.3750,0.0750*
1,1,0.1500,0.3750,-0.0750*
%
%ADD26ROUNDEDRECTD26*%
%ADD27R,2.4000X2.4000*%
%ADD28R,0.4344X0.3094*%
%ADD29R,0.2094X0.4344*%
%ADD30R,0.8500X0.6500*%
%ADD31R,1.0000X0.8000*%
G04:AMPARAMS|DCode=32|XSize=0.4mm|YSize=1.6mm|CornerRadius=0.044mm|HoleSize=0mm|Usage=FLASHONLY|Rotation=90.000|XOffset=0mm|YOffset=0mm|HoleType=Round|Shape=RoundedRectangle|*
%AMROUNDEDRECTD32*
21,1,0.4000,1.5120,0,0,90.0*
21,1,0.3120,1.6000,0,0,90.0*
1,1,0.0880,0.7560,0.1560*
1,1,0.0880,0.7560,-0.1560*
1,1,0.0880,-0.7560,-0.1560*
1,1,0.0880,-0.7560,0.1560*
%
%ADD32ROUNDEDRECTD32*%
%ADD33R,0.8000X1.0000*%
%ADD34R,1.0500X0.9000*%
%ADD35R,1.5000X1.4500*%
%ADD36R,0.8000X1.8000*%
%ADD37R,0.7000X1.8000*%
%ADD38R,0.9000X1.0500*%
%ADD39R,0.6500X1.1500*%
%ADD40R,0.6500X1.2000*%
%ADD41R,1.2000X1.5000*%
%ADD42R,1.0500X0.5500*%
%ADD43R,3.0500X1.8000*%
%ADD44R,1.0500X1.0500*%
G04:AMPARAMS|DCode=45|XSize=0.55mm|YSize=0.8mm|CornerRadius=0.0495mm|HoleSize=0mm|Usage=FLASHONLY|Rotation=180.000|XOffset=0mm|YOffset=0mm|HoleType=Round|Shape=RoundedRectangle|*
%AMROUNDEDRECTD45*
21,1,0.5500,0.7010,0,0,180.0*
21,1,0.4510,0.8000,0,0,180.0*
1,1,0.0990,-0.2255,0.3505*
1,1,0.0990,0.2255,0.3505*
1,1,0.0990,0.2255,-0.3505*
1,1,0.0990,-0.2255,-0.3505*
%
%ADD45ROUNDEDRECTD45*%
%ADD46R,1.4500X1.2000*%
G04:AMPARAMS|DCode=47|XSize=0.8mm|YSize=2.216mm|CornerRadius=0.2mm|HoleSize=0mm|Usage=FLASHONLY|Rotation=90.000|XOffset=0mm|YOffset=0mm|HoleType=Round|Shape=RoundedRectangle|*
%AMROUNDEDRECTD47*
21,1,0.8000,1.8160,0,0,90.0*
21,1,0.4000,2.2160,0,0,90.0*
1,1,0.4000,0.9080,0.2000*
1,1,0.4000,0.9080,-0.2000*
1,1,0.4000,-0.9080,-0.2000*
1,1,0.4000,-0.9080,0.2000*
%
%ADD47ROUNDEDRECTD47*%
G04:AMPARAMS|DCode=48|XSize=0.65mm|YSize=1.65mm|CornerRadius=0.0488mm|HoleSize=0mm|Usage=FLASHONLY|Rotation=90.000|XOffset=0mm|YOffset=0mm|HoleType=Round|Shape=RoundedRectangle|*
%AMROUNDEDRECTD48*
21,1,0.6500,1.5525,0,0,90.0*
21,1,0.5525,1.6500,0,0,90.0*
1,1,0.0975,0.7763,0.2763*
1,1,0.0975,0.7763,-0.2763*
1,1,0.0975,-0.7763,-0.2763*
1,1,0.0975,-0.7763,0.2763*
%
%ADD48ROUNDEDRECTD48*%
%ADD49R,1.5000X1.2000*%
%ADD50R,1.1500X2.8000*%
%ADD51R,1.1500X0.6500*%
%ADD52R,1.2000X0.6500*%
%ADD53R,1.4500X1.5000*%
%ADD54R,1.9000X1.1000*%
%ADD55R,0.8000X0.8000*%
G36*
X275730Y47990D02*
X268730D01*
Y61990D01*
X269730D01*
Y70990D01*
X274730D01*
Y61990D01*
X275730D01*
Y47990D01*
D02*
G37*
G36*
X287230D02*
X279230D01*
Y61990D01*
X280230D01*
Y70990D01*
X286230D01*
Y61990D01*
X287230D01*
Y47990D01*
D02*
G37*
G36*
X298230D02*
X290230D01*
Y61990D01*
X291230D01*
Y70990D01*
X297230D01*
Y61990D01*
X298230D01*
Y47990D01*
D02*
G37*
G36*
X309230D02*
X301230D01*
Y61990D01*
X302230D01*
Y70990D01*
X308230D01*
Y61990D01*
X309230D01*
Y47990D01*
D02*
G37*
G36*
X320230D02*
X312230D01*
Y61990D01*
X313230D01*
Y70990D01*
X319230D01*
Y61990D01*
X320230D01*
Y47990D01*
D02*
G37*
G36*
X331230D02*
X323230D01*
Y61990D01*
X324230D01*
Y70990D01*
X330230D01*
Y61990D01*
X331230D01*
Y47990D01*
D02*
G37*
G36*
X342230D02*
X334230D01*
Y61990D01*
X335230D01*
Y70990D01*
X341230D01*
Y61990D01*
X342230D01*
Y47990D01*
D02*
G37*
G36*
X353230D02*
X345230D01*
Y61990D01*
X346230D01*
Y70990D01*
X352230D01*
Y61990D01*
X353230D01*
Y47990D01*
D02*
G37*
G36*
X363730D02*
X356730D01*
Y61990D01*
X357730D01*
Y70990D01*
X362730D01*
Y61990D01*
X363730D01*
Y47990D01*
D02*
G37*
G36*
X268730Y172990D02*
X275730D01*
Y158990D01*
X274730D01*
Y149990D01*
X269730D01*
Y158990D01*
X268730D01*
Y172990D01*
D02*
G37*
G36*
X279230D02*
X287230D01*
Y158990D01*
X286230D01*
Y149990D01*
X280230D01*
Y158990D01*
X279230D01*
Y172990D01*
D02*
G37*
G36*
X290230D02*
X298230D01*
Y158990D01*
X297230D01*
Y149990D01*
X291230D01*
Y158990D01*
X290230D01*
Y172990D01*
D02*
G37*
G36*
X301230D02*
X309230D01*
Y158990D01*
X308230D01*
Y149990D01*
X302230D01*
Y158990D01*
X301230D01*
Y172990D01*
D02*
G37*
G36*
X312230D02*
X320230D01*
Y158990D01*
X319230D01*
Y149990D01*
X313230D01*
Y158990D01*
X312230D01*
Y172990D01*
D02*
G37*
G36*
X323230D02*
X331230D01*
Y158990D01*
X330230D01*
Y149990D01*
X324230D01*
Y158990D01*
X323230D01*
Y172990D01*
D02*
G37*
G36*
X334230D02*
X342230D01*
Y158990D01*
X341230D01*
Y149990D01*
X335230D01*
Y158990D01*
X334230D01*
Y172990D01*
D02*
G37*
G36*
X345230D02*
X353230D01*
Y158990D01*
X352230D01*
Y149990D01*
X346230D01*
Y158990D01*
X345230D01*
Y172990D01*
D02*
G37*
G36*
X356730D02*
X363730D01*
Y158990D01*
X362730D01*
Y149990D01*
X357730D01*
Y158990D01*
X356730D01*
Y172990D01*
D02*
G37*
D20*
X176122Y-261390D02*
D03*
X199122D02*
D03*
X222122D02*
D03*
D21*
X199122Y-200890D02*
D03*
D22*
X4411Y-55357D02*
D03*
X17911D02*
D03*
X273450Y-111760D02*
D03*
X259950D02*
D03*
X524630Y-194310D02*
D03*
X538130D02*
D03*
X-40990Y-259080D02*
D03*
X-54490D02*
D03*
X361600Y215900D02*
D03*
X348100D02*
D03*
X107080Y210820D02*
D03*
X93580D02*
D03*
X273450Y-161290D02*
D03*
X259950D02*
D03*
X273450Y-136398D02*
D03*
X259950D02*
D03*
X316630Y-85090D02*
D03*
X303130D02*
D03*
X66910Y-57900D02*
D03*
X80410D02*
D03*
X160140Y918210D02*
D03*
X173640D02*
D03*
X315880Y919480D02*
D03*
X302380D02*
D03*
X315880Y944880D02*
D03*
X302380D02*
D03*
X405530Y-111760D02*
D03*
X392030D02*
D03*
X469550Y222250D02*
D03*
X456050D02*
D03*
D23*
X1170Y945160D02*
D03*
X-11330D02*
D03*
X-23830D02*
D03*
X-36330D02*
D03*
X-48830D02*
D03*
X-61330D02*
D03*
X13670D02*
D03*
X26170D02*
D03*
X38670D02*
D03*
X51170D02*
D03*
D24*
X-86830Y972660D02*
D03*
X76670D02*
D03*
D25*
X421750Y216100D02*
D03*
X415250D02*
D03*
X408750D02*
D03*
X402250D02*
D03*
Y177600D02*
D03*
X408750D02*
D03*
X415250D02*
D03*
X421750D02*
D03*
D26*
X392750Y206600D02*
D03*
Y200100D02*
D03*
Y193600D02*
D03*
Y187100D02*
D03*
X431250D02*
D03*
Y193600D02*
D03*
Y200100D02*
D03*
Y206600D02*
D03*
D27*
X412000Y196850D02*
D03*
D28*
X212225Y955950D02*
D03*
Y950950D02*
D03*
Y945950D02*
D03*
Y940950D02*
D03*
Y935950D02*
D03*
Y930950D02*
D03*
Y925950D02*
D03*
Y920950D02*
D03*
Y915950D02*
D03*
Y910950D02*
D03*
X243475D02*
D03*
Y915950D02*
D03*
Y920950D02*
D03*
Y925950D02*
D03*
Y930950D02*
D03*
Y935950D02*
D03*
Y940950D02*
D03*
Y945950D02*
D03*
Y950950D02*
D03*
Y955950D02*
D03*
D29*
X235350Y956575D02*
D03*
X230350D02*
D03*
X225350D02*
D03*
X220350D02*
D03*
Y910325D02*
D03*
X225350D02*
D03*
X230350D02*
D03*
X235350D02*
D03*
D30*
X350420Y194310D02*
D03*
X337920D02*
D03*
D31*
X143510Y291980D02*
D03*
Y276980D02*
D03*
X-83566Y919868D02*
D03*
Y904868D02*
D03*
X214630Y863720D02*
D03*
Y878720D02*
D03*
X200660Y-83700D02*
D03*
Y-68700D02*
D03*
X509790Y-255150D02*
D03*
Y-240150D02*
D03*
X456450Y-202050D02*
D03*
Y-217050D02*
D03*
X-54090Y-224910D02*
D03*
Y-239910D02*
D03*
X-83300Y839350D02*
D03*
Y824350D02*
D03*
X235470Y990720D02*
D03*
Y1005720D02*
D03*
X373900Y875150D02*
D03*
Y890150D02*
D03*
Y837050D02*
D03*
Y852050D02*
D03*
X194310Y863720D02*
D03*
Y878720D02*
D03*
X215150Y990720D02*
D03*
Y1005720D02*
D03*
X242570Y878720D02*
D03*
Y863720D02*
D03*
X262890Y878720D02*
D03*
Y863720D02*
D03*
X194830Y1005720D02*
D03*
Y990720D02*
D03*
D32*
X360700Y-149750D02*
D03*
Y-143250D02*
D03*
Y-136750D02*
D03*
Y-130250D02*
D03*
Y-123750D02*
D03*
Y-117250D02*
D03*
Y-110750D02*
D03*
Y-104250D02*
D03*
X299700Y-149750D02*
D03*
Y-143250D02*
D03*
Y-136750D02*
D03*
Y-130250D02*
D03*
Y-123750D02*
D03*
Y-117250D02*
D03*
Y-110750D02*
D03*
Y-104250D02*
D03*
D33*
X-21710Y88900D02*
D03*
X-36710D02*
D03*
X18276Y-73834D02*
D03*
X3276D02*
D03*
X3063Y119380D02*
D03*
X-11938D02*
D03*
Y139700D02*
D03*
X3063D02*
D03*
X125850Y187960D02*
D03*
X140850D02*
D03*
X125850Y167640D02*
D03*
X140850D02*
D03*
X13100Y-200660D02*
D03*
X-1900D02*
D03*
X373900Y-31750D02*
D03*
X388900D02*
D03*
X347350Y273050D02*
D03*
X362350D02*
D03*
X160540Y984250D02*
D03*
X175540D02*
D03*
X174390Y897890D02*
D03*
X159390D02*
D03*
X175660Y963930D02*
D03*
X160660D02*
D03*
X349650Y-31750D02*
D03*
X334650D02*
D03*
X455300Y158750D02*
D03*
X470300D02*
D03*
X470300Y177800D02*
D03*
X455300D02*
D03*
D34*
X-26150Y-153050D02*
D03*
Y-139050D02*
D03*
X24650D02*
D03*
Y-153050D02*
D03*
X200660Y-23480D02*
D03*
Y-37480D02*
D03*
X506730Y927750D02*
D03*
Y913750D02*
D03*
X481330Y927750D02*
D03*
Y913750D02*
D03*
D35*
X-1270Y-157840D02*
D03*
Y-139340D02*
D03*
Y891900D02*
D03*
Y873400D02*
D03*
X264160Y-21230D02*
D03*
Y-39730D02*
D03*
X290830Y860700D02*
D03*
Y879200D02*
D03*
X309130Y-360D02*
D03*
Y18140D02*
D03*
D36*
X327230Y157990D02*
D03*
X338230D02*
D03*
X349230D02*
D03*
X316230D02*
D03*
X349230Y62990D02*
D03*
X338230D02*
D03*
X327230D02*
D03*
X283230D02*
D03*
X294230D02*
D03*
X305230D02*
D03*
X316230D02*
D03*
X283230Y157990D02*
D03*
X294230D02*
D03*
X305230D02*
D03*
D37*
X360230D02*
D03*
Y62990D02*
D03*
X272230D02*
D03*
Y157990D02*
D03*
D38*
X170050Y-158750D02*
D03*
X184050D02*
D03*
X126350Y147320D02*
D03*
X140350D02*
D03*
X126350Y125730D02*
D03*
X140350D02*
D03*
X-10810Y175260D02*
D03*
X3190D02*
D03*
X361850Y234950D02*
D03*
X347850D02*
D03*
X-31850Y838200D02*
D03*
X-45850D02*
D03*
D39*
X221640Y-88950D02*
D03*
X240640D02*
D03*
X231140Y-63450D02*
D03*
X-73800Y889050D02*
D03*
X-92800D02*
D03*
X-83300Y863550D02*
D03*
X392290Y19100D02*
D03*
X373290D02*
D03*
X382790Y-6400D02*
D03*
D40*
X231140Y-44980D02*
D03*
X221640Y-15980D02*
D03*
X240640D02*
D03*
X70510Y-5050D02*
D03*
X80010D02*
D03*
X89510D02*
D03*
Y-34550D02*
D03*
X80010D02*
D03*
X70510D02*
D03*
X-38850Y890800D02*
D03*
X-29350Y861800D02*
D03*
X-48350D02*
D03*
X342150Y20850D02*
D03*
X351650Y-8150D02*
D03*
X332650D02*
D03*
D41*
X388280Y-63500D02*
D03*
X409280D02*
D03*
Y-88900D02*
D03*
X388280D02*
D03*
Y-134620D02*
D03*
X409280D02*
D03*
Y-160020D02*
D03*
X388280D02*
D03*
D42*
X-17810Y157480D02*
D03*
X10190D02*
D03*
X147350Y106680D02*
D03*
X119350D02*
D03*
Y91440D02*
D03*
X147350D02*
D03*
X-17810Y193040D02*
D03*
X10190D02*
D03*
X-17810Y208280D02*
D03*
X10190D02*
D03*
D43*
X105820Y248920D02*
D03*
X61820D02*
D03*
X75340Y71120D02*
D03*
X31340D02*
D03*
D44*
X-16510Y-94850D02*
D03*
Y-108350D02*
D03*
X255790Y1004970D02*
D03*
Y991470D02*
D03*
D45*
X1180Y-88850D02*
D03*
X20180D02*
D03*
Y-114350D02*
D03*
X10680D02*
D03*
X1180D02*
D03*
D46*
X50050Y-161450D02*
D03*
Y-181450D02*
D03*
D47*
X143050Y-184150D02*
D03*
Y-158750D02*
D03*
X81800D02*
D03*
X81800Y-184150D02*
D03*
D48*
X93020Y119380D02*
D03*
Y132080D02*
D03*
Y144780D02*
D03*
Y157480D02*
D03*
Y170180D02*
D03*
Y182880D02*
D03*
Y195580D02*
D03*
X36520Y119380D02*
D03*
Y132080D02*
D03*
Y144780D02*
D03*
Y157480D02*
D03*
Y170180D02*
D03*
Y182880D02*
D03*
Y195580D02*
D03*
D49*
X113030Y-8550D02*
D03*
Y-29550D02*
D03*
D50*
X66570Y-89650D02*
D03*
X101070D02*
D03*
D51*
X323050Y841350D02*
D03*
Y822350D02*
D03*
X348550Y831850D02*
D03*
D52*
X319500Y879450D02*
D03*
X348500Y888950D02*
D03*
Y869950D02*
D03*
X486190Y-255880D02*
D03*
Y-236880D02*
D03*
X457190Y-246380D02*
D03*
X-31020Y-222910D02*
D03*
Y-241910D02*
D03*
X-2020Y-232410D02*
D03*
D53*
X153830Y941070D02*
D03*
X172330D02*
D03*
X299330Y969010D02*
D03*
X280830D02*
D03*
D54*
X279920Y944680D02*
D03*
Y919680D02*
D03*
D55*
X506730Y945000D02*
D03*
Y960000D02*
D03*
X481330D02*
D03*
Y945000D02*
D03*
M02*
