G04*
G04 #@! TF.GenerationSoftware,Altium Limited,DefaultClient, ()*
G04*
G04 Layer_Color=128*
%FSLAX44Y44*%
%MOMM*%
G71*
G04*
G04 #@! TF.SameCoordinates,8DA877EA-5960-4089-89AF-F9EF2ED2926F*
G04*
G04*
G04 #@! TF.FilePolarity,Positive*
G04*
G01*
G75*
%ADD22R,1.0500X1.0500*%
%ADD31R,1.0000X0.8000*%
%ADD33R,0.8000X1.0000*%
%ADD34R,1.0500X0.9000*%
%ADD35R,1.5000X1.4500*%
%ADD38R,0.9000X1.0500*%
%ADD39R,0.6500X1.1500*%
%ADD40R,0.6500X1.2000*%
%ADD41R,1.2000X1.5000*%
%ADD44R,1.0500X1.0500*%
%ADD50R,1.1500X2.8000*%
%ADD51R,1.1500X0.6500*%
%ADD52R,1.2000X0.6500*%
%ADD53R,1.4500X1.5000*%
%ADD139R,2.5000X1.7000*%
%ADD140R,1.8052X0.6121*%
G04:AMPARAMS|DCode=141|XSize=1.8052mm|YSize=0.6121mm|CornerRadius=0.3061mm|HoleSize=0mm|Usage=FLASHONLY|Rotation=0.000|XOffset=0mm|YOffset=0mm|HoleType=Round|Shape=RoundedRectangle|*
%AMROUNDEDRECTD141*
21,1,1.8052,0.0000,0,0,0.0*
21,1,1.1931,0.6121,0,0,0.0*
1,1,0.6121,0.5966,0.0000*
1,1,0.6121,-0.5966,0.0000*
1,1,0.6121,-0.5966,0.0000*
1,1,0.6121,0.5966,0.0000*
%
%ADD141ROUNDEDRECTD141*%
%ADD142R,2.8000X1.1500*%
%ADD143R,3.0000X5.0000*%
%ADD144O,1.6500X0.6500*%
D22*
X348100Y215900D02*
D03*
X361600D02*
D03*
X303650Y537040D02*
D03*
X317150D02*
D03*
X167760Y481330D02*
D03*
X181260D02*
D03*
D31*
X-20320Y133470D02*
D03*
Y148470D02*
D03*
X278130Y833000D02*
D03*
Y818000D02*
D03*
X259080Y213240D02*
D03*
Y198240D02*
D03*
X302780Y429380D02*
D03*
Y444380D02*
D03*
X175780Y576700D02*
D03*
Y591700D02*
D03*
D33*
X346337Y-92174D02*
D03*
X331337D02*
D03*
X369437Y-70664D02*
D03*
X384437D02*
D03*
X369437Y-50344D02*
D03*
X384437D02*
D03*
X470020Y-76200D02*
D03*
X485020D02*
D03*
X102000Y-22860D02*
D03*
X87000D02*
D03*
X140100Y-3810D02*
D03*
X125100D02*
D03*
X296030Y199390D02*
D03*
X311030D02*
D03*
X347350Y254000D02*
D03*
X362350D02*
D03*
X317900Y462280D02*
D03*
X302900D02*
D03*
X175660Y557530D02*
D03*
X160660D02*
D03*
D34*
X204990Y506080D02*
D03*
Y520080D02*
D03*
X184670Y520080D02*
D03*
Y506080D02*
D03*
X295160Y499730D02*
D03*
Y513730D02*
D03*
X273570Y513730D02*
D03*
Y499730D02*
D03*
D35*
X438912Y-106828D02*
D03*
Y-125328D02*
D03*
D38*
X139600Y-22860D02*
D03*
X125600D02*
D03*
X347850Y234950D02*
D03*
X361850D02*
D03*
D39*
X268580Y234900D02*
D03*
X249580D02*
D03*
X259080Y260400D02*
D03*
D40*
X303530Y262150D02*
D03*
X294030Y233150D02*
D03*
X313030D02*
D03*
X332600Y515130D02*
D03*
X323100D02*
D03*
X313600D02*
D03*
Y485630D02*
D03*
X323100D02*
D03*
X332600D02*
D03*
X145960Y534180D02*
D03*
X155460D02*
D03*
X164960D02*
D03*
Y504680D02*
D03*
X155460D02*
D03*
X145960D02*
D03*
D41*
X9820Y670560D02*
D03*
X30820D02*
D03*
D44*
X349770Y513480D02*
D03*
Y499980D02*
D03*
X291350Y736200D02*
D03*
Y749700D02*
D03*
Y666350D02*
D03*
Y679850D02*
D03*
X130060Y519830D02*
D03*
Y506330D02*
D03*
D50*
X313680Y605790D02*
D03*
X279180D02*
D03*
X169960Y411480D02*
D03*
X204460D02*
D03*
X279180Y567690D02*
D03*
X313680D02*
D03*
X349030Y463550D02*
D03*
X383530D02*
D03*
X349030Y425450D02*
D03*
X383530D02*
D03*
X93760Y551180D02*
D03*
X128260D02*
D03*
X93760Y589280D02*
D03*
X128260D02*
D03*
X169960Y449580D02*
D03*
X204460D02*
D03*
D51*
X323547Y-70004D02*
D03*
Y-51004D02*
D03*
X349047Y-60504D02*
D03*
D52*
X439697Y-78284D02*
D03*
X410697Y-68784D02*
D03*
Y-87784D02*
D03*
X94800Y-54610D02*
D03*
X68800Y-45110D02*
D03*
Y-64110D02*
D03*
D53*
X281580Y292100D02*
D03*
X300080D02*
D03*
D139*
X125300Y-54610D02*
D03*
X165300D02*
D03*
D140*
X100850Y-155550D02*
D03*
D141*
Y-146050D02*
D03*
Y-136550D02*
D03*
X123860D02*
D03*
Y-155550D02*
D03*
D142*
X163155Y-156950D02*
D03*
Y-122450D02*
D03*
X55205D02*
D03*
Y-156950D02*
D03*
X180072Y-261090D02*
D03*
Y-226590D02*
D03*
X218172Y-261090D02*
D03*
Y-226590D02*
D03*
X329450Y668550D02*
D03*
Y703050D02*
D03*
Y738400D02*
D03*
Y772900D02*
D03*
D143*
X397980Y563880D02*
D03*
X359980D02*
D03*
X117310Y463550D02*
D03*
X79310D02*
D03*
D144*
X256100Y774700D02*
D03*
Y762000D02*
D03*
Y749300D02*
D03*
Y736600D02*
D03*
X199600Y774700D02*
D03*
Y762000D02*
D03*
Y749300D02*
D03*
Y736600D02*
D03*
X256100Y704850D02*
D03*
Y692150D02*
D03*
Y679450D02*
D03*
Y666750D02*
D03*
X199600Y704850D02*
D03*
Y692150D02*
D03*
Y679450D02*
D03*
Y666750D02*
D03*
M02*
