G04*
G04 #@! TF.GenerationSoftware,Altium Limited,DefaultClient, ()*
G04*
G04 Layer_Color=32896*
%FSLAX44Y44*%
%MOMM*%
G71*
G04*
G04 #@! TF.SameCoordinates,8DA877EA-5960-4089-89AF-F9EF2ED2926F*
G04*
G04*
G04 #@! TF.FilePolarity,Positive*
G04*
G01*
G75*
%ADD10C,0.2500*%
%ADD11C,0.1270*%
%ADD13C,0.6000*%
%ADD14C,0.1778*%
%ADD15C,0.2000*%
D10*
X411947Y-96534D02*
G03*
X411947Y-96534I-1250J0D01*
G01*
X324797Y-78754D02*
G03*
X324797Y-78754I-1250J0D01*
G01*
X108300Y-54610D02*
G03*
X108300Y-54610I-1250J0D01*
G01*
X85324Y-155550D02*
G03*
X85324Y-155550I-1250J0D01*
G01*
X70050Y-72860D02*
G03*
X70050Y-72860I-1250J0D01*
G01*
X323030Y233150D02*
G03*
X323030Y233150I-1250J0D01*
G01*
X278580Y234900D02*
G03*
X278580Y234900I-1250J0D01*
G01*
X342600Y485630D02*
G03*
X342600Y485630I-1250J0D01*
G01*
X200850Y727850D02*
G03*
X200850Y727850I-1250J0D01*
G01*
Y658000D02*
G03*
X200850Y658000I-1250J0D01*
G01*
X138460Y534180D02*
G03*
X138460Y534180I-1250J0D01*
G01*
D11*
X462527Y859658D02*
G03*
X462527Y859658I-5080J0D01*
G01*
X390637Y-87784D02*
G03*
X390637Y-87784I-5080J0D01*
G01*
X177800Y655320D02*
G03*
X177800Y655320I-5080J0D01*
G01*
X184150Y679450D02*
G03*
X184150Y679450I-5080J0D01*
G01*
X154940Y692150D02*
G03*
X154940Y692150I-5080J0D01*
G01*
X177800Y642620D02*
G03*
X177800Y642620I-5080J0D01*
G01*
X231140Y786130D02*
G03*
X231140Y786130I-5080J0D01*
G01*
X163830Y749300D02*
G03*
X163830Y749300I-5080J0D01*
G01*
X184150Y762000D02*
G03*
X184150Y762000I-5080J0D01*
G01*
X189230Y725170D02*
G03*
X189230Y725170I-5080J0D01*
G01*
X495324Y851454D02*
G03*
X495324Y851454I-5080J0D01*
G01*
X220980Y276860D02*
G03*
X220980Y276860I-5080J0D01*
G01*
X287020Y271780D02*
G03*
X287020Y271780I-5080J0D01*
G01*
X278130Y527050D02*
G03*
X278130Y527050I-5080J0D01*
G01*
X406400Y617220D02*
G03*
X406400Y617220I-5080J0D01*
G01*
X202692Y165608D02*
G03*
X202692Y165608I-5080J0D01*
G01*
X76200Y661670D02*
G03*
X76200Y661670I-5080J0D01*
G01*
X130810Y-105410D02*
G03*
X130810Y-105410I-5080J0D01*
G01*
X501650Y257870D02*
G03*
X501650Y257870I-5080J0D01*
G01*
X490982Y277699D02*
G03*
X490982Y277699I-5080J0D01*
G01*
X-15240Y163830D02*
G03*
X-15240Y163830I-5080J0D01*
G01*
D13*
X224850Y740650D02*
G03*
X224850Y740650I-3000J0D01*
G01*
Y670800D02*
G03*
X224850Y670800I-3000J0D01*
G01*
D14*
X388126Y-105135D02*
X385732Y-102741D01*
X386929Y-103938D01*
X383338Y-107529D01*
X380945Y-105135D02*
X384535Y-101545D01*
X382740Y-99749D01*
X381543D01*
X380346Y-100946D01*
Y-102143D01*
X382141Y-103938D01*
X380346Y-98552D02*
Y-97355D01*
X379149Y-96158D01*
X377952D01*
X377354Y-96757D01*
Y-97954D01*
X377952Y-98552D01*
X377354Y-97954D01*
X376157Y-97954D01*
X375558Y-98552D01*
X375558Y-99749D01*
X376755Y-100946D01*
X377952D01*
X374361Y-97355D02*
X373164D01*
X371967Y-96158D01*
Y-94961D01*
X374361Y-92567D01*
X375558D01*
X376755Y-93764D01*
X376755Y-94961D01*
X376157Y-95560D01*
X374959Y-95560D01*
X373164Y-93764D01*
X370172Y-94363D02*
X372566Y-91969D01*
Y-89575D01*
X370172D01*
X367778Y-91969D01*
X369573Y-90173D01*
X371967Y-92567D01*
X364739Y-110489D02*
Y-102871D01*
X360931D01*
X359661Y-104141D01*
Y-106680D01*
X360931Y-107950D01*
X364739D01*
X362200D02*
X359661Y-110489D01*
X352044Y-102871D02*
X357122D01*
Y-106680D01*
X354583Y-105410D01*
X353313D01*
X352044Y-106680D01*
Y-109219D01*
X353313Y-110489D01*
X355852D01*
X357122Y-109219D01*
X349504Y-104141D02*
X348235Y-102871D01*
X345696D01*
X344426Y-104141D01*
Y-105410D01*
X345696Y-106680D01*
X344426Y-107950D01*
Y-109219D01*
X345696Y-110489D01*
X348235D01*
X349504Y-109219D01*
Y-107950D01*
X348235Y-106680D01*
X349504Y-105410D01*
Y-104141D01*
X348235Y-106680D02*
X345696D01*
X341887Y-110489D02*
Y-105410D01*
X339348Y-102871D01*
X336809Y-105410D01*
Y-110489D01*
Y-106680D01*
X341887D01*
X392172Y-23367D02*
Y-15749D01*
X388363D01*
X387093Y-17019D01*
Y-19558D01*
X388363Y-20828D01*
X392172D01*
X389632D02*
X387093Y-23367D01*
X380745D02*
Y-15749D01*
X384554Y-19558D01*
X379476D01*
X376936Y-22097D02*
X375667Y-23367D01*
X373128D01*
X371858Y-22097D01*
Y-17019D01*
X373128Y-15749D01*
X375667D01*
X376936Y-17019D01*
Y-18288D01*
X375667Y-19558D01*
X371858D01*
X369319Y-23367D02*
Y-18288D01*
X366780Y-15749D01*
X364240Y-18288D01*
Y-23367D01*
Y-19558D01*
X369319D01*
X392425Y-37845D02*
Y-30227D01*
X388617D01*
X387347Y-31497D01*
Y-34036D01*
X388617Y-35306D01*
X392425D01*
X389886D02*
X387347Y-37845D01*
X380999D02*
Y-30227D01*
X384808Y-34036D01*
X379730D01*
X377190Y-31497D02*
X375921Y-30227D01*
X373382D01*
X372112Y-31497D01*
Y-32766D01*
X373382Y-34036D01*
X372112Y-35306D01*
Y-36575D01*
X373382Y-37845D01*
X375921D01*
X377190Y-36575D01*
Y-35306D01*
X375921Y-34036D01*
X377190Y-32766D01*
Y-31497D01*
X375921Y-34036D02*
X373382D01*
X369573Y-37845D02*
Y-32766D01*
X367034Y-30227D01*
X364495Y-32766D01*
Y-37845D01*
Y-34036D01*
X369573D01*
X324868Y-31295D02*
Y-36373D01*
X323599Y-37643D01*
X321060D01*
X319790Y-36373D01*
Y-31295D01*
X321060Y-30025D01*
X323599D01*
X322329Y-32564D02*
X324868Y-30025D01*
X323599D02*
X324868Y-31295D01*
X332486Y-37643D02*
X327407D01*
Y-33834D01*
X329947Y-35104D01*
X331216D01*
X332486Y-33834D01*
Y-31295D01*
X331216Y-30025D01*
X328677D01*
X327407Y-31295D01*
X335025Y-30025D02*
Y-35104D01*
X337564Y-37643D01*
X340103Y-35104D01*
Y-30025D01*
Y-33834D01*
X335025D01*
X440688Y-54609D02*
Y-49531D01*
X441958Y-48261D01*
X444497D01*
X445767Y-49531D01*
Y-54609D01*
X444497Y-55879D01*
X441958D01*
X443228Y-53340D02*
X440688Y-55879D01*
X441958D02*
X440688Y-54609D01*
X434340Y-55879D02*
Y-48261D01*
X438149Y-52070D01*
X433071D01*
X430532Y-55879D02*
Y-50800D01*
X427992Y-48261D01*
X425453Y-50800D01*
Y-55879D01*
Y-52070D01*
X430532D01*
X487171Y-124965D02*
X488441Y-126235D01*
Y-128774D01*
X487171Y-130043D01*
X482093D01*
X480823Y-128774D01*
Y-126235D01*
X482093Y-124965D01*
X487171Y-122426D02*
X488441Y-121156D01*
Y-118617D01*
X487171Y-117348D01*
X485902D01*
X484632Y-118617D01*
Y-119887D01*
Y-118617D01*
X483363Y-117348D01*
X482093D01*
X480823Y-118617D01*
Y-121156D01*
X482093Y-122426D01*
X488441Y-109730D02*
Y-114808D01*
X484632D01*
X485902Y-112269D01*
Y-111000D01*
X484632Y-109730D01*
X482093D01*
X480823Y-111000D01*
Y-113539D01*
X482093Y-114808D01*
X480823Y-107191D02*
X485902D01*
X488441Y-104652D01*
X485902Y-102113D01*
X480823D01*
X484632D01*
Y-107191D01*
X284349Y797434D02*
Y789817D01*
X288157D01*
X289427Y791086D01*
Y793625D01*
X288157Y794895D01*
X284349D01*
X286888D02*
X289427Y797434D01*
X297044Y789817D02*
X291966D01*
Y793625D01*
X294505Y792356D01*
X295775D01*
X297044Y793625D01*
Y796165D01*
X295775Y797434D01*
X293236D01*
X291966Y796165D01*
X299584Y791086D02*
X300853Y789817D01*
X303392D01*
X304662Y791086D01*
Y792356D01*
X303392Y793625D01*
X304662Y794895D01*
Y796165D01*
X303392Y797434D01*
X300853D01*
X299584Y796165D01*
Y794895D01*
X300853Y793625D01*
X299584Y792356D01*
Y791086D01*
X300853Y793625D02*
X303392D01*
X312279Y791086D02*
X311010Y789817D01*
X308471D01*
X307201Y791086D01*
Y796165D01*
X308471Y797434D01*
X311010D01*
X312279Y796165D01*
X496058Y-93979D02*
Y-86361D01*
X492249D01*
X490979Y-87631D01*
Y-90170D01*
X492249Y-91440D01*
X496058D01*
X493518D02*
X490979Y-93979D01*
X483362Y-86361D02*
X488440D01*
Y-90170D01*
X485901Y-88900D01*
X484631D01*
X483362Y-90170D01*
Y-92709D01*
X484631Y-93979D01*
X487170D01*
X488440Y-92709D01*
X480822Y-87631D02*
X479553Y-86361D01*
X477014D01*
X475744Y-87631D01*
Y-88900D01*
X477014Y-90170D01*
X475744Y-91440D01*
Y-92709D01*
X477014Y-93979D01*
X479553D01*
X480822Y-92709D01*
Y-91440D01*
X479553Y-90170D01*
X480822Y-88900D01*
Y-87631D01*
X479553Y-90170D02*
X477014D01*
X473205Y-86361D02*
Y-93979D01*
X469396D01*
X468126Y-92709D01*
Y-91440D01*
X469396Y-90170D01*
X473205D01*
X469396D01*
X468126Y-88900D01*
Y-87631D01*
X469396Y-86361D01*
X473205D01*
X-39877Y126496D02*
X-32259D01*
Y130305D01*
X-33529Y131575D01*
X-36068D01*
X-37338Y130305D01*
Y126496D01*
Y129036D02*
X-39877Y131575D01*
X-32259Y139192D02*
Y134114D01*
X-36068D01*
X-34798Y136653D01*
Y137923D01*
X-36068Y139192D01*
X-38607D01*
X-39877Y137923D01*
Y135384D01*
X-38607Y134114D01*
X-32259Y141732D02*
Y146810D01*
X-33529D01*
X-38607Y141732D01*
X-39877D01*
Y149349D02*
X-34798D01*
X-32259Y151888D01*
X-34798Y154427D01*
X-39877D01*
X-36068D01*
Y149349D01*
X167129Y663232D02*
X164735Y665626D01*
X165932Y664429D01*
X162341Y660838D01*
X159947Y663232D02*
X163538Y666823D01*
X161742Y668618D01*
X160546D01*
X159348Y667422D01*
Y666225D01*
X161144Y664429D01*
X157553Y672808D02*
X159947Y670414D01*
X158152Y668618D01*
X157553Y670414D01*
X156954Y671012D01*
X155758D01*
X154561Y669816D01*
X154561Y668618D01*
X155758Y667422D01*
X156955D01*
X155758Y673406D02*
X155758Y674603D01*
X154561Y675800D01*
X153364D01*
X152765Y675202D01*
Y674005D01*
X153364Y673406D01*
X152765Y674005D01*
X151568D01*
X150970Y673406D01*
Y672209D01*
X152167Y671012D01*
X153364D01*
X176019Y688632D02*
X173625Y691026D01*
X174822Y689829D01*
X171231Y686238D01*
X168837Y688632D02*
X172428Y692223D01*
X170632Y694018D01*
X169436D01*
X168239Y692822D01*
Y691625D01*
X170034Y689829D01*
X166443Y698208D02*
X168837Y695814D01*
X167041Y694018D01*
X166443Y695814D01*
X165844Y696413D01*
X164648D01*
X163451Y695216D01*
X163451Y694018D01*
X164648Y692822D01*
X165845D01*
X159261Y698208D02*
X161655Y695814D01*
Y700602D01*
X162254Y701200D01*
X163451D01*
X164648Y700003D01*
X164648Y698806D01*
X143670Y700661D02*
X141276Y703055D01*
X142473Y701858D01*
X138883Y698267D01*
X136489Y700661D02*
X140079Y704251D01*
X138284Y706047D01*
X137087D01*
X135890Y704850D01*
Y703653D01*
X137685Y701858D01*
X134094Y710236D02*
X136489Y707842D01*
X134693Y706047D01*
X134094Y707842D01*
X133496Y708441D01*
X132299D01*
X131102Y707244D01*
X131102Y706047D01*
X132299Y704850D01*
X133496D01*
X129307Y707842D02*
X128110Y709039D01*
X128708Y708441D01*
X132299Y712032D01*
X132299Y710835D01*
X162049Y645452D02*
X159655Y647846D01*
X160852Y646649D01*
X157261Y643058D01*
X154867Y645452D02*
X158458Y649043D01*
X156663Y650838D01*
X155465D01*
X154269Y649642D01*
Y648445D01*
X156064Y646649D01*
X152473Y655028D02*
X154867Y652634D01*
X153071Y650838D01*
X152473Y652634D01*
X151875Y653232D01*
X150678D01*
X149481Y652036D01*
X149481Y650838D01*
X150677Y649642D01*
X151875D01*
X150678Y655626D02*
X150677Y656823D01*
X149481Y658020D01*
X148284D01*
X145890Y655626D01*
Y654429D01*
X147087Y653232D01*
X148284D01*
X150678Y655626D01*
X219199Y796582D02*
X216805Y798976D01*
X218002Y797779D01*
X214411Y794188D01*
X212017Y796582D02*
X215608Y800173D01*
X213813Y801969D01*
X212616D01*
X211418Y800772D01*
Y799575D01*
X213214Y797779D01*
X206631Y801969D02*
X210222Y805559D01*
Y801969D01*
X207828Y804362D01*
X205434D02*
X204237D01*
X203040Y805559D01*
Y806756D01*
X205434Y809150D01*
X206631D01*
X207827Y807953D01*
X207828Y806756D01*
X207229Y806158D01*
X206032Y806158D01*
X204237Y807953D01*
X151889Y759752D02*
X149495Y762146D01*
X150692Y760949D01*
X147101Y757358D01*
X144707Y759752D02*
X148298Y763343D01*
X146503Y765138D01*
X145306D01*
X144108Y763942D01*
Y762745D01*
X145904Y760949D01*
X139321Y765138D02*
X142912Y768729D01*
Y765138D01*
X140518Y767533D01*
Y769926D02*
X140518Y771123D01*
X139321Y772320D01*
X138124D01*
X137525Y771722D01*
Y770525D01*
X136328D01*
X135730Y769926D01*
Y768729D01*
X136927Y767533D01*
X138124D01*
X138722Y768131D01*
Y769328D01*
X139919Y769328D01*
X140518Y769926D01*
X138722Y769328D02*
X137525Y770525D01*
X172209Y769912D02*
X169815Y772306D01*
X171012Y771109D01*
X167421Y767518D01*
X165027Y769912D02*
X168618Y773503D01*
X166822Y775298D01*
X165625D01*
X164429Y774102D01*
Y772905D01*
X166224Y771109D01*
X159641Y775298D02*
X163232Y778889D01*
Y775298D01*
X160838Y777692D01*
X161436Y780685D02*
X159042Y783079D01*
X158444Y782480D01*
Y777692D01*
X157845Y777094D01*
X177289Y712762D02*
X174895Y715156D01*
X176092Y713959D01*
X172501Y710368D01*
X170107Y712762D02*
X173698Y716353D01*
X171903Y718148D01*
X170706D01*
X169508Y716952D01*
Y715755D01*
X171304Y713959D01*
X164721Y718148D02*
X168312Y721740D01*
Y718148D01*
X165918Y720543D01*
X164122Y725929D02*
X164721Y724133D01*
Y721740D01*
X163524Y720543D01*
X162327D01*
X161130Y721740D01*
Y722936D01*
X161728Y723535D01*
X162925D01*
X164721Y721740D01*
X485415Y859875D02*
X483021Y862269D01*
X484218Y861072D01*
X480627Y857481D01*
X478233Y859875D02*
X481824Y863466D01*
X480029Y865261D01*
X478832D01*
X477635Y864064D01*
Y862867D01*
X479430Y861072D01*
X472847Y865261D02*
X476438Y868852D01*
Y865261D01*
X474044Y867655D01*
X472248Y873041D02*
X474642Y870648D01*
X472847Y868852D01*
X472248Y870648D01*
X471650Y871246D01*
X470453D01*
X469256Y870049D01*
Y868852D01*
X470453Y867655D01*
X471650D01*
X457698Y871126D02*
X455304Y873520D01*
X456501Y872323D01*
X452910Y868732D01*
X450516Y871126D02*
X454107Y874717D01*
X452312Y876512D01*
X451115D01*
X449918Y875315D01*
Y874118D01*
X451713Y872323D01*
X445130Y876512D02*
X448721Y880103D01*
Y876512D01*
X446327Y878906D01*
X441539Y880103D02*
X445130Y883694D01*
X445130Y880103D01*
X442736Y882497D01*
X189602Y307479D02*
X187208Y305085D01*
X188405Y306282D01*
X191996Y302691D01*
X189602Y300297D02*
X186011Y303888D01*
X184216Y302092D01*
Y300896D01*
X185412Y299699D01*
X186609D01*
X188405Y301494D01*
X184216Y294911D02*
X180625Y298501D01*
X184216D01*
X181821Y296108D01*
X179428D02*
X178231Y296108D01*
X177034Y294911D01*
Y293714D01*
X179428Y291320D01*
X180625D01*
X181821Y292517D01*
Y293714D01*
X179428Y296108D01*
X175238Y293115D02*
X178829Y289524D01*
X177034Y287729D01*
X175837Y287729D01*
X173443Y290123D01*
Y291320D01*
X175238Y293115D01*
X273064Y275103D02*
X270670Y277497D01*
X271867Y276300D01*
X268276Y272709D01*
X265882Y275103D02*
X269473Y278694D01*
X267678Y280489D01*
X266481D01*
X265284Y279292D01*
Y278095D01*
X267080Y276300D01*
X265284Y281686D02*
Y282883D01*
X264087Y284080D01*
X262890D01*
X262292Y283482D01*
Y282285D01*
X262890Y281686D01*
X262292Y282285D01*
X261095Y282285D01*
X260496Y281686D01*
X260496Y280489D01*
X261693Y279292D01*
X262890D01*
X259299Y282883D02*
X258102D01*
X256905Y284080D01*
Y285277D01*
X259299Y287671D01*
X260496D01*
X261693Y286474D01*
X261693Y285277D01*
X261095Y284678D01*
X259898Y284678D01*
X258102Y286474D01*
X258701Y289466D02*
X255110Y285875D01*
X253314Y287671D01*
X253314Y288868D01*
X255708Y291262D01*
X256905D01*
X258701Y289466D01*
X263903Y525310D02*
X261509Y527704D01*
X262706Y526507D01*
X259115Y522916D01*
X256721Y525310D02*
X260312Y528901D01*
X258517Y530696D01*
X257320D01*
X256122Y529500D01*
Y528303D01*
X257918Y526507D01*
X256122Y531894D02*
Y533091D01*
X254925Y534287D01*
X253729D01*
X253130Y533689D01*
Y532492D01*
X253729Y531894D01*
X253130Y532492D01*
X251933Y532492D01*
X251335Y531894D01*
X251335Y530696D01*
X252532Y529500D01*
X253729D01*
X252532Y535484D02*
X252532Y536681D01*
X251335Y537878D01*
X250138D01*
X249539Y537280D01*
Y536083D01*
X248342D01*
X247744Y535484D01*
Y534287D01*
X248941Y533091D01*
X250138D01*
X250736Y533689D01*
Y534886D01*
X251933Y534886D01*
X252532Y535484D01*
X250736Y534886D02*
X249539Y536083D01*
X396999Y627926D02*
X394605Y630320D01*
X395802Y629123D01*
X392211Y625532D01*
X389817Y627926D02*
X393408Y631517D01*
X391613Y633312D01*
X390415D01*
X389218Y632116D01*
Y630919D01*
X391014Y629123D01*
X389218Y634510D02*
Y635706D01*
X388022Y636903D01*
X386825D01*
X386226Y636305D01*
Y635108D01*
X386825Y634510D01*
X386226Y635108D01*
X385029Y635108D01*
X384431Y634510D01*
X384431Y633312D01*
X385628Y632116D01*
X386825D01*
X386226Y638699D02*
X383832Y641093D01*
X383234Y640494D01*
Y635706D01*
X382635Y635108D01*
X192529Y175552D02*
X190135Y177946D01*
X191332Y176749D01*
X187741Y173158D01*
X185347Y175552D02*
X188938Y179143D01*
X187143Y180938D01*
X185945D01*
X184748Y179742D01*
Y178545D01*
X186544Y176749D01*
X184748Y182136D02*
Y183333D01*
X183552Y184529D01*
X182355D01*
X181756Y183931D01*
Y182734D01*
X182355Y182136D01*
X181756Y182734D01*
X180559Y182734D01*
X179961Y182136D01*
X179961Y180938D01*
X181157Y179742D01*
X182355D01*
X179362Y188719D02*
X179961Y186923D01*
Y184529D01*
X178764Y183333D01*
X177567D01*
X176370Y184529D01*
Y185726D01*
X176968Y186325D01*
X178165D01*
X179961Y184529D01*
X66799Y671360D02*
X64405Y673754D01*
X65602Y672557D01*
X62011Y668966D01*
X59617Y671360D02*
X63208Y674951D01*
X61413Y676747D01*
X60216D01*
X59019Y675550D01*
Y674353D01*
X60814Y672557D01*
X59019Y677943D02*
Y679140D01*
X57821Y680338D01*
X56625D01*
X56026Y679739D01*
Y678542D01*
X56625Y677943D01*
X56026Y678542D01*
X54829Y678542D01*
X54231Y677943D01*
X54231Y676747D01*
X55427Y675550D01*
X56625D01*
X53632Y684527D02*
X56026Y682133D01*
X54231Y680338D01*
X53632Y682133D01*
X53034Y682731D01*
X51837D01*
X50640Y681534D01*
Y680338D01*
X51837Y679140D01*
X53034D01*
X-22846Y176297D02*
X-25240Y178691D01*
X-24043Y177494D01*
X-27634Y173903D01*
X-30027Y176297D02*
X-26437Y179888D01*
X-28232Y181683D01*
X-29429D01*
X-30626Y180486D01*
Y179289D01*
X-28831Y177494D01*
X-30626Y182880D02*
Y184077D01*
X-31823Y185274D01*
X-33020D01*
X-33619Y184675D01*
Y183479D01*
X-33020Y182880D01*
X-33619Y183479D01*
X-34815Y183479D01*
X-35414Y182880D01*
X-35414Y181683D01*
X-34217Y180486D01*
X-33020D01*
X-39005Y185274D02*
X-35414Y188865D01*
X-35414Y185274D01*
X-37808Y187668D01*
X-40800Y187069D02*
X-38406Y189463D01*
Y191857D01*
X-40800D01*
X-43194Y189463D01*
X-41399Y191259D01*
X-39005Y188865D01*
X146809Y-102578D02*
X144415Y-100184D01*
X145612Y-101381D01*
X142021Y-104972D01*
X139627Y-102578D02*
X143218Y-98987D01*
X141423Y-97191D01*
X140225D01*
X139029Y-98388D01*
Y-99585D01*
X140824Y-101381D01*
X133642Y-96593D02*
X136036Y-98987D01*
Y-94199D01*
X136635Y-93601D01*
X137831D01*
X139029Y-94797D01*
Y-95995D01*
X135438Y-92404D02*
X135437Y-91207D01*
X134241Y-90010D01*
X133044D01*
X132445Y-90608D01*
Y-91805D01*
X131248D01*
X130650Y-92404D01*
Y-93601D01*
X131847Y-94797D01*
X133044D01*
X133642Y-94199D01*
Y-93002D01*
X134839Y-93002D01*
X135438Y-92404D01*
X133642Y-93002D02*
X132445Y-91805D01*
X496803Y242118D02*
X494409Y244512D01*
X495606Y243314D01*
X492015Y239724D01*
X489622Y242118D02*
X493213Y245709D01*
X491417Y247504D01*
X490220D01*
X489023Y246307D01*
Y245110D01*
X490818Y243314D01*
X489023Y248701D02*
Y249898D01*
X487826Y251095D01*
X486629D01*
X486031Y250496D01*
Y249299D01*
X486629Y248701D01*
X486031Y249299D01*
X484834Y249299D01*
X484235Y248701D01*
X484235Y247504D01*
X485432Y246307D01*
X486629D01*
X500613Y285298D02*
X498219Y287691D01*
X499416Y286495D01*
X495826Y282904D01*
X493432Y285298D02*
X497023Y288888D01*
X495227Y290684D01*
X494030D01*
X492833Y289487D01*
Y288290D01*
X494628Y286495D01*
X487447Y291282D02*
X489841Y288888D01*
Y293676D01*
X490439Y294275D01*
X491636D01*
X492833Y293078D01*
Y291881D01*
X30477Y685801D02*
Y693419D01*
X26668D01*
X25398Y692149D01*
Y689610D01*
X26668Y688340D01*
X30477D01*
X27938D02*
X25398Y685801D01*
X17781Y693419D02*
X22859D01*
Y689610D01*
X20320Y690880D01*
X19050D01*
X17781Y689610D01*
Y687071D01*
X19050Y685801D01*
X21590D01*
X22859Y687071D01*
X10163Y693419D02*
X12702Y692149D01*
X15242Y689610D01*
Y687071D01*
X13972Y685801D01*
X11433D01*
X10163Y687071D01*
Y688340D01*
X11433Y689610D01*
X15242D01*
X259844Y605789D02*
X261113Y607059D01*
X263652D01*
X264922Y605789D01*
Y600711D01*
X263652Y599441D01*
X261113D01*
X259844Y600711D01*
X253496Y599441D02*
Y607059D01*
X257304Y603250D01*
X252226D01*
X244609Y607059D02*
X249687D01*
Y603250D01*
X247148Y604520D01*
X245878D01*
X244609Y603250D01*
Y600711D01*
X245878Y599441D01*
X248417D01*
X249687Y600711D01*
X233678Y414019D02*
X234948Y415289D01*
X237487D01*
X238757Y414019D01*
Y408941D01*
X237487Y407671D01*
X234948D01*
X233678Y408941D01*
X227330Y407671D02*
Y415289D01*
X231139Y411480D01*
X226061D01*
X219713Y407671D02*
Y415289D01*
X223522Y411480D01*
X218443D01*
X247012Y655319D02*
Y648971D01*
X245742Y647701D01*
X243203D01*
X241934Y648971D01*
Y655319D01*
X239394Y647701D02*
X236855D01*
X238125D01*
Y655319D01*
X239394Y654049D01*
X229238Y647701D02*
Y655319D01*
X233046Y651510D01*
X227968D01*
X260982Y797305D02*
Y790957D01*
X259712Y789687D01*
X257173D01*
X255904Y790957D01*
Y797305D01*
X253364Y789687D02*
X250825D01*
X252095D01*
Y797305D01*
X253364Y796035D01*
X247016D02*
X245747Y797305D01*
X243208D01*
X241938Y796035D01*
Y794766D01*
X243208Y793496D01*
X244477D01*
X243208D01*
X241938Y792226D01*
Y790957D01*
X243208Y789687D01*
X245747D01*
X247016Y790957D01*
X302258Y487679D02*
Y481331D01*
X300988Y480061D01*
X298449D01*
X297180Y481331D01*
Y487679D01*
X294640Y481331D02*
X293371Y480061D01*
X290832D01*
X289562Y481331D01*
Y486409D01*
X290832Y487679D01*
X293371D01*
X294640Y486409D01*
Y485140D01*
X293371Y483870D01*
X289562D01*
X154432Y488949D02*
Y482601D01*
X153162Y481331D01*
X150623D01*
X149354Y482601D01*
Y488949D01*
X146814Y487679D02*
X145545Y488949D01*
X143006D01*
X141736Y487679D01*
Y486410D01*
X143006Y485140D01*
X141736Y483870D01*
Y482601D01*
X143006Y481331D01*
X145545D01*
X146814Y482601D01*
Y483870D01*
X145545Y485140D01*
X146814Y486410D01*
Y487679D01*
X145545Y485140D02*
X143006D01*
X135888Y-115063D02*
Y-121411D01*
X134618Y-122681D01*
X132079D01*
X130810Y-121411D01*
Y-115063D01*
X124462Y-122681D02*
Y-115063D01*
X128270Y-118872D01*
X123192D01*
X255271Y157485D02*
X262889D01*
Y161293D01*
X261619Y162563D01*
X259080D01*
X257810Y161293D01*
Y157485D01*
Y160024D02*
X255271Y162563D01*
Y168911D02*
X262889D01*
X259080Y165102D01*
Y170180D01*
X256541Y172720D02*
X255271Y173989D01*
Y176528D01*
X256541Y177798D01*
X261619D01*
X262889Y176528D01*
Y173989D01*
X261619Y172720D01*
X260350D01*
X259080Y173989D01*
Y177798D01*
X262889Y180337D02*
X255271D01*
Y184146D01*
X256541Y185415D01*
X261619D01*
X262889Y184146D01*
Y180337D01*
X316225Y179071D02*
Y186689D01*
X312417D01*
X311147Y185419D01*
Y182880D01*
X312417Y181610D01*
X316225D01*
X313686D02*
X311147Y179071D01*
X304799D02*
Y186689D01*
X308608Y182880D01*
X303530D01*
X300990Y185419D02*
X299721Y186689D01*
X297182D01*
X295912Y185419D01*
Y184150D01*
X297182Y182880D01*
X295912Y181610D01*
Y180341D01*
X297182Y179071D01*
X299721D01*
X300990Y180341D01*
Y181610D01*
X299721Y182880D01*
X300990Y184150D01*
Y185419D01*
X299721Y182880D02*
X297182D01*
X293373Y186689D02*
Y179071D01*
X289564D01*
X288295Y180341D01*
Y185419D01*
X289564Y186689D01*
X293373D01*
X289557Y458471D02*
Y466089D01*
X285748D01*
X284478Y464819D01*
Y462280D01*
X285748Y461010D01*
X289557D01*
X287017D02*
X284478Y458471D01*
X278130D02*
Y466089D01*
X281939Y462280D01*
X276861D01*
X274322Y466089D02*
X269243D01*
Y464819D01*
X274322Y459741D01*
Y458471D01*
X247649Y510537D02*
X240031D01*
Y506728D01*
X241301Y505458D01*
X243840D01*
X245110Y506728D01*
Y510537D01*
Y507998D02*
X247649Y505458D01*
Y499110D02*
X240031D01*
X243840Y502919D01*
Y497841D01*
X240031Y490223D02*
X241301Y492762D01*
X243840Y495302D01*
X246379D01*
X247649Y494032D01*
Y491493D01*
X246379Y490223D01*
X245110D01*
X243840Y491493D01*
Y495302D01*
X281941Y426723D02*
X289559D01*
Y430532D01*
X288289Y431802D01*
X285750D01*
X284480Y430532D01*
Y426723D01*
Y429263D02*
X281941Y431802D01*
Y438150D02*
X289559D01*
X285750Y434341D01*
Y439419D01*
X289559Y447037D02*
Y441958D01*
X285750D01*
X287020Y444498D01*
Y445767D01*
X285750Y447037D01*
X283211D01*
X281941Y445767D01*
Y443228D01*
X283211Y441958D01*
X260349Y510537D02*
X252731D01*
Y506728D01*
X254001Y505458D01*
X256540D01*
X257810Y506728D01*
Y510537D01*
Y507998D02*
X260349Y505458D01*
Y499110D02*
X252731D01*
X256540Y502919D01*
Y497841D01*
X260349Y491493D02*
X252731D01*
X256540Y495302D01*
Y490223D01*
X207772Y553721D02*
Y561339D01*
X203963D01*
X202694Y560069D01*
Y557530D01*
X203963Y556260D01*
X207772D01*
X205233D02*
X202694Y553721D01*
X196346D02*
Y561339D01*
X200154Y557530D01*
X195076D01*
X192537Y560069D02*
X191267Y561339D01*
X188728D01*
X187459Y560069D01*
Y558800D01*
X188728Y557530D01*
X189998D01*
X188728D01*
X187459Y556260D01*
Y554991D01*
X188728Y553721D01*
X191267D01*
X192537Y554991D01*
X232411Y516128D02*
X240029D01*
Y519937D01*
X238759Y521206D01*
X236220D01*
X234950Y519937D01*
Y516128D01*
Y518667D02*
X232411Y521206D01*
Y527554D02*
X240029D01*
X236220Y523745D01*
Y528824D01*
X232411Y536441D02*
Y531363D01*
X237490Y536441D01*
X238759D01*
X240029Y535172D01*
Y532633D01*
X238759Y531363D01*
X189231Y575818D02*
X196849D01*
Y579627D01*
X195579Y580896D01*
X193040D01*
X191770Y579627D01*
Y575818D01*
Y578357D02*
X189231Y580896D01*
Y587244D02*
X196849D01*
X193040Y583436D01*
Y588514D01*
X189231Y591053D02*
Y593592D01*
Y592323D01*
X196849D01*
X195579Y591053D01*
X218441Y516128D02*
X226059D01*
Y519937D01*
X224789Y521206D01*
X222250D01*
X220980Y519937D01*
Y516128D01*
Y518667D02*
X218441Y521206D01*
Y527554D02*
X226059D01*
X222250Y523745D01*
Y528824D01*
X224789Y531363D02*
X226059Y532633D01*
Y535172D01*
X224789Y536441D01*
X219711D01*
X218441Y535172D01*
Y532633D01*
X219711Y531363D01*
X224789D01*
X71637Y-26669D02*
Y-19051D01*
X67828D01*
X66559Y-20321D01*
Y-22860D01*
X67828Y-24130D01*
X71637D01*
X69098D02*
X66559Y-26669D01*
X64020Y-20321D02*
X62750Y-19051D01*
X60211D01*
X58941Y-20321D01*
Y-21590D01*
X60211Y-22860D01*
X61480D01*
X60211D01*
X58941Y-24130D01*
Y-25399D01*
X60211Y-26669D01*
X62750D01*
X64020Y-25399D01*
X56402Y-26669D02*
X53863D01*
X55132D01*
Y-19051D01*
X56402Y-20321D01*
X174507Y-26669D02*
Y-19051D01*
X170698D01*
X169428Y-20321D01*
Y-22860D01*
X170698Y-24130D01*
X174507D01*
X171968D02*
X169428Y-26669D01*
X161811D02*
X166889D01*
X161811Y-21590D01*
Y-20321D01*
X163080Y-19051D01*
X165620D01*
X166889Y-20321D01*
X159272D02*
X158002Y-19051D01*
X155463D01*
X154193Y-20321D01*
Y-21590D01*
X155463Y-22860D01*
X154193Y-24130D01*
Y-25399D01*
X155463Y-26669D01*
X158002D01*
X159272Y-25399D01*
Y-24130D01*
X158002Y-22860D01*
X159272Y-21590D01*
Y-20321D01*
X158002Y-22860D02*
X155463D01*
X174507Y-7619D02*
Y-1D01*
X170698D01*
X169428Y-1271D01*
Y-3810D01*
X170698Y-5080D01*
X174507D01*
X171968D02*
X169428Y-7619D01*
X161811D02*
X166889D01*
X161811Y-2540D01*
Y-1271D01*
X163080Y-1D01*
X165620D01*
X166889Y-1271D01*
X154193Y-1D02*
X156732Y-1271D01*
X159272Y-3810D01*
Y-6349D01*
X158002Y-7619D01*
X155463D01*
X154193Y-6349D01*
Y-5080D01*
X155463Y-3810D01*
X159272D01*
X394722Y250191D02*
Y257809D01*
X390913D01*
X389644Y256539D01*
Y254000D01*
X390913Y252730D01*
X394722D01*
X392183D02*
X389644Y250191D01*
X387104D02*
X384565D01*
X385835D01*
Y257809D01*
X387104Y256539D01*
X375678Y250191D02*
X380756D01*
X375678Y255270D01*
Y256539D01*
X376948Y257809D01*
X379487D01*
X380756Y256539D01*
X388374Y231141D02*
Y238759D01*
X384565D01*
X383296Y237489D01*
Y234950D01*
X384565Y233680D01*
X388374D01*
X385835D02*
X383296Y231141D01*
X380756Y237489D02*
X379487Y238759D01*
X376948D01*
X375678Y237489D01*
Y236220D01*
X376948Y234950D01*
X375678Y233680D01*
Y232411D01*
X376948Y231141D01*
X379487D01*
X380756Y232411D01*
Y233680D01*
X379487Y234950D01*
X380756Y236220D01*
Y237489D01*
X379487Y234950D02*
X376948D01*
X245108Y270511D02*
Y275589D01*
X246378Y276859D01*
X248917D01*
X250187Y275589D01*
Y270511D01*
X248917Y269241D01*
X246378D01*
X247647Y271780D02*
X245108Y269241D01*
X246378D02*
X245108Y270511D01*
X237491Y276859D02*
X242569D01*
Y273050D01*
X240030Y274320D01*
X238760D01*
X237491Y273050D01*
Y270511D01*
X238760Y269241D01*
X241300D01*
X242569Y270511D01*
X234952Y276859D02*
Y269241D01*
X231143D01*
X229873Y270511D01*
Y275589D01*
X231143Y276859D01*
X234952D01*
X335278Y269241D02*
Y274319D01*
X336548Y275589D01*
X339087D01*
X340357Y274319D01*
Y269241D01*
X339087Y267971D01*
X336548D01*
X337817Y270510D02*
X335278Y267971D01*
X336548D02*
X335278Y269241D01*
X328930Y267971D02*
Y275589D01*
X332739Y271780D01*
X327661D01*
X325122Y275589D02*
Y267971D01*
X321313D01*
X320043Y269241D01*
Y274319D01*
X321313Y275589D01*
X325122D01*
X81800Y-82549D02*
Y-77471D01*
X83070Y-76201D01*
X85609D01*
X86878Y-77471D01*
Y-82549D01*
X85609Y-83819D01*
X83070D01*
X84339Y-81280D02*
X81800Y-83819D01*
X83070D02*
X81800Y-82549D01*
X79261Y-83819D02*
X76722D01*
X77991D01*
Y-76201D01*
X79261Y-77471D01*
X384808Y604519D02*
Y596901D01*
X379730D01*
X372112D02*
X377190D01*
X372112Y601980D01*
Y603249D01*
X373382Y604519D01*
X375921D01*
X377190Y603249D01*
X61482Y421641D02*
Y429259D01*
X66560D01*
X69099D02*
X71638D01*
X70369D01*
Y421641D01*
X69099Y422911D01*
X-55612Y756155D02*
X-53073D01*
X-54343D01*
Y749808D01*
X-53073Y748538D01*
X-51804D01*
X-50534Y749808D01*
X-63230Y756155D02*
X-60691Y754886D01*
X-58151Y752347D01*
Y749808D01*
X-59421Y748538D01*
X-61960D01*
X-63230Y749808D01*
Y751077D01*
X-61960Y752347D01*
X-58151D01*
X553988Y756155D02*
X556527D01*
X555257D01*
Y749808D01*
X556527Y748538D01*
X557796D01*
X559066Y749808D01*
X546370Y756155D02*
X551449D01*
Y752347D01*
X548909Y753616D01*
X547640D01*
X546370Y752347D01*
Y749808D01*
X547640Y748538D01*
X550179D01*
X551449Y749808D01*
X151648Y-76201D02*
Y-83819D01*
X147839D01*
X146570Y-82549D01*
Y-77471D01*
X147839Y-76201D01*
X151648D01*
X138952D02*
X144030D01*
Y-80010D01*
X141491Y-78740D01*
X140222D01*
X138952Y-80010D01*
Y-82549D01*
X140222Y-83819D01*
X142761D01*
X144030Y-82549D01*
X293889Y698502D02*
X295159Y697232D01*
Y694693D01*
X293889Y693423D01*
X288811D01*
X287541Y694693D01*
Y697232D01*
X288811Y698502D01*
X287541Y704850D02*
X295159D01*
X291350Y701041D01*
Y706119D01*
X293889Y708658D02*
X295159Y709928D01*
Y712467D01*
X293889Y713737D01*
X292620D01*
X291350Y712467D01*
Y711198D01*
Y712467D01*
X290080Y713737D01*
X288811D01*
X287541Y712467D01*
Y709928D01*
X288811Y708658D01*
X349771Y760728D02*
X348501Y761998D01*
Y764537D01*
X349771Y765807D01*
X354849D01*
X356119Y764537D01*
Y761998D01*
X354849Y760728D01*
X356119Y754380D02*
X348501D01*
X352310Y758189D01*
Y753111D01*
X356119Y745493D02*
Y750572D01*
X351040Y745493D01*
X349771D01*
X348501Y746763D01*
Y749302D01*
X349771Y750572D01*
X293889Y765411D02*
X295159Y764142D01*
Y761602D01*
X293889Y760333D01*
X288811D01*
X287541Y761602D01*
Y764142D01*
X288811Y765411D01*
X287541Y771759D02*
X295159D01*
X291350Y767950D01*
Y773029D01*
X287541Y775568D02*
Y778107D01*
Y776837D01*
X295159D01*
X293889Y775568D01*
X349771Y693418D02*
X348501Y694688D01*
Y697227D01*
X349771Y698497D01*
X354849D01*
X356119Y697227D01*
Y694688D01*
X354849Y693418D01*
X356119Y687070D02*
X348501D01*
X352310Y690879D01*
Y685801D01*
X349771Y683262D02*
X348501Y681992D01*
Y679453D01*
X349771Y678183D01*
X354849D01*
X356119Y679453D01*
Y681992D01*
X354849Y683262D01*
X349771D01*
X242301Y-246378D02*
X243571Y-247648D01*
Y-250187D01*
X242301Y-251457D01*
X237223D01*
X235953Y-250187D01*
Y-247648D01*
X237223Y-246378D01*
X242301Y-243839D02*
X243571Y-242570D01*
Y-240030D01*
X242301Y-238761D01*
X241032D01*
X239762Y-240030D01*
Y-241300D01*
Y-240030D01*
X238492Y-238761D01*
X237223D01*
X235953Y-240030D01*
Y-242570D01*
X237223Y-243839D01*
X243571Y-236222D02*
Y-231143D01*
X242301D01*
X237223Y-236222D01*
X235953D01*
X161021Y-246378D02*
X162291Y-247648D01*
Y-250187D01*
X161021Y-251457D01*
X155943D01*
X154673Y-250187D01*
Y-247648D01*
X155943Y-246378D01*
X161021Y-243839D02*
X162291Y-242570D01*
Y-240030D01*
X161021Y-238761D01*
X159752D01*
X158482Y-240030D01*
Y-241300D01*
Y-240030D01*
X157212Y-238761D01*
X155943D01*
X154673Y-240030D01*
Y-242570D01*
X155943Y-243839D01*
X162291Y-231143D02*
X161021Y-233682D01*
X158482Y-236222D01*
X155943D01*
X154673Y-234952D01*
Y-232413D01*
X155943Y-231143D01*
X157212D01*
X158482Y-232413D01*
Y-236222D01*
X299717Y313689D02*
X300987Y314959D01*
X303526D01*
X304795Y313689D01*
Y308611D01*
X303526Y307341D01*
X300987D01*
X299717Y308611D01*
X297178Y313689D02*
X295908Y314959D01*
X293369D01*
X292100Y313689D01*
Y312420D01*
X293369Y311150D01*
X294639D01*
X293369D01*
X292100Y309880D01*
Y308611D01*
X293369Y307341D01*
X295908D01*
X297178Y308611D01*
X284482Y314959D02*
X289560D01*
Y311150D01*
X287021Y312420D01*
X285752D01*
X284482Y311150D01*
Y308611D01*
X285752Y307341D01*
X288291D01*
X289560Y308611D01*
X281943Y314959D02*
Y307341D01*
X278134D01*
X276864Y308611D01*
Y313689D01*
X278134Y314959D01*
X281943D01*
X413514Y426719D02*
X414783Y427989D01*
X417322D01*
X418592Y426719D01*
Y421641D01*
X417322Y420371D01*
X414783D01*
X413514Y421641D01*
X410975Y426719D02*
X409705Y427989D01*
X407166D01*
X405896Y426719D01*
Y425450D01*
X407166Y424180D01*
X408435D01*
X407166D01*
X405896Y422910D01*
Y421641D01*
X407166Y420371D01*
X409705D01*
X410975Y421641D01*
X399548Y420371D02*
Y427989D01*
X403357Y424180D01*
X398279D01*
X412764Y467359D02*
X414033Y468629D01*
X416572D01*
X417842Y467359D01*
Y462281D01*
X416572Y461011D01*
X414033D01*
X412764Y462281D01*
X410224Y467359D02*
X408955Y468629D01*
X406416D01*
X405146Y467359D01*
Y466090D01*
X406416Y464820D01*
X407685D01*
X406416D01*
X405146Y463550D01*
Y462281D01*
X406416Y461011D01*
X408955D01*
X410224Y462281D01*
X402607Y467359D02*
X401337Y468629D01*
X398798D01*
X397529Y467359D01*
Y466090D01*
X398798Y464820D01*
X400068D01*
X398798D01*
X397529Y463550D01*
Y462281D01*
X398798Y461011D01*
X401337D01*
X402607Y462281D01*
X284732Y543559D02*
X286002Y544829D01*
X288541D01*
X289811Y543559D01*
Y538481D01*
X288541Y537211D01*
X286002D01*
X284732Y538481D01*
X282193Y543559D02*
X280924Y544829D01*
X278384D01*
X277115Y543559D01*
Y542290D01*
X278384Y541020D01*
X279654D01*
X278384D01*
X277115Y539750D01*
Y538481D01*
X278384Y537211D01*
X280924D01*
X282193Y538481D01*
X269497Y537211D02*
X274576D01*
X269497Y542290D01*
Y543559D01*
X270767Y544829D01*
X273306D01*
X274576Y543559D01*
X258574Y570229D02*
X259843Y571499D01*
X262382D01*
X263652Y570229D01*
Y565151D01*
X262382Y563881D01*
X259843D01*
X258574Y565151D01*
X256035Y570229D02*
X254765Y571499D01*
X252226D01*
X250956Y570229D01*
Y568960D01*
X252226Y567690D01*
X253495D01*
X252226D01*
X250956Y566420D01*
Y565151D01*
X252226Y563881D01*
X254765D01*
X256035Y565151D01*
X248417Y563881D02*
X245878D01*
X247147D01*
Y571499D01*
X248417Y570229D01*
X366281Y511808D02*
X365011Y513078D01*
Y515617D01*
X366281Y516887D01*
X371359D01*
X372629Y515617D01*
Y513078D01*
X371359Y511808D01*
X366281Y509269D02*
X365011Y508000D01*
Y505460D01*
X366281Y504191D01*
X367550D01*
X368820Y505460D01*
Y506730D01*
Y505460D01*
X370090Y504191D01*
X371359D01*
X372629Y505460D01*
Y508000D01*
X371359Y509269D01*
X366281Y501652D02*
X365011Y500382D01*
Y497843D01*
X366281Y496573D01*
X371359D01*
X372629Y497843D01*
Y500382D01*
X371359Y501652D01*
X366281D01*
X71638Y591819D02*
X72908Y593089D01*
X75447D01*
X76717Y591819D01*
Y586741D01*
X75447Y585471D01*
X72908D01*
X71638Y586741D01*
X64021Y585471D02*
X69099D01*
X64021Y590550D01*
Y591819D01*
X65290Y593089D01*
X67830D01*
X69099Y591819D01*
X61482Y586741D02*
X60212Y585471D01*
X57673D01*
X56403Y586741D01*
Y591819D01*
X57673Y593089D01*
X60212D01*
X61482Y591819D01*
Y590550D01*
X60212Y589280D01*
X56403D01*
X72908Y553719D02*
X74178Y554989D01*
X76717D01*
X77987Y553719D01*
Y548641D01*
X76717Y547371D01*
X74178D01*
X72908Y548641D01*
X65291Y547371D02*
X70369D01*
X65291Y552450D01*
Y553719D01*
X66560Y554989D01*
X69100D01*
X70369Y553719D01*
X62752D02*
X61482Y554989D01*
X58943D01*
X57673Y553719D01*
Y552450D01*
X58943Y551180D01*
X57673Y549910D01*
Y548641D01*
X58943Y547371D01*
X61482D01*
X62752Y548641D01*
Y549910D01*
X61482Y551180D01*
X62752Y552450D01*
Y553719D01*
X61482Y551180D02*
X58943D01*
X207774Y483869D02*
X209043Y485139D01*
X211582D01*
X212852Y483869D01*
Y478791D01*
X211582Y477521D01*
X209043D01*
X207774Y478791D01*
X200156Y477521D02*
X205235D01*
X200156Y482600D01*
Y483869D01*
X201426Y485139D01*
X203965D01*
X205235Y483869D01*
X197617Y485139D02*
X192539D01*
Y483869D01*
X197617Y478791D01*
Y477521D01*
X233678Y452119D02*
X234948Y453389D01*
X237487D01*
X238757Y452119D01*
Y447041D01*
X237487Y445771D01*
X234948D01*
X233678Y447041D01*
X226061Y445771D02*
X231139D01*
X226061Y450850D01*
Y452119D01*
X227330Y453389D01*
X229870D01*
X231139Y452119D01*
X218443Y453389D02*
X220982Y452119D01*
X223522Y449580D01*
Y447041D01*
X222252Y445771D01*
X219713D01*
X218443Y447041D01*
Y448310D01*
X219713Y449580D01*
X223522D01*
X113029Y506732D02*
X114299Y505462D01*
Y502923D01*
X113029Y501653D01*
X107951D01*
X106681Y502923D01*
Y505462D01*
X107951Y506732D01*
X106681Y514349D02*
Y509271D01*
X111760Y514349D01*
X113029D01*
X114299Y513080D01*
Y510540D01*
X113029Y509271D01*
X114299Y521967D02*
Y516888D01*
X110490D01*
X111760Y519428D01*
Y520697D01*
X110490Y521967D01*
X107951D01*
X106681Y520697D01*
Y518158D01*
X107951Y516888D01*
X165099Y-186054D02*
X166369Y-187323D01*
Y-189862D01*
X165099Y-191132D01*
X160021D01*
X158751Y-189862D01*
Y-187323D01*
X160021Y-186054D01*
X158751Y-183514D02*
Y-180975D01*
Y-182245D01*
X166369D01*
X165099Y-183514D01*
X166369Y-177166D02*
Y-172088D01*
X165099D01*
X160021Y-177166D01*
X158751D01*
X36321Y-146684D02*
X37591Y-147953D01*
Y-150492D01*
X36321Y-151762D01*
X31243D01*
X29973Y-150492D01*
Y-147953D01*
X31243Y-146684D01*
X29973Y-144144D02*
Y-141605D01*
Y-142875D01*
X37591D01*
X36321Y-144144D01*
X37591Y-132718D02*
X36321Y-135257D01*
X33782Y-137796D01*
X31243D01*
X29973Y-136527D01*
Y-133988D01*
X31243Y-132718D01*
X32512D01*
X33782Y-133988D01*
Y-137796D01*
X383296Y218439D02*
X384565Y219709D01*
X387104D01*
X388374Y218439D01*
Y213361D01*
X387104Y212091D01*
X384565D01*
X383296Y213361D01*
X380756Y219709D02*
X375678D01*
Y218439D01*
X380756Y213361D01*
Y212091D01*
D15*
X-62500Y-161650D02*
G03*
X-62500Y-161650I-1000J0D01*
G01*
X547100Y-161650D02*
G03*
X547100Y-161650I-1000J0D01*
G01*
X433697Y-71034D02*
Y-62784D01*
X420697D02*
X433697D01*
Y-93784D02*
Y-85534D01*
X420697Y-93784D02*
X433697D01*
X333297Y-75504D02*
X343297D01*
Y-67754D01*
X333297Y-45504D02*
X343297D01*
Y-53254D02*
Y-45504D01*
X122300Y-69210D02*
X168300D01*
Y-42360D02*
Y-40010D01*
Y-69210D02*
Y-66860D01*
X122300Y-40010D02*
X168300D01*
X122300Y-42360D02*
Y-40010D01*
Y-69210D02*
Y-66860D01*
X98355Y-129050D02*
X126355D01*
X98355Y-163050D02*
X126355D01*
X-100965Y-155150D02*
X-51435D01*
X-100965D02*
Y738940D01*
X-51435Y-155150D02*
Y738940D01*
X-100965D02*
X-51435D01*
X508635Y-155150D02*
X558165D01*
X508635D02*
Y738940D01*
X558165Y-155150D02*
Y738940D01*
X508635D02*
X558165D01*
X88800Y-47360D02*
Y-39610D01*
X78800D02*
X88800D01*
Y-69610D02*
Y-61860D01*
X78800Y-69610D02*
X88800D01*
X176155Y-147200D02*
Y-132200D01*
X150155Y-147200D02*
Y-132200D01*
X42205Y-147200D02*
Y-132200D01*
X68205Y-147200D02*
Y-132200D01*
X19820Y664060D02*
X20820D01*
X19820Y677060D02*
X20820D01*
X288930Y618790D02*
X303930D01*
X288930Y592790D02*
X303930D01*
X179710Y398480D02*
X194710D01*
X179710Y424480D02*
X194710D01*
X288030Y256150D02*
X296280D01*
X288030Y243150D02*
Y256150D01*
X310780D02*
X319030D01*
Y243150D02*
Y256150D01*
X274080Y244650D02*
Y254650D01*
X266330D02*
X274080D01*
X244080Y244650D02*
Y254650D01*
X251830D01*
X288930Y554690D02*
X303930D01*
X288930Y580690D02*
X303930D01*
X358780Y450550D02*
X373780D01*
X358780Y476550D02*
X373780D01*
X358780Y412450D02*
X373780D01*
X358780Y438450D02*
X373780D01*
X307600Y505380D02*
X338600D01*
X307600Y495380D02*
X338600D01*
X307600D02*
Y505380D01*
X338600Y495380D02*
Y505380D01*
X193072Y-251340D02*
Y-236340D01*
X167072Y-251340D02*
Y-236340D01*
X231172Y-251340D02*
Y-236340D01*
X205172Y-251340D02*
Y-236340D01*
X211850Y780650D02*
X243850D01*
X211850Y730650D02*
X243850D01*
Y780650D01*
X211850Y730650D02*
Y780650D01*
Y710800D02*
X243850D01*
X211850Y660800D02*
X243850D01*
Y710800D01*
X211850Y660800D02*
Y710800D01*
X139960Y514430D02*
Y524430D01*
X170960Y514430D02*
Y524430D01*
X139960D02*
X170960D01*
X139960Y514430D02*
X170960D01*
X103510Y538180D02*
X118510D01*
X103510Y564180D02*
X118510D01*
X103510Y576280D02*
X118510D01*
X103510Y602280D02*
X118510D01*
X179710Y436580D02*
X194710D01*
X179710Y462580D02*
X194710D01*
X342450Y678300D02*
Y693300D01*
X316450Y678300D02*
Y693300D01*
X342450Y748150D02*
Y763150D01*
X316450Y748150D02*
Y763150D01*
M02*
