G04*
G04 #@! TF.GenerationSoftware,Altium Limited,DefaultClient, ()*
G04*
G04 Layer_Color=16711935*
%FSLAX44Y44*%
%MOMM*%
G71*
G04*
G04 #@! TF.SameCoordinates,8DA877EA-5960-4089-89AF-F9EF2ED2926F*
G04*
G04*
G04 #@! TF.FilePolarity,Negative*
G04*
G01*
G75*
%ADD62R,1.2024X1.2024*%
%ADD71C,0.7524*%
%ADD72R,1.1524X0.9524*%
%ADD74R,0.9524X1.1524*%
%ADD75R,1.2024X1.0524*%
%ADD76R,1.6524X1.6024*%
%ADD79R,1.0524X1.2024*%
%ADD80R,0.8024X1.3024*%
%ADD81R,0.8024X1.3524*%
%ADD82R,1.3524X1.6524*%
%ADD85R,1.2024X1.2024*%
%ADD91R,1.3024X2.9524*%
%ADD92R,1.3024X0.8024*%
%ADD93R,1.3524X0.8024*%
%ADD94R,1.6024X1.6524*%
%ADD97O,1.8524X1.8524*%
%ADD98R,1.8524X1.8524*%
%ADD99C,2.6024*%
%ADD100R,2.4524X2.4524*%
%ADD101C,1.7224*%
%ADD102R,1.7224X1.7224*%
%ADD103C,1.4224*%
%ADD104R,1.5734X1.5734*%
%ADD105C,1.5734*%
%ADD106C,4.7524*%
%ADD107C,1.7524*%
%ADD108R,1.7524X1.7524*%
%ADD109C,5.9944*%
%ADD110C,0.8636*%
%ADD111C,0.7112*%
%ADD112C,0.6604*%
%ADD113C,0.7620*%
%ADD145R,2.6524X1.8524*%
%ADD146R,1.9576X0.7645*%
G04:AMPARAMS|DCode=147|XSize=1.9576mm|YSize=0.7645mm|CornerRadius=0.3823mm|HoleSize=0mm|Usage=FLASHONLY|Rotation=0.000|XOffset=0mm|YOffset=0mm|HoleType=Round|Shape=RoundedRectangle|*
%AMROUNDEDRECTD147*
21,1,1.9576,0.0000,0,0,0.0*
21,1,1.1931,0.7645,0,0,0.0*
1,1,0.7645,0.5966,0.0000*
1,1,0.7645,-0.5966,0.0000*
1,1,0.7645,-0.5966,0.0000*
1,1,0.7645,0.5966,0.0000*
%
%ADD147ROUNDEDRECTD147*%
%ADD148R,2.9524X1.3024*%
%ADD149R,3.1524X5.1524*%
%ADD150O,1.8024X0.8024*%
D62*
X348100Y215900D02*
D03*
X361600D02*
D03*
X303650Y537040D02*
D03*
X317150D02*
D03*
X167760Y481330D02*
D03*
X181260D02*
D03*
D71*
X457447Y859658D02*
D03*
X385557Y-87784D02*
D03*
X172720Y655320D02*
D03*
X179070Y679450D02*
D03*
X149860Y692150D02*
D03*
X172720Y642620D02*
D03*
X226060Y786130D02*
D03*
X158750Y749300D02*
D03*
X179070Y762000D02*
D03*
X184150Y725170D02*
D03*
X490244Y851454D02*
D03*
X215900Y276860D02*
D03*
X281940Y271780D02*
D03*
X273050Y527050D02*
D03*
X401320Y617220D02*
D03*
X197612Y165608D02*
D03*
X71120Y661670D02*
D03*
X125730Y-105410D02*
D03*
X496570Y257870D02*
D03*
X485902Y277699D02*
D03*
X-20320Y163830D02*
D03*
D72*
Y133470D02*
D03*
Y148470D02*
D03*
X278130Y833000D02*
D03*
Y818000D02*
D03*
X259080Y213240D02*
D03*
Y198240D02*
D03*
X302780Y429380D02*
D03*
Y444380D02*
D03*
X175780Y576700D02*
D03*
Y591700D02*
D03*
D74*
X346337Y-92174D02*
D03*
X331337D02*
D03*
X369437Y-70664D02*
D03*
X384437D02*
D03*
X369437Y-50344D02*
D03*
X384437D02*
D03*
X470020Y-76200D02*
D03*
X485020D02*
D03*
X102000Y-22860D02*
D03*
X87000D02*
D03*
X140100Y-3810D02*
D03*
X125100D02*
D03*
X296030Y199390D02*
D03*
X311030D02*
D03*
X347350Y254000D02*
D03*
X362350D02*
D03*
X317900Y462280D02*
D03*
X302900D02*
D03*
X175660Y557530D02*
D03*
X160660D02*
D03*
D75*
X204990Y506080D02*
D03*
Y520080D02*
D03*
X184670Y520080D02*
D03*
Y506080D02*
D03*
X295160Y499730D02*
D03*
Y513730D02*
D03*
X273570Y513730D02*
D03*
Y499730D02*
D03*
D76*
X438912Y-106828D02*
D03*
Y-125328D02*
D03*
D79*
X139600Y-22860D02*
D03*
X125600D02*
D03*
X347850Y234950D02*
D03*
X361850D02*
D03*
D80*
X268580Y234900D02*
D03*
X249580D02*
D03*
X259080Y260400D02*
D03*
D81*
X303530Y262150D02*
D03*
X294030Y233150D02*
D03*
X313030D02*
D03*
X332600Y515130D02*
D03*
X323100D02*
D03*
X313600D02*
D03*
Y485630D02*
D03*
X323100D02*
D03*
X332600D02*
D03*
X145960Y534180D02*
D03*
X155460D02*
D03*
X164960D02*
D03*
Y504680D02*
D03*
X155460D02*
D03*
X145960D02*
D03*
D82*
X9820Y670560D02*
D03*
X30820D02*
D03*
D85*
X349770Y513480D02*
D03*
Y499980D02*
D03*
X291350Y736200D02*
D03*
Y749700D02*
D03*
Y666350D02*
D03*
Y679850D02*
D03*
X130060Y519830D02*
D03*
Y506330D02*
D03*
D91*
X313680Y605790D02*
D03*
X279180D02*
D03*
X169960Y411480D02*
D03*
X204460D02*
D03*
X279180Y567690D02*
D03*
X313680D02*
D03*
X349030Y463550D02*
D03*
X383530D02*
D03*
X349030Y425450D02*
D03*
X383530D02*
D03*
X93760Y551180D02*
D03*
X128260D02*
D03*
X93760Y589280D02*
D03*
X128260D02*
D03*
X169960Y449580D02*
D03*
X204460D02*
D03*
D92*
X323547Y-70004D02*
D03*
Y-51004D02*
D03*
X349047Y-60504D02*
D03*
D93*
X439697Y-78284D02*
D03*
X410697Y-68784D02*
D03*
Y-87784D02*
D03*
X94800Y-54610D02*
D03*
X68800Y-45110D02*
D03*
Y-64110D02*
D03*
D94*
X281580Y292100D02*
D03*
X300080D02*
D03*
D97*
X-82030Y-222250D02*
D03*
Y-247650D02*
D03*
X537730Y-273050D02*
D03*
Y-247650D02*
D03*
D98*
X-82030Y-273050D02*
D03*
X537730Y-222250D02*
D03*
D99*
X406400Y323850D02*
D03*
X457200D02*
D03*
X406400Y273050D02*
D03*
X457200D02*
D03*
Y76200D02*
D03*
X406400D02*
D03*
X457200Y127000D02*
D03*
X406400D02*
D03*
D100*
X431800Y298450D02*
D03*
Y101600D02*
D03*
D101*
X416560Y958850D02*
D03*
X491490Y-180340D02*
D03*
X70850Y-254000D02*
D03*
X82550Y19050D02*
D03*
D102*
X100850Y-254000D02*
D03*
D103*
X130850Y-273600D02*
D03*
X40850D02*
D03*
D104*
X-88900Y723700D02*
D03*
X520700Y723700D02*
D03*
D105*
X-63500Y723700D02*
D03*
X-88900Y698300D02*
D03*
X-63500D02*
D03*
X-88900Y672900D02*
D03*
X-63500D02*
D03*
X-88900Y647500D02*
D03*
X-63500D02*
D03*
X-88900Y622100D02*
D03*
X-63500D02*
D03*
X-88900Y596700D02*
D03*
X-63500D02*
D03*
X-88900Y571300D02*
D03*
X-63500D02*
D03*
X-88900Y545900D02*
D03*
X-63500D02*
D03*
X-88900Y520500D02*
D03*
X-63500D02*
D03*
X-88900Y495100D02*
D03*
X-63500D02*
D03*
X-88900Y469700D02*
D03*
X-63500D02*
D03*
X-88900Y444300D02*
D03*
X-63500D02*
D03*
X-88900Y418900D02*
D03*
X-63500D02*
D03*
X-88900Y393500D02*
D03*
X-63500D02*
D03*
X-88900Y368100D02*
D03*
X-63500D02*
D03*
X-88900Y342700D02*
D03*
X-63500D02*
D03*
X-88900Y317300D02*
D03*
X-63500D02*
D03*
X-88900Y291900D02*
D03*
X-63500D02*
D03*
X-88900Y266500D02*
D03*
X-63500D02*
D03*
X-88900Y241100D02*
D03*
X-63500D02*
D03*
X-88900Y215700D02*
D03*
X-63500D02*
D03*
X-88900Y190300D02*
D03*
X-63500D02*
D03*
X-88900Y164900D02*
D03*
X-63500D02*
D03*
X-88900Y139500D02*
D03*
X-63500D02*
D03*
X-88900Y114100D02*
D03*
X-63500D02*
D03*
X-88900Y88700D02*
D03*
X-63500D02*
D03*
X-88900Y63300D02*
D03*
X-63500D02*
D03*
X-88900Y37900D02*
D03*
X-63500D02*
D03*
X-88900Y12500D02*
D03*
X-63500D02*
D03*
X-88900Y-12900D02*
D03*
X-63500D02*
D03*
X-88900Y-38300D02*
D03*
X-63500D02*
D03*
X-88900Y-63700D02*
D03*
X-63500D02*
D03*
X-88900Y-89100D02*
D03*
X-63500D02*
D03*
X-88900Y-114500D02*
D03*
X-63500D02*
D03*
X-88900Y-139900D02*
D03*
X-63500D02*
D03*
X546100Y723700D02*
D03*
X520700Y698300D02*
D03*
X546100D02*
D03*
X520700Y672900D02*
D03*
X546100D02*
D03*
X520700Y647500D02*
D03*
X546100D02*
D03*
X520700Y622100D02*
D03*
X546100D02*
D03*
X520700Y596700D02*
D03*
X546100D02*
D03*
X520700Y571300D02*
D03*
X546100D02*
D03*
X520700Y545900D02*
D03*
X546100D02*
D03*
X520700Y520500D02*
D03*
X546100D02*
D03*
X520700Y495100D02*
D03*
X546100D02*
D03*
X520700Y469700D02*
D03*
X546100D02*
D03*
X520700Y444300D02*
D03*
X546100D02*
D03*
X520700Y418900D02*
D03*
X546100D02*
D03*
X520700Y393500D02*
D03*
X546100D02*
D03*
X520700Y368100D02*
D03*
X546100D02*
D03*
X520700Y342700D02*
D03*
X546100D02*
D03*
X520700Y317300D02*
D03*
X546100D02*
D03*
X520700Y291900D02*
D03*
X546100D02*
D03*
X520700Y266500D02*
D03*
X546100D02*
D03*
X520700Y241100D02*
D03*
X546100D02*
D03*
X520700Y215700D02*
D03*
X546100D02*
D03*
X520700Y190300D02*
D03*
X546100D02*
D03*
X520700Y164900D02*
D03*
X546100D02*
D03*
X520700Y139500D02*
D03*
X546100D02*
D03*
X520700Y114100D02*
D03*
X546100D02*
D03*
X520700Y88700D02*
D03*
X546100D02*
D03*
X520700Y63300D02*
D03*
X546100D02*
D03*
X520700Y37900D02*
D03*
X546100D02*
D03*
X520700Y12500D02*
D03*
X546100D02*
D03*
X520700Y-12900D02*
D03*
X546100D02*
D03*
X520700Y-38300D02*
D03*
X546100D02*
D03*
X520700Y-63700D02*
D03*
X546100D02*
D03*
X520700Y-89100D02*
D03*
X546100D02*
D03*
X520700Y-114500D02*
D03*
X546100D02*
D03*
X520700Y-139900D02*
D03*
X546100D02*
D03*
D106*
X421600Y814320D02*
D03*
X34600D02*
D03*
D107*
X356120Y-226060D02*
D03*
Y-251460D02*
D03*
X330720Y-226060D02*
D03*
Y-251460D02*
D03*
X305320Y-226060D02*
D03*
D108*
Y-251460D02*
D03*
D109*
X-12739Y761980D02*
D03*
X0Y0D02*
D03*
X457200D02*
D03*
X469859Y749279D02*
D03*
D110*
X552572Y-194039D02*
D03*
X143510Y-172720D02*
D03*
X-54090Y-273050D02*
D03*
X189750Y-279400D02*
D03*
X170700D02*
D03*
X151650Y-260350D02*
D03*
Y-279400D02*
D03*
X246900D02*
D03*
X227850D02*
D03*
X208800D02*
D03*
X246900Y-260350D02*
D03*
X170700Y-205740D02*
D03*
X226580D02*
D03*
Y-193040D02*
D03*
X170700D02*
D03*
X198640Y-240030D02*
D03*
D111*
X32584Y927100D02*
D03*
X56178Y876078D02*
D03*
X-11430Y919480D02*
D03*
X-22860Y911860D02*
D03*
X13970Y927100D02*
D03*
X-62230Y924560D02*
D03*
X1270Y961390D02*
D03*
X56400Y901700D02*
D03*
X5600Y927100D02*
D03*
X-99314D02*
D03*
X-70976Y927476D02*
D03*
X31000Y876300D02*
D03*
X283210Y95250D02*
D03*
X397251Y858111D02*
D03*
X412000Y774700D02*
D03*
X513600D02*
D03*
X516140Y749300D02*
D03*
X61430Y-33325D02*
D03*
X68805Y32795D02*
D03*
X50800Y698500D02*
D03*
X25698Y-37353D02*
D03*
X33528Y-43180D02*
D03*
X506521Y974840D02*
D03*
X481121D02*
D03*
X262795Y954232D02*
D03*
X333074Y-115184D02*
D03*
X422448Y-76454D02*
D03*
X397972D02*
D03*
X381254Y-120142D02*
D03*
X322580Y-60198D02*
D03*
X273050Y-69850D02*
D03*
X139700Y355600D02*
D03*
X127000Y317500D02*
D03*
X95250Y508000D02*
D03*
X76200D02*
D03*
X539000Y1003300D02*
D03*
Y977900D02*
D03*
Y952500D02*
D03*
Y927100D02*
D03*
Y901700D02*
D03*
Y876300D02*
D03*
Y774700D02*
D03*
Y749300D02*
D03*
Y-165100D02*
D03*
X513600Y1003300D02*
D03*
Y977900D02*
D03*
Y876300D02*
D03*
Y800100D02*
D03*
Y-165100D02*
D03*
Y-190500D02*
D03*
X488200Y1003300D02*
D03*
Y977900D02*
D03*
Y876300D02*
D03*
Y825500D02*
D03*
Y698500D02*
D03*
Y673100D02*
D03*
Y647700D02*
D03*
Y622300D02*
D03*
Y596900D02*
D03*
Y571500D02*
D03*
Y546100D02*
D03*
Y520700D02*
D03*
Y495300D02*
D03*
Y469900D02*
D03*
Y444500D02*
D03*
Y419100D02*
D03*
Y393700D02*
D03*
Y368300D02*
D03*
X462800Y1003300D02*
D03*
Y977900D02*
D03*
Y952500D02*
D03*
Y927100D02*
D03*
Y876300D02*
D03*
Y825500D02*
D03*
Y698500D02*
D03*
Y-63500D02*
D03*
Y-88900D02*
D03*
Y-114300D02*
D03*
Y-139700D02*
D03*
Y-165100D02*
D03*
X437400Y1003300D02*
D03*
Y977900D02*
D03*
Y952500D02*
D03*
Y927100D02*
D03*
Y876300D02*
D03*
Y342900D02*
D03*
Y63500D02*
D03*
X412000Y1003300D02*
D03*
Y977900D02*
D03*
Y927100D02*
D03*
Y876300D02*
D03*
Y38100D02*
D03*
X386600Y1003300D02*
D03*
Y977900D02*
D03*
Y952500D02*
D03*
Y927100D02*
D03*
Y139700D02*
D03*
Y114300D02*
D03*
Y88900D02*
D03*
Y63500D02*
D03*
Y38100D02*
D03*
X361200Y1003300D02*
D03*
Y977900D02*
D03*
Y952500D02*
D03*
Y927100D02*
D03*
Y114300D02*
D03*
Y88900D02*
D03*
Y38100D02*
D03*
X335800Y114300D02*
D03*
Y88900D02*
D03*
Y-190500D02*
D03*
X310400Y114300D02*
D03*
Y88900D02*
D03*
X285000Y469900D02*
D03*
Y444500D02*
D03*
Y419100D02*
D03*
Y-190500D02*
D03*
Y-215900D02*
D03*
X259600Y165100D02*
D03*
Y139700D02*
D03*
Y114300D02*
D03*
Y88900D02*
D03*
Y-190500D02*
D03*
Y-215900D02*
D03*
X132600Y1003300D02*
D03*
Y977900D02*
D03*
Y952500D02*
D03*
Y927100D02*
D03*
Y901700D02*
D03*
Y876300D02*
D03*
Y850900D02*
D03*
Y825500D02*
D03*
Y800100D02*
D03*
Y774700D02*
D03*
Y673100D02*
D03*
Y-215900D02*
D03*
X107200Y1003300D02*
D03*
Y977900D02*
D03*
Y952500D02*
D03*
Y927100D02*
D03*
Y901700D02*
D03*
Y876300D02*
D03*
X81800Y1003300D02*
D03*
X56400Y342900D02*
D03*
X31000Y241300D02*
D03*
Y88900D02*
D03*
X5600Y1003300D02*
D03*
X-19800D02*
D03*
Y977900D02*
D03*
X-45200Y1003300D02*
D03*
Y977900D02*
D03*
Y368300D02*
D03*
Y342900D02*
D03*
X-70600Y1003300D02*
D03*
Y850900D02*
D03*
Y800100D02*
D03*
Y774700D02*
D03*
Y749300D02*
D03*
Y-190500D02*
D03*
X-96000Y1003300D02*
D03*
Y-190500D02*
D03*
Y-215900D02*
D03*
X379730Y193040D02*
D03*
X372110Y198120D02*
D03*
X400050Y163830D02*
D03*
X387350D02*
D03*
X443230Y193040D02*
D03*
Y181610D02*
D03*
X440690Y170180D02*
D03*
X444500Y243840D02*
D03*
X379730Y234950D02*
D03*
X325120Y854710D02*
D03*
X345440D02*
D03*
X234950Y802640D02*
D03*
X175260Y843280D02*
D03*
X199390Y923290D02*
D03*
X228600Y843280D02*
D03*
X207010Y834390D02*
D03*
X228600Y871220D02*
D03*
X204470Y892810D02*
D03*
X234950Y923290D02*
D03*
X222250D02*
D03*
X259080Y906780D02*
D03*
Y919480D02*
D03*
X205893Y967345D02*
D03*
X22860Y648970D02*
D03*
X406400Y-215900D02*
D03*
X292100Y-279400D02*
D03*
X355600D02*
D03*
X419100D02*
D03*
X482600D02*
D03*
X558800D02*
D03*
X-101600D02*
D03*
X0Y-266700D02*
D03*
X-49530Y127000D02*
D03*
Y151130D02*
D03*
X-49432Y189533D02*
D03*
X-49530Y234950D02*
D03*
X-41910Y247650D02*
D03*
X19050Y292100D02*
D03*
X57150Y330200D02*
D03*
X63500Y406400D02*
D03*
X330200Y546100D02*
D03*
Y584200D02*
D03*
X444500Y431800D02*
D03*
Y469900D02*
D03*
Y508000D02*
D03*
Y546100D02*
D03*
Y584200D02*
D03*
Y622300D02*
D03*
Y660400D02*
D03*
X222250Y63500D02*
D03*
Y101600D02*
D03*
Y139700D02*
D03*
X361950Y336550D02*
D03*
X317500D02*
D03*
X273050D02*
D03*
X203200D02*
D03*
Y228600D02*
D03*
Y374650D02*
D03*
Y298450D02*
D03*
X69850Y711200D02*
D03*
X88900Y723900D02*
D03*
X112776Y767588D02*
D03*
X6289Y261681D02*
D03*
X147259Y402651D02*
D03*
X-42608Y176340D02*
D03*
X137801Y749167D02*
D03*
X128016Y757301D02*
D03*
X-19050Y666750D02*
D03*
Y679450D02*
D03*
X-21590Y77470D02*
D03*
X161036Y655320D02*
D03*
X397510Y848868D02*
D03*
X-6350Y186690D02*
D03*
X210820Y179070D02*
D03*
X205740Y495300D02*
D03*
X255270Y980440D02*
D03*
X234603Y969933D02*
D03*
X-6350Y666750D02*
D03*
Y679450D02*
D03*
X-8890Y610870D02*
D03*
X-16764Y602617D02*
D03*
X76200Y-20320D02*
D03*
X41656Y-50800D02*
D03*
X415798Y230886D02*
D03*
X-114300Y902970D02*
D03*
X260350Y-171450D02*
D03*
X149860Y-22860D02*
D03*
X328930Y750570D02*
D03*
X330200Y680720D02*
D03*
X349250Y668020D02*
D03*
X350520Y737870D02*
D03*
X265430Y614680D02*
D03*
X327660Y499110D02*
D03*
X274320Y488950D02*
D03*
X174752Y774700D02*
D03*
Y704850D02*
D03*
X170180Y678180D02*
D03*
X200914Y482600D02*
D03*
X122780Y213770D02*
D03*
X73660Y147320D02*
D03*
X74176Y158361D02*
D03*
X13970Y276860D02*
D03*
X163830Y-134620D02*
D03*
Y-110490D02*
D03*
X157734Y12700D02*
D03*
Y25400D02*
D03*
X133350D02*
D03*
Y12700D02*
D03*
X107950Y25400D02*
D03*
X120650D02*
D03*
Y12700D02*
D03*
X107950D02*
D03*
X54610Y-134620D02*
D03*
X146050Y25400D02*
D03*
Y12700D02*
D03*
X133350Y99060D02*
D03*
X57150Y119380D02*
D03*
X45720Y-109220D02*
D03*
X323100Y-31750D02*
D03*
X310400D02*
D03*
X297700D02*
D03*
X212090Y-99060D02*
D03*
X184150Y-54610D02*
D03*
X443230Y-217170D02*
D03*
X122492Y253428D02*
D03*
X73660Y205740D02*
D03*
Y217170D02*
D03*
X-24384Y595630D02*
D03*
X-17780Y351790D02*
D03*
X-24384Y361950D02*
D03*
X-10160Y343779D02*
D03*
X-29210Y-259080D02*
D03*
X22860Y-200660D02*
D03*
X11430Y-153670D02*
D03*
X-13970D02*
D03*
X-38100D02*
D03*
X196850Y-168910D02*
D03*
X524206Y-208006D02*
D03*
X455930Y-191770D02*
D03*
X422910Y-160020D02*
D03*
X421640Y-63500D02*
D03*
X240030Y-101600D02*
D03*
X284480Y-102870D02*
D03*
X302260Y-95250D02*
D03*
X81280Y-69850D02*
D03*
X114300Y-90170D02*
D03*
X101600Y-69850D02*
D03*
Y-109220D02*
D03*
X15240Y-102870D02*
D03*
X-16510Y-120650D02*
D03*
X149860Y147320D02*
D03*
Y125730D02*
D03*
X74930Y88900D02*
D03*
X228600Y396240D02*
D03*
Y421640D02*
D03*
Y441960D02*
D03*
Y462280D02*
D03*
Y482600D02*
D03*
Y533400D02*
D03*
Y502920D02*
D03*
X227330Y736600D02*
D03*
X213360Y810260D02*
D03*
X227330Y685800D02*
D03*
X147320Y594360D02*
D03*
Y574040D02*
D03*
Y553720D02*
D03*
Y563880D02*
D03*
Y584200D02*
D03*
Y604520D02*
D03*
X290830Y693420D02*
D03*
Y762000D02*
D03*
X350520Y703580D02*
D03*
X308610D02*
D03*
Y773430D02*
D03*
X350520D02*
D03*
X271780Y692150D02*
D03*
X245110Y966470D02*
D03*
X308610Y822960D02*
D03*
X146050Y918210D02*
D03*
X139700Y941070D02*
D03*
X194310Y852170D02*
D03*
X327660Y919480D02*
D03*
Y944880D02*
D03*
X299720Y982980D02*
D03*
X313690Y969010D02*
D03*
X255270Y1016000D02*
D03*
X194310D02*
D03*
X149860Y984250D02*
D03*
X51170Y932180D02*
D03*
Y958850D02*
D03*
X-105226Y888817D02*
D03*
X481330Y899239D02*
D03*
X506730Y899160D02*
D03*
X-53340Y203200D02*
D03*
X257810Y-91440D02*
D03*
X1270Y-125730D02*
D03*
X271780Y762000D02*
D03*
X262890Y852170D02*
D03*
X242570D02*
D03*
X169672Y725170D02*
D03*
X169926Y761746D02*
D03*
X156210Y772160D02*
D03*
X344424Y-150114D02*
D03*
X333580Y-157734D02*
D03*
X5080Y-179832D02*
D03*
Y-171704D02*
D03*
X252904Y878840D02*
D03*
X204470Y819150D02*
D03*
X305816Y841502D02*
D03*
X415036Y19304D02*
D03*
X283210Y80010D02*
D03*
X50800Y-57658D02*
D03*
X-15580Y-92902D02*
D03*
X485394Y-141224D02*
D03*
X-42164Y226822D02*
D03*
X160020Y885190D02*
D03*
X290830Y899327D02*
D03*
X300990D02*
D03*
X311150D02*
D03*
X321310D02*
D03*
X214630Y852170D02*
D03*
X265430Y969010D02*
D03*
X280670Y982980D02*
D03*
X269240Y991870D02*
D03*
X149860Y963930D02*
D03*
X379790Y207070D02*
D03*
X361950Y204470D02*
D03*
X271840Y80070D02*
D03*
X360680Y139700D02*
D03*
X337820D02*
D03*
X311150Y210820D02*
D03*
X284734Y233426D02*
D03*
X314960Y262890D02*
D03*
X316230Y292100D02*
D03*
X426720Y228600D02*
D03*
X433070Y215900D02*
D03*
X373380Y273050D02*
D03*
X346710Y284480D02*
D03*
X454660Y189230D02*
D03*
X469900Y209550D02*
D03*
Y234950D02*
D03*
X455930D02*
D03*
Y209550D02*
D03*
X416560Y-111760D02*
D03*
X422910Y-134620D02*
D03*
Y-88900D02*
D03*
X260350Y-69850D02*
D03*
X273050Y-57150D02*
D03*
X260350D02*
D03*
X96520Y402590D02*
D03*
Y415290D02*
D03*
X331470Y619760D02*
D03*
X318770Y632460D02*
D03*
X331470D02*
D03*
X344170D02*
D03*
Y619760D02*
D03*
X356870D02*
D03*
Y632460D02*
D03*
X369570Y619760D02*
D03*
Y632460D02*
D03*
X109220Y415290D02*
D03*
X121920D02*
D03*
Y402590D02*
D03*
X109220D02*
D03*
X134620D02*
D03*
Y415290D02*
D03*
X147320D02*
D03*
X66040Y-109220D02*
D03*
X78740Y-90170D02*
D03*
X54610D02*
D03*
X380385Y907802D02*
D03*
X367685D02*
D03*
X354850Y908050D02*
D03*
X342150D02*
D03*
X328180Y48260D02*
D03*
X405650Y431800D02*
D03*
Y444500D02*
D03*
Y469900D02*
D03*
Y457200D02*
D03*
Y482600D02*
D03*
Y495300D02*
D03*
Y520700D02*
D03*
Y508000D02*
D03*
X418350Y431800D02*
D03*
Y444500D02*
D03*
Y469900D02*
D03*
Y457200D02*
D03*
Y508000D02*
D03*
Y520700D02*
D03*
Y495300D02*
D03*
Y482600D02*
D03*
X62750Y596900D02*
D03*
Y609600D02*
D03*
Y584200D02*
D03*
Y571500D02*
D03*
X100850Y622300D02*
D03*
X88150D02*
D03*
X62750D02*
D03*
X75450D02*
D03*
X-7100Y807720D02*
D03*
X-19800D02*
D03*
X-7100Y819150D02*
D03*
X-19800D02*
D03*
X-7100Y831850D02*
D03*
X-19800D02*
D03*
X-7100Y844550D02*
D03*
X-19800D02*
D03*
D112*
X417500Y202350D02*
D03*
Y191350D02*
D03*
X406500Y202350D02*
D03*
Y191350D02*
D03*
D113*
X169926Y276860D02*
D03*
X161290Y261620D02*
D03*
X129540D02*
D03*
Y276860D02*
D03*
X17780Y102870D02*
D03*
X73660Y172720D02*
D03*
X92710Y106680D02*
D03*
X-2540Y-189230D02*
D03*
X143510Y-137160D02*
D03*
X208280Y-6350D02*
D03*
X316230Y44450D02*
D03*
X52070Y52070D02*
D03*
X-5080Y163830D02*
D03*
X370052Y244385D02*
D03*
X471170Y189230D02*
D03*
D145*
X125300Y-54610D02*
D03*
X165300D02*
D03*
D146*
X100850Y-155550D02*
D03*
D147*
Y-146050D02*
D03*
Y-136550D02*
D03*
X123860D02*
D03*
Y-155550D02*
D03*
D148*
X163155Y-156950D02*
D03*
Y-122450D02*
D03*
X55205D02*
D03*
Y-156950D02*
D03*
X180072Y-261090D02*
D03*
Y-226590D02*
D03*
X218172Y-261090D02*
D03*
Y-226590D02*
D03*
X329450Y668550D02*
D03*
Y703050D02*
D03*
Y738400D02*
D03*
Y772900D02*
D03*
D149*
X397980Y563880D02*
D03*
X359980D02*
D03*
X117310Y463550D02*
D03*
X79310D02*
D03*
D150*
X256100Y774700D02*
D03*
Y762000D02*
D03*
Y749300D02*
D03*
Y736600D02*
D03*
X199600Y774700D02*
D03*
Y762000D02*
D03*
Y749300D02*
D03*
Y736600D02*
D03*
X256100Y704850D02*
D03*
Y692150D02*
D03*
Y679450D02*
D03*
Y666750D02*
D03*
X199600Y704850D02*
D03*
Y692150D02*
D03*
Y679450D02*
D03*
Y666750D02*
D03*
M02*
