G04*
G04 #@! TF.GenerationSoftware,Altium Limited,DefaultClient, ()*
G04*
G04 Layer_Color=65535*
%FSLAX44Y44*%
%MOMM*%
G71*
G04*
G04 #@! TF.SameCoordinates,8DA877EA-5960-4089-89AF-F9EF2ED2926F*
G04*
G04*
G04 #@! TF.FilePolarity,Positive*
G04*
G01*
G75*
%ADD10C,0.2500*%
%ADD11C,0.1270*%
%ADD12C,0.1500*%
%ADD13C,0.6000*%
%ADD14C,0.1778*%
%ADD15C,0.2000*%
%ADD16C,0.2032*%
%ADD17C,0.4000*%
%ADD18C,0.1524*%
%ADD19R,4.5000X0.8000*%
G36*
X337242Y339552D02*
X337319D01*
Y339475D01*
X337396D01*
Y339399D01*
X337472D01*
Y339322D01*
X337549D01*
Y339245D01*
X337626D01*
Y339169D01*
X337779D01*
Y339092D01*
X337856D01*
Y339015D01*
X337933D01*
Y338938D01*
X338010D01*
Y338862D01*
X338086D01*
Y338785D01*
X338163D01*
Y338708D01*
X338240D01*
Y338631D01*
X338317D01*
Y338554D01*
X338393D01*
Y338478D01*
X338470D01*
Y338401D01*
X338547D01*
Y338324D01*
X338624D01*
Y338247D01*
X338700D01*
Y338171D01*
X338777D01*
Y338094D01*
X338854D01*
Y338017D01*
X338931D01*
Y337940D01*
X339007D01*
Y337864D01*
X339084D01*
Y337787D01*
X339161D01*
Y337710D01*
X339238D01*
Y337634D01*
X339314D01*
Y337557D01*
X339391D01*
Y337480D01*
X339468D01*
Y337403D01*
X339545D01*
Y337327D01*
X339621D01*
Y337173D01*
X339698D01*
Y337096D01*
X339775D01*
Y337020D01*
X339852D01*
Y336943D01*
X339928D01*
Y336866D01*
X340005D01*
Y336789D01*
X340082D01*
Y336636D01*
X340159D01*
Y336559D01*
X340235D01*
Y336482D01*
X340312D01*
Y336329D01*
X340389D01*
Y336252D01*
X340466D01*
Y336099D01*
X340542D01*
Y336022D01*
X340619D01*
Y335868D01*
X340696D01*
Y335792D01*
X340773D01*
Y335638D01*
X340849D01*
Y335561D01*
X340926D01*
Y335408D01*
X341003D01*
Y335254D01*
X341080D01*
Y335178D01*
X341156D01*
Y335024D01*
X341233D01*
Y334871D01*
X341310D01*
Y334717D01*
X341387D01*
Y334564D01*
X341463D01*
Y334410D01*
X341540D01*
Y334257D01*
X341617D01*
Y334103D01*
X341694D01*
Y333950D01*
X341770D01*
Y333796D01*
X341847D01*
Y333643D01*
X341924D01*
Y333412D01*
X342001D01*
Y333259D01*
X342077D01*
Y333029D01*
X342154D01*
Y332875D01*
X342231D01*
Y332645D01*
X342308D01*
Y332415D01*
X342384D01*
Y332184D01*
X342461D01*
Y331877D01*
X342538D01*
Y331494D01*
X342615D01*
Y331033D01*
X342691D01*
Y330496D01*
X342768D01*
Y329805D01*
X342845D01*
Y328884D01*
X348831D01*
Y328577D01*
X348754D01*
Y328347D01*
X348678D01*
Y328194D01*
X348601D01*
Y327963D01*
X348524D01*
Y327810D01*
X348447D01*
Y327580D01*
X348371D01*
Y327426D01*
X348294D01*
Y327196D01*
X348217D01*
Y327042D01*
X348140D01*
Y326812D01*
X348064D01*
Y326659D01*
X347987D01*
Y326428D01*
X347910D01*
Y326275D01*
X347833D01*
Y326121D01*
X342231D01*
Y325968D01*
X342154D01*
Y325814D01*
X342077D01*
Y325661D01*
X342001D01*
Y325584D01*
X341924D01*
Y325431D01*
X341847D01*
Y325277D01*
X341770D01*
Y325200D01*
X341694D01*
Y325047D01*
X341617D01*
Y324893D01*
X341540D01*
Y324817D01*
X341463D01*
Y324663D01*
X341387D01*
Y324586D01*
X341310D01*
Y324433D01*
X341233D01*
Y324356D01*
X341156D01*
Y324203D01*
X341080D01*
Y324126D01*
X341003D01*
Y323973D01*
X340926D01*
Y323896D01*
X340849D01*
Y323819D01*
X340773D01*
Y323666D01*
X340696D01*
Y323589D01*
X340619D01*
Y323435D01*
X340542D01*
Y323358D01*
X340466D01*
Y323282D01*
X340389D01*
Y323128D01*
X340312D01*
Y323051D01*
X340235D01*
Y322975D01*
X340159D01*
Y322821D01*
X340082D01*
Y322744D01*
X340005D01*
Y322668D01*
X339928D01*
Y322514D01*
X339852D01*
Y322438D01*
X339775D01*
Y322361D01*
X339698D01*
Y322284D01*
X339621D01*
Y322131D01*
X339545D01*
Y322054D01*
X339468D01*
Y321977D01*
X339391D01*
Y321824D01*
X339314D01*
Y321747D01*
X339238D01*
Y321670D01*
X339161D01*
Y321593D01*
X339084D01*
Y321516D01*
X339007D01*
Y321363D01*
X338931D01*
Y321286D01*
X338854D01*
Y321209D01*
X338777D01*
Y321133D01*
X338700D01*
Y321056D01*
X338624D01*
Y320979D01*
X338547D01*
Y320826D01*
X338470D01*
Y320749D01*
X338393D01*
Y320672D01*
X338317D01*
Y320596D01*
X338240D01*
Y320519D01*
X338163D01*
Y320442D01*
X338086D01*
Y320365D01*
X338010D01*
Y320289D01*
X337933D01*
Y320212D01*
X337779D01*
Y320135D01*
X337703D01*
Y320058D01*
X337626D01*
Y319982D01*
X337549D01*
Y319905D01*
X337472D01*
Y319828D01*
X337396D01*
Y319751D01*
X337319D01*
Y319675D01*
X337242D01*
Y319598D01*
X337165D01*
Y319521D01*
X337012D01*
Y319444D01*
X336935D01*
Y319368D01*
X336858D01*
Y319291D01*
X336782D01*
Y319214D01*
X336705D01*
Y319137D01*
X336628D01*
Y319061D01*
X336552D01*
Y318984D01*
X336475D01*
Y318907D01*
X336321D01*
Y318830D01*
X336245D01*
Y318754D01*
X336168D01*
Y318677D01*
X336091D01*
Y318600D01*
X336014D01*
Y318523D01*
X335861D01*
Y318447D01*
X335784D01*
Y318370D01*
X335707D01*
Y318293D01*
X335630D01*
Y318216D01*
X335477D01*
Y318140D01*
X335400D01*
Y318063D01*
X335323D01*
Y317986D01*
X335247D01*
Y317909D01*
X335093D01*
Y317833D01*
X335017D01*
Y317756D01*
X334940D01*
Y317679D01*
X334863D01*
Y317602D01*
X334710D01*
Y317526D01*
X334633D01*
Y317449D01*
X334556D01*
Y317372D01*
X334403D01*
Y317295D01*
X334326D01*
Y317219D01*
X334249D01*
Y317142D01*
X334172D01*
Y317065D01*
X334019D01*
Y316988D01*
X333942D01*
Y316912D01*
X333865D01*
Y316835D01*
X333712D01*
Y316758D01*
X333635D01*
Y316681D01*
X333558D01*
Y316605D01*
X333405D01*
Y316528D01*
X333328D01*
Y316451D01*
X333251D01*
Y316374D01*
X333098D01*
Y316298D01*
X333021D01*
Y316221D01*
X332944D01*
Y316144D01*
X332791D01*
Y316068D01*
X332714D01*
Y315991D01*
X332561D01*
Y315914D01*
X332484D01*
Y315837D01*
X332330D01*
Y315760D01*
X332254D01*
Y315684D01*
X332100D01*
Y315607D01*
X332023D01*
Y315530D01*
X331870D01*
Y315453D01*
X331793D01*
Y315377D01*
X331640D01*
Y315300D01*
X331486D01*
Y315223D01*
X331409D01*
Y315147D01*
X331256D01*
Y315070D01*
X331179D01*
Y314993D01*
X331026D01*
Y314916D01*
X330949D01*
Y314839D01*
X330795D01*
Y314763D01*
X330642D01*
Y314686D01*
X330565D01*
Y314609D01*
X330412D01*
Y314533D01*
X330335D01*
Y314456D01*
X330181D01*
Y314379D01*
X330028D01*
Y314302D01*
X329951D01*
Y314226D01*
X329798D01*
Y314149D01*
X329721D01*
Y314072D01*
X329567D01*
Y313995D01*
X329414D01*
Y313918D01*
X329337D01*
Y313842D01*
X329184D01*
Y313765D01*
X329107D01*
Y313688D01*
X328954D01*
Y313612D01*
X328800D01*
Y313535D01*
X328723D01*
Y313458D01*
X328570D01*
Y313381D01*
X328416D01*
Y313305D01*
X328340D01*
Y313228D01*
X328186D01*
Y313151D01*
X328032D01*
Y313074D01*
X327956D01*
Y312997D01*
X327802D01*
Y312921D01*
X327649D01*
Y312844D01*
X327495D01*
Y312767D01*
X327419D01*
Y312691D01*
X327265D01*
Y312614D01*
X327112D01*
Y312537D01*
X327035D01*
Y312460D01*
X326881D01*
Y312384D01*
X326728D01*
Y312307D01*
X326574D01*
Y312230D01*
X326421D01*
Y312153D01*
X326344D01*
Y312077D01*
X326191D01*
Y312000D01*
X326037D01*
Y311923D01*
X325884D01*
Y311846D01*
X325730D01*
Y311770D01*
X325500D01*
Y311693D01*
X325346D01*
Y311616D01*
X325193D01*
Y311539D01*
X325039D01*
Y311463D01*
X324886D01*
Y311386D01*
X324732D01*
Y311309D01*
X324656D01*
Y311232D01*
X324502D01*
Y311156D01*
X324349D01*
Y311079D01*
X324195D01*
Y311002D01*
X324042D01*
Y310925D01*
X323888D01*
Y310849D01*
X323735D01*
Y310772D01*
X323581D01*
Y310695D01*
X323428D01*
Y310618D01*
X323274D01*
Y310542D01*
X323121D01*
Y310465D01*
X322967D01*
Y310388D01*
X322814D01*
Y310311D01*
X322660D01*
Y310235D01*
X322507D01*
Y310158D01*
X322353D01*
Y310081D01*
X322200D01*
Y310004D01*
X322046D01*
Y309928D01*
X321893D01*
Y309851D01*
X321739D01*
Y309774D01*
X321586D01*
Y309697D01*
X321432D01*
Y309621D01*
X321202D01*
Y309544D01*
X321049D01*
Y309467D01*
X320895D01*
Y309390D01*
X320665D01*
Y309314D01*
X320511D01*
Y309237D01*
X320281D01*
Y309160D01*
X320127D01*
Y309083D01*
X319974D01*
Y309007D01*
X319744D01*
Y308930D01*
X319590D01*
Y308853D01*
X319360D01*
Y308776D01*
X319207D01*
Y308700D01*
X318976D01*
Y308623D01*
X318823D01*
Y308546D01*
X318593D01*
Y308470D01*
X318439D01*
Y308393D01*
X318209D01*
Y308316D01*
X318055D01*
Y308239D01*
X317825D01*
Y308162D01*
X317595D01*
Y308086D01*
X317441D01*
Y308009D01*
X317211D01*
Y307932D01*
X317058D01*
Y307855D01*
X316827D01*
Y307779D01*
X316674D01*
Y307702D01*
X316444D01*
Y307625D01*
X316290D01*
Y307549D01*
X316060D01*
Y307472D01*
X315906D01*
Y307395D01*
X315676D01*
Y307318D01*
X315523D01*
Y307241D01*
X315369D01*
Y307165D01*
X315139D01*
Y307088D01*
X314909D01*
Y307011D01*
X314755D01*
Y306935D01*
X314525D01*
Y306858D01*
X314295D01*
Y306781D01*
X314141D01*
Y306704D01*
X313911D01*
Y306628D01*
X313757D01*
Y306551D01*
X313527D01*
Y306474D01*
X313297D01*
Y306397D01*
X313144D01*
Y306320D01*
X312913D01*
Y306244D01*
X312683D01*
Y306167D01*
X312530D01*
Y306090D01*
X312299D01*
Y306014D01*
X312069D01*
Y305937D01*
X311915D01*
Y305860D01*
X311685D01*
Y305783D01*
X311455D01*
Y305707D01*
X311225D01*
Y305630D01*
X311071D01*
Y305553D01*
X310841D01*
Y305476D01*
X310534D01*
Y305400D01*
X310304D01*
Y305323D01*
X310074D01*
Y305246D01*
X309843D01*
Y305169D01*
X309536D01*
Y305093D01*
X309306D01*
Y305016D01*
X308999D01*
Y304939D01*
X308692D01*
Y304862D01*
X308462D01*
Y304786D01*
X308308D01*
Y297725D01*
X297180D01*
Y302023D01*
X296950D01*
Y301946D01*
X296719D01*
Y301869D01*
X296413D01*
Y301792D01*
X296182D01*
Y301716D01*
X295875D01*
Y301639D01*
X295645D01*
Y301562D01*
X295338D01*
Y301485D01*
X295031D01*
Y301409D01*
X294647D01*
Y301332D01*
X294264D01*
Y301255D01*
X293803D01*
Y301178D01*
X293189D01*
Y301102D01*
X292422D01*
Y301025D01*
X291577D01*
Y300948D01*
X290350D01*
Y300872D01*
X286435D01*
Y300948D01*
X285668D01*
Y301025D01*
X285207D01*
Y301102D01*
X284747D01*
Y301178D01*
X284363D01*
Y301255D01*
X283979D01*
Y301332D01*
X283673D01*
Y301409D01*
X283365D01*
Y301485D01*
X283135D01*
Y301562D01*
X282982D01*
Y301639D01*
X282752D01*
Y301716D01*
X282598D01*
Y301792D01*
X282444D01*
Y301869D01*
X282214D01*
Y301946D01*
X282061D01*
Y302023D01*
X281907D01*
Y302099D01*
X281754D01*
Y302176D01*
X281600D01*
Y302253D01*
X281447D01*
Y302330D01*
X281293D01*
Y302406D01*
X281140D01*
Y302483D01*
X281063D01*
Y302560D01*
X280910D01*
Y302637D01*
X280756D01*
Y302713D01*
X280679D01*
Y302790D01*
X280526D01*
Y302867D01*
X280372D01*
Y302944D01*
X280296D01*
Y303020D01*
X280219D01*
Y303097D01*
X280142D01*
Y303174D01*
X280065D01*
Y303251D01*
X279912D01*
Y303327D01*
X279835D01*
Y303404D01*
X279758D01*
Y303481D01*
X279682D01*
Y303558D01*
X279605D01*
Y303634D01*
X279451D01*
Y303711D01*
X279375D01*
Y303788D01*
X279298D01*
Y303865D01*
X279221D01*
Y303941D01*
X279144D01*
Y304018D01*
X279068D01*
Y304095D01*
X278991D01*
Y304172D01*
X278914D01*
Y304248D01*
X278837D01*
Y304325D01*
X278761D01*
Y304402D01*
X278684D01*
Y304479D01*
X278607D01*
Y304555D01*
X278530D01*
Y304632D01*
X278454D01*
Y304709D01*
X278377D01*
Y304786D01*
X278300D01*
Y304862D01*
X278223D01*
Y304939D01*
X278147D01*
Y305016D01*
X278070D01*
Y305093D01*
X277993D01*
Y305169D01*
X277916D01*
Y305246D01*
X277840D01*
Y305400D01*
X277763D01*
Y305476D01*
X277686D01*
Y305553D01*
X277609D01*
Y305707D01*
X277533D01*
Y305783D01*
X277456D01*
Y305860D01*
X277379D01*
Y306014D01*
X277302D01*
Y306090D01*
X277226D01*
Y306244D01*
X277149D01*
Y306320D01*
X277072D01*
Y306397D01*
X276995D01*
Y306551D01*
X276919D01*
Y306628D01*
X276842D01*
Y306781D01*
X276765D01*
Y306858D01*
X276688D01*
Y307011D01*
X276612D01*
Y307088D01*
X276535D01*
Y307241D01*
X276458D01*
Y307395D01*
X276381D01*
Y307472D01*
X276305D01*
Y307625D01*
X276228D01*
Y307702D01*
X276151D01*
Y307855D01*
X276075D01*
Y308009D01*
X275998D01*
Y308086D01*
X275921D01*
Y308239D01*
X275844D01*
Y308393D01*
X275767D01*
Y308470D01*
X275691D01*
Y308623D01*
X275614D01*
Y308776D01*
X275537D01*
Y308930D01*
X275460D01*
Y309007D01*
X275384D01*
Y309160D01*
X275307D01*
Y309314D01*
X275230D01*
Y309467D01*
X275154D01*
Y309621D01*
X275077D01*
Y309774D01*
X275000D01*
Y309928D01*
X274923D01*
Y310004D01*
X274846D01*
Y310158D01*
X274770D01*
Y310311D01*
X274693D01*
Y310465D01*
X274616D01*
Y310618D01*
X274540D01*
Y310772D01*
X274463D01*
Y310925D01*
X274386D01*
Y311002D01*
X274309D01*
Y311156D01*
X274233D01*
Y311309D01*
X274156D01*
Y311463D01*
X274079D01*
Y311616D01*
X274002D01*
Y311770D01*
X273925D01*
Y311923D01*
X273849D01*
Y312000D01*
X273772D01*
Y312153D01*
X273695D01*
Y312307D01*
X273619D01*
Y312460D01*
X273542D01*
Y312614D01*
X273465D01*
Y312767D01*
X273388D01*
Y312921D01*
X273312D01*
Y313074D01*
X273235D01*
Y313228D01*
X273158D01*
Y313381D01*
X273081D01*
Y313458D01*
X273004D01*
Y313612D01*
X272928D01*
Y313765D01*
X272851D01*
Y313918D01*
X272774D01*
Y314072D01*
X272698D01*
Y314226D01*
X272621D01*
Y314379D01*
X272544D01*
Y314533D01*
X272467D01*
Y314686D01*
X272391D01*
Y314839D01*
X272314D01*
Y314993D01*
X272237D01*
Y315147D01*
X272160D01*
Y315300D01*
X272084D01*
Y315453D01*
X272007D01*
Y315607D01*
X271930D01*
Y315837D01*
X271853D01*
Y315991D01*
X271777D01*
Y316144D01*
X271700D01*
Y316298D01*
X271623D01*
Y316451D01*
X271546D01*
Y316605D01*
X271470D01*
Y316758D01*
X271393D01*
Y316988D01*
X271316D01*
Y317142D01*
X271239D01*
Y317295D01*
X271163D01*
Y317449D01*
X271086D01*
Y317679D01*
X271009D01*
Y317833D01*
X270932D01*
Y317986D01*
X270856D01*
Y318216D01*
X270779D01*
Y318370D01*
X270702D01*
Y318600D01*
X270625D01*
Y318754D01*
X270549D01*
Y318984D01*
X270472D01*
Y319137D01*
X270395D01*
Y319368D01*
X270318D01*
Y319521D01*
X270242D01*
Y319751D01*
X270165D01*
Y319905D01*
X270088D01*
Y320135D01*
X270011D01*
Y320365D01*
X269935D01*
Y320519D01*
X269858D01*
Y320749D01*
X269781D01*
Y320979D01*
X269704D01*
Y321209D01*
X269628D01*
Y321363D01*
X269551D01*
Y321593D01*
X269474D01*
Y321824D01*
X269397D01*
Y322054D01*
X269321D01*
Y322284D01*
X269244D01*
Y322591D01*
X269167D01*
Y322821D01*
X269090D01*
Y323051D01*
X269014D01*
Y322898D01*
X268937D01*
Y322744D01*
X268860D01*
Y322591D01*
X268783D01*
Y322438D01*
X268707D01*
Y322284D01*
X268630D01*
Y322131D01*
X268553D01*
Y321977D01*
X268477D01*
Y321824D01*
X268400D01*
Y321670D01*
X268323D01*
Y321593D01*
X268246D01*
Y321440D01*
X268169D01*
Y321286D01*
X268093D01*
Y321133D01*
X268016D01*
Y320979D01*
X267939D01*
Y320826D01*
X267862D01*
Y320672D01*
X267786D01*
Y320519D01*
X267709D01*
Y320365D01*
X267632D01*
Y320212D01*
X267556D01*
Y320058D01*
X267479D01*
Y319905D01*
X267402D01*
Y319751D01*
X267325D01*
Y319598D01*
X267248D01*
Y319444D01*
X267172D01*
Y319291D01*
X267095D01*
Y319137D01*
X267018D01*
Y318984D01*
X266942D01*
Y318830D01*
X266865D01*
Y318677D01*
X266788D01*
Y318523D01*
X266711D01*
Y318370D01*
X266635D01*
Y318216D01*
X266558D01*
Y318063D01*
X266481D01*
Y317909D01*
X266404D01*
Y317833D01*
X263027D01*
Y317986D01*
X263104D01*
Y318140D01*
X263181D01*
Y318293D01*
X263258D01*
Y318447D01*
X263334D01*
Y318600D01*
X263411D01*
Y318754D01*
X263488D01*
Y318907D01*
X263565D01*
Y319061D01*
X263641D01*
Y319214D01*
X263718D01*
Y319368D01*
X263795D01*
Y319521D01*
X263872D01*
Y319675D01*
X263948D01*
Y319828D01*
X264025D01*
Y319982D01*
X264102D01*
Y320135D01*
X264179D01*
Y320289D01*
X264255D01*
Y320442D01*
X264332D01*
Y320596D01*
X264409D01*
Y320749D01*
X264486D01*
Y320903D01*
X264562D01*
Y321056D01*
X264639D01*
Y321209D01*
X264716D01*
Y321363D01*
X264793D01*
Y321516D01*
X264869D01*
Y321670D01*
X264946D01*
Y321824D01*
X265023D01*
Y321977D01*
X265100D01*
Y322131D01*
X265176D01*
Y322284D01*
X265253D01*
Y322438D01*
X265330D01*
Y322591D01*
X265406D01*
Y322744D01*
X265483D01*
Y322898D01*
X265560D01*
Y323051D01*
X265637D01*
Y323205D01*
X265714D01*
Y323358D01*
X265790D01*
Y323512D01*
X265867D01*
Y323666D01*
X265944D01*
Y323819D01*
X266021D01*
Y323973D01*
X266097D01*
Y324126D01*
X266174D01*
Y324279D01*
X266251D01*
Y324433D01*
X266327D01*
Y324586D01*
X266404D01*
Y324740D01*
X266481D01*
Y324893D01*
X266558D01*
Y325047D01*
X266635D01*
Y325200D01*
X259958D01*
Y325507D01*
X260034D01*
Y325738D01*
X260111D01*
Y325891D01*
X260188D01*
Y326045D01*
X260264D01*
Y326275D01*
X260341D01*
Y326428D01*
X260418D01*
Y326659D01*
X260495D01*
Y326812D01*
X260571D01*
Y326966D01*
X260648D01*
Y327196D01*
X260725D01*
Y327349D01*
X260802D01*
Y327580D01*
X260878D01*
Y327733D01*
X260955D01*
Y327810D01*
X267325D01*
Y328040D01*
X267248D01*
Y328270D01*
X267172D01*
Y328577D01*
X267095D01*
Y328807D01*
X267018D01*
Y329114D01*
X266942D01*
Y329345D01*
X266865D01*
Y329575D01*
X266788D01*
Y329882D01*
X266711D01*
Y330112D01*
X266635D01*
Y330342D01*
X266558D01*
Y330573D01*
X266481D01*
Y330880D01*
X266404D01*
Y331110D01*
X266327D01*
Y331417D01*
X266251D01*
Y331647D01*
X266174D01*
Y331954D01*
X266097D01*
Y332261D01*
X266021D01*
Y332568D01*
X265944D01*
Y332875D01*
X265867D01*
Y333182D01*
X265790D01*
Y333489D01*
X265714D01*
Y333796D01*
X265637D01*
Y334103D01*
X265560D01*
Y334333D01*
X265483D01*
Y334640D01*
X265406D01*
Y334947D01*
X265330D01*
Y335254D01*
X265253D01*
Y335561D01*
X265176D01*
Y335792D01*
X265100D01*
Y336099D01*
X265023D01*
Y336406D01*
X264946D01*
Y336712D01*
X264869D01*
Y337020D01*
X264793D01*
Y337327D01*
X264716D01*
Y337710D01*
X264639D01*
Y338017D01*
X264562D01*
Y338401D01*
X264486D01*
Y338708D01*
X264409D01*
Y339092D01*
X264332D01*
Y339475D01*
X264255D01*
Y339859D01*
X264179D01*
Y340243D01*
X264102D01*
Y340703D01*
X264025D01*
Y341087D01*
X263948D01*
Y341548D01*
X263872D01*
Y341931D01*
X263795D01*
Y342392D01*
X263718D01*
Y342852D01*
X263641D01*
Y343313D01*
X263565D01*
Y343850D01*
X263488D01*
Y344464D01*
X263411D01*
Y345155D01*
X263334D01*
Y345999D01*
X263258D01*
Y347073D01*
X263181D01*
Y348532D01*
X263104D01*
Y350681D01*
X263181D01*
Y351755D01*
X263258D01*
Y352369D01*
X263334D01*
Y352830D01*
X263411D01*
Y353213D01*
X263488D01*
Y353443D01*
X263565D01*
Y353674D01*
X263641D01*
Y353904D01*
X263718D01*
Y354058D01*
X263795D01*
Y354211D01*
X263872D01*
Y354365D01*
X263948D01*
Y354518D01*
X264025D01*
Y354672D01*
X264102D01*
Y354748D01*
X264179D01*
Y354902D01*
X264255D01*
Y354978D01*
X264332D01*
Y355055D01*
X264409D01*
Y355209D01*
X264486D01*
Y355285D01*
X264562D01*
Y355362D01*
X264639D01*
Y355516D01*
X264716D01*
Y355592D01*
X264793D01*
Y355669D01*
X264869D01*
Y355746D01*
X264946D01*
Y355823D01*
X265023D01*
Y355899D01*
X265176D01*
Y355976D01*
X265253D01*
Y356053D01*
X265330D01*
Y356130D01*
X265406D01*
Y356206D01*
X265483D01*
Y356283D01*
X265637D01*
Y356360D01*
X265714D01*
Y356437D01*
X265867D01*
Y356513D01*
X266021D01*
Y356590D01*
X266174D01*
Y356667D01*
X266251D01*
Y356744D01*
X266404D01*
Y356820D01*
X266558D01*
Y356897D01*
X266788D01*
Y356974D01*
X266942D01*
Y357051D01*
X267095D01*
Y357127D01*
X267325D01*
Y357204D01*
X267556D01*
Y357281D01*
X267786D01*
Y357358D01*
X268093D01*
Y357434D01*
X268323D01*
Y357511D01*
X268630D01*
Y357588D01*
X269014D01*
Y357665D01*
X269397D01*
Y357741D01*
X270165D01*
Y357818D01*
X271546D01*
Y357895D01*
X273235D01*
Y357818D01*
X275691D01*
Y357741D01*
X277226D01*
Y357665D01*
X278300D01*
Y357588D01*
X279144D01*
Y357511D01*
X279989D01*
Y357434D01*
X280679D01*
Y357358D01*
X281370D01*
Y357281D01*
X281984D01*
Y357204D01*
X282521D01*
Y357127D01*
X283058D01*
Y357051D01*
X283596D01*
Y356974D01*
X284056D01*
Y356897D01*
X284593D01*
Y356820D01*
X285054D01*
Y356744D01*
X285591D01*
Y356667D01*
X286052D01*
Y356590D01*
X286589D01*
Y356513D01*
X287049D01*
Y356437D01*
X287510D01*
Y356360D01*
X288047D01*
Y356283D01*
X288508D01*
Y356206D01*
X288968D01*
Y356130D01*
X289429D01*
Y356053D01*
X289889D01*
Y355976D01*
X290273D01*
Y355899D01*
X290733D01*
Y355823D01*
X291194D01*
Y355746D01*
X291577D01*
Y355669D01*
X291961D01*
Y355592D01*
X292345D01*
Y355516D01*
X292729D01*
Y355439D01*
X293112D01*
Y355362D01*
X293496D01*
Y355285D01*
X293880D01*
Y355209D01*
X294264D01*
Y355132D01*
X294647D01*
Y355055D01*
X295031D01*
Y354978D01*
X295415D01*
Y354902D01*
X295722D01*
Y354825D01*
X296106D01*
Y354748D01*
X296489D01*
Y354672D01*
X296796D01*
Y354595D01*
X297103D01*
Y354518D01*
X297487D01*
Y354441D01*
X297794D01*
Y354365D01*
X298178D01*
Y354288D01*
X298485D01*
Y354211D01*
X298792D01*
Y354134D01*
X299175D01*
Y354058D01*
X299482D01*
Y353981D01*
X299789D01*
Y353904D01*
X300096D01*
Y353827D01*
X300403D01*
Y353750D01*
X300787D01*
Y353674D01*
X301094D01*
Y353597D01*
X301401D01*
Y353520D01*
X301708D01*
Y353443D01*
X302015D01*
Y353367D01*
X302322D01*
Y353290D01*
X302629D01*
Y353213D01*
X302936D01*
Y353136D01*
X303243D01*
Y353060D01*
X303550D01*
Y352983D01*
X303857D01*
Y352906D01*
X304164D01*
Y352830D01*
X304471D01*
Y352753D01*
X304778D01*
Y352676D01*
X305085D01*
Y352599D01*
X305392D01*
Y352523D01*
X305699D01*
Y352446D01*
X306006D01*
Y352369D01*
X306313D01*
Y352292D01*
X306620D01*
Y352215D01*
X306927D01*
Y352139D01*
X307157D01*
Y352062D01*
X307464D01*
Y351985D01*
X307771D01*
Y351908D01*
X308001D01*
Y351832D01*
X308308D01*
Y351755D01*
X308615D01*
Y351678D01*
X308846D01*
Y351602D01*
X309153D01*
Y351525D01*
X309383D01*
Y351448D01*
X309690D01*
Y351371D01*
X309920D01*
Y351295D01*
X310227D01*
Y351218D01*
X310457D01*
Y351141D01*
X310764D01*
Y351064D01*
X310995D01*
Y350988D01*
X311301D01*
Y350911D01*
X311532D01*
Y350834D01*
X311839D01*
Y350757D01*
X312069D01*
Y350681D01*
X312299D01*
Y350604D01*
X312606D01*
Y350527D01*
X312836D01*
Y350450D01*
X313144D01*
Y350374D01*
X313374D01*
Y350297D01*
X313604D01*
Y350220D01*
X313911D01*
Y350143D01*
X314141D01*
Y350067D01*
X314371D01*
Y349990D01*
X314678D01*
Y349913D01*
X314909D01*
Y349836D01*
X315139D01*
Y349760D01*
X315369D01*
Y349683D01*
X315676D01*
Y349606D01*
X315906D01*
Y349529D01*
X316137D01*
Y349453D01*
X316367D01*
Y349376D01*
X316674D01*
Y349299D01*
X316904D01*
Y349222D01*
X317134D01*
Y349146D01*
X317365D01*
Y349069D01*
X317672D01*
Y348992D01*
X317902D01*
Y348915D01*
X318132D01*
Y348839D01*
X318362D01*
Y348762D01*
X318593D01*
Y348685D01*
X318823D01*
Y348608D01*
X319053D01*
Y348532D01*
X319283D01*
Y348455D01*
X319513D01*
Y348378D01*
X319744D01*
Y348301D01*
X319974D01*
Y348225D01*
X320204D01*
Y348148D01*
X320434D01*
Y348071D01*
X320665D01*
Y347994D01*
X320895D01*
Y347918D01*
X321125D01*
Y347841D01*
X321279D01*
Y347764D01*
X321509D01*
Y347687D01*
X321739D01*
Y347611D01*
X321969D01*
Y347534D01*
X322200D01*
Y347457D01*
X322430D01*
Y347380D01*
X322583D01*
Y347304D01*
X322814D01*
Y347227D01*
X323044D01*
Y347150D01*
X323274D01*
Y347073D01*
X323428D01*
Y346997D01*
X323658D01*
Y346920D01*
X323888D01*
Y346843D01*
X324042D01*
Y346767D01*
X324272D01*
Y346690D01*
X324502D01*
Y346613D01*
X324656D01*
Y346536D01*
X324886D01*
Y346460D01*
X325039D01*
Y346383D01*
X325270D01*
Y346306D01*
X325423D01*
Y346229D01*
X325653D01*
Y346152D01*
X325807D01*
Y346076D01*
X326037D01*
Y345999D01*
X326191D01*
Y345922D01*
X326421D01*
Y345845D01*
X326497D01*
Y358816D01*
X326574D01*
Y358893D01*
X326728D01*
Y358969D01*
X326958D01*
Y359046D01*
X327188D01*
Y359123D01*
X327419D01*
Y359200D01*
X327649D01*
Y359276D01*
X327879D01*
Y359353D01*
X328109D01*
Y359430D01*
X328340D01*
Y359506D01*
X328570D01*
Y359583D01*
X328800D01*
Y359660D01*
X329030D01*
Y359737D01*
X329260D01*
Y359813D01*
X329491D01*
Y359890D01*
X329721D01*
Y359967D01*
X329951D01*
Y360044D01*
X330181D01*
Y360121D01*
X330335D01*
Y360197D01*
X330565D01*
Y360274D01*
X330795D01*
Y360351D01*
X331026D01*
Y360428D01*
X331256D01*
Y360504D01*
X331486D01*
Y360581D01*
X331716D01*
Y360658D01*
X331947D01*
Y360734D01*
X332177D01*
Y360811D01*
X332407D01*
Y360888D01*
X332637D01*
Y360965D01*
X332868D01*
Y361041D01*
X333098D01*
Y361118D01*
X333328D01*
Y361195D01*
X333558D01*
Y361272D01*
X333712D01*
Y361348D01*
X333942D01*
Y361425D01*
X334172D01*
Y361502D01*
X334403D01*
Y361579D01*
X334633D01*
Y361656D01*
X334863D01*
Y361732D01*
X335093D01*
Y361809D01*
X335323D01*
Y361886D01*
X335554D01*
Y361963D01*
X335784D01*
Y362039D01*
X336014D01*
Y362116D01*
X336245D01*
Y362193D01*
X336475D01*
Y362270D01*
X336705D01*
Y362346D01*
X336935D01*
Y362423D01*
X337242D01*
Y339552D01*
D02*
G37*
%LPC*%
G36*
X282675Y354441D02*
X282521D01*
Y354365D01*
X282675D01*
Y354441D01*
D02*
G37*
G36*
X271393Y353904D02*
X269704D01*
Y353827D01*
X269244D01*
Y353750D01*
X268937D01*
Y353674D01*
X268707D01*
Y353597D01*
X268477D01*
Y353520D01*
X268323D01*
Y353443D01*
X268169D01*
Y353367D01*
X268016D01*
Y353290D01*
X267939D01*
Y353213D01*
X267786D01*
Y353136D01*
X267709D01*
Y353060D01*
X267632D01*
Y352983D01*
X267556D01*
Y352906D01*
X267479D01*
Y352830D01*
X267402D01*
Y352753D01*
X267248D01*
Y352599D01*
X267172D01*
Y352523D01*
X267095D01*
Y352446D01*
X267018D01*
Y352369D01*
X266942D01*
Y352292D01*
X266865D01*
Y352139D01*
X266788D01*
Y352062D01*
X266711D01*
Y351908D01*
X266635D01*
Y351678D01*
X266558D01*
Y351448D01*
X266481D01*
Y351218D01*
X266404D01*
Y350911D01*
X266327D01*
Y350527D01*
X266251D01*
Y349453D01*
X266174D01*
Y348839D01*
X266251D01*
Y347918D01*
X266327D01*
Y346843D01*
X266404D01*
Y345922D01*
X266481D01*
Y345155D01*
X266558D01*
Y344541D01*
X266635D01*
Y344004D01*
X266711D01*
Y343543D01*
X266788D01*
Y343083D01*
X266865D01*
Y342545D01*
X266942D01*
Y342085D01*
X267018D01*
Y341624D01*
X267095D01*
Y341164D01*
X267172D01*
Y340703D01*
X267248D01*
Y340243D01*
X267325D01*
Y339782D01*
X267402D01*
Y339475D01*
X267479D01*
Y339169D01*
X267556D01*
Y338785D01*
X267632D01*
Y338478D01*
X267709D01*
Y338171D01*
X267786D01*
Y337787D01*
X267862D01*
Y337480D01*
X267939D01*
Y337096D01*
X268016D01*
Y336789D01*
X268093D01*
Y336406D01*
X268169D01*
Y336099D01*
X268246D01*
Y335715D01*
X268323D01*
Y335408D01*
X268400D01*
Y335101D01*
X268477D01*
Y334794D01*
X268553D01*
Y334564D01*
X268630D01*
Y334257D01*
X268707D01*
Y333950D01*
X268783D01*
Y333643D01*
X268860D01*
Y333412D01*
X268937D01*
Y333105D01*
X269014D01*
Y332798D01*
X269090D01*
Y332568D01*
X269167D01*
Y332338D01*
X269244D01*
Y332108D01*
X269321D01*
Y331801D01*
X269397D01*
Y331571D01*
X269474D01*
Y331417D01*
X269551D01*
Y331187D01*
X269628D01*
Y331110D01*
X269704D01*
Y331264D01*
X269781D01*
Y331417D01*
X269858D01*
Y331571D01*
X269935D01*
Y331724D01*
X270011D01*
Y331877D01*
X270088D01*
Y332031D01*
X270165D01*
Y332184D01*
X270242D01*
Y332338D01*
X270318D01*
Y332491D01*
X270395D01*
Y332645D01*
X270472D01*
Y332798D01*
X270549D01*
Y332952D01*
X270625D01*
Y333105D01*
X270702D01*
Y333259D01*
X270779D01*
Y333412D01*
X270856D01*
Y333566D01*
X270932D01*
Y333719D01*
X271009D01*
Y333873D01*
X271086D01*
Y334026D01*
X271163D01*
Y334180D01*
X271239D01*
Y334333D01*
X271316D01*
Y334487D01*
X271393D01*
Y334640D01*
X271470D01*
Y334794D01*
X271546D01*
Y334947D01*
X271623D01*
Y335101D01*
X271700D01*
Y335254D01*
X271777D01*
Y335408D01*
X271853D01*
Y335561D01*
X271930D01*
Y335715D01*
X272007D01*
Y335868D01*
X272084D01*
Y336022D01*
X272160D01*
Y336175D01*
X272237D01*
Y336329D01*
X272314D01*
Y336482D01*
X272391D01*
Y336636D01*
X272467D01*
Y336789D01*
X272544D01*
Y336943D01*
X272621D01*
Y337096D01*
X272698D01*
Y337250D01*
X272774D01*
Y337403D01*
X272851D01*
Y337557D01*
X272928D01*
Y337710D01*
X273004D01*
Y337864D01*
X273081D01*
Y338017D01*
X273158D01*
Y338171D01*
X273235D01*
Y338324D01*
X273312D01*
Y338478D01*
X273388D01*
Y338631D01*
X273465D01*
Y338785D01*
X273542D01*
Y338938D01*
X273619D01*
Y339092D01*
X273695D01*
Y339245D01*
X273772D01*
Y339399D01*
X273849D01*
Y339475D01*
X273925D01*
Y339552D01*
Y339629D01*
X274002D01*
Y339782D01*
X274079D01*
Y339936D01*
X274156D01*
Y340089D01*
X274233D01*
Y340243D01*
X274309D01*
Y340396D01*
X274386D01*
Y340550D01*
X274463D01*
Y340703D01*
X274540D01*
Y340857D01*
X274616D01*
Y341010D01*
X274693D01*
Y341164D01*
X274770D01*
Y341317D01*
X274846D01*
Y341471D01*
X274923D01*
Y341624D01*
X275000D01*
Y341778D01*
X275077D01*
Y341931D01*
X275154D01*
Y342085D01*
X275230D01*
Y342238D01*
X275307D01*
Y342392D01*
X275384D01*
Y342545D01*
X275460D01*
Y342699D01*
X275537D01*
Y342852D01*
X275614D01*
Y343006D01*
X275691D01*
Y343159D01*
X275767D01*
Y343313D01*
X275844D01*
Y343466D01*
X275921D01*
Y343620D01*
X275998D01*
Y343773D01*
X276075D01*
Y343927D01*
X276151D01*
Y344080D01*
X276228D01*
Y344234D01*
X276305D01*
Y344387D01*
X276381D01*
Y344541D01*
X276458D01*
Y344694D01*
X276535D01*
Y344848D01*
X276612D01*
Y345001D01*
X276688D01*
Y345155D01*
X276765D01*
Y345308D01*
X276842D01*
Y345462D01*
X276919D01*
Y345615D01*
X276995D01*
Y345769D01*
X277072D01*
Y345922D01*
X277149D01*
Y346076D01*
X277226D01*
Y346229D01*
X277302D01*
Y346383D01*
X277379D01*
Y346536D01*
X277456D01*
Y346690D01*
X277533D01*
Y346843D01*
X277609D01*
Y346997D01*
X277686D01*
Y347150D01*
X277763D01*
Y347304D01*
X277840D01*
Y347457D01*
X277916D01*
Y347611D01*
X277993D01*
Y347764D01*
X278070D01*
Y347918D01*
X278147D01*
Y348071D01*
X278223D01*
Y348225D01*
X278300D01*
Y348378D01*
X278377D01*
Y348532D01*
X278454D01*
Y348685D01*
X278530D01*
Y348839D01*
X278607D01*
Y348992D01*
X278684D01*
Y349146D01*
X278761D01*
Y349299D01*
X278837D01*
Y349453D01*
X278914D01*
Y349606D01*
X278991D01*
Y349760D01*
X279068D01*
Y349913D01*
X279144D01*
Y350067D01*
X279221D01*
Y350220D01*
X279298D01*
Y350374D01*
X279375D01*
Y350527D01*
X279451D01*
Y350681D01*
X279528D01*
Y350757D01*
X279605D01*
Y350911D01*
X279682D01*
Y351064D01*
X279758D01*
Y351218D01*
X279835D01*
Y351371D01*
X279912D01*
Y351525D01*
X279989D01*
Y351678D01*
X280065D01*
Y351832D01*
X280142D01*
Y351985D01*
X280219D01*
Y352062D01*
X280065D01*
Y352139D01*
X279835D01*
Y352215D01*
X279528D01*
Y352292D01*
X279298D01*
Y352369D01*
X278991D01*
Y352446D01*
X278684D01*
Y352523D01*
X278454D01*
Y352599D01*
X278300D01*
Y352676D01*
X277993D01*
Y352753D01*
X277686D01*
Y352830D01*
X277379D01*
Y352906D01*
X276995D01*
Y352983D01*
X276688D01*
Y353060D01*
X276305D01*
Y353136D01*
X275921D01*
Y353213D01*
X275537D01*
Y353290D01*
X275154D01*
Y353367D01*
X274770D01*
Y353443D01*
X274386D01*
Y353520D01*
X273925D01*
Y353597D01*
X273465D01*
Y353674D01*
X272928D01*
Y353750D01*
X272237D01*
Y353827D01*
X271393D01*
Y353904D01*
D02*
G37*
G36*
X337319Y335408D02*
X337242D01*
Y334257D01*
Y334180D01*
Y328884D01*
X339928D01*
Y330036D01*
X339852D01*
Y330573D01*
X339775D01*
Y330956D01*
X339698D01*
Y331264D01*
X339621D01*
Y331571D01*
X339545D01*
Y331801D01*
X339468D01*
Y332031D01*
X339391D01*
Y332261D01*
X339314D01*
Y332491D01*
X339238D01*
Y332645D01*
X339161D01*
Y332875D01*
X339084D01*
Y333029D01*
X339007D01*
Y333182D01*
X338931D01*
Y333336D01*
X338854D01*
Y333489D01*
X338777D01*
Y333566D01*
X338700D01*
Y333719D01*
X338624D01*
Y333873D01*
X338547D01*
Y333950D01*
X338470D01*
Y334103D01*
X338393D01*
Y334180D01*
X338317D01*
Y334333D01*
X338240D01*
Y334410D01*
X338163D01*
Y334487D01*
X338086D01*
Y334564D01*
X338010D01*
Y334717D01*
X337933D01*
Y334794D01*
X337856D01*
Y334871D01*
X337779D01*
Y334947D01*
X337703D01*
Y335024D01*
X337626D01*
Y335101D01*
X337549D01*
Y335178D01*
X337472D01*
Y335254D01*
X337396D01*
Y335331D01*
X337319D01*
Y335408D01*
D02*
G37*
G36*
X281754Y347918D02*
X281677D01*
Y347841D01*
X281600D01*
Y347687D01*
X281523D01*
Y347534D01*
X281447D01*
Y347380D01*
X281370D01*
Y347227D01*
X281293D01*
Y347073D01*
X281217D01*
Y346920D01*
X281140D01*
Y346767D01*
X281063D01*
Y346613D01*
X280986D01*
Y346460D01*
X280910D01*
Y346306D01*
X280833D01*
Y346152D01*
X280756D01*
Y345999D01*
X280679D01*
Y345845D01*
X280602D01*
Y345692D01*
X280526D01*
Y345538D01*
X280449D01*
Y345385D01*
X280372D01*
Y345232D01*
X280296D01*
Y345078D01*
X280219D01*
Y344925D01*
X280142D01*
Y344771D01*
X280065D01*
Y344618D01*
X279989D01*
Y344464D01*
X279912D01*
Y344310D01*
X279835D01*
Y344157D01*
X279758D01*
Y344004D01*
X279682D01*
Y343850D01*
X279605D01*
Y343697D01*
X279528D01*
Y343543D01*
X279451D01*
Y343466D01*
X279375D01*
Y343313D01*
X279298D01*
Y343159D01*
X279221D01*
Y343006D01*
X279144D01*
Y342852D01*
X279068D01*
Y342699D01*
X278991D01*
Y342545D01*
X278914D01*
Y342392D01*
X278837D01*
Y342238D01*
X278761D01*
Y342085D01*
X278684D01*
Y341931D01*
X278607D01*
Y341778D01*
X278530D01*
Y341624D01*
X278454D01*
Y341471D01*
X278377D01*
Y341317D01*
X278300D01*
Y341164D01*
X278223D01*
Y341010D01*
X278147D01*
Y340857D01*
X278070D01*
Y340703D01*
X277993D01*
Y340550D01*
X277916D01*
Y340396D01*
X277840D01*
Y340243D01*
X277763D01*
Y340089D01*
X277686D01*
Y339936D01*
X277609D01*
Y339782D01*
X277533D01*
Y339629D01*
X277456D01*
Y339475D01*
X277379D01*
Y339322D01*
X277302D01*
Y339169D01*
X277226D01*
Y339092D01*
X277149D01*
Y338938D01*
X277072D01*
Y338785D01*
X276995D01*
Y338631D01*
X276919D01*
Y338478D01*
X276842D01*
Y338324D01*
X276765D01*
Y338171D01*
X276688D01*
Y338017D01*
X276612D01*
Y337864D01*
X276535D01*
Y337710D01*
X276458D01*
Y337557D01*
X276381D01*
Y337403D01*
X276305D01*
Y337250D01*
X276228D01*
Y337096D01*
X276151D01*
Y336943D01*
X276075D01*
Y336789D01*
X275998D01*
Y336636D01*
X275921D01*
Y336482D01*
X275844D01*
Y336329D01*
X275767D01*
Y336175D01*
X275691D01*
Y336022D01*
X275614D01*
Y335868D01*
X275537D01*
Y335715D01*
X275460D01*
Y335561D01*
X275384D01*
Y335408D01*
X275307D01*
Y335254D01*
X275230D01*
Y335101D01*
X275154D01*
Y334947D01*
X275077D01*
Y334794D01*
X275000D01*
Y334717D01*
X274923D01*
Y334564D01*
X274846D01*
Y334410D01*
X274770D01*
Y334257D01*
X274693D01*
Y334103D01*
X274616D01*
Y333950D01*
X274540D01*
Y333796D01*
X274463D01*
Y333643D01*
X274386D01*
Y333489D01*
X274309D01*
Y333336D01*
X274233D01*
Y333182D01*
X274156D01*
Y333029D01*
X274079D01*
Y332875D01*
X274002D01*
Y332722D01*
X273925D01*
Y332568D01*
X273849D01*
Y332415D01*
X273772D01*
Y332261D01*
X273695D01*
Y332108D01*
X273619D01*
Y331954D01*
X273542D01*
Y331801D01*
X273465D01*
Y331647D01*
X273388D01*
Y331494D01*
X273312D01*
Y331340D01*
X273235D01*
Y331187D01*
X273158D01*
Y331033D01*
X273081D01*
Y330880D01*
X273004D01*
Y330726D01*
X272928D01*
Y330573D01*
X272851D01*
Y330419D01*
X272774D01*
Y330342D01*
X272698D01*
Y330189D01*
X272621D01*
Y330036D01*
X272544D01*
Y329882D01*
X272467D01*
Y329729D01*
X272391D01*
Y329575D01*
X272314D01*
Y329422D01*
X272237D01*
Y329268D01*
X272160D01*
Y329114D01*
X272084D01*
Y328961D01*
X272007D01*
Y328807D01*
X271930D01*
Y328654D01*
X271853D01*
Y328501D01*
X271777D01*
Y328347D01*
X271700D01*
Y328194D01*
X271623D01*
Y328040D01*
X271546D01*
Y327887D01*
X271470D01*
Y327810D01*
X281754D01*
Y339552D01*
Y339629D01*
Y347918D01*
D02*
G37*
G36*
X293343Y348301D02*
X293036D01*
Y336099D01*
Y336022D01*
Y320212D01*
X281754D01*
Y325200D01*
X271623D01*
Y324893D01*
X271700D01*
Y324663D01*
X271777D01*
Y324433D01*
X271853D01*
Y324203D01*
X271930D01*
Y324049D01*
X272007D01*
Y323819D01*
X272084D01*
Y323589D01*
X272160D01*
Y323358D01*
X272237D01*
Y323128D01*
X272314D01*
Y322975D01*
X272391D01*
Y322744D01*
X272467D01*
Y322514D01*
X272544D01*
Y322361D01*
X272621D01*
Y322131D01*
X272698D01*
Y321977D01*
X272774D01*
Y321824D01*
X272851D01*
Y321670D01*
X272928D01*
Y321440D01*
X273004D01*
Y321286D01*
X273081D01*
Y321133D01*
X273158D01*
Y320979D01*
X273235D01*
Y320749D01*
X273312D01*
Y320596D01*
X273388D01*
Y320442D01*
X273465D01*
Y320212D01*
X273542D01*
Y320058D01*
X273619D01*
Y319828D01*
X273695D01*
Y319675D01*
X273772D01*
Y319521D01*
X273849D01*
Y319291D01*
X273925D01*
Y319137D01*
X274002D01*
Y318984D01*
X274079D01*
Y318754D01*
X274156D01*
Y318600D01*
X274233D01*
Y318447D01*
X274309D01*
Y318293D01*
X274386D01*
Y318063D01*
X274463D01*
Y317909D01*
X274540D01*
Y317756D01*
X274616D01*
Y317602D01*
X274693D01*
Y317372D01*
X274770D01*
Y317219D01*
X274846D01*
Y317065D01*
X274923D01*
Y316912D01*
X275000D01*
Y316758D01*
X275077D01*
Y316605D01*
X275154D01*
Y316374D01*
X275230D01*
Y316221D01*
X275307D01*
Y316068D01*
X275384D01*
Y315914D01*
X275460D01*
Y315760D01*
X275537D01*
Y315607D01*
X275614D01*
Y315453D01*
X275691D01*
Y315300D01*
X275767D01*
Y315147D01*
X275844D01*
Y314993D01*
X275921D01*
Y314839D01*
X275998D01*
Y314686D01*
X276075D01*
Y314533D01*
X276151D01*
Y314379D01*
X276228D01*
Y314226D01*
X276305D01*
Y314072D01*
X276381D01*
Y313918D01*
X276458D01*
Y313765D01*
X276535D01*
Y313688D01*
X276612D01*
Y313535D01*
X276688D01*
Y313381D01*
X276765D01*
Y313228D01*
X276842D01*
Y313074D01*
X276919D01*
Y312921D01*
X276995D01*
Y312844D01*
X277072D01*
Y312691D01*
X277149D01*
Y312537D01*
X277226D01*
Y312384D01*
X277302D01*
Y312230D01*
X277379D01*
Y312153D01*
X277456D01*
Y312000D01*
X277533D01*
Y311846D01*
X277609D01*
Y311770D01*
X277686D01*
Y311616D01*
X277763D01*
Y311463D01*
X277840D01*
Y311386D01*
X277916D01*
Y311232D01*
X277993D01*
Y311079D01*
X278070D01*
Y311002D01*
X278147D01*
Y310849D01*
X278223D01*
Y310772D01*
X278300D01*
Y310618D01*
X278377D01*
Y310542D01*
X278454D01*
Y310388D01*
X278530D01*
Y310311D01*
X278607D01*
Y310158D01*
X278684D01*
Y310081D01*
X278761D01*
Y309928D01*
X278837D01*
Y309851D01*
X278914D01*
Y309697D01*
X278991D01*
Y309621D01*
X279068D01*
Y309544D01*
X279144D01*
Y309390D01*
X279221D01*
Y309314D01*
X279298D01*
Y309237D01*
X279375D01*
Y309083D01*
X279451D01*
Y309007D01*
X279528D01*
Y308930D01*
X279605D01*
Y308776D01*
X279682D01*
Y308700D01*
X279758D01*
Y308623D01*
X279835D01*
Y308546D01*
X279912D01*
Y308393D01*
X279989D01*
Y308316D01*
X280065D01*
Y308239D01*
X280142D01*
Y308162D01*
X280219D01*
Y308086D01*
X280296D01*
Y308009D01*
X280372D01*
Y307855D01*
X280449D01*
Y307779D01*
X280526D01*
Y307702D01*
X280602D01*
Y307625D01*
X280679D01*
Y307549D01*
X280756D01*
Y307472D01*
X280833D01*
Y307395D01*
X280910D01*
Y307318D01*
X280986D01*
Y307241D01*
X281063D01*
Y307165D01*
X281140D01*
Y307088D01*
X281217D01*
Y307011D01*
X281293D01*
Y306935D01*
X281370D01*
Y306858D01*
X281447D01*
Y306781D01*
X281523D01*
Y306704D01*
X281600D01*
Y306628D01*
X281677D01*
Y306551D01*
X281754D01*
Y306474D01*
X281831D01*
Y306397D01*
X281984D01*
Y306320D01*
X282061D01*
Y306244D01*
X282138D01*
Y306167D01*
X282214D01*
Y306090D01*
X282291D01*
Y306014D01*
X282444D01*
Y305937D01*
X282521D01*
Y305860D01*
X282598D01*
Y305783D01*
X282752D01*
Y305707D01*
X282905D01*
Y305630D01*
X283058D01*
Y305553D01*
X283135D01*
Y305476D01*
X283289D01*
Y305400D01*
X283442D01*
Y305323D01*
X283596D01*
Y305246D01*
X283826D01*
Y305169D01*
X283979D01*
Y305093D01*
X284210D01*
Y305016D01*
X284363D01*
Y304939D01*
X284593D01*
Y304862D01*
X284824D01*
Y304786D01*
X285054D01*
Y304709D01*
X285361D01*
Y304632D01*
X285668D01*
Y304555D01*
X285975D01*
Y304479D01*
X286359D01*
Y304402D01*
X286742D01*
Y304325D01*
X287280D01*
Y304248D01*
X288124D01*
Y304172D01*
X290426D01*
Y304248D01*
X291424D01*
Y304325D01*
X292115D01*
Y304402D01*
X292652D01*
Y304479D01*
X293112D01*
Y304555D01*
X293573D01*
Y304632D01*
X293957D01*
Y304709D01*
X294264D01*
Y304786D01*
X294571D01*
Y304862D01*
X294878D01*
Y304939D01*
X295185D01*
Y305016D01*
X295415D01*
Y305093D01*
X295645D01*
Y305169D01*
X295875D01*
Y305246D01*
X296106D01*
Y305323D01*
X296336D01*
Y305400D01*
X296489D01*
Y305476D01*
X296719D01*
Y305553D01*
X296873D01*
Y305630D01*
X297027D01*
Y305707D01*
X297180D01*
Y347073D01*
X297103D01*
Y347150D01*
X296873D01*
Y347227D01*
X296643D01*
Y347304D01*
X296413D01*
Y347380D01*
X296106D01*
Y347457D01*
X295875D01*
Y347534D01*
X295645D01*
Y347611D01*
X295415D01*
Y347687D01*
X295108D01*
Y347764D01*
X294878D01*
Y347841D01*
X294647D01*
Y347918D01*
X294340D01*
Y347994D01*
X294110D01*
Y348071D01*
X293803D01*
Y348148D01*
X293573D01*
Y348225D01*
X293343D01*
Y348301D01*
D02*
G37*
G36*
X308385Y342852D02*
X308308D01*
Y310542D01*
X308385D01*
Y310618D01*
X308462D01*
Y310695D01*
X308539D01*
Y310772D01*
X308615D01*
Y310849D01*
X308769D01*
Y310925D01*
X308846D01*
Y311002D01*
X308922D01*
Y311079D01*
X308999D01*
Y311156D01*
X309153D01*
Y311232D01*
X309229D01*
Y311309D01*
X309306D01*
Y311386D01*
X309383D01*
Y311463D01*
X309460D01*
Y311539D01*
X309613D01*
Y311616D01*
X309690D01*
Y311693D01*
X309767D01*
Y311770D01*
X309843D01*
Y311846D01*
X309997D01*
Y311923D01*
X310074D01*
Y312000D01*
X310150D01*
Y312077D01*
X310227D01*
Y312153D01*
X310304D01*
Y312230D01*
X310381D01*
Y312307D01*
X310534D01*
Y312384D01*
X310611D01*
Y312460D01*
X310688D01*
Y312537D01*
X310764D01*
Y312614D01*
X310841D01*
Y312691D01*
X310918D01*
Y312767D01*
X310995D01*
Y312844D01*
X311071D01*
Y312921D01*
X311148D01*
Y312997D01*
X311225D01*
Y313074D01*
X311301D01*
Y313151D01*
X311378D01*
Y313228D01*
X311455D01*
Y313305D01*
X311532D01*
Y313381D01*
X311609D01*
Y313458D01*
X311685D01*
Y313535D01*
X311762D01*
Y313612D01*
X311839D01*
Y313688D01*
X311915D01*
Y313765D01*
X311992D01*
Y313918D01*
X312069D01*
Y313995D01*
X312146D01*
Y314072D01*
X312222D01*
Y314149D01*
X312299D01*
Y314226D01*
X312376D01*
Y314302D01*
X312453D01*
Y314456D01*
X312530D01*
Y314533D01*
X312606D01*
Y314609D01*
X312683D01*
Y314763D01*
X312760D01*
Y314839D01*
X312836D01*
Y314916D01*
X312913D01*
Y315070D01*
X312990D01*
Y315147D01*
X313067D01*
Y315223D01*
X313144D01*
Y315377D01*
X313220D01*
Y315453D01*
X313297D01*
Y315607D01*
X313374D01*
Y315684D01*
X313451D01*
Y315837D01*
X313527D01*
Y315991D01*
X313604D01*
Y316068D01*
X313681D01*
Y316221D01*
X313757D01*
Y316374D01*
X313834D01*
Y316528D01*
X313911D01*
Y316605D01*
X313988D01*
Y316758D01*
X314064D01*
Y316912D01*
X314141D01*
Y317065D01*
X314218D01*
Y317295D01*
X314295D01*
Y317449D01*
X314371D01*
Y317602D01*
X314448D01*
Y317833D01*
X314525D01*
Y317986D01*
X314602D01*
Y318140D01*
X314678D01*
Y318370D01*
X314755D01*
Y318523D01*
X314832D01*
Y318754D01*
X314909D01*
Y318907D01*
X314985D01*
Y319137D01*
X315062D01*
Y319291D01*
X315139D01*
Y319521D01*
X315216D01*
Y319751D01*
X315292D01*
Y319982D01*
X315369D01*
Y320212D01*
X315446D01*
Y320442D01*
X315523D01*
Y320672D01*
X315599D01*
Y320903D01*
X315676D01*
Y321209D01*
X315753D01*
Y321440D01*
X315830D01*
Y321747D01*
X315906D01*
Y321977D01*
X315983D01*
Y322284D01*
X316060D01*
Y322591D01*
X316137D01*
Y322898D01*
X316213D01*
Y323282D01*
X316290D01*
Y323742D01*
X316367D01*
Y324279D01*
X316444D01*
Y325124D01*
X316520D01*
Y326121D01*
X316597D01*
Y328807D01*
X316520D01*
Y329575D01*
X316444D01*
Y330036D01*
X316367D01*
Y330419D01*
X316290D01*
Y330803D01*
X316213D01*
Y331110D01*
X316137D01*
Y331417D01*
X316060D01*
Y331724D01*
X315983D01*
Y331954D01*
X315906D01*
Y332261D01*
X315830D01*
Y332491D01*
X315753D01*
Y332722D01*
X315676D01*
Y332952D01*
X315599D01*
Y333182D01*
X315523D01*
Y333412D01*
X315446D01*
Y333566D01*
X315369D01*
Y333796D01*
X315292D01*
Y334026D01*
X315216D01*
Y334257D01*
X315139D01*
Y334410D01*
X315062D01*
Y334640D01*
X314985D01*
Y334794D01*
X314909D01*
Y335024D01*
X314832D01*
Y335178D01*
X314755D01*
Y335331D01*
X314678D01*
Y335485D01*
X314602D01*
Y335715D01*
X314525D01*
Y335868D01*
X314448D01*
Y336022D01*
X314371D01*
Y336175D01*
X314295D01*
Y336329D01*
X314218D01*
Y336482D01*
X314141D01*
Y336636D01*
X314064D01*
Y336789D01*
X313988D01*
Y336866D01*
X313911D01*
Y337020D01*
X313834D01*
Y337173D01*
X313757D01*
Y337327D01*
X313681D01*
Y337480D01*
X313604D01*
Y337557D01*
X313527D01*
Y337710D01*
X313451D01*
Y337864D01*
X313374D01*
Y337940D01*
X313297D01*
Y338094D01*
X313220D01*
Y338171D01*
X313144D01*
Y338324D01*
X313067D01*
Y338401D01*
X312990D01*
Y338554D01*
X312913D01*
Y338631D01*
X312836D01*
Y338708D01*
X312760D01*
Y338862D01*
X312683D01*
Y338938D01*
X312606D01*
Y339015D01*
X312530D01*
Y339092D01*
X312453D01*
Y339245D01*
X312376D01*
Y339322D01*
X312299D01*
Y339399D01*
X312222D01*
Y339475D01*
X312146D01*
Y339552D01*
X312069D01*
Y339629D01*
X311992D01*
Y339782D01*
X311915D01*
Y339859D01*
X311839D01*
Y339936D01*
X311762D01*
Y340013D01*
X311685D01*
Y340089D01*
X311609D01*
Y340166D01*
X311532D01*
Y340243D01*
X311455D01*
Y340320D01*
X311378D01*
Y340396D01*
X311301D01*
Y340473D01*
X311225D01*
Y340550D01*
X311148D01*
Y340627D01*
X311071D01*
Y340703D01*
X310995D01*
Y340780D01*
X310918D01*
Y340857D01*
X310841D01*
Y340934D01*
X310764D01*
Y341010D01*
X310688D01*
Y341087D01*
X310611D01*
Y341164D01*
X310457D01*
Y341241D01*
X310381D01*
Y341317D01*
X310304D01*
Y341394D01*
X310227D01*
Y341471D01*
X310150D01*
Y341548D01*
X310074D01*
Y341624D01*
X309997D01*
Y341701D01*
X309920D01*
Y341778D01*
X309843D01*
Y341855D01*
X309767D01*
Y341931D01*
X309690D01*
Y342008D01*
X309536D01*
Y342085D01*
X309460D01*
Y342162D01*
X309383D01*
Y342238D01*
X309306D01*
Y342315D01*
X309153D01*
Y342392D01*
X309076D01*
Y342469D01*
X308922D01*
Y342545D01*
X308769D01*
Y342622D01*
X308692D01*
Y342699D01*
X308539D01*
Y342776D01*
X308385D01*
Y342852D01*
D02*
G37*
G36*
X283289Y354365D02*
X282828D01*
Y354288D01*
X283135D01*
Y354211D01*
X283442D01*
Y354134D01*
X283749D01*
Y354058D01*
X284056D01*
Y353981D01*
X284286D01*
Y353904D01*
X284593D01*
Y353827D01*
X284824D01*
Y353750D01*
X285054D01*
Y353674D01*
X285361D01*
Y353597D01*
X285668D01*
Y353520D01*
X285898D01*
Y353443D01*
X286205D01*
Y353367D01*
X286435D01*
Y353290D01*
X286742D01*
Y353213D01*
X287049D01*
Y353136D01*
X287280D01*
Y353060D01*
X287587D01*
Y352983D01*
X287817D01*
Y352906D01*
X288124D01*
Y352830D01*
X288354D01*
Y352753D01*
X288661D01*
Y352676D01*
X288891D01*
Y352599D01*
X289121D01*
Y352523D01*
X289429D01*
Y352446D01*
X289659D01*
Y352369D01*
X289889D01*
Y352292D01*
X290119D01*
Y352215D01*
X290350D01*
Y352139D01*
X290657D01*
Y352062D01*
X290887D01*
Y351985D01*
X291117D01*
Y351908D01*
X291347D01*
Y351832D01*
X291577D01*
Y351755D01*
X291808D01*
Y351678D01*
X292038D01*
Y351602D01*
X292345D01*
Y351525D01*
X292575D01*
Y351448D01*
X292805D01*
Y351371D01*
X293036D01*
Y351295D01*
X293266D01*
Y351218D01*
X293573D01*
Y351141D01*
X293803D01*
Y351064D01*
X294033D01*
Y350988D01*
X294264D01*
Y350911D01*
X294494D01*
Y350834D01*
X294724D01*
Y350757D01*
X294954D01*
Y350681D01*
X295185D01*
Y350604D01*
X295415D01*
Y350527D01*
X295645D01*
Y350450D01*
X295875D01*
Y350374D01*
X296106D01*
Y350297D01*
X296336D01*
Y350220D01*
X296489D01*
Y350143D01*
X296719D01*
Y350067D01*
X296950D01*
Y349990D01*
X297180D01*
Y349913D01*
X297410D01*
Y349836D01*
X297640D01*
Y349760D01*
X297871D01*
Y349683D01*
X298024D01*
Y349606D01*
X298255D01*
Y349529D01*
X298485D01*
Y349453D01*
X298715D01*
Y349376D01*
X298945D01*
Y349299D01*
X299099D01*
Y349222D01*
X299329D01*
Y349146D01*
X299559D01*
Y349069D01*
X299789D01*
Y348992D01*
X300020D01*
Y348915D01*
X300173D01*
Y348839D01*
X300403D01*
Y348762D01*
X300634D01*
Y348685D01*
X300864D01*
Y348608D01*
X301017D01*
Y348532D01*
X301248D01*
Y348455D01*
X301478D01*
Y348378D01*
X301708D01*
Y348301D01*
X301938D01*
Y348225D01*
X302169D01*
Y348148D01*
X302322D01*
Y348071D01*
X302552D01*
Y347994D01*
X302783D01*
Y347918D01*
X303013D01*
Y347841D01*
X303166D01*
Y347764D01*
X303396D01*
Y347687D01*
X303627D01*
Y347611D01*
X303780D01*
Y347534D01*
X304011D01*
Y347457D01*
X304164D01*
Y347380D01*
X304394D01*
Y347304D01*
X304548D01*
Y347227D01*
X304778D01*
Y347150D01*
X304932D01*
Y347073D01*
X305162D01*
Y346997D01*
X305315D01*
Y346920D01*
X305546D01*
Y346843D01*
X305699D01*
Y346767D01*
X305853D01*
Y346690D01*
X306006D01*
Y346613D01*
X306236D01*
Y346536D01*
X306390D01*
Y346460D01*
X306543D01*
Y346383D01*
X306773D01*
Y346306D01*
X306927D01*
Y346229D01*
X307080D01*
Y346152D01*
X307234D01*
Y346076D01*
X307464D01*
Y345999D01*
X307618D01*
Y345922D01*
X307771D01*
Y345845D01*
X307925D01*
Y345769D01*
X308155D01*
Y345692D01*
X308308D01*
Y345615D01*
X308462D01*
Y345538D01*
X308615D01*
Y345462D01*
X308846D01*
Y345385D01*
X308999D01*
Y345308D01*
X309153D01*
Y345232D01*
X309306D01*
Y345155D01*
X309460D01*
Y345078D01*
X309613D01*
Y345001D01*
X309767D01*
Y344925D01*
X309920D01*
Y344848D01*
X310074D01*
Y344771D01*
X310304D01*
Y344694D01*
X310457D01*
Y344618D01*
X310611D01*
Y344541D01*
X310764D01*
Y344464D01*
X310918D01*
Y344387D01*
X310995D01*
Y344310D01*
X311148D01*
Y344234D01*
X311301D01*
Y344157D01*
X311455D01*
Y344080D01*
X311609D01*
Y344004D01*
X311762D01*
Y343927D01*
X311839D01*
Y343850D01*
X311992D01*
Y343773D01*
X312146D01*
Y343697D01*
X312299D01*
Y343620D01*
X312376D01*
Y343543D01*
X312530D01*
Y343466D01*
X312683D01*
Y343390D01*
X312836D01*
Y343313D01*
X312990D01*
Y343236D01*
X313067D01*
Y343159D01*
X313220D01*
Y343083D01*
X313374D01*
Y343006D01*
X313527D01*
Y342929D01*
X313604D01*
Y342852D01*
X313757D01*
Y342776D01*
X313911D01*
Y342699D01*
X313988D01*
Y342622D01*
X314141D01*
Y342545D01*
X314295D01*
Y342469D01*
X314448D01*
Y342392D01*
X314525D01*
Y342315D01*
X314678D01*
Y342238D01*
X314755D01*
Y342162D01*
X314909D01*
Y342085D01*
X315062D01*
Y342008D01*
X315139D01*
Y341931D01*
X315292D01*
Y341855D01*
X315446D01*
Y341778D01*
X315523D01*
Y341701D01*
X315676D01*
Y341624D01*
X315753D01*
Y341548D01*
X315906D01*
Y341471D01*
X315983D01*
Y341394D01*
X316137D01*
Y341317D01*
X316213D01*
Y341241D01*
X316367D01*
Y341164D01*
X316520D01*
Y341087D01*
X316597D01*
Y341010D01*
X316674D01*
Y340934D01*
X316827D01*
Y340857D01*
X316904D01*
Y340780D01*
X317058D01*
Y340703D01*
X317134D01*
Y340627D01*
X317288D01*
Y340550D01*
X317365D01*
Y340473D01*
X317518D01*
Y340396D01*
X317595D01*
Y340320D01*
X317748D01*
Y340243D01*
X317825D01*
Y340166D01*
X317902D01*
Y340089D01*
X318055D01*
Y340013D01*
X318132D01*
Y339936D01*
X318209D01*
Y339859D01*
X318286D01*
Y339782D01*
X318439D01*
Y339706D01*
X318516D01*
Y339629D01*
X318593D01*
Y339552D01*
X318669D01*
Y339475D01*
X318746D01*
Y339399D01*
X318899D01*
Y339322D01*
X318976D01*
Y339245D01*
X319053D01*
Y339169D01*
X319130D01*
Y339092D01*
X319207D01*
Y339015D01*
X319283D01*
Y338938D01*
X319360D01*
Y338862D01*
X319437D01*
Y338785D01*
X319513D01*
Y338708D01*
X319590D01*
Y338631D01*
X319744D01*
Y338554D01*
X319820D01*
Y338478D01*
X319897D01*
Y338401D01*
X319974D01*
Y338324D01*
X320051D01*
Y338247D01*
X320127D01*
Y338171D01*
X320204D01*
Y338094D01*
X320281D01*
Y338017D01*
X320358D01*
Y337940D01*
X320434D01*
Y337864D01*
X320511D01*
Y337787D01*
X320588D01*
Y337710D01*
X320665D01*
Y337634D01*
X320742D01*
Y337557D01*
X320818D01*
Y337480D01*
X320895D01*
Y337403D01*
X320972D01*
Y337327D01*
X321049D01*
Y337250D01*
X321125D01*
Y337173D01*
X321202D01*
Y337096D01*
X321279D01*
Y337020D01*
X321356D01*
Y336943D01*
X321432D01*
Y336866D01*
X321509D01*
Y336789D01*
X321586D01*
Y336712D01*
X321662D01*
Y336636D01*
X321739D01*
Y336482D01*
X321816D01*
Y336406D01*
X321893D01*
Y336329D01*
X321969D01*
Y336252D01*
X322046D01*
Y336175D01*
X322123D01*
Y336099D01*
X322200D01*
Y336022D01*
X322276D01*
Y335868D01*
X322353D01*
Y335792D01*
X322430D01*
Y335715D01*
X322507D01*
Y335638D01*
X322583D01*
Y335561D01*
X322660D01*
Y335408D01*
X322737D01*
Y335331D01*
X322814D01*
Y335254D01*
X322890D01*
Y335101D01*
X322967D01*
Y335024D01*
X323044D01*
Y334947D01*
X323121D01*
Y334871D01*
X323197D01*
Y334717D01*
X323274D01*
Y334640D01*
X323351D01*
Y334564D01*
X323428D01*
Y334410D01*
X323504D01*
Y334333D01*
X323581D01*
Y334180D01*
X323658D01*
Y334103D01*
X323735D01*
Y334026D01*
X323811D01*
Y333873D01*
X323888D01*
Y333719D01*
X323965D01*
Y333643D01*
X324042D01*
Y333489D01*
X324118D01*
Y333336D01*
X324195D01*
Y333259D01*
X324272D01*
Y333105D01*
X324349D01*
Y332952D01*
X324425D01*
Y332798D01*
X324502D01*
Y332645D01*
X324579D01*
Y332491D01*
X324656D01*
Y332338D01*
X324732D01*
Y332184D01*
X324809D01*
Y332031D01*
X324886D01*
Y331801D01*
X324963D01*
Y331571D01*
X325039D01*
Y331340D01*
X325116D01*
Y331110D01*
X325193D01*
Y330803D01*
X325270D01*
Y330496D01*
X325346D01*
Y330112D01*
X325423D01*
Y329729D01*
X325500D01*
Y329345D01*
X325577D01*
Y329038D01*
X325653D01*
Y328501D01*
X325730D01*
Y326582D01*
X325653D01*
Y326045D01*
X325577D01*
Y325507D01*
X325500D01*
Y325047D01*
X325423D01*
Y324663D01*
X325346D01*
Y324356D01*
X325270D01*
Y324126D01*
X325193D01*
Y323896D01*
X325116D01*
Y323666D01*
X325039D01*
Y323358D01*
X324963D01*
Y323128D01*
X324886D01*
Y322975D01*
X324809D01*
Y322744D01*
X324732D01*
Y322514D01*
X324656D01*
Y322361D01*
X324579D01*
Y322131D01*
X324502D01*
Y321977D01*
X324425D01*
Y321824D01*
X324349D01*
Y321670D01*
X324272D01*
Y321440D01*
X324195D01*
Y321286D01*
X324118D01*
Y321133D01*
X324042D01*
Y320979D01*
X323965D01*
Y320826D01*
X323888D01*
Y320672D01*
X323811D01*
Y320519D01*
X323735D01*
Y320365D01*
X323658D01*
Y320212D01*
X323581D01*
Y320058D01*
X323504D01*
Y319905D01*
X323428D01*
Y319751D01*
X323351D01*
Y319675D01*
X323274D01*
Y319521D01*
X323197D01*
Y319368D01*
X323121D01*
Y319214D01*
X323044D01*
Y319137D01*
X322967D01*
Y318984D01*
X322890D01*
Y318907D01*
X322814D01*
Y318754D01*
X322737D01*
Y318677D01*
X322660D01*
Y318523D01*
X322583D01*
Y318447D01*
X322507D01*
Y318293D01*
X322430D01*
Y318216D01*
X322353D01*
Y318063D01*
X322276D01*
Y317986D01*
X322200D01*
Y317833D01*
X322123D01*
Y317756D01*
X322046D01*
Y317679D01*
X321969D01*
Y317526D01*
X321893D01*
Y317449D01*
X321816D01*
Y317372D01*
X321739D01*
Y317295D01*
X321662D01*
Y317142D01*
X321586D01*
Y317065D01*
X321509D01*
Y316988D01*
X321432D01*
Y316912D01*
X321356D01*
Y316835D01*
X321279D01*
Y316681D01*
X321202D01*
Y316605D01*
X321125D01*
Y316528D01*
X321049D01*
Y316451D01*
X320972D01*
Y316374D01*
X320895D01*
Y316298D01*
X320818D01*
Y316144D01*
X320742D01*
Y316068D01*
X320665D01*
Y315991D01*
X320588D01*
Y315914D01*
X320511D01*
Y315837D01*
X320434D01*
Y315760D01*
X320358D01*
Y315607D01*
X320281D01*
Y315530D01*
X320204D01*
Y315453D01*
X320127D01*
Y315377D01*
X320051D01*
Y315300D01*
X319974D01*
Y315223D01*
X319897D01*
Y315147D01*
X319820D01*
Y314993D01*
X319744D01*
Y314916D01*
X319667D01*
Y314839D01*
X319590D01*
Y314763D01*
X319513D01*
Y314686D01*
X319437D01*
Y314609D01*
X319360D01*
Y314533D01*
X319283D01*
Y314456D01*
X319207D01*
Y314379D01*
X319130D01*
Y314302D01*
X319053D01*
Y314226D01*
X318976D01*
Y314072D01*
X318899D01*
Y313995D01*
X318823D01*
Y313918D01*
X318746D01*
Y313842D01*
X318669D01*
Y313765D01*
X318593D01*
Y313688D01*
X318516D01*
Y313612D01*
X318439D01*
Y313535D01*
X318362D01*
Y313458D01*
X318286D01*
Y313381D01*
X318132D01*
Y313305D01*
X318055D01*
Y313228D01*
X317979D01*
Y313151D01*
X317902D01*
Y313074D01*
X317825D01*
Y312997D01*
X317672D01*
Y312921D01*
X317595D01*
Y312844D01*
X317518D01*
Y312767D01*
X317441D01*
Y312691D01*
X317365D01*
Y312614D01*
X317211D01*
Y312537D01*
X317134D01*
Y312460D01*
X317058D01*
Y312384D01*
X316904D01*
Y312307D01*
X316827D01*
Y312230D01*
X316751D01*
Y312153D01*
X316597D01*
Y312077D01*
X316520D01*
Y312000D01*
X316444D01*
Y311923D01*
X316290D01*
Y311846D01*
X316213D01*
Y311770D01*
X316137D01*
Y311693D01*
X315983D01*
Y311616D01*
X315906D01*
Y311539D01*
X315753D01*
Y311463D01*
X315676D01*
Y311386D01*
X315599D01*
Y311309D01*
X315446D01*
Y311232D01*
X315369D01*
Y311156D01*
X315216D01*
Y311079D01*
X315139D01*
Y311002D01*
X315062D01*
Y310925D01*
X314909D01*
Y310849D01*
X314832D01*
Y310772D01*
X314678D01*
Y310695D01*
X314602D01*
Y310618D01*
X314525D01*
Y310542D01*
X314371D01*
Y310465D01*
X314295D01*
Y310388D01*
X314218D01*
Y310311D01*
X314064D01*
Y310235D01*
X313988D01*
Y310158D01*
X313911D01*
Y310081D01*
X313757D01*
Y310004D01*
X313681D01*
Y309928D01*
X313527D01*
Y309851D01*
X313451D01*
Y309774D01*
X313374D01*
Y309697D01*
X313604D01*
Y309774D01*
X313834D01*
Y309851D01*
X314064D01*
Y309928D01*
X314295D01*
Y310004D01*
X314448D01*
Y310081D01*
X314678D01*
Y310158D01*
X314909D01*
Y310235D01*
X315139D01*
Y310311D01*
X315369D01*
Y310388D01*
X315523D01*
Y310465D01*
X315753D01*
Y310542D01*
X315983D01*
Y310618D01*
X316213D01*
Y310695D01*
X316444D01*
Y310772D01*
X316597D01*
Y310849D01*
X316827D01*
Y310925D01*
X317058D01*
Y311002D01*
X317288D01*
Y311079D01*
X317441D01*
Y311156D01*
X317672D01*
Y311232D01*
X317902D01*
Y311309D01*
X318055D01*
Y311386D01*
X318286D01*
Y311463D01*
X318439D01*
Y311539D01*
X318669D01*
Y311616D01*
X318823D01*
Y311693D01*
X318976D01*
Y311770D01*
X319207D01*
Y311846D01*
X319360D01*
Y311923D01*
X319513D01*
Y312000D01*
X319667D01*
Y312077D01*
X319897D01*
Y312153D01*
X320051D01*
Y312230D01*
X320204D01*
Y312307D01*
X320358D01*
Y312384D01*
X320511D01*
Y312460D01*
X320665D01*
Y312537D01*
X320818D01*
Y312614D01*
X320972D01*
Y312691D01*
X321202D01*
Y312767D01*
X321356D01*
Y312844D01*
X321509D01*
Y312921D01*
X321662D01*
Y312997D01*
X321816D01*
Y313074D01*
X321969D01*
Y313151D01*
X322123D01*
Y313228D01*
X322276D01*
Y313305D01*
X322430D01*
Y313381D01*
X322583D01*
Y313458D01*
X322737D01*
Y313535D01*
X322890D01*
Y313612D01*
X323044D01*
Y313688D01*
X323197D01*
Y313765D01*
X323351D01*
Y313842D01*
X323504D01*
Y313918D01*
X323658D01*
Y313995D01*
X323811D01*
Y314072D01*
X323965D01*
Y314149D01*
X324118D01*
Y314226D01*
X324272D01*
Y314302D01*
X324425D01*
Y314379D01*
X324579D01*
Y314456D01*
X324656D01*
Y314533D01*
X324809D01*
Y314609D01*
X324963D01*
Y314686D01*
X325116D01*
Y314763D01*
X325270D01*
Y314839D01*
X325423D01*
Y314916D01*
X325577D01*
Y314993D01*
X325730D01*
Y315070D01*
X325807D01*
Y315147D01*
X325960D01*
Y315223D01*
X326114D01*
Y315300D01*
X326267D01*
Y315377D01*
X326421D01*
Y315453D01*
X326574D01*
Y315530D01*
X326651D01*
Y315607D01*
X326805D01*
Y315684D01*
X326958D01*
Y315760D01*
X327112D01*
Y315837D01*
X327265D01*
Y315914D01*
X327342D01*
Y315991D01*
X327495D01*
Y316068D01*
X327649D01*
Y316144D01*
X327802D01*
Y316221D01*
X327879D01*
Y316298D01*
X328032D01*
Y316374D01*
X328186D01*
Y316451D01*
X328263D01*
Y316528D01*
X328416D01*
Y316605D01*
X328493D01*
Y316681D01*
X328647D01*
Y316758D01*
X328800D01*
Y316835D01*
X328877D01*
Y316912D01*
X329030D01*
Y316988D01*
X329107D01*
Y317065D01*
X329260D01*
Y317142D01*
X329337D01*
Y317219D01*
X329491D01*
Y317295D01*
X329567D01*
Y317372D01*
X329721D01*
Y317449D01*
X329798D01*
Y317526D01*
X329951D01*
Y317602D01*
X330028D01*
Y317679D01*
X330181D01*
Y317756D01*
X330258D01*
Y317833D01*
X330335D01*
Y317909D01*
X330488D01*
Y317986D01*
X330565D01*
Y318063D01*
X330719D01*
Y318140D01*
X330795D01*
Y318216D01*
X330872D01*
Y318293D01*
X331026D01*
Y318370D01*
X331102D01*
Y318447D01*
X331256D01*
Y318523D01*
X331333D01*
Y318600D01*
X331409D01*
Y318677D01*
X331563D01*
Y318754D01*
X331640D01*
Y318830D01*
X331716D01*
Y318907D01*
X331870D01*
Y318984D01*
X331947D01*
Y319061D01*
X332023D01*
Y319137D01*
X332177D01*
Y319214D01*
X332254D01*
Y319291D01*
X332407D01*
Y319368D01*
X332484D01*
Y319444D01*
X332561D01*
Y319521D01*
X332714D01*
Y319598D01*
X332791D01*
Y319675D01*
X332868D01*
Y319751D01*
X333021D01*
Y319828D01*
X333098D01*
Y319905D01*
X333251D01*
Y319982D01*
X333328D01*
Y320058D01*
X333405D01*
Y320135D01*
X333482D01*
Y320212D01*
X333635D01*
Y320289D01*
X333712D01*
Y320365D01*
X333789D01*
Y320442D01*
X333865D01*
Y320519D01*
X333942D01*
Y320596D01*
X334095D01*
Y320672D01*
X334172D01*
Y320749D01*
X334249D01*
Y320826D01*
X334326D01*
Y320903D01*
X334403D01*
Y320979D01*
X334479D01*
Y321056D01*
X334556D01*
Y321133D01*
X334633D01*
Y321209D01*
X334710D01*
Y321286D01*
X334863D01*
Y321363D01*
X334940D01*
Y321440D01*
X335017D01*
Y321516D01*
X335093D01*
Y321593D01*
X335170D01*
Y321670D01*
X335247D01*
Y321747D01*
X335323D01*
Y321824D01*
X335400D01*
Y321900D01*
X335477D01*
Y321977D01*
X335554D01*
Y322054D01*
X335630D01*
Y322131D01*
X335707D01*
Y322207D01*
X335784D01*
Y322284D01*
X335861D01*
Y322361D01*
X335938D01*
Y322438D01*
X336014D01*
Y322514D01*
X336091D01*
Y322591D01*
X336168D01*
Y322668D01*
X336245D01*
Y322744D01*
X336321D01*
Y322821D01*
X336398D01*
Y322898D01*
X336475D01*
Y322975D01*
X336552D01*
Y323128D01*
X336628D01*
Y323205D01*
X336705D01*
Y323282D01*
X336782D01*
Y323358D01*
X336858D01*
Y323435D01*
X336935D01*
Y323512D01*
X337012D01*
Y323589D01*
X337089D01*
Y323666D01*
X337165D01*
Y323819D01*
X337242D01*
Y323896D01*
X337319D01*
Y323973D01*
X337396D01*
Y324049D01*
X337472D01*
Y324203D01*
X337549D01*
Y324279D01*
X337626D01*
Y324356D01*
X337703D01*
Y324510D01*
X337779D01*
Y324586D01*
X337856D01*
Y324663D01*
X337933D01*
Y324817D01*
X338010D01*
Y324893D01*
X338086D01*
Y325047D01*
X338163D01*
Y325124D01*
X338240D01*
Y325277D01*
X338317D01*
Y325354D01*
X338393D01*
Y325507D01*
X338470D01*
Y325584D01*
X338547D01*
Y325738D01*
X338624D01*
Y325814D01*
X338700D01*
Y325968D01*
X338777D01*
Y326045D01*
X338854D01*
Y326121D01*
X326497D01*
Y342776D01*
X326267D01*
Y342852D01*
X326114D01*
Y342929D01*
X325960D01*
Y343006D01*
X325730D01*
Y343083D01*
X325577D01*
Y343159D01*
X325346D01*
Y343236D01*
X325193D01*
Y343313D01*
X324963D01*
Y343390D01*
X324809D01*
Y343466D01*
X324656D01*
Y343543D01*
X324425D01*
Y343620D01*
X324272D01*
Y343697D01*
X324042D01*
Y343773D01*
X323888D01*
Y343850D01*
X323658D01*
Y343927D01*
X323504D01*
Y344004D01*
X323274D01*
Y344080D01*
X323121D01*
Y344157D01*
X322890D01*
Y344234D01*
X322737D01*
Y344310D01*
X322507D01*
Y344387D01*
X322353D01*
Y344464D01*
X322123D01*
Y344541D01*
X321893D01*
Y344618D01*
X321662D01*
Y344694D01*
X321432D01*
Y344771D01*
X321202D01*
Y344848D01*
X321049D01*
Y344925D01*
X320818D01*
Y345001D01*
X320588D01*
Y345078D01*
X320358D01*
Y345155D01*
X320127D01*
Y345232D01*
X319974D01*
Y345308D01*
X319744D01*
Y345385D01*
X319513D01*
Y345462D01*
X319283D01*
Y345538D01*
X319053D01*
Y345615D01*
X318899D01*
Y345692D01*
X318669D01*
Y345769D01*
X318439D01*
Y345845D01*
X318209D01*
Y345922D01*
X317979D01*
Y345999D01*
X317748D01*
Y346076D01*
X317518D01*
Y346152D01*
X317288D01*
Y346229D01*
X317058D01*
Y346306D01*
X316827D01*
Y346383D01*
X316597D01*
Y346460D01*
X316367D01*
Y346536D01*
X316137D01*
Y346613D01*
X315906D01*
Y346690D01*
X315599D01*
Y346767D01*
X315369D01*
Y346843D01*
X315139D01*
Y346920D01*
X314909D01*
Y346997D01*
X314602D01*
Y347073D01*
X314371D01*
Y347150D01*
X314141D01*
Y347227D01*
X313834D01*
Y347304D01*
X313604D01*
Y347380D01*
X313374D01*
Y347457D01*
X313067D01*
Y347534D01*
X312836D01*
Y347611D01*
X312606D01*
Y347687D01*
X312299D01*
Y347764D01*
X312069D01*
Y347841D01*
X311762D01*
Y347918D01*
X311532D01*
Y347994D01*
X311301D01*
Y348071D01*
X310995D01*
Y348148D01*
X310764D01*
Y348225D01*
X310457D01*
Y348301D01*
X310227D01*
Y348378D01*
X309920D01*
Y348455D01*
X309690D01*
Y348532D01*
X309460D01*
Y348608D01*
X309153D01*
Y348685D01*
X308922D01*
Y348762D01*
X308615D01*
Y348839D01*
X308308D01*
Y348915D01*
X308001D01*
Y348992D01*
X307771D01*
Y349069D01*
X307464D01*
Y349146D01*
X307157D01*
Y349222D01*
X306850D01*
Y349299D01*
X306620D01*
Y349376D01*
X306313D01*
Y349453D01*
X306006D01*
Y349529D01*
X305699D01*
Y349606D01*
X305469D01*
Y349683D01*
X305162D01*
Y349760D01*
X304855D01*
Y349836D01*
X304548D01*
Y349913D01*
X304317D01*
Y349990D01*
X304011D01*
Y350067D01*
X303704D01*
Y350143D01*
X303396D01*
Y350220D01*
X303090D01*
Y350297D01*
X302783D01*
Y350374D01*
X302476D01*
Y350450D01*
X302092D01*
Y350527D01*
X301785D01*
Y350604D01*
X301478D01*
Y350681D01*
X301171D01*
Y350757D01*
X300864D01*
Y350834D01*
X300557D01*
Y350911D01*
X300173D01*
Y350988D01*
X299866D01*
Y351064D01*
X299559D01*
Y351141D01*
X299252D01*
Y351218D01*
X298945D01*
Y351295D01*
X298638D01*
Y351371D01*
X298255D01*
Y351448D01*
X297948D01*
Y351525D01*
X297640D01*
Y351602D01*
X297334D01*
Y351678D01*
X296950D01*
Y351755D01*
X296643D01*
Y351832D01*
X296336D01*
Y351908D01*
X295952D01*
Y351985D01*
X295645D01*
Y352062D01*
X295261D01*
Y352139D01*
X294954D01*
Y352215D01*
X294571D01*
Y352292D01*
X294264D01*
Y352369D01*
X293880D01*
Y352446D01*
X293496D01*
Y352523D01*
X293112D01*
Y352599D01*
X292805D01*
Y352676D01*
X292268D01*
Y352753D01*
X291884D01*
Y352830D01*
X291501D01*
Y352906D01*
X291117D01*
Y352983D01*
X290733D01*
Y353060D01*
X290426D01*
Y353136D01*
X290042D01*
Y353213D01*
X289659D01*
Y353290D01*
X289275D01*
Y353367D01*
X288891D01*
Y353443D01*
X288508D01*
Y353520D01*
X288124D01*
Y353597D01*
X287740D01*
Y353674D01*
X287280D01*
Y353750D01*
X286819D01*
Y353827D01*
X286435D01*
Y353904D01*
X285975D01*
Y353981D01*
X285514D01*
Y354058D01*
X284977D01*
Y354134D01*
X284440D01*
Y354211D01*
X283903D01*
Y354288D01*
X283289D01*
Y354365D01*
D02*
G37*
G36*
X313374Y309697D02*
X313220D01*
Y309621D01*
X313374D01*
Y309697D01*
D02*
G37*
G36*
X313220Y309621D02*
X313144D01*
Y309544D01*
X313220D01*
Y309621D01*
D02*
G37*
%LPD*%
D10*
X166872Y-261390D02*
G03*
X166872Y-261390I-1250J0D01*
G01*
X-60980Y930910D02*
G03*
X-60980Y930910I-1250J0D01*
G01*
X434000Y225600D02*
G03*
X434000Y225600I-1250J0D01*
G01*
X472550Y298450D02*
G03*
X472550Y298450I-1250J0D01*
G01*
X256600Y955950D02*
G03*
X256600Y955950I-1250J0D01*
G01*
X300950Y-96500D02*
G03*
X300950Y-96500I-1250J0D01*
G01*
X143350Y-254000D02*
G03*
X143350Y-254000I-1250J0D01*
G01*
X472550Y101600D02*
G03*
X472550Y101600I-1250J0D01*
G01*
X273480Y41740D02*
G03*
X273480Y41740I-1250J0D01*
G01*
X214140Y-88950D02*
G03*
X214140Y-88950I-1250J0D01*
G01*
X250640Y-15980D02*
G03*
X250640Y-15980I-1250J0D01*
G01*
X-5820Y-114350D02*
G03*
X-5820Y-114350I-1250J0D01*
G01*
X37770Y204330D02*
G03*
X37770Y204330I-1250J0D01*
G01*
X63010Y-34550D02*
G03*
X63010Y-34550I-1250J0D01*
G01*
X-63800Y889050D02*
G03*
X-63800Y889050I-1250J0D01*
G01*
X-55850Y861800D02*
G03*
X-55850Y861800I-1250J0D01*
G01*
X324300Y850100D02*
G03*
X324300Y850100I-1250J0D01*
G01*
X349750Y861200D02*
G03*
X349750Y861200I-1250J0D01*
G01*
X281170Y955680D02*
G03*
X281170Y955680I-1250J0D01*
G01*
X325150Y-8150D02*
G03*
X325150Y-8150I-1250J0D01*
G01*
X402290Y19100D02*
G03*
X402290Y19100I-1250J0D01*
G01*
X487440Y-264630D02*
G03*
X487440Y-264630I-1250J0D01*
G01*
X-29770Y-214160D02*
G03*
X-29770Y-214160I-1250J0D01*
G01*
D11*
X292100Y-86106D02*
G03*
X292100Y-86106I-5080J0D01*
G01*
X-25400Y-204470D02*
G03*
X-25400Y-204470I-5080J0D01*
G01*
X491490Y-271780D02*
G03*
X491490Y-271780I-5080J0D01*
G01*
Y-220980D02*
G03*
X491490Y-220980I-5080J0D01*
G01*
X207010Y798830D02*
G03*
X207010Y798830I-5080J0D01*
G01*
X501650Y-139700D02*
G03*
X501650Y-139700I-5080J0D01*
G01*
X320040Y861060D02*
G03*
X320040Y861060I-5080J0D01*
G01*
X367030Y-31750D02*
G03*
X367030Y-31750I-5080J0D01*
G01*
X-59690Y824230D02*
G03*
X-59690Y824230I-5080J0D01*
G01*
X205740Y-53340D02*
G03*
X205740Y-53340I-5080J0D01*
G01*
X278130Y-91440D02*
G03*
X278130Y-91440I-5080J0D01*
G01*
X118110Y167640D02*
G03*
X118110Y167640I-5080J0D01*
G01*
X121920Y135890D02*
G03*
X121920Y135890I-5080J0D01*
G01*
X148336Y204978D02*
G03*
X148336Y204978I-5080J0D01*
G01*
X21336Y174752D02*
G03*
X21336Y174752I-5080J0D01*
G01*
X29210Y228600D02*
G03*
X29210Y228600I-5080J0D01*
G01*
X8890Y93980D02*
G03*
X8890Y93980I-5080J0D01*
G01*
X140970Y-55880D02*
G03*
X140970Y-55880I-5080J0D01*
G01*
X172720Y849630D02*
G03*
X172720Y849630I-5080J0D01*
G01*
X367030Y259080D02*
G03*
X367030Y259080I-5080J0D01*
G01*
X353060Y247904D02*
G03*
X353060Y247904I-5080J0D01*
G01*
X374650Y-62230D02*
G03*
X374650Y-62230I-5080J0D01*
G01*
X393700Y-177800D02*
G03*
X393700Y-177800I-5080J0D01*
G01*
X304800Y-173228D02*
G03*
X304800Y-173228I-5080J0D01*
G01*
X323342D02*
G03*
X323342Y-173228I-5080J0D01*
G01*
X-64770Y-171450D02*
G03*
X-64770Y-171450I-5080J0D01*
G01*
X-40640Y-180340D02*
G03*
X-40640Y-180340I-5080J0D01*
G01*
X132080Y19050D02*
G03*
X132080Y19050I-5080J0D01*
G01*
X87630Y-209550D02*
G03*
X87630Y-209550I-5080J0D01*
G01*
X196100Y963930D02*
G03*
X196100Y963930I-5080J0D01*
G01*
X220230Y975360D02*
G03*
X220230Y975360I-5080J0D01*
G01*
Y894080D02*
G03*
X220230Y894080I-5080J0D01*
G01*
X235470D02*
G03*
X235470Y894080I-5080J0D01*
G01*
X248170D02*
G03*
X248170Y894080I-5080J0D01*
G01*
X268490D02*
G03*
X268490Y894080I-5080J0D01*
G01*
X264680Y38100D02*
G03*
X264680Y38100I-5080J0D01*
G01*
X-97790Y902970D02*
G03*
X-97790Y902970I-5080J0D01*
G01*
X77518Y-151384D02*
X147368Y-151130D01*
X77518Y-191770D02*
X147368D01*
X148130Y-176530D02*
Y-166116D01*
X77010Y-176530D02*
Y-166116D01*
X278130Y933450D02*
X361200D01*
X227850Y967740D02*
Y1011498D01*
D12*
X430010Y958850D02*
G03*
X430010Y958850I-13450J0D01*
G01*
X504940Y-180340D02*
G03*
X504940Y-180340I-13450J0D01*
G01*
X96000Y19050D02*
G03*
X96000Y19050I-13450J0D01*
G01*
D13*
X324700Y-111500D02*
G03*
X324700Y-111500I-3000J0D01*
G01*
X61770Y191480D02*
G03*
X61770Y191480I-3000J0D01*
G01*
D14*
X175260Y76402D02*
X236220Y137362D01*
X175260Y124555D02*
X236220Y63595D01*
X175260Y142515D02*
X236220Y81555D01*
X175260Y106594D02*
X236220Y45634D01*
X175260Y40481D02*
X236220Y101441D01*
X175260Y58442D02*
X236220Y119402D01*
X234852Y298450D02*
X236220Y297082D01*
X216891Y298450D02*
X236220Y279121D01*
X198930Y298450D02*
X236220Y261161D01*
X180970Y298450D02*
X236220Y243200D01*
X175260Y94363D02*
X236220Y155323D01*
X175260Y160476D02*
X236220Y99516D01*
X175260Y22520D02*
X236220Y83481D01*
Y12700D02*
Y298450D01*
X175260Y22520D02*
X236220Y83481D01*
X201360Y12700D02*
X236220Y47559D01*
X219321Y12700D02*
X236220Y29599D01*
X183400Y12700D02*
X236220Y65520D01*
X175260Y70673D02*
X233233Y12700D01*
X175260Y52713D02*
X215273Y12700D01*
X175260Y88634D02*
X236220Y27674D01*
X175260Y16792D02*
X179352Y12700D01*
X175260Y34752D02*
X197312Y12700D01*
X175260Y220086D02*
X236220Y281046D01*
X175260Y268239D02*
X236220Y207279D01*
X175260Y286199D02*
X236220Y225240D01*
X175260Y250278D02*
X236220Y189319D01*
X175260Y184165D02*
X236220Y245125D01*
X175260Y202126D02*
X236220Y263086D01*
X175260Y273968D02*
X199742Y298450D01*
X175260Y256007D02*
X217703Y298450D01*
X175260Y291928D02*
X181782Y298450D01*
X175260D02*
X236220D01*
X175260Y238047D02*
X235663Y298450D01*
X175260Y196397D02*
X236220Y135437D01*
X175260Y130284D02*
X236220Y191244D01*
X175260Y148244D02*
X236220Y209204D01*
X175260Y112323D02*
X236220Y173283D01*
X175260Y12700D02*
X236220D01*
X175260Y178436D02*
X236220Y117476D01*
X175260Y232318D02*
X236220Y171358D01*
X175260Y12700D02*
Y298450D01*
Y12700D02*
Y298450D01*
Y214357D02*
X236220Y153397D01*
X175260Y166205D02*
X236220Y227165D01*
X98208Y34571D02*
X97011D01*
X95814Y33374D01*
X95814Y32177D01*
X98208Y29783D01*
X99404D01*
X100602Y30980D01*
X100601Y32177D01*
X98806Y36366D02*
X101798Y33374D01*
X102995D01*
X104192Y34571D01*
Y35768D01*
X101200Y38760D01*
X105988Y36366D02*
X102397Y39957D01*
X104192Y41753D01*
X105389D01*
X106586Y40556D01*
X106586Y39359D01*
X104791Y37563D01*
X105988Y38760D02*
X108382D01*
X109579Y39957D02*
X105988Y43548D01*
X107783Y45344D01*
X108980D01*
X110177Y44147D01*
X110177Y42950D01*
X108382Y41154D01*
X109579Y42351D02*
X111973D01*
Y49533D02*
X109579Y47139D01*
X113170Y43548D01*
X115564Y45942D01*
X111374Y45344D02*
X112571Y46541D01*
X116761Y47139D02*
X113170Y50730D01*
X119155Y49533D01*
X115564Y53124D01*
X116761Y54321D02*
X119155Y56715D01*
X117958Y55518D01*
X121549Y51927D01*
X126935Y63298D02*
X125738D01*
X124541Y62101D01*
X124541Y60904D01*
X125140Y60306D01*
X126336Y60306D01*
X127534Y61503D01*
X128730D01*
X129329Y60904D01*
X129329Y59707D01*
X128132Y58510D01*
X126935D01*
X129927Y67488D02*
X127534Y65094D01*
X131124Y61503D01*
X133518Y63897D01*
X129329Y63298D02*
X130526Y64495D01*
X134715Y65094D02*
X131124Y68685D01*
X137109Y67488D01*
X133518Y71079D01*
X137708Y74071D02*
X136511D01*
X135314Y72874D01*
X135314Y71677D01*
X135912Y71079D01*
X137109D01*
X138306Y72276D01*
X139503D01*
X140102Y71677D01*
Y70480D01*
X138905Y69283D01*
X137708D01*
X140700Y78261D02*
X138306Y75867D01*
X141897Y72276D01*
X144291Y74670D01*
X140102Y74071D02*
X141299Y75268D01*
X438403Y969466D02*
X437206D01*
X436009Y968270D01*
X436009Y967073D01*
X438403Y964679D01*
X439600D01*
X440797Y965876D01*
X440797Y967073D01*
X439600Y968270D01*
X438403Y967073D01*
X442592Y967671D02*
X439001Y971262D01*
X444986Y970065D01*
X441395Y973656D01*
X442592Y974853D02*
X446183Y971262D01*
X447979Y973057D01*
X447978Y974255D01*
X445584Y976648D01*
X444388D01*
X442592Y974853D01*
X467802Y-168373D02*
X466605D01*
X465408Y-169570D01*
X465408Y-170767D01*
X467802Y-173161D01*
X468998D01*
X470196Y-171964D01*
X470196Y-170767D01*
X468998Y-169570D01*
X467802Y-170767D01*
X471991Y-170169D02*
X468400Y-166578D01*
X474385Y-167775D01*
X470794Y-164184D01*
X471991Y-162987D02*
X475582Y-166578D01*
X477377Y-164782D01*
X477377Y-163585D01*
X474983Y-161191D01*
X473786D01*
X471991Y-162987D01*
X41668Y356108D02*
Y363726D01*
X44207Y361186D01*
X46746Y363726D01*
Y356108D01*
X49285Y363726D02*
X51825D01*
X50555D01*
Y356108D01*
X49285D01*
X51825D01*
X60712Y362456D02*
X59442Y363726D01*
X56903D01*
X55634Y362456D01*
Y357378D01*
X56903Y356108D01*
X59442D01*
X60712Y357378D01*
X63251Y356108D02*
Y363726D01*
X67060D01*
X68329Y362456D01*
Y359917D01*
X67060Y358647D01*
X63251D01*
X65790D02*
X68329Y356108D01*
X74677Y363726D02*
X72138D01*
X70869Y362456D01*
Y357378D01*
X72138Y356108D01*
X74677D01*
X75947Y357378D01*
Y362456D01*
X74677Y363726D01*
X83564Y362456D02*
X82295Y363726D01*
X79756D01*
X78486Y362456D01*
Y361186D01*
X79756Y359917D01*
X82295D01*
X83564Y358647D01*
Y357378D01*
X82295Y356108D01*
X79756D01*
X78486Y357378D01*
X86104Y363726D02*
Y356108D01*
X88643Y358647D01*
X91182Y356108D01*
Y363726D01*
X93721D02*
X96260D01*
X94991D01*
Y356108D01*
X93721D01*
X96260D01*
X105147Y363726D02*
X100069D01*
Y359917D01*
X102608D01*
X100069D01*
Y356108D01*
X107687Y363726D02*
X112765D01*
X110226D01*
Y356108D01*
X128000D02*
X122922D01*
X128000Y361186D01*
Y362456D01*
X126730Y363726D01*
X124191D01*
X122922Y362456D01*
X130539Y363726D02*
Y356108D01*
X135618D01*
X41668Y343408D02*
Y351026D01*
X45477D01*
X46746Y349756D01*
Y347217D01*
X45477Y345947D01*
X41668D01*
X44207D02*
X46746Y343408D01*
X54364Y351026D02*
X49285D01*
Y343408D01*
X54364D01*
X49285Y347217D02*
X51825D01*
X56903Y351026D02*
Y345947D01*
X59442Y343408D01*
X61981Y345947D01*
Y351026D01*
X64521Y348486D02*
X65790D01*
Y347217D01*
X64521D01*
Y348486D01*
Y344678D02*
X65790D01*
Y343408D01*
X64521D01*
Y344678D01*
X83564Y343408D02*
X78486D01*
X83564Y348486D01*
Y349756D01*
X82295Y351026D01*
X79756D01*
X78486Y349756D01*
X86104Y343408D02*
Y344678D01*
X87373D01*
Y343408D01*
X86104D01*
X92452D02*
X94991D01*
X93721D01*
Y351026D01*
X92452Y349756D01*
X98799Y351026D02*
Y343408D01*
X102608D01*
X103878Y344678D01*
Y345947D01*
X102608Y347217D01*
X98799D01*
X102608D01*
X103878Y348486D01*
Y349756D01*
X102608Y351026D01*
X98799D01*
X114035D02*
Y343408D01*
X117843D01*
X119113Y344678D01*
Y345947D01*
X117843Y347217D01*
X114035D01*
X117843D01*
X119113Y348486D01*
Y349756D01*
X117843Y351026D01*
X114035D01*
X41668Y325625D02*
Y318008D01*
X45477D01*
X46746Y319278D01*
Y324356D01*
X45477Y325625D01*
X41668D01*
X49285Y318008D02*
Y323086D01*
X51825Y325625D01*
X54364Y323086D01*
Y318008D01*
Y321817D01*
X49285D01*
X56903Y325625D02*
X61981D01*
X59442D01*
Y318008D01*
X69599Y325625D02*
X64521D01*
Y318008D01*
X69599D01*
X64521Y321817D02*
X67060D01*
X72138Y323086D02*
X73408D01*
Y321817D01*
X72138D01*
Y323086D01*
Y319278D02*
X73408D01*
Y318008D01*
X72138D01*
Y319278D01*
X86104Y318008D02*
Y323086D01*
X88643Y325625D01*
X91182Y323086D01*
Y318008D01*
Y321817D01*
X86104D01*
X93721Y325625D02*
Y319278D01*
X94991Y318008D01*
X97530D01*
X98799Y319278D01*
Y325625D01*
X106417Y324356D02*
X105147Y325625D01*
X102608D01*
X101339Y324356D01*
Y319278D01*
X102608Y318008D01*
X105147D01*
X106417Y319278D01*
Y321817D01*
X103878D01*
X121652Y318008D02*
X116574D01*
X121652Y323086D01*
Y324356D01*
X120382Y325625D01*
X117843D01*
X116574Y324356D01*
X124191D02*
X125461Y325625D01*
X128000D01*
X129270Y324356D01*
Y319278D01*
X128000Y318008D01*
X125461D01*
X124191Y319278D01*
Y324356D01*
X136887Y318008D02*
X131809D01*
X136887Y323086D01*
Y324356D01*
X135618Y325625D01*
X133078D01*
X131809Y324356D01*
X143235Y318008D02*
Y325625D01*
X139426Y321817D01*
X144505D01*
X46746Y298956D02*
X45477Y300226D01*
X42938D01*
X41668Y298956D01*
Y293878D01*
X42938Y292608D01*
X45477D01*
X46746Y293878D01*
X49285Y292608D02*
Y297686D01*
X51825Y300226D01*
X54364Y297686D01*
Y292608D01*
Y296417D01*
X49285D01*
X61981Y298956D02*
X60712Y300226D01*
X58173D01*
X56903Y298956D01*
Y293878D01*
X58173Y292608D01*
X60712D01*
X61981Y293878D01*
Y296417D01*
X59442D01*
X69599Y300226D02*
X64521D01*
Y292608D01*
X69599D01*
X64521Y296417D02*
X67060D01*
X72138Y297686D02*
X73408D01*
Y296417D01*
X72138D01*
Y297686D01*
Y293878D02*
X73408D01*
Y292608D01*
X72138D01*
Y293878D01*
X86104D02*
X87373Y292608D01*
X89912D01*
X91182Y293878D01*
Y298956D01*
X89912Y300226D01*
X87373D01*
X86104Y298956D01*
Y297686D01*
X87373Y296417D01*
X91182D01*
X93721Y298956D02*
X94991Y300226D01*
X97530D01*
X98799Y298956D01*
Y297686D01*
X97530Y296417D01*
X98799Y295147D01*
Y293878D01*
X97530Y292608D01*
X94991D01*
X93721Y293878D01*
Y295147D01*
X94991Y296417D01*
X93721Y297686D01*
Y298956D01*
X94991Y296417D02*
X97530D01*
X106417Y300226D02*
X101339D01*
Y296417D01*
X103878Y297686D01*
X105147D01*
X106417Y296417D01*
Y293878D01*
X105147Y292608D01*
X102608D01*
X101339Y293878D01*
X108956Y292608D02*
X111495D01*
X110226D01*
Y300226D01*
X108956Y298956D01*
X119113Y292608D02*
Y300226D01*
X115304Y296417D01*
X120382D01*
X41668Y305308D02*
Y312925D01*
X45477D01*
X46746Y311656D01*
Y309117D01*
X45477Y307847D01*
X41668D01*
X49285Y305308D02*
Y312925D01*
X54364Y305308D01*
Y312925D01*
X56903Y310386D02*
X58173D01*
Y309117D01*
X56903D01*
Y310386D01*
Y306578D02*
X58173D01*
Y305308D01*
X56903D01*
Y306578D01*
X70869D02*
X72138Y305308D01*
X74677D01*
X75947Y306578D01*
Y311656D01*
X74677Y312925D01*
X72138D01*
X70869Y311656D01*
Y310386D01*
X72138Y309117D01*
X75947D01*
X78486Y311656D02*
X79756Y312925D01*
X82295D01*
X83564Y311656D01*
Y306578D01*
X82295Y305308D01*
X79756D01*
X78486Y306578D01*
Y311656D01*
X86104D02*
X87373Y312925D01*
X89912D01*
X91182Y311656D01*
Y306578D01*
X89912Y305308D01*
X87373D01*
X86104Y306578D01*
Y311656D01*
X93721D02*
X94991Y312925D01*
X97530D01*
X98799Y311656D01*
Y310386D01*
X97530Y309117D01*
X96260D01*
X97530D01*
X98799Y307847D01*
Y306578D01*
X97530Y305308D01*
X94991D01*
X93721Y306578D01*
X106417Y312925D02*
X101339D01*
Y309117D01*
X103878Y310386D01*
X105147D01*
X106417Y309117D01*
Y306578D01*
X105147Y305308D01*
X102608D01*
X101339Y306578D01*
X511822Y979678D02*
X501665D01*
Y984756D01*
X503358Y986449D01*
X506744D01*
X508436Y984756D01*
Y979678D01*
Y983064D02*
X511822Y986449D01*
X501665Y996606D02*
Y989835D01*
X511822D01*
Y996606D01*
X506744Y989835D02*
Y993220D01*
X501665Y999991D02*
X511822D01*
Y1005070D01*
X510129Y1006763D01*
X503358D01*
X501665Y1005070D01*
Y999991D01*
X477958Y986449D02*
X476265Y984756D01*
Y981371D01*
X477958Y979678D01*
X484729D01*
X486422Y981371D01*
Y984756D01*
X484729Y986449D01*
X481344D01*
Y983064D01*
X486422Y989835D02*
X476265D01*
Y994913D01*
X477958Y996606D01*
X481344D01*
X483036Y994913D01*
Y989835D01*
Y993220D02*
X486422Y996606D01*
X476265Y1006763D02*
Y999991D01*
X486422D01*
Y1006763D01*
X481344Y999991D02*
Y1003377D01*
X476265Y1016919D02*
Y1010148D01*
X486422D01*
Y1016919D01*
X481344Y1010148D02*
Y1013534D01*
X486422Y1020305D02*
X476265D01*
X486422Y1027076D01*
X476265D01*
X364164Y938528D02*
X370936Y928372D01*
Y938528D02*
X364164Y928372D01*
X224464Y1028698D02*
Y1027006D01*
X227850Y1023620D01*
X231236Y1027006D01*
Y1028698D01*
X227850Y1023620D02*
Y1018542D01*
X-25482Y-52497D02*
X-26752Y-51227D01*
X-29291D01*
X-30561Y-52497D01*
Y-57575D01*
X-29291Y-58845D01*
X-26752D01*
X-25482Y-57575D01*
X-19134Y-58845D02*
Y-51227D01*
X-22943Y-55036D01*
X-17865D01*
X-10247Y-51227D02*
X-12786Y-52497D01*
X-15325Y-55036D01*
Y-57575D01*
X-14056Y-58845D01*
X-11517D01*
X-10247Y-57575D01*
Y-56306D01*
X-11517Y-55036D01*
X-15325D01*
X97562Y854915D02*
Y862532D01*
X100101Y859993D01*
X102640Y862532D01*
Y854915D01*
X108988Y862532D02*
X106449D01*
X105179Y861263D01*
Y856184D01*
X106449Y854915D01*
X108988D01*
X110257Y856184D01*
Y861263D01*
X108988Y862532D01*
X112796D02*
Y854915D01*
X116605D01*
X117875Y856184D01*
Y861263D01*
X116605Y862532D01*
X112796D01*
X125492Y854915D02*
X120414D01*
X125492Y859993D01*
Y861263D01*
X124223Y862532D01*
X121684D01*
X120414Y861263D01*
X292340Y-69321D02*
X294734Y-66927D01*
X293537Y-68124D01*
X297128Y-71715D01*
X299522Y-69321D02*
X295931Y-65730D01*
X297726Y-63935D01*
X298923D01*
X300120Y-65132D01*
Y-66329D01*
X298325Y-68124D01*
X304908Y-63935D02*
X301317Y-60344D01*
Y-63935D01*
X303711Y-61541D01*
Y-59147D02*
X303711Y-57950D01*
X304908Y-56753D01*
X306105D01*
X308499Y-59147D01*
Y-60344D01*
X307302Y-61541D01*
X306105D01*
X303711Y-59147D01*
X310294Y-58548D02*
X307900Y-56155D01*
Y-53761D01*
X310294D01*
X312688Y-56155D01*
X310893Y-54359D01*
X308499Y-56753D01*
X163829Y283468D02*
X156211D01*
Y287277D01*
X157481Y288547D01*
X160020D01*
X161290Y287277D01*
Y283468D01*
Y286008D02*
X163829Y288547D01*
X156211Y296164D02*
Y291086D01*
X160020D01*
X158750Y293625D01*
Y294895D01*
X160020Y296164D01*
X162559D01*
X163829Y294895D01*
Y292356D01*
X162559Y291086D01*
X157481Y298704D02*
X156211Y299973D01*
Y302512D01*
X157481Y303782D01*
X158750D01*
X160020Y302512D01*
X161290Y303782D01*
X162559D01*
X163829Y302512D01*
Y299973D01*
X162559Y298704D01*
X161290D01*
X160020Y299973D01*
X158750Y298704D01*
X157481D01*
X160020Y299973D02*
Y302512D01*
X156211Y306321D02*
X163829D01*
Y310130D01*
X162559Y311399D01*
X157481D01*
X156211Y310130D01*
Y306321D01*
X-45721Y901704D02*
X-53339D01*
Y905513D01*
X-52069Y906783D01*
X-49530D01*
X-48260Y905513D01*
Y901704D01*
Y904244D02*
X-45721Y906783D01*
X-53339Y914400D02*
Y909322D01*
X-49530D01*
X-50800Y911861D01*
Y913131D01*
X-49530Y914400D01*
X-46991D01*
X-45721Y913131D01*
Y910592D01*
X-46991Y909322D01*
X-53339Y916940D02*
Y922018D01*
X-52069D01*
X-46991Y916940D01*
X-45721D01*
X-53339Y924557D02*
X-45721D01*
Y928366D01*
X-46991Y929635D01*
X-48260D01*
X-49530Y928366D01*
Y924557D01*
Y928366D01*
X-50800Y929635D01*
X-52069D01*
X-53339Y928366D01*
Y924557D01*
X-47749Y-201892D02*
X-45355Y-199498D01*
X-46552Y-200695D01*
X-42961Y-204286D01*
X-40567Y-201892D02*
X-44158Y-198301D01*
X-42362Y-196506D01*
X-41165D01*
X-39969Y-197702D01*
Y-198899D01*
X-41764Y-200695D01*
X-35181Y-196506D02*
X-38772Y-192915D01*
Y-196506D01*
X-36378Y-194111D01*
Y-191718D02*
X-36377Y-190521D01*
X-35181Y-189324D01*
X-33984D01*
X-33385Y-189922D01*
Y-191119D01*
X-33984Y-191718D01*
X-33385Y-191119D01*
X-32188D01*
X-31590Y-191718D01*
Y-192915D01*
X-32787Y-194111D01*
X-33984D01*
X456187Y-280632D02*
X458581Y-278238D01*
X457384Y-279435D01*
X460975Y-283026D01*
X463369Y-280632D02*
X459778Y-277041D01*
X461573Y-275245D01*
X462771D01*
X463968Y-276442D01*
Y-277639D01*
X462172Y-279435D01*
X468755Y-275245D02*
X465164Y-271654D01*
Y-275245D01*
X467558Y-272852D01*
X472945Y-271056D02*
X470551Y-273450D01*
Y-268662D01*
X469952Y-268064D01*
X468755D01*
X467559Y-269261D01*
X467558Y-270458D01*
X489552Y-209929D02*
X491946Y-207535D01*
X490749Y-208732D01*
X494339Y-212323D01*
X496734Y-209929D02*
X493143Y-206338D01*
X494938Y-204543D01*
X496135D01*
X497332Y-205740D01*
Y-206937D01*
X495536Y-208732D01*
X502120Y-204543D02*
X498529Y-200952D01*
Y-204543D01*
X500923Y-202149D01*
X503915Y-202747D02*
X505112Y-201551D01*
X504514Y-202149D01*
X500923Y-198558D01*
X500923Y-199755D01*
X171182Y785543D02*
X173576Y787937D01*
X172379Y786740D01*
X175970Y783149D01*
X178363Y785543D02*
X174773Y789134D01*
X176568Y790929D01*
X177765D01*
X178962Y789732D01*
Y788535D01*
X177167Y786740D01*
X183750Y790929D02*
X180159Y794520D01*
Y790929D01*
X182553Y793323D01*
Y795717D02*
X182553Y796914D01*
X183750Y798111D01*
X184947D01*
X187341Y795717D01*
Y794520D01*
X186144Y793323D01*
X184947D01*
X182553Y795717D01*
X188538Y801702D02*
X187341D01*
X186144Y800505D01*
X186144Y799308D01*
X188538Y796914D01*
X189735D01*
X190932Y798111D01*
X190932Y799308D01*
X475474Y-135107D02*
X477868Y-132713D01*
X476671Y-133910D01*
X480262Y-137501D01*
X482655Y-135107D02*
X479065Y-131516D01*
X480860Y-129721D01*
X482057D01*
X483254Y-130918D01*
Y-132115D01*
X481459Y-133910D01*
X488042Y-129721D02*
X484451Y-126130D01*
Y-129721D01*
X486845Y-127327D01*
Y-124933D02*
X486845Y-123736D01*
X488042Y-122539D01*
X489239D01*
X491633Y-124933D01*
Y-126130D01*
X490436Y-127327D01*
X489239D01*
X486845Y-124933D01*
X489837Y-120744D02*
X493428Y-124334D01*
X495224Y-122539D01*
X495224Y-121342D01*
X494625Y-120744D01*
X493428Y-120744D01*
X491633Y-122539D01*
X493428Y-120744D01*
Y-119547D01*
X492830Y-118948D01*
X491633D01*
X489837Y-120744D01*
X301484Y891561D02*
X303878Y893955D01*
X302681Y892758D01*
X306272Y889167D01*
X308666Y891561D02*
X305075Y895152D01*
X306870Y896947D01*
X308067D01*
X309264Y895750D01*
Y894553D01*
X307468Y892758D01*
X309264Y898144D02*
Y899341D01*
X310461Y900538D01*
X311658D01*
X312257Y899939D01*
Y898743D01*
X311658Y898144D01*
X312257Y898743D01*
X313453Y898743D01*
X314052Y898144D01*
X314052Y896947D01*
X312855Y895750D01*
X311658D01*
X315249Y899341D02*
X316446D01*
X317643Y900538D01*
Y901735D01*
X315249Y904129D01*
X314052D01*
X312855Y902932D01*
X312855Y901735D01*
X313453Y901136D01*
X314650Y901136D01*
X316446Y902932D01*
X318840Y907720D02*
X317643D01*
X316446Y906523D01*
X316446Y905326D01*
X318840Y902932D01*
X320037D01*
X321234Y904129D01*
X321234Y905326D01*
X396794Y-20562D02*
X399188Y-18168D01*
X397991Y-19365D01*
X401582Y-22956D01*
X403976Y-20562D02*
X400385Y-16971D01*
X402180Y-15176D01*
X403377D01*
X404574Y-16373D01*
Y-17570D01*
X402779Y-19365D01*
X404574Y-13979D02*
Y-12782D01*
X405771Y-11585D01*
X406968D01*
X407566Y-12184D01*
Y-13380D01*
X406968Y-13979D01*
X407566Y-13380D01*
X408764Y-13380D01*
X409362Y-13979D01*
X409362Y-15176D01*
X408165Y-16373D01*
X406968D01*
X410559Y-12782D02*
X411756D01*
X412953Y-11585D01*
Y-10388D01*
X410559Y-7994D01*
X409362D01*
X408165Y-9191D01*
X408165Y-10388D01*
X408764Y-10986D01*
X409961Y-10986D01*
X411756Y-9191D01*
X411157Y-6199D02*
X414748Y-9790D01*
X416544Y-7994D01*
X416544Y-6797D01*
X415945Y-6199D01*
X414748Y-6198D01*
X412953Y-7994D01*
X414748Y-6198D01*
Y-5002D01*
X414150Y-4403D01*
X412953D01*
X411157Y-6199D01*
X-115076Y922549D02*
X-112682Y924943D01*
X-113879Y923746D01*
X-110288Y920155D01*
X-107894Y922549D02*
X-111485Y926140D01*
X-109690Y927935D01*
X-108493D01*
X-107296Y926738D01*
Y925541D01*
X-109092Y923746D01*
X-107296Y929132D02*
Y930329D01*
X-106099Y931526D01*
X-104902D01*
X-104304Y930928D01*
Y929731D01*
X-104902Y929132D01*
X-104304Y929731D01*
X-103107Y929731D01*
X-102508Y929132D01*
X-102508Y927935D01*
X-103705Y926738D01*
X-104902D01*
X-98917Y931526D02*
X-102508Y935117D01*
X-102508Y931526D01*
X-100114Y933920D01*
X-100713Y936912D02*
X-97122Y933322D01*
X-95326Y935117D01*
X-95326Y936314D01*
X-95925Y936912D01*
X-97122Y936912D01*
X-98917Y935117D01*
X-97122Y936912D01*
Y938109D01*
X-97720Y938708D01*
X-98917D01*
X-100713Y936912D01*
X-74182Y835935D02*
X-71788Y838329D01*
X-72985Y837132D01*
X-69394Y833541D01*
X-67000Y835935D02*
X-70591Y839526D01*
X-68796Y841321D01*
X-67599D01*
X-66402Y840124D01*
Y838927D01*
X-68197Y837132D01*
X-66402Y842518D02*
Y843715D01*
X-65205Y844912D01*
X-64008D01*
X-63410Y844314D01*
Y843117D01*
X-64008Y842518D01*
X-63410Y843117D01*
X-62213Y843117D01*
X-61614Y842518D01*
X-61614Y841321D01*
X-62811Y840124D01*
X-64008D01*
X-62811Y846109D02*
X-62811Y847306D01*
X-61614Y848503D01*
X-60417D01*
X-59819Y847904D01*
Y846708D01*
X-60417Y846109D01*
X-59819Y846708D01*
X-58622D01*
X-58023Y846109D01*
Y844912D01*
X-59220Y843715D01*
X-60417D01*
X-59819Y850298D02*
X-56228Y846708D01*
X-54432Y848503D01*
X-54432Y849700D01*
X-55031Y850298D01*
X-56228Y850298D01*
X-58023Y848503D01*
X-56228Y850298D01*
Y851495D01*
X-56826Y852094D01*
X-58023D01*
X-59819Y850298D01*
X159498Y-63987D02*
X161892Y-61593D01*
X160695Y-62790D01*
X164286Y-66381D01*
X166679Y-63987D02*
X163089Y-60396D01*
X164884Y-58601D01*
X166081D01*
X167278Y-59798D01*
Y-60995D01*
X165483Y-62790D01*
X167278Y-57404D02*
Y-56207D01*
X168475Y-55010D01*
X169672D01*
X170271Y-55609D01*
Y-56806D01*
X169672Y-57404D01*
X170271Y-56806D01*
X171467Y-56806D01*
X172066Y-57404D01*
X172066Y-58601D01*
X170869Y-59798D01*
X169672D01*
X170869Y-53813D02*
X170869Y-52616D01*
X172066Y-51419D01*
X173263D01*
X173861Y-52018D01*
Y-53215D01*
X173263Y-53813D01*
X173861Y-53215D01*
X175058D01*
X175657Y-53813D01*
Y-55010D01*
X174460Y-56207D01*
X173263D01*
X177452Y-53215D02*
X175058Y-50821D01*
Y-48427D01*
X177452D01*
X179846Y-50821D01*
X178051Y-49025D01*
X175657Y-51419D01*
X269497Y-79464D02*
X271891Y-77070D01*
X270694Y-78267D01*
X274285Y-81858D01*
X276679Y-79464D02*
X273088Y-75873D01*
X274883Y-74078D01*
X276080D01*
X277278Y-75274D01*
Y-76471D01*
X275482Y-78267D01*
X277278Y-72881D02*
Y-71684D01*
X278475Y-70486D01*
X279671D01*
X280270Y-71085D01*
Y-72282D01*
X279671Y-72881D01*
X280270Y-72282D01*
X281467Y-72282D01*
X282065Y-72881D01*
X282065Y-74078D01*
X280868Y-75274D01*
X279671D01*
X286255Y-69888D02*
X283861Y-72282D01*
Y-67494D01*
X283262Y-66896D01*
X282065D01*
X280868Y-68093D01*
X280868Y-69290D01*
X151049Y183170D02*
X152742Y186102D01*
X151895Y184636D01*
X156293Y182097D01*
X157986Y185028D02*
X153588Y187568D01*
X154858Y189767D01*
X156014Y190076D01*
X157480Y189230D01*
X157790Y188074D01*
X156520Y185875D01*
X156860Y191542D02*
X156551Y192699D01*
X157397Y194165D01*
X158553Y194474D01*
X159286Y194051D01*
X159596Y192895D01*
X159173Y192162D01*
X159596Y192895D01*
X160752Y193205D01*
X161485Y192782D01*
X161795Y191625D01*
X160949Y190159D01*
X159792Y189850D01*
X163064Y193824D02*
X163911Y195290D01*
X163488Y194557D01*
X159090Y197097D01*
X159399Y195940D01*
X153166Y165927D02*
X154859Y168859D01*
X154012Y167393D01*
X158410Y164853D01*
X160103Y167785D02*
X155705Y170325D01*
X156975Y172524D01*
X158131Y172833D01*
X159597Y171987D01*
X159907Y170831D01*
X158637Y168632D01*
X158977Y174299D02*
X158667Y175456D01*
X159514Y176922D01*
X160670Y177231D01*
X161403Y176808D01*
X161713Y175652D01*
X161290Y174919D01*
X161713Y175652D01*
X162869Y175962D01*
X163602Y175539D01*
X163912Y174382D01*
X163065Y172916D01*
X161909Y172607D01*
X161516Y178697D02*
X161207Y179854D01*
X162053Y181320D01*
X163209Y181629D01*
X166141Y179937D01*
X166451Y178780D01*
X165604Y177314D01*
X164448Y177005D01*
X161516Y178697D01*
X150371Y216192D02*
X152765Y218586D01*
X151568Y217389D01*
X155159Y213798D01*
X157553Y216192D02*
X153962Y219783D01*
X155758Y221579D01*
X156954D01*
X158152Y220382D01*
Y219185D01*
X156356Y217389D01*
X163538Y222177D02*
X161144Y219783D01*
Y224571D01*
X160545Y225170D01*
X159348D01*
X158152Y223972D01*
Y222775D01*
X164136Y223972D02*
X165333D01*
X166530Y225170D01*
Y226366D01*
X164136Y228760D01*
X162939D01*
X161742Y227563D01*
X161742Y226366D01*
X162341Y225768D01*
X163538Y225768D01*
X165333Y227563D01*
X9147Y129324D02*
X11541Y131718D01*
X10344Y130521D01*
X13935Y126930D01*
X16329Y129324D02*
X12738Y132915D01*
X14533Y134711D01*
X15731D01*
X16927Y133514D01*
Y132317D01*
X15132Y130521D01*
X22314Y135309D02*
X19920Y132915D01*
Y137703D01*
X19321Y138301D01*
X18125D01*
X16927Y137105D01*
Y135907D01*
X19920Y140097D02*
X22314Y142491D01*
X22912Y141892D01*
Y137105D01*
X23511Y136506D01*
X-759Y226860D02*
X1635Y229254D01*
X438Y228057D01*
X4029Y224466D01*
X6423Y226860D02*
X2832Y230451D01*
X4627Y232246D01*
X5824D01*
X7021Y231050D01*
Y229853D01*
X5226Y228057D01*
X12408Y232845D02*
X10014Y230451D01*
Y235239D01*
X9415Y235837D01*
X8219D01*
X7021Y234641D01*
Y233444D01*
X12408Y240027D02*
X11809Y238231D01*
Y235837D01*
X13006Y234641D01*
X14203D01*
X15400Y235837D01*
Y237034D01*
X14802Y237633D01*
X13605D01*
X11809Y235837D01*
X4829Y104178D02*
X7223Y106572D01*
X6026Y105375D01*
X9617Y101784D01*
X12011Y104178D02*
X8420Y107769D01*
X10216Y109565D01*
X11413D01*
X12609Y108368D01*
Y107171D01*
X10814Y105375D01*
X17996Y110163D02*
X15602Y107769D01*
Y112557D01*
X15003Y113155D01*
X13807D01*
X12609Y111959D01*
Y110761D01*
X17996Y117345D02*
X15602Y114951D01*
X17397Y113155D01*
X17996Y114951D01*
X18594Y115549D01*
X19791D01*
X20988Y114352D01*
Y113155D01*
X19791Y111959D01*
X18594D01*
X140719Y-47968D02*
X143113Y-45574D01*
X141916Y-46771D01*
X145507Y-50362D01*
X147901Y-47968D02*
X144310Y-44377D01*
X146105Y-42582D01*
X147303D01*
X148499Y-43778D01*
Y-44975D01*
X146704Y-46771D01*
X153886Y-41983D02*
X151492Y-44377D01*
Y-39589D01*
X150893Y-38990D01*
X149697D01*
X148499Y-40188D01*
Y-41385D01*
X156878Y-38990D02*
X153287Y-35400D01*
X153287Y-38990D01*
X155681Y-36597D01*
X142751Y830872D02*
X145145Y833266D01*
X143948Y832069D01*
X147539Y828478D01*
X149933Y830872D02*
X146342Y834463D01*
X148138Y836258D01*
X149334D01*
X150532Y835062D01*
Y833865D01*
X148736Y832069D01*
X155918Y836857D02*
X153524Y834463D01*
Y839251D01*
X152925Y839849D01*
X151728D01*
X150532Y838652D01*
Y837456D01*
X154122Y841046D02*
X154122Y842243D01*
X155319Y843440D01*
X156516D01*
X157115Y842842D01*
Y841645D01*
X156516Y841046D01*
X157115Y841645D01*
X158312D01*
X158910Y841046D01*
Y839849D01*
X157713Y838652D01*
X156516D01*
X372113Y254546D02*
X374507Y256940D01*
X373310Y255743D01*
X376901Y252152D01*
X379295Y254546D02*
X375704Y258137D01*
X377500Y259932D01*
X378697D01*
X379893Y258736D01*
Y257539D01*
X378098Y255743D01*
X385280Y260531D02*
X382886Y258137D01*
Y262925D01*
X382287Y263524D01*
X381091D01*
X379893Y262327D01*
Y261129D01*
X388871Y264122D02*
X386477Y261728D01*
Y266516D01*
X385878Y267114D01*
X384681D01*
X383484Y265917D01*
X383484Y264720D01*
X329024Y252859D02*
X331418Y255253D01*
X330221Y254056D01*
X333811Y250465D01*
X336205Y252859D02*
X332615Y256450D01*
X334410Y258245D01*
X335607D01*
X336804Y257048D01*
Y255851D01*
X335009Y254056D01*
X342190Y258843D02*
X339796Y256450D01*
Y261238D01*
X339198Y261836D01*
X338001D01*
X336804Y260639D01*
Y259442D01*
X343387Y260040D02*
X344584Y261238D01*
X343986Y260639D01*
X340395Y264230D01*
X340395Y263033D01*
X345951Y-78702D02*
X348345Y-76308D01*
X347148Y-77505D01*
X350739Y-81096D01*
X353133Y-78702D02*
X349542Y-75111D01*
X351338Y-73316D01*
X352534D01*
X353731Y-74512D01*
Y-75709D01*
X351936Y-77505D01*
X359118Y-72717D02*
X356724Y-75111D01*
Y-70323D01*
X356125Y-69724D01*
X354929D01*
X353731Y-70922D01*
Y-72119D01*
X357322Y-68528D02*
X357323Y-67331D01*
X358519Y-66134D01*
X359716D01*
X362110Y-68528D01*
Y-69724D01*
X360913Y-70922D01*
X359716D01*
X357322Y-68528D01*
X364030Y-183305D02*
X366424Y-180911D01*
X365227Y-182108D01*
X368818Y-185699D01*
X371212Y-183305D02*
X367621Y-179714D01*
X369417Y-177918D01*
X370614D01*
X371811Y-179115D01*
Y-180312D01*
X370015Y-182108D01*
X374803Y-179714D02*
X376000Y-178517D01*
X375402Y-179115D01*
X371811Y-175524D01*
Y-176721D01*
X377197Y-176123D02*
X378394D01*
X379591Y-174926D01*
X379591Y-173729D01*
X377197Y-171335D01*
X376000D01*
X374803Y-172532D01*
Y-173729D01*
X375402Y-174327D01*
X376599Y-174327D01*
X378394Y-172532D01*
X282750Y-169843D02*
X285144Y-167449D01*
X283947Y-168646D01*
X287538Y-172237D01*
X289932Y-169843D02*
X286341Y-166252D01*
X288137Y-164456D01*
X289334D01*
X290531Y-165653D01*
Y-166850D01*
X288735Y-168646D01*
X293523Y-166252D02*
X294720Y-165055D01*
X294122Y-165653D01*
X290531Y-162062D01*
Y-163259D01*
X293523Y-160267D02*
Y-159070D01*
X294720Y-157873D01*
X295917D01*
X296516Y-158471D01*
Y-159668D01*
X297713Y-159668D01*
X298311Y-160267D01*
X298311Y-161464D01*
X297114Y-162661D01*
X295917D01*
X295319Y-162062D01*
Y-160865D01*
X294122Y-160865D01*
X293523Y-160267D01*
X295319Y-160865D02*
X296516Y-159668D01*
X328470Y-172637D02*
X330864Y-170243D01*
X329667Y-171440D01*
X333258Y-175031D01*
X335652Y-172637D02*
X332061Y-169046D01*
X333857Y-167250D01*
X335054D01*
X336251Y-168447D01*
Y-169644D01*
X334455Y-171440D01*
X339243Y-169046D02*
X340440Y-167849D01*
X339842Y-168447D01*
X336251Y-164856D01*
Y-166053D01*
X338645Y-162462D02*
X341039Y-160068D01*
X341637Y-160667D01*
Y-165455D01*
X342236Y-166053D01*
X-90630Y-170351D02*
X-88236Y-167957D01*
X-89433Y-169154D01*
X-85842Y-172745D01*
X-83448Y-170351D02*
X-87039Y-166760D01*
X-85243Y-164964D01*
X-84046D01*
X-82849Y-166161D01*
Y-167358D01*
X-84645Y-169154D01*
X-79857Y-166760D02*
X-78660Y-165563D01*
X-79258Y-166161D01*
X-82849Y-162570D01*
Y-163767D01*
X-78061Y-157782D02*
X-78660Y-159578D01*
Y-161972D01*
X-77463Y-163169D01*
X-76266D01*
X-75069Y-161972D01*
X-75069Y-160775D01*
X-75667Y-160176D01*
X-76864Y-160176D01*
X-78660Y-161972D01*
X-59388Y-173653D02*
X-56994Y-171259D01*
X-58191Y-172456D01*
X-54600Y-176047D01*
X-52206Y-173653D02*
X-55797Y-170062D01*
X-54001Y-168266D01*
X-52804D01*
X-51607Y-169463D01*
Y-170660D01*
X-53403Y-172456D01*
X-48615Y-170062D02*
X-47418Y-168865D01*
X-48016Y-169463D01*
X-51607Y-165872D01*
Y-167069D01*
X-46819Y-161084D02*
X-49213Y-163478D01*
X-47418Y-165274D01*
X-46819Y-163478D01*
X-46221Y-162880D01*
X-45024D01*
X-43827Y-164077D01*
X-43827Y-165274D01*
X-45024Y-166471D01*
X-46221D01*
X124508Y31579D02*
X126902Y33973D01*
X125705Y32776D01*
X129296Y29185D01*
X131690Y31579D02*
X128099Y35170D01*
X129895Y36966D01*
X131092D01*
X132289Y35769D01*
Y34572D01*
X130493Y32776D01*
X135281Y35170D02*
X136478Y36367D01*
X135880Y35769D01*
X132289Y39360D01*
Y38163D01*
X140069Y39958D02*
X136478Y43549D01*
X136478Y39958D01*
X138872Y42352D01*
X421569Y978120D02*
X423963Y980514D01*
X422766Y979317D01*
X426357Y975726D01*
X428751Y978120D02*
X425160Y981711D01*
X426956Y983506D01*
X428153D01*
X429350Y982309D01*
Y981112D01*
X427554Y979317D01*
X432342Y981711D02*
X433539Y982908D01*
X432940Y982309D01*
X429350Y985900D01*
Y984703D01*
X432342Y987696D02*
Y988893D01*
X433539Y990090D01*
X434736D01*
X435334Y989491D01*
Y988294D01*
X434736Y987696D01*
X435334Y988294D01*
X436531Y988294D01*
X437130Y987696D01*
X437130Y986499D01*
X435933Y985302D01*
X434736D01*
X453683Y-161872D02*
X456077Y-159478D01*
X454880Y-160675D01*
X458471Y-164266D01*
X460865Y-161872D02*
X457274Y-158281D01*
X459070Y-156486D01*
X460267D01*
X461464Y-157683D01*
Y-158880D01*
X459668Y-160675D01*
X464456Y-158281D02*
X465653Y-157085D01*
X465055Y-157683D01*
X461464Y-154092D01*
Y-155289D01*
X469842Y-152895D02*
X467449Y-155289D01*
Y-150501D01*
X466850Y-149903D01*
X465653D01*
X464456Y-151100D01*
Y-152297D01*
X58236Y-214513D02*
X60630Y-212119D01*
X59433Y-213316D01*
X63024Y-216907D01*
X65418Y-214513D02*
X61827Y-210922D01*
X63622Y-209126D01*
X64819D01*
X66016Y-210323D01*
Y-211520D01*
X64221Y-213316D01*
X69009Y-210922D02*
X70206Y-209725D01*
X69607Y-210323D01*
X66016Y-206733D01*
Y-207929D01*
X72001D02*
X73198Y-206733D01*
X72600Y-207331D01*
X69009Y-203740D01*
Y-204937D01*
X-39367Y100331D02*
Y107949D01*
X-35558D01*
X-34288Y106679D01*
Y104140D01*
X-35558Y102870D01*
X-39367D01*
X-36827D02*
X-34288Y100331D01*
X-26671Y107949D02*
X-31749D01*
Y104140D01*
X-29210Y105410D01*
X-27940D01*
X-26671Y104140D01*
Y101601D01*
X-27940Y100331D01*
X-30480D01*
X-31749Y101601D01*
X-19053Y107949D02*
X-24132D01*
Y104140D01*
X-21592Y105410D01*
X-20323D01*
X-19053Y104140D01*
Y101601D01*
X-20323Y100331D01*
X-22862D01*
X-24132Y101601D01*
X466089Y914402D02*
X458471D01*
Y918211D01*
X459741Y919480D01*
X462280D01*
X463549Y918211D01*
Y914402D01*
Y916941D02*
X466089Y919480D01*
X458471Y927098D02*
X459741Y924559D01*
X462280Y922020D01*
X464819D01*
X466089Y923289D01*
Y925828D01*
X464819Y927098D01*
X463549D01*
X462280Y925828D01*
Y922020D01*
X533439Y910593D02*
X525821D01*
Y914402D01*
X527091Y915672D01*
X529630D01*
X530900Y914402D01*
Y910593D01*
Y913132D02*
X533439Y915672D01*
X525821Y923289D02*
Y918211D01*
X529630D01*
X528360Y920750D01*
Y922020D01*
X529630Y923289D01*
X532169D01*
X533439Y922020D01*
Y919480D01*
X532169Y918211D01*
X533439Y929637D02*
X525821D01*
X529630Y925828D01*
Y930907D01*
X525821Y942343D02*
X533439D01*
Y946152D01*
X532169Y947422D01*
X527091D01*
X525821Y946152D01*
Y942343D01*
X527091Y955039D02*
X525821Y953770D01*
Y951230D01*
X527091Y949961D01*
X528360D01*
X529630Y951230D01*
Y953770D01*
X530900Y955039D01*
X532169D01*
X533439Y953770D01*
Y951230D01*
X532169Y949961D01*
X533439Y962657D02*
Y957578D01*
X528360Y962657D01*
X527091D01*
X525821Y961387D01*
Y958848D01*
X527091Y957578D01*
X458471Y943613D02*
X466089D01*
Y947422D01*
X464819Y948691D01*
X459741D01*
X458471Y947422D01*
Y943613D01*
X459741Y956309D02*
X458471Y955039D01*
Y952500D01*
X459741Y951230D01*
X461010D01*
X462280Y952500D01*
Y955039D01*
X463550Y956309D01*
X464819D01*
X466089Y955039D01*
Y952500D01*
X464819Y951230D01*
X466089Y958848D02*
Y961387D01*
Y960117D01*
X458471D01*
X459741Y958848D01*
X433593Y840741D02*
Y848359D01*
X436133Y845820D01*
X438672Y848359D01*
Y840741D01*
X441211Y848359D02*
Y840741D01*
Y844550D01*
X446289D01*
Y848359D01*
Y840741D01*
X453907Y848359D02*
X451368Y847089D01*
X448828Y844550D01*
Y842011D01*
X450098Y840741D01*
X452637D01*
X453907Y842011D01*
Y843280D01*
X452637Y844550D01*
X448828D01*
X58943Y834391D02*
Y842009D01*
X61483Y839470D01*
X64022Y842009D01*
Y834391D01*
X66561Y842009D02*
Y834391D01*
Y838200D01*
X71639D01*
Y842009D01*
Y834391D01*
X79257Y842009D02*
X74178D01*
Y838200D01*
X76718Y839470D01*
X77987D01*
X79257Y838200D01*
Y835661D01*
X77987Y834391D01*
X75448D01*
X74178Y835661D01*
X256541Y933199D02*
X264159Y938278D01*
X256541D02*
X264159Y933199D01*
Y940817D02*
Y943356D01*
Y942086D01*
X256541D01*
X257811Y940817D01*
X-111016Y-257114D02*
X-104668D01*
X-103398Y-255845D01*
Y-253306D01*
X-104668Y-252036D01*
X-111016D01*
X-103398Y-249497D02*
Y-246958D01*
Y-248227D01*
X-111016D01*
X-109746Y-249497D01*
X-103398Y-238071D02*
Y-243149D01*
X-108477Y-238071D01*
X-109746D01*
X-111016Y-239340D01*
Y-241879D01*
X-109746Y-243149D01*
X559739Y-256109D02*
X566087D01*
X567356Y-254840D01*
Y-252301D01*
X566087Y-251031D01*
X559739D01*
X567356Y-248492D02*
Y-245953D01*
Y-247222D01*
X559739D01*
X561009Y-248492D01*
X567356Y-242144D02*
Y-239605D01*
Y-240874D01*
X559739D01*
X561009Y-242144D01*
X154040Y-201931D02*
Y-208279D01*
X155310Y-209549D01*
X157849D01*
X159118Y-208279D01*
Y-201931D01*
X161658Y-209549D02*
X164197D01*
X162927D01*
Y-201931D01*
X161658Y-203201D01*
X168006D02*
X169275Y-201931D01*
X171814D01*
X173084Y-203201D01*
Y-208279D01*
X171814Y-209549D01*
X169275D01*
X168006Y-208279D01*
Y-203201D01*
X46992Y-16511D02*
Y-22859D01*
X48262Y-24129D01*
X50801D01*
X52070Y-22859D01*
Y-16511D01*
X54610D02*
X59688D01*
Y-17781D01*
X54610Y-22859D01*
Y-24129D01*
X33022Y-97791D02*
Y-104139D01*
X34292Y-105409D01*
X36831D01*
X38100Y-104139D01*
Y-97791D01*
X45718D02*
X43179Y-99061D01*
X40640Y-101600D01*
Y-104139D01*
X41909Y-105409D01*
X44448D01*
X45718Y-104139D01*
Y-102870D01*
X44448Y-101600D01*
X40640D01*
X29212Y219709D02*
Y213361D01*
X30482Y212091D01*
X33021D01*
X34290Y213361D01*
Y219709D01*
X41908D02*
X36830D01*
Y215900D01*
X39369Y217170D01*
X40638D01*
X41908Y215900D01*
Y213361D01*
X40638Y212091D01*
X38099D01*
X36830Y213361D01*
X235309Y983242D02*
Y976894D01*
X236578Y975624D01*
X239118D01*
X240387Y976894D01*
Y983242D01*
X242926Y981972D02*
X244196Y983242D01*
X246735D01*
X248005Y981972D01*
Y980702D01*
X246735Y979433D01*
X245465D01*
X246735D01*
X248005Y978163D01*
Y976894D01*
X246735Y975624D01*
X244196D01*
X242926Y976894D01*
X424702Y245109D02*
Y238761D01*
X425972Y237491D01*
X428511D01*
X429780Y238761D01*
Y245109D01*
X437398Y237491D02*
X432320D01*
X437398Y242570D01*
Y243839D01*
X436128Y245109D01*
X433589D01*
X432320Y243839D01*
X335282Y-86361D02*
Y-92709D01*
X336551Y-93979D01*
X339090D01*
X340360Y-92709D01*
Y-86361D01*
X342899Y-93979D02*
X345438D01*
X344169D01*
Y-86361D01*
X342899Y-87631D01*
X183690Y940391D02*
X186084Y942785D01*
X184887Y941588D01*
X188478Y937997D01*
X190872Y940391D02*
X187281Y943982D01*
X189077Y945778D01*
X190274D01*
X191471Y944581D01*
Y943384D01*
X189675Y941588D01*
X194463Y943982D02*
X195660Y945179D01*
X195062Y944581D01*
X191471Y948172D01*
Y946975D01*
X194463Y949967D02*
Y951164D01*
X195660Y952361D01*
X196857D01*
X199251Y949967D01*
X199251Y948770D01*
X198054Y947573D01*
X196857D01*
X194463Y949967D01*
X193823Y973892D02*
X196217Y976286D01*
X195020Y975089D01*
X198610Y971498D01*
X201005Y973892D02*
X197414Y977483D01*
X199209Y979278D01*
X200406D01*
X201603Y978081D01*
Y976884D01*
X199807Y975089D01*
X203997Y978081D02*
X205194D01*
X206391Y979278D01*
X206391Y980475D01*
X203997Y982869D01*
X202800D01*
X201603Y981672D01*
Y980475D01*
X202201Y979876D01*
X203398Y979876D01*
X205194Y981672D01*
X184197Y812338D02*
X186591Y814732D01*
X185394Y813535D01*
X188985Y809944D01*
X191378Y812338D02*
X187788Y815929D01*
X189583Y817725D01*
X190780D01*
X191977Y816528D01*
Y815331D01*
X190182Y813535D01*
X191977Y818922D02*
Y820118D01*
X193174Y821316D01*
X194371D01*
X194969Y820717D01*
Y819520D01*
X196166Y819520D01*
X196765Y818922D01*
X196765Y817725D01*
X195568Y816528D01*
X194371D01*
X193773Y817126D01*
Y818323D01*
X192575Y818323D01*
X191977Y818922D01*
X193773Y818323D02*
X194969Y819520D01*
X218789Y812065D02*
X220482Y814997D01*
X219636Y813531D01*
X224034Y810991D01*
X225726Y813923D02*
X221328Y816463D01*
X222598Y818662D01*
X223754Y818971D01*
X225220Y818125D01*
X225530Y816969D01*
X224260Y814770D01*
X223867Y820861D02*
X225560Y823793D01*
X226293Y823369D01*
X227533Y818745D01*
X228265Y818321D01*
X230917Y811201D02*
X232610Y814133D01*
X231764Y812667D01*
X236162Y810128D01*
X237854Y813060D02*
X233456Y815599D01*
X234726Y817798D01*
X235882Y818108D01*
X237348Y817262D01*
X237658Y816106D01*
X236388Y813907D01*
X237689Y822929D02*
X237575Y821040D01*
X238195Y818728D01*
X239661Y817881D01*
X240817Y818191D01*
X241663Y819657D01*
X241353Y820813D01*
X240620Y821237D01*
X239464Y820927D01*
X238195Y818728D01*
X257891Y808253D02*
X259583Y811185D01*
X258737Y809719D01*
X263135Y807180D01*
X264828Y810112D02*
X260430Y812651D01*
X261700Y814850D01*
X262856Y815160D01*
X264322Y814314D01*
X264631Y813157D01*
X263362Y810958D01*
X264662Y819981D02*
X262969Y817049D01*
X265168Y815779D01*
X265281Y817669D01*
X265705Y818402D01*
X266861Y818711D01*
X268327Y817865D01*
X268637Y816709D01*
X267790Y815243D01*
X266634Y814933D01*
X241829Y21646D02*
X244223Y24040D01*
X243026Y22843D01*
X246616Y19252D01*
X249011Y21646D02*
X245420Y25236D01*
X247215Y27032D01*
X248412D01*
X249609Y25835D01*
Y24638D01*
X247813Y22843D01*
X254397Y27032D02*
X250806Y30623D01*
Y27032D01*
X253200Y29426D01*
X88249Y40024D02*
X90643Y42418D01*
X89446Y41221D01*
X93037Y37630D01*
X95431Y40024D02*
X91840Y43615D01*
X93636Y45410D01*
X94832D01*
X96030Y44214D01*
Y43017D01*
X94234Y41221D01*
X99022Y43615D02*
X100219Y44812D01*
X99620Y44214D01*
X96030Y47804D01*
Y46607D01*
X2543Y-219709D02*
Y-212091D01*
X6352D01*
X7622Y-213361D01*
Y-215900D01*
X6352Y-217170D01*
X2543D01*
X5082D02*
X7622Y-219709D01*
X15239Y-212091D02*
X10161D01*
Y-215900D01*
X12700Y-214630D01*
X13970D01*
X15239Y-215900D01*
Y-218439D01*
X13970Y-219709D01*
X11430D01*
X10161Y-218439D01*
X17778Y-213361D02*
X19048Y-212091D01*
X21587D01*
X22857Y-213361D01*
Y-214630D01*
X21587Y-215900D01*
X20318D01*
X21587D01*
X22857Y-217170D01*
Y-218439D01*
X21587Y-219709D01*
X19048D01*
X17778Y-218439D01*
X-55881Y-212849D02*
X-63499D01*
Y-209040D01*
X-62229Y-207770D01*
X-59690D01*
X-58420Y-209040D01*
Y-212849D01*
Y-210310D02*
X-55881Y-207770D01*
X-63499Y-200153D02*
Y-205231D01*
X-59690D01*
X-60960Y-202692D01*
Y-201422D01*
X-59690Y-200153D01*
X-57151D01*
X-55881Y-201422D01*
Y-203962D01*
X-57151Y-205231D01*
X-55881Y-192535D02*
Y-197614D01*
X-60960Y-192535D01*
X-62229D01*
X-63499Y-193805D01*
Y-196344D01*
X-62229Y-197614D01*
X442479Y-218437D02*
X434861D01*
Y-214628D01*
X436131Y-213359D01*
X438670D01*
X439939Y-214628D01*
Y-218437D01*
Y-215898D02*
X442479Y-213359D01*
X434861Y-205741D02*
Y-210820D01*
X438670D01*
X437400Y-208280D01*
Y-207011D01*
X438670Y-205741D01*
X441209D01*
X442479Y-207011D01*
Y-209550D01*
X441209Y-210820D01*
X442479Y-203202D02*
Y-200663D01*
Y-201932D01*
X434861D01*
X436131Y-203202D01*
X513599Y-228597D02*
X505981D01*
Y-224788D01*
X507251Y-223518D01*
X509790D01*
X511060Y-224788D01*
Y-228597D01*
Y-226057D02*
X513599Y-223518D01*
X505981Y-215901D02*
Y-220979D01*
X509790D01*
X508520Y-218440D01*
Y-217170D01*
X509790Y-215901D01*
X512329D01*
X513599Y-217170D01*
Y-219710D01*
X512329Y-220979D01*
X507251Y-213362D02*
X505981Y-212092D01*
Y-209553D01*
X507251Y-208283D01*
X512329D01*
X513599Y-209553D01*
Y-212092D01*
X512329Y-213362D01*
X507251D01*
X396759Y830584D02*
X389141D01*
Y834393D01*
X390411Y835663D01*
X392950D01*
X394220Y834393D01*
Y830584D01*
Y833124D02*
X396759Y835663D01*
Y842011D02*
X389141D01*
X392950Y838202D01*
Y843280D01*
X395489Y845820D02*
X396759Y847089D01*
Y849628D01*
X395489Y850898D01*
X390411D01*
X389141Y849628D01*
Y847089D01*
X390411Y845820D01*
X391680D01*
X392950Y847089D01*
Y850898D01*
X390411Y858515D02*
X389141Y857246D01*
Y854707D01*
X390411Y853437D01*
X395489D01*
X396759Y854707D01*
Y857246D01*
X395489Y858515D01*
X366284Y-48259D02*
Y-40641D01*
X370093D01*
X371363Y-41911D01*
Y-44450D01*
X370093Y-45720D01*
X366284D01*
X368824D02*
X371363Y-48259D01*
X377711D02*
Y-40641D01*
X373902Y-44450D01*
X378980D01*
X381520Y-46989D02*
X382789Y-48259D01*
X385328D01*
X386598Y-46989D01*
Y-41911D01*
X385328Y-40641D01*
X382789D01*
X381520Y-41911D01*
Y-43180D01*
X382789Y-44450D01*
X386598D01*
X389137Y-40641D02*
Y-48259D01*
X392946D01*
X394216Y-46989D01*
Y-45720D01*
X392946Y-44450D01*
X389137D01*
X392946D01*
X394216Y-43180D01*
Y-41911D01*
X392946Y-40641D01*
X389137D01*
X396759Y868684D02*
X389141D01*
Y872493D01*
X390411Y873763D01*
X392950D01*
X394220Y872493D01*
Y868684D01*
Y871224D02*
X396759Y873763D01*
Y880111D02*
X389141D01*
X392950Y876302D01*
Y881380D01*
X390411Y883920D02*
X389141Y885189D01*
Y887728D01*
X390411Y888998D01*
X391680D01*
X392950Y887728D01*
X394220Y888998D01*
X395489D01*
X396759Y887728D01*
Y885189D01*
X395489Y883920D01*
X394220D01*
X392950Y885189D01*
X391680Y883920D01*
X390411D01*
X392950Y885189D02*
Y887728D01*
X390411Y896616D02*
X389141Y895346D01*
Y892807D01*
X390411Y891537D01*
X395489D01*
X396759Y892807D01*
Y895346D01*
X395489Y896616D01*
X328185Y-48259D02*
Y-40641D01*
X331993D01*
X333263Y-41911D01*
Y-44450D01*
X331993Y-45720D01*
X328185D01*
X330724D02*
X333263Y-48259D01*
X339611D02*
Y-40641D01*
X335802Y-44450D01*
X340880D01*
X343420Y-41911D02*
X344689Y-40641D01*
X347228D01*
X348498Y-41911D01*
Y-43180D01*
X347228Y-44450D01*
X348498Y-45720D01*
Y-46989D01*
X347228Y-48259D01*
X344689D01*
X343420Y-46989D01*
Y-45720D01*
X344689Y-44450D01*
X343420Y-43180D01*
Y-41911D01*
X344689Y-44450D02*
X347228D01*
X351037Y-40641D02*
Y-48259D01*
X354846D01*
X356115Y-46989D01*
Y-45720D01*
X354846Y-44450D01*
X351037D01*
X354846D01*
X356115Y-43180D01*
Y-41911D01*
X354846Y-40641D01*
X351037D01*
X-79491Y786134D02*
X-87109D01*
Y789943D01*
X-85839Y791213D01*
X-83300D01*
X-82030Y789943D01*
Y786134D01*
Y788674D02*
X-79491Y791213D01*
X-85839Y793752D02*
X-87109Y795022D01*
Y797561D01*
X-85839Y798830D01*
X-84570D01*
X-83300Y797561D01*
Y796291D01*
Y797561D01*
X-82030Y798830D01*
X-80761D01*
X-79491Y797561D01*
Y795022D01*
X-80761Y793752D01*
Y801370D02*
X-79491Y802639D01*
Y805178D01*
X-80761Y806448D01*
X-85839D01*
X-87109Y805178D01*
Y802639D01*
X-85839Y801370D01*
X-84570D01*
X-83300Y802639D01*
Y806448D01*
X-87109Y808987D02*
X-79491D01*
Y812796D01*
X-80761Y814065D01*
X-82030D01*
X-83300Y812796D01*
Y808987D01*
Y812796D01*
X-84570Y814065D01*
X-85839D01*
X-87109Y812796D01*
Y808987D01*
X189229Y-90166D02*
X181611D01*
Y-86357D01*
X182881Y-85087D01*
X185420D01*
X186690Y-86357D01*
Y-90166D01*
Y-87626D02*
X189229Y-85087D01*
X182881Y-82548D02*
X181611Y-81278D01*
Y-78739D01*
X182881Y-77470D01*
X184150D01*
X185420Y-78739D01*
Y-80009D01*
Y-78739D01*
X186690Y-77470D01*
X187959D01*
X189229Y-78739D01*
Y-81278D01*
X187959Y-82548D01*
Y-74930D02*
X189229Y-73661D01*
Y-71122D01*
X187959Y-69852D01*
X182881D01*
X181611Y-71122D01*
Y-73661D01*
X182881Y-74930D01*
X184150D01*
X185420Y-73661D01*
Y-69852D01*
X189229Y-67313D02*
X184150D01*
X181611Y-64774D01*
X184150Y-62235D01*
X189229D01*
X185420D01*
Y-67313D01*
X-52815Y815341D02*
Y822959D01*
X-49007D01*
X-47737Y821689D01*
Y819150D01*
X-49007Y817880D01*
X-52815D01*
X-50276D02*
X-47737Y815341D01*
X-45198Y821689D02*
X-43928Y822959D01*
X-41389D01*
X-40120Y821689D01*
Y820420D01*
X-41389Y819150D01*
X-42659D01*
X-41389D01*
X-40120Y817880D01*
Y816611D01*
X-41389Y815341D01*
X-43928D01*
X-45198Y816611D01*
X-37580Y821689D02*
X-36311Y822959D01*
X-33772D01*
X-32502Y821689D01*
Y820420D01*
X-33772Y819150D01*
X-32502Y817880D01*
Y816611D01*
X-33772Y815341D01*
X-36311D01*
X-37580Y816611D01*
Y817880D01*
X-36311Y819150D01*
X-37580Y820420D01*
Y821689D01*
X-36311Y819150D02*
X-33772D01*
X-29963Y822959D02*
Y815341D01*
X-26154D01*
X-24885Y816611D01*
Y817880D01*
X-26154Y819150D01*
X-29963D01*
X-26154D01*
X-24885Y820420D01*
Y821689D01*
X-26154Y822959D01*
X-29963D01*
X189229Y-44446D02*
X181611D01*
Y-40637D01*
X182881Y-39367D01*
X185420D01*
X186689Y-40637D01*
Y-44446D01*
Y-41906D02*
X189229Y-39367D01*
X182881Y-36828D02*
X181611Y-35558D01*
Y-33019D01*
X182881Y-31750D01*
X184150D01*
X185420Y-33019D01*
Y-34289D01*
Y-33019D01*
X186689Y-31750D01*
X187959D01*
X189229Y-33019D01*
Y-35558D01*
X187959Y-36828D01*
X182881Y-29210D02*
X181611Y-27941D01*
Y-25402D01*
X182881Y-24132D01*
X184150D01*
X185420Y-25402D01*
X186689Y-24132D01*
X187959D01*
X189229Y-25402D01*
Y-27941D01*
X187959Y-29210D01*
X186689D01*
X185420Y-27941D01*
X184150Y-29210D01*
X182881D01*
X185420Y-27941D02*
Y-25402D01*
X189229Y-21593D02*
X184150D01*
X181611Y-19054D01*
X184150Y-16515D01*
X189229D01*
X185420D01*
Y-21593D01*
X133349Y-27937D02*
X125731D01*
Y-24128D01*
X127001Y-22858D01*
X129540D01*
X130810Y-24128D01*
Y-27937D01*
Y-25398D02*
X133349Y-22858D01*
X127001Y-20319D02*
X125731Y-19050D01*
Y-16510D01*
X127001Y-15241D01*
X128270D01*
X129540Y-16510D01*
Y-17780D01*
Y-16510D01*
X130810Y-15241D01*
X132079D01*
X133349Y-16510D01*
Y-19050D01*
X132079Y-20319D01*
X125731Y-12702D02*
Y-7623D01*
X127001D01*
X132079Y-12702D01*
X133349D01*
X-22341Y-187191D02*
X-29959D01*
Y-183383D01*
X-28689Y-182113D01*
X-26150D01*
X-24880Y-183383D01*
Y-187191D01*
Y-184652D02*
X-22341Y-182113D01*
X-28689Y-179574D02*
X-29959Y-178304D01*
Y-175765D01*
X-28689Y-174496D01*
X-27420D01*
X-26150Y-175765D01*
Y-177035D01*
Y-175765D01*
X-24880Y-174496D01*
X-23611D01*
X-22341Y-175765D01*
Y-178304D01*
X-23611Y-179574D01*
X-29959Y-166878D02*
X-28689Y-169417D01*
X-26150Y-171956D01*
X-23611D01*
X-22341Y-170687D01*
Y-168148D01*
X-23611Y-166878D01*
X-24880D01*
X-26150Y-168148D01*
Y-171956D01*
X28459Y-187191D02*
X20841D01*
Y-183383D01*
X22111Y-182113D01*
X24650D01*
X25920Y-183383D01*
Y-187191D01*
Y-184652D02*
X28459Y-182113D01*
X22111Y-179574D02*
X20841Y-178304D01*
Y-175765D01*
X22111Y-174496D01*
X23380D01*
X24650Y-175765D01*
Y-177035D01*
Y-175765D01*
X25920Y-174496D01*
X27189D01*
X28459Y-175765D01*
Y-178304D01*
X27189Y-179574D01*
X20841Y-166878D02*
Y-171956D01*
X24650D01*
X23380Y-169417D01*
Y-168148D01*
X24650Y-166878D01*
X27189D01*
X28459Y-168148D01*
Y-170687D01*
X27189Y-171956D01*
X-30368Y-77707D02*
Y-70089D01*
X-26559D01*
X-25290Y-71359D01*
Y-73898D01*
X-26559Y-75168D01*
X-30368D01*
X-27829D02*
X-25290Y-77707D01*
X-22751Y-71359D02*
X-21481Y-70089D01*
X-18942D01*
X-17672Y-71359D01*
Y-72629D01*
X-18942Y-73898D01*
X-20211D01*
X-18942D01*
X-17672Y-75168D01*
Y-76437D01*
X-18942Y-77707D01*
X-21481D01*
X-22751Y-76437D01*
X-11324Y-77707D02*
Y-70089D01*
X-15133Y-73898D01*
X-10055D01*
X149098Y125731D02*
Y133349D01*
X152907D01*
X154176Y132079D01*
Y129540D01*
X152907Y128270D01*
X149098D01*
X151637D02*
X154176Y125731D01*
X156715Y132079D02*
X157985Y133349D01*
X160524D01*
X161794Y132079D01*
Y130810D01*
X160524Y129540D01*
X159255D01*
X160524D01*
X161794Y128270D01*
Y127001D01*
X160524Y125731D01*
X157985D01*
X156715Y127001D01*
X164333Y132079D02*
X165603Y133349D01*
X168142D01*
X169411Y132079D01*
Y130810D01*
X168142Y129540D01*
X166872D01*
X168142D01*
X169411Y128270D01*
Y127001D01*
X168142Y125731D01*
X165603D01*
X164333Y127001D01*
X149098Y113031D02*
Y120649D01*
X152907D01*
X154176Y119379D01*
Y116840D01*
X152907Y115570D01*
X149098D01*
X151637D02*
X154176Y113031D01*
X156715Y119379D02*
X157985Y120649D01*
X160524D01*
X161794Y119379D01*
Y118110D01*
X160524Y116840D01*
X159255D01*
X160524D01*
X161794Y115570D01*
Y114301D01*
X160524Y113031D01*
X157985D01*
X156715Y114301D01*
X169411Y113031D02*
X164333D01*
X169411Y118110D01*
Y119379D01*
X168142Y120649D01*
X165603D01*
X164333Y119379D01*
X149098Y152401D02*
Y160019D01*
X152907D01*
X154176Y158749D01*
Y156210D01*
X152907Y154940D01*
X149098D01*
X151637D02*
X154176Y152401D01*
X156715Y158749D02*
X157985Y160019D01*
X160524D01*
X161794Y158749D01*
Y157480D01*
X160524Y156210D01*
X159255D01*
X160524D01*
X161794Y154940D01*
Y153671D01*
X160524Y152401D01*
X157985D01*
X156715Y153671D01*
X164333Y158749D02*
X165603Y160019D01*
X168142D01*
X169411Y158749D01*
Y153671D01*
X168142Y152401D01*
X165603D01*
X164333Y153671D01*
Y158749D01*
X149098Y138431D02*
Y146049D01*
X152907D01*
X154176Y144779D01*
Y142240D01*
X152907Y140970D01*
X149098D01*
X151637D02*
X154176Y138431D01*
X161794D02*
X156715D01*
X161794Y143510D01*
Y144779D01*
X160524Y146049D01*
X157985D01*
X156715Y144779D01*
X164333Y139701D02*
X165603Y138431D01*
X168142D01*
X169411Y139701D01*
Y144779D01*
X168142Y146049D01*
X165603D01*
X164333Y144779D01*
Y143510D01*
X165603Y142240D01*
X169411D01*
X-43942Y171451D02*
Y179069D01*
X-40133D01*
X-38864Y177799D01*
Y175260D01*
X-40133Y173990D01*
X-43942D01*
X-41403D02*
X-38864Y171451D01*
X-31246D02*
X-36325D01*
X-31246Y176530D01*
Y177799D01*
X-32516Y179069D01*
X-35055D01*
X-36325Y177799D01*
X-28707Y179069D02*
X-23629D01*
Y177799D01*
X-28707Y172721D01*
Y171451D01*
X-43942Y135891D02*
Y143509D01*
X-40133D01*
X-38864Y142239D01*
Y139700D01*
X-40133Y138430D01*
X-43942D01*
X-41403D02*
X-38864Y135891D01*
X-31246D02*
X-36325D01*
X-31246Y140970D01*
Y142239D01*
X-32516Y143509D01*
X-35055D01*
X-36325Y142239D01*
X-23629Y143509D02*
X-28707D01*
Y139700D01*
X-26168Y140970D01*
X-24898D01*
X-23629Y139700D01*
Y137161D01*
X-24898Y135891D01*
X-27437D01*
X-28707Y137161D01*
X-43942Y115571D02*
Y123189D01*
X-40133D01*
X-38864Y121919D01*
Y119380D01*
X-40133Y118110D01*
X-43942D01*
X-41403D02*
X-38864Y115571D01*
X-31246D02*
X-36325D01*
X-31246Y120650D01*
Y121919D01*
X-32516Y123189D01*
X-35055D01*
X-36325Y121919D01*
X-24898Y115571D02*
Y123189D01*
X-28707Y119380D01*
X-23629D01*
X166893Y-149859D02*
Y-142241D01*
X170702D01*
X171972Y-143511D01*
Y-146050D01*
X170702Y-147320D01*
X166893D01*
X169433D02*
X171972Y-149859D01*
X179589D02*
X174511D01*
X179589Y-144780D01*
Y-143511D01*
X178320Y-142241D01*
X175780D01*
X174511Y-143511D01*
X182128D02*
X183398Y-142241D01*
X185937D01*
X187207Y-143511D01*
Y-144780D01*
X185937Y-146050D01*
X184668D01*
X185937D01*
X187207Y-147320D01*
Y-148589D01*
X185937Y-149859D01*
X183398D01*
X182128Y-148589D01*
X115589Y981711D02*
Y989329D01*
X119397D01*
X120667Y988059D01*
Y985520D01*
X119397Y984250D01*
X115589D01*
X118128D02*
X120667Y981711D01*
X128285D02*
X123206D01*
X128285Y986790D01*
Y988059D01*
X127015Y989329D01*
X124476D01*
X123206Y988059D01*
X135902Y981711D02*
X130824D01*
X135902Y986790D01*
Y988059D01*
X134632Y989329D01*
X132093D01*
X130824Y988059D01*
X283729Y989838D02*
X276111D01*
Y993647D01*
X277381Y994916D01*
X279920D01*
X281190Y993647D01*
Y989838D01*
Y992377D02*
X283729Y994916D01*
Y1002534D02*
Y997456D01*
X278650Y1002534D01*
X277381D01*
X276111Y1001264D01*
Y998725D01*
X277381Y997456D01*
X283729Y1005073D02*
Y1007612D01*
Y1006343D01*
X276111D01*
X277381Y1005073D01*
X115589Y961391D02*
Y969009D01*
X119397D01*
X120667Y967739D01*
Y965200D01*
X119397Y963930D01*
X115589D01*
X118128D02*
X120667Y961391D01*
X128285D02*
X123206D01*
X128285Y966470D01*
Y967739D01*
X127015Y969009D01*
X124476D01*
X123206Y967739D01*
X130824D02*
X132093Y969009D01*
X134632D01*
X135902Y967739D01*
Y962661D01*
X134632Y961391D01*
X132093D01*
X130824Y962661D01*
Y967739D01*
X298969Y989838D02*
X291351D01*
Y993647D01*
X292621Y994916D01*
X295160D01*
X296430Y993647D01*
Y989838D01*
Y992377D02*
X298969Y994916D01*
Y997456D02*
Y999995D01*
Y998725D01*
X291351D01*
X292621Y997456D01*
X297699Y1003803D02*
X298969Y1005073D01*
Y1007612D01*
X297699Y1008882D01*
X292621D01*
X291351Y1007612D01*
Y1005073D01*
X292621Y1003803D01*
X293890D01*
X295160Y1005073D01*
Y1008882D01*
X193041Y846452D02*
X200659D01*
Y842643D01*
X199389Y841374D01*
X196850D01*
X195580Y842643D01*
Y846452D01*
Y843913D02*
X193041Y841374D01*
Y838834D02*
Y836295D01*
Y837565D01*
X200659D01*
X199389Y838834D01*
Y832486D02*
X200659Y831217D01*
Y828678D01*
X199389Y827408D01*
X198120D01*
X196850Y828678D01*
X195580Y827408D01*
X194311D01*
X193041Y828678D01*
Y831217D01*
X194311Y832486D01*
X195580D01*
X196850Y831217D01*
X198120Y832486D01*
X199389D01*
X196850Y831217D02*
Y828678D01*
X212091Y846452D02*
X219709D01*
Y842643D01*
X218439Y841374D01*
X215900D01*
X214630Y842643D01*
Y846452D01*
Y843913D02*
X212091Y841374D01*
Y838834D02*
Y836295D01*
Y837565D01*
X219709D01*
X218439Y838834D01*
X219709Y832486D02*
Y827408D01*
X218439D01*
X213361Y832486D01*
X212091D01*
X241301Y846452D02*
X248919D01*
Y842643D01*
X247649Y841374D01*
X245110D01*
X243840Y842643D01*
Y846452D01*
Y843913D02*
X241301Y841374D01*
Y838834D02*
Y836295D01*
Y837565D01*
X248919D01*
X247649Y838834D01*
X248919Y827408D02*
X247649Y829947D01*
X245110Y832486D01*
X242571D01*
X241301Y831217D01*
Y828678D01*
X242571Y827408D01*
X243840D01*
X245110Y828678D01*
Y832486D01*
X261621Y846452D02*
X269239D01*
Y842643D01*
X267969Y841374D01*
X265430D01*
X264160Y842643D01*
Y846452D01*
Y843913D02*
X261621Y841374D01*
Y838834D02*
Y836295D01*
Y837565D01*
X269239D01*
X267969Y838834D01*
X269239Y827408D02*
Y832486D01*
X265430D01*
X266700Y829947D01*
Y828678D01*
X265430Y827408D01*
X262891D01*
X261621Y828678D01*
Y831217D01*
X262891Y832486D01*
X116858Y892811D02*
Y900429D01*
X120667D01*
X121937Y899159D01*
Y896620D01*
X120667Y895350D01*
X116858D01*
X119397D02*
X121937Y892811D01*
X124476D02*
X127015D01*
X125745D01*
Y900429D01*
X124476Y899159D01*
X134632Y892811D02*
Y900429D01*
X130824Y896620D01*
X135902D01*
X314209Y989838D02*
X306591D01*
Y993647D01*
X307861Y994916D01*
X310400D01*
X311670Y993647D01*
Y989838D01*
Y992377D02*
X314209Y994916D01*
Y997456D02*
Y999995D01*
Y998725D01*
X306591D01*
X307861Y997456D01*
Y1003803D02*
X306591Y1005073D01*
Y1007612D01*
X307861Y1008882D01*
X309130D01*
X310400Y1007612D01*
Y1006343D01*
Y1007612D01*
X311670Y1008882D01*
X312939D01*
X314209Y1007612D01*
Y1005073D01*
X312939Y1003803D01*
X483628Y154941D02*
Y162559D01*
X487437D01*
X488706Y161289D01*
Y158750D01*
X487437Y157480D01*
X483628D01*
X486167D02*
X488706Y154941D01*
X491245D02*
X493785D01*
X492515D01*
Y162559D01*
X491245Y161289D01*
X497593Y154941D02*
X500133D01*
X498863D01*
Y162559D01*
X497593Y161289D01*
X313578Y269241D02*
Y276859D01*
X317387D01*
X318656Y275589D01*
Y273050D01*
X317387Y271780D01*
X313578D01*
X316117D02*
X318656Y269241D01*
X321196D02*
X323735D01*
X322465D01*
Y276859D01*
X321196Y275589D01*
X327544D02*
X328813Y276859D01*
X331352D01*
X332622Y275589D01*
Y270511D01*
X331352Y269241D01*
X328813D01*
X327544Y270511D01*
Y275589D01*
X483628Y173991D02*
Y181609D01*
X487437D01*
X488706Y180339D01*
Y177800D01*
X487437Y176530D01*
X483628D01*
X486167D02*
X488706Y173991D01*
X491245Y175261D02*
X492515Y173991D01*
X495054D01*
X496324Y175261D01*
Y180339D01*
X495054Y181609D01*
X492515D01*
X491245Y180339D01*
Y179070D01*
X492515Y177800D01*
X496324D01*
X322582Y229871D02*
Y237489D01*
X326391D01*
X327660Y236219D01*
Y233680D01*
X326391Y232410D01*
X322582D01*
X325121D02*
X327660Y229871D01*
X330200Y237489D02*
X335278D01*
Y236219D01*
X330200Y231141D01*
Y229871D01*
X428498Y-67309D02*
Y-59691D01*
X432307D01*
X433576Y-60961D01*
Y-63500D01*
X432307Y-64770D01*
X428498D01*
X431037D02*
X433576Y-67309D01*
X441194Y-59691D02*
X436115D01*
Y-63500D01*
X438655Y-62230D01*
X439924D01*
X441194Y-63500D01*
Y-66039D01*
X439924Y-67309D01*
X437385D01*
X436115Y-66039D01*
X428498Y-163829D02*
Y-156211D01*
X432307D01*
X433576Y-157481D01*
Y-160020D01*
X432307Y-161290D01*
X428498D01*
X431037D02*
X433576Y-163829D01*
X439924D02*
Y-156211D01*
X436115Y-160020D01*
X441194D01*
X428498Y-92709D02*
Y-85091D01*
X432307D01*
X433576Y-86361D01*
Y-88900D01*
X432307Y-90170D01*
X428498D01*
X431037D02*
X433576Y-92709D01*
X436115Y-86361D02*
X437385Y-85091D01*
X439924D01*
X441194Y-86361D01*
Y-87630D01*
X439924Y-88900D01*
X438655D01*
X439924D01*
X441194Y-90170D01*
Y-91439D01*
X439924Y-92709D01*
X437385D01*
X436115Y-91439D01*
X428498Y-138429D02*
Y-130811D01*
X432307D01*
X433576Y-132081D01*
Y-134620D01*
X432307Y-135890D01*
X428498D01*
X431037D02*
X433576Y-138429D01*
X441194D02*
X436115D01*
X441194Y-133350D01*
Y-132081D01*
X439924Y-130811D01*
X437385D01*
X436115Y-132081D01*
X53859Y-201928D02*
X46241D01*
Y-198120D01*
X47511Y-196850D01*
X50050D01*
X51320Y-198120D01*
Y-201928D01*
Y-199389D02*
X53859Y-196850D01*
Y-194311D02*
Y-191772D01*
Y-193041D01*
X46241D01*
X47511Y-194311D01*
X-12701Y-204978D02*
X-17779D01*
X-19049Y-206247D01*
Y-208786D01*
X-17779Y-210056D01*
X-12701D01*
X-11431Y-208786D01*
Y-206247D01*
X-13970Y-207517D02*
X-11431Y-204978D01*
Y-206247D02*
X-12701Y-204978D01*
X-19049Y-202438D02*
Y-197360D01*
X-17779D01*
X-12701Y-202438D01*
X-11431D01*
X473963Y-219202D02*
X468885D01*
X467615Y-220471D01*
Y-223010D01*
X468885Y-224280D01*
X473963D01*
X475233Y-223010D01*
Y-220471D01*
X472693Y-221741D02*
X475233Y-219202D01*
Y-220471D02*
X473963Y-219202D01*
X467615Y-211584D02*
X468885Y-214123D01*
X471424Y-216662D01*
X473963D01*
X475233Y-215393D01*
Y-212854D01*
X473963Y-211584D01*
X472693D01*
X471424Y-212854D01*
Y-216662D01*
X330722Y800101D02*
Y805179D01*
X329452Y806449D01*
X326913D01*
X325643Y805179D01*
Y800101D01*
X326913Y798831D01*
X329452D01*
X328182Y801370D02*
X330722Y798831D01*
X329452D02*
X330722Y800101D01*
X338339Y806449D02*
X333261D01*
Y802640D01*
X335800Y803910D01*
X337070D01*
X338339Y802640D01*
Y800101D01*
X337070Y798831D01*
X334530D01*
X333261Y800101D01*
X345957Y805179D02*
X344687Y806449D01*
X342148D01*
X340878Y805179D01*
Y800101D01*
X342148Y798831D01*
X344687D01*
X345957Y800101D01*
X408122Y27171D02*
Y32249D01*
X406853Y33519D01*
X404313D01*
X403044Y32249D01*
Y27171D01*
X404313Y25901D01*
X406853D01*
X405583Y28440D02*
X408122Y25901D01*
X406853D02*
X408122Y27171D01*
X415740Y33519D02*
X410661D01*
Y29710D01*
X413200Y30979D01*
X414470D01*
X415740Y29710D01*
Y27171D01*
X414470Y25901D01*
X411931D01*
X410661Y27171D01*
X418279Y33519D02*
Y25901D01*
X422088D01*
X423357Y27171D01*
Y28440D01*
X422088Y29710D01*
X418279D01*
X422088D01*
X423357Y30979D01*
Y32249D01*
X422088Y33519D01*
X418279D01*
X334050Y900989D02*
Y906067D01*
X332781Y907337D01*
X330241D01*
X328972Y906067D01*
Y900989D01*
X330241Y899719D01*
X332781D01*
X331511Y902259D02*
X334050Y899719D01*
X332781D02*
X334050Y900989D01*
X340398Y899719D02*
Y907337D01*
X336589Y903528D01*
X341668D01*
X349285Y906067D02*
X348016Y907337D01*
X345476D01*
X344207Y906067D01*
Y900989D01*
X345476Y899719D01*
X348016D01*
X349285Y900989D01*
X337072Y35561D02*
Y40639D01*
X335802Y41909D01*
X333263D01*
X331993Y40639D01*
Y35561D01*
X333263Y34291D01*
X335802D01*
X334533Y36830D02*
X337072Y34291D01*
X335802D02*
X337072Y35561D01*
X343420Y34291D02*
Y41909D01*
X339611Y38100D01*
X344689D01*
X347228Y41909D02*
Y34291D01*
X351037D01*
X352307Y35561D01*
Y36830D01*
X351037Y38100D01*
X347228D01*
X351037D01*
X352307Y39370D01*
Y40639D01*
X351037Y41909D01*
X347228D01*
X-94997Y845822D02*
X-100075D01*
X-101345Y844552D01*
Y842013D01*
X-100075Y840743D01*
X-94997D01*
X-93727Y842013D01*
Y844552D01*
X-96266Y843282D02*
X-93727Y845822D01*
Y844552D02*
X-94997Y845822D01*
X-100075Y848361D02*
X-101345Y849630D01*
Y852170D01*
X-100075Y853439D01*
X-98806D01*
X-97536Y852170D01*
Y850900D01*
Y852170D01*
X-96266Y853439D01*
X-94997D01*
X-93727Y852170D01*
Y849630D01*
X-94997Y848361D01*
X-101345Y855978D02*
X-93727D01*
Y859787D01*
X-94997Y861057D01*
X-96266D01*
X-97536Y859787D01*
Y855978D01*
Y859787D01*
X-98806Y861057D01*
X-100075D01*
X-101345Y859787D01*
Y855978D01*
X259079Y-87628D02*
X254001D01*
X252731Y-88898D01*
Y-91437D01*
X254001Y-92707D01*
X259079D01*
X260349Y-91437D01*
Y-88898D01*
X257810Y-90168D02*
X260349Y-87628D01*
Y-88898D02*
X259079Y-87628D01*
X254001Y-85089D02*
X252731Y-83820D01*
Y-81280D01*
X254001Y-80011D01*
X255270D01*
X256540Y-81280D01*
Y-82550D01*
Y-81280D01*
X257810Y-80011D01*
X259079D01*
X260349Y-81280D01*
Y-83820D01*
X259079Y-85089D01*
X260349Y-77472D02*
X255270D01*
X252731Y-74932D01*
X255270Y-72393D01*
X260349D01*
X256540D01*
Y-77472D01*
X-10158Y853441D02*
Y858519D01*
X-11428Y859789D01*
X-13967D01*
X-15237Y858519D01*
Y853441D01*
X-13967Y852171D01*
X-11428D01*
X-12697Y854710D02*
X-10158Y852171D01*
X-11428D02*
X-10158Y853441D01*
X-2541Y852171D02*
X-7619D01*
X-2541Y857250D01*
Y858519D01*
X-3810Y859789D01*
X-6350D01*
X-7619Y858519D01*
X-2Y859789D02*
Y852171D01*
X3807D01*
X5077Y853441D01*
Y854710D01*
X3807Y855980D01*
X-2D01*
X3807D01*
X5077Y857250D01*
Y858519D01*
X3807Y859789D01*
X-2D01*
X226062Y-2539D02*
Y2539D01*
X224792Y3809D01*
X222253D01*
X220983Y2539D01*
Y-2539D01*
X222253Y-3809D01*
X224792D01*
X223522Y-1270D02*
X226062Y-3809D01*
X224792D02*
X226062Y-2539D01*
X233679Y-3809D02*
X228601D01*
X233679Y1270D01*
Y2539D01*
X232410Y3809D01*
X229870D01*
X228601Y2539D01*
X236218Y-3809D02*
Y1270D01*
X238758Y3809D01*
X241297Y1270D01*
Y-3809D01*
Y0D01*
X236218D01*
X-89152Y996697D02*
Y1004315D01*
X-85344D01*
X-84074Y1003045D01*
Y1000506D01*
X-85344Y999236D01*
X-89152D01*
X-81535Y996697D02*
X-78996D01*
X-80265D01*
Y1004315D01*
X-81535Y1003045D01*
X257809Y53243D02*
X250191D01*
X252730Y55782D01*
X250191Y58321D01*
X257809D01*
X250191Y60860D02*
X257809D01*
Y64669D01*
X256539Y65939D01*
X251461D01*
X250191Y64669D01*
Y60860D01*
X257809Y68478D02*
Y71017D01*
Y69748D01*
X250191D01*
X251461Y68478D01*
X108472Y-199391D02*
Y-207009D01*
Y-204470D01*
X113550Y-199391D01*
X109741Y-203200D01*
X113550Y-207009D01*
X116089D02*
X118628D01*
X117359D01*
Y-199391D01*
X116089Y-200661D01*
X328180Y-180341D02*
X325641D01*
X326911D01*
Y-186689D01*
X325641Y-187959D01*
X324372D01*
X323102Y-186689D01*
X334528Y-187959D02*
Y-180341D01*
X330720Y-184150D01*
X335798D01*
X399044Y155700D02*
X396505D01*
X397775D01*
Y149352D01*
X396505Y148082D01*
X395236D01*
X393966Y149352D01*
X401584Y154430D02*
X402853Y155700D01*
X405392D01*
X406662Y154430D01*
Y153160D01*
X405392Y151891D01*
X404123D01*
X405392D01*
X406662Y150621D01*
Y149352D01*
X405392Y148082D01*
X402853D01*
X401584Y149352D01*
X378913Y302802D02*
X376374D01*
X377643D01*
Y296454D01*
X376374Y295185D01*
X375104D01*
X373834Y296454D01*
X386530Y295185D02*
X381452D01*
X386530Y300263D01*
Y301532D01*
X385261Y302802D01*
X382722D01*
X381452Y301532D01*
X37350Y-205741D02*
X34811D01*
X36080D01*
Y-212089D01*
X34811Y-213359D01*
X33541D01*
X32272Y-212089D01*
X39889Y-213359D02*
X42428D01*
X41159D01*
Y-205741D01*
X39889Y-207011D01*
X90678Y110489D02*
Y102871D01*
X94487D01*
X95756Y104141D01*
Y109219D01*
X94487Y110489D01*
X90678D01*
X98295D02*
X103374D01*
Y109219D01*
X98295Y104141D01*
Y102871D01*
X90678Y95249D02*
Y87631D01*
X94487D01*
X95756Y88901D01*
Y93979D01*
X94487Y95249D01*
X90678D01*
X103374D02*
X100835Y93979D01*
X98295Y91440D01*
Y88901D01*
X99565Y87631D01*
X102104D01*
X103374Y88901D01*
Y90170D01*
X102104Y91440D01*
X98295D01*
X-43942Y196849D02*
Y189231D01*
X-40133D01*
X-38864Y190501D01*
Y195579D01*
X-40133Y196849D01*
X-43942D01*
X-32516Y189231D02*
Y196849D01*
X-36325Y193040D01*
X-31246D01*
X-43942Y212089D02*
Y204471D01*
X-40133D01*
X-38864Y205741D01*
Y210819D01*
X-40133Y212089D01*
X-43942D01*
X-36325Y210819D02*
X-35055Y212089D01*
X-32516D01*
X-31246Y210819D01*
Y209550D01*
X-32516Y208280D01*
X-33785D01*
X-32516D01*
X-31246Y207010D01*
Y205741D01*
X-32516Y204471D01*
X-35055D01*
X-36325Y205741D01*
X-43942Y161289D02*
Y153671D01*
X-40133D01*
X-38864Y154941D01*
Y160019D01*
X-40133Y161289D01*
X-43942D01*
X-31246Y153671D02*
X-36325D01*
X-31246Y158750D01*
Y160019D01*
X-32516Y161289D01*
X-35055D01*
X-36325Y160019D01*
X314962Y198119D02*
Y190501D01*
X318770D01*
X320040Y191771D01*
Y196849D01*
X318770Y198119D01*
X314962D01*
X322579Y190501D02*
X325118D01*
X323849D01*
Y198119D01*
X322579Y196849D01*
X-18286Y-256795D02*
X-19556Y-255525D01*
X-22095D01*
X-23365Y-256795D01*
Y-261873D01*
X-22095Y-263143D01*
X-19556D01*
X-18286Y-261873D01*
X-15747Y-256795D02*
X-14478Y-255525D01*
X-11938D01*
X-10669Y-256795D01*
Y-258064D01*
X-11938Y-259334D01*
X-13208D01*
X-11938D01*
X-10669Y-260604D01*
Y-261873D01*
X-11938Y-263143D01*
X-14478D01*
X-15747Y-261873D01*
X-8130D02*
X-6860Y-263143D01*
X-4321D01*
X-3051Y-261873D01*
Y-256795D01*
X-4321Y-255525D01*
X-6860D01*
X-8130Y-256795D01*
Y-258064D01*
X-6860Y-259334D01*
X-3051D01*
X526302Y-176531D02*
X525032Y-175261D01*
X522493D01*
X521223Y-176531D01*
Y-181609D01*
X522493Y-182879D01*
X525032D01*
X526302Y-181609D01*
X528841Y-176531D02*
X530110Y-175261D01*
X532650D01*
X533919Y-176531D01*
Y-177800D01*
X532650Y-179070D01*
X531380D01*
X532650D01*
X533919Y-180340D01*
Y-181609D01*
X532650Y-182879D01*
X530110D01*
X528841Y-181609D01*
X536458Y-176531D02*
X537728Y-175261D01*
X540267D01*
X541537Y-176531D01*
Y-177800D01*
X540267Y-179070D01*
X541537Y-180340D01*
Y-181609D01*
X540267Y-182879D01*
X537728D01*
X536458Y-181609D01*
Y-180340D01*
X537728Y-179070D01*
X536458Y-177800D01*
Y-176531D01*
X537728Y-179070D02*
X540267D01*
X293369Y842007D02*
X294639Y843277D01*
Y845816D01*
X293369Y847085D01*
X288291D01*
X287021Y845816D01*
Y843277D01*
X288291Y842007D01*
X293369Y839468D02*
X294639Y838198D01*
Y835659D01*
X293369Y834390D01*
X292100D01*
X290830Y835659D01*
Y836929D01*
Y835659D01*
X289560Y834390D01*
X288291D01*
X287021Y835659D01*
Y838198D01*
X288291Y839468D01*
X294639Y826772D02*
Y831850D01*
X290830D01*
X292100Y829311D01*
Y828042D01*
X290830Y826772D01*
X288291D01*
X287021Y828042D01*
Y830581D01*
X288291Y831850D01*
X293369Y819155D02*
X294639Y820424D01*
Y822963D01*
X293369Y824233D01*
X288291D01*
X287021Y822963D01*
Y820424D01*
X288291Y819155D01*
X307861Y-40637D02*
X306591Y-41907D01*
Y-44446D01*
X307861Y-45715D01*
X312939D01*
X314209Y-44446D01*
Y-41907D01*
X312939Y-40637D01*
X307861Y-38098D02*
X306591Y-36828D01*
Y-34289D01*
X307861Y-33020D01*
X309130D01*
X310400Y-34289D01*
Y-35559D01*
Y-34289D01*
X311670Y-33020D01*
X312939D01*
X314209Y-34289D01*
Y-36828D01*
X312939Y-38098D01*
X306591Y-25402D02*
Y-30480D01*
X310400D01*
X309130Y-27941D01*
Y-26672D01*
X310400Y-25402D01*
X312939D01*
X314209Y-26672D01*
Y-29211D01*
X312939Y-30480D01*
X306591Y-22863D02*
X314209D01*
Y-19054D01*
X312939Y-17785D01*
X311670D01*
X310400Y-19054D01*
Y-22863D01*
Y-19054D01*
X309130Y-17785D01*
X307861D01*
X306591Y-19054D01*
Y-22863D01*
X15241Y873763D02*
X13971Y872493D01*
Y869954D01*
X15241Y868684D01*
X20319D01*
X21589Y869954D01*
Y872493D01*
X20319Y873763D01*
X21589Y881380D02*
Y876302D01*
X16510Y881380D01*
X15241D01*
X13971Y880111D01*
Y877572D01*
X15241Y876302D01*
X21589Y887728D02*
X13971D01*
X17780Y883920D01*
Y888998D01*
X13971Y891537D02*
X21589D01*
Y895346D01*
X20319Y896616D01*
X19050D01*
X17780Y895346D01*
Y891537D01*
Y895346D01*
X16510Y896616D01*
X15241D01*
X13971Y895346D01*
Y891537D01*
X276861Y-39367D02*
X275591Y-40637D01*
Y-43176D01*
X276861Y-44446D01*
X281939D01*
X283209Y-43176D01*
Y-40637D01*
X281939Y-39367D01*
X283209Y-31750D02*
Y-36828D01*
X278130Y-31750D01*
X276861D01*
X275591Y-33019D01*
Y-35558D01*
X276861Y-36828D01*
X283209Y-25402D02*
X275591D01*
X279400Y-29210D01*
Y-24132D01*
X283209Y-21593D02*
X278130D01*
X275591Y-19054D01*
X278130Y-16515D01*
X283209D01*
X279400D01*
Y-21593D01*
X40642Y-54611D02*
X39372Y-53341D01*
X36833D01*
X35563Y-54611D01*
Y-59689D01*
X36833Y-60959D01*
X39372D01*
X40642Y-59689D01*
X48259Y-60959D02*
X43181D01*
X48259Y-55880D01*
Y-54611D01*
X46990Y-53341D01*
X44450D01*
X43181Y-54611D01*
X50798D02*
X52068Y-53341D01*
X54607D01*
X55877Y-54611D01*
Y-55880D01*
X54607Y-57150D01*
X53338D01*
X54607D01*
X55877Y-58420D01*
Y-59689D01*
X54607Y-60959D01*
X52068D01*
X50798Y-59689D01*
X78742Y-109221D02*
X77472Y-107951D01*
X74933D01*
X73663Y-109221D01*
Y-114299D01*
X74933Y-115569D01*
X77472D01*
X78742Y-114299D01*
X86359Y-115569D02*
X81281D01*
X86359Y-110490D01*
Y-109221D01*
X85090Y-107951D01*
X82550D01*
X81281Y-109221D01*
X93977Y-115569D02*
X88898D01*
X93977Y-110490D01*
Y-109221D01*
X92707Y-107951D01*
X90168D01*
X88898Y-109221D01*
X-11683Y-182114D02*
X-12953Y-183384D01*
Y-185923D01*
X-11683Y-187192D01*
X-6605D01*
X-5335Y-185923D01*
Y-183384D01*
X-6605Y-182114D01*
X-5335Y-174496D02*
Y-179575D01*
X-10414Y-174496D01*
X-11683D01*
X-12953Y-175766D01*
Y-178305D01*
X-11683Y-179575D01*
X-5335Y-171957D02*
Y-169418D01*
Y-170688D01*
X-12953D01*
X-11683Y-171957D01*
X-33019Y-106678D02*
X-34289Y-107948D01*
Y-110487D01*
X-33019Y-111757D01*
X-27941D01*
X-26671Y-110487D01*
Y-107948D01*
X-27941Y-106678D01*
X-26671Y-99061D02*
Y-104139D01*
X-31750Y-99061D01*
X-33019D01*
X-34289Y-100330D01*
Y-102870D01*
X-33019Y-104139D01*
Y-96522D02*
X-34289Y-95252D01*
Y-92713D01*
X-33019Y-91443D01*
X-27941D01*
X-26671Y-92713D01*
Y-95252D01*
X-27941Y-96522D01*
X-33019D01*
X67816Y213359D02*
X66547Y214629D01*
X64008D01*
X62738Y213359D01*
Y208281D01*
X64008Y207011D01*
X66547D01*
X67816Y208281D01*
X70356Y207011D02*
X72895D01*
X71625D01*
Y214629D01*
X70356Y213359D01*
X76704Y208281D02*
X77973Y207011D01*
X80512D01*
X81782Y208281D01*
Y213359D01*
X80512Y214629D01*
X77973D01*
X76704Y213359D01*
Y212090D01*
X77973Y210820D01*
X81782D01*
X18416Y251459D02*
X17147Y252729D01*
X14608D01*
X13338Y251459D01*
Y246381D01*
X14608Y245111D01*
X17147D01*
X18416Y246381D01*
X20956Y245111D02*
X23495D01*
X22225D01*
Y252729D01*
X20956Y251459D01*
X27304D02*
X28573Y252729D01*
X31112D01*
X32382Y251459D01*
Y250190D01*
X31112Y248920D01*
X32382Y247650D01*
Y246381D01*
X31112Y245111D01*
X28573D01*
X27304Y246381D01*
Y247650D01*
X28573Y248920D01*
X27304Y250190D01*
Y251459D01*
X28573Y248920D02*
X31112D01*
X-4574Y73659D02*
X-5843Y74929D01*
X-8382D01*
X-9652Y73659D01*
Y68581D01*
X-8382Y67311D01*
X-5843D01*
X-4574Y68581D01*
X-2034Y67311D02*
X505D01*
X-765D01*
Y74929D01*
X-2034Y73659D01*
X9392Y74929D02*
X4313D01*
Y71120D01*
X6853Y72390D01*
X8122D01*
X9392Y71120D01*
Y68581D01*
X8122Y67311D01*
X5583D01*
X4313Y68581D01*
X337576Y972819D02*
X336307Y974089D01*
X333768D01*
X332498Y972819D01*
Y967741D01*
X333768Y966471D01*
X336307D01*
X337576Y967741D01*
X340116Y966471D02*
X342655D01*
X341385D01*
Y974089D01*
X340116Y972819D01*
X350272Y966471D02*
Y974089D01*
X346464Y970280D01*
X351542D01*
X323101Y994916D02*
X321831Y993647D01*
Y991108D01*
X323101Y989838D01*
X328179D01*
X329449Y991108D01*
Y993647D01*
X328179Y994916D01*
X329449Y997456D02*
Y999995D01*
Y998725D01*
X321831D01*
X323101Y997456D01*
Y1003803D02*
X321831Y1005073D01*
Y1007612D01*
X323101Y1008882D01*
X324370D01*
X325640Y1007612D01*
Y1006343D01*
Y1007612D01*
X326910Y1008882D01*
X328179D01*
X329449Y1007612D01*
Y1005073D01*
X328179Y1003803D01*
X337576Y922019D02*
X336307Y923289D01*
X333768D01*
X332498Y922019D01*
Y916941D01*
X333768Y915671D01*
X336307D01*
X337576Y916941D01*
X340116Y915671D02*
X342655D01*
X341385D01*
Y923289D01*
X340116Y922019D01*
X351542Y915671D02*
X346464D01*
X351542Y920750D01*
Y922019D01*
X350272Y923289D01*
X347733D01*
X346464Y922019D01*
X337576Y947419D02*
X336307Y948689D01*
X333768D01*
X332498Y947419D01*
Y942341D01*
X333768Y941071D01*
X336307D01*
X337576Y942341D01*
X340116Y941071D02*
X342655D01*
X341385D01*
Y948689D01*
X340116Y947419D01*
X346464Y941071D02*
X349003D01*
X347733D01*
Y948689D01*
X346464Y947419D01*
X121937Y942339D02*
X120667Y943609D01*
X118128D01*
X116858Y942339D01*
Y937261D01*
X118128Y935991D01*
X120667D01*
X121937Y937261D01*
X124476Y935991D02*
X127015D01*
X125745D01*
Y943609D01*
X124476Y942339D01*
X130824D02*
X132093Y943609D01*
X134632D01*
X135902Y942339D01*
Y937261D01*
X134632Y935991D01*
X132093D01*
X130824Y937261D01*
Y942339D01*
X128285Y919479D02*
X127015Y920749D01*
X124476D01*
X123206Y919479D01*
Y914401D01*
X124476Y913131D01*
X127015D01*
X128285Y914401D01*
X130824D02*
X132093Y913131D01*
X134632D01*
X135902Y914401D01*
Y919479D01*
X134632Y920749D01*
X132093D01*
X130824Y919479D01*
Y918210D01*
X132093Y916940D01*
X135902D01*
X461530Y243839D02*
X460261Y245109D01*
X457722D01*
X456452Y243839D01*
Y238761D01*
X457722Y237491D01*
X460261D01*
X461530Y238761D01*
X464070Y243839D02*
X465339Y245109D01*
X467878D01*
X469148Y243839D01*
Y242570D01*
X467878Y241300D01*
X469148Y240030D01*
Y238761D01*
X467878Y237491D01*
X465339D01*
X464070Y238761D01*
Y240030D01*
X465339Y241300D01*
X464070Y242570D01*
Y243839D01*
X465339Y241300D02*
X467878D01*
X327660Y218439D02*
X326391Y219709D01*
X323852D01*
X322582Y218439D01*
Y213361D01*
X323852Y212091D01*
X326391D01*
X327660Y213361D01*
X335278Y219709D02*
X332739Y218439D01*
X330200Y215900D01*
Y213361D01*
X331469Y212091D01*
X334008D01*
X335278Y213361D01*
Y214630D01*
X334008Y215900D01*
X330200D01*
X433576Y-109221D02*
X432307Y-107951D01*
X429768D01*
X428498Y-109221D01*
Y-114299D01*
X429768Y-115569D01*
X432307D01*
X433576Y-114299D01*
X441194Y-107951D02*
X436115D01*
Y-111760D01*
X438655Y-110490D01*
X439924D01*
X441194Y-111760D01*
Y-114299D01*
X439924Y-115569D01*
X437385D01*
X436115Y-114299D01*
X314452Y-68835D02*
X313183Y-67565D01*
X310644D01*
X309374Y-68835D01*
Y-73913D01*
X310644Y-75183D01*
X313183D01*
X314452Y-73913D01*
X320800Y-75183D02*
Y-67565D01*
X316992Y-71374D01*
X322070D01*
X237490Y-158751D02*
X236221Y-157481D01*
X233682D01*
X232412Y-158751D01*
Y-163829D01*
X233682Y-165099D01*
X236221D01*
X237490Y-163829D01*
X240030Y-158751D02*
X241299Y-157481D01*
X243838D01*
X245108Y-158751D01*
Y-160020D01*
X243838Y-161290D01*
X242569D01*
X243838D01*
X245108Y-162560D01*
Y-163829D01*
X243838Y-165099D01*
X241299D01*
X240030Y-163829D01*
X237490Y-133859D02*
X236221Y-132589D01*
X233682D01*
X232412Y-133859D01*
Y-138937D01*
X233682Y-140207D01*
X236221D01*
X237490Y-138937D01*
X245108Y-140207D02*
X240030D01*
X245108Y-135128D01*
Y-133859D01*
X243838Y-132589D01*
X241299D01*
X240030Y-133859D01*
X237490Y-107951D02*
X236220Y-106681D01*
X233681D01*
X232412Y-107951D01*
Y-113029D01*
X233681Y-114299D01*
X236220D01*
X237490Y-113029D01*
X240029Y-114299D02*
X242568D01*
X241299D01*
Y-106681D01*
X240029Y-107951D01*
X490703Y777220D02*
Y784837D01*
X493242Y782298D01*
X495781Y784837D01*
Y777220D01*
X498320Y784837D02*
Y777220D01*
Y781029D01*
X503399D01*
Y784837D01*
Y777220D01*
X505938Y783568D02*
X507207Y784837D01*
X509747D01*
X511016Y783568D01*
Y782298D01*
X509747Y781029D01*
X508477D01*
X509747D01*
X511016Y779759D01*
Y778490D01*
X509747Y777220D01*
X507207D01*
X505938Y778490D01*
X-11173Y38101D02*
Y45719D01*
X-8633Y43180D01*
X-6094Y45719D01*
Y38101D01*
X-3555Y45719D02*
Y38101D01*
Y41910D01*
X1523D01*
Y45719D01*
Y38101D01*
X7871D02*
Y45719D01*
X4062Y41910D01*
X9141D01*
X455901Y-45595D02*
Y-37978D01*
X458441Y-40517D01*
X460980Y-37978D01*
Y-45595D01*
X463519Y-37978D02*
Y-45595D01*
Y-41787D01*
X468597D01*
Y-37978D01*
Y-45595D01*
X471137D02*
X473676D01*
X472406D01*
Y-37978D01*
X471137Y-39248D01*
X-26077Y799444D02*
Y807061D01*
X-23538Y804522D01*
X-20999Y807061D01*
Y799444D01*
X-18460Y807061D02*
Y799444D01*
Y803252D01*
X-13381D01*
Y807061D01*
Y799444D01*
X-5764D02*
X-10842D01*
X-5764Y804522D01*
Y805791D01*
X-7034Y807061D01*
X-9573D01*
X-10842Y805791D01*
D15*
X165622Y-245110D02*
X232622D01*
X165622Y-217170D02*
X232622D01*
X165622Y-245110D02*
Y-217170D01*
X232622Y-245110D02*
Y-217170D01*
X-93330Y946660D02*
Y953660D01*
X-72330Y983660D02*
X62170D01*
X83170Y946660D02*
Y953660D01*
X-93330Y946660D02*
X-69330D01*
X59170D02*
X83170D01*
X427250Y219100D02*
X434250D01*
Y212100D02*
Y219100D01*
Y174600D02*
Y181600D01*
X427250Y174600D02*
X434250D01*
X389750D02*
X396750D01*
X389750D02*
Y181600D01*
Y219100D02*
X396750D01*
X389750Y212100D02*
Y219100D01*
X464300Y289050D02*
Y307850D01*
X422400Y330950D02*
X441200D01*
X399300Y289050D02*
Y307850D01*
X422400Y265950D02*
X441200D01*
X250350Y906950D02*
Y959950D01*
X205350Y906950D02*
Y959950D01*
X311700Y-152500D02*
X348700D01*
X311700Y-101500D02*
X348700D01*
Y-152500D02*
Y-101500D01*
X311700Y-152500D02*
Y-101500D01*
X50950Y-281200D02*
X120750D01*
X36350Y-235500D02*
X135350D01*
X73350Y-220500D02*
X98350D01*
Y-235500D02*
Y-220500D01*
X73350Y-235500D02*
Y-220500D01*
X135350Y-262850D02*
Y-235500D01*
X36350Y-262850D02*
Y-235500D01*
X422400Y69100D02*
X441200D01*
X399300Y92200D02*
Y111000D01*
X422400Y134100D02*
X441200D01*
X464300Y92200D02*
Y111000D01*
X262730Y61490D02*
Y159490D01*
X367480D02*
X369730D01*
X262730D02*
X264980D01*
X369730Y61490D02*
Y159490D01*
X367480Y61490D02*
X369730D01*
X262730D02*
X264980D01*
X216140Y-79200D02*
Y-69200D01*
X223890D01*
X246140Y-79200D02*
Y-69200D01*
X238390D02*
X246140D01*
X215640Y-38980D02*
X223890D01*
X215640D02*
Y-25980D01*
X238390Y-38980D02*
X246640D01*
Y-25980D01*
X398280Y-57000D02*
X399280D01*
X398280Y-70000D02*
X399280D01*
X398280Y-95400D02*
X399280D01*
X398280Y-82400D02*
X399280D01*
X-12310Y163730D02*
X4690D01*
X-12310Y151230D02*
X4690D01*
X124850Y100430D02*
X141850D01*
X124850Y112930D02*
X141850D01*
X124850Y97690D02*
X141850D01*
X124850Y85190D02*
X141850D01*
X-12310Y199290D02*
X4690D01*
X-12310Y186790D02*
X4690D01*
X-12310Y214530D02*
X4690D01*
X-12310Y202030D02*
X4690D01*
X65570Y221420D02*
X111320D01*
Y236920D01*
Y260920D02*
Y276420D01*
X65570D02*
X111320D01*
X56320Y230670D02*
Y236920D01*
Y230670D02*
X65570Y221420D01*
X56320Y267170D02*
X65570Y276420D01*
X56320Y260920D02*
Y267170D01*
X35090Y43620D02*
X80840D01*
Y59120D01*
Y83120D02*
Y98620D01*
X35090D02*
X80840D01*
X25840Y52870D02*
Y59120D01*
Y52870D02*
X35090Y43620D01*
X25840Y89370D02*
X35090Y98620D01*
X25840Y83120D02*
Y89370D01*
X-4820Y-96600D02*
X26180D01*
X-4820Y-106600D02*
X26180D01*
Y-96600D01*
X-4820Y-106600D02*
Y-96600D01*
X56300Y-172450D02*
Y-170450D01*
X43800Y-172450D02*
Y-170450D01*
X48770Y113730D02*
X80770D01*
X48770Y201230D02*
X80770D01*
Y113730D02*
Y201230D01*
X48770Y113730D02*
Y201230D01*
X65010Y-14800D02*
X95010D01*
X65010Y-24800D02*
X95010D01*
Y-14800D01*
X65010Y-24800D02*
Y-14800D01*
X119530Y-19550D02*
Y-18550D01*
X106530Y-19550D02*
Y-18550D01*
X76320Y-76650D02*
X91320D01*
X76320Y-102650D02*
X91320D01*
X253320Y-283760D02*
Y-193760D01*
Y-283760D02*
X408120D01*
X253320Y-193760D02*
X408120D01*
Y-283760D02*
Y-193760D01*
X-68300Y869300D02*
Y879300D01*
X-76050Y869300D02*
X-68300D01*
X-98300D02*
Y879300D01*
Y869300D02*
X-90550D01*
X-31600Y884800D02*
X-23350D01*
Y871800D02*
Y884800D01*
X-54350D02*
X-46100D01*
X-54350Y871800D02*
Y884800D01*
X332800Y846850D02*
X342800D01*
Y839100D02*
Y846850D01*
X332800Y816850D02*
X342800D01*
Y824600D01*
X325500Y886700D02*
Y894950D01*
X338500D01*
X325500Y863950D02*
Y872200D01*
Y863950D02*
X338500D01*
X349400Y14850D02*
X357650D01*
Y1850D02*
Y14850D01*
X326650D02*
X334900D01*
X326650Y1850D02*
Y14850D01*
X397790Y-650D02*
Y9350D01*
X390040Y-650D02*
X397790D01*
X367790D02*
Y9350D01*
Y-650D02*
X375540D01*
X398280Y-128120D02*
X399280D01*
X398280Y-141120D02*
X399280D01*
X398280Y-166520D02*
X399280D01*
X398280Y-153520D02*
X399280D01*
X338570Y187410D02*
X349570D01*
X338670Y201310D02*
X349670D01*
X463190Y-261880D02*
X476190D01*
X463190D02*
Y-253630D01*
Y-230880D02*
X476190D01*
X463190Y-239130D02*
Y-230880D01*
X-21020Y-216910D02*
X-8020D01*
Y-225160D02*
Y-216910D01*
X-21020Y-247910D02*
X-8020D01*
Y-239660D01*
D16*
X-93460Y-270510D02*
Y-226060D01*
X-69330D02*
X-64250Y-231140D01*
X-69330Y-270510D02*
X-64250Y-265430D01*
Y-231140D01*
X549160Y-269240D02*
Y-224790D01*
X519950Y-264160D02*
X525030Y-269240D01*
X519950Y-229870D02*
X525030Y-224790D01*
X519950Y-264160D02*
Y-229870D01*
D17*
X20440Y151230D02*
Y163730D01*
X109100Y100430D02*
Y112930D01*
X157600Y85190D02*
Y97690D01*
X20440Y186790D02*
Y199290D01*
Y202030D02*
Y214530D01*
X502730Y969000D02*
X510730D01*
X477330D02*
X485330D01*
D18*
X375491Y-246003D02*
X368720D01*
Y-251082D01*
X372106Y-249389D01*
X373798D01*
X375491Y-251082D01*
Y-254467D01*
X373798Y-256160D01*
X370413D01*
X368720Y-254467D01*
X293491Y-231360D02*
X286720D01*
X293491Y-224589D01*
Y-222896D01*
X291798Y-221203D01*
X288413D01*
X286720Y-222896D01*
X375491Y-220603D02*
X372106Y-222296D01*
X368720Y-225682D01*
Y-229067D01*
X370413Y-230760D01*
X373798D01*
X375491Y-229067D01*
Y-227374D01*
X373798Y-225682D01*
X368720D01*
X289720Y-256760D02*
X293106D01*
X291413D01*
Y-246603D01*
X289720Y-248296D01*
D19*
X330720Y-279760D02*
D03*
M02*
