G04*
G04 #@! TF.GenerationSoftware,Altium Limited,DefaultClient, ()*
G04*
G04 Layer_Physical_Order=2*
G04 Layer_Color=36540*
%FSLAX44Y44*%
%MOMM*%
G71*
G04*
G04 #@! TF.SameCoordinates,8DA877EA-5960-4089-89AF-F9EF2ED2926F*
G04*
G04*
G04 #@! TF.FilePolarity,Positive*
G04*
G01*
G75*
%ADD122O,1.7000X1.7000*%
%ADD123R,1.7000X1.7000*%
%ADD124C,2.4500*%
%ADD125R,2.3000X2.3000*%
%ADD126C,1.5700*%
%ADD127R,1.5700X1.5700*%
%ADD128C,1.2700*%
%ADD129R,1.4210X1.4210*%
%ADD130C,1.4210*%
%ADD131C,4.6000*%
%ADD132C,1.6000*%
%ADD133R,1.6000X1.6000*%
%ADD134C,5.8420*%
%ADD135C,0.7366*%
%ADD136C,0.5588*%
%ADD137C,0.5080*%
%ADD138C,0.6096*%
G36*
X574510Y-289510D02*
X-118810D01*
Y898278D01*
X-117637Y898764D01*
X-117322Y898448D01*
X-115361Y897636D01*
X-113239D01*
X-111279Y898448D01*
X-109778Y899949D01*
X-108966Y901909D01*
Y904031D01*
X-109778Y905992D01*
X-111279Y907492D01*
X-113239Y908304D01*
X-115361D01*
X-117322Y907492D01*
X-117637Y907176D01*
X-118810Y907662D01*
Y1038810D01*
X574510D01*
Y-289510D01*
D02*
G37*
%LPC*%
G36*
X270301Y997204D02*
X268179D01*
X266218Y996392D01*
X264718Y994892D01*
X263906Y992931D01*
Y990809D01*
X264718Y988848D01*
X266218Y987348D01*
X268179Y986536D01*
X270301D01*
X272262Y987348D01*
X273762Y988848D01*
X274574Y990809D01*
Y992931D01*
X273762Y994892D01*
X272262Y996392D01*
X270301Y997204D01*
D02*
G37*
G36*
X281731Y988314D02*
X279609D01*
X277649Y987502D01*
X276148Y986002D01*
X275336Y984041D01*
Y981919D01*
X276148Y979958D01*
X277649Y978458D01*
X279609Y977646D01*
X281731D01*
X283692Y978458D01*
X285192Y979958D01*
X286004Y981919D01*
Y984041D01*
X285192Y986002D01*
X283692Y987502D01*
X281731Y988314D01*
D02*
G37*
G36*
X256331Y985774D02*
X254209D01*
X252248Y984962D01*
X250748Y983462D01*
X249936Y981501D01*
Y979379D01*
X250748Y977419D01*
X252248Y975918D01*
X254209Y975106D01*
X256331D01*
X258291Y975918D01*
X259792Y977419D01*
X260604Y979379D01*
Y981501D01*
X259792Y983462D01*
X258291Y984962D01*
X256331Y985774D01*
D02*
G37*
G36*
X235665Y975267D02*
X233542D01*
X231582Y974455D01*
X230082Y972955D01*
X229269Y970994D01*
Y968872D01*
X230082Y966912D01*
X231582Y965412D01*
X233542Y964599D01*
X235665D01*
X237625Y965412D01*
X239125Y966912D01*
X239937Y968872D01*
Y970994D01*
X239125Y972955D01*
X237625Y974455D01*
X235665Y975267D01*
D02*
G37*
G36*
X266491Y974344D02*
X264369D01*
X262409Y973532D01*
X260908Y972031D01*
X260096Y970071D01*
Y967949D01*
X260908Y965988D01*
X262409Y964488D01*
X264369Y963676D01*
X266491D01*
X268451Y964488D01*
X269952Y965988D01*
X270764Y967949D01*
Y970071D01*
X269952Y972031D01*
X268451Y973532D01*
X266491Y974344D01*
D02*
G37*
G36*
X417928Y969240D02*
X417830D01*
Y960120D01*
X426950D01*
Y960218D01*
X426242Y962860D01*
X424874Y965230D01*
X422940Y967164D01*
X420570Y968532D01*
X417928Y969240D01*
D02*
G37*
G36*
X415290D02*
X415192D01*
X412550Y968532D01*
X410180Y967164D01*
X408246Y965230D01*
X406878Y962860D01*
X406170Y960218D01*
Y960120D01*
X415290D01*
Y969240D01*
D02*
G37*
G36*
X150921Y969264D02*
X148799D01*
X146839Y968452D01*
X145338Y966952D01*
X144526Y964991D01*
Y962869D01*
X145338Y960909D01*
X146839Y959408D01*
X148799Y958596D01*
X150921D01*
X152881Y959408D01*
X154382Y960909D01*
X155194Y962869D01*
Y964991D01*
X154382Y966952D01*
X152881Y968452D01*
X150921Y969264D01*
D02*
G37*
G36*
X2331Y966724D02*
X209D01*
X-1752Y965912D01*
X-3252Y964411D01*
X-4064Y962451D01*
Y960329D01*
X-3252Y958369D01*
X-1752Y956868D01*
X209Y956056D01*
X2331D01*
X4291Y956868D01*
X5792Y958369D01*
X6604Y960329D01*
Y962451D01*
X5792Y964411D01*
X4291Y965912D01*
X2331Y966724D01*
D02*
G37*
G36*
X263856Y959566D02*
X261734D01*
X259774Y958754D01*
X258273Y957253D01*
X257461Y955293D01*
Y953171D01*
X258273Y951210D01*
X259774Y949710D01*
X261734Y948898D01*
X263856D01*
X265817Y949710D01*
X267317Y951210D01*
X268129Y953171D01*
Y955293D01*
X267317Y957253D01*
X265817Y958754D01*
X263856Y959566D01*
D02*
G37*
G36*
X426950Y957580D02*
X417830D01*
Y948460D01*
X417928D01*
X420570Y949168D01*
X422940Y950536D01*
X424874Y952470D01*
X426242Y954840D01*
X426950Y957482D01*
Y957580D01*
D02*
G37*
G36*
X415290D02*
X406170D01*
Y957482D01*
X406878Y954840D01*
X408246Y952470D01*
X410180Y950536D01*
X412550Y949168D01*
X415192Y948460D01*
X415290D01*
Y957580D01*
D02*
G37*
G36*
X240538Y953820D02*
X215138D01*
X214147Y953623D01*
X213307Y953061D01*
X212745Y952221D01*
X212548Y951230D01*
Y933450D01*
X212745Y932459D01*
X213307Y931619D01*
X214147Y931057D01*
X215138Y930860D01*
X240538D01*
X241529Y931057D01*
X242369Y931619D01*
X242931Y932459D01*
X243128Y933450D01*
Y951230D01*
X242931Y952221D01*
X242369Y953061D01*
X241529Y953623D01*
X240538Y953820D01*
D02*
G37*
G36*
X15031Y932434D02*
X12909D01*
X10948Y931622D01*
X9448Y930122D01*
X8636Y928161D01*
Y926039D01*
X9448Y924079D01*
X10948Y922578D01*
X12909Y921766D01*
X15031D01*
X16991Y922578D01*
X18492Y924079D01*
X19304Y926039D01*
Y928161D01*
X18492Y930122D01*
X16991Y931622D01*
X15031Y932434D01*
D02*
G37*
G36*
X-61169Y929894D02*
X-63291D01*
X-65251Y929082D01*
X-66752Y927581D01*
X-67564Y925621D01*
Y923499D01*
X-66752Y921538D01*
X-65251Y920038D01*
X-63291Y919226D01*
X-61169D01*
X-59208Y920038D01*
X-57708Y921538D01*
X-56896Y923499D01*
Y925621D01*
X-57708Y927581D01*
X-59208Y929082D01*
X-61169Y929894D01*
D02*
G37*
G36*
X-10369Y924814D02*
X-12491D01*
X-14452Y924002D01*
X-15952Y922502D01*
X-16764Y920541D01*
Y918419D01*
X-15952Y916459D01*
X-14452Y914958D01*
X-12491Y914146D01*
X-10369D01*
X-8408Y914958D01*
X-6908Y916459D01*
X-6096Y918419D01*
Y920541D01*
X-6908Y922502D01*
X-8408Y924002D01*
X-10369Y924814D01*
D02*
G37*
G36*
X-21799Y917194D02*
X-23921D01*
X-25882Y916382D01*
X-27382Y914882D01*
X-28194Y912921D01*
Y910799D01*
X-27382Y908839D01*
X-25882Y907338D01*
X-23921Y906526D01*
X-21799D01*
X-19839Y907338D01*
X-18338Y908839D01*
X-17526Y910799D01*
Y912921D01*
X-18338Y914882D01*
X-19839Y916382D01*
X-21799Y917194D01*
D02*
G37*
G36*
X355911Y913384D02*
X353789D01*
X351828Y912572D01*
X350328Y911071D01*
X349516Y909111D01*
Y906989D01*
X350328Y905029D01*
X351828Y903528D01*
X353789Y902716D01*
X355911D01*
X357871Y903528D01*
X359372Y905029D01*
X360184Y906989D01*
Y909111D01*
X359372Y911071D01*
X357871Y912572D01*
X355911Y913384D01*
D02*
G37*
G36*
X343211D02*
X341089D01*
X339128Y912572D01*
X337628Y911071D01*
X336816Y909111D01*
Y906989D01*
X337628Y905029D01*
X339128Y903528D01*
X341089Y902716D01*
X343211D01*
X345171Y903528D01*
X346672Y905029D01*
X347484Y906989D01*
Y909111D01*
X346672Y911071D01*
X345171Y912572D01*
X343211Y913384D01*
D02*
G37*
G36*
X381446Y913136D02*
X379324D01*
X377364Y912324D01*
X375863Y910824D01*
X375051Y908863D01*
Y906741D01*
X375863Y904781D01*
X377364Y903280D01*
X379324Y902468D01*
X381446D01*
X383407Y903280D01*
X384907Y904781D01*
X385719Y906741D01*
Y908863D01*
X384907Y910824D01*
X383407Y912324D01*
X381446Y913136D01*
D02*
G37*
G36*
X368746D02*
X366624D01*
X364664Y912324D01*
X363163Y910824D01*
X362351Y908863D01*
Y906741D01*
X363163Y904781D01*
X364664Y903280D01*
X366624Y902468D01*
X368746D01*
X370707Y903280D01*
X372207Y904781D01*
X373019Y906741D01*
Y908863D01*
X372207Y910824D01*
X370707Y912324D01*
X368746Y913136D01*
D02*
G37*
G36*
X322371Y904661D02*
X320249D01*
X318288Y903849D01*
X316971Y902532D01*
X316230Y902427D01*
X315489Y902532D01*
X314172Y903849D01*
X312211Y904661D01*
X310089D01*
X308129Y903849D01*
X306811Y902532D01*
X306070Y902427D01*
X305329Y902532D01*
X304011Y903849D01*
X302051Y904661D01*
X299929D01*
X297969Y903849D01*
X296651Y902532D01*
X295910Y902427D01*
X295169Y902532D01*
X293852Y903849D01*
X291891Y904661D01*
X289769D01*
X287808Y903849D01*
X286308Y902349D01*
X285496Y900388D01*
Y898266D01*
X286308Y896306D01*
X287808Y894806D01*
X289769Y893993D01*
X291891D01*
X293852Y894806D01*
X295169Y896123D01*
X295910Y896227D01*
X296651Y896123D01*
X297969Y894806D01*
X299929Y893993D01*
X302051D01*
X304011Y894806D01*
X305329Y896123D01*
X306070Y896227D01*
X306811Y896123D01*
X308129Y894806D01*
X310089Y893993D01*
X312211D01*
X314172Y894806D01*
X315489Y896123D01*
X316230Y896227D01*
X316971Y896123D01*
X318288Y894806D01*
X320249Y893993D01*
X322371D01*
X324332Y894806D01*
X325832Y896306D01*
X326644Y898266D01*
Y900388D01*
X325832Y902349D01*
X324332Y903849D01*
X322371Y904661D01*
D02*
G37*
G36*
X482391Y904573D02*
X480269D01*
X478308Y903761D01*
X476808Y902261D01*
X475996Y900300D01*
Y898178D01*
X476808Y896218D01*
X478308Y894717D01*
X480269Y893905D01*
X482391D01*
X484352Y894717D01*
X485852Y896218D01*
X486664Y898178D01*
Y900300D01*
X485852Y902261D01*
X484352Y903761D01*
X482391Y904573D01*
D02*
G37*
G36*
X507791Y904494D02*
X505669D01*
X503708Y903682D01*
X502208Y902181D01*
X501396Y900221D01*
Y898099D01*
X502208Y896139D01*
X503708Y894638D01*
X505669Y893826D01*
X507791D01*
X509752Y894638D01*
X511252Y896139D01*
X512064Y898099D01*
Y900221D01*
X511252Y902181D01*
X509752Y903682D01*
X507791Y904494D01*
D02*
G37*
G36*
X161081Y890524D02*
X158959D01*
X156999Y889712D01*
X155498Y888212D01*
X154686Y886251D01*
Y884129D01*
X155498Y882169D01*
X156999Y880668D01*
X158959Y879856D01*
X161081D01*
X163041Y880668D01*
X164542Y882169D01*
X165354Y884129D01*
Y886251D01*
X164542Y888212D01*
X163041Y889712D01*
X161081Y890524D01*
D02*
G37*
G36*
X253965Y884174D02*
X251843D01*
X249883Y883362D01*
X248382Y881861D01*
X247570Y879901D01*
Y877779D01*
X248382Y875818D01*
X249883Y874318D01*
X251843Y873506D01*
X253965D01*
X255926Y874318D01*
X257426Y875818D01*
X258238Y877779D01*
Y879901D01*
X257426Y881861D01*
X255926Y883362D01*
X253965Y884174D01*
D02*
G37*
G36*
X263951Y857504D02*
X261829D01*
X259869Y856692D01*
X258368Y855191D01*
X257556Y853231D01*
Y851109D01*
X258368Y849148D01*
X259869Y847648D01*
X261829Y846836D01*
X263951D01*
X265912Y847648D01*
X267412Y849148D01*
X268224Y851109D01*
Y853231D01*
X267412Y855191D01*
X265912Y856692D01*
X263951Y857504D01*
D02*
G37*
G36*
X243631D02*
X241509D01*
X239548Y856692D01*
X238048Y855191D01*
X237236Y853231D01*
Y851109D01*
X238048Y849148D01*
X239548Y847648D01*
X241509Y846836D01*
X243631D01*
X245592Y847648D01*
X247092Y849148D01*
X247904Y851109D01*
Y853231D01*
X247092Y855191D01*
X245592Y856692D01*
X243631Y857504D01*
D02*
G37*
G36*
X215691D02*
X213569D01*
X211609Y856692D01*
X210108Y855191D01*
X209296Y853231D01*
Y851109D01*
X210108Y849148D01*
X211609Y847648D01*
X213569Y846836D01*
X215691D01*
X217652Y847648D01*
X219152Y849148D01*
X219964Y851109D01*
Y853231D01*
X219152Y855191D01*
X217652Y856692D01*
X215691Y857504D01*
D02*
G37*
G36*
X398059Y862175D02*
X396442D01*
X394949Y861556D01*
X393805Y860413D01*
X393187Y858919D01*
Y857302D01*
X393805Y855808D01*
X394949Y854665D01*
X396301Y854105D01*
X396419Y853543D01*
X396384Y852801D01*
X395208Y852313D01*
X394065Y851170D01*
X393446Y849676D01*
Y848060D01*
X394065Y846566D01*
X395208Y845423D01*
X396702Y844804D01*
X398318D01*
X399812Y845423D01*
X400955Y846566D01*
X401574Y848060D01*
Y849676D01*
X400955Y851170D01*
X399812Y852313D01*
X398460Y852873D01*
X398342Y853435D01*
X398376Y854178D01*
X399553Y854665D01*
X400696Y855808D01*
X401315Y857302D01*
Y858919D01*
X400696Y860413D01*
X399553Y861556D01*
X398059Y862175D01*
D02*
G37*
G36*
X-6039Y849884D02*
X-8161D01*
X-10122Y849072D01*
X-11622Y847571D01*
X-12434Y845611D01*
Y843489D01*
X-11622Y841528D01*
X-10122Y840028D01*
X-8161Y839216D01*
X-6039D01*
X-4079Y840028D01*
X-2578Y841528D01*
X-1766Y843489D01*
Y845611D01*
X-2578Y847571D01*
X-4079Y849072D01*
X-6039Y849884D01*
D02*
G37*
G36*
X-18739D02*
X-20861D01*
X-22822Y849072D01*
X-24322Y847571D01*
X-25134Y845611D01*
Y843489D01*
X-24322Y841528D01*
X-22822Y840028D01*
X-20861Y839216D01*
X-18739D01*
X-16779Y840028D01*
X-15278Y841528D01*
X-14466Y843489D01*
Y845611D01*
X-15278Y847571D01*
X-16779Y849072D01*
X-18739Y849884D01*
D02*
G37*
G36*
X306877Y846836D02*
X304755D01*
X302794Y846024D01*
X301294Y844523D01*
X300482Y842563D01*
Y840441D01*
X301294Y838481D01*
X302794Y836980D01*
X304755Y836168D01*
X306877D01*
X308838Y836980D01*
X310338Y838481D01*
X311150Y840441D01*
Y842563D01*
X310338Y844523D01*
X308838Y846024D01*
X306877Y846836D01*
D02*
G37*
G36*
X-6039Y837184D02*
X-8161D01*
X-10122Y836372D01*
X-11622Y834872D01*
X-12434Y832911D01*
Y830789D01*
X-11622Y828829D01*
X-10122Y827328D01*
X-8161Y826516D01*
X-6039D01*
X-4079Y827328D01*
X-2578Y828829D01*
X-1766Y830789D01*
Y832911D01*
X-2578Y834872D01*
X-4079Y836372D01*
X-6039Y837184D01*
D02*
G37*
G36*
X-18739D02*
X-20861D01*
X-22822Y836372D01*
X-24322Y834872D01*
X-25134Y832911D01*
Y830789D01*
X-24322Y828829D01*
X-22822Y827328D01*
X-20861Y826516D01*
X-18739D01*
X-16779Y827328D01*
X-15278Y828829D01*
X-14466Y830789D01*
Y832911D01*
X-15278Y834872D01*
X-16779Y836372D01*
X-18739Y837184D01*
D02*
G37*
G36*
X205531Y824484D02*
X203409D01*
X201448Y823672D01*
X199948Y822171D01*
X199136Y820211D01*
Y818089D01*
X199948Y816128D01*
X201448Y814628D01*
X203409Y813816D01*
X205531D01*
X207491Y814628D01*
X208992Y816128D01*
X209804Y818089D01*
Y820211D01*
X208992Y822171D01*
X207491Y823672D01*
X205531Y824484D01*
D02*
G37*
G36*
X214421Y815594D02*
X212299D01*
X210338Y814782D01*
X208838Y813281D01*
X208026Y811321D01*
Y809199D01*
X208838Y807238D01*
X210338Y805738D01*
X212299Y804926D01*
X214421D01*
X216381Y805738D01*
X217882Y807238D01*
X218694Y809199D01*
Y811321D01*
X217882Y813281D01*
X216381Y814782D01*
X214421Y815594D01*
D02*
G37*
G36*
X-6039Y824484D02*
X-8161D01*
X-10122Y823672D01*
X-11622Y822171D01*
X-12434Y820211D01*
Y818089D01*
X-11622Y816128D01*
X-10122Y814628D01*
X-8900Y814122D01*
Y812748D01*
X-10122Y812242D01*
X-11622Y810742D01*
X-12434Y808781D01*
Y806659D01*
X-11622Y804698D01*
X-10122Y803198D01*
X-8161Y802386D01*
X-6039D01*
X-4079Y803198D01*
X-2578Y804698D01*
X-1766Y806659D01*
Y808781D01*
X-2578Y810742D01*
X-4079Y812242D01*
X-5300Y812748D01*
Y814122D01*
X-4079Y814628D01*
X-2578Y816128D01*
X-1766Y818089D01*
Y820211D01*
X-2578Y822171D01*
X-4079Y823672D01*
X-6039Y824484D01*
D02*
G37*
G36*
X-18739D02*
X-20861D01*
X-22822Y823672D01*
X-24322Y822171D01*
X-25134Y820211D01*
Y818089D01*
X-24322Y816128D01*
X-22822Y814628D01*
X-21600Y814122D01*
Y812748D01*
X-22822Y812242D01*
X-24322Y810742D01*
X-25134Y808781D01*
Y806659D01*
X-24322Y804698D01*
X-22822Y803198D01*
X-20861Y802386D01*
X-18739D01*
X-16779Y803198D01*
X-15278Y804698D01*
X-14466Y806659D01*
Y808781D01*
X-15278Y810742D01*
X-16779Y812242D01*
X-18000Y812748D01*
Y814122D01*
X-16779Y814628D01*
X-15278Y816128D01*
X-14466Y818089D01*
Y820211D01*
X-15278Y822171D01*
X-16779Y823672D01*
X-18739Y824484D01*
D02*
G37*
G36*
X424115Y839860D02*
X419085D01*
X414150Y838878D01*
X409502Y836953D01*
X405319Y834158D01*
X401762Y830601D01*
X398967Y826418D01*
X397041Y821770D01*
X396060Y816835D01*
Y811805D01*
X397041Y806870D01*
X398967Y802222D01*
X401762Y798039D01*
X405319Y794482D01*
X409502Y791687D01*
X414150Y789762D01*
X419085Y788780D01*
X424115D01*
X429050Y789762D01*
X433698Y791687D01*
X437881Y794482D01*
X441438Y798039D01*
X444233Y802222D01*
X446158Y806870D01*
X447140Y811805D01*
Y816835D01*
X446158Y821770D01*
X444233Y826418D01*
X441438Y830601D01*
X437881Y834158D01*
X433698Y836953D01*
X429050Y838878D01*
X424115Y839860D01*
D02*
G37*
G36*
X37115D02*
X32085D01*
X27150Y838878D01*
X22502Y836953D01*
X18319Y834158D01*
X14762Y830601D01*
X11967Y826418D01*
X10042Y821770D01*
X9060Y816835D01*
Y811805D01*
X10042Y806870D01*
X11967Y802222D01*
X14762Y798039D01*
X18319Y794482D01*
X22502Y791687D01*
X27150Y789762D01*
X32085Y788780D01*
X37115D01*
X42050Y789762D01*
X46698Y791687D01*
X50881Y794482D01*
X54438Y798039D01*
X57233Y802222D01*
X59159Y806870D01*
X60140Y811805D01*
Y816835D01*
X59159Y821770D01*
X57233Y826418D01*
X54438Y830601D01*
X50881Y834158D01*
X46698Y836953D01*
X42050Y838878D01*
X37115Y839860D01*
D02*
G37*
G36*
X157018Y776224D02*
X155402D01*
X153908Y775605D01*
X152765Y774462D01*
X152146Y772968D01*
Y771352D01*
X152765Y769858D01*
X153908Y768715D01*
X155402Y768096D01*
X157018D01*
X158512Y768715D01*
X159655Y769858D01*
X160274Y771352D01*
Y772968D01*
X159655Y774462D01*
X158512Y775605D01*
X157018Y776224D01*
D02*
G37*
G36*
X113584Y771652D02*
X111968D01*
X110474Y771033D01*
X109331Y769890D01*
X108712Y768396D01*
Y766780D01*
X109331Y765286D01*
X110474Y764143D01*
X111968Y763524D01*
X113584D01*
X115078Y764143D01*
X116221Y765286D01*
X116840Y766780D01*
Y768396D01*
X116221Y769890D01*
X115078Y771033D01*
X113584Y771652D01*
D02*
G37*
G36*
X272588Y766064D02*
X270972D01*
X269478Y765445D01*
X268335Y764302D01*
X267716Y762808D01*
Y761192D01*
X268335Y759698D01*
X269478Y758555D01*
X270972Y757936D01*
X272588D01*
X274082Y758555D01*
X275225Y759698D01*
X275844Y761192D01*
Y762808D01*
X275225Y764302D01*
X274082Y765445D01*
X272588Y766064D01*
D02*
G37*
G36*
X170734Y765810D02*
X169118D01*
X167624Y765191D01*
X166481Y764048D01*
X165862Y762554D01*
Y760938D01*
X166481Y759444D01*
X167624Y758301D01*
X169118Y757682D01*
X170734D01*
X172228Y758301D01*
X173371Y759444D01*
X173990Y760938D01*
Y762554D01*
X173371Y764048D01*
X172228Y765191D01*
X170734Y765810D01*
D02*
G37*
G36*
X128824Y761365D02*
X127208D01*
X125714Y760746D01*
X124571Y759603D01*
X123952Y758109D01*
Y756493D01*
X124571Y754999D01*
X125714Y753856D01*
X127208Y753237D01*
X128824D01*
X130318Y753856D01*
X131461Y754999D01*
X132080Y756493D01*
Y758109D01*
X131461Y759603D01*
X130318Y760746D01*
X128824Y761365D01*
D02*
G37*
G36*
X329991Y755904D02*
X327869D01*
X325909Y755092D01*
X324408Y753592D01*
X323596Y751631D01*
Y749509D01*
X324408Y747549D01*
X325909Y746048D01*
X327869Y745236D01*
X329991D01*
X331951Y746048D01*
X333452Y747549D01*
X334264Y749509D01*
Y751631D01*
X333452Y753592D01*
X331951Y755092D01*
X329991Y755904D01*
D02*
G37*
G36*
X138609Y753231D02*
X136993D01*
X135499Y752612D01*
X134356Y751469D01*
X133737Y749975D01*
Y748359D01*
X134356Y746865D01*
X135499Y745722D01*
X136993Y745103D01*
X138609D01*
X140103Y745722D01*
X141246Y746865D01*
X141865Y748359D01*
Y749975D01*
X141246Y751469D01*
X140103Y752612D01*
X138609Y753231D01*
D02*
G37*
G36*
X351581Y743204D02*
X349459D01*
X347499Y742392D01*
X345998Y740891D01*
X345186Y738931D01*
Y736809D01*
X345998Y734848D01*
X347499Y733348D01*
X349459Y732536D01*
X351581D01*
X353541Y733348D01*
X355042Y734848D01*
X355854Y736809D01*
Y738931D01*
X355042Y740891D01*
X353541Y742392D01*
X351581Y743204D01*
D02*
G37*
G36*
X228138Y740664D02*
X226522D01*
X225028Y740045D01*
X223885Y738902D01*
X223266Y737408D01*
Y735792D01*
X223885Y734298D01*
X225028Y733155D01*
X226522Y732536D01*
X228138D01*
X229632Y733155D01*
X230775Y734298D01*
X231394Y735792D01*
Y737408D01*
X230775Y738902D01*
X229632Y740045D01*
X228138Y740664D01*
D02*
G37*
G36*
X-10240Y793730D02*
X-15238D01*
X-20174Y792948D01*
X-24927Y791404D01*
X-29380Y789135D01*
X-33423Y786197D01*
X-36957Y782663D01*
X-39894Y778620D01*
X-42163Y774167D01*
X-43707Y769415D01*
X-44489Y764479D01*
Y759481D01*
X-43707Y754545D01*
X-42163Y749792D01*
X-39894Y745339D01*
X-36957Y741296D01*
X-33423Y737762D01*
X-29380Y734825D01*
X-24927Y732556D01*
X-20174Y731012D01*
X-15238Y730230D01*
X-10240D01*
X-5304Y731012D01*
X-551Y732556D01*
X3902Y734825D01*
X7945Y737762D01*
X11479Y741296D01*
X14416Y745339D01*
X16685Y749792D01*
X18229Y754545D01*
X19011Y759481D01*
Y764479D01*
X18229Y769415D01*
X16685Y774167D01*
X14416Y778620D01*
X11479Y782663D01*
X7945Y786197D01*
X3902Y789135D01*
X-551Y791404D01*
X-5304Y792948D01*
X-10240Y793730D01*
D02*
G37*
G36*
X170480Y729234D02*
X168864D01*
X167370Y728615D01*
X166227Y727472D01*
X165608Y725978D01*
Y724362D01*
X166227Y722868D01*
X167370Y721725D01*
X168864Y721106D01*
X170480D01*
X171974Y721725D01*
X173117Y722868D01*
X173736Y724362D01*
Y725978D01*
X173117Y727472D01*
X171974Y728615D01*
X170480Y729234D01*
D02*
G37*
G36*
X472358Y781029D02*
X467360D01*
X462425Y780247D01*
X457672Y778703D01*
X453219Y776434D01*
X449176Y773496D01*
X445642Y769962D01*
X442704Y765919D01*
X440435Y761467D01*
X438891Y756714D01*
X438109Y751777D01*
Y746780D01*
X438891Y741844D01*
X440435Y737091D01*
X442704Y732638D01*
X445642Y728595D01*
X449176Y725061D01*
X453219Y722124D01*
X457672Y719855D01*
X462425Y718311D01*
X467360Y717529D01*
X472358D01*
X477294Y718311D01*
X482047Y719855D01*
X486500Y722124D01*
X490543Y725061D01*
X494077Y728595D01*
X497014Y732638D01*
X499283Y737091D01*
X500827Y741844D01*
X501609Y746780D01*
Y751777D01*
X500827Y756714D01*
X499283Y761467D01*
X497014Y765919D01*
X494077Y769962D01*
X490543Y773496D01*
X486500Y776434D01*
X482047Y778703D01*
X477294Y780247D01*
X472358Y781029D01*
D02*
G37*
G36*
X547370Y733345D02*
X544830D01*
X542377Y732688D01*
X540178Y731418D01*
X538382Y729622D01*
X537112Y727423D01*
X536455Y724970D01*
Y722430D01*
X537112Y719977D01*
X538382Y717778D01*
X540178Y715982D01*
X542377Y714712D01*
X544830Y714055D01*
X547370D01*
X549823Y714712D01*
X552022Y715982D01*
X553818Y717778D01*
X555088Y719977D01*
X555745Y722430D01*
Y724970D01*
X555088Y727423D01*
X553818Y729622D01*
X552022Y731418D01*
X549823Y732688D01*
X547370Y733345D01*
D02*
G37*
G36*
X530345D02*
X511055D01*
Y714055D01*
X530345D01*
Y733345D01*
D02*
G37*
G36*
X-62230Y733345D02*
X-64770D01*
X-67223Y732688D01*
X-69422Y731418D01*
X-71218Y729622D01*
X-72488Y727423D01*
X-73145Y724970D01*
Y722430D01*
X-72488Y719977D01*
X-71218Y717778D01*
X-69422Y715982D01*
X-67223Y714712D01*
X-64770Y714055D01*
X-62230D01*
X-59777Y714712D01*
X-57578Y715982D01*
X-55782Y717778D01*
X-54512Y719977D01*
X-53855Y722430D01*
Y724970D01*
X-54512Y727423D01*
X-55782Y729622D01*
X-57578Y731418D01*
X-59777Y732688D01*
X-62230Y733345D01*
D02*
G37*
G36*
X-79255D02*
X-98545D01*
Y714055D01*
X-79255D01*
Y733345D01*
D02*
G37*
G36*
X547370Y707945D02*
X544830D01*
X542377Y707288D01*
X540178Y706018D01*
X538382Y704222D01*
X537112Y702023D01*
X536455Y699570D01*
Y697030D01*
X537112Y694577D01*
X538382Y692378D01*
X540178Y690582D01*
X542377Y689312D01*
X544830Y688655D01*
X547370D01*
X549823Y689312D01*
X552022Y690582D01*
X553818Y692378D01*
X555088Y694577D01*
X555745Y697030D01*
Y699570D01*
X555088Y702023D01*
X553818Y704222D01*
X552022Y706018D01*
X549823Y707288D01*
X547370Y707945D01*
D02*
G37*
G36*
X521970D02*
X519430D01*
X516977Y707288D01*
X514778Y706018D01*
X512982Y704222D01*
X511712Y702023D01*
X511055Y699570D01*
Y697030D01*
X511712Y694577D01*
X512982Y692378D01*
X514778Y690582D01*
X516977Y689312D01*
X519430Y688655D01*
X521970D01*
X524423Y689312D01*
X526622Y690582D01*
X528418Y692378D01*
X529688Y694577D01*
X530345Y697030D01*
Y699570D01*
X529688Y702023D01*
X528418Y704222D01*
X526622Y706018D01*
X524423Y707288D01*
X521970Y707945D01*
D02*
G37*
G36*
X-62230Y707945D02*
X-64770D01*
X-67223Y707288D01*
X-69422Y706018D01*
X-71218Y704222D01*
X-72488Y702023D01*
X-73145Y699570D01*
Y697030D01*
X-72488Y694577D01*
X-71218Y692378D01*
X-69422Y690582D01*
X-67223Y689312D01*
X-64770Y688655D01*
X-62230D01*
X-59777Y689312D01*
X-57578Y690582D01*
X-55782Y692378D01*
X-54512Y694577D01*
X-53855Y697030D01*
Y699570D01*
X-54512Y702023D01*
X-55782Y704222D01*
X-57578Y706018D01*
X-59777Y707288D01*
X-62230Y707945D01*
D02*
G37*
G36*
X-87630D02*
X-90170D01*
X-92623Y707288D01*
X-94822Y706018D01*
X-96618Y704222D01*
X-97888Y702023D01*
X-98545Y699570D01*
Y697030D01*
X-97888Y694577D01*
X-96618Y692378D01*
X-94822Y690582D01*
X-92623Y689312D01*
X-90170Y688655D01*
X-87630D01*
X-85177Y689312D01*
X-82978Y690582D01*
X-81182Y692378D01*
X-79912Y694577D01*
X-79255Y697030D01*
Y699570D01*
X-79912Y702023D01*
X-81182Y704222D01*
X-82978Y706018D01*
X-85177Y707288D01*
X-87630Y707945D01*
D02*
G37*
G36*
X272588Y696214D02*
X270972D01*
X269478Y695595D01*
X268335Y694452D01*
X267716Y692958D01*
Y691342D01*
X268335Y689848D01*
X269478Y688705D01*
X270972Y688086D01*
X272588D01*
X274082Y688705D01*
X275225Y689848D01*
X275844Y691342D01*
Y692958D01*
X275225Y694452D01*
X274082Y695595D01*
X272588Y696214D01*
D02*
G37*
G36*
X228138Y689864D02*
X226522D01*
X225028Y689245D01*
X223885Y688102D01*
X223266Y686608D01*
Y684992D01*
X223885Y683498D01*
X225028Y682355D01*
X226522Y681736D01*
X228138D01*
X229632Y682355D01*
X230775Y683498D01*
X231394Y684992D01*
Y686608D01*
X230775Y688102D01*
X229632Y689245D01*
X228138Y689864D01*
D02*
G37*
G36*
X331261Y686054D02*
X329139D01*
X327178Y685242D01*
X325678Y683742D01*
X324866Y681781D01*
Y679659D01*
X325678Y677699D01*
X327178Y676198D01*
X329139Y675386D01*
X331261D01*
X333222Y676198D01*
X334722Y677699D01*
X335534Y679659D01*
Y681781D01*
X334722Y683742D01*
X333222Y685242D01*
X331261Y686054D01*
D02*
G37*
G36*
X170988Y682244D02*
X169372D01*
X167878Y681625D01*
X166735Y680482D01*
X166116Y678988D01*
Y677372D01*
X166735Y675878D01*
X167878Y674735D01*
X169372Y674116D01*
X170988D01*
X172482Y674735D01*
X173625Y675878D01*
X174244Y677372D01*
Y678988D01*
X173625Y680482D01*
X172482Y681625D01*
X170988Y682244D01*
D02*
G37*
G36*
X-5289Y684784D02*
X-7411D01*
X-9372Y683972D01*
X-10872Y682471D01*
X-11684Y680511D01*
Y678389D01*
X-10872Y676429D01*
X-9372Y674928D01*
X-7411Y674116D01*
X-5289D01*
X-3329Y674928D01*
X-1828Y676429D01*
X-1016Y678389D01*
Y680511D01*
X-1828Y682471D01*
X-3329Y683972D01*
X-5289Y684784D01*
D02*
G37*
G36*
X-17989D02*
X-20111D01*
X-22071Y683972D01*
X-23572Y682471D01*
X-24384Y680511D01*
Y678389D01*
X-23572Y676429D01*
X-22071Y674928D01*
X-20111Y674116D01*
X-17989D01*
X-16028Y674928D01*
X-14528Y676429D01*
X-13716Y678389D01*
Y680511D01*
X-14528Y682471D01*
X-16028Y683972D01*
X-17989Y684784D01*
D02*
G37*
G36*
X547370Y682545D02*
X544830D01*
X542377Y681888D01*
X540178Y680618D01*
X538382Y678822D01*
X537112Y676623D01*
X536455Y674170D01*
Y671630D01*
X537112Y669177D01*
X538382Y666978D01*
X540178Y665182D01*
X542377Y663912D01*
X544830Y663255D01*
X547370D01*
X549823Y663912D01*
X552022Y665182D01*
X553818Y666978D01*
X555088Y669177D01*
X555745Y671630D01*
Y674170D01*
X555088Y676623D01*
X553818Y678822D01*
X552022Y680618D01*
X549823Y681888D01*
X547370Y682545D01*
D02*
G37*
G36*
X521970D02*
X519430D01*
X516977Y681888D01*
X514778Y680618D01*
X512982Y678822D01*
X511712Y676623D01*
X511055Y674170D01*
Y671630D01*
X511712Y669177D01*
X512982Y666978D01*
X514778Y665182D01*
X516977Y663912D01*
X519430Y663255D01*
X521970D01*
X524423Y663912D01*
X526622Y665182D01*
X528418Y666978D01*
X529688Y669177D01*
X530345Y671630D01*
Y674170D01*
X529688Y676623D01*
X528418Y678822D01*
X526622Y680618D01*
X524423Y681888D01*
X521970Y682545D01*
D02*
G37*
G36*
X-62230Y682545D02*
X-64770D01*
X-67223Y681888D01*
X-69422Y680618D01*
X-71218Y678822D01*
X-72488Y676623D01*
X-73145Y674170D01*
Y671630D01*
X-72488Y669177D01*
X-71218Y666978D01*
X-69422Y665182D01*
X-67223Y663912D01*
X-64770Y663255D01*
X-62230D01*
X-59777Y663912D01*
X-57578Y665182D01*
X-55782Y666978D01*
X-54512Y669177D01*
X-53855Y671630D01*
Y674170D01*
X-54512Y676623D01*
X-55782Y678822D01*
X-57578Y680618D01*
X-59777Y681888D01*
X-62230Y682545D01*
D02*
G37*
G36*
X-87630D02*
X-90170D01*
X-92623Y681888D01*
X-94822Y680618D01*
X-96618Y678822D01*
X-97888Y676623D01*
X-98545Y674170D01*
Y671630D01*
X-97888Y669177D01*
X-96618Y666978D01*
X-94822Y665182D01*
X-92623Y663912D01*
X-90170Y663255D01*
X-87630D01*
X-85177Y663912D01*
X-82978Y665182D01*
X-81182Y666978D01*
X-79912Y669177D01*
X-79255Y671630D01*
Y674170D01*
X-79912Y676623D01*
X-81182Y678822D01*
X-82978Y680618D01*
X-85177Y681888D01*
X-87630Y682545D01*
D02*
G37*
G36*
X350311Y673354D02*
X348189D01*
X346228Y672542D01*
X344728Y671041D01*
X343916Y669081D01*
Y666959D01*
X344728Y664998D01*
X346228Y663498D01*
X348189Y662686D01*
X350311D01*
X352271Y663498D01*
X353772Y664998D01*
X354584Y666959D01*
Y669081D01*
X353772Y671041D01*
X352271Y672542D01*
X350311Y673354D01*
D02*
G37*
G36*
X-5289Y672084D02*
X-7411D01*
X-9372Y671272D01*
X-10872Y669771D01*
X-11684Y667811D01*
Y665689D01*
X-10872Y663728D01*
X-9372Y662228D01*
X-7411Y661416D01*
X-5289D01*
X-3329Y662228D01*
X-1828Y663728D01*
X-1016Y665689D01*
Y667811D01*
X-1828Y669771D01*
X-3329Y671272D01*
X-5289Y672084D01*
D02*
G37*
G36*
X-17989D02*
X-20111D01*
X-22071Y671272D01*
X-23572Y669771D01*
X-24384Y667811D01*
Y665689D01*
X-23572Y663728D01*
X-22071Y662228D01*
X-20111Y661416D01*
X-17989D01*
X-16028Y662228D01*
X-14528Y663728D01*
X-13716Y665689D01*
Y667811D01*
X-14528Y669771D01*
X-16028Y671272D01*
X-17989Y672084D01*
D02*
G37*
G36*
X161844Y659384D02*
X160228D01*
X158734Y658765D01*
X157591Y657622D01*
X156972Y656128D01*
Y654512D01*
X157591Y653018D01*
X158734Y651875D01*
X160228Y651256D01*
X161844D01*
X163338Y651875D01*
X164481Y653018D01*
X165100Y654512D01*
Y656128D01*
X164481Y657622D01*
X163338Y658765D01*
X161844Y659384D01*
D02*
G37*
G36*
X-62230Y657145D02*
Y648770D01*
X-53855D01*
X-54512Y651223D01*
X-55782Y653422D01*
X-57578Y655218D01*
X-59777Y656488D01*
X-62230Y657145D01*
D02*
G37*
G36*
X-64770Y657145D02*
X-67223Y656488D01*
X-69422Y655218D01*
X-71218Y653422D01*
X-72488Y651223D01*
X-73145Y648770D01*
X-64770D01*
Y657145D01*
D02*
G37*
G36*
X547370Y657145D02*
X544830D01*
X542377Y656488D01*
X540178Y655218D01*
X538382Y653422D01*
X537112Y651223D01*
X536455Y648770D01*
Y646230D01*
X537112Y643777D01*
X538382Y641578D01*
X540178Y639782D01*
X542377Y638512D01*
X544830Y637855D01*
X547370D01*
X549823Y638512D01*
X552022Y639782D01*
X553818Y641578D01*
X555088Y643777D01*
X555745Y646230D01*
Y648770D01*
X555088Y651223D01*
X553818Y653422D01*
X552022Y655218D01*
X549823Y656488D01*
X547370Y657145D01*
D02*
G37*
G36*
X521970D02*
X519430D01*
X516977Y656488D01*
X514778Y655218D01*
X512982Y653422D01*
X511712Y651223D01*
X511055Y648770D01*
Y646230D01*
X511712Y643777D01*
X512982Y641578D01*
X514778Y639782D01*
X516977Y638512D01*
X519430Y637855D01*
X521970D01*
X524423Y638512D01*
X526622Y639782D01*
X528418Y641578D01*
X529688Y643777D01*
X530345Y646230D01*
Y648770D01*
X529688Y651223D01*
X528418Y653422D01*
X526622Y655218D01*
X524423Y656488D01*
X521970Y657145D01*
D02*
G37*
G36*
X-53855Y646230D02*
X-62230D01*
Y637855D01*
X-59777Y638512D01*
X-57578Y639782D01*
X-55782Y641578D01*
X-54512Y643777D01*
X-53855Y646230D01*
D02*
G37*
G36*
X-64770D02*
X-73145D01*
X-72488Y643777D01*
X-71218Y641578D01*
X-69422Y639782D01*
X-67223Y638512D01*
X-64770Y637855D01*
Y646230D01*
D02*
G37*
G36*
X-87630Y657145D02*
X-90170D01*
X-92623Y656488D01*
X-94822Y655218D01*
X-96618Y653422D01*
X-97888Y651223D01*
X-98545Y648770D01*
Y646230D01*
X-97888Y643777D01*
X-96618Y641578D01*
X-94822Y639782D01*
X-92623Y638512D01*
X-90170Y637855D01*
X-87630D01*
X-85177Y638512D01*
X-82978Y639782D01*
X-81182Y641578D01*
X-79912Y643777D01*
X-79255Y646230D01*
Y648770D01*
X-79912Y651223D01*
X-81182Y653422D01*
X-82978Y655218D01*
X-85177Y656488D01*
X-87630Y657145D01*
D02*
G37*
G36*
X370631Y637794D02*
X368509D01*
X366549Y636982D01*
X365048Y635481D01*
X364236Y633521D01*
Y631399D01*
X365048Y629439D01*
X366549Y627938D01*
X368509Y627126D01*
X370631D01*
X372592Y627938D01*
X374092Y629439D01*
X374904Y631399D01*
Y633521D01*
X374092Y635481D01*
X372592Y636982D01*
X370631Y637794D01*
D02*
G37*
G36*
X357931D02*
X355809D01*
X353848Y636982D01*
X352348Y635481D01*
X351536Y633521D01*
Y631399D01*
X352348Y629439D01*
X353848Y627938D01*
X355809Y627126D01*
X357931D01*
X359892Y627938D01*
X361392Y629439D01*
X362204Y631399D01*
Y633521D01*
X361392Y635481D01*
X359892Y636982D01*
X357931Y637794D01*
D02*
G37*
G36*
X345231D02*
X343109D01*
X341148Y636982D01*
X339648Y635481D01*
X338836Y633521D01*
Y631399D01*
X339648Y629439D01*
X341148Y627938D01*
X343109Y627126D01*
X345231D01*
X347192Y627938D01*
X348692Y629439D01*
X349504Y631399D01*
Y633521D01*
X348692Y635481D01*
X347192Y636982D01*
X345231Y637794D01*
D02*
G37*
G36*
X332531D02*
X330409D01*
X328448Y636982D01*
X326948Y635481D01*
X326136Y633521D01*
Y631399D01*
X326948Y629439D01*
X328448Y627938D01*
X330409Y627126D01*
X332531D01*
X334492Y627938D01*
X335992Y629439D01*
X336804Y631399D01*
Y633521D01*
X335992Y635481D01*
X334492Y636982D01*
X332531Y637794D01*
D02*
G37*
G36*
X319831D02*
X317709D01*
X315749Y636982D01*
X314248Y635481D01*
X313436Y633521D01*
Y631399D01*
X314248Y629439D01*
X315749Y627938D01*
X317709Y627126D01*
X319831D01*
X321791Y627938D01*
X323292Y629439D01*
X324104Y631399D01*
Y633521D01*
X323292Y635481D01*
X321791Y636982D01*
X319831Y637794D01*
D02*
G37*
G36*
X521970Y631745D02*
Y623370D01*
X530345D01*
X529688Y625823D01*
X528418Y628022D01*
X526622Y629818D01*
X524423Y631088D01*
X521970Y631745D01*
D02*
G37*
G36*
X519430Y631745D02*
X516977Y631088D01*
X514778Y629818D01*
X512982Y628022D01*
X511712Y625823D01*
X511055Y623370D01*
X519430D01*
Y631745D01*
D02*
G37*
G36*
X101911Y627634D02*
X99789D01*
X97829Y626822D01*
X96328Y625322D01*
X95516Y623361D01*
Y621239D01*
X96328Y619278D01*
X97829Y617778D01*
X99789Y616966D01*
X101911D01*
X103871Y617778D01*
X105372Y619278D01*
X106184Y621239D01*
Y623361D01*
X105372Y625322D01*
X103871Y626822D01*
X101911Y627634D01*
D02*
G37*
G36*
X89211D02*
X87089D01*
X85128Y626822D01*
X83628Y625322D01*
X82816Y623361D01*
Y621239D01*
X83628Y619278D01*
X85128Y617778D01*
X87089Y616966D01*
X89211D01*
X91171Y617778D01*
X92672Y619278D01*
X93484Y621239D01*
Y623361D01*
X92672Y625322D01*
X91171Y626822D01*
X89211Y627634D01*
D02*
G37*
G36*
X76511D02*
X74389D01*
X72428Y626822D01*
X70928Y625322D01*
X70116Y623361D01*
Y621239D01*
X70928Y619278D01*
X72428Y617778D01*
X74389Y616966D01*
X76511D01*
X78471Y617778D01*
X79972Y619278D01*
X80784Y621239D01*
Y623361D01*
X79972Y625322D01*
X78471Y626822D01*
X76511Y627634D01*
D02*
G37*
G36*
X63811D02*
X61689D01*
X59728Y626822D01*
X58228Y625322D01*
X57416Y623361D01*
Y621239D01*
X58228Y619278D01*
X59728Y617778D01*
X61689Y616966D01*
X63811D01*
X65771Y617778D01*
X67272Y619278D01*
X68084Y621239D01*
Y623361D01*
X67272Y625322D01*
X65771Y626822D01*
X63811Y627634D01*
D02*
G37*
G36*
X370631Y625094D02*
X368509D01*
X366549Y624282D01*
X365048Y622781D01*
X364236Y620821D01*
Y618699D01*
X365048Y616739D01*
X366549Y615238D01*
X368509Y614426D01*
X370631D01*
X372592Y615238D01*
X374092Y616739D01*
X374904Y618699D01*
Y620821D01*
X374092Y622781D01*
X372592Y624282D01*
X370631Y625094D01*
D02*
G37*
G36*
X357931D02*
X355809D01*
X353848Y624282D01*
X352348Y622781D01*
X351536Y620821D01*
Y618699D01*
X352348Y616739D01*
X353848Y615238D01*
X355809Y614426D01*
X357931D01*
X359892Y615238D01*
X361392Y616739D01*
X362204Y618699D01*
Y620821D01*
X361392Y622781D01*
X359892Y624282D01*
X357931Y625094D01*
D02*
G37*
G36*
X345231D02*
X343109D01*
X341148Y624282D01*
X339648Y622781D01*
X338836Y620821D01*
Y618699D01*
X339648Y616739D01*
X341148Y615238D01*
X343109Y614426D01*
X345231D01*
X347192Y615238D01*
X348692Y616739D01*
X349504Y618699D01*
Y620821D01*
X348692Y622781D01*
X347192Y624282D01*
X345231Y625094D01*
D02*
G37*
G36*
X332531D02*
X330409D01*
X328448Y624282D01*
X326948Y622781D01*
X326136Y620821D01*
Y618699D01*
X326948Y616739D01*
X328448Y615238D01*
X330409Y614426D01*
X332531D01*
X334492Y615238D01*
X335992Y616739D01*
X336804Y618699D01*
Y620821D01*
X335992Y622781D01*
X334492Y624282D01*
X332531Y625094D01*
D02*
G37*
G36*
X519430Y620830D02*
X511055D01*
X511712Y618377D01*
X512982Y616178D01*
X514778Y614382D01*
X516977Y613112D01*
X519430Y612455D01*
Y620830D01*
D02*
G37*
G36*
X530345D02*
X521970D01*
Y612455D01*
X524423Y613112D01*
X526622Y614382D01*
X528418Y616178D01*
X529688Y618377D01*
X530345Y620830D01*
D02*
G37*
G36*
X547370Y631745D02*
X544830D01*
X542377Y631088D01*
X540178Y629818D01*
X538382Y628022D01*
X537112Y625823D01*
X536455Y623370D01*
Y620830D01*
X537112Y618377D01*
X538382Y616178D01*
X540178Y614382D01*
X542377Y613112D01*
X544830Y612455D01*
X547370D01*
X549823Y613112D01*
X552022Y614382D01*
X553818Y616178D01*
X555088Y618377D01*
X555745Y620830D01*
Y623370D01*
X555088Y625823D01*
X553818Y628022D01*
X552022Y629818D01*
X549823Y631088D01*
X547370Y631745D01*
D02*
G37*
G36*
X-62230Y631745D02*
X-64770D01*
X-67223Y631088D01*
X-69422Y629818D01*
X-71218Y628022D01*
X-72488Y625823D01*
X-73145Y623370D01*
Y620830D01*
X-72488Y618377D01*
X-71218Y616178D01*
X-69422Y614382D01*
X-67223Y613112D01*
X-64770Y612455D01*
X-62230D01*
X-59777Y613112D01*
X-57578Y614382D01*
X-55782Y616178D01*
X-54512Y618377D01*
X-53855Y620830D01*
Y623370D01*
X-54512Y625823D01*
X-55782Y628022D01*
X-57578Y629818D01*
X-59777Y631088D01*
X-62230Y631745D01*
D02*
G37*
G36*
X-7829Y616204D02*
X-9951D01*
X-11911Y615392D01*
X-13412Y613891D01*
X-14224Y611931D01*
Y609809D01*
X-13676Y608486D01*
X-14648Y607514D01*
X-15703Y607951D01*
X-17825D01*
X-19786Y607139D01*
X-21286Y605638D01*
X-22098Y603678D01*
Y601831D01*
X-23082Y600864D01*
X-23323Y600964D01*
X-25445D01*
X-27406Y600152D01*
X-28906Y598652D01*
X-29718Y596691D01*
Y594569D01*
X-28906Y592608D01*
X-27406Y591108D01*
X-25445Y590296D01*
X-23323D01*
X-21363Y591108D01*
X-19862Y592608D01*
X-19050Y594569D01*
Y596415D01*
X-18067Y597383D01*
X-17825Y597283D01*
X-15703D01*
X-13743Y598095D01*
X-12242Y599595D01*
X-11430Y601556D01*
Y603678D01*
X-11978Y605001D01*
X-11006Y605973D01*
X-9951Y605536D01*
X-7829D01*
X-5868Y606348D01*
X-4368Y607849D01*
X-3556Y609809D01*
Y611931D01*
X-4368Y613891D01*
X-5868Y615392D01*
X-7829Y616204D01*
D02*
G37*
G36*
X63811Y614934D02*
X61689D01*
X59728Y614122D01*
X58228Y612621D01*
X57416Y610661D01*
Y608539D01*
X58228Y606578D01*
X59728Y605078D01*
X61689Y604266D01*
X63811D01*
X65771Y605078D01*
X67272Y606578D01*
X68084Y608539D01*
Y610661D01*
X67272Y612621D01*
X65771Y614122D01*
X63811Y614934D01*
D02*
G37*
G36*
Y602234D02*
X61689D01*
X59728Y601422D01*
X58228Y599921D01*
X57416Y597961D01*
Y595839D01*
X58228Y593879D01*
X59728Y592378D01*
X61689Y591566D01*
X63811D01*
X65771Y592378D01*
X67272Y593879D01*
X68084Y595839D01*
Y597961D01*
X67272Y599921D01*
X65771Y601422D01*
X63811Y602234D01*
D02*
G37*
G36*
X547370Y606345D02*
X544830D01*
X542377Y605688D01*
X540178Y604418D01*
X538382Y602622D01*
X537112Y600423D01*
X536455Y597970D01*
Y595430D01*
X537112Y592977D01*
X538382Y590778D01*
X540178Y588982D01*
X542377Y587712D01*
X544830Y587055D01*
X547370D01*
X549823Y587712D01*
X552022Y588982D01*
X553818Y590778D01*
X555088Y592977D01*
X555745Y595430D01*
Y597970D01*
X555088Y600423D01*
X553818Y602622D01*
X552022Y604418D01*
X549823Y605688D01*
X547370Y606345D01*
D02*
G37*
G36*
X521970D02*
X519430D01*
X516977Y605688D01*
X514778Y604418D01*
X512982Y602622D01*
X511712Y600423D01*
X511055Y597970D01*
Y595430D01*
X511712Y592977D01*
X512982Y590778D01*
X514778Y588982D01*
X516977Y587712D01*
X519430Y587055D01*
X521970D01*
X524423Y587712D01*
X526622Y588982D01*
X528418Y590778D01*
X529688Y592977D01*
X530345Y595430D01*
Y597970D01*
X529688Y600423D01*
X528418Y602622D01*
X526622Y604418D01*
X524423Y605688D01*
X521970Y606345D01*
D02*
G37*
G36*
X-62230Y606345D02*
X-64770D01*
X-67223Y605688D01*
X-69422Y604418D01*
X-71218Y602622D01*
X-72488Y600423D01*
X-73145Y597970D01*
Y595430D01*
X-72488Y592977D01*
X-71218Y590778D01*
X-69422Y588982D01*
X-67223Y587712D01*
X-64770Y587055D01*
X-62230D01*
X-59777Y587712D01*
X-57578Y588982D01*
X-55782Y590778D01*
X-54512Y592977D01*
X-53855Y595430D01*
Y597970D01*
X-54512Y600423D01*
X-55782Y602622D01*
X-57578Y604418D01*
X-59777Y605688D01*
X-62230Y606345D01*
D02*
G37*
G36*
X-87062Y636063D02*
X-90738D01*
X-94290Y635112D01*
X-97473Y633273D01*
X-100073Y630673D01*
X-101911Y627490D01*
X-102863Y623938D01*
Y620262D01*
X-101911Y616711D01*
X-100073Y613526D01*
X-97473Y610927D01*
X-95929Y610035D01*
Y608765D01*
X-97473Y607873D01*
X-100073Y605274D01*
X-101911Y602090D01*
X-102863Y598538D01*
Y594862D01*
X-101911Y591311D01*
X-100073Y588126D01*
X-97473Y585527D01*
X-94290Y583689D01*
X-90738Y582737D01*
X-87062D01*
X-83511Y583689D01*
X-80326Y585527D01*
X-77727Y588126D01*
X-75889Y591311D01*
X-74937Y594862D01*
Y598538D01*
X-75889Y602090D01*
X-77727Y605274D01*
X-80326Y607873D01*
X-81871Y608765D01*
Y610035D01*
X-80326Y610927D01*
X-77727Y613526D01*
X-75889Y616711D01*
X-74937Y620262D01*
Y623938D01*
X-75889Y627490D01*
X-77727Y630673D01*
X-80326Y633273D01*
X-83511Y635112D01*
X-87062Y636063D01*
D02*
G37*
G36*
X63811Y589534D02*
X61689D01*
X59728Y588722D01*
X58228Y587221D01*
X57416Y585261D01*
Y583139D01*
X58228Y581179D01*
X59728Y579678D01*
X61689Y578866D01*
X63811D01*
X65771Y579678D01*
X67272Y581179D01*
X68084Y583139D01*
Y585261D01*
X67272Y587221D01*
X65771Y588722D01*
X63811Y589534D01*
D02*
G37*
G36*
Y576834D02*
X61689D01*
X59728Y576022D01*
X58228Y574521D01*
X57416Y572561D01*
Y570439D01*
X58228Y568479D01*
X59728Y566978D01*
X61689Y566166D01*
X63811D01*
X65771Y566978D01*
X67272Y568479D01*
X68084Y570439D01*
Y572561D01*
X67272Y574521D01*
X65771Y576022D01*
X63811Y576834D01*
D02*
G37*
G36*
X547370Y580945D02*
X544830D01*
X542377Y580288D01*
X540178Y579018D01*
X538382Y577222D01*
X537112Y575023D01*
X536455Y572570D01*
Y570030D01*
X537112Y567577D01*
X538382Y565378D01*
X540178Y563582D01*
X542377Y562312D01*
X544830Y561655D01*
X547370D01*
X549823Y562312D01*
X552022Y563582D01*
X553818Y565378D01*
X555088Y567577D01*
X555745Y570030D01*
Y572570D01*
X555088Y575023D01*
X553818Y577222D01*
X552022Y579018D01*
X549823Y580288D01*
X547370Y580945D01*
D02*
G37*
G36*
X521970D02*
X519430D01*
X516977Y580288D01*
X514778Y579018D01*
X512982Y577222D01*
X511712Y575023D01*
X511055Y572570D01*
Y570030D01*
X511712Y567577D01*
X512982Y565378D01*
X514778Y563582D01*
X516977Y562312D01*
X519430Y561655D01*
X521970D01*
X524423Y562312D01*
X526622Y563582D01*
X528418Y565378D01*
X529688Y567577D01*
X530345Y570030D01*
Y572570D01*
X529688Y575023D01*
X528418Y577222D01*
X526622Y579018D01*
X524423Y580288D01*
X521970Y580945D01*
D02*
G37*
G36*
X-62230Y580945D02*
X-64770D01*
X-67223Y580288D01*
X-69422Y579018D01*
X-71218Y577222D01*
X-72488Y575023D01*
X-73145Y572570D01*
Y570030D01*
X-72488Y567577D01*
X-71218Y565378D01*
X-69422Y563582D01*
X-67223Y562312D01*
X-64770Y561655D01*
X-62230D01*
X-59777Y562312D01*
X-57578Y563582D01*
X-55782Y565378D01*
X-54512Y567577D01*
X-53855Y570030D01*
Y572570D01*
X-54512Y575023D01*
X-55782Y577222D01*
X-57578Y579018D01*
X-59777Y580288D01*
X-62230Y580945D01*
D02*
G37*
G36*
X-87630D02*
X-90170D01*
X-92623Y580288D01*
X-94822Y579018D01*
X-96618Y577222D01*
X-97888Y575023D01*
X-98545Y572570D01*
Y570030D01*
X-97888Y567577D01*
X-96618Y565378D01*
X-94822Y563582D01*
X-92623Y562312D01*
X-90170Y561655D01*
X-87630D01*
X-85177Y562312D01*
X-82978Y563582D01*
X-81182Y565378D01*
X-79912Y567577D01*
X-79255Y570030D01*
Y572570D01*
X-79912Y575023D01*
X-81182Y577222D01*
X-82978Y579018D01*
X-85177Y580288D01*
X-87630Y580945D01*
D02*
G37*
G36*
X547370Y555545D02*
X544830D01*
X542377Y554888D01*
X540178Y553618D01*
X538382Y551822D01*
X537112Y549623D01*
X536455Y547170D01*
Y544630D01*
X537112Y542177D01*
X538382Y539978D01*
X540178Y538182D01*
X542377Y536912D01*
X544830Y536255D01*
X547370D01*
X549823Y536912D01*
X552022Y538182D01*
X553818Y539978D01*
X555088Y542177D01*
X555745Y544630D01*
Y547170D01*
X555088Y549623D01*
X553818Y551822D01*
X552022Y553618D01*
X549823Y554888D01*
X547370Y555545D01*
D02*
G37*
G36*
X521970D02*
X519430D01*
X516977Y554888D01*
X514778Y553618D01*
X512982Y551822D01*
X511712Y549623D01*
X511055Y547170D01*
Y544630D01*
X511712Y542177D01*
X512982Y539978D01*
X514778Y538182D01*
X516977Y536912D01*
X519430Y536255D01*
X521970D01*
X524423Y536912D01*
X526622Y538182D01*
X528418Y539978D01*
X529688Y542177D01*
X530345Y544630D01*
Y547170D01*
X529688Y549623D01*
X528418Y551822D01*
X526622Y553618D01*
X524423Y554888D01*
X521970Y555545D01*
D02*
G37*
G36*
X-62230Y555545D02*
X-64770D01*
X-67223Y554888D01*
X-69422Y553618D01*
X-71218Y551822D01*
X-72488Y549623D01*
X-73145Y547170D01*
Y544630D01*
X-72488Y542177D01*
X-71218Y539978D01*
X-69422Y538182D01*
X-67223Y536912D01*
X-64770Y536255D01*
X-62230D01*
X-59777Y536912D01*
X-57578Y538182D01*
X-55782Y539978D01*
X-54512Y542177D01*
X-53855Y544630D01*
Y547170D01*
X-54512Y549623D01*
X-55782Y551822D01*
X-57578Y553618D01*
X-59777Y554888D01*
X-62230Y555545D01*
D02*
G37*
G36*
X-87630D02*
X-90170D01*
X-92623Y554888D01*
X-94822Y553618D01*
X-96618Y551822D01*
X-97888Y549623D01*
X-98545Y547170D01*
Y544630D01*
X-97888Y542177D01*
X-96618Y539978D01*
X-94822Y538182D01*
X-92623Y536912D01*
X-90170Y536255D01*
X-87630D01*
X-85177Y536912D01*
X-82978Y538182D01*
X-81182Y539978D01*
X-79912Y542177D01*
X-79255Y544630D01*
Y547170D01*
X-79912Y549623D01*
X-81182Y551822D01*
X-82978Y553618D01*
X-85177Y554888D01*
X-87630Y555545D01*
D02*
G37*
G36*
X419411Y526034D02*
X417289D01*
X415328Y525222D01*
X413828Y523722D01*
X413016Y521761D01*
Y519639D01*
X413828Y517678D01*
X415328Y516178D01*
X417289Y515366D01*
X419411D01*
X421371Y516178D01*
X422872Y517678D01*
X423684Y519639D01*
Y521761D01*
X422872Y523722D01*
X421371Y525222D01*
X419411Y526034D01*
D02*
G37*
G36*
X406711D02*
X404589D01*
X402629Y525222D01*
X401128Y523722D01*
X400316Y521761D01*
Y519639D01*
X401128Y517678D01*
X402629Y516178D01*
X404589Y515366D01*
X406711D01*
X408671Y516178D01*
X410172Y517678D01*
X410984Y519639D01*
Y521761D01*
X410172Y523722D01*
X408671Y525222D01*
X406711Y526034D01*
D02*
G37*
G36*
X547370Y530145D02*
X544830D01*
X542377Y529488D01*
X540178Y528218D01*
X538382Y526422D01*
X537112Y524223D01*
X536455Y521770D01*
Y519230D01*
X537112Y516777D01*
X538382Y514578D01*
X540178Y512782D01*
X542377Y511512D01*
X544830Y510855D01*
X547370D01*
X549823Y511512D01*
X552022Y512782D01*
X553818Y514578D01*
X555088Y516777D01*
X555745Y519230D01*
Y521770D01*
X555088Y524223D01*
X553818Y526422D01*
X552022Y528218D01*
X549823Y529488D01*
X547370Y530145D01*
D02*
G37*
G36*
X521970D02*
X519430D01*
X516977Y529488D01*
X514778Y528218D01*
X512982Y526422D01*
X511712Y524223D01*
X511055Y521770D01*
Y519230D01*
X511712Y516777D01*
X512982Y514578D01*
X514778Y512782D01*
X516977Y511512D01*
X519430Y510855D01*
X521970D01*
X524423Y511512D01*
X526622Y512782D01*
X528418Y514578D01*
X529688Y516777D01*
X530345Y519230D01*
Y521770D01*
X529688Y524223D01*
X528418Y526422D01*
X526622Y528218D01*
X524423Y529488D01*
X521970Y530145D01*
D02*
G37*
G36*
X-62230Y530145D02*
X-64770D01*
X-67223Y529488D01*
X-69422Y528218D01*
X-71218Y526422D01*
X-72488Y524223D01*
X-73145Y521770D01*
Y519230D01*
X-72488Y516777D01*
X-71218Y514578D01*
X-69422Y512782D01*
X-67223Y511512D01*
X-64770Y510855D01*
X-62230D01*
X-59777Y511512D01*
X-57578Y512782D01*
X-55782Y514578D01*
X-54512Y516777D01*
X-53855Y519230D01*
Y521770D01*
X-54512Y524223D01*
X-55782Y526422D01*
X-57578Y528218D01*
X-59777Y529488D01*
X-62230Y530145D01*
D02*
G37*
G36*
X-87630D02*
X-90170D01*
X-92623Y529488D01*
X-94822Y528218D01*
X-96618Y526422D01*
X-97888Y524223D01*
X-98545Y521770D01*
Y519230D01*
X-97888Y516777D01*
X-96618Y514578D01*
X-94822Y512782D01*
X-92623Y511512D01*
X-90170Y510855D01*
X-87630D01*
X-85177Y511512D01*
X-82978Y512782D01*
X-81182Y514578D01*
X-79912Y516777D01*
X-79255Y519230D01*
Y521770D01*
X-79912Y524223D01*
X-81182Y526422D01*
X-82978Y528218D01*
X-85177Y529488D01*
X-87630Y530145D01*
D02*
G37*
G36*
X419411Y513334D02*
X417289D01*
X415328Y512522D01*
X413828Y511021D01*
X413016Y509061D01*
Y506939D01*
X413828Y504978D01*
X415328Y503478D01*
X417289Y502666D01*
X419411D01*
X421371Y503478D01*
X422872Y504978D01*
X423684Y506939D01*
Y509061D01*
X422872Y511021D01*
X421371Y512522D01*
X419411Y513334D01*
D02*
G37*
G36*
X406711D02*
X404589D01*
X402629Y512522D01*
X401128Y511021D01*
X400316Y509061D01*
Y506939D01*
X401128Y504978D01*
X402629Y503478D01*
X404589Y502666D01*
X406711D01*
X408671Y503478D01*
X410172Y504978D01*
X410984Y506939D01*
Y509061D01*
X410172Y511021D01*
X408671Y512522D01*
X406711Y513334D01*
D02*
G37*
G36*
X-62230Y504745D02*
Y496370D01*
X-53855D01*
X-54512Y498823D01*
X-55782Y501022D01*
X-57578Y502818D01*
X-59777Y504088D01*
X-62230Y504745D01*
D02*
G37*
G36*
X-87630D02*
Y496370D01*
X-79255D01*
X-79912Y498823D01*
X-81182Y501022D01*
X-82978Y502818D01*
X-85177Y504088D01*
X-87630Y504745D01*
D02*
G37*
G36*
X547370Y504745D02*
Y496370D01*
X555745D01*
X555088Y498823D01*
X553818Y501022D01*
X552022Y502818D01*
X549823Y504088D01*
X547370Y504745D01*
D02*
G37*
G36*
X-90170Y504745D02*
X-92623Y504088D01*
X-94822Y502818D01*
X-96618Y501022D01*
X-97888Y498823D01*
X-98545Y496370D01*
X-90170D01*
Y504745D01*
D02*
G37*
G36*
X-64770D02*
X-67223Y504088D01*
X-69422Y502818D01*
X-71218Y501022D01*
X-72488Y498823D01*
X-73145Y496370D01*
X-64770D01*
Y504745D01*
D02*
G37*
G36*
X544830Y504745D02*
X542377Y504088D01*
X540178Y502818D01*
X538382Y501022D01*
X537112Y498823D01*
X536455Y496370D01*
X544830D01*
Y504745D01*
D02*
G37*
G36*
X419411Y500634D02*
X417289D01*
X415328Y499822D01*
X413828Y498321D01*
X413016Y496361D01*
Y494239D01*
X413828Y492279D01*
X415328Y490778D01*
X417289Y489966D01*
X419411D01*
X421371Y490778D01*
X422872Y492279D01*
X423684Y494239D01*
Y496361D01*
X422872Y498321D01*
X421371Y499822D01*
X419411Y500634D01*
D02*
G37*
G36*
X406711D02*
X404589D01*
X402629Y499822D01*
X401128Y498321D01*
X400316Y496361D01*
Y494239D01*
X401128Y492279D01*
X402629Y490778D01*
X404589Y489966D01*
X406711D01*
X408671Y490778D01*
X410172Y492279D01*
X410984Y494239D01*
Y496361D01*
X410172Y498321D01*
X408671Y499822D01*
X406711Y500634D01*
D02*
G37*
G36*
X206801D02*
X204679D01*
X202719Y499822D01*
X201218Y498321D01*
X200406Y496361D01*
Y494239D01*
X201218Y492279D01*
X202719Y490778D01*
X204679Y489966D01*
X206801D01*
X208762Y490778D01*
X210262Y492279D01*
X211074Y494239D01*
Y496361D01*
X210262Y498321D01*
X208762Y499822D01*
X206801Y500634D01*
D02*
G37*
G36*
X544830Y493830D02*
X536455D01*
X537112Y491377D01*
X538382Y489178D01*
X540178Y487382D01*
X542377Y486112D01*
X544830Y485455D01*
Y493830D01*
D02*
G37*
G36*
X555745D02*
X547370D01*
Y485455D01*
X549823Y486112D01*
X552022Y487382D01*
X553818Y489178D01*
X555088Y491377D01*
X555745Y493830D01*
D02*
G37*
G36*
X521970Y504745D02*
X519430D01*
X516977Y504088D01*
X514778Y502818D01*
X512982Y501022D01*
X511712Y498823D01*
X511055Y496370D01*
Y493830D01*
X511712Y491377D01*
X512982Y489178D01*
X514778Y487382D01*
X516977Y486112D01*
X519430Y485455D01*
X521970D01*
X524423Y486112D01*
X526622Y487382D01*
X528418Y489178D01*
X529688Y491377D01*
X530345Y493830D01*
Y496370D01*
X529688Y498823D01*
X528418Y501022D01*
X526622Y502818D01*
X524423Y504088D01*
X521970Y504745D01*
D02*
G37*
G36*
X-53855Y493830D02*
X-62230D01*
Y485455D01*
X-59777Y486112D01*
X-57578Y487382D01*
X-55782Y489178D01*
X-54512Y491377D01*
X-53855Y493830D01*
D02*
G37*
G36*
X-79255D02*
X-87630D01*
Y485455D01*
X-85177Y486112D01*
X-82978Y487382D01*
X-81182Y489178D01*
X-79912Y491377D01*
X-79255Y493830D01*
D02*
G37*
G36*
X-90170D02*
X-98545D01*
X-97888Y491377D01*
X-96618Y489178D01*
X-94822Y487382D01*
X-92623Y486112D01*
X-90170Y485455D01*
Y493830D01*
D02*
G37*
G36*
X-64770D02*
X-73145D01*
X-72488Y491377D01*
X-71218Y489178D01*
X-69422Y487382D01*
X-67223Y486112D01*
X-64770Y485455D01*
Y493830D01*
D02*
G37*
G36*
X419411Y487934D02*
X417289D01*
X415328Y487122D01*
X413828Y485621D01*
X413016Y483661D01*
Y481539D01*
X413828Y479579D01*
X415328Y478078D01*
X417289Y477266D01*
X419411D01*
X421371Y478078D01*
X422872Y479579D01*
X423684Y481539D01*
Y483661D01*
X422872Y485621D01*
X421371Y487122D01*
X419411Y487934D01*
D02*
G37*
G36*
X406711D02*
X404589D01*
X402629Y487122D01*
X401128Y485621D01*
X400316Y483661D01*
Y481539D01*
X401128Y479579D01*
X402629Y478078D01*
X404589Y477266D01*
X406711D01*
X408671Y478078D01*
X410172Y479579D01*
X410984Y481539D01*
Y483661D01*
X410172Y485621D01*
X408671Y487122D01*
X406711Y487934D01*
D02*
G37*
G36*
X-62230Y479345D02*
Y470970D01*
X-53855D01*
X-54512Y473423D01*
X-55782Y475622D01*
X-57578Y477418D01*
X-59777Y478688D01*
X-62230Y479345D01*
D02*
G37*
G36*
X-64770Y479345D02*
X-67223Y478688D01*
X-69422Y477418D01*
X-71218Y475622D01*
X-72488Y473423D01*
X-73145Y470970D01*
X-64770D01*
Y479345D01*
D02*
G37*
G36*
X419411Y475234D02*
X417289D01*
X415328Y474422D01*
X413828Y472921D01*
X413016Y470961D01*
Y468839D01*
X413828Y466879D01*
X415328Y465378D01*
X417289Y464566D01*
X419411D01*
X421371Y465378D01*
X422872Y466879D01*
X423684Y468839D01*
Y470961D01*
X422872Y472921D01*
X421371Y474422D01*
X419411Y475234D01*
D02*
G37*
G36*
X406711D02*
X404589D01*
X402629Y474422D01*
X401128Y472921D01*
X400316Y470961D01*
Y468839D01*
X401128Y466879D01*
X402629Y465378D01*
X404589Y464566D01*
X406711D01*
X408671Y465378D01*
X410172Y466879D01*
X410984Y468839D01*
Y470961D01*
X410172Y472921D01*
X408671Y474422D01*
X406711Y475234D01*
D02*
G37*
G36*
X547370Y479345D02*
X544830D01*
X542377Y478688D01*
X540178Y477418D01*
X538382Y475622D01*
X537112Y473423D01*
X536455Y470970D01*
Y468430D01*
X537112Y465977D01*
X538382Y463778D01*
X540178Y461982D01*
X542377Y460712D01*
X544830Y460055D01*
X547370D01*
X549823Y460712D01*
X552022Y461982D01*
X553818Y463778D01*
X555088Y465977D01*
X555745Y468430D01*
Y470970D01*
X555088Y473423D01*
X553818Y475622D01*
X552022Y477418D01*
X549823Y478688D01*
X547370Y479345D01*
D02*
G37*
G36*
X521970D02*
X519430D01*
X516977Y478688D01*
X514778Y477418D01*
X512982Y475622D01*
X511712Y473423D01*
X511055Y470970D01*
Y468430D01*
X511712Y465977D01*
X512982Y463778D01*
X514778Y461982D01*
X516977Y460712D01*
X519430Y460055D01*
X521970D01*
X524423Y460712D01*
X526622Y461982D01*
X528418Y463778D01*
X529688Y465977D01*
X530345Y468430D01*
Y470970D01*
X529688Y473423D01*
X528418Y475622D01*
X526622Y477418D01*
X524423Y478688D01*
X521970Y479345D01*
D02*
G37*
G36*
X-53855Y468430D02*
X-62230D01*
Y460055D01*
X-59777Y460712D01*
X-57578Y461982D01*
X-55782Y463778D01*
X-54512Y465977D01*
X-53855Y468430D01*
D02*
G37*
G36*
X-64770D02*
X-73145D01*
X-72488Y465977D01*
X-71218Y463778D01*
X-69422Y461982D01*
X-67223Y460712D01*
X-64770Y460055D01*
Y468430D01*
D02*
G37*
G36*
X-87630Y479345D02*
X-90170D01*
X-92623Y478688D01*
X-94822Y477418D01*
X-96618Y475622D01*
X-97888Y473423D01*
X-98545Y470970D01*
Y468430D01*
X-97888Y465977D01*
X-96618Y463778D01*
X-94822Y461982D01*
X-92623Y460712D01*
X-90170Y460055D01*
X-87630D01*
X-85177Y460712D01*
X-82978Y461982D01*
X-81182Y463778D01*
X-79912Y465977D01*
X-79255Y468430D01*
Y470970D01*
X-79912Y473423D01*
X-81182Y475622D01*
X-82978Y477418D01*
X-85177Y478688D01*
X-87630Y479345D01*
D02*
G37*
G36*
X419411Y462534D02*
X417289D01*
X415328Y461722D01*
X413828Y460221D01*
X413016Y458261D01*
Y456139D01*
X413828Y454179D01*
X415328Y452678D01*
X417289Y451866D01*
X419411D01*
X421371Y452678D01*
X422872Y454179D01*
X423684Y456139D01*
Y458261D01*
X422872Y460221D01*
X421371Y461722D01*
X419411Y462534D01*
D02*
G37*
G36*
X406711D02*
X404589D01*
X402629Y461722D01*
X401128Y460221D01*
X400316Y458261D01*
Y456139D01*
X401128Y454179D01*
X402629Y452678D01*
X404589Y451866D01*
X406711D01*
X408671Y452678D01*
X410172Y454179D01*
X410984Y456139D01*
Y458261D01*
X410172Y460221D01*
X408671Y461722D01*
X406711Y462534D01*
D02*
G37*
G36*
X419411Y449834D02*
X417289D01*
X415328Y449022D01*
X413828Y447522D01*
X413016Y445561D01*
Y443439D01*
X413828Y441479D01*
X415328Y439978D01*
X417289Y439166D01*
X419411D01*
X421371Y439978D01*
X422872Y441479D01*
X423684Y443439D01*
Y445561D01*
X422872Y447522D01*
X421371Y449022D01*
X419411Y449834D01*
D02*
G37*
G36*
X406711D02*
X404589D01*
X402629Y449022D01*
X401128Y447522D01*
X400316Y445561D01*
Y443439D01*
X401128Y441479D01*
X402629Y439978D01*
X404589Y439166D01*
X406711D01*
X408671Y439978D01*
X410172Y441479D01*
X410984Y443439D01*
Y445561D01*
X410172Y447522D01*
X408671Y449022D01*
X406711Y449834D01*
D02*
G37*
G36*
X547370Y453945D02*
X544830D01*
X542377Y453288D01*
X540178Y452018D01*
X538382Y450222D01*
X537112Y448023D01*
X536455Y445570D01*
Y443030D01*
X537112Y440577D01*
X538382Y438378D01*
X540178Y436582D01*
X542377Y435312D01*
X544830Y434655D01*
X547370D01*
X549823Y435312D01*
X552022Y436582D01*
X553818Y438378D01*
X555088Y440577D01*
X555745Y443030D01*
Y445570D01*
X555088Y448023D01*
X553818Y450222D01*
X552022Y452018D01*
X549823Y453288D01*
X547370Y453945D01*
D02*
G37*
G36*
X521970D02*
X519430D01*
X516977Y453288D01*
X514778Y452018D01*
X512982Y450222D01*
X511712Y448023D01*
X511055Y445570D01*
Y443030D01*
X511712Y440577D01*
X512982Y438378D01*
X514778Y436582D01*
X516977Y435312D01*
X519430Y434655D01*
X521970D01*
X524423Y435312D01*
X526622Y436582D01*
X528418Y438378D01*
X529688Y440577D01*
X530345Y443030D01*
Y445570D01*
X529688Y448023D01*
X528418Y450222D01*
X526622Y452018D01*
X524423Y453288D01*
X521970Y453945D01*
D02*
G37*
G36*
X-62230Y453945D02*
X-64770D01*
X-67223Y453288D01*
X-69422Y452018D01*
X-71218Y450222D01*
X-72488Y448023D01*
X-73145Y445570D01*
Y443030D01*
X-72488Y440577D01*
X-71218Y438378D01*
X-69422Y436582D01*
X-67223Y435312D01*
X-64770Y434655D01*
X-62230D01*
X-59777Y435312D01*
X-57578Y436582D01*
X-55782Y438378D01*
X-54512Y440577D01*
X-53855Y443030D01*
Y445570D01*
X-54512Y448023D01*
X-55782Y450222D01*
X-57578Y452018D01*
X-59777Y453288D01*
X-62230Y453945D01*
D02*
G37*
G36*
X-87630D02*
X-90170D01*
X-92623Y453288D01*
X-94822Y452018D01*
X-96618Y450222D01*
X-97888Y448023D01*
X-98545Y445570D01*
Y443030D01*
X-97888Y440577D01*
X-96618Y438378D01*
X-94822Y436582D01*
X-92623Y435312D01*
X-90170Y434655D01*
X-87630D01*
X-85177Y435312D01*
X-82978Y436582D01*
X-81182Y438378D01*
X-79912Y440577D01*
X-79255Y443030D01*
Y445570D01*
X-79912Y448023D01*
X-81182Y450222D01*
X-82978Y452018D01*
X-85177Y453288D01*
X-87630Y453945D01*
D02*
G37*
G36*
X419411Y437134D02*
X417289D01*
X415328Y436322D01*
X413828Y434822D01*
X413016Y432861D01*
Y430739D01*
X413828Y428778D01*
X415328Y427278D01*
X417289Y426466D01*
X419411D01*
X421371Y427278D01*
X422872Y428778D01*
X423684Y430739D01*
Y432861D01*
X422872Y434822D01*
X421371Y436322D01*
X419411Y437134D01*
D02*
G37*
G36*
X406711D02*
X404589D01*
X402629Y436322D01*
X401128Y434822D01*
X400316Y432861D01*
Y430739D01*
X401128Y428778D01*
X402629Y427278D01*
X404589Y426466D01*
X406711D01*
X408671Y427278D01*
X410172Y428778D01*
X410984Y430739D01*
Y432861D01*
X410172Y434822D01*
X408671Y436322D01*
X406711Y437134D01*
D02*
G37*
G36*
X148381Y420624D02*
X146259D01*
X144298Y419812D01*
X142798Y418312D01*
X141986Y416351D01*
Y414229D01*
X142798Y412268D01*
X144298Y410768D01*
X146259Y409956D01*
X148381D01*
X150342Y410768D01*
X151842Y412268D01*
X152654Y414229D01*
Y416351D01*
X151842Y418312D01*
X150342Y419812D01*
X148381Y420624D01*
D02*
G37*
G36*
X135681D02*
X133559D01*
X131599Y419812D01*
X130098Y418312D01*
X129286Y416351D01*
Y414229D01*
X130098Y412268D01*
X131599Y410768D01*
X133559Y409956D01*
X135681D01*
X137641Y410768D01*
X139142Y412268D01*
X139954Y414229D01*
Y416351D01*
X139142Y418312D01*
X137641Y419812D01*
X135681Y420624D01*
D02*
G37*
G36*
X122981D02*
X120859D01*
X118898Y419812D01*
X117398Y418312D01*
X116586Y416351D01*
Y414229D01*
X117398Y412268D01*
X118898Y410768D01*
X120859Y409956D01*
X122981D01*
X124942Y410768D01*
X126442Y412268D01*
X127254Y414229D01*
Y416351D01*
X126442Y418312D01*
X124942Y419812D01*
X122981Y420624D01*
D02*
G37*
G36*
X110281D02*
X108159D01*
X106199Y419812D01*
X104698Y418312D01*
X103886Y416351D01*
Y414229D01*
X104698Y412268D01*
X106199Y410768D01*
X108159Y409956D01*
X110281D01*
X112241Y410768D01*
X113742Y412268D01*
X114554Y414229D01*
Y416351D01*
X113742Y418312D01*
X112241Y419812D01*
X110281Y420624D01*
D02*
G37*
G36*
X97581D02*
X95459D01*
X93498Y419812D01*
X91998Y418312D01*
X91186Y416351D01*
Y414229D01*
X91998Y412268D01*
X93498Y410768D01*
X95459Y409956D01*
X97581D01*
X99542Y410768D01*
X101042Y412268D01*
X101854Y414229D01*
Y416351D01*
X101042Y418312D01*
X99542Y419812D01*
X97581Y420624D01*
D02*
G37*
G36*
X547370Y428545D02*
X544830D01*
X542377Y427888D01*
X540178Y426618D01*
X538382Y424822D01*
X537112Y422623D01*
X536455Y420170D01*
Y417630D01*
X537112Y415177D01*
X538382Y412978D01*
X540178Y411182D01*
X542377Y409912D01*
X544830Y409255D01*
X547370D01*
X549823Y409912D01*
X552022Y411182D01*
X553818Y412978D01*
X555088Y415177D01*
X555745Y417630D01*
Y420170D01*
X555088Y422623D01*
X553818Y424822D01*
X552022Y426618D01*
X549823Y427888D01*
X547370Y428545D01*
D02*
G37*
G36*
X521970D02*
X519430D01*
X516977Y427888D01*
X514778Y426618D01*
X512982Y424822D01*
X511712Y422623D01*
X511055Y420170D01*
Y417630D01*
X511712Y415177D01*
X512982Y412978D01*
X514778Y411182D01*
X516977Y409912D01*
X519430Y409255D01*
X521970D01*
X524423Y409912D01*
X526622Y411182D01*
X528418Y412978D01*
X529688Y415177D01*
X530345Y417630D01*
Y420170D01*
X529688Y422623D01*
X528418Y424822D01*
X526622Y426618D01*
X524423Y427888D01*
X521970Y428545D01*
D02*
G37*
G36*
X-62230Y428545D02*
X-64770D01*
X-67223Y427888D01*
X-69422Y426618D01*
X-71218Y424822D01*
X-72488Y422623D01*
X-73145Y420170D01*
Y417630D01*
X-72488Y415177D01*
X-71218Y412978D01*
X-69422Y411182D01*
X-67223Y409912D01*
X-64770Y409255D01*
X-62230D01*
X-59777Y409912D01*
X-57578Y411182D01*
X-55782Y412978D01*
X-54512Y415177D01*
X-53855Y417630D01*
Y420170D01*
X-54512Y422623D01*
X-55782Y424822D01*
X-57578Y426618D01*
X-59777Y427888D01*
X-62230Y428545D01*
D02*
G37*
G36*
X-87630D02*
X-90170D01*
X-92623Y427888D01*
X-94822Y426618D01*
X-96618Y424822D01*
X-97888Y422623D01*
X-98545Y420170D01*
Y417630D01*
X-97888Y415177D01*
X-96618Y412978D01*
X-94822Y411182D01*
X-92623Y409912D01*
X-90170Y409255D01*
X-87630D01*
X-85177Y409912D01*
X-82978Y411182D01*
X-81182Y412978D01*
X-79912Y415177D01*
X-79255Y417630D01*
Y420170D01*
X-79912Y422623D01*
X-81182Y424822D01*
X-82978Y426618D01*
X-85177Y427888D01*
X-87630Y428545D01*
D02*
G37*
G36*
X148320Y407985D02*
X146198D01*
X144238Y407173D01*
X142737Y405672D01*
X141925Y403712D01*
Y401590D01*
X142737Y399629D01*
X144238Y398129D01*
X146198Y397317D01*
X148320D01*
X150281Y398129D01*
X151781Y399629D01*
X152593Y401590D01*
Y403712D01*
X151781Y405672D01*
X150281Y407173D01*
X148320Y407985D01*
D02*
G37*
G36*
X135681Y407924D02*
X133559D01*
X131599Y407112D01*
X130098Y405611D01*
X129286Y403651D01*
Y401529D01*
X130098Y399568D01*
X131599Y398068D01*
X133559Y397256D01*
X135681D01*
X137641Y398068D01*
X139142Y399568D01*
X139954Y401529D01*
Y403651D01*
X139142Y405611D01*
X137641Y407112D01*
X135681Y407924D01*
D02*
G37*
G36*
X122981D02*
X120859D01*
X118898Y407112D01*
X117398Y405611D01*
X116586Y403651D01*
Y401529D01*
X117398Y399568D01*
X118898Y398068D01*
X120859Y397256D01*
X122981D01*
X124942Y398068D01*
X126442Y399568D01*
X127254Y401529D01*
Y403651D01*
X126442Y405611D01*
X124942Y407112D01*
X122981Y407924D01*
D02*
G37*
G36*
X110281D02*
X108159D01*
X106199Y407112D01*
X104698Y405611D01*
X103886Y403651D01*
Y401529D01*
X104698Y399568D01*
X106199Y398068D01*
X108159Y397256D01*
X110281D01*
X112241Y398068D01*
X113742Y399568D01*
X114554Y401529D01*
Y403651D01*
X113742Y405611D01*
X112241Y407112D01*
X110281Y407924D01*
D02*
G37*
G36*
X97581D02*
X95459D01*
X93498Y407112D01*
X91998Y405611D01*
X91186Y403651D01*
Y401529D01*
X91998Y399568D01*
X93498Y398068D01*
X95459Y397256D01*
X97581D01*
X99542Y398068D01*
X101042Y399568D01*
X101854Y401529D01*
Y403651D01*
X101042Y405611D01*
X99542Y407112D01*
X97581Y407924D01*
D02*
G37*
G36*
X547370Y403145D02*
X544830D01*
X542377Y402488D01*
X540178Y401218D01*
X538382Y399422D01*
X537112Y397223D01*
X536455Y394770D01*
Y392230D01*
X537112Y389777D01*
X538382Y387578D01*
X540178Y385782D01*
X542377Y384512D01*
X544830Y383855D01*
X547370D01*
X549823Y384512D01*
X552022Y385782D01*
X553818Y387578D01*
X555088Y389777D01*
X555745Y392230D01*
Y394770D01*
X555088Y397223D01*
X553818Y399422D01*
X552022Y401218D01*
X549823Y402488D01*
X547370Y403145D01*
D02*
G37*
G36*
X521970D02*
X519430D01*
X516977Y402488D01*
X514778Y401218D01*
X512982Y399422D01*
X511712Y397223D01*
X511055Y394770D01*
Y392230D01*
X511712Y389777D01*
X512982Y387578D01*
X514778Y385782D01*
X516977Y384512D01*
X519430Y383855D01*
X521970D01*
X524423Y384512D01*
X526622Y385782D01*
X528418Y387578D01*
X529688Y389777D01*
X530345Y392230D01*
Y394770D01*
X529688Y397223D01*
X528418Y399422D01*
X526622Y401218D01*
X524423Y402488D01*
X521970Y403145D01*
D02*
G37*
G36*
X-62230Y403145D02*
X-64770D01*
X-67223Y402488D01*
X-69422Y401218D01*
X-71218Y399422D01*
X-72488Y397223D01*
X-73145Y394770D01*
Y392230D01*
X-72488Y389777D01*
X-71218Y387578D01*
X-69422Y385782D01*
X-67223Y384512D01*
X-64770Y383855D01*
X-62230D01*
X-59777Y384512D01*
X-57578Y385782D01*
X-55782Y387578D01*
X-54512Y389777D01*
X-53855Y392230D01*
Y394770D01*
X-54512Y397223D01*
X-55782Y399422D01*
X-57578Y401218D01*
X-59777Y402488D01*
X-62230Y403145D01*
D02*
G37*
G36*
X-87630D02*
X-90170D01*
X-92623Y402488D01*
X-94822Y401218D01*
X-96618Y399422D01*
X-97888Y397223D01*
X-98545Y394770D01*
Y392230D01*
X-97888Y389777D01*
X-96618Y387578D01*
X-94822Y385782D01*
X-92623Y384512D01*
X-90170Y383855D01*
X-87630D01*
X-85177Y384512D01*
X-82978Y385782D01*
X-81182Y387578D01*
X-79912Y389777D01*
X-79255Y392230D01*
Y394770D01*
X-79912Y397223D01*
X-81182Y399422D01*
X-82978Y401218D01*
X-85177Y402488D01*
X-87630Y403145D01*
D02*
G37*
G36*
X547370Y377745D02*
X544830D01*
X542377Y377088D01*
X540178Y375818D01*
X538382Y374022D01*
X537112Y371823D01*
X536455Y369370D01*
Y366830D01*
X537112Y364377D01*
X538382Y362178D01*
X540178Y360382D01*
X542377Y359112D01*
X544830Y358455D01*
X547370D01*
X549823Y359112D01*
X552022Y360382D01*
X553818Y362178D01*
X555088Y364377D01*
X555745Y366830D01*
Y369370D01*
X555088Y371823D01*
X553818Y374022D01*
X552022Y375818D01*
X549823Y377088D01*
X547370Y377745D01*
D02*
G37*
G36*
X521970D02*
X519430D01*
X516977Y377088D01*
X514778Y375818D01*
X512982Y374022D01*
X511712Y371823D01*
X511055Y369370D01*
Y366830D01*
X511712Y364377D01*
X512982Y362178D01*
X514778Y360382D01*
X516977Y359112D01*
X519430Y358455D01*
X521970D01*
X524423Y359112D01*
X526622Y360382D01*
X528418Y362178D01*
X529688Y364377D01*
X530345Y366830D01*
Y369370D01*
X529688Y371823D01*
X528418Y374022D01*
X526622Y375818D01*
X524423Y377088D01*
X521970Y377745D01*
D02*
G37*
G36*
X-62230Y377745D02*
X-64770D01*
X-67223Y377088D01*
X-69422Y375818D01*
X-71218Y374022D01*
X-72488Y371823D01*
X-73145Y369370D01*
Y366830D01*
X-72488Y364377D01*
X-71218Y362178D01*
X-69422Y360382D01*
X-67223Y359112D01*
X-64770Y358455D01*
X-62230D01*
X-59777Y359112D01*
X-57578Y360382D01*
X-55782Y362178D01*
X-54512Y364377D01*
X-53855Y366830D01*
Y369370D01*
X-54512Y371823D01*
X-55782Y374022D01*
X-57578Y375818D01*
X-59777Y377088D01*
X-62230Y377745D01*
D02*
G37*
G36*
X-87630D02*
X-90170D01*
X-92623Y377088D01*
X-94822Y375818D01*
X-96618Y374022D01*
X-97888Y371823D01*
X-98545Y369370D01*
Y366830D01*
X-97888Y364377D01*
X-96618Y362178D01*
X-94822Y360382D01*
X-92623Y359112D01*
X-90170Y358455D01*
X-87630D01*
X-85177Y359112D01*
X-82978Y360382D01*
X-81182Y362178D01*
X-79912Y364377D01*
X-79255Y366830D01*
Y369370D01*
X-79912Y371823D01*
X-81182Y374022D01*
X-82978Y375818D01*
X-85177Y377088D01*
X-87630Y377745D01*
D02*
G37*
G36*
X-23323Y367284D02*
X-25445D01*
X-27406Y366472D01*
X-28906Y364971D01*
X-29718Y363011D01*
Y360889D01*
X-28906Y358928D01*
X-27406Y357428D01*
X-25445Y356616D01*
X-23323D01*
X-21363Y357428D01*
X-19862Y358928D01*
X-19050Y360889D01*
Y363011D01*
X-19862Y364971D01*
X-21363Y366472D01*
X-23323Y367284D01*
D02*
G37*
G36*
X547370Y352345D02*
Y343970D01*
X555745D01*
X555088Y346423D01*
X553818Y348622D01*
X552022Y350418D01*
X549823Y351688D01*
X547370Y352345D01*
D02*
G37*
G36*
X544830Y352345D02*
X542377Y351688D01*
X540178Y350418D01*
X538382Y348622D01*
X537112Y346423D01*
X536455Y343970D01*
X544830D01*
Y352345D01*
D02*
G37*
G36*
X-16719Y357124D02*
X-18841D01*
X-20801Y356312D01*
X-22302Y354812D01*
X-23114Y352851D01*
Y350729D01*
X-22302Y348769D01*
X-20801Y347268D01*
X-18841Y346456D01*
X-16719D01*
X-16092Y346716D01*
X-15120Y345744D01*
X-15494Y344840D01*
Y342718D01*
X-14682Y340757D01*
X-13182Y339257D01*
X-11221Y338445D01*
X-9099D01*
X-7139Y339257D01*
X-5638Y340757D01*
X-4826Y342718D01*
Y344840D01*
X-5638Y346800D01*
X-7139Y348301D01*
X-9099Y349113D01*
X-11221D01*
X-11848Y348853D01*
X-12821Y349825D01*
X-12446Y350729D01*
Y352851D01*
X-13258Y354812D01*
X-14758Y356312D01*
X-16719Y357124D01*
D02*
G37*
G36*
X544830Y341430D02*
X536455D01*
X537112Y338977D01*
X538382Y336778D01*
X540178Y334982D01*
X542377Y333712D01*
X544830Y333055D01*
Y341430D01*
D02*
G37*
G36*
X555745D02*
X547370D01*
Y333055D01*
X549823Y333712D01*
X552022Y334982D01*
X553818Y336778D01*
X555088Y338977D01*
X555745Y341430D01*
D02*
G37*
G36*
X521970Y352345D02*
X519430D01*
X516977Y351688D01*
X514778Y350418D01*
X512982Y348622D01*
X511712Y346423D01*
X511055Y343970D01*
Y341430D01*
X511712Y338977D01*
X512982Y336778D01*
X514778Y334982D01*
X516977Y333712D01*
X519430Y333055D01*
X521970D01*
X524423Y333712D01*
X526622Y334982D01*
X528418Y336778D01*
X529688Y338977D01*
X530345Y341430D01*
Y343970D01*
X529688Y346423D01*
X528418Y348622D01*
X526622Y350418D01*
X524423Y351688D01*
X521970Y352345D01*
D02*
G37*
G36*
X-62230Y352345D02*
X-64770D01*
X-67223Y351688D01*
X-69422Y350418D01*
X-71218Y348622D01*
X-72488Y346423D01*
X-73145Y343970D01*
Y341430D01*
X-72488Y338977D01*
X-71218Y336778D01*
X-69422Y334982D01*
X-67223Y333712D01*
X-64770Y333055D01*
X-62230D01*
X-59777Y333712D01*
X-57578Y334982D01*
X-55782Y336778D01*
X-54512Y338977D01*
X-53855Y341430D01*
Y343970D01*
X-54512Y346423D01*
X-55782Y348622D01*
X-57578Y350418D01*
X-59777Y351688D01*
X-62230Y352345D01*
D02*
G37*
G36*
X-87630D02*
X-90170D01*
X-92623Y351688D01*
X-94822Y350418D01*
X-96618Y348622D01*
X-97888Y346423D01*
X-98545Y343970D01*
Y341430D01*
X-97888Y338977D01*
X-96618Y336778D01*
X-94822Y334982D01*
X-92623Y333712D01*
X-90170Y333055D01*
X-87630D01*
X-85177Y333712D01*
X-82978Y334982D01*
X-81182Y336778D01*
X-79912Y338977D01*
X-79255Y341430D01*
Y343970D01*
X-79912Y346423D01*
X-81182Y348622D01*
X-82978Y350418D01*
X-85177Y351688D01*
X-87630Y352345D01*
D02*
G37*
G36*
X458657Y338640D02*
X458470D01*
Y325120D01*
X471990D01*
Y325307D01*
X471422Y328164D01*
X470307Y330856D01*
X468688Y333278D01*
X466628Y335338D01*
X464206Y336957D01*
X461514Y338072D01*
X458657Y338640D01*
D02*
G37*
G36*
X407857D02*
X407670D01*
Y325120D01*
X421190D01*
Y325307D01*
X420622Y328164D01*
X419507Y330856D01*
X417888Y333278D01*
X415828Y335338D01*
X413406Y336957D01*
X410714Y338072D01*
X407857Y338640D01*
D02*
G37*
G36*
X405130D02*
X404943D01*
X402086Y338072D01*
X399394Y336957D01*
X396972Y335338D01*
X394912Y333278D01*
X393293Y330856D01*
X392178Y328164D01*
X391610Y325307D01*
Y325120D01*
X405130D01*
Y338640D01*
D02*
G37*
G36*
X455930D02*
X455743D01*
X452886Y338072D01*
X450194Y336957D01*
X447772Y335338D01*
X445712Y333278D01*
X444093Y330856D01*
X442978Y328164D01*
X442410Y325307D01*
Y325120D01*
X455930D01*
Y338640D01*
D02*
G37*
G36*
X471990Y322580D02*
X458470D01*
Y309060D01*
X458657D01*
X461514Y309628D01*
X464206Y310743D01*
X466628Y312362D01*
X468688Y314422D01*
X470307Y316844D01*
X471422Y319536D01*
X471990Y322393D01*
Y322580D01*
D02*
G37*
G36*
X421190D02*
X407670D01*
Y309060D01*
X407857D01*
X410714Y309628D01*
X412172Y310232D01*
X413442Y309384D01*
Y287516D01*
X412172Y286668D01*
X410714Y287272D01*
X407857Y287840D01*
X407670D01*
Y274320D01*
X421190D01*
Y274507D01*
X420622Y277364D01*
X420018Y278822D01*
X420866Y280092D01*
X442734D01*
X443582Y278822D01*
X442978Y277364D01*
X442410Y274507D01*
Y274320D01*
X455930D01*
Y287840D01*
X455743D01*
X452886Y287272D01*
X451428Y286668D01*
X450158Y287516D01*
Y309384D01*
X451428Y310232D01*
X452886Y309628D01*
X455743Y309060D01*
X455930D01*
Y322580D01*
X442410D01*
Y322393D01*
X442978Y319536D01*
X443582Y318078D01*
X442734Y316808D01*
X420866D01*
X420018Y318078D01*
X420622Y319536D01*
X421190Y322393D01*
Y322580D01*
D02*
G37*
G36*
X405130D02*
X391610D01*
Y322393D01*
X392178Y319536D01*
X393293Y316844D01*
X394912Y314422D01*
X396972Y312362D01*
X399394Y310743D01*
X402086Y309628D01*
X404943Y309060D01*
X405130D01*
Y322580D01*
D02*
G37*
G36*
X547370Y326945D02*
X544830D01*
X542377Y326288D01*
X540178Y325018D01*
X538382Y323222D01*
X537112Y321023D01*
X536455Y318570D01*
Y316030D01*
X537112Y313577D01*
X538382Y311378D01*
X540178Y309582D01*
X542377Y308312D01*
X544830Y307655D01*
X547370D01*
X549823Y308312D01*
X552022Y309582D01*
X553818Y311378D01*
X555088Y313577D01*
X555745Y316030D01*
Y318570D01*
X555088Y321023D01*
X553818Y323222D01*
X552022Y325018D01*
X549823Y326288D01*
X547370Y326945D01*
D02*
G37*
G36*
X521970D02*
X519430D01*
X516977Y326288D01*
X514778Y325018D01*
X512982Y323222D01*
X511712Y321023D01*
X511055Y318570D01*
Y316030D01*
X511712Y313577D01*
X512982Y311378D01*
X514778Y309582D01*
X516977Y308312D01*
X519430Y307655D01*
X521970D01*
X524423Y308312D01*
X526622Y309582D01*
X528418Y311378D01*
X529688Y313577D01*
X530345Y316030D01*
Y318570D01*
X529688Y321023D01*
X528418Y323222D01*
X526622Y325018D01*
X524423Y326288D01*
X521970Y326945D01*
D02*
G37*
G36*
X-62230Y326945D02*
X-64770D01*
X-67223Y326288D01*
X-69422Y325018D01*
X-71218Y323222D01*
X-72488Y321023D01*
X-73145Y318570D01*
Y316030D01*
X-72488Y313577D01*
X-71218Y311378D01*
X-69422Y309582D01*
X-67223Y308312D01*
X-64770Y307655D01*
X-62230D01*
X-59777Y308312D01*
X-57578Y309582D01*
X-55782Y311378D01*
X-54512Y313577D01*
X-53855Y316030D01*
Y318570D01*
X-54512Y321023D01*
X-55782Y323222D01*
X-57578Y325018D01*
X-59777Y326288D01*
X-62230Y326945D01*
D02*
G37*
G36*
X-87630D02*
X-90170D01*
X-92623Y326288D01*
X-94822Y325018D01*
X-96618Y323222D01*
X-97888Y321023D01*
X-98545Y318570D01*
Y316030D01*
X-97888Y313577D01*
X-96618Y311378D01*
X-94822Y309582D01*
X-92623Y308312D01*
X-90170Y307655D01*
X-87630D01*
X-85177Y308312D01*
X-82978Y309582D01*
X-81182Y311378D01*
X-79912Y313577D01*
X-79255Y316030D01*
Y318570D01*
X-79912Y321023D01*
X-81182Y323222D01*
X-82978Y325018D01*
X-85177Y326288D01*
X-87630Y326945D01*
D02*
G37*
G36*
X-61662Y305863D02*
X-65338D01*
X-68889Y304911D01*
X-72073Y303073D01*
X-74673Y300473D01*
X-75565Y298929D01*
X-76835D01*
X-77727Y300473D01*
X-80326Y303073D01*
X-83511Y304911D01*
X-87062Y305863D01*
X-90738D01*
X-94290Y304911D01*
X-97473Y303073D01*
X-100073Y300473D01*
X-101911Y297290D01*
X-102863Y293738D01*
Y290062D01*
X-101911Y286511D01*
X-100073Y283326D01*
X-97473Y280727D01*
X-95929Y279835D01*
Y278565D01*
X-97473Y277673D01*
X-100073Y275074D01*
X-101911Y271889D01*
X-102863Y268338D01*
Y264662D01*
X-101911Y261110D01*
X-100073Y257927D01*
X-97473Y255327D01*
X-94290Y253489D01*
X-90738Y252537D01*
X-87062D01*
X-83511Y253489D01*
X-80326Y255327D01*
X-77727Y257927D01*
X-76835Y259471D01*
X-75565D01*
X-74673Y257927D01*
X-72073Y255327D01*
X-68889Y253489D01*
X-65338Y252537D01*
X-61662D01*
X-58110Y253489D01*
X-54927Y255327D01*
X-52327Y257927D01*
X-50489Y261110D01*
X-49537Y264662D01*
Y268338D01*
X-50489Y271889D01*
X-52327Y275074D01*
X-54927Y277673D01*
X-56471Y278565D01*
Y279835D01*
X-54927Y280727D01*
X-52327Y283326D01*
X-50489Y286511D01*
X-49537Y290062D01*
Y293738D01*
X-50489Y297290D01*
X-52327Y300473D01*
X-54927Y303073D01*
X-58110Y304911D01*
X-61662Y305863D01*
D02*
G37*
G36*
X317291Y297434D02*
X315169D01*
X313209Y296622D01*
X311708Y295121D01*
X310896Y293161D01*
Y291039D01*
X311708Y289079D01*
X313209Y287578D01*
X315169Y286766D01*
X317291D01*
X319251Y287578D01*
X320752Y289079D01*
X321564Y291039D01*
Y293161D01*
X320752Y295121D01*
X319251Y296622D01*
X317291Y297434D01*
D02*
G37*
G36*
X547370Y301545D02*
X544830D01*
X542377Y300888D01*
X540178Y299618D01*
X538382Y297822D01*
X537112Y295623D01*
X536455Y293170D01*
Y290630D01*
X537112Y288177D01*
X538382Y285978D01*
X540178Y284182D01*
X542377Y282912D01*
X544830Y282255D01*
X547370D01*
X549823Y282912D01*
X552022Y284182D01*
X553818Y285978D01*
X555088Y288177D01*
X555745Y290630D01*
Y293170D01*
X555088Y295623D01*
X553818Y297822D01*
X552022Y299618D01*
X549823Y300888D01*
X547370Y301545D01*
D02*
G37*
G36*
X521970D02*
X519430D01*
X516977Y300888D01*
X514778Y299618D01*
X512982Y297822D01*
X511712Y295623D01*
X511055Y293170D01*
Y290630D01*
X511712Y288177D01*
X512982Y285978D01*
X514778Y284182D01*
X516977Y282912D01*
X519430Y282255D01*
X521970D01*
X524423Y282912D01*
X526622Y284182D01*
X528418Y285978D01*
X529688Y288177D01*
X530345Y290630D01*
Y293170D01*
X529688Y295623D01*
X528418Y297822D01*
X526622Y299618D01*
X524423Y300888D01*
X521970Y301545D01*
D02*
G37*
G36*
X347771Y289814D02*
X345649D01*
X343689Y289002D01*
X342188Y287502D01*
X341376Y285541D01*
Y283419D01*
X342188Y281458D01*
X343689Y279958D01*
X345649Y279146D01*
X347771D01*
X349731Y279958D01*
X351232Y281458D01*
X352044Y283419D01*
Y285541D01*
X351232Y287502D01*
X349731Y289002D01*
X347771Y289814D01*
D02*
G37*
G36*
X458657Y287840D02*
X458470D01*
Y274320D01*
X471990D01*
Y274507D01*
X471422Y277364D01*
X470307Y280056D01*
X468688Y282478D01*
X466628Y284538D01*
X464206Y286157D01*
X461514Y287272D01*
X458657Y287840D01*
D02*
G37*
G36*
X405130D02*
X404943D01*
X402086Y287272D01*
X399394Y286157D01*
X396972Y284538D01*
X394912Y282478D01*
X393293Y280056D01*
X392178Y277364D01*
X391610Y274507D01*
Y274320D01*
X405130D01*
Y287840D01*
D02*
G37*
G36*
X15031Y282194D02*
X12909D01*
X10948Y281382D01*
X9448Y279881D01*
X8636Y277921D01*
Y275799D01*
X9448Y273839D01*
X10948Y272338D01*
X12909Y271526D01*
X15031D01*
X16991Y272338D01*
X18492Y273839D01*
X19304Y275799D01*
Y277921D01*
X18492Y279881D01*
X16991Y281382D01*
X15031Y282194D01*
D02*
G37*
G36*
X171038Y282448D02*
X168815D01*
X166761Y281597D01*
X165189Y280025D01*
X164338Y277971D01*
Y275749D01*
X165189Y273695D01*
X166761Y272123D01*
X168815Y271272D01*
X171038D01*
X173091Y272123D01*
X174663Y273695D01*
X175514Y275749D01*
Y277971D01*
X174663Y280025D01*
X173091Y281597D01*
X171038Y282448D01*
D02*
G37*
G36*
X130652D02*
X128428D01*
X126375Y281597D01*
X124803Y280025D01*
X123952Y277971D01*
Y275749D01*
X124803Y273695D01*
X126375Y272123D01*
X128428Y271272D01*
X130652D01*
X132705Y272123D01*
X134277Y273695D01*
X135128Y275749D01*
Y277971D01*
X134277Y280025D01*
X132705Y281597D01*
X130652Y282448D01*
D02*
G37*
G36*
X374441Y278384D02*
X372319D01*
X370359Y277572D01*
X368858Y276071D01*
X368046Y274111D01*
Y271989D01*
X368858Y270028D01*
X370359Y268528D01*
X372319Y267716D01*
X374441D01*
X376401Y268528D01*
X377902Y270028D01*
X378714Y271989D01*
Y274111D01*
X377902Y276071D01*
X376401Y277572D01*
X374441Y278384D01*
D02*
G37*
G36*
X471990Y271780D02*
X458470D01*
Y258260D01*
X458657D01*
X461514Y258828D01*
X464206Y259943D01*
X466628Y261562D01*
X468688Y263622D01*
X470307Y266044D01*
X471422Y268736D01*
X471990Y271593D01*
Y271780D01*
D02*
G37*
G36*
X455930D02*
X442410D01*
Y271593D01*
X442978Y268736D01*
X444093Y266044D01*
X445712Y263622D01*
X447772Y261562D01*
X450194Y259943D01*
X452886Y258828D01*
X455743Y258260D01*
X455930D01*
Y271780D01*
D02*
G37*
G36*
X421190D02*
X407670D01*
Y258260D01*
X407857D01*
X410714Y258828D01*
X413406Y259943D01*
X415828Y261562D01*
X417888Y263622D01*
X419507Y266044D01*
X420622Y268736D01*
X421190Y271593D01*
Y271780D01*
D02*
G37*
G36*
X405130D02*
X391610D01*
Y271593D01*
X392178Y268736D01*
X393293Y266044D01*
X394912Y263622D01*
X396972Y261562D01*
X399394Y259943D01*
X402086Y258828D01*
X404943Y258260D01*
X405130D01*
Y271780D01*
D02*
G37*
G36*
X316021Y268224D02*
X313899D01*
X311938Y267412D01*
X310438Y265912D01*
X309626Y263951D01*
Y261829D01*
X310438Y259869D01*
X311938Y258368D01*
X313899Y257556D01*
X316021D01*
X317981Y258368D01*
X319482Y259869D01*
X320294Y261829D01*
Y263951D01*
X319482Y265912D01*
X317981Y267412D01*
X316021Y268224D01*
D02*
G37*
G36*
X547370Y276145D02*
X544830D01*
X542377Y275488D01*
X540178Y274218D01*
X538382Y272422D01*
X537112Y270223D01*
X536455Y267770D01*
Y265230D01*
X537112Y262777D01*
X538382Y260578D01*
X540178Y258782D01*
X542377Y257512D01*
X544830Y256855D01*
X547370D01*
X549823Y257512D01*
X552022Y258782D01*
X553818Y260578D01*
X555088Y262777D01*
X555745Y265230D01*
Y267770D01*
X555088Y270223D01*
X553818Y272422D01*
X552022Y274218D01*
X549823Y275488D01*
X547370Y276145D01*
D02*
G37*
G36*
X521970D02*
X519430D01*
X516977Y275488D01*
X514778Y274218D01*
X512982Y272422D01*
X511712Y270223D01*
X511055Y267770D01*
Y265230D01*
X511712Y262777D01*
X512982Y260578D01*
X514778Y258782D01*
X516977Y257512D01*
X519430Y256855D01*
X521970D01*
X524423Y257512D01*
X526622Y258782D01*
X528418Y260578D01*
X529688Y262777D01*
X530345Y265230D01*
Y267770D01*
X529688Y270223D01*
X528418Y272422D01*
X526622Y274218D01*
X524423Y275488D01*
X521970Y276145D01*
D02*
G37*
G36*
X7350Y267015D02*
X5228D01*
X3268Y266203D01*
X1767Y264702D01*
X955Y262742D01*
Y260620D01*
X1767Y258659D01*
X3268Y257159D01*
X5228Y256347D01*
X7350D01*
X9311Y257159D01*
X10811Y258659D01*
X11623Y260620D01*
Y262742D01*
X10811Y264702D01*
X9311Y266203D01*
X7350Y267015D01*
D02*
G37*
G36*
X162402Y267208D02*
X160179D01*
X158125Y266357D01*
X156553Y264785D01*
X155702Y262731D01*
Y260508D01*
X156553Y258455D01*
X158125Y256883D01*
X160179Y256032D01*
X162402D01*
X164455Y256883D01*
X166027Y258455D01*
X166878Y260508D01*
Y262731D01*
X166027Y264785D01*
X164455Y266357D01*
X162402Y267208D01*
D02*
G37*
G36*
X130652D02*
X128428D01*
X126375Y266357D01*
X124803Y264785D01*
X123952Y262731D01*
Y260508D01*
X124803Y258455D01*
X126375Y256883D01*
X128428Y256032D01*
X130652D01*
X132705Y256883D01*
X134277Y258455D01*
X135128Y260508D01*
Y262731D01*
X134277Y264785D01*
X132705Y266357D01*
X130652Y267208D01*
D02*
G37*
G36*
X521970Y250745D02*
Y242370D01*
X530345D01*
X529688Y244823D01*
X528418Y247022D01*
X526622Y248818D01*
X524423Y250088D01*
X521970Y250745D01*
D02*
G37*
G36*
X519430D02*
X516977Y250088D01*
X514778Y248818D01*
X512982Y247022D01*
X511712Y244823D01*
X511055Y242370D01*
X519430D01*
Y250745D01*
D02*
G37*
G36*
X371164Y249973D02*
X368941D01*
X366887Y249123D01*
X365315Y247551D01*
X364464Y245497D01*
Y243274D01*
X365315Y241220D01*
X366887Y239648D01*
X368941Y238797D01*
X371164D01*
X373218Y239648D01*
X374790Y241220D01*
X375640Y243274D01*
Y245497D01*
X374790Y247551D01*
X373218Y249123D01*
X371164Y249973D01*
D02*
G37*
G36*
X530345Y239830D02*
X521970D01*
Y231455D01*
X524423Y232112D01*
X526622Y233382D01*
X528418Y235178D01*
X529688Y237377D01*
X530345Y239830D01*
D02*
G37*
G36*
X519430D02*
X511055D01*
X511712Y237377D01*
X512982Y235178D01*
X514778Y233382D01*
X516977Y232112D01*
X519430Y231455D01*
Y239830D01*
D02*
G37*
G36*
X547370Y250745D02*
X544830D01*
X542377Y250088D01*
X540178Y248818D01*
X538382Y247022D01*
X537112Y244823D01*
X536455Y242370D01*
Y239830D01*
X537112Y237377D01*
X538382Y235178D01*
X540178Y233382D01*
X542377Y232112D01*
X544830Y231455D01*
X547370D01*
X549823Y232112D01*
X552022Y233382D01*
X553818Y235178D01*
X555088Y237377D01*
X555745Y239830D01*
Y242370D01*
X555088Y244823D01*
X553818Y247022D01*
X552022Y248818D01*
X549823Y250088D01*
X547370Y250745D01*
D02*
G37*
G36*
X-62230Y250745D02*
X-64770D01*
X-67223Y250088D01*
X-69422Y248818D01*
X-71218Y247022D01*
X-72488Y244823D01*
X-73145Y242370D01*
Y239830D01*
X-72488Y237377D01*
X-71218Y235178D01*
X-69422Y233382D01*
X-67223Y232112D01*
X-64770Y231455D01*
X-62230D01*
X-59777Y232112D01*
X-57578Y233382D01*
X-55782Y235178D01*
X-54512Y237377D01*
X-53855Y239830D01*
Y242370D01*
X-54512Y244823D01*
X-55782Y247022D01*
X-57578Y248818D01*
X-59777Y250088D01*
X-62230Y250745D01*
D02*
G37*
G36*
X-87630D02*
X-90170D01*
X-92623Y250088D01*
X-94822Y248818D01*
X-96618Y247022D01*
X-97888Y244823D01*
X-98545Y242370D01*
Y239830D01*
X-97888Y237377D01*
X-96618Y235178D01*
X-94822Y233382D01*
X-92623Y232112D01*
X-90170Y231455D01*
X-87630D01*
X-85177Y232112D01*
X-82978Y233382D01*
X-81182Y235178D01*
X-79912Y237377D01*
X-79255Y239830D01*
Y242370D01*
X-79912Y244823D01*
X-81182Y247022D01*
X-82978Y248818D01*
X-85177Y250088D01*
X-87630Y250745D01*
D02*
G37*
G36*
X456991Y240284D02*
X454869D01*
X452909Y239472D01*
X451408Y237971D01*
X450596Y236011D01*
Y233889D01*
X451408Y231929D01*
X452909Y230428D01*
X454869Y229616D01*
X456991D01*
X458951Y230428D01*
X460452Y231929D01*
X461264Y233889D01*
Y236011D01*
X460452Y237971D01*
X458951Y239472D01*
X456991Y240284D01*
D02*
G37*
G36*
X285795Y238760D02*
X283673D01*
X281712Y237948D01*
X280212Y236448D01*
X279400Y234487D01*
Y232365D01*
X280212Y230404D01*
X281712Y228904D01*
X283673Y228092D01*
X285795D01*
X287756Y228904D01*
X289256Y230404D01*
X290068Y232365D01*
Y234487D01*
X289256Y236448D01*
X287756Y237948D01*
X285795Y238760D01*
D02*
G37*
G36*
X416860Y236220D02*
X414738D01*
X412777Y235408D01*
X411277Y233908D01*
X410465Y231947D01*
Y229825D01*
X411277Y227864D01*
X412777Y226364D01*
X414738Y225552D01*
X416860D01*
X418820Y226364D01*
X420116Y227660D01*
X420898Y227586D01*
X420992Y227562D01*
X421465Y227349D01*
X422198Y225578D01*
X423699Y224078D01*
X425659Y223266D01*
X427781D01*
X429742Y224078D01*
X431242Y225578D01*
X432054Y227539D01*
Y229661D01*
X431242Y231621D01*
X429742Y233122D01*
X427781Y233934D01*
X425659D01*
X423699Y233122D01*
X422402Y231826D01*
X421620Y231901D01*
X421526Y231924D01*
X421054Y232137D01*
X420320Y233908D01*
X418820Y235408D01*
X416860Y236220D01*
D02*
G37*
G36*
X-41103Y232156D02*
X-43225D01*
X-45185Y231344D01*
X-46686Y229844D01*
X-47498Y227883D01*
Y225761D01*
X-46686Y223801D01*
X-45185Y222300D01*
X-43225Y221488D01*
X-41103D01*
X-39142Y222300D01*
X-37642Y223801D01*
X-36830Y225761D01*
Y227883D01*
X-37642Y229844D01*
X-39142Y231344D01*
X-41103Y232156D01*
D02*
G37*
G36*
X434131Y221234D02*
X432009D01*
X430048Y220422D01*
X428548Y218922D01*
X427736Y216961D01*
Y214839D01*
X428548Y212878D01*
X430048Y211378D01*
X432009Y210566D01*
X434131D01*
X436091Y211378D01*
X437592Y212878D01*
X438404Y214839D01*
Y216961D01*
X437592Y218922D01*
X436091Y220422D01*
X434131Y221234D01*
D02*
G37*
G36*
X521970Y225345D02*
X519430D01*
X516977Y224688D01*
X514778Y223418D01*
X512982Y221622D01*
X511712Y219423D01*
X511055Y216970D01*
Y214430D01*
X511712Y211977D01*
X512982Y209778D01*
X514778Y207982D01*
X516977Y206712D01*
X519430Y206055D01*
X521970D01*
X524423Y206712D01*
X526622Y207982D01*
X528418Y209778D01*
X529688Y211977D01*
X530345Y214430D01*
Y216970D01*
X529688Y219423D01*
X528418Y221622D01*
X526622Y223418D01*
X524423Y224688D01*
X521970Y225345D01*
D02*
G37*
G36*
X-87630Y225345D02*
X-90170D01*
X-92623Y224688D01*
X-94822Y223418D01*
X-96618Y221622D01*
X-97888Y219423D01*
X-98545Y216970D01*
Y214430D01*
X-97888Y211977D01*
X-96618Y209778D01*
X-94822Y207982D01*
X-92623Y206712D01*
X-90170Y206055D01*
X-87630D01*
X-85177Y206712D01*
X-82978Y207982D01*
X-81182Y209778D01*
X-79912Y211977D01*
X-79255Y214430D01*
Y216970D01*
X-79912Y219423D01*
X-81182Y221622D01*
X-82978Y223418D01*
X-85177Y224688D01*
X-87630Y225345D01*
D02*
G37*
G36*
X312211Y216154D02*
X310089D01*
X308129Y215342D01*
X306628Y213841D01*
X305816Y211881D01*
Y209759D01*
X306628Y207799D01*
X308129Y206298D01*
X310089Y205486D01*
X312211D01*
X314172Y206298D01*
X315672Y207799D01*
X316484Y209759D01*
Y211881D01*
X315672Y213841D01*
X314172Y215342D01*
X312211Y216154D01*
D02*
G37*
G36*
X456991Y214884D02*
X454869D01*
X452909Y214072D01*
X451408Y212572D01*
X450596Y210611D01*
Y208489D01*
X451408Y206528D01*
X452909Y205028D01*
X454869Y204216D01*
X456991D01*
X458951Y205028D01*
X460452Y206528D01*
X461264Y208489D01*
Y210611D01*
X460452Y212572D01*
X458951Y214072D01*
X456991Y214884D01*
D02*
G37*
G36*
X547938Y229663D02*
X544262D01*
X540710Y228712D01*
X537527Y226873D01*
X534927Y224274D01*
X533088Y221090D01*
X532137Y217538D01*
Y213862D01*
X533088Y210311D01*
X534927Y207127D01*
X537527Y204527D01*
X540710Y202689D01*
X544262Y201737D01*
X547938D01*
X551489Y202689D01*
X554674Y204527D01*
X557273Y207127D01*
X559112Y210311D01*
X560063Y213862D01*
Y217538D01*
X559112Y221090D01*
X557273Y224274D01*
X554674Y226873D01*
X551489Y228712D01*
X547938Y229663D01*
D02*
G37*
G36*
X380851Y212404D02*
X378729D01*
X376769Y211592D01*
X375268Y210091D01*
X374456Y208131D01*
Y206009D01*
X375268Y204049D01*
X376769Y202548D01*
X378729Y201736D01*
X380851D01*
X382812Y202548D01*
X384312Y204049D01*
X385124Y206009D01*
Y208131D01*
X384312Y210091D01*
X382812Y211592D01*
X380851Y212404D01*
D02*
G37*
G36*
X74721Y222504D02*
X72599D01*
X70638Y221692D01*
X69138Y220191D01*
X68326Y218231D01*
Y216109D01*
X69138Y214149D01*
X70638Y212648D01*
X71859Y212142D01*
Y210768D01*
X70638Y210262D01*
X69138Y208762D01*
X68326Y206801D01*
Y204679D01*
X69138Y202719D01*
X70638Y201218D01*
X72599Y200406D01*
X74721D01*
X76681Y201218D01*
X78182Y202719D01*
X78994Y204679D01*
Y206801D01*
X78182Y208762D01*
X76681Y210262D01*
X75461Y210768D01*
Y212142D01*
X76681Y212648D01*
X78182Y214149D01*
X78994Y216109D01*
Y218231D01*
X78182Y220191D01*
X76681Y221692D01*
X74721Y222504D01*
D02*
G37*
G36*
X363011Y209804D02*
X360889D01*
X358928Y208992D01*
X357428Y207491D01*
X356616Y205531D01*
Y203409D01*
X357428Y201448D01*
X358928Y199948D01*
X360889Y199136D01*
X363011D01*
X364972Y199948D01*
X366472Y201448D01*
X367284Y203409D01*
Y205531D01*
X366472Y207491D01*
X364972Y208992D01*
X363011Y209804D01*
D02*
G37*
G36*
X-62230Y225345D02*
X-64770D01*
X-67223Y224688D01*
X-69422Y223418D01*
X-71218Y221622D01*
X-72488Y219423D01*
X-73145Y216970D01*
Y214430D01*
X-72488Y211977D01*
X-71218Y209778D01*
X-69422Y207982D01*
X-67223Y206712D01*
X-64770Y206055D01*
X-62230D01*
X-59777Y206712D01*
X-58334Y207546D01*
X-57554Y206529D01*
X-57862Y206222D01*
X-58674Y204261D01*
Y202139D01*
X-57862Y200179D01*
X-56361Y198678D01*
X-54401Y197866D01*
X-52279D01*
X-50318Y198678D01*
X-48818Y200179D01*
X-48006Y202139D01*
Y204261D01*
X-48818Y206222D01*
X-50318Y207722D01*
X-52279Y208534D01*
X-54401D01*
X-55816Y207948D01*
X-56535Y209025D01*
X-55782Y209778D01*
X-54512Y211977D01*
X-53855Y214430D01*
Y216970D01*
X-54512Y219423D01*
X-55782Y221622D01*
X-57578Y223418D01*
X-59777Y224688D01*
X-62230Y225345D01*
D02*
G37*
G36*
X455721Y194564D02*
X453599D01*
X451638Y193752D01*
X450138Y192251D01*
X449326Y190291D01*
Y188169D01*
X450138Y186208D01*
X451638Y184708D01*
X453599Y183896D01*
X455721D01*
X457682Y184708D01*
X459182Y186208D01*
X459994Y188169D01*
Y190291D01*
X459182Y192251D01*
X457682Y193752D01*
X455721Y194564D01*
D02*
G37*
G36*
X472281Y194818D02*
X470059D01*
X468005Y193967D01*
X466433Y192395D01*
X465582Y190341D01*
Y188118D01*
X466433Y186065D01*
X468005Y184493D01*
X470059Y183642D01*
X472281D01*
X474335Y184493D01*
X475907Y186065D01*
X476758Y188118D01*
Y190341D01*
X475907Y192395D01*
X474335Y193967D01*
X472281Y194818D01*
D02*
G37*
G36*
X547370Y199945D02*
X544830D01*
X542377Y199288D01*
X540178Y198018D01*
X538382Y196222D01*
X537112Y194023D01*
X536455Y191570D01*
Y189030D01*
X537112Y186577D01*
X538382Y184378D01*
X540178Y182582D01*
X542377Y181312D01*
X544830Y180655D01*
X547370D01*
X549823Y181312D01*
X552022Y182582D01*
X553818Y184378D01*
X555088Y186577D01*
X555745Y189030D01*
Y191570D01*
X555088Y194023D01*
X553818Y196222D01*
X552022Y198018D01*
X549823Y199288D01*
X547370Y199945D01*
D02*
G37*
G36*
X521970D02*
X519430D01*
X516977Y199288D01*
X514778Y198018D01*
X512982Y196222D01*
X511712Y194023D01*
X511055Y191570D01*
Y189030D01*
X511712Y186577D01*
X512982Y184378D01*
X514778Y182582D01*
X516977Y181312D01*
X519430Y180655D01*
X521970D01*
X524423Y181312D01*
X526622Y182582D01*
X528418Y184378D01*
X529688Y186577D01*
X530345Y189030D01*
Y191570D01*
X529688Y194023D01*
X528418Y196222D01*
X526622Y198018D01*
X524423Y199288D01*
X521970Y199945D01*
D02*
G37*
G36*
X-62230Y199945D02*
X-64770D01*
X-67223Y199288D01*
X-69422Y198018D01*
X-71218Y196222D01*
X-72488Y194023D01*
X-73145Y191570D01*
Y189030D01*
X-72488Y186577D01*
X-71218Y184378D01*
X-69422Y182582D01*
X-67223Y181312D01*
X-64770Y180655D01*
X-62230D01*
X-59777Y181312D01*
X-57578Y182582D01*
X-55782Y184378D01*
X-54512Y186577D01*
X-53855Y189030D01*
Y191570D01*
X-54512Y194023D01*
X-55782Y196222D01*
X-57578Y198018D01*
X-59777Y199288D01*
X-62230Y199945D01*
D02*
G37*
G36*
X-87630D02*
X-90170D01*
X-92623Y199288D01*
X-94822Y198018D01*
X-96618Y196222D01*
X-97888Y194023D01*
X-98545Y191570D01*
Y189030D01*
X-97888Y186577D01*
X-96618Y184378D01*
X-94822Y182582D01*
X-92623Y181312D01*
X-90170Y180655D01*
X-87630D01*
X-85177Y181312D01*
X-82978Y182582D01*
X-81182Y184378D01*
X-79912Y186577D01*
X-79255Y189030D01*
Y191570D01*
X-79912Y194023D01*
X-81182Y196222D01*
X-82978Y198018D01*
X-85177Y199288D01*
X-87630Y199945D01*
D02*
G37*
G36*
X211881Y184404D02*
X209759D01*
X207799Y183592D01*
X206298Y182092D01*
X205486Y180131D01*
Y178009D01*
X206298Y176049D01*
X207799Y174548D01*
X209759Y173736D01*
X211881D01*
X213841Y174548D01*
X215342Y176049D01*
X216154Y178009D01*
Y180131D01*
X215342Y182092D01*
X213841Y183592D01*
X211881Y184404D01*
D02*
G37*
G36*
X-41547Y181674D02*
X-43670D01*
X-45630Y180862D01*
X-47130Y179362D01*
X-47943Y177401D01*
Y175279D01*
X-47130Y173319D01*
X-45630Y171818D01*
X-43670Y171006D01*
X-41547D01*
X-39587Y171818D01*
X-38087Y173319D01*
X-37274Y175279D01*
Y177401D01*
X-38087Y179362D01*
X-39587Y180862D01*
X-41547Y181674D01*
D02*
G37*
G36*
X74771Y178308D02*
X72548D01*
X70495Y177457D01*
X68923Y175885D01*
X68072Y173832D01*
Y171609D01*
X68923Y169555D01*
X70495Y167983D01*
X72548Y167132D01*
X74771D01*
X76825Y167983D01*
X78397Y169555D01*
X79248Y171609D01*
Y173832D01*
X78397Y175885D01*
X76825Y177457D01*
X74771Y178308D01*
D02*
G37*
G36*
X-3968Y169418D02*
X-6191D01*
X-8245Y168567D01*
X-9817Y166995D01*
X-10668Y164942D01*
Y162719D01*
X-9817Y160665D01*
X-8245Y159093D01*
X-6191Y158242D01*
X-3968D01*
X-1915Y159093D01*
X-343Y160665D01*
X508Y162719D01*
Y164942D01*
X-343Y166995D01*
X-1915Y168567D01*
X-3968Y169418D01*
D02*
G37*
G36*
X547370Y174545D02*
X544830D01*
X542377Y173888D01*
X540178Y172618D01*
X538382Y170822D01*
X537112Y168623D01*
X536455Y166170D01*
Y163630D01*
X537112Y161177D01*
X538382Y158978D01*
X540178Y157182D01*
X542377Y155912D01*
X544830Y155255D01*
X547370D01*
X549823Y155912D01*
X552022Y157182D01*
X553818Y158978D01*
X555088Y161177D01*
X555745Y163630D01*
Y166170D01*
X555088Y168623D01*
X553818Y170822D01*
X552022Y172618D01*
X549823Y173888D01*
X547370Y174545D01*
D02*
G37*
G36*
X521970D02*
X519430D01*
X516977Y173888D01*
X514778Y172618D01*
X512982Y170822D01*
X511712Y168623D01*
X511055Y166170D01*
Y163630D01*
X511712Y161177D01*
X512982Y158978D01*
X514778Y157182D01*
X516977Y155912D01*
X519430Y155255D01*
X521970D01*
X524423Y155912D01*
X526622Y157182D01*
X528418Y158978D01*
X529688Y161177D01*
X530345Y163630D01*
Y166170D01*
X529688Y168623D01*
X528418Y170822D01*
X526622Y172618D01*
X524423Y173888D01*
X521970Y174545D01*
D02*
G37*
G36*
X-62230Y174545D02*
X-64770D01*
X-67223Y173888D01*
X-69422Y172618D01*
X-71218Y170822D01*
X-72488Y168623D01*
X-73145Y166170D01*
Y163630D01*
X-72488Y161177D01*
X-71218Y158978D01*
X-69422Y157182D01*
X-67223Y155912D01*
X-64770Y155255D01*
X-62230D01*
X-59777Y155912D01*
X-57578Y157182D01*
X-55782Y158978D01*
X-54512Y161177D01*
X-53855Y163630D01*
Y166170D01*
X-54512Y168623D01*
X-55782Y170822D01*
X-57578Y172618D01*
X-59777Y173888D01*
X-62230Y174545D01*
D02*
G37*
G36*
X-87630D02*
X-90170D01*
X-92623Y173888D01*
X-94822Y172618D01*
X-96618Y170822D01*
X-97888Y168623D01*
X-98545Y166170D01*
Y163630D01*
X-97888Y161177D01*
X-96618Y158978D01*
X-94822Y157182D01*
X-92623Y155912D01*
X-90170Y155255D01*
X-87630D01*
X-85177Y155912D01*
X-82978Y157182D01*
X-81182Y158978D01*
X-79912Y161177D01*
X-79255Y163630D01*
Y166170D01*
X-79912Y168623D01*
X-81182Y170822D01*
X-82978Y172618D01*
X-85177Y173888D01*
X-87630Y174545D01*
D02*
G37*
G36*
X75237Y163695D02*
X73115D01*
X71155Y162883D01*
X69654Y161383D01*
X68842Y159422D01*
Y157300D01*
X69654Y155340D01*
X71155Y153839D01*
X71648Y153635D01*
Y152260D01*
X70638Y151842D01*
X69138Y150342D01*
X68326Y148381D01*
Y146259D01*
X69138Y144298D01*
X70638Y142798D01*
X72599Y141986D01*
X74721D01*
X76681Y142798D01*
X78182Y144298D01*
X78994Y146259D01*
Y148381D01*
X78182Y150342D01*
X76681Y151842D01*
X76188Y152046D01*
Y153421D01*
X77198Y153839D01*
X78698Y155340D01*
X79510Y157300D01*
Y159422D01*
X78698Y161383D01*
X77198Y162883D01*
X75237Y163695D01*
D02*
G37*
G36*
X547370Y149145D02*
X544830D01*
X542377Y148488D01*
X540178Y147218D01*
X538382Y145422D01*
X537112Y143223D01*
X536455Y140770D01*
Y138230D01*
X537112Y135777D01*
X538382Y133578D01*
X540178Y131782D01*
X542377Y130512D01*
X544830Y129855D01*
X547370D01*
X549823Y130512D01*
X552022Y131782D01*
X553818Y133578D01*
X555088Y135777D01*
X555745Y138230D01*
Y140770D01*
X555088Y143223D01*
X553818Y145422D01*
X552022Y147218D01*
X549823Y148488D01*
X547370Y149145D01*
D02*
G37*
G36*
X521970D02*
X519430D01*
X516977Y148488D01*
X514778Y147218D01*
X512982Y145422D01*
X511712Y143223D01*
X511055Y140770D01*
Y138230D01*
X511712Y135777D01*
X512982Y133578D01*
X514778Y131782D01*
X516977Y130512D01*
X519430Y129855D01*
X521970D01*
X524423Y130512D01*
X526622Y131782D01*
X528418Y133578D01*
X529688Y135777D01*
X530345Y138230D01*
Y140770D01*
X529688Y143223D01*
X528418Y145422D01*
X526622Y147218D01*
X524423Y148488D01*
X521970Y149145D01*
D02*
G37*
G36*
X-62230Y149145D02*
X-64770D01*
X-67223Y148488D01*
X-69422Y147218D01*
X-71218Y145422D01*
X-72488Y143223D01*
X-73145Y140770D01*
Y138230D01*
X-72488Y135777D01*
X-71218Y133578D01*
X-69422Y131782D01*
X-67223Y130512D01*
X-64770Y129855D01*
X-62230D01*
X-59777Y130512D01*
X-57578Y131782D01*
X-55782Y133578D01*
X-54512Y135777D01*
X-53855Y138230D01*
Y140770D01*
X-54512Y143223D01*
X-55782Y145422D01*
X-57578Y147218D01*
X-59777Y148488D01*
X-62230Y149145D01*
D02*
G37*
G36*
X-87630D02*
X-90170D01*
X-92623Y148488D01*
X-94822Y147218D01*
X-96618Y145422D01*
X-97888Y143223D01*
X-98545Y140770D01*
Y138230D01*
X-97888Y135777D01*
X-96618Y133578D01*
X-94822Y131782D01*
X-92623Y130512D01*
X-90170Y129855D01*
X-87630D01*
X-85177Y130512D01*
X-82978Y131782D01*
X-81182Y133578D01*
X-79912Y135777D01*
X-79255Y138230D01*
Y140770D01*
X-79912Y143223D01*
X-81182Y145422D01*
X-82978Y147218D01*
X-85177Y148488D01*
X-87630Y149145D01*
D02*
G37*
G36*
X458657Y141790D02*
X458470D01*
Y128270D01*
X471990D01*
Y128457D01*
X471422Y131314D01*
X470307Y134006D01*
X468688Y136428D01*
X466628Y138488D01*
X464206Y140107D01*
X461514Y141222D01*
X458657Y141790D01*
D02*
G37*
G36*
X407857D02*
X407670D01*
Y128270D01*
X421190D01*
Y128457D01*
X420622Y131314D01*
X419507Y134006D01*
X417888Y136428D01*
X415828Y138488D01*
X413406Y140107D01*
X410714Y141222D01*
X407857Y141790D01*
D02*
G37*
G36*
X455930D02*
X455743D01*
X452886Y141222D01*
X450194Y140107D01*
X447772Y138488D01*
X445712Y136428D01*
X444093Y134006D01*
X442978Y131314D01*
X442410Y128457D01*
Y128270D01*
X455930D01*
Y141790D01*
D02*
G37*
G36*
X405130D02*
X404943D01*
X402086Y141222D01*
X399394Y140107D01*
X396972Y138488D01*
X394912Y136428D01*
X393293Y134006D01*
X392178Y131314D01*
X391610Y128457D01*
Y128270D01*
X405130D01*
Y141790D01*
D02*
G37*
G36*
X-87630Y123745D02*
Y115370D01*
X-79255D01*
X-79912Y117823D01*
X-81182Y120022D01*
X-82978Y121818D01*
X-85177Y123088D01*
X-87630Y123745D01*
D02*
G37*
G36*
X-90170D02*
X-92623Y123088D01*
X-94822Y121818D01*
X-96618Y120022D01*
X-97888Y117823D01*
X-98545Y115370D01*
X-90170D01*
Y123745D01*
D02*
G37*
G36*
X471990Y125730D02*
X458470D01*
Y112210D01*
X458657D01*
X461514Y112778D01*
X464206Y113893D01*
X466628Y115512D01*
X468688Y117572D01*
X470307Y119994D01*
X471422Y122686D01*
X471990Y125543D01*
Y125730D01*
D02*
G37*
G36*
X421190D02*
X407670D01*
Y112210D01*
X407857D01*
X410714Y112778D01*
X412172Y113382D01*
X413442Y112534D01*
Y90666D01*
X412172Y89818D01*
X410714Y90422D01*
X407857Y90990D01*
X407670D01*
Y77470D01*
X421190D01*
Y77657D01*
X420622Y80514D01*
X420018Y81972D01*
X420866Y83242D01*
X442734D01*
X443582Y81972D01*
X442978Y80514D01*
X442410Y77657D01*
Y77470D01*
X455930D01*
Y90990D01*
X455743D01*
X452886Y90422D01*
X451428Y89818D01*
X450158Y90666D01*
Y112534D01*
X451428Y113382D01*
X452886Y112778D01*
X455743Y112210D01*
X455930D01*
Y125730D01*
X442410D01*
Y125543D01*
X442978Y122686D01*
X443582Y121228D01*
X442734Y119958D01*
X420866D01*
X420018Y121228D01*
X420622Y122686D01*
X421190Y125543D01*
Y125730D01*
D02*
G37*
G36*
X405130D02*
X391610D01*
Y125543D01*
X392178Y122686D01*
X393293Y119994D01*
X394912Y117572D01*
X396972Y115512D01*
X399394Y113893D01*
X402086Y112778D01*
X404943Y112210D01*
X405130D01*
Y125730D01*
D02*
G37*
G36*
X547370Y123745D02*
X544830D01*
X542377Y123088D01*
X540178Y121818D01*
X538382Y120022D01*
X537112Y117823D01*
X536455Y115370D01*
Y112830D01*
X537112Y110377D01*
X538382Y108178D01*
X540178Y106382D01*
X542377Y105112D01*
X544830Y104455D01*
X547370D01*
X549823Y105112D01*
X552022Y106382D01*
X553818Y108178D01*
X555088Y110377D01*
X555745Y112830D01*
Y115370D01*
X555088Y117823D01*
X553818Y120022D01*
X552022Y121818D01*
X549823Y123088D01*
X547370Y123745D01*
D02*
G37*
G36*
X521970D02*
X519430D01*
X516977Y123088D01*
X514778Y121818D01*
X512982Y120022D01*
X511712Y117823D01*
X511055Y115370D01*
Y112830D01*
X511712Y110377D01*
X512982Y108178D01*
X514778Y106382D01*
X516977Y105112D01*
X519430Y104455D01*
X521970D01*
X524423Y105112D01*
X526622Y106382D01*
X528418Y108178D01*
X529688Y110377D01*
X530345Y112830D01*
Y115370D01*
X529688Y117823D01*
X528418Y120022D01*
X526622Y121818D01*
X524423Y123088D01*
X521970Y123745D01*
D02*
G37*
G36*
X-79255Y112830D02*
X-87630D01*
Y104455D01*
X-85177Y105112D01*
X-82978Y106382D01*
X-81182Y108178D01*
X-79912Y110377D01*
X-79255Y112830D01*
D02*
G37*
G36*
X-90170D02*
X-98545D01*
X-97888Y110377D01*
X-96618Y108178D01*
X-94822Y106382D01*
X-92623Y105112D01*
X-90170Y104455D01*
Y112830D01*
D02*
G37*
G36*
X-62230Y123745D02*
X-64770D01*
X-67223Y123088D01*
X-69422Y121818D01*
X-71218Y120022D01*
X-72488Y117823D01*
X-73145Y115370D01*
Y112830D01*
X-72488Y110377D01*
X-71218Y108178D01*
X-69422Y106382D01*
X-67223Y105112D01*
X-64770Y104455D01*
X-62230D01*
X-59777Y105112D01*
X-57578Y106382D01*
X-55782Y108178D01*
X-54512Y110377D01*
X-53855Y112830D01*
Y115370D01*
X-54512Y117823D01*
X-55782Y120022D01*
X-57578Y121818D01*
X-59777Y123088D01*
X-62230Y123745D01*
D02*
G37*
G36*
X93821Y112268D02*
X91599D01*
X89545Y111417D01*
X87973Y109845D01*
X87122Y107792D01*
Y105569D01*
X87973Y103515D01*
X89545Y101943D01*
X91599Y101092D01*
X93821D01*
X95875Y101943D01*
X97447Y103515D01*
X98298Y105569D01*
Y107792D01*
X97447Y109845D01*
X95875Y111417D01*
X93821Y112268D01*
D02*
G37*
G36*
X18892Y108458D02*
X16668D01*
X14615Y107607D01*
X13043Y106035D01*
X12192Y103982D01*
Y101758D01*
X13043Y99705D01*
X14615Y98133D01*
X16668Y97282D01*
X18892D01*
X20945Y98133D01*
X22517Y99705D01*
X23368Y101758D01*
Y103982D01*
X22517Y106035D01*
X20945Y107607D01*
X18892Y108458D01*
D02*
G37*
G36*
X134411Y104394D02*
X132289D01*
X130329Y103582D01*
X128828Y102081D01*
X128016Y100121D01*
Y97999D01*
X128828Y96039D01*
X130329Y94538D01*
X132289Y93726D01*
X134411D01*
X136371Y94538D01*
X137872Y96039D01*
X138684Y97999D01*
Y100121D01*
X137872Y102081D01*
X136371Y103582D01*
X134411Y104394D01*
D02*
G37*
G36*
X284271Y100584D02*
X282149D01*
X280189Y99772D01*
X278688Y98272D01*
X277876Y96311D01*
Y94189D01*
X278688Y92228D01*
X280189Y90728D01*
X282149Y89916D01*
X284271D01*
X286231Y90728D01*
X287732Y92228D01*
X288544Y94189D01*
Y96311D01*
X287732Y98272D01*
X286231Y99772D01*
X284271Y100584D01*
D02*
G37*
G36*
X547370Y98345D02*
X544830D01*
X542377Y97688D01*
X540178Y96418D01*
X538382Y94622D01*
X537112Y92423D01*
X536455Y89970D01*
Y87430D01*
X537112Y84977D01*
X538382Y82778D01*
X540178Y80982D01*
X542377Y79712D01*
X544830Y79055D01*
X547370D01*
X549823Y79712D01*
X552022Y80982D01*
X553818Y82778D01*
X555088Y84977D01*
X555745Y87430D01*
Y89970D01*
X555088Y92423D01*
X553818Y94622D01*
X552022Y96418D01*
X549823Y97688D01*
X547370Y98345D01*
D02*
G37*
G36*
X521970D02*
X519430D01*
X516977Y97688D01*
X514778Y96418D01*
X512982Y94622D01*
X511712Y92423D01*
X511055Y89970D01*
Y87430D01*
X511712Y84977D01*
X512982Y82778D01*
X514778Y80982D01*
X516977Y79712D01*
X519430Y79055D01*
X521970D01*
X524423Y79712D01*
X526622Y80982D01*
X528418Y82778D01*
X529688Y84977D01*
X530345Y87430D01*
Y89970D01*
X529688Y92423D01*
X528418Y94622D01*
X526622Y96418D01*
X524423Y97688D01*
X521970Y98345D01*
D02*
G37*
G36*
X-62230Y98345D02*
X-64770D01*
X-67223Y97688D01*
X-69422Y96418D01*
X-71218Y94622D01*
X-72488Y92423D01*
X-73145Y89970D01*
Y87430D01*
X-72488Y84977D01*
X-71218Y82778D01*
X-69422Y80982D01*
X-67223Y79712D01*
X-64770Y79055D01*
X-62230D01*
X-59777Y79712D01*
X-57578Y80982D01*
X-55782Y82778D01*
X-54512Y84977D01*
X-53855Y87430D01*
Y89970D01*
X-54512Y92423D01*
X-55782Y94622D01*
X-57578Y96418D01*
X-59777Y97688D01*
X-62230Y98345D01*
D02*
G37*
G36*
X-87630D02*
X-90170D01*
X-92623Y97688D01*
X-94822Y96418D01*
X-96618Y94622D01*
X-97888Y92423D01*
X-98545Y89970D01*
Y87430D01*
X-97888Y84977D01*
X-96618Y82778D01*
X-94822Y80982D01*
X-92623Y79712D01*
X-90170Y79055D01*
X-87630D01*
X-85177Y79712D01*
X-82978Y80982D01*
X-81182Y82778D01*
X-79912Y84977D01*
X-79255Y87430D01*
Y89970D01*
X-79912Y92423D01*
X-81182Y94622D01*
X-82978Y96418D01*
X-85177Y97688D01*
X-87630Y98345D01*
D02*
G37*
G36*
X458657Y90990D02*
X458470D01*
Y77470D01*
X471990D01*
Y77657D01*
X471422Y80514D01*
X470307Y83206D01*
X468688Y85628D01*
X466628Y87688D01*
X464206Y89307D01*
X461514Y90422D01*
X458657Y90990D01*
D02*
G37*
G36*
X405130D02*
X404943D01*
X402086Y90422D01*
X399394Y89307D01*
X396972Y87688D01*
X394912Y85628D01*
X393293Y83206D01*
X392178Y80514D01*
X391610Y77657D01*
Y77470D01*
X405130D01*
Y90990D01*
D02*
G37*
G36*
X284271Y85344D02*
X282149D01*
X280189Y84532D01*
X278688Y83032D01*
X277876Y81071D01*
Y78949D01*
X278688Y76989D01*
X280189Y75488D01*
X282149Y74676D01*
X284271D01*
X286231Y75488D01*
X287732Y76989D01*
X288544Y78949D01*
Y81071D01*
X287732Y83032D01*
X286231Y84532D01*
X284271Y85344D01*
D02*
G37*
G36*
X-20529Y82804D02*
X-22651D01*
X-24611Y81992D01*
X-26112Y80492D01*
X-26924Y78531D01*
Y76409D01*
X-26112Y74448D01*
X-24611Y72948D01*
X-22651Y72136D01*
X-20529D01*
X-18569Y72948D01*
X-17068Y74448D01*
X-16256Y76409D01*
Y78531D01*
X-17068Y80492D01*
X-18569Y81992D01*
X-20529Y82804D01*
D02*
G37*
G36*
X547370Y72945D02*
Y64570D01*
X555745D01*
X555088Y67023D01*
X553818Y69222D01*
X552022Y71018D01*
X549823Y72288D01*
X547370Y72945D01*
D02*
G37*
G36*
X544830D02*
X542377Y72288D01*
X540178Y71018D01*
X538382Y69222D01*
X537112Y67023D01*
X536455Y64570D01*
X544830D01*
Y72945D01*
D02*
G37*
G36*
X471990Y74930D02*
X458470D01*
Y61410D01*
X458657D01*
X461514Y61978D01*
X464206Y63093D01*
X466628Y64712D01*
X468688Y66772D01*
X470307Y69194D01*
X471422Y71886D01*
X471990Y74743D01*
Y74930D01*
D02*
G37*
G36*
X455930D02*
X442410D01*
Y74743D01*
X442978Y71886D01*
X444093Y69194D01*
X445712Y66772D01*
X447772Y64712D01*
X450194Y63093D01*
X452886Y61978D01*
X455743Y61410D01*
X455930D01*
Y74930D01*
D02*
G37*
G36*
X421190D02*
X407670D01*
Y61410D01*
X407857D01*
X410714Y61978D01*
X413406Y63093D01*
X415828Y64712D01*
X417888Y66772D01*
X419507Y69194D01*
X420622Y71886D01*
X421190Y74743D01*
Y74930D01*
D02*
G37*
G36*
X405130D02*
X391610D01*
Y74743D01*
X392178Y71886D01*
X393293Y69194D01*
X394912Y66772D01*
X396972Y64712D01*
X399394Y63093D01*
X402086Y61978D01*
X404943Y61410D01*
X405130D01*
Y74930D01*
D02*
G37*
G36*
X555745Y62030D02*
X547370D01*
Y53655D01*
X549823Y54312D01*
X552022Y55582D01*
X553818Y57378D01*
X555088Y59577D01*
X555745Y62030D01*
D02*
G37*
G36*
X544830D02*
X536455D01*
X537112Y59577D01*
X538382Y57378D01*
X540178Y55582D01*
X542377Y54312D01*
X544830Y53655D01*
Y62030D01*
D02*
G37*
G36*
X521970Y72945D02*
X519430D01*
X516977Y72288D01*
X514778Y71018D01*
X512982Y69222D01*
X511712Y67023D01*
X511055Y64570D01*
Y62030D01*
X511712Y59577D01*
X512982Y57378D01*
X514778Y55582D01*
X516977Y54312D01*
X519430Y53655D01*
X521970D01*
X524423Y54312D01*
X526622Y55582D01*
X528418Y57378D01*
X529688Y59577D01*
X530345Y62030D01*
Y64570D01*
X529688Y67023D01*
X528418Y69222D01*
X526622Y71018D01*
X524423Y72288D01*
X521970Y72945D01*
D02*
G37*
G36*
X-87630Y72945D02*
X-90170D01*
X-92623Y72288D01*
X-94822Y71018D01*
X-96618Y69222D01*
X-97888Y67023D01*
X-98545Y64570D01*
Y62030D01*
X-97888Y59577D01*
X-96618Y57378D01*
X-94822Y55582D01*
X-92623Y54312D01*
X-90170Y53655D01*
X-87630D01*
X-85177Y54312D01*
X-82978Y55582D01*
X-81182Y57378D01*
X-79912Y59577D01*
X-79255Y62030D01*
Y64570D01*
X-79912Y67023D01*
X-81182Y69222D01*
X-82978Y71018D01*
X-85177Y72288D01*
X-87630Y72945D01*
D02*
G37*
G36*
X53182Y57658D02*
X50958D01*
X48905Y56807D01*
X47333Y55235D01*
X46482Y53182D01*
Y50958D01*
X47333Y48905D01*
X48905Y47333D01*
X50958Y46482D01*
X53182D01*
X55235Y47333D01*
X56807Y48905D01*
X57658Y50958D01*
Y53182D01*
X56807Y55235D01*
X55235Y56807D01*
X53182Y57658D01*
D02*
G37*
G36*
X329241Y53594D02*
X327119D01*
X325159Y52782D01*
X323658Y51281D01*
X322846Y49321D01*
Y47199D01*
X323658Y45238D01*
X325159Y43738D01*
X327119Y42926D01*
X329241D01*
X331201Y43738D01*
X332702Y45238D01*
X333514Y47199D01*
Y49321D01*
X332702Y51281D01*
X331201Y52782D01*
X329241Y53594D01*
D02*
G37*
G36*
X317341Y50038D02*
X315119D01*
X313065Y49187D01*
X311493Y47615D01*
X310642Y45561D01*
Y43338D01*
X311493Y41285D01*
X313065Y39713D01*
X315119Y38862D01*
X317341D01*
X319395Y39713D01*
X320967Y41285D01*
X321818Y43338D01*
Y45561D01*
X320967Y47615D01*
X319395Y49187D01*
X317341Y50038D01*
D02*
G37*
G36*
X521970Y47545D02*
X519430D01*
X516977Y46888D01*
X514778Y45618D01*
X512982Y43822D01*
X511712Y41623D01*
X511055Y39170D01*
Y36630D01*
X511712Y34177D01*
X512982Y31978D01*
X514778Y30182D01*
X516977Y28912D01*
X519430Y28255D01*
X521970D01*
X524423Y28912D01*
X526622Y30182D01*
X528418Y31978D01*
X529688Y34177D01*
X530345Y36630D01*
Y39170D01*
X529688Y41623D01*
X528418Y43822D01*
X526622Y45618D01*
X524423Y46888D01*
X521970Y47545D01*
D02*
G37*
G36*
X-87630Y47545D02*
X-90170D01*
X-92623Y46888D01*
X-94822Y45618D01*
X-96618Y43822D01*
X-97888Y41623D01*
X-98545Y39170D01*
Y36630D01*
X-97888Y34177D01*
X-96618Y31978D01*
X-94822Y30182D01*
X-92623Y28912D01*
X-90170Y28255D01*
X-87630D01*
X-85177Y28912D01*
X-82978Y30182D01*
X-81182Y31978D01*
X-79912Y34177D01*
X-79255Y36630D01*
Y39170D01*
X-79912Y41623D01*
X-81182Y43822D01*
X-82978Y45618D01*
X-85177Y46888D01*
X-87630Y47545D01*
D02*
G37*
G36*
X69866Y38129D02*
X67744D01*
X65783Y37317D01*
X64283Y35817D01*
X63471Y33856D01*
Y31734D01*
X64283Y29774D01*
X65783Y28273D01*
X67744Y27461D01*
X69866D01*
X71826Y28273D01*
X73327Y29774D01*
X74139Y31734D01*
Y33856D01*
X73327Y35817D01*
X71826Y37317D01*
X69866Y38129D01*
D02*
G37*
G36*
X158795Y30734D02*
X156673D01*
X154712Y29922D01*
X153212Y28421D01*
X152557Y26841D01*
X151227D01*
X150572Y28421D01*
X149072Y29922D01*
X147111Y30734D01*
X144989D01*
X143028Y29922D01*
X141528Y28421D01*
X140716Y26461D01*
Y24339D01*
X141528Y22378D01*
X143028Y20878D01*
X144989Y20066D01*
X147111D01*
X149072Y20878D01*
X150572Y22378D01*
X151227Y23959D01*
X152557D01*
X153212Y22378D01*
X154712Y20878D01*
X156673Y20066D01*
X158795D01*
X160756Y20878D01*
X162256Y22378D01*
X163068Y24339D01*
Y26461D01*
X162256Y28421D01*
X160756Y29922D01*
X158795Y30734D01*
D02*
G37*
G36*
X547938Y51863D02*
X544262D01*
X540710Y50912D01*
X537527Y49073D01*
X534927Y46474D01*
X533088Y43290D01*
X532137Y39738D01*
Y36062D01*
X533088Y32511D01*
X534927Y29327D01*
X537527Y26727D01*
X540710Y24889D01*
X544262Y23937D01*
X547938D01*
X551489Y24889D01*
X554674Y26727D01*
X557273Y29327D01*
X559112Y32511D01*
X560063Y36062D01*
Y39738D01*
X559112Y43290D01*
X557273Y46474D01*
X554674Y49073D01*
X551489Y50912D01*
X547938Y51863D01*
D02*
G37*
G36*
X-61662Y77263D02*
X-65338D01*
X-68889Y76311D01*
X-72073Y74473D01*
X-74673Y71873D01*
X-76512Y68689D01*
X-77463Y65138D01*
Y61462D01*
X-76512Y57910D01*
X-74673Y54727D01*
X-72073Y52127D01*
X-70529Y51235D01*
Y49965D01*
X-72073Y49073D01*
X-74673Y46473D01*
X-76512Y43289D01*
X-77463Y39738D01*
Y36062D01*
X-76512Y32510D01*
X-74673Y29327D01*
X-72073Y26727D01*
X-68889Y24889D01*
X-65338Y23937D01*
X-61662D01*
X-58110Y24889D01*
X-54927Y26727D01*
X-52327Y29327D01*
X-50489Y32510D01*
X-49537Y36062D01*
Y39738D01*
X-50489Y43289D01*
X-52327Y46473D01*
X-54927Y49073D01*
X-56471Y49965D01*
Y51235D01*
X-54927Y52127D01*
X-52327Y54727D01*
X-50489Y57910D01*
X-49537Y61462D01*
Y65138D01*
X-50489Y68689D01*
X-52327Y71873D01*
X-54927Y74473D01*
X-58110Y76311D01*
X-61662Y77263D01*
D02*
G37*
G36*
X134411Y30734D02*
X132289D01*
X130329Y29922D01*
X128828Y28421D01*
X128016Y26461D01*
Y24339D01*
X128828Y22378D01*
X130329Y20878D01*
X132289Y20066D01*
X134411D01*
X136371Y20878D01*
X137872Y22378D01*
X138684Y24339D01*
Y26461D01*
X137872Y28421D01*
X136371Y29922D01*
X134411Y30734D01*
D02*
G37*
G36*
X121711D02*
X119589D01*
X117628Y29922D01*
X116128Y28421D01*
X115316Y26461D01*
Y24339D01*
X116128Y22378D01*
X117628Y20878D01*
X119589Y20066D01*
X121711D01*
X123672Y20878D01*
X125172Y22378D01*
X125984Y24339D01*
Y26461D01*
X125172Y28421D01*
X123672Y29922D01*
X121711Y30734D01*
D02*
G37*
G36*
X109011D02*
X106889D01*
X104929Y29922D01*
X103428Y28421D01*
X102616Y26461D01*
Y24339D01*
X103428Y22378D01*
X104929Y20878D01*
X106889Y20066D01*
X109011D01*
X110971Y20878D01*
X112472Y22378D01*
X113284Y24339D01*
Y26461D01*
X112472Y28421D01*
X110971Y29922D01*
X109011Y30734D01*
D02*
G37*
G36*
X158795Y18034D02*
X156673D01*
X154712Y17222D01*
X153212Y15721D01*
X152557Y14141D01*
X151227D01*
X150572Y15721D01*
X149072Y17222D01*
X147111Y18034D01*
X144989D01*
X143028Y17222D01*
X141528Y15721D01*
X140716Y13761D01*
Y11639D01*
X141528Y9679D01*
X143028Y8178D01*
X144989Y7366D01*
X147111D01*
X149072Y8178D01*
X150572Y9679D01*
X151227Y11259D01*
X152557D01*
X153212Y9679D01*
X154712Y8178D01*
X156673Y7366D01*
X158795D01*
X160756Y8178D01*
X162256Y9679D01*
X163068Y11639D01*
Y13761D01*
X162256Y15721D01*
X160756Y17222D01*
X158795Y18034D01*
D02*
G37*
G36*
X416097Y24638D02*
X413975D01*
X412015Y23826D01*
X410514Y22325D01*
X409702Y20365D01*
Y18243D01*
X410514Y16283D01*
X412015Y14782D01*
X413975Y13970D01*
X416097D01*
X418058Y14782D01*
X419558Y16283D01*
X420370Y18243D01*
Y20365D01*
X419558Y22325D01*
X418058Y23826D01*
X416097Y24638D01*
D02*
G37*
G36*
X83918Y29440D02*
X81182D01*
X78540Y28732D01*
X76170Y27364D01*
X74236Y25430D01*
X72868Y23060D01*
X72160Y20418D01*
Y17682D01*
X72868Y15040D01*
X74236Y12670D01*
X76170Y10736D01*
X78540Y9368D01*
X81182Y8660D01*
X83918D01*
X86560Y9368D01*
X88930Y10736D01*
X90864Y12670D01*
X92232Y15040D01*
X92940Y17682D01*
Y20418D01*
X92232Y23060D01*
X90864Y25430D01*
X88930Y27364D01*
X86560Y28732D01*
X83918Y29440D01*
D02*
G37*
G36*
X134411Y18034D02*
X132289D01*
X130329Y17222D01*
X128828Y15721D01*
X128016Y13761D01*
Y11639D01*
X128828Y9679D01*
X130329Y8178D01*
X132289Y7366D01*
X134411D01*
X136371Y8178D01*
X137872Y9679D01*
X138684Y11639D01*
Y13761D01*
X137872Y15721D01*
X136371Y17222D01*
X134411Y18034D01*
D02*
G37*
G36*
X121711D02*
X119589D01*
X117628Y17222D01*
X116128Y15721D01*
X115316Y13761D01*
Y11639D01*
X116128Y9679D01*
X117628Y8178D01*
X119589Y7366D01*
X121711D01*
X123672Y8178D01*
X125172Y9679D01*
X125984Y11639D01*
Y13761D01*
X125172Y15721D01*
X123672Y17222D01*
X121711Y18034D01*
D02*
G37*
G36*
X109011D02*
X106889D01*
X104929Y17222D01*
X103428Y15721D01*
X102616Y13761D01*
Y11639D01*
X103428Y9679D01*
X104929Y8178D01*
X106889Y7366D01*
X109011D01*
X110971Y8178D01*
X112472Y9679D01*
X113284Y11639D01*
Y13761D01*
X112472Y15721D01*
X110971Y17222D01*
X109011Y18034D01*
D02*
G37*
G36*
X547370Y22145D02*
X544830D01*
X542377Y21488D01*
X540178Y20218D01*
X538382Y18422D01*
X537112Y16223D01*
X536455Y13770D01*
Y11230D01*
X537112Y8777D01*
X538382Y6578D01*
X540178Y4782D01*
X542377Y3512D01*
X544830Y2855D01*
X547370D01*
X549823Y3512D01*
X552022Y4782D01*
X553818Y6578D01*
X555088Y8777D01*
X555745Y11230D01*
Y13770D01*
X555088Y16223D01*
X553818Y18422D01*
X552022Y20218D01*
X549823Y21488D01*
X547370Y22145D01*
D02*
G37*
G36*
X521970D02*
X519430D01*
X516977Y21488D01*
X514778Y20218D01*
X512982Y18422D01*
X511712Y16223D01*
X511055Y13770D01*
Y11230D01*
X511712Y8777D01*
X512982Y6578D01*
X514778Y4782D01*
X516977Y3512D01*
X519430Y2855D01*
X521970D01*
X524423Y3512D01*
X526622Y4782D01*
X528418Y6578D01*
X529688Y8777D01*
X530345Y11230D01*
Y13770D01*
X529688Y16223D01*
X528418Y18422D01*
X526622Y20218D01*
X524423Y21488D01*
X521970Y22145D01*
D02*
G37*
G36*
X-62230Y22145D02*
X-64770D01*
X-67223Y21488D01*
X-69422Y20218D01*
X-71218Y18422D01*
X-72488Y16223D01*
X-73145Y13770D01*
Y11230D01*
X-72488Y8777D01*
X-71218Y6578D01*
X-69422Y4782D01*
X-67223Y3512D01*
X-64770Y2855D01*
X-62230D01*
X-59777Y3512D01*
X-57578Y4782D01*
X-55782Y6578D01*
X-54512Y8777D01*
X-53855Y11230D01*
Y13770D01*
X-54512Y16223D01*
X-55782Y18422D01*
X-57578Y20218D01*
X-59777Y21488D01*
X-62230Y22145D01*
D02*
G37*
G36*
X-87630D02*
X-90170D01*
X-92623Y21488D01*
X-94822Y20218D01*
X-96618Y18422D01*
X-97888Y16223D01*
X-98545Y13770D01*
Y11230D01*
X-97888Y8777D01*
X-96618Y6578D01*
X-94822Y4782D01*
X-92623Y3512D01*
X-90170Y2855D01*
X-87630D01*
X-85177Y3512D01*
X-82978Y4782D01*
X-81182Y6578D01*
X-79912Y8777D01*
X-79255Y11230D01*
Y13770D01*
X-79912Y16223D01*
X-81182Y18422D01*
X-82978Y20218D01*
X-85177Y21488D01*
X-87630Y22145D01*
D02*
G37*
G36*
X-62230Y-3255D02*
Y-11630D01*
X-53855D01*
X-54512Y-9177D01*
X-55782Y-6978D01*
X-57578Y-5182D01*
X-59777Y-3912D01*
X-62230Y-3255D01*
D02*
G37*
G36*
X-64770D02*
X-67223Y-3912D01*
X-69422Y-5182D01*
X-71218Y-6978D01*
X-72488Y-9177D01*
X-73145Y-11630D01*
X-64770D01*
Y-3255D01*
D02*
G37*
G36*
X209391Y-762D02*
X207169D01*
X205115Y-1613D01*
X203543Y-3185D01*
X202692Y-5239D01*
Y-7462D01*
X203543Y-9515D01*
X205115Y-11087D01*
X207169Y-11938D01*
X209391D01*
X211445Y-11087D01*
X213017Y-9515D01*
X213868Y-7462D01*
Y-5239D01*
X213017Y-3185D01*
X211445Y-1613D01*
X209391Y-762D01*
D02*
G37*
G36*
X547370Y-3255D02*
X544830D01*
X542377Y-3912D01*
X540178Y-5182D01*
X538382Y-6978D01*
X537112Y-9177D01*
X536455Y-11630D01*
Y-14170D01*
X537112Y-16623D01*
X538382Y-18822D01*
X540178Y-20618D01*
X542377Y-21888D01*
X544830Y-22545D01*
X547370D01*
X549823Y-21888D01*
X552022Y-20618D01*
X553818Y-18822D01*
X555088Y-16623D01*
X555745Y-14170D01*
Y-11630D01*
X555088Y-9177D01*
X553818Y-6978D01*
X552022Y-5182D01*
X549823Y-3912D01*
X547370Y-3255D01*
D02*
G37*
G36*
X521970D02*
X519430D01*
X516977Y-3912D01*
X514778Y-5182D01*
X512982Y-6978D01*
X511712Y-9177D01*
X511055Y-11630D01*
Y-14170D01*
X511712Y-16623D01*
X512982Y-18822D01*
X514778Y-20618D01*
X516977Y-21888D01*
X519430Y-22545D01*
X521970D01*
X524423Y-21888D01*
X526622Y-20618D01*
X528418Y-18822D01*
X529688Y-16623D01*
X530345Y-14170D01*
Y-11630D01*
X529688Y-9177D01*
X528418Y-6978D01*
X526622Y-5182D01*
X524423Y-3912D01*
X521970Y-3255D01*
D02*
G37*
G36*
X-53855Y-14170D02*
X-62230D01*
Y-22545D01*
X-59777Y-21888D01*
X-57578Y-20618D01*
X-55782Y-18822D01*
X-54512Y-16623D01*
X-53855Y-14170D01*
D02*
G37*
G36*
X-64770D02*
X-73145D01*
X-72488Y-16623D01*
X-71218Y-18822D01*
X-69422Y-20618D01*
X-67223Y-21888D01*
X-64770Y-22545D01*
Y-14170D01*
D02*
G37*
G36*
X-87630Y-3255D02*
X-90170D01*
X-92623Y-3912D01*
X-94822Y-5182D01*
X-96618Y-6978D01*
X-97888Y-9177D01*
X-98545Y-11630D01*
Y-14170D01*
X-97888Y-16623D01*
X-96618Y-18822D01*
X-94822Y-20618D01*
X-92623Y-21888D01*
X-90170Y-22545D01*
X-87630D01*
X-85177Y-21888D01*
X-82978Y-20618D01*
X-81182Y-18822D01*
X-79912Y-16623D01*
X-79255Y-14170D01*
Y-11630D01*
X-79912Y-9177D01*
X-81182Y-6978D01*
X-82978Y-5182D01*
X-85177Y-3912D01*
X-87630Y-3255D01*
D02*
G37*
G36*
X459699Y31750D02*
X454701D01*
X449765Y30968D01*
X445012Y29424D01*
X440559Y27155D01*
X436516Y24218D01*
X432982Y20684D01*
X430045Y16641D01*
X427776Y12188D01*
X426232Y7435D01*
X425450Y2499D01*
Y-2499D01*
X426232Y-7435D01*
X427776Y-12188D01*
X430045Y-16641D01*
X432982Y-20684D01*
X436516Y-24218D01*
X440559Y-27155D01*
X445012Y-29424D01*
X449765Y-30968D01*
X454701Y-31750D01*
X459699D01*
X464635Y-30968D01*
X469388Y-29424D01*
X473841Y-27155D01*
X477884Y-24218D01*
X481418Y-20684D01*
X484355Y-16641D01*
X486624Y-12188D01*
X488168Y-7435D01*
X488950Y-2499D01*
Y2499D01*
X488168Y7435D01*
X486624Y12188D01*
X484355Y16641D01*
X481418Y20684D01*
X477884Y24218D01*
X473841Y27155D01*
X469388Y29424D01*
X464635Y30968D01*
X459699Y31750D01*
D02*
G37*
G36*
X2499D02*
X-2499D01*
X-7435Y30968D01*
X-12188Y29424D01*
X-16641Y27155D01*
X-20684Y24218D01*
X-24218Y20684D01*
X-27155Y16641D01*
X-29424Y12188D01*
X-30968Y7435D01*
X-31750Y2499D01*
Y-2499D01*
X-30968Y-7435D01*
X-29424Y-12188D01*
X-27155Y-16641D01*
X-24218Y-20684D01*
X-20684Y-24218D01*
X-16641Y-27155D01*
X-12188Y-29424D01*
X-7435Y-30968D01*
X-2499Y-31750D01*
X2499D01*
X7435Y-30968D01*
X12188Y-29424D01*
X16641Y-27155D01*
X20684Y-24218D01*
X24218Y-20684D01*
X27155Y-16641D01*
X29424Y-12188D01*
X30968Y-7435D01*
X31750Y-2499D01*
Y2499D01*
X30968Y7435D01*
X29424Y12188D01*
X27155Y16641D01*
X24218Y20684D01*
X20684Y24218D01*
X16641Y27155D01*
X12188Y29424D01*
X7435Y30968D01*
X2499Y31750D01*
D02*
G37*
G36*
X324161Y-26416D02*
X322039D01*
X320079Y-27228D01*
X318578Y-28728D01*
X317766Y-30689D01*
Y-32811D01*
X318578Y-34771D01*
X320079Y-36272D01*
X322039Y-37084D01*
X324161D01*
X326121Y-36272D01*
X327622Y-34771D01*
X328434Y-32811D01*
Y-30689D01*
X327622Y-28728D01*
X326121Y-27228D01*
X324161Y-26416D01*
D02*
G37*
G36*
X311461D02*
X309339D01*
X307379Y-27228D01*
X305878Y-28728D01*
X305066Y-30689D01*
Y-32811D01*
X305878Y-34771D01*
X307379Y-36272D01*
X309339Y-37084D01*
X311461D01*
X313421Y-36272D01*
X314922Y-34771D01*
X315734Y-32811D01*
Y-30689D01*
X314922Y-28728D01*
X313421Y-27228D01*
X311461Y-26416D01*
D02*
G37*
G36*
X298761D02*
X296639D01*
X294678Y-27228D01*
X293178Y-28728D01*
X292366Y-30689D01*
Y-32811D01*
X293178Y-34771D01*
X294678Y-36272D01*
X296639Y-37084D01*
X298761D01*
X300721Y-36272D01*
X302222Y-34771D01*
X303034Y-32811D01*
Y-30689D01*
X302222Y-28728D01*
X300721Y-27228D01*
X298761Y-26416D01*
D02*
G37*
G36*
X547370Y-28655D02*
X544830D01*
X542377Y-29312D01*
X540178Y-30582D01*
X538382Y-32378D01*
X537112Y-34577D01*
X536455Y-37030D01*
Y-39570D01*
X537112Y-42023D01*
X538382Y-44222D01*
X540178Y-46018D01*
X542377Y-47288D01*
X544830Y-47945D01*
X547370D01*
X549823Y-47288D01*
X552022Y-46018D01*
X553818Y-44222D01*
X555088Y-42023D01*
X555745Y-39570D01*
Y-37030D01*
X555088Y-34577D01*
X553818Y-32378D01*
X552022Y-30582D01*
X549823Y-29312D01*
X547370Y-28655D01*
D02*
G37*
G36*
X521970D02*
X519430D01*
X516977Y-29312D01*
X514778Y-30582D01*
X512982Y-32378D01*
X511712Y-34577D01*
X511055Y-37030D01*
Y-39570D01*
X511712Y-42023D01*
X512982Y-44222D01*
X514778Y-46018D01*
X516977Y-47288D01*
X519430Y-47945D01*
X521970D01*
X524423Y-47288D01*
X526622Y-46018D01*
X528418Y-44222D01*
X529688Y-42023D01*
X530345Y-39570D01*
Y-37030D01*
X529688Y-34577D01*
X528418Y-32378D01*
X526622Y-30582D01*
X524423Y-29312D01*
X521970Y-28655D01*
D02*
G37*
G36*
X-62230Y-28655D02*
X-64770D01*
X-67223Y-29312D01*
X-69422Y-30582D01*
X-71218Y-32378D01*
X-72488Y-34577D01*
X-73145Y-37030D01*
Y-39570D01*
X-72488Y-42023D01*
X-71218Y-44222D01*
X-69422Y-46018D01*
X-67223Y-47288D01*
X-64770Y-47945D01*
X-62230D01*
X-59777Y-47288D01*
X-57578Y-46018D01*
X-55782Y-44222D01*
X-54512Y-42023D01*
X-53855Y-39570D01*
Y-37030D01*
X-54512Y-34577D01*
X-55782Y-32378D01*
X-57578Y-30582D01*
X-59777Y-29312D01*
X-62230Y-28655D01*
D02*
G37*
G36*
X-87630D02*
X-90170D01*
X-92623Y-29312D01*
X-94822Y-30582D01*
X-96618Y-32378D01*
X-97888Y-34577D01*
X-98545Y-37030D01*
Y-39570D01*
X-97888Y-42023D01*
X-96618Y-44222D01*
X-94822Y-46018D01*
X-92623Y-47288D01*
X-90170Y-47945D01*
X-87630D01*
X-85177Y-47288D01*
X-82978Y-46018D01*
X-81182Y-44222D01*
X-79912Y-42023D01*
X-79255Y-39570D01*
Y-37030D01*
X-79912Y-34577D01*
X-81182Y-32378D01*
X-82978Y-30582D01*
X-85177Y-29312D01*
X-87630Y-28655D01*
D02*
G37*
G36*
X521970Y-54055D02*
Y-62430D01*
X530345D01*
X529688Y-59977D01*
X528418Y-57778D01*
X526622Y-55982D01*
X524423Y-54712D01*
X521970Y-54055D01*
D02*
G37*
G36*
X519430D02*
X516977Y-54712D01*
X514778Y-55982D01*
X512982Y-57778D01*
X511712Y-59977D01*
X511055Y-62430D01*
X519430D01*
Y-54055D01*
D02*
G37*
G36*
X274111Y-51816D02*
X271989D01*
X270028Y-52628D01*
X268528Y-54128D01*
X267716Y-56089D01*
Y-58211D01*
X268528Y-60171D01*
X270028Y-61672D01*
X271989Y-62484D01*
X274111D01*
X276071Y-61672D01*
X277572Y-60171D01*
X278384Y-58211D01*
Y-56089D01*
X277572Y-54128D01*
X276071Y-52628D01*
X274111Y-51816D01*
D02*
G37*
G36*
X261411D02*
X259289D01*
X257328Y-52628D01*
X255828Y-54128D01*
X255016Y-56089D01*
Y-58211D01*
X255828Y-60171D01*
X257328Y-61672D01*
X259289Y-62484D01*
X261411D01*
X263372Y-61672D01*
X264872Y-60171D01*
X265684Y-58211D01*
Y-56089D01*
X264872Y-54128D01*
X263372Y-52628D01*
X261411Y-51816D01*
D02*
G37*
G36*
X26759Y-32019D02*
X24637D01*
X22677Y-32831D01*
X21176Y-34331D01*
X20364Y-36292D01*
Y-38414D01*
X21176Y-40374D01*
X22677Y-41875D01*
X24637Y-42687D01*
X26759D01*
X26924Y-42618D01*
X28194Y-43467D01*
Y-44241D01*
X29006Y-46202D01*
X30506Y-47702D01*
X32467Y-48514D01*
X34589D01*
X35634Y-48081D01*
X36606Y-49053D01*
X36322Y-49739D01*
Y-51861D01*
X37134Y-53822D01*
X38635Y-55322D01*
X40595Y-56134D01*
X42717D01*
X44608Y-55351D01*
X44857Y-55472D01*
X45655Y-56140D01*
X45466Y-56597D01*
Y-58719D01*
X46278Y-60679D01*
X47779Y-62180D01*
X49739Y-62992D01*
X51861D01*
X53822Y-62180D01*
X55322Y-60679D01*
X56134Y-58719D01*
Y-56597D01*
X55322Y-54637D01*
X53822Y-53136D01*
X51861Y-52324D01*
X49739D01*
X47849Y-53107D01*
X47599Y-52986D01*
X46801Y-52318D01*
X46990Y-51861D01*
Y-49739D01*
X46178Y-47779D01*
X44678Y-46278D01*
X42717Y-45466D01*
X40595D01*
X39550Y-45899D01*
X38578Y-44927D01*
X38862Y-44241D01*
Y-42119D01*
X38050Y-40159D01*
X36549Y-38658D01*
X34589Y-37846D01*
X32467D01*
X32302Y-37914D01*
X31032Y-37066D01*
Y-36292D01*
X30220Y-34331D01*
X28720Y-32831D01*
X26759Y-32019D01*
D02*
G37*
G36*
X323641Y-54864D02*
X321519D01*
X319559Y-55676D01*
X318058Y-57176D01*
X317246Y-59137D01*
Y-61259D01*
X318058Y-63219D01*
X319559Y-64720D01*
X321519Y-65532D01*
X323641D01*
X325602Y-64720D01*
X327102Y-63219D01*
X327914Y-61259D01*
Y-59137D01*
X327102Y-57176D01*
X325602Y-55676D01*
X323641Y-54864D01*
D02*
G37*
G36*
X530345Y-64970D02*
X521970D01*
Y-73345D01*
X524423Y-72688D01*
X526622Y-71418D01*
X528418Y-69622D01*
X529688Y-67423D01*
X530345Y-64970D01*
D02*
G37*
G36*
X519430D02*
X511055D01*
X511712Y-67423D01*
X512982Y-69622D01*
X514778Y-71418D01*
X516977Y-72688D01*
X519430Y-73345D01*
Y-64970D01*
D02*
G37*
G36*
X547370Y-54055D02*
X544830D01*
X542377Y-54712D01*
X540178Y-55982D01*
X538382Y-57778D01*
X537112Y-59977D01*
X536455Y-62430D01*
Y-64970D01*
X537112Y-67423D01*
X538382Y-69622D01*
X540178Y-71418D01*
X542377Y-72688D01*
X544830Y-73345D01*
X547370D01*
X549823Y-72688D01*
X552022Y-71418D01*
X553818Y-69622D01*
X555088Y-67423D01*
X555745Y-64970D01*
Y-62430D01*
X555088Y-59977D01*
X553818Y-57778D01*
X552022Y-55982D01*
X549823Y-54712D01*
X547370Y-54055D01*
D02*
G37*
G36*
X-62230Y-54055D02*
X-64770D01*
X-67223Y-54712D01*
X-69422Y-55982D01*
X-71218Y-57778D01*
X-72488Y-59977D01*
X-73145Y-62430D01*
Y-64970D01*
X-72488Y-67423D01*
X-71218Y-69622D01*
X-69422Y-71418D01*
X-67223Y-72688D01*
X-64770Y-73345D01*
X-62230D01*
X-59777Y-72688D01*
X-57578Y-71418D01*
X-55782Y-69622D01*
X-54512Y-67423D01*
X-53855Y-64970D01*
Y-62430D01*
X-54512Y-59977D01*
X-55782Y-57778D01*
X-57578Y-55982D01*
X-59777Y-54712D01*
X-62230Y-54055D01*
D02*
G37*
G36*
X-87630D02*
X-90170D01*
X-92623Y-54712D01*
X-94822Y-55982D01*
X-96618Y-57778D01*
X-97888Y-59977D01*
X-98545Y-62430D01*
Y-64970D01*
X-97888Y-67423D01*
X-96618Y-69622D01*
X-94822Y-71418D01*
X-92623Y-72688D01*
X-90170Y-73345D01*
X-87630D01*
X-85177Y-72688D01*
X-82978Y-71418D01*
X-81182Y-69622D01*
X-79912Y-67423D01*
X-79255Y-64970D01*
Y-62430D01*
X-79912Y-59977D01*
X-81182Y-57778D01*
X-82978Y-55982D01*
X-85177Y-54712D01*
X-87630Y-54055D01*
D02*
G37*
G36*
X274111Y-64516D02*
X271989D01*
X270028Y-65328D01*
X268528Y-66828D01*
X267716Y-68789D01*
Y-70911D01*
X268528Y-72871D01*
X270028Y-74372D01*
X271989Y-75184D01*
X274111D01*
X276071Y-74372D01*
X277572Y-72871D01*
X278384Y-70911D01*
Y-68789D01*
X277572Y-66828D01*
X276071Y-65328D01*
X274111Y-64516D01*
D02*
G37*
G36*
X261411D02*
X259289D01*
X257328Y-65328D01*
X255828Y-66828D01*
X255016Y-68789D01*
Y-70911D01*
X255828Y-72871D01*
X257328Y-74372D01*
X259289Y-75184D01*
X261411D01*
X263372Y-74372D01*
X264872Y-72871D01*
X265684Y-70911D01*
Y-68789D01*
X264872Y-66828D01*
X263372Y-65328D01*
X261411Y-64516D01*
D02*
G37*
G36*
X423509Y-71120D02*
X421387D01*
X419427Y-71932D01*
X417926Y-73432D01*
X417114Y-75393D01*
Y-77515D01*
X417926Y-79475D01*
X419427Y-80976D01*
X421387Y-81788D01*
X423509D01*
X425470Y-80976D01*
X426970Y-79475D01*
X427782Y-77515D01*
Y-75393D01*
X426970Y-73432D01*
X425470Y-71932D01*
X423509Y-71120D01*
D02*
G37*
G36*
X399033D02*
X396911D01*
X394950Y-71932D01*
X393450Y-73432D01*
X392638Y-75393D01*
Y-77515D01*
X393450Y-79475D01*
X394950Y-80976D01*
X396911Y-81788D01*
X399033D01*
X400993Y-80976D01*
X402494Y-79475D01*
X403306Y-77515D01*
Y-75393D01*
X402494Y-73432D01*
X400993Y-71932D01*
X399033Y-71120D01*
D02*
G37*
G36*
X423971Y-83566D02*
X421849D01*
X419888Y-84378D01*
X418388Y-85878D01*
X417576Y-87839D01*
Y-89961D01*
X418388Y-91922D01*
X419888Y-93422D01*
X421849Y-94234D01*
X423971D01*
X425932Y-93422D01*
X427432Y-91922D01*
X428244Y-89961D01*
Y-87839D01*
X427432Y-85878D01*
X425932Y-84378D01*
X423971Y-83566D01*
D02*
G37*
G36*
X79801Y-84836D02*
X77679D01*
X75718Y-85648D01*
X74218Y-87149D01*
X73406Y-89109D01*
Y-91231D01*
X74218Y-93191D01*
X75718Y-94692D01*
X77679Y-95504D01*
X79801D01*
X81762Y-94692D01*
X83262Y-93191D01*
X84074Y-91231D01*
Y-89109D01*
X83262Y-87149D01*
X81762Y-85648D01*
X79801Y-84836D01*
D02*
G37*
G36*
X55671D02*
X53549D01*
X51589Y-85648D01*
X50088Y-87149D01*
X49276Y-89109D01*
Y-91231D01*
X50088Y-93191D01*
X51589Y-94692D01*
X53549Y-95504D01*
X55671D01*
X57632Y-94692D01*
X59132Y-93191D01*
X59944Y-91231D01*
Y-89109D01*
X59132Y-87149D01*
X57632Y-85648D01*
X55671Y-84836D01*
D02*
G37*
G36*
X258871Y-86106D02*
X256749D01*
X254788Y-86918D01*
X253288Y-88419D01*
X252476Y-90379D01*
Y-92501D01*
X253288Y-94461D01*
X254788Y-95962D01*
X256749Y-96774D01*
X258871D01*
X260832Y-95962D01*
X262332Y-94461D01*
X263144Y-92501D01*
Y-90379D01*
X262332Y-88419D01*
X260832Y-86918D01*
X258871Y-86106D01*
D02*
G37*
G36*
X-14519Y-87568D02*
X-16641D01*
X-18602Y-88380D01*
X-20102Y-89881D01*
X-20914Y-91841D01*
Y-93963D01*
X-20102Y-95924D01*
X-18602Y-97424D01*
X-16641Y-98236D01*
X-14519D01*
X-12559Y-97424D01*
X-11058Y-95924D01*
X-10246Y-93963D01*
Y-91841D01*
X-11058Y-89881D01*
X-12559Y-88380D01*
X-14519Y-87568D01*
D02*
G37*
G36*
X547370Y-79455D02*
X544830D01*
X542377Y-80112D01*
X540178Y-81382D01*
X538382Y-83178D01*
X537112Y-85377D01*
X536455Y-87830D01*
Y-90370D01*
X537112Y-92823D01*
X538382Y-95022D01*
X540178Y-96818D01*
X542377Y-98088D01*
X544830Y-98745D01*
X547370D01*
X549823Y-98088D01*
X552022Y-96818D01*
X553818Y-95022D01*
X555088Y-92823D01*
X555745Y-90370D01*
Y-87830D01*
X555088Y-85377D01*
X553818Y-83178D01*
X552022Y-81382D01*
X549823Y-80112D01*
X547370Y-79455D01*
D02*
G37*
G36*
X521970D02*
X519430D01*
X516977Y-80112D01*
X514778Y-81382D01*
X512982Y-83178D01*
X511712Y-85377D01*
X511055Y-87830D01*
Y-90370D01*
X511712Y-92823D01*
X512982Y-95022D01*
X514778Y-96818D01*
X516977Y-98088D01*
X519430Y-98745D01*
X521970D01*
X524423Y-98088D01*
X526622Y-96818D01*
X528418Y-95022D01*
X529688Y-92823D01*
X530345Y-90370D01*
Y-87830D01*
X529688Y-85377D01*
X528418Y-83178D01*
X526622Y-81382D01*
X524423Y-80112D01*
X521970Y-79455D01*
D02*
G37*
G36*
X-62230Y-79455D02*
X-64770D01*
X-67223Y-80112D01*
X-69422Y-81382D01*
X-71218Y-83178D01*
X-72488Y-85377D01*
X-73145Y-87830D01*
Y-90370D01*
X-72488Y-92823D01*
X-71218Y-95022D01*
X-69422Y-96818D01*
X-67223Y-98088D01*
X-64770Y-98745D01*
X-62230D01*
X-59777Y-98088D01*
X-57578Y-96818D01*
X-55782Y-95022D01*
X-54512Y-92823D01*
X-53855Y-90370D01*
Y-87830D01*
X-54512Y-85377D01*
X-55782Y-83178D01*
X-57578Y-81382D01*
X-59777Y-80112D01*
X-62230Y-79455D01*
D02*
G37*
G36*
X-87630D02*
X-90170D01*
X-92623Y-80112D01*
X-94822Y-81382D01*
X-96618Y-83178D01*
X-97888Y-85377D01*
X-98545Y-87830D01*
Y-90370D01*
X-97888Y-92823D01*
X-96618Y-95022D01*
X-94822Y-96818D01*
X-92623Y-98088D01*
X-90170Y-98745D01*
X-87630D01*
X-85177Y-98088D01*
X-82978Y-96818D01*
X-81182Y-95022D01*
X-79912Y-92823D01*
X-79255Y-90370D01*
Y-87830D01*
X-79912Y-85377D01*
X-81182Y-83178D01*
X-82978Y-81382D01*
X-85177Y-80112D01*
X-87630Y-79455D01*
D02*
G37*
G36*
X213151Y-93726D02*
X211029D01*
X209069Y-94538D01*
X207568Y-96039D01*
X206756Y-97999D01*
Y-100121D01*
X207568Y-102081D01*
X209069Y-103582D01*
X211029Y-104394D01*
X213151D01*
X215112Y-103582D01*
X216612Y-102081D01*
X217424Y-100121D01*
Y-97999D01*
X216612Y-96039D01*
X215112Y-94538D01*
X213151Y-93726D01*
D02*
G37*
G36*
X67101Y-103886D02*
X64979D01*
X63018Y-104698D01*
X61518Y-106199D01*
X60706Y-108159D01*
Y-110281D01*
X61518Y-112241D01*
X63018Y-113742D01*
X64979Y-114554D01*
X67101D01*
X69061Y-113742D01*
X70562Y-112241D01*
X71374Y-110281D01*
Y-108159D01*
X70562Y-106199D01*
X69061Y-104698D01*
X67101Y-103886D01*
D02*
G37*
G36*
X547370Y-104855D02*
X544830D01*
X542377Y-105512D01*
X540178Y-106782D01*
X538382Y-108578D01*
X537112Y-110777D01*
X536455Y-113230D01*
Y-115770D01*
X537112Y-118223D01*
X538382Y-120422D01*
X540178Y-122218D01*
X542377Y-123488D01*
X544830Y-124145D01*
X547370D01*
X549823Y-123488D01*
X552022Y-122218D01*
X553818Y-120422D01*
X555088Y-118223D01*
X555745Y-115770D01*
Y-113230D01*
X555088Y-110777D01*
X553818Y-108578D01*
X552022Y-106782D01*
X549823Y-105512D01*
X547370Y-104855D01*
D02*
G37*
G36*
X521970D02*
X519430D01*
X516977Y-105512D01*
X514778Y-106782D01*
X512982Y-108578D01*
X511712Y-110777D01*
X511055Y-113230D01*
Y-115770D01*
X511712Y-118223D01*
X512982Y-120422D01*
X514778Y-122218D01*
X516977Y-123488D01*
X519430Y-124145D01*
X521970D01*
X524423Y-123488D01*
X526622Y-122218D01*
X528418Y-120422D01*
X529688Y-118223D01*
X530345Y-115770D01*
Y-113230D01*
X529688Y-110777D01*
X528418Y-108578D01*
X526622Y-106782D01*
X524423Y-105512D01*
X521970Y-104855D01*
D02*
G37*
G36*
X-62230Y-104855D02*
X-64770D01*
X-67223Y-105512D01*
X-69422Y-106782D01*
X-71218Y-108578D01*
X-72488Y-110777D01*
X-73145Y-113230D01*
Y-115770D01*
X-72488Y-118223D01*
X-71218Y-120422D01*
X-69422Y-122218D01*
X-67223Y-123488D01*
X-64770Y-124145D01*
X-62230D01*
X-59777Y-123488D01*
X-57578Y-122218D01*
X-55782Y-120422D01*
X-54512Y-118223D01*
X-53855Y-115770D01*
Y-113230D01*
X-54512Y-110777D01*
X-55782Y-108578D01*
X-57578Y-106782D01*
X-59777Y-105512D01*
X-62230Y-104855D01*
D02*
G37*
G36*
X-87630D02*
X-90170D01*
X-92623Y-105512D01*
X-94822Y-106782D01*
X-96618Y-108578D01*
X-97888Y-110777D01*
X-98545Y-113230D01*
Y-115770D01*
X-97888Y-118223D01*
X-96618Y-120422D01*
X-94822Y-122218D01*
X-92623Y-123488D01*
X-90170Y-124145D01*
X-87630D01*
X-85177Y-123488D01*
X-82978Y-122218D01*
X-81182Y-120422D01*
X-79912Y-118223D01*
X-79255Y-115770D01*
Y-113230D01*
X-79912Y-110777D01*
X-81182Y-108578D01*
X-82978Y-106782D01*
X-85177Y-105512D01*
X-87630Y-104855D01*
D02*
G37*
G36*
X382315Y-114808D02*
X380193D01*
X378232Y-115620D01*
X376732Y-117121D01*
X375920Y-119081D01*
Y-121203D01*
X376732Y-123163D01*
X378232Y-124664D01*
X380193Y-125476D01*
X382315D01*
X384276Y-124664D01*
X385776Y-123163D01*
X386588Y-121203D01*
Y-119081D01*
X385776Y-117121D01*
X384276Y-115620D01*
X382315Y-114808D01*
D02*
G37*
G36*
X2331Y-120396D02*
X209D01*
X-1752Y-121208D01*
X-3252Y-122709D01*
X-4064Y-124669D01*
Y-126791D01*
X-3252Y-128751D01*
X-1752Y-130252D01*
X209Y-131064D01*
X2331D01*
X4291Y-130252D01*
X5792Y-128751D01*
X6604Y-126791D01*
Y-124669D01*
X5792Y-122709D01*
X4291Y-121208D01*
X2331Y-120396D01*
D02*
G37*
G36*
X423971Y-129286D02*
X421849D01*
X419888Y-130098D01*
X418388Y-131599D01*
X417576Y-133559D01*
Y-135681D01*
X418388Y-137641D01*
X419888Y-139142D01*
X421849Y-139954D01*
X423971D01*
X425932Y-139142D01*
X427432Y-137641D01*
X428244Y-135681D01*
Y-133559D01*
X427432Y-131599D01*
X425932Y-130098D01*
X423971Y-129286D01*
D02*
G37*
G36*
X144621Y-131572D02*
X142399D01*
X140345Y-132423D01*
X138773Y-133995D01*
X137922Y-136048D01*
Y-138272D01*
X138773Y-140325D01*
X140345Y-141897D01*
X142399Y-142748D01*
X144621D01*
X146675Y-141897D01*
X148247Y-140325D01*
X149098Y-138272D01*
Y-136048D01*
X148247Y-133995D01*
X146675Y-132423D01*
X144621Y-131572D01*
D02*
G37*
G36*
X486455Y-135890D02*
X484333D01*
X482373Y-136702D01*
X480872Y-138202D01*
X480060Y-140163D01*
Y-142285D01*
X480872Y-144246D01*
X482373Y-145746D01*
X484333Y-146558D01*
X486455D01*
X488415Y-145746D01*
X489916Y-144246D01*
X490728Y-142285D01*
Y-140163D01*
X489916Y-138202D01*
X488415Y-136702D01*
X486455Y-135890D01*
D02*
G37*
G36*
X547370Y-130255D02*
X544830D01*
X542377Y-130912D01*
X540178Y-132182D01*
X538382Y-133978D01*
X537112Y-136177D01*
X536455Y-138630D01*
Y-141170D01*
X537112Y-143623D01*
X538382Y-145822D01*
X540178Y-147618D01*
X542377Y-148888D01*
X544830Y-149545D01*
X547370D01*
X549823Y-148888D01*
X552022Y-147618D01*
X553818Y-145822D01*
X555088Y-143623D01*
X555745Y-141170D01*
Y-138630D01*
X555088Y-136177D01*
X553818Y-133978D01*
X552022Y-132182D01*
X549823Y-130912D01*
X547370Y-130255D01*
D02*
G37*
G36*
X521970D02*
X519430D01*
X516977Y-130912D01*
X514778Y-132182D01*
X512982Y-133978D01*
X511712Y-136177D01*
X511055Y-138630D01*
Y-141170D01*
X511712Y-143623D01*
X512982Y-145822D01*
X514778Y-147618D01*
X516977Y-148888D01*
X519430Y-149545D01*
X521970D01*
X524423Y-148888D01*
X526622Y-147618D01*
X528418Y-145822D01*
X529688Y-143623D01*
X530345Y-141170D01*
Y-138630D01*
X529688Y-136177D01*
X528418Y-133978D01*
X526622Y-132182D01*
X524423Y-130912D01*
X521970Y-130255D01*
D02*
G37*
G36*
X-62230Y-130255D02*
X-64770D01*
X-67223Y-130912D01*
X-69422Y-132182D01*
X-71218Y-133978D01*
X-72488Y-136177D01*
X-73145Y-138630D01*
Y-141170D01*
X-72488Y-143623D01*
X-71218Y-145822D01*
X-69422Y-147618D01*
X-67223Y-148888D01*
X-64770Y-149545D01*
X-62230D01*
X-59777Y-148888D01*
X-57578Y-147618D01*
X-55782Y-145822D01*
X-54512Y-143623D01*
X-53855Y-141170D01*
Y-138630D01*
X-54512Y-136177D01*
X-55782Y-133978D01*
X-57578Y-132182D01*
X-59777Y-130912D01*
X-62230Y-130255D01*
D02*
G37*
G36*
X-87630D02*
X-90170D01*
X-92623Y-130912D01*
X-94822Y-132182D01*
X-96618Y-133978D01*
X-97888Y-136177D01*
X-98545Y-138630D01*
Y-141170D01*
X-97888Y-143623D01*
X-96618Y-145822D01*
X-94822Y-147618D01*
X-92623Y-148888D01*
X-90170Y-149545D01*
X-87630D01*
X-85177Y-148888D01*
X-82978Y-147618D01*
X-81182Y-145822D01*
X-79912Y-143623D01*
X-79255Y-141170D01*
Y-138630D01*
X-79912Y-136177D01*
X-81182Y-133978D01*
X-82978Y-132182D01*
X-85177Y-130912D01*
X-87630Y-130255D01*
D02*
G37*
G36*
X345485Y-144780D02*
X343363D01*
X341403Y-145592D01*
X339902Y-147093D01*
X339090Y-149053D01*
Y-151175D01*
X339902Y-153135D01*
X341403Y-154636D01*
X343363Y-155448D01*
X345485D01*
X347445Y-154636D01*
X348946Y-153135D01*
X349758Y-151175D01*
Y-149053D01*
X348946Y-147093D01*
X347445Y-145592D01*
X345485Y-144780D01*
D02*
G37*
G36*
X334641Y-152400D02*
X332519D01*
X330559Y-153212D01*
X329058Y-154712D01*
X328246Y-156673D01*
Y-158795D01*
X329058Y-160756D01*
X330559Y-162256D01*
X332519Y-163068D01*
X334641D01*
X336601Y-162256D01*
X338102Y-160756D01*
X338914Y-158795D01*
Y-156673D01*
X338102Y-154712D01*
X336601Y-153212D01*
X334641Y-152400D01*
D02*
G37*
G36*
X144748Y-166497D02*
X142272D01*
X139985Y-167444D01*
X138234Y-169195D01*
X137287Y-171482D01*
Y-173958D01*
X138234Y-176245D01*
X139985Y-177996D01*
X142272Y-178943D01*
X144748D01*
X147035Y-177996D01*
X148786Y-176245D01*
X149733Y-173958D01*
Y-171482D01*
X148786Y-169195D01*
X147035Y-167444D01*
X144748Y-166497D01*
D02*
G37*
G36*
X492858Y-169950D02*
X492760D01*
Y-179070D01*
X501880D01*
Y-178972D01*
X501172Y-176330D01*
X499804Y-173960D01*
X497870Y-172026D01*
X495500Y-170658D01*
X492858Y-169950D01*
D02*
G37*
G36*
X490220D02*
X490122D01*
X487480Y-170658D01*
X485110Y-172026D01*
X483176Y-173960D01*
X481808Y-176330D01*
X481100Y-178972D01*
Y-179070D01*
X490220D01*
Y-169950D01*
D02*
G37*
G36*
X6141Y-166370D02*
X4019D01*
X2059Y-167182D01*
X558Y-168682D01*
X-254Y-170643D01*
Y-172765D01*
X558Y-174725D01*
X1601Y-175768D01*
X558Y-176810D01*
X-254Y-178771D01*
Y-180893D01*
X558Y-182854D01*
X962Y-183258D01*
X243Y-184334D01*
X-1428Y-183642D01*
X-3652D01*
X-5705Y-184493D01*
X-7277Y-186065D01*
X-8128Y-188118D01*
Y-190341D01*
X-7277Y-192395D01*
X-5705Y-193967D01*
X-3652Y-194818D01*
X-1428D01*
X625Y-193967D01*
X2197Y-192395D01*
X3048Y-190341D01*
Y-188118D01*
X2197Y-186065D01*
X1722Y-185589D01*
X2441Y-184512D01*
X4019Y-185166D01*
X6141D01*
X8102Y-184354D01*
X9602Y-182854D01*
X10414Y-180893D01*
Y-178771D01*
X9602Y-176810D01*
X8559Y-175768D01*
X9602Y-174725D01*
X10414Y-172765D01*
Y-170643D01*
X9602Y-168682D01*
X8102Y-167182D01*
X6141Y-166370D01*
D02*
G37*
G36*
X501880Y-181610D02*
X492760D01*
Y-190730D01*
X492858D01*
X495500Y-190022D01*
X497870Y-188654D01*
X499804Y-186720D01*
X501172Y-184350D01*
X501880Y-181708D01*
Y-181610D01*
D02*
G37*
G36*
X490220D02*
X481100D01*
Y-181708D01*
X481808Y-184350D01*
X483176Y-186720D01*
X485110Y-188654D01*
X487480Y-190022D01*
X490122Y-190730D01*
X490220D01*
Y-181610D01*
D02*
G37*
G36*
X553810Y-187816D02*
X551335D01*
X549047Y-188764D01*
X547297Y-190514D01*
X546349Y-192801D01*
Y-195277D01*
X547297Y-197564D01*
X549047Y-199315D01*
X551335Y-200262D01*
X553810D01*
X556097Y-199315D01*
X557848Y-197564D01*
X558795Y-195277D01*
Y-192801D01*
X557848Y-190514D01*
X556097Y-188764D01*
X553810Y-187816D01*
D02*
G37*
G36*
X444291Y-211836D02*
X442169D01*
X440209Y-212648D01*
X438708Y-214149D01*
X437896Y-216109D01*
Y-218231D01*
X438708Y-220191D01*
X440209Y-221692D01*
X442169Y-222504D01*
X444291D01*
X446251Y-221692D01*
X447752Y-220191D01*
X448564Y-218231D01*
Y-216109D01*
X447752Y-214149D01*
X446251Y-212648D01*
X444291Y-211836D01*
D02*
G37*
G36*
X548770Y-211210D02*
X526690D01*
Y-233290D01*
X548770D01*
Y-211210D01*
D02*
G37*
G36*
X-82030Y-211115D02*
X-84912Y-211494D01*
X-87598Y-212607D01*
X-89904Y-214376D01*
X-91673Y-216682D01*
X-92786Y-219368D01*
X-93165Y-222250D01*
X-92786Y-225132D01*
X-91673Y-227818D01*
X-89904Y-230124D01*
X-87598Y-231893D01*
X-84912Y-233006D01*
X-82030Y-233385D01*
X-79148Y-233006D01*
X-76462Y-231893D01*
X-74156Y-230124D01*
X-72387Y-227818D01*
X-71274Y-225132D01*
X-70895Y-222250D01*
X-71274Y-219368D01*
X-72387Y-216682D01*
X-74156Y-214376D01*
X-76462Y-212607D01*
X-79148Y-211494D01*
X-82030Y-211115D01*
D02*
G37*
G36*
X357508Y-215520D02*
X354732D01*
X352052Y-216238D01*
X349648Y-217626D01*
X347686Y-219588D01*
X346298Y-221992D01*
X345580Y-224672D01*
Y-227448D01*
X346298Y-230128D01*
X347686Y-232532D01*
X349648Y-234494D01*
X352052Y-235882D01*
X354732Y-236600D01*
X357508D01*
X360188Y-235882D01*
X362592Y-234494D01*
X364554Y-232532D01*
X365942Y-230128D01*
X366660Y-227448D01*
Y-224672D01*
X365942Y-221992D01*
X364554Y-219588D01*
X362592Y-217626D01*
X360188Y-216238D01*
X357508Y-215520D01*
D02*
G37*
G36*
X332108D02*
X329332D01*
X326652Y-216238D01*
X324248Y-217626D01*
X322286Y-219588D01*
X320898Y-221992D01*
X320180Y-224672D01*
Y-227448D01*
X320898Y-230128D01*
X322286Y-232532D01*
X324248Y-234494D01*
X326652Y-235882D01*
X329332Y-236600D01*
X332108D01*
X334788Y-235882D01*
X337192Y-234494D01*
X339154Y-232532D01*
X340542Y-230128D01*
X341260Y-227448D01*
Y-224672D01*
X340542Y-221992D01*
X339154Y-219588D01*
X337192Y-217626D01*
X334788Y-216238D01*
X332108Y-215520D01*
D02*
G37*
G36*
X306708D02*
X303932D01*
X301252Y-216238D01*
X298848Y-217626D01*
X296886Y-219588D01*
X295498Y-221992D01*
X294780Y-224672D01*
Y-227448D01*
X295498Y-230128D01*
X296886Y-232532D01*
X298848Y-234494D01*
X301252Y-235882D01*
X303932Y-236600D01*
X306708D01*
X309388Y-235882D01*
X311792Y-234494D01*
X313754Y-232532D01*
X315142Y-230128D01*
X315860Y-227448D01*
Y-224672D01*
X315142Y-221992D01*
X313754Y-219588D01*
X311792Y-217626D01*
X309388Y-216238D01*
X306708Y-215520D01*
D02*
G37*
G36*
X-80760Y-236682D02*
Y-246380D01*
X-71062D01*
X-71274Y-244768D01*
X-72387Y-242082D01*
X-74156Y-239776D01*
X-76462Y-238007D01*
X-79148Y-236894D01*
X-80760Y-236682D01*
D02*
G37*
G36*
X-83300D02*
X-84912Y-236894D01*
X-87598Y-238007D01*
X-89904Y-239776D01*
X-91673Y-242082D01*
X-92786Y-244768D01*
X-92998Y-246380D01*
X-83300D01*
Y-236682D01*
D02*
G37*
G36*
X539000D02*
Y-246380D01*
X548698D01*
X548486Y-244768D01*
X547373Y-242082D01*
X545604Y-239776D01*
X543298Y-238007D01*
X540612Y-236894D01*
X539000Y-236682D01*
D02*
G37*
G36*
X536460D02*
X534848Y-236894D01*
X532162Y-238007D01*
X529856Y-239776D01*
X528087Y-242082D01*
X526974Y-244768D01*
X526762Y-246380D01*
X536460D01*
Y-236682D01*
D02*
G37*
G36*
X357508Y-240920D02*
X357390D01*
Y-250190D01*
X366660D01*
Y-250072D01*
X365942Y-247392D01*
X364554Y-244988D01*
X362592Y-243026D01*
X360188Y-241638D01*
X357508Y-240920D01*
D02*
G37*
G36*
X354850D02*
X354732D01*
X352052Y-241638D01*
X349648Y-243026D01*
X347686Y-244988D01*
X346298Y-247392D01*
X345580Y-250072D01*
Y-250190D01*
X354850D01*
Y-240920D01*
D02*
G37*
G36*
X72218Y-243610D02*
X72120D01*
Y-252730D01*
X81240D01*
Y-252632D01*
X80532Y-249990D01*
X79164Y-247620D01*
X77230Y-245686D01*
X74860Y-244318D01*
X72218Y-243610D01*
D02*
G37*
G36*
X69580D02*
X69482D01*
X66840Y-244318D01*
X64470Y-245686D01*
X62536Y-247620D01*
X61168Y-249990D01*
X60460Y-252632D01*
Y-252730D01*
X69580D01*
Y-243610D01*
D02*
G37*
G36*
X548698Y-248920D02*
X539000D01*
Y-258618D01*
X540612Y-258406D01*
X543298Y-257293D01*
X545604Y-255524D01*
X547373Y-253218D01*
X548486Y-250532D01*
X548698Y-248920D01*
D02*
G37*
G36*
X-71062Y-248920D02*
X-80760D01*
Y-258618D01*
X-79148Y-258406D01*
X-76462Y-257293D01*
X-74156Y-255524D01*
X-72387Y-253218D01*
X-71274Y-250532D01*
X-71062Y-248920D01*
D02*
G37*
G36*
X-83300D02*
X-92998D01*
X-92786Y-250532D01*
X-91673Y-253218D01*
X-89904Y-255524D01*
X-87598Y-257293D01*
X-84912Y-258406D01*
X-83300Y-258618D01*
Y-248920D01*
D02*
G37*
G36*
X536460Y-248920D02*
X526762D01*
X526974Y-250532D01*
X528087Y-253218D01*
X529856Y-255524D01*
X532162Y-257293D01*
X534848Y-258406D01*
X536460Y-258618D01*
Y-248920D01*
D02*
G37*
G36*
X366660Y-252730D02*
X357390D01*
Y-262000D01*
X357508D01*
X360188Y-261282D01*
X362592Y-259894D01*
X364554Y-257932D01*
X365942Y-255528D01*
X366660Y-252848D01*
Y-252730D01*
D02*
G37*
G36*
X354850D02*
X345580D01*
Y-252848D01*
X346298Y-255528D01*
X347686Y-257932D01*
X349648Y-259894D01*
X352052Y-261282D01*
X354732Y-262000D01*
X354850D01*
Y-252730D01*
D02*
G37*
G36*
X332108Y-240920D02*
X329332D01*
X326652Y-241638D01*
X324248Y-243026D01*
X322286Y-244988D01*
X320898Y-247392D01*
X320180Y-250072D01*
Y-252848D01*
X320898Y-255528D01*
X322286Y-257932D01*
X324248Y-259894D01*
X326652Y-261282D01*
X329332Y-262000D01*
X332108D01*
X334788Y-261282D01*
X337192Y-259894D01*
X339154Y-257932D01*
X340542Y-255528D01*
X341260Y-252848D01*
Y-250072D01*
X340542Y-247392D01*
X339154Y-244988D01*
X337192Y-243026D01*
X334788Y-241638D01*
X332108Y-240920D01*
D02*
G37*
G36*
X315860D02*
X294780D01*
Y-262000D01*
X315860D01*
Y-240920D01*
D02*
G37*
G36*
X111240Y-243610D02*
X90460D01*
Y-264390D01*
X111240D01*
Y-243610D01*
D02*
G37*
G36*
X81240Y-255270D02*
X72120D01*
Y-264390D01*
X72218D01*
X74860Y-263682D01*
X77230Y-262314D01*
X79164Y-260380D01*
X80532Y-258010D01*
X81240Y-255368D01*
Y-255270D01*
D02*
G37*
G36*
X69580D02*
X60460D01*
Y-255368D01*
X61168Y-258010D01*
X62536Y-260380D01*
X64470Y-262314D01*
X66840Y-263682D01*
X69482Y-264390D01*
X69580D01*
Y-255270D01*
D02*
G37*
G36*
X248138Y-254127D02*
X245662D01*
X243375Y-255074D01*
X241624Y-256825D01*
X240677Y-259112D01*
Y-261588D01*
X241624Y-263875D01*
X243375Y-265626D01*
X245662Y-266573D01*
X248138D01*
X250425Y-265626D01*
X252176Y-263875D01*
X253123Y-261588D01*
Y-259112D01*
X252176Y-256825D01*
X250425Y-255074D01*
X248138Y-254127D01*
D02*
G37*
G36*
X152888D02*
X150412D01*
X148125Y-255074D01*
X146374Y-256825D01*
X145427Y-259112D01*
Y-261588D01*
X146374Y-263875D01*
X148125Y-265626D01*
X150412Y-266573D01*
X152888D01*
X155175Y-265626D01*
X156926Y-263875D01*
X157873Y-261588D01*
Y-259112D01*
X156926Y-256825D01*
X155175Y-255074D01*
X152888Y-254127D01*
D02*
G37*
G36*
X-52852Y-266827D02*
X-55328D01*
X-57615Y-267774D01*
X-59366Y-269525D01*
X-60313Y-271812D01*
Y-274288D01*
X-59366Y-276575D01*
X-57615Y-278326D01*
X-55328Y-279273D01*
X-52852D01*
X-50565Y-278326D01*
X-48814Y-276575D01*
X-47867Y-274288D01*
Y-271812D01*
X-48814Y-269525D01*
X-50565Y-267774D01*
X-52852Y-266827D01*
D02*
G37*
G36*
X132020Y-264710D02*
X129680D01*
X127419Y-265316D01*
X125391Y-266486D01*
X123736Y-268141D01*
X122566Y-270169D01*
X121960Y-272430D01*
Y-274770D01*
X122566Y-277031D01*
X123736Y-279059D01*
X125391Y-280714D01*
X127419Y-281884D01*
X129680Y-282490D01*
X132020D01*
X134281Y-281884D01*
X136309Y-280714D01*
X137964Y-279059D01*
X139134Y-277031D01*
X139740Y-274770D01*
Y-272430D01*
X139134Y-270169D01*
X137964Y-268141D01*
X136309Y-266486D01*
X134281Y-265316D01*
X132020Y-264710D01*
D02*
G37*
G36*
X42020D02*
X39680D01*
X37419Y-265316D01*
X35391Y-266486D01*
X33736Y-268141D01*
X32566Y-270169D01*
X31960Y-272430D01*
Y-274770D01*
X32566Y-277031D01*
X33736Y-279059D01*
X35391Y-280714D01*
X37419Y-281884D01*
X39680Y-282490D01*
X42020D01*
X44281Y-281884D01*
X46309Y-280714D01*
X47964Y-279059D01*
X49134Y-277031D01*
X49740Y-274770D01*
Y-272430D01*
X49134Y-270169D01*
X47964Y-268141D01*
X46309Y-266486D01*
X44281Y-265316D01*
X42020Y-264710D01*
D02*
G37*
G36*
X-70990Y-262010D02*
X-93070D01*
Y-284090D01*
X-70990D01*
Y-262010D01*
D02*
G37*
G36*
X537730Y-261915D02*
X534848Y-262294D01*
X532162Y-263407D01*
X529856Y-265176D01*
X528087Y-267482D01*
X526974Y-270168D01*
X526595Y-273050D01*
X526974Y-275932D01*
X528087Y-278618D01*
X529856Y-280924D01*
X532162Y-282693D01*
X534848Y-283806D01*
X537730Y-284185D01*
X540612Y-283806D01*
X543298Y-282693D01*
X545604Y-280924D01*
X547373Y-278618D01*
X548486Y-275932D01*
X548865Y-273050D01*
X548486Y-270168D01*
X547373Y-267482D01*
X545604Y-265176D01*
X543298Y-263407D01*
X540612Y-262294D01*
X537730Y-261915D01*
D02*
G37*
G36*
X248138Y-273177D02*
X245662D01*
X243375Y-274124D01*
X241624Y-275875D01*
X240677Y-278162D01*
Y-280638D01*
X241624Y-282925D01*
X243375Y-284676D01*
X245662Y-285623D01*
X248138D01*
X250425Y-284676D01*
X252176Y-282925D01*
X253123Y-280638D01*
Y-278162D01*
X252176Y-275875D01*
X250425Y-274124D01*
X248138Y-273177D01*
D02*
G37*
G36*
X229088D02*
X226612D01*
X224325Y-274124D01*
X222574Y-275875D01*
X221627Y-278162D01*
Y-280638D01*
X222574Y-282925D01*
X224325Y-284676D01*
X226612Y-285623D01*
X229088D01*
X231375Y-284676D01*
X233126Y-282925D01*
X234073Y-280638D01*
Y-278162D01*
X233126Y-275875D01*
X231375Y-274124D01*
X229088Y-273177D01*
D02*
G37*
G36*
X210038D02*
X207562D01*
X205275Y-274124D01*
X203524Y-275875D01*
X202577Y-278162D01*
Y-280638D01*
X203524Y-282925D01*
X205275Y-284676D01*
X207562Y-285623D01*
X210038D01*
X212325Y-284676D01*
X214076Y-282925D01*
X215023Y-280638D01*
Y-278162D01*
X214076Y-275875D01*
X212325Y-274124D01*
X210038Y-273177D01*
D02*
G37*
G36*
X190988D02*
X188512D01*
X186225Y-274124D01*
X184474Y-275875D01*
X183527Y-278162D01*
Y-280638D01*
X184474Y-282925D01*
X186225Y-284676D01*
X188512Y-285623D01*
X190988D01*
X193275Y-284676D01*
X195026Y-282925D01*
X195973Y-280638D01*
Y-278162D01*
X195026Y-275875D01*
X193275Y-274124D01*
X190988Y-273177D01*
D02*
G37*
G36*
X171938D02*
X169462D01*
X167175Y-274124D01*
X165424Y-275875D01*
X164477Y-278162D01*
Y-280638D01*
X165424Y-282925D01*
X167175Y-284676D01*
X169462Y-285623D01*
X171938D01*
X174225Y-284676D01*
X175976Y-282925D01*
X176923Y-280638D01*
Y-278162D01*
X175976Y-275875D01*
X174225Y-274124D01*
X171938Y-273177D01*
D02*
G37*
G36*
X152888D02*
X150412D01*
X148125Y-274124D01*
X146374Y-275875D01*
X145427Y-278162D01*
Y-280638D01*
X146374Y-282925D01*
X148125Y-284676D01*
X150412Y-285623D01*
X152888D01*
X155175Y-284676D01*
X156926Y-282925D01*
X157873Y-280638D01*
Y-278162D01*
X156926Y-275875D01*
X155175Y-274124D01*
X152888Y-273177D01*
D02*
G37*
%LPD*%
D122*
X-82030Y-222250D02*
D03*
Y-247650D02*
D03*
X537730Y-273050D02*
D03*
Y-247650D02*
D03*
D123*
X-82030Y-273050D02*
D03*
X537730Y-222250D02*
D03*
D124*
X406400Y323850D02*
D03*
X457200D02*
D03*
X406400Y273050D02*
D03*
X457200D02*
D03*
Y76200D02*
D03*
X406400D02*
D03*
X457200Y127000D02*
D03*
X406400D02*
D03*
D125*
X431800Y298450D02*
D03*
Y101600D02*
D03*
D126*
X416560Y958850D02*
D03*
X491490Y-180340D02*
D03*
X70850Y-254000D02*
D03*
X82550Y19050D02*
D03*
D127*
X100850Y-254000D02*
D03*
D128*
X130850Y-273600D02*
D03*
X40850D02*
D03*
D129*
X-88900Y723700D02*
D03*
X520700Y723700D02*
D03*
D130*
X-63500Y723700D02*
D03*
X-88900Y698300D02*
D03*
X-63500D02*
D03*
X-88900Y672900D02*
D03*
X-63500D02*
D03*
X-88900Y647500D02*
D03*
X-63500D02*
D03*
X-88900Y622100D02*
D03*
X-63500D02*
D03*
X-88900Y596700D02*
D03*
X-63500D02*
D03*
X-88900Y571300D02*
D03*
X-63500D02*
D03*
X-88900Y545900D02*
D03*
X-63500D02*
D03*
X-88900Y520500D02*
D03*
X-63500D02*
D03*
X-88900Y495100D02*
D03*
X-63500D02*
D03*
X-88900Y469700D02*
D03*
X-63500D02*
D03*
X-88900Y444300D02*
D03*
X-63500D02*
D03*
X-88900Y418900D02*
D03*
X-63500D02*
D03*
X-88900Y393500D02*
D03*
X-63500D02*
D03*
X-88900Y368100D02*
D03*
X-63500D02*
D03*
X-88900Y342700D02*
D03*
X-63500D02*
D03*
X-88900Y317300D02*
D03*
X-63500D02*
D03*
X-88900Y291900D02*
D03*
X-63500D02*
D03*
X-88900Y266500D02*
D03*
X-63500D02*
D03*
X-88900Y241100D02*
D03*
X-63500D02*
D03*
X-88900Y215700D02*
D03*
X-63500D02*
D03*
X-88900Y190300D02*
D03*
X-63500D02*
D03*
X-88900Y164900D02*
D03*
X-63500D02*
D03*
X-88900Y139500D02*
D03*
X-63500D02*
D03*
X-88900Y114100D02*
D03*
X-63500D02*
D03*
X-88900Y88700D02*
D03*
X-63500D02*
D03*
X-88900Y63300D02*
D03*
X-63500D02*
D03*
X-88900Y37900D02*
D03*
X-63500D02*
D03*
X-88900Y12500D02*
D03*
X-63500D02*
D03*
X-88900Y-12900D02*
D03*
X-63500D02*
D03*
X-88900Y-38300D02*
D03*
X-63500D02*
D03*
X-88900Y-63700D02*
D03*
X-63500D02*
D03*
X-88900Y-89100D02*
D03*
X-63500D02*
D03*
X-88900Y-114500D02*
D03*
X-63500D02*
D03*
X-88900Y-139900D02*
D03*
X-63500D02*
D03*
X546100Y723700D02*
D03*
X520700Y698300D02*
D03*
X546100D02*
D03*
X520700Y672900D02*
D03*
X546100D02*
D03*
X520700Y647500D02*
D03*
X546100D02*
D03*
X520700Y622100D02*
D03*
X546100D02*
D03*
X520700Y596700D02*
D03*
X546100D02*
D03*
X520700Y571300D02*
D03*
X546100D02*
D03*
X520700Y545900D02*
D03*
X546100D02*
D03*
X520700Y520500D02*
D03*
X546100D02*
D03*
X520700Y495100D02*
D03*
X546100D02*
D03*
X520700Y469700D02*
D03*
X546100D02*
D03*
X520700Y444300D02*
D03*
X546100D02*
D03*
X520700Y418900D02*
D03*
X546100D02*
D03*
X520700Y393500D02*
D03*
X546100D02*
D03*
X520700Y368100D02*
D03*
X546100D02*
D03*
X520700Y342700D02*
D03*
X546100D02*
D03*
X520700Y317300D02*
D03*
X546100D02*
D03*
X520700Y291900D02*
D03*
X546100D02*
D03*
X520700Y266500D02*
D03*
X546100D02*
D03*
X520700Y241100D02*
D03*
X546100D02*
D03*
X520700Y215700D02*
D03*
X546100D02*
D03*
X520700Y190300D02*
D03*
X546100D02*
D03*
X520700Y164900D02*
D03*
X546100D02*
D03*
X520700Y139500D02*
D03*
X546100D02*
D03*
X520700Y114100D02*
D03*
X546100D02*
D03*
X520700Y88700D02*
D03*
X546100D02*
D03*
X520700Y63300D02*
D03*
X546100D02*
D03*
X520700Y37900D02*
D03*
X546100D02*
D03*
X520700Y12500D02*
D03*
X546100D02*
D03*
X520700Y-12900D02*
D03*
X546100D02*
D03*
X520700Y-38300D02*
D03*
X546100D02*
D03*
X520700Y-63700D02*
D03*
X546100D02*
D03*
X520700Y-89100D02*
D03*
X546100D02*
D03*
X520700Y-114500D02*
D03*
X546100D02*
D03*
X520700Y-139900D02*
D03*
X546100D02*
D03*
D131*
X421600Y814320D02*
D03*
X34600D02*
D03*
D132*
X356120Y-226060D02*
D03*
Y-251460D02*
D03*
X330720Y-226060D02*
D03*
Y-251460D02*
D03*
X305320Y-226060D02*
D03*
D133*
Y-251460D02*
D03*
D134*
X-12739Y761980D02*
D03*
X0Y0D02*
D03*
X457200D02*
D03*
X469859Y749279D02*
D03*
D135*
X552572Y-194039D02*
D03*
X143510Y-172720D02*
D03*
X-54090Y-273050D02*
D03*
X189750Y-279400D02*
D03*
X170700D02*
D03*
X151650Y-260350D02*
D03*
Y-279400D02*
D03*
X246900D02*
D03*
X227850D02*
D03*
X208800D02*
D03*
X246900Y-260350D02*
D03*
X170700Y-205740D02*
D03*
X226580D02*
D03*
Y-193040D02*
D03*
X170700D02*
D03*
X198640Y-240030D02*
D03*
D136*
X32584Y927100D02*
D03*
X56178Y876078D02*
D03*
X-11430Y919480D02*
D03*
X-22860Y911860D02*
D03*
X13970Y927100D02*
D03*
X-62230Y924560D02*
D03*
X1270Y961390D02*
D03*
X56400Y901700D02*
D03*
X5600Y927100D02*
D03*
X-99314D02*
D03*
X-70976Y927476D02*
D03*
X31000Y876300D02*
D03*
X283210Y95250D02*
D03*
X397251Y858111D02*
D03*
X412000Y774700D02*
D03*
X513600D02*
D03*
X516140Y749300D02*
D03*
X61430Y-33325D02*
D03*
X68805Y32795D02*
D03*
X50800Y698500D02*
D03*
X25698Y-37353D02*
D03*
X33528Y-43180D02*
D03*
X506521Y974840D02*
D03*
X481121D02*
D03*
X262795Y954232D02*
D03*
X333074Y-115184D02*
D03*
X422448Y-76454D02*
D03*
X397972D02*
D03*
X381254Y-120142D02*
D03*
X322580Y-60198D02*
D03*
X273050Y-69850D02*
D03*
X139700Y355600D02*
D03*
X127000Y317500D02*
D03*
X95250Y508000D02*
D03*
X76200D02*
D03*
X539000Y1003300D02*
D03*
Y977900D02*
D03*
Y952500D02*
D03*
Y927100D02*
D03*
Y901700D02*
D03*
Y876300D02*
D03*
Y774700D02*
D03*
Y749300D02*
D03*
Y-165100D02*
D03*
X513600Y1003300D02*
D03*
Y977900D02*
D03*
Y876300D02*
D03*
Y800100D02*
D03*
Y-165100D02*
D03*
Y-190500D02*
D03*
X488200Y1003300D02*
D03*
Y977900D02*
D03*
Y876300D02*
D03*
Y825500D02*
D03*
Y698500D02*
D03*
Y673100D02*
D03*
Y647700D02*
D03*
Y622300D02*
D03*
Y596900D02*
D03*
Y571500D02*
D03*
Y546100D02*
D03*
Y520700D02*
D03*
Y495300D02*
D03*
Y469900D02*
D03*
Y444500D02*
D03*
Y419100D02*
D03*
Y393700D02*
D03*
Y368300D02*
D03*
X462800Y1003300D02*
D03*
Y977900D02*
D03*
Y952500D02*
D03*
Y927100D02*
D03*
Y876300D02*
D03*
Y825500D02*
D03*
Y698500D02*
D03*
Y-63500D02*
D03*
Y-88900D02*
D03*
Y-114300D02*
D03*
Y-139700D02*
D03*
Y-165100D02*
D03*
X437400Y1003300D02*
D03*
Y977900D02*
D03*
Y952500D02*
D03*
Y927100D02*
D03*
Y876300D02*
D03*
Y342900D02*
D03*
Y63500D02*
D03*
X412000Y1003300D02*
D03*
Y977900D02*
D03*
Y927100D02*
D03*
Y876300D02*
D03*
Y38100D02*
D03*
X386600Y1003300D02*
D03*
Y977900D02*
D03*
Y952500D02*
D03*
Y927100D02*
D03*
Y139700D02*
D03*
Y114300D02*
D03*
Y88900D02*
D03*
Y63500D02*
D03*
Y38100D02*
D03*
X361200Y1003300D02*
D03*
Y977900D02*
D03*
Y952500D02*
D03*
Y927100D02*
D03*
Y114300D02*
D03*
Y88900D02*
D03*
Y38100D02*
D03*
X335800Y114300D02*
D03*
Y88900D02*
D03*
Y-190500D02*
D03*
X310400Y114300D02*
D03*
Y88900D02*
D03*
X285000Y469900D02*
D03*
Y444500D02*
D03*
Y419100D02*
D03*
Y-190500D02*
D03*
Y-215900D02*
D03*
X259600Y165100D02*
D03*
Y139700D02*
D03*
Y114300D02*
D03*
Y88900D02*
D03*
Y-190500D02*
D03*
Y-215900D02*
D03*
X132600Y1003300D02*
D03*
Y977900D02*
D03*
Y952500D02*
D03*
Y927100D02*
D03*
Y901700D02*
D03*
Y876300D02*
D03*
Y850900D02*
D03*
Y825500D02*
D03*
Y800100D02*
D03*
Y774700D02*
D03*
Y673100D02*
D03*
Y-215900D02*
D03*
X107200Y1003300D02*
D03*
Y977900D02*
D03*
Y952500D02*
D03*
Y927100D02*
D03*
Y901700D02*
D03*
Y876300D02*
D03*
X81800Y1003300D02*
D03*
X56400Y342900D02*
D03*
X31000Y241300D02*
D03*
Y88900D02*
D03*
X5600Y1003300D02*
D03*
X-19800D02*
D03*
Y977900D02*
D03*
X-45200Y1003300D02*
D03*
Y977900D02*
D03*
Y368300D02*
D03*
Y342900D02*
D03*
X-70600Y1003300D02*
D03*
Y850900D02*
D03*
Y800100D02*
D03*
Y774700D02*
D03*
Y749300D02*
D03*
Y-190500D02*
D03*
X-96000Y1003300D02*
D03*
Y-190500D02*
D03*
Y-215900D02*
D03*
X379730Y193040D02*
D03*
X372110Y198120D02*
D03*
X400050Y163830D02*
D03*
X387350D02*
D03*
X443230Y193040D02*
D03*
Y181610D02*
D03*
X440690Y170180D02*
D03*
X444500Y243840D02*
D03*
X379730Y234950D02*
D03*
X325120Y854710D02*
D03*
X345440D02*
D03*
X234950Y802640D02*
D03*
X175260Y843280D02*
D03*
X199390Y923290D02*
D03*
X228600Y843280D02*
D03*
X207010Y834390D02*
D03*
X228600Y871220D02*
D03*
X204470Y892810D02*
D03*
X234950Y923290D02*
D03*
X222250D02*
D03*
X259080Y906780D02*
D03*
Y919480D02*
D03*
X205893Y967345D02*
D03*
X22860Y648970D02*
D03*
X406400Y-215900D02*
D03*
X292100Y-279400D02*
D03*
X355600D02*
D03*
X419100D02*
D03*
X482600D02*
D03*
X558800D02*
D03*
X-101600D02*
D03*
X0Y-266700D02*
D03*
X-49530Y127000D02*
D03*
Y151130D02*
D03*
X-49432Y189533D02*
D03*
X-49530Y234950D02*
D03*
X-41910Y247650D02*
D03*
X19050Y292100D02*
D03*
X57150Y330200D02*
D03*
X63500Y406400D02*
D03*
X330200Y546100D02*
D03*
Y584200D02*
D03*
X444500Y431800D02*
D03*
Y469900D02*
D03*
Y508000D02*
D03*
Y546100D02*
D03*
Y584200D02*
D03*
Y622300D02*
D03*
Y660400D02*
D03*
X222250Y63500D02*
D03*
Y101600D02*
D03*
Y139700D02*
D03*
X361950Y336550D02*
D03*
X317500D02*
D03*
X273050D02*
D03*
X203200D02*
D03*
Y228600D02*
D03*
Y374650D02*
D03*
Y298450D02*
D03*
X69850Y711200D02*
D03*
X88900Y723900D02*
D03*
X112776Y767588D02*
D03*
X6289Y261681D02*
D03*
X147259Y402651D02*
D03*
X-42608Y176340D02*
D03*
X137801Y749167D02*
D03*
X128016Y757301D02*
D03*
X-19050Y666750D02*
D03*
Y679450D02*
D03*
X-21590Y77470D02*
D03*
X161036Y655320D02*
D03*
X397510Y848868D02*
D03*
X-6350Y186690D02*
D03*
X210820Y179070D02*
D03*
X205740Y495300D02*
D03*
X255270Y980440D02*
D03*
X234603Y969933D02*
D03*
X-6350Y666750D02*
D03*
Y679450D02*
D03*
X-8890Y610870D02*
D03*
X-16764Y602617D02*
D03*
X76200Y-20320D02*
D03*
X41656Y-50800D02*
D03*
X415798Y230886D02*
D03*
X-114300Y902970D02*
D03*
X260350Y-171450D02*
D03*
X149860Y-22860D02*
D03*
X328930Y750570D02*
D03*
X330200Y680720D02*
D03*
X349250Y668020D02*
D03*
X350520Y737870D02*
D03*
X265430Y614680D02*
D03*
X327660Y499110D02*
D03*
X274320Y488950D02*
D03*
X174752Y774700D02*
D03*
Y704850D02*
D03*
X170180Y678180D02*
D03*
X200914Y482600D02*
D03*
X122780Y213770D02*
D03*
X73660Y147320D02*
D03*
X74176Y158361D02*
D03*
X13970Y276860D02*
D03*
X163830Y-134620D02*
D03*
Y-110490D02*
D03*
X157734Y12700D02*
D03*
Y25400D02*
D03*
X133350D02*
D03*
Y12700D02*
D03*
X107950Y25400D02*
D03*
X120650D02*
D03*
Y12700D02*
D03*
X107950D02*
D03*
X54610Y-134620D02*
D03*
X146050Y25400D02*
D03*
Y12700D02*
D03*
X133350Y99060D02*
D03*
X57150Y119380D02*
D03*
X45720Y-109220D02*
D03*
X323100Y-31750D02*
D03*
X310400D02*
D03*
X297700D02*
D03*
X212090Y-99060D02*
D03*
X184150Y-54610D02*
D03*
X443230Y-217170D02*
D03*
X122492Y253428D02*
D03*
X73660Y205740D02*
D03*
Y217170D02*
D03*
X-24384Y595630D02*
D03*
X-17780Y351790D02*
D03*
X-24384Y361950D02*
D03*
X-10160Y343779D02*
D03*
X-29210Y-259080D02*
D03*
X22860Y-200660D02*
D03*
X11430Y-153670D02*
D03*
X-13970D02*
D03*
X-38100D02*
D03*
X196850Y-168910D02*
D03*
X524206Y-208006D02*
D03*
X455930Y-191770D02*
D03*
X422910Y-160020D02*
D03*
X421640Y-63500D02*
D03*
X240030Y-101600D02*
D03*
X284480Y-102870D02*
D03*
X302260Y-95250D02*
D03*
X81280Y-69850D02*
D03*
X114300Y-90170D02*
D03*
X101600Y-69850D02*
D03*
Y-109220D02*
D03*
X15240Y-102870D02*
D03*
X-16510Y-120650D02*
D03*
X149860Y147320D02*
D03*
Y125730D02*
D03*
X74930Y88900D02*
D03*
X228600Y396240D02*
D03*
Y421640D02*
D03*
Y441960D02*
D03*
Y462280D02*
D03*
Y482600D02*
D03*
Y533400D02*
D03*
Y502920D02*
D03*
X227330Y736600D02*
D03*
X213360Y810260D02*
D03*
X227330Y685800D02*
D03*
X147320Y594360D02*
D03*
Y574040D02*
D03*
Y553720D02*
D03*
Y563880D02*
D03*
Y584200D02*
D03*
Y604520D02*
D03*
X290830Y693420D02*
D03*
Y762000D02*
D03*
X350520Y703580D02*
D03*
X308610D02*
D03*
Y773430D02*
D03*
X350520D02*
D03*
X271780Y692150D02*
D03*
X245110Y966470D02*
D03*
X308610Y822960D02*
D03*
X146050Y918210D02*
D03*
X139700Y941070D02*
D03*
X194310Y852170D02*
D03*
X327660Y919480D02*
D03*
Y944880D02*
D03*
X299720Y982980D02*
D03*
X313690Y969010D02*
D03*
X255270Y1016000D02*
D03*
X194310D02*
D03*
X149860Y984250D02*
D03*
X51170Y932180D02*
D03*
Y958850D02*
D03*
X-105226Y888817D02*
D03*
X481330Y899239D02*
D03*
X506730Y899160D02*
D03*
X-53340Y203200D02*
D03*
X257810Y-91440D02*
D03*
X1270Y-125730D02*
D03*
X271780Y762000D02*
D03*
X262890Y852170D02*
D03*
X242570D02*
D03*
X169672Y725170D02*
D03*
X169926Y761746D02*
D03*
X156210Y772160D02*
D03*
X344424Y-150114D02*
D03*
X333580Y-157734D02*
D03*
X5080Y-179832D02*
D03*
Y-171704D02*
D03*
X252904Y878840D02*
D03*
X204470Y819150D02*
D03*
X305816Y841502D02*
D03*
X415036Y19304D02*
D03*
X283210Y80010D02*
D03*
X50800Y-57658D02*
D03*
X-15580Y-92902D02*
D03*
X485394Y-141224D02*
D03*
X-42164Y226822D02*
D03*
X160020Y885190D02*
D03*
X290830Y899327D02*
D03*
X300990D02*
D03*
X311150D02*
D03*
X321310D02*
D03*
X214630Y852170D02*
D03*
X265430Y969010D02*
D03*
X280670Y982980D02*
D03*
X269240Y991870D02*
D03*
X149860Y963930D02*
D03*
X379790Y207070D02*
D03*
X361950Y204470D02*
D03*
X271840Y80070D02*
D03*
X360680Y139700D02*
D03*
X337820D02*
D03*
X311150Y210820D02*
D03*
X284734Y233426D02*
D03*
X314960Y262890D02*
D03*
X316230Y292100D02*
D03*
X426720Y228600D02*
D03*
X433070Y215900D02*
D03*
X373380Y273050D02*
D03*
X346710Y284480D02*
D03*
X454660Y189230D02*
D03*
X469900Y209550D02*
D03*
Y234950D02*
D03*
X455930D02*
D03*
Y209550D02*
D03*
X416560Y-111760D02*
D03*
X422910Y-134620D02*
D03*
Y-88900D02*
D03*
X260350Y-69850D02*
D03*
X273050Y-57150D02*
D03*
X260350D02*
D03*
X96520Y402590D02*
D03*
Y415290D02*
D03*
X331470Y619760D02*
D03*
X318770Y632460D02*
D03*
X331470D02*
D03*
X344170D02*
D03*
Y619760D02*
D03*
X356870D02*
D03*
Y632460D02*
D03*
X369570Y619760D02*
D03*
Y632460D02*
D03*
X109220Y415290D02*
D03*
X121920D02*
D03*
Y402590D02*
D03*
X109220D02*
D03*
X134620D02*
D03*
Y415290D02*
D03*
X147320D02*
D03*
X66040Y-109220D02*
D03*
X78740Y-90170D02*
D03*
X54610D02*
D03*
X380385Y907802D02*
D03*
X367685D02*
D03*
X354850Y908050D02*
D03*
X342150D02*
D03*
X328180Y48260D02*
D03*
X405650Y431800D02*
D03*
Y444500D02*
D03*
Y469900D02*
D03*
Y457200D02*
D03*
Y482600D02*
D03*
Y495300D02*
D03*
Y520700D02*
D03*
Y508000D02*
D03*
X418350Y431800D02*
D03*
Y444500D02*
D03*
Y469900D02*
D03*
Y457200D02*
D03*
Y508000D02*
D03*
Y520700D02*
D03*
Y495300D02*
D03*
Y482600D02*
D03*
X62750Y596900D02*
D03*
Y609600D02*
D03*
Y584200D02*
D03*
Y571500D02*
D03*
X100850Y622300D02*
D03*
X88150D02*
D03*
X62750D02*
D03*
X75450D02*
D03*
X-7100Y807720D02*
D03*
X-19800D02*
D03*
X-7100Y819150D02*
D03*
X-19800D02*
D03*
X-7100Y831850D02*
D03*
X-19800D02*
D03*
X-7100Y844550D02*
D03*
X-19800D02*
D03*
D137*
X417500Y202350D02*
D03*
Y191350D02*
D03*
X406500Y202350D02*
D03*
Y191350D02*
D03*
D138*
X169926Y276860D02*
D03*
X161290Y261620D02*
D03*
X129540D02*
D03*
Y276860D02*
D03*
X17780Y102870D02*
D03*
X73660Y172720D02*
D03*
X92710Y106680D02*
D03*
X-2540Y-189230D02*
D03*
X143510Y-137160D02*
D03*
X208280Y-6350D02*
D03*
X316230Y44450D02*
D03*
X52070Y52070D02*
D03*
X-5080Y163830D02*
D03*
X370052Y244385D02*
D03*
X471170Y189230D02*
D03*
M02*
