G04*
G04 #@! TF.GenerationSoftware,Altium Limited,DefaultClient, ()*
G04*
G04 Layer_Physical_Order=6*
G04 Layer_Color=16711680*
%FSLAX44Y44*%
%MOMM*%
G71*
G04*
G04 #@! TF.SameCoordinates,8DA877EA-5960-4089-89AF-F9EF2ED2926F*
G04*
G04*
G04 #@! TF.FilePolarity,Positive*
G04*
G01*
G75*
%ADD22R,1.0500X1.0500*%
%ADD31R,1.0000X0.8000*%
%ADD33R,0.8000X1.0000*%
%ADD34R,1.0500X0.9000*%
%ADD35R,1.5000X1.4500*%
%ADD38R,0.9000X1.0500*%
%ADD39R,0.6500X1.1500*%
%ADD40R,0.6500X1.2000*%
%ADD41R,1.2000X1.5000*%
%ADD44R,1.0500X1.0500*%
%ADD50R,1.1500X2.8000*%
%ADD51R,1.1500X0.6500*%
%ADD52R,1.2000X0.6500*%
%ADD53R,1.4500X1.5000*%
%ADD114C,0.2540*%
%ADD115C,0.3429*%
%ADD118C,0.6000*%
%ADD119C,0.3810*%
%ADD122O,1.7000X1.7000*%
%ADD123R,1.7000X1.7000*%
%ADD124C,2.4500*%
%ADD125R,2.3000X2.3000*%
%ADD126C,1.5700*%
%ADD127R,1.5700X1.5700*%
%ADD128C,1.2700*%
%ADD129R,1.4210X1.4210*%
%ADD130C,1.4210*%
%ADD131C,4.6000*%
%ADD132C,1.6000*%
%ADD133R,1.6000X1.6000*%
%ADD134C,5.8420*%
%ADD135C,0.7366*%
%ADD136C,0.5588*%
%ADD137C,0.5080*%
%ADD138C,0.6096*%
%ADD139R,2.5000X1.7000*%
%ADD140R,1.8052X0.6121*%
G04:AMPARAMS|DCode=141|XSize=1.8052mm|YSize=0.6121mm|CornerRadius=0.3061mm|HoleSize=0mm|Usage=FLASHONLY|Rotation=0.000|XOffset=0mm|YOffset=0mm|HoleType=Round|Shape=RoundedRectangle|*
%AMROUNDEDRECTD141*
21,1,1.8052,0.0000,0,0,0.0*
21,1,1.1931,0.6121,0,0,0.0*
1,1,0.6121,0.5966,0.0000*
1,1,0.6121,-0.5966,0.0000*
1,1,0.6121,-0.5966,0.0000*
1,1,0.6121,0.5966,0.0000*
%
%ADD141ROUNDEDRECTD141*%
%ADD142R,2.8000X1.1500*%
%ADD143R,3.0000X5.0000*%
%ADD144O,1.6500X0.6500*%
G36*
X574510Y814237D02*
X569430Y812133D01*
X515791Y865772D01*
X514001Y867146D01*
X511915Y868010D01*
X510796Y868157D01*
X509677Y868304D01*
X509677Y868304D01*
X401631D01*
X400575Y869615D01*
X399373Y873231D01*
X416188Y890046D01*
X500205D01*
X501196Y890243D01*
X502037Y890804D01*
X506329Y895096D01*
X507538D01*
X509032Y895715D01*
X510175Y896858D01*
X510794Y898352D01*
Y899968D01*
X510175Y901462D01*
X509032Y902605D01*
X507538Y903224D01*
X505922D01*
X504428Y902605D01*
X503285Y901462D01*
X502666Y899968D01*
Y898758D01*
X499133Y895225D01*
X489565D01*
X485394Y898431D01*
X485394Y900048D01*
X485394Y900048D01*
X484775Y901542D01*
X484775Y901542D01*
X483632Y902684D01*
X483632Y902685D01*
X482138Y903303D01*
X482138Y903303D01*
X482012Y903303D01*
X482012Y903303D01*
X481663Y903303D01*
X480522D01*
X480522Y903303D01*
X480082Y903121D01*
X479028Y902685D01*
X479028D01*
X478172Y901829D01*
X414423D01*
X413432Y901632D01*
X412592Y901071D01*
X375279Y863758D01*
X374718Y862918D01*
X374521Y861927D01*
X374521Y762403D01*
X374718Y761412D01*
X375279Y760572D01*
X464770Y671081D01*
Y402393D01*
X431155Y368777D01*
X426075Y370881D01*
Y638810D01*
X425672Y639782D01*
X424700Y640185D01*
X380250D01*
X379432Y641052D01*
X378460Y641455D01*
X299720D01*
X298748Y641052D01*
X298345Y640080D01*
Y627900D01*
X298345Y627900D01*
X298748Y626928D01*
X298748Y626928D01*
X298865Y626811D01*
Y557635D01*
Y556260D01*
X298865Y556260D01*
X299268Y555288D01*
X299268Y555288D01*
X303148Y551408D01*
X303401Y551303D01*
X303594Y551110D01*
X303867D01*
X304120Y551005D01*
X304245Y551057D01*
X304644Y550838D01*
X305079Y550404D01*
X305297Y550005D01*
X305245Y549880D01*
X305350Y549627D01*
Y549354D01*
X305543Y549161D01*
X305648Y548908D01*
X306888Y547668D01*
X307860Y547265D01*
X309025Y546771D01*
Y544830D01*
X304920D01*
Y537040D01*
Y529250D01*
X311440D01*
Y529250D01*
X316430Y529032D01*
X317680Y528433D01*
X317682Y528320D01*
X317915D01*
X317915Y528320D01*
Y523670D01*
X317618D01*
X313177Y522400D01*
X309080D01*
Y516320D01*
X301680D01*
Y519500D01*
X288640D01*
Y516320D01*
X280090D01*
Y519500D01*
X278003D01*
X276619Y524580D01*
X276670Y524631D01*
Y524631D01*
X277227Y525977D01*
X277320Y526201D01*
Y526201D01*
Y527899D01*
X276670Y529469D01*
X275469Y530670D01*
X273899Y531320D01*
X272201D01*
X270631Y530670D01*
X269430Y529469D01*
X268780Y527899D01*
Y526201D01*
X269430Y524631D01*
X269481Y524580D01*
X268097Y519500D01*
X267050D01*
Y511324D01*
X265780Y506770D01*
X265780Y503406D01*
Y501000D01*
X281360D01*
Y503406D01*
X281360Y506770D01*
X281606Y507398D01*
X287549Y508639D01*
X288640Y507548D01*
X288640Y502880D01*
Y493960D01*
X301680D01*
Y497140D01*
X307053D01*
X309080Y492900D01*
Y492810D01*
X307860Y487730D01*
X306869Y487533D01*
X306029Y486971D01*
X301069Y482011D01*
X300507Y481171D01*
X300310Y480180D01*
Y468550D01*
X297630D01*
Y456010D01*
X300190D01*
Y449650D01*
X296510D01*
Y439730D01*
X296510Y439110D01*
Y434650D01*
X296510Y434030D01*
Y424110D01*
X300190D01*
Y406400D01*
X300387Y405409D01*
X300949Y404569D01*
X306029Y399489D01*
X306869Y398927D01*
X307084Y398885D01*
X306583Y393805D01*
X240135D01*
X239882Y393700D01*
X239609D01*
X239415Y393507D01*
X239163Y393402D01*
X239058Y393149D01*
X238865Y392956D01*
X238760Y392704D01*
Y392430D01*
X189335D01*
Y396586D01*
X189335Y456450D01*
X188932Y457422D01*
X180492Y465862D01*
X180239Y465967D01*
X180046Y466160D01*
X179773D01*
X179520Y466265D01*
X179395Y466213D01*
X178996Y466431D01*
X178561Y466866D01*
X178343Y467265D01*
X178395Y467390D01*
X178290Y467643D01*
Y467916D01*
X178097Y468109D01*
X177992Y468362D01*
X177894Y468460D01*
D01*
X174615Y471739D01*
Y473540D01*
X179990D01*
Y481330D01*
Y489120D01*
X174615D01*
Y491490D01*
X174212Y492462D01*
X173240Y492865D01*
X170771D01*
X169480Y497410D01*
X169480Y497945D01*
Y503490D01*
X178150D01*
Y500310D01*
X191190D01*
Y500310D01*
X196270Y502169D01*
X198470Y500310D01*
X198470D01*
X201652Y496140D01*
X201655D01*
X201676Y496108D01*
D01*
Y494492D01*
X202295Y492998D01*
X203438Y491855D01*
X204932Y491236D01*
X206548D01*
X208042Y491855D01*
X209185Y492998D01*
X209804Y494492D01*
Y496108D01*
D01*
X211510Y500310D01*
X211510D01*
Y508486D01*
X212780Y513040D01*
Y513080D01*
X212780D01*
Y516404D01*
Y518810D01*
X204990D01*
X197200D01*
Y513080D01*
X194604D01*
X193475Y511956D01*
X191552Y511899D01*
X191190Y512262D01*
X191190Y516930D01*
Y525850D01*
X178150D01*
Y522670D01*
X171507D01*
X169480Y526910D01*
Y527000D01*
X170700Y532080D01*
X171691Y532277D01*
X172531Y532839D01*
X177491Y537799D01*
X178053Y538639D01*
X178250Y539630D01*
Y551260D01*
X180930D01*
Y563800D01*
X178370D01*
Y571430D01*
X182050D01*
Y581350D01*
X182050Y581970D01*
Y586430D01*
X182050Y587050D01*
Y596970D01*
X178370D01*
Y613410D01*
X178173Y614401D01*
X177611Y615241D01*
X172531Y620321D01*
X171691Y620883D01*
X170700Y621080D01*
X105261D01*
Y655752D01*
X110341Y657328D01*
X110726Y656826D01*
X131046Y636506D01*
X132837Y635132D01*
X134922Y634268D01*
X137160Y633974D01*
X137160Y633974D01*
X208534D01*
X208534Y633974D01*
X209653Y634121D01*
X210772Y634268D01*
X212857Y635132D01*
X214648Y636506D01*
X241971Y663829D01*
X242818Y664030D01*
X247841Y663491D01*
X249336Y662492D01*
X251100Y662141D01*
X261100D01*
X262864Y662492D01*
X264092Y663313D01*
X284830D01*
Y659830D01*
X297870D01*
Y663113D01*
X314180D01*
Y661530D01*
X344720D01*
Y661530D01*
X348442Y663956D01*
X350058D01*
X351552Y664575D01*
X352695Y665718D01*
X353314Y667212D01*
Y668828D01*
X352695Y670322D01*
X351552Y671465D01*
X350058Y672084D01*
X348442D01*
X344720Y675570D01*
Y675570D01*
X337546D01*
X337308Y675744D01*
X334264Y679912D01*
Y681528D01*
X333645Y683022D01*
X332502Y684165D01*
X331008Y684784D01*
X329392D01*
X327898Y684165D01*
X326755Y683022D01*
X326136Y681528D01*
Y679912D01*
X323092Y675744D01*
X322854Y675570D01*
X314180D01*
Y669587D01*
X303196D01*
X299140Y672060D01*
Y678580D01*
X291350D01*
X283560D01*
Y672060D01*
X279421Y669787D01*
X265584D01*
X265242Y670148D01*
X264026Y672217D01*
X263665Y674614D01*
X263956Y675922D01*
X264359Y676191D01*
X265358Y677686D01*
X265709Y679450D01*
X269265Y683280D01*
X269688Y683503D01*
X271780D01*
X274018Y683798D01*
X276103Y684662D01*
X277894Y686036D01*
X278480Y686800D01*
X282869Y685859D01*
X283560Y685481D01*
Y681120D01*
X290080D01*
Y687640D01*
X284689D01*
X283749Y688109D01*
X280325Y691380D01*
X280427Y692150D01*
X280132Y694388D01*
X279268Y696473D01*
X277894Y698264D01*
X276103Y699638D01*
X274018Y700502D01*
X271780Y700797D01*
X269688D01*
X269265Y701020D01*
X265709Y704850D01*
X265358Y706614D01*
X264359Y708109D01*
X263903Y708413D01*
X263588Y709173D01*
X262214Y710964D01*
X260423Y712338D01*
X258338Y713202D01*
X256100Y713496D01*
X241786D01*
X240447Y717118D01*
X240317Y718483D01*
X241064Y719056D01*
X244874Y722866D01*
X246248Y724657D01*
X247112Y726742D01*
X247273Y727967D01*
X247352Y728135D01*
X251100Y731991D01*
X261100D01*
X262864Y732342D01*
X264092Y733163D01*
X284830D01*
Y729680D01*
X297870D01*
Y732963D01*
X314180D01*
Y731380D01*
X344720D01*
X344720Y731380D01*
X349712Y733806D01*
X351328D01*
X352822Y734425D01*
X353965Y735568D01*
X354584Y737062D01*
Y738678D01*
X353965Y740172D01*
X352822Y741315D01*
X351328Y741934D01*
X349712D01*
X345642Y743989D01*
X344720Y744946D01*
Y745420D01*
X336276D01*
X336038Y745594D01*
X332994Y749762D01*
Y751378D01*
X332375Y752872D01*
X331232Y754015D01*
X329738Y754634D01*
X328122D01*
X326628Y754015D01*
X325485Y752872D01*
X324866Y751378D01*
Y749762D01*
X321822Y745594D01*
X321584Y745420D01*
X314180D01*
Y739437D01*
X303196D01*
X299140Y741910D01*
Y748430D01*
X291350D01*
X283560D01*
Y741910D01*
X279421Y739637D01*
X265584D01*
X265242Y739998D01*
X264026Y742067D01*
X263665Y744464D01*
X263956Y745772D01*
X264359Y746041D01*
X265358Y747536D01*
X265709Y749300D01*
X269265Y753130D01*
X269688Y753354D01*
X271780D01*
X274018Y753648D01*
X276103Y754512D01*
X277894Y755886D01*
X278480Y756650D01*
X282869Y755709D01*
X283560Y755331D01*
Y750970D01*
X290080D01*
Y757490D01*
X284689D01*
X283749Y757959D01*
X280325Y761230D01*
X280427Y762000D01*
X280132Y764238D01*
X279268Y766323D01*
X277894Y768114D01*
X276103Y769488D01*
X274018Y770352D01*
X271780Y770647D01*
X269688D01*
X269265Y770870D01*
X265709Y774700D01*
X265358Y776464D01*
X264359Y777959D01*
X263903Y778263D01*
X263588Y779023D01*
X262214Y780814D01*
X260423Y782188D01*
X258338Y783052D01*
X256100Y783346D01*
X254681D01*
X245784Y792244D01*
X243993Y793618D01*
X241908Y794482D01*
X240789Y794629D01*
X239670Y794777D01*
X239670Y794777D01*
X170180D01*
X167942Y794482D01*
X165857Y793618D01*
X164066Y792244D01*
X164066Y792244D01*
X150096Y778274D01*
X148722Y776483D01*
X147858Y774398D01*
X147563Y772160D01*
X147858Y769922D01*
X148722Y767837D01*
X150096Y766046D01*
X151887Y764672D01*
X153972Y763808D01*
X155894Y763555D01*
X156456Y762773D01*
X156419Y762544D01*
X152176Y757692D01*
X138720D01*
X137801Y757813D01*
X136460Y758843D01*
X136368Y759539D01*
X135504Y761624D01*
X134130Y763415D01*
X132339Y764789D01*
X130254Y765653D01*
X128016Y765947D01*
X125192Y765762D01*
X124328Y767847D01*
X122954Y769638D01*
X118890Y773702D01*
X117099Y775076D01*
X115014Y775940D01*
X112776Y776235D01*
X110538Y775940D01*
X108453Y775076D01*
X106662Y773702D01*
X105288Y771911D01*
X104424Y769826D01*
X104129Y767588D01*
X104424Y765350D01*
X105288Y763265D01*
X106662Y761474D01*
X108194Y759942D01*
Y693884D01*
X103886Y690985D01*
X103113Y690985D01*
X32126D01*
X30022Y696065D01*
X84381Y750424D01*
X84943Y751264D01*
X85140Y752255D01*
Y866448D01*
X84943Y867439D01*
X84381Y868279D01*
X23729Y928931D01*
X22889Y929493D01*
X21898Y929690D01*
X17128D01*
X16272Y930545D01*
X14778Y931164D01*
X13162D01*
X11668Y930545D01*
X10525Y929402D01*
X9906Y927908D01*
X9906Y926292D01*
X6663Y922131D01*
X6575Y922070D01*
X-8272D01*
X-9128Y922925D01*
X-10622Y923544D01*
X-12238D01*
X-13732Y922925D01*
X-14875Y921782D01*
X-15494Y920288D01*
Y918672D01*
X-16067Y917937D01*
X-20558Y915305D01*
X-22052Y915924D01*
X-22052Y915924D01*
X-23668D01*
X-25162Y915305D01*
X-26305Y914162D01*
X-26305Y914162D01*
X-26924Y912668D01*
Y911052D01*
X-26305Y909558D01*
X-25162Y908415D01*
X-23668Y907796D01*
X-22052D01*
X-20558Y908415D01*
X-19702Y909270D01*
X7817D01*
X67260Y849827D01*
Y833942D01*
X62180Y832509D01*
X61396Y833789D01*
X58021Y837741D01*
X54069Y841116D01*
X49637Y843832D01*
X44835Y845821D01*
X39781Y847034D01*
X34600Y847442D01*
X29418Y847034D01*
X24365Y845821D01*
X21549Y844655D01*
X-3036D01*
X-3036Y845358D01*
X-3036Y845358D01*
X-3655Y846852D01*
X-3655Y846852D01*
X-4462Y847659D01*
X-4798Y847995D01*
X-4798D01*
X-6292Y848614D01*
X-6292Y848614D01*
X-7908D01*
X-9402Y847995D01*
X-9402D01*
X-10545Y846852D01*
X-10545Y846852D01*
X-10910Y845972D01*
X-13431Y845651D01*
X-13469D01*
X-15990Y845972D01*
X-16355Y846852D01*
X-16355Y846852D01*
X-17162Y847659D01*
X-17498Y847995D01*
X-17498D01*
X-18992Y848614D01*
X-20608D01*
X-20608Y848614D01*
X-21048Y848432D01*
X-22102Y847995D01*
X-23245Y846852D01*
X-23245Y846852D01*
X-23864Y845358D01*
X-23864Y845358D01*
X-23864Y845232D01*
Y843742D01*
X-23864Y843742D01*
X-23682Y843302D01*
X-23245Y842248D01*
X-22102Y841105D01*
X-21222Y840740D01*
X-20901Y838219D01*
Y838181D01*
X-21222Y835660D01*
X-22102Y835295D01*
X-22102Y835295D01*
X-22909Y834489D01*
X-23245Y834152D01*
Y834152D01*
X-23864Y832658D01*
Y831042D01*
X-23864Y831042D01*
X-23682Y830602D01*
X-23245Y829548D01*
Y829548D01*
X-22102Y828405D01*
X-22102Y828405D01*
X-21222Y828040D01*
X-20901Y825519D01*
Y825481D01*
X-21222Y822960D01*
X-22102Y822595D01*
X-22102Y822595D01*
X-23245Y821452D01*
X-23864Y819958D01*
Y818342D01*
X-23864Y818342D01*
X-23682Y817902D01*
X-23245Y816848D01*
X-22780Y816383D01*
X-22397Y813435D01*
X-22780Y810487D01*
X-23245Y810022D01*
X-23864Y808528D01*
Y806912D01*
X-26444Y802538D01*
X-26946Y802087D01*
X-29055Y801370D01*
X-34057Y798904D01*
X-38694Y795805D01*
X-42887Y792128D01*
X-46565Y787935D01*
X-49663Y783298D01*
X-52130Y778296D01*
X-53923Y773015D01*
X-55010Y767545D01*
X-55375Y761980D01*
X-55010Y756414D01*
X-53923Y750945D01*
X-52130Y745664D01*
X-49663Y740661D01*
X-46565Y736024D01*
X-42887Y731831D01*
X-38694Y728154D01*
X-34057Y725056D01*
X-29055Y722589D01*
X-23774Y720796D01*
X-18304Y719708D01*
X-12739Y719343D01*
X-7174Y719708D01*
X-1704Y720796D01*
X3577Y722589D01*
X8579Y725056D01*
X13216Y728154D01*
X17409Y731831D01*
X21087Y736024D01*
X24185Y740661D01*
X26652Y745664D01*
X28444Y750945D01*
X29532Y756414D01*
X29897Y761980D01*
X29532Y767545D01*
X28444Y773015D01*
X27114Y776935D01*
X28381Y779503D01*
X28711Y779913D01*
X30735Y781502D01*
X34600Y781198D01*
X39781Y781606D01*
X44835Y782819D01*
X49637Y784808D01*
X54069Y787524D01*
X58021Y790899D01*
X61396Y794851D01*
X62180Y796131D01*
X67260Y794698D01*
Y760687D01*
X13270Y706697D01*
X-36484D01*
X-37475Y706499D01*
X-38315Y705938D01*
X-50091Y694162D01*
X-50653Y693322D01*
X-50850Y692330D01*
Y679056D01*
X-55473Y676425D01*
X-55930Y676538D01*
X-56798Y678042D01*
X-58358Y679602D01*
X-60267Y680704D01*
X-62397Y681275D01*
X-64603D01*
X-66733Y680704D01*
X-68642Y679602D01*
X-70202Y678042D01*
X-71304Y676133D01*
X-71875Y674003D01*
Y671797D01*
X-71304Y669667D01*
X-70202Y667758D01*
X-68642Y666198D01*
X-66733Y665096D01*
X-64603Y664525D01*
X-62397D01*
X-60267Y665096D01*
X-58358Y666198D01*
X-56798Y667758D01*
X-55930Y669262D01*
X-55473Y669375D01*
X-50850Y666744D01*
Y655039D01*
X-55246Y653598D01*
X-55930Y653570D01*
X-57578Y655218D01*
X-59777Y656488D01*
X-62230Y657145D01*
Y647500D01*
Y637855D01*
X-59777Y638512D01*
X-57578Y639782D01*
X-55782Y641578D01*
X-54982Y642964D01*
X-52587Y643676D01*
X-52327Y643712D01*
X-49295Y643622D01*
X-26974Y621301D01*
Y598788D01*
X-27829Y597932D01*
X-28448Y596438D01*
Y594822D01*
X-27829Y593328D01*
X-26686Y592185D01*
X-25192Y591566D01*
X-23576D01*
X-22082Y592185D01*
X-20939Y593328D01*
X-20320Y594822D01*
X-18469Y597335D01*
X-15956Y598553D01*
X-14462Y599171D01*
X-13319Y600315D01*
X-12700Y601808D01*
Y602551D01*
X-11225Y604642D01*
X-8602Y606806D01*
X-8082D01*
X-6588Y607425D01*
X-5445Y608568D01*
X-4826Y610062D01*
Y611678D01*
X-5445Y613172D01*
X-6300Y614028D01*
Y624840D01*
X-6497Y625831D01*
X-7059Y626671D01*
X-27983Y647595D01*
X-25879Y652675D01*
X18945D01*
X19633Y652960D01*
X20320Y652675D01*
X35511D01*
X52485Y635701D01*
Y424180D01*
X52888Y423208D01*
X53860Y422805D01*
X79905D01*
Y393805D01*
X39939D01*
X39475Y394269D01*
Y563880D01*
X39475Y563880D01*
X39072Y564852D01*
X18752Y585172D01*
X17780Y585575D01*
X17780Y585575D01*
X-55860D01*
X-57210Y587966D01*
X-57701Y590655D01*
X-56798Y591558D01*
X-55696Y593467D01*
X-55125Y595597D01*
Y597803D01*
X-55696Y599933D01*
X-56798Y601842D01*
X-58358Y603402D01*
X-60267Y604504D01*
X-62397Y605075D01*
X-64603D01*
X-66733Y604504D01*
X-68642Y603402D01*
X-70202Y601842D01*
X-70448Y601415D01*
X-75737Y601749D01*
X-75805Y601777D01*
X-75889Y602090D01*
X-77727Y605274D01*
X-78544Y606090D01*
X-79764Y609400D01*
X-78544Y612710D01*
X-77727Y613526D01*
X-75889Y616711D01*
X-75805Y617023D01*
X-75737Y617051D01*
X-70448Y617385D01*
X-70202Y616958D01*
X-68642Y615398D01*
X-66733Y614296D01*
X-64603Y613725D01*
X-62397D01*
X-60267Y614296D01*
X-58358Y615398D01*
X-56798Y616958D01*
X-55696Y618867D01*
X-55125Y620997D01*
Y623203D01*
X-55696Y625333D01*
X-56798Y627242D01*
X-58358Y628802D01*
X-60267Y629904D01*
X-62397Y630475D01*
X-64603D01*
X-66733Y629904D01*
X-68642Y628802D01*
X-70202Y627242D01*
X-70448Y626815D01*
X-75737Y627149D01*
X-75805Y627177D01*
X-75889Y627490D01*
X-77727Y630673D01*
X-80326Y633273D01*
X-83511Y635112D01*
X-83823Y635195D01*
X-83851Y635263D01*
X-84185Y640552D01*
X-83758Y640798D01*
X-82198Y642358D01*
X-81096Y644267D01*
X-80525Y646397D01*
Y648603D01*
X-81096Y650733D01*
X-82198Y652642D01*
X-83758Y654202D01*
X-85667Y655304D01*
X-87797Y655875D01*
X-90003D01*
X-92133Y655304D01*
X-94042Y654202D01*
X-95602Y652642D01*
X-96704Y650733D01*
X-97275Y648603D01*
Y646397D01*
X-96704Y644267D01*
X-95602Y642358D01*
X-94042Y640798D01*
X-93615Y640552D01*
X-93949Y635263D01*
X-93977Y635195D01*
X-94290Y635112D01*
X-97473Y633273D01*
X-100073Y630673D01*
X-101911Y627490D01*
X-102863Y623938D01*
Y620262D01*
X-101911Y616711D01*
X-100073Y613526D01*
X-99256Y612710D01*
X-98036Y609400D01*
X-99256Y606090D01*
X-100073Y605274D01*
X-101911Y602090D01*
X-102863Y598538D01*
Y594862D01*
X-101911Y591311D01*
X-100073Y588126D01*
X-97473Y585527D01*
X-94290Y583689D01*
X-93977Y583605D01*
X-93949Y583537D01*
X-93615Y578248D01*
X-94042Y578002D01*
X-95602Y576442D01*
X-96704Y574533D01*
X-97275Y572403D01*
Y570197D01*
X-96704Y568067D01*
X-95602Y566158D01*
X-94042Y564598D01*
X-92133Y563496D01*
X-90003Y562925D01*
X-87797D01*
X-85667Y563496D01*
X-83758Y564598D01*
X-78845Y562327D01*
Y554873D01*
X-83758Y552602D01*
X-85667Y553704D01*
X-87797Y554275D01*
X-90003D01*
X-92133Y553704D01*
X-94042Y552602D01*
X-95602Y551042D01*
X-96704Y549133D01*
X-97275Y547003D01*
Y544797D01*
X-96704Y542667D01*
X-95602Y540758D01*
X-94042Y539198D01*
X-92133Y538096D01*
X-90003Y537525D01*
X-87797D01*
X-85667Y538096D01*
X-83758Y539198D01*
X-78845Y536927D01*
Y529473D01*
X-83758Y527202D01*
X-85667Y528304D01*
X-87797Y528875D01*
X-90003D01*
X-92133Y528304D01*
X-94042Y527202D01*
X-95602Y525642D01*
X-96704Y523733D01*
X-97275Y521603D01*
Y519397D01*
X-96704Y517267D01*
X-95602Y515358D01*
X-94042Y513798D01*
X-92133Y512696D01*
X-90003Y512125D01*
X-87797D01*
X-85667Y512696D01*
X-83758Y513798D01*
X-78845Y511527D01*
X-78845Y507173D01*
X-78845Y505869D01*
X-79869Y504997D01*
D01*
X-80776Y504226D01*
X-81954Y503472D01*
X-83253Y502977D01*
X-83569Y503159D01*
X-85177Y504088D01*
X-87630Y504745D01*
Y496370D01*
X-79059D01*
X-78602Y496845D01*
X-74854Y499571D01*
X-73384Y498927D01*
X-73370Y498908D01*
X-72779Y497735D01*
X-73145Y496370D01*
X-63500D01*
X-53855D01*
X-54221Y497735D01*
X-52581Y500988D01*
X-50951Y502815D01*
X-44555D01*
Y396240D01*
X-44555Y396240D01*
X-44152Y395268D01*
X-44152Y395268D01*
X-11132Y362248D01*
X-10160Y361845D01*
X-10160Y361845D01*
X158719D01*
X160823Y356765D01*
X144727Y340669D01*
X144165Y339829D01*
X143968Y338838D01*
Y221406D01*
X116922Y194360D01*
X70174D01*
X69183Y194163D01*
X68342Y193601D01*
X-21069Y104190D01*
X-54382D01*
X-56264Y107904D01*
X-56618Y109270D01*
X-55696Y110867D01*
X-55125Y112997D01*
Y115203D01*
X-55696Y117333D01*
X-56798Y119242D01*
X-58358Y120802D01*
X-60267Y121904D01*
X-62397Y122475D01*
X-64603D01*
X-66733Y121904D01*
X-68642Y120802D01*
X-70202Y119242D01*
X-71304Y117333D01*
X-71875Y115203D01*
Y112997D01*
X-71304Y110867D01*
X-70382Y109270D01*
X-70736Y107904D01*
X-72618Y104190D01*
X-76000D01*
X-76991Y103993D01*
X-77831Y103431D01*
X-85091Y96172D01*
X-85667Y96504D01*
X-87797Y97075D01*
X-90003D01*
X-92133Y96504D01*
X-94042Y95402D01*
X-95602Y93842D01*
X-96704Y91933D01*
X-97275Y89803D01*
Y87597D01*
X-96704Y85467D01*
X-95602Y83558D01*
X-94042Y81998D01*
X-92133Y80896D01*
X-90003Y80325D01*
X-87797D01*
X-85667Y80896D01*
X-83758Y81998D01*
X-82198Y83558D01*
X-81096Y85467D01*
X-80525Y87597D01*
Y89803D01*
X-81096Y91933D01*
X-81428Y92509D01*
X-76883Y97054D01*
X-74249Y96652D01*
X-72002Y93050D01*
X-71497Y91212D01*
X-71875Y89803D01*
Y87597D01*
X-71304Y85467D01*
X-70382Y83870D01*
X-70736Y82504D01*
X-72618Y78790D01*
X-76000D01*
X-76991Y78593D01*
X-77831Y78031D01*
X-85091Y70771D01*
X-85667Y71104D01*
X-87797Y71675D01*
X-90003D01*
X-92133Y71104D01*
X-94042Y70002D01*
X-95602Y68442D01*
X-96704Y66533D01*
X-97275Y64403D01*
Y62197D01*
X-96704Y60067D01*
X-95602Y58158D01*
X-94042Y56598D01*
X-92133Y55496D01*
X-90003Y54925D01*
X-87797D01*
X-85667Y55496D01*
X-83758Y56598D01*
X-82198Y58158D01*
X-81952Y58585D01*
X-76663Y58251D01*
X-76595Y58223D01*
X-76512Y57910D01*
X-74673Y54727D01*
X-73856Y53910D01*
X-72636Y50600D01*
X-73856Y47290D01*
X-74673Y46473D01*
X-76512Y43289D01*
X-76595Y42977D01*
X-76663Y42949D01*
X-81952Y42615D01*
X-82198Y43042D01*
X-83758Y44602D01*
X-85667Y45704D01*
X-87797Y46275D01*
X-90003D01*
X-92133Y45704D01*
X-94042Y44602D01*
X-95602Y43042D01*
X-101058Y42680D01*
X-101352Y42785D01*
X-111710Y53143D01*
X-111710Y712539D01*
X-106630Y713040D01*
X-106533Y712549D01*
X-105971Y711709D01*
X-96371Y702109D01*
X-96704Y701533D01*
X-97275Y699403D01*
Y697197D01*
X-96704Y695067D01*
X-95602Y693158D01*
X-94042Y691598D01*
X-92133Y690496D01*
X-90003Y689925D01*
X-87797D01*
X-85667Y690496D01*
X-83758Y691598D01*
X-82198Y693158D01*
X-81096Y695067D01*
X-80525Y697197D01*
Y699403D01*
X-81096Y701533D01*
X-82198Y703442D01*
X-83758Y705002D01*
X-85667Y706104D01*
X-87797Y706675D01*
X-90003D01*
X-92133Y706104D01*
X-92709Y705771D01*
X-97183Y710245D01*
X-95078Y715325D01*
X-83870D01*
X-80765Y715325D01*
X-78843Y711118D01*
X-78783Y710966D01*
X-78593Y710009D01*
X-78031Y709169D01*
X-70971Y702109D01*
X-71304Y701533D01*
X-71875Y699403D01*
Y697197D01*
X-71304Y695067D01*
X-70202Y693158D01*
X-68642Y691598D01*
X-66733Y690496D01*
X-64603Y689925D01*
X-62397D01*
X-60267Y690496D01*
X-58358Y691598D01*
X-56798Y693158D01*
X-55696Y695067D01*
X-55125Y697197D01*
Y699403D01*
X-55696Y701533D01*
X-56798Y703442D01*
X-58358Y705002D01*
X-60267Y706104D01*
X-62397Y706675D01*
X-64603D01*
X-66733Y706104D01*
X-67309Y705771D01*
X-71677Y710139D01*
X-71309Y712764D01*
X-68428Y714736D01*
X-65920Y715678D01*
X-64603Y715325D01*
X-62397D01*
X-60267Y715896D01*
X-58358Y716998D01*
X-56798Y718558D01*
X-55696Y720467D01*
X-55125Y722597D01*
Y724803D01*
X-55696Y726933D01*
X-56798Y728842D01*
X-58358Y730402D01*
X-60267Y731504D01*
X-62397Y732075D01*
X-64603D01*
X-66733Y731504D01*
X-68642Y730402D01*
X-73610Y732618D01*
Y739140D01*
X-73807Y740131D01*
X-74369Y740971D01*
X-82500Y749103D01*
Y900627D01*
X-62632Y920496D01*
X-61422D01*
X-59928Y921115D01*
X-58785Y922258D01*
X-58166Y923752D01*
Y925368D01*
X-58785Y926862D01*
X-59928Y928005D01*
X-61422Y928624D01*
X-63038D01*
X-64532Y928005D01*
X-65675Y926862D01*
X-66294Y925368D01*
Y924158D01*
X-86310Y904142D01*
X-88806Y904567D01*
X-91390Y905987D01*
Y932377D01*
X-64967Y958800D01*
X-1888D01*
X-1032Y957945D01*
X462Y957326D01*
X2078D01*
X3572Y957945D01*
X4715Y959088D01*
X5334Y960582D01*
Y962198D01*
X4715Y963692D01*
X3572Y964835D01*
X2078Y965454D01*
X462D01*
X-1032Y964835D01*
X-1888Y963980D01*
X-66040D01*
X-67031Y963783D01*
X-67871Y963221D01*
X-95811Y935281D01*
X-96373Y934441D01*
X-96570Y933450D01*
Y750373D01*
X-105971Y740971D01*
X-106533Y740131D01*
X-106630Y739640D01*
X-111710Y740141D01*
Y899812D01*
X-110855Y900668D01*
X-110236Y902162D01*
Y903778D01*
X-110855Y905272D01*
X-111998Y906415D01*
X-113492Y907034D01*
X-115108Y907034D01*
X-118810Y910844D01*
Y1038810D01*
X574510D01*
Y814237D01*
D02*
G37*
G36*
X73192Y862945D02*
X72694Y857983D01*
X68264Y856148D01*
X12602Y911810D01*
X14437Y916239D01*
X19400Y916738D01*
X73192Y862945D01*
D02*
G37*
G36*
X550915Y793979D02*
Y736206D01*
X549122Y734211D01*
X545835Y732075D01*
X544997D01*
X542867Y731504D01*
X540958Y730402D01*
X539398Y728842D01*
X538296Y726933D01*
X537725Y724803D01*
Y722598D01*
X538296Y720468D01*
X539398Y718558D01*
X540958Y716998D01*
X542867Y715896D01*
X544997Y715325D01*
X548104Y710619D01*
X547383Y707681D01*
X545835Y706675D01*
X544997D01*
X542867Y706104D01*
X540958Y705002D01*
X539398Y703443D01*
X538296Y701533D01*
X537725Y699403D01*
Y697197D01*
X538296Y695068D01*
X539398Y693158D01*
X540958Y691598D01*
X542867Y690496D01*
X544997Y689925D01*
X548105Y685219D01*
X547383Y682281D01*
X545835Y681275D01*
X544997D01*
X542867Y680704D01*
X540958Y679602D01*
X539398Y678043D01*
X538296Y676133D01*
X537725Y674003D01*
Y671797D01*
X538296Y669668D01*
X539398Y667758D01*
X540958Y666198D01*
X542867Y665096D01*
X544997Y664525D01*
X548105Y659819D01*
X547383Y656881D01*
X545835Y655875D01*
X544997D01*
X542867Y655304D01*
X540958Y654202D01*
X539398Y652643D01*
X538296Y650733D01*
X537725Y648603D01*
Y646397D01*
X538296Y644268D01*
X539398Y642358D01*
X540958Y640798D01*
X542867Y639696D01*
X544997Y639125D01*
X548105Y634419D01*
X547383Y631481D01*
X545835Y630475D01*
X544997D01*
X542867Y629904D01*
X540958Y628802D01*
X539398Y627243D01*
X538296Y625333D01*
X537725Y623203D01*
Y620998D01*
X538296Y618867D01*
X539398Y616958D01*
X540958Y615398D01*
X542867Y614296D01*
X544997Y613725D01*
X548105Y609019D01*
X547383Y606081D01*
X545835Y605075D01*
X544997D01*
X542867Y604504D01*
X540958Y603402D01*
X539398Y601842D01*
X538296Y599933D01*
X537725Y597803D01*
Y595597D01*
X538296Y593467D01*
X539398Y591558D01*
X540958Y589998D01*
X542867Y588896D01*
X544997Y588325D01*
X548105Y583619D01*
X547383Y580681D01*
X545835Y579675D01*
X544997D01*
X542867Y579104D01*
X540958Y578002D01*
X539398Y576442D01*
X538296Y574533D01*
X537725Y572403D01*
Y570197D01*
X538296Y568068D01*
X539398Y566158D01*
X540958Y564598D01*
X542867Y563496D01*
X544997Y562925D01*
X548105Y558219D01*
X547383Y555281D01*
X545835Y554275D01*
X544997D01*
X542867Y553704D01*
X540958Y552602D01*
X539398Y551043D01*
X538296Y549133D01*
X537725Y547003D01*
Y544798D01*
X538296Y542668D01*
X539398Y540758D01*
X540958Y539198D01*
X542867Y538096D01*
X544997Y537525D01*
X548105Y532819D01*
X547384Y529881D01*
X545835Y528875D01*
X544997D01*
X542867Y528304D01*
X540958Y527202D01*
X539398Y525643D01*
X538296Y523733D01*
X537725Y521603D01*
Y519398D01*
X538296Y517267D01*
X539398Y515358D01*
X540958Y513798D01*
X542867Y512696D01*
X544997Y512125D01*
X546827Y507045D01*
X546549Y505253D01*
X545835Y504745D01*
X544830D01*
X542377Y504088D01*
X540178Y502818D01*
X538382Y501022D01*
X537112Y498823D01*
X536455Y496370D01*
X546100D01*
Y493830D01*
X536455D01*
X537112Y491377D01*
X538382Y489178D01*
X540178Y487382D01*
X542377Y486112D01*
X544830Y485455D01*
X546933Y480375D01*
X546505Y478510D01*
X545835Y478075D01*
X544997D01*
X542867Y477504D01*
X540958Y476402D01*
X539398Y474842D01*
X538296Y472933D01*
X537725Y470803D01*
Y468597D01*
X538296Y466468D01*
X539398Y464558D01*
X540958Y462998D01*
X542867Y461896D01*
X544997Y461325D01*
X548105Y456619D01*
X547384Y453681D01*
X545835Y452675D01*
X544997D01*
X542867Y452104D01*
X540958Y451002D01*
X539398Y449442D01*
X538296Y447533D01*
X537725Y445403D01*
Y443198D01*
X538296Y441068D01*
X539398Y439158D01*
X540958Y437598D01*
X542867Y436496D01*
X544997Y435925D01*
X548105Y431219D01*
X547384Y428281D01*
X545835Y427275D01*
X544997D01*
X542867Y426704D01*
X540958Y425602D01*
X539398Y424043D01*
X538296Y422133D01*
X537725Y420003D01*
Y417798D01*
X538296Y415667D01*
X539398Y413758D01*
X540958Y412198D01*
X542867Y411096D01*
X544997Y410525D01*
X548105Y405819D01*
X547384Y402881D01*
X545835Y401875D01*
X544997D01*
X542867Y401304D01*
X540958Y400202D01*
X539398Y398643D01*
X538296Y396733D01*
X537725Y394603D01*
Y392397D01*
X538296Y390267D01*
X539398Y388358D01*
X540958Y386798D01*
X542867Y385696D01*
X544997Y385125D01*
X548105Y380419D01*
X547384Y377481D01*
X545835Y376475D01*
X544997D01*
X542867Y375904D01*
X540958Y374802D01*
X539398Y373242D01*
X538296Y371333D01*
X537725Y369203D01*
Y366997D01*
X538296Y364868D01*
X539398Y362958D01*
X540958Y361398D01*
X542867Y360296D01*
X544997Y359725D01*
X546827Y354645D01*
X546549Y352853D01*
X545835Y352345D01*
X544830D01*
X542377Y351688D01*
X540178Y350418D01*
X538382Y348622D01*
X537112Y346423D01*
X536455Y343970D01*
X546100D01*
Y341430D01*
X536455D01*
X537112Y338977D01*
X538382Y336778D01*
X540178Y334982D01*
X542377Y333712D01*
X544830Y333055D01*
X546933Y327975D01*
X546506Y326110D01*
X545835Y325675D01*
X544997D01*
X542867Y325104D01*
X540958Y324002D01*
X539398Y322443D01*
X538296Y320533D01*
X537725Y318403D01*
Y316197D01*
X538296Y314067D01*
X539398Y312158D01*
X540958Y310598D01*
X542867Y309496D01*
X544997Y308925D01*
X548105Y304219D01*
X547384Y301281D01*
X545835Y300275D01*
X544997D01*
X542867Y299704D01*
X540958Y298602D01*
X539398Y297043D01*
X538296Y295133D01*
X537725Y293003D01*
Y290798D01*
X538296Y288668D01*
X539398Y286758D01*
X540958Y285198D01*
X542867Y284096D01*
X544997Y283525D01*
X548105Y278819D01*
X547384Y275881D01*
X545835Y274875D01*
X544997D01*
X542867Y274304D01*
X540958Y273202D01*
X539398Y271642D01*
X538296Y269733D01*
X537725Y267603D01*
Y265397D01*
X538296Y263267D01*
X539398Y261358D01*
X540958Y259798D01*
X542867Y258696D01*
X544997Y258125D01*
X548105Y253419D01*
X547384Y250481D01*
X545835Y249475D01*
X544997D01*
X542867Y248904D01*
X540958Y247802D01*
X539398Y246243D01*
X538296Y244333D01*
X537725Y242203D01*
Y239998D01*
X538296Y237868D01*
X539398Y235958D01*
X540958Y234398D01*
X541385Y234152D01*
X541051Y228863D01*
X541023Y228795D01*
X540710Y228712D01*
X537527Y226873D01*
X534927Y224274D01*
X533088Y221090D01*
X533005Y220777D01*
X532937Y220749D01*
X527649Y220415D01*
X527402Y220842D01*
X525842Y222402D01*
X523933Y223504D01*
X521803Y224075D01*
X519597D01*
X517467Y223504D01*
X515558Y222402D01*
X513998Y220842D01*
X512896Y218933D01*
X512325Y216803D01*
Y214597D01*
X512896Y212467D01*
X513998Y210558D01*
X515558Y208998D01*
X517467Y207896D01*
X519597Y207325D01*
X521803D01*
X523933Y207896D01*
X525842Y208998D01*
X527402Y210558D01*
X527649Y210985D01*
X532937Y210651D01*
X533005Y210623D01*
X533088Y210311D01*
X534927Y207127D01*
X537527Y204527D01*
X540710Y202689D01*
X541023Y202605D01*
X541051Y202537D01*
X541385Y197249D01*
X540958Y197002D01*
X539398Y195443D01*
X538296Y193533D01*
X537725Y191403D01*
Y189198D01*
X538296Y187068D01*
X539398Y185158D01*
X540958Y183598D01*
X542867Y182496D01*
X544997Y181925D01*
X547203D01*
X549333Y182496D01*
X551242Y183598D01*
X552802Y185158D01*
X553904Y187068D01*
X554475Y189198D01*
X559552Y189189D01*
Y168505D01*
X554472Y167181D01*
X553904Y168133D01*
X553803Y168308D01*
X552802Y170042D01*
X551242Y171602D01*
X549333Y172704D01*
X547203Y173275D01*
X544997D01*
X542867Y172704D01*
X540958Y171602D01*
X539398Y170042D01*
X538296Y168133D01*
X537725Y166003D01*
Y163797D01*
X538296Y161667D01*
X539398Y159758D01*
X540958Y158198D01*
X542867Y157096D01*
X544997Y156525D01*
X547203D01*
X549333Y157096D01*
X551242Y158198D01*
X552802Y159758D01*
X553668Y161259D01*
X553904Y161667D01*
X554472Y162619D01*
X559552Y161295D01*
Y143105D01*
X554472Y141781D01*
X553904Y142733D01*
X553803Y142908D01*
X552802Y144642D01*
X551242Y146202D01*
X549333Y147304D01*
X547203Y147875D01*
X544997D01*
X542867Y147304D01*
X540958Y146202D01*
X539398Y144642D01*
X538296Y142733D01*
X537725Y140603D01*
Y138398D01*
X538296Y136267D01*
X539398Y134358D01*
X540958Y132798D01*
X542867Y131696D01*
X544997Y131125D01*
X547203D01*
X549333Y131696D01*
X551242Y132798D01*
X552802Y134358D01*
X553668Y135859D01*
X553904Y136267D01*
X554472Y137219D01*
X559552Y135895D01*
X559552Y117705D01*
X554472Y116381D01*
X553904Y117333D01*
X553803Y117508D01*
X552802Y119242D01*
X551242Y120802D01*
X549333Y121904D01*
X547203Y122475D01*
X544997D01*
X542867Y121904D01*
X540958Y120802D01*
X539398Y119242D01*
X538296Y117333D01*
X537725Y115203D01*
Y112998D01*
X538296Y110868D01*
X539398Y108958D01*
X540958Y107398D01*
X542867Y106296D01*
X544997Y105725D01*
X547203D01*
X549333Y106296D01*
X551242Y107398D01*
X552802Y108958D01*
X553668Y110459D01*
X553904Y110867D01*
X554472Y111819D01*
X559552Y110495D01*
Y92305D01*
X554472Y90981D01*
X553904Y91933D01*
X553803Y92108D01*
X552802Y93842D01*
X551242Y95402D01*
X549333Y96504D01*
X547203Y97075D01*
X544997D01*
X542867Y96504D01*
X540958Y95402D01*
X539398Y93842D01*
X538296Y91933D01*
X537725Y89803D01*
Y87598D01*
X538296Y85468D01*
X539398Y83558D01*
X540958Y81998D01*
X542867Y80896D01*
X544997Y80325D01*
X547203D01*
X549333Y80896D01*
X551242Y81998D01*
X552802Y83558D01*
X553668Y85059D01*
X553904Y85467D01*
X554472Y86419D01*
X559552Y85095D01*
Y69074D01*
X554472Y68090D01*
X553818Y69222D01*
X552022Y71018D01*
X549823Y72288D01*
X547370Y72945D01*
Y63300D01*
X546100D01*
Y62030D01*
X536455D01*
X537112Y59577D01*
X538382Y57378D01*
X539826Y55934D01*
X540053Y54643D01*
X539409Y50160D01*
X537527Y49073D01*
X534927Y46474D01*
X533088Y43290D01*
X533005Y42977D01*
X532937Y42949D01*
X527649Y42615D01*
X527402Y43042D01*
X525842Y44602D01*
X523933Y45704D01*
X521803Y46275D01*
X519597D01*
X517467Y45704D01*
X515558Y44602D01*
X513998Y43042D01*
X512896Y41133D01*
X512325Y39003D01*
Y36797D01*
X512896Y34667D01*
X513998Y32758D01*
X515558Y31198D01*
X517467Y30096D01*
X519597Y29525D01*
X521803D01*
X523933Y30096D01*
X525842Y31198D01*
X527402Y32758D01*
X527649Y33185D01*
X532937Y32851D01*
X533005Y32823D01*
X533088Y32511D01*
X534927Y29327D01*
X537527Y26727D01*
X540710Y24889D01*
X541023Y24805D01*
X541051Y24737D01*
X541385Y19449D01*
X540958Y19202D01*
X539398Y17643D01*
X538296Y15733D01*
X537725Y13603D01*
Y11398D01*
X538296Y9268D01*
X539398Y7358D01*
X540958Y5798D01*
X542867Y4696D01*
X544997Y4125D01*
X547203D01*
X549333Y4696D01*
X551242Y5798D01*
X552802Y7358D01*
X553904Y9268D01*
X554475Y11398D01*
Y13603D01*
X553904Y15733D01*
X552802Y17643D01*
X551242Y19202D01*
X550815Y19449D01*
X551149Y24737D01*
X551177Y24805D01*
X551489Y24889D01*
X554674Y26727D01*
X557273Y29327D01*
X559112Y32511D01*
X560063Y36062D01*
Y39635D01*
X569430Y49002D01*
X574510Y46898D01*
Y-289510D01*
X255895D01*
Y-243840D01*
X255492Y-242868D01*
X254520Y-242465D01*
X238115D01*
X237862Y-242570D01*
X237589D01*
X237395Y-242763D01*
X237143Y-242868D01*
X237038Y-243121D01*
X236845Y-243314D01*
X236740Y-243566D01*
Y-243840D01*
X198640D01*
X197953Y-244125D01*
X197265Y-243840D01*
X112280D01*
Y-239147D01*
Y-187573D01*
Y-182880D01*
X236220D01*
X237192Y-182477D01*
X237595Y-181505D01*
Y-142240D01*
X237192Y-141268D01*
X236220Y-140865D01*
X229920D01*
Y-71120D01*
X229723Y-70129D01*
X229161Y-69289D01*
X211992Y-52120D01*
X214096Y-47040D01*
X244662D01*
Y-95613D01*
X244859Y-96604D01*
X245420Y-97445D01*
X323289Y-175313D01*
X324129Y-175875D01*
X325120Y-176072D01*
X429212D01*
X440640Y-187500D01*
Y-214012D01*
X439785Y-214868D01*
X439166Y-216362D01*
Y-217978D01*
X439785Y-219472D01*
X440928Y-220615D01*
X442422Y-221234D01*
X444038D01*
X445532Y-220615D01*
X446675Y-219472D01*
X447294Y-217978D01*
Y-216362D01*
X446675Y-214868D01*
X445820Y-214012D01*
Y-186427D01*
X445623Y-185436D01*
X445061Y-184596D01*
X432116Y-171651D01*
X431276Y-171089D01*
X430285Y-170892D01*
X326193D01*
X255498Y-100197D01*
X256109Y-98291D01*
X257989Y-95504D01*
X258618D01*
X260112Y-94885D01*
X261255Y-93742D01*
X261874Y-92248D01*
Y-90632D01*
X261255Y-89138D01*
X260112Y-87995D01*
X258618Y-87376D01*
X257002D01*
X255508Y-87995D01*
X254921Y-88581D01*
X252307Y-88176D01*
X249841Y-87024D01*
Y-44450D01*
X249644Y-43459D01*
X249083Y-42619D01*
X248242Y-42057D01*
X247251Y-41860D01*
X211893D01*
X192328Y-22295D01*
Y64212D01*
Y66802D01*
X192131Y67793D01*
X191569Y68633D01*
X177800Y82402D01*
X111051Y149151D01*
X110211Y149713D01*
X109220Y149910D01*
X80026D01*
X77086Y154990D01*
X77280Y155718D01*
X77621Y156059D01*
X78240Y157553D01*
X78240Y159170D01*
X81904Y163018D01*
X194163D01*
X195193Y161988D01*
X196763Y161338D01*
X198461D01*
X200031Y161988D01*
X200031Y161988D01*
X201232Y163189D01*
X201232Y163189D01*
X201882Y164759D01*
Y166457D01*
Y166457D01*
X201878Y166466D01*
X201879Y166466D01*
X210418Y175006D01*
X211628D01*
X213122Y175625D01*
X214265Y176768D01*
X214884Y178262D01*
Y179878D01*
X214265Y181372D01*
X213122Y182515D01*
X211628Y183134D01*
X210012D01*
X208518Y182515D01*
X207375Y181372D01*
X206756Y179878D01*
Y178668D01*
X197966Y169878D01*
X196763D01*
X195193Y169228D01*
X194163Y168198D01*
X81882D01*
X77978Y171861D01*
X77978Y173579D01*
X77321Y175166D01*
X76106Y176381D01*
X75765Y176522D01*
X73985Y180495D01*
X73735Y182118D01*
X75289Y184100D01*
X119380D01*
X120371Y184297D01*
X121211Y184859D01*
X152961Y216609D01*
X153523Y217449D01*
X153720Y218440D01*
Y256348D01*
X158800Y258004D01*
X158844Y257959D01*
X160431Y257302D01*
X162149D01*
X163736Y257959D01*
X164951Y259174D01*
X165608Y260761D01*
Y262479D01*
X164951Y264066D01*
X164302Y264714D01*
X164306Y270040D01*
X164935Y270666D01*
X168960Y272586D01*
X169067Y272542D01*
X170785D01*
X172372Y273199D01*
X173443Y274270D01*
X212451D01*
X213481Y273240D01*
X215051Y272590D01*
X216507D01*
X240739Y248359D01*
X241579Y247797D01*
X242302Y247654D01*
X242570Y247600D01*
X248107D01*
X251344Y244363D01*
X250858Y243190D01*
X250850D01*
Y236170D01*
X255370D01*
Y238678D01*
X256543Y239164D01*
X258159Y237549D01*
X258999Y236987D01*
X259990Y236790D01*
X264060D01*
Y227880D01*
X273100D01*
Y241920D01*
X266850D01*
X266600Y241970D01*
X261063D01*
X251011Y252021D01*
X250171Y252583D01*
X249180Y252780D01*
X243643D01*
X220170Y276252D01*
Y277709D01*
X219520Y279279D01*
X218319Y280480D01*
X216749Y281130D01*
X215051D01*
X213481Y280480D01*
X212451Y279450D01*
X173443D01*
X172372Y280521D01*
X170785Y281178D01*
X169067D01*
X168960Y281133D01*
X164935Y283054D01*
X163880Y284104D01*
Y314910D01*
X358337D01*
X370790Y302457D01*
Y276208D01*
X370222Y275640D01*
X365400D01*
X364409Y275443D01*
X363569Y274881D01*
X348957Y260270D01*
X342080D01*
Y247730D01*
X345260D01*
Y241470D01*
X342080D01*
Y228430D01*
Y228430D01*
X353620D01*
Y241470D01*
X350440D01*
Y247730D01*
X352620D01*
Y256607D01*
X354637Y258624D01*
X355810Y258138D01*
Y255270D01*
X361080D01*
Y261540D01*
X359212D01*
X358726Y262713D01*
X362246Y266233D01*
X366473Y270460D01*
X370222D01*
X371078Y269605D01*
X372572Y268986D01*
X374188D01*
X375682Y269605D01*
X376825Y270748D01*
X377444Y272242D01*
Y273858D01*
X376825Y275352D01*
X375970Y276208D01*
Y303530D01*
X375773Y304521D01*
X375211Y305361D01*
X361241Y319331D01*
X360401Y319893D01*
X359410Y320090D01*
X162778D01*
X161787Y319893D01*
X160947Y319331D01*
X159459Y317843D01*
X158897Y317003D01*
X158800Y316512D01*
X153720Y317013D01*
Y335041D01*
X170340Y351661D01*
X427587D01*
X428578Y351858D01*
X429418Y352419D01*
X474351Y397352D01*
X474912Y398192D01*
X475109Y399183D01*
Y674291D01*
X474912Y675282D01*
X474351Y676122D01*
X384860Y765613D01*
Y804147D01*
X389940Y804748D01*
X390099Y804085D01*
X392088Y799283D01*
X394804Y794851D01*
X398179Y790899D01*
X402131Y787524D01*
X406563Y784808D01*
X411365Y782819D01*
X416418Y781606D01*
X421600Y781198D01*
X426781Y781606D01*
X431835Y782819D01*
X436637Y784808D01*
X441069Y787524D01*
X445021Y790899D01*
X448396Y794851D01*
X451112Y799283D01*
X453101Y804085D01*
X454314Y809139D01*
X454722Y814320D01*
X454314Y819501D01*
X453101Y824555D01*
X451112Y829357D01*
X448396Y833789D01*
X445021Y837741D01*
X446910Y842808D01*
X502086D01*
X550915Y793979D01*
D02*
G37*
G36*
X185236Y776782D02*
X185441Y775310D01*
X181217Y770519D01*
X177796D01*
X175218Y775600D01*
X176596Y777484D01*
X184071D01*
X185236Y776782D01*
D02*
G37*
G36*
X186550Y735563D02*
X186424Y734447D01*
X185379Y733817D01*
X169672D01*
X167434Y733522D01*
X165349Y732658D01*
X163558Y731284D01*
X162184Y729493D01*
X161320Y727408D01*
X161026Y725170D01*
X161320Y722932D01*
X162184Y720847D01*
X163558Y719056D01*
X165349Y717682D01*
X167434Y716818D01*
X169672Y716524D01*
X233956D01*
X235295Y712903D01*
X235425Y711537D01*
X234678Y710964D01*
X228836Y705122D01*
X227462Y703331D01*
X226598Y701246D01*
X226451Y700127D01*
X226304Y699008D01*
X226177Y697532D01*
X223237Y694033D01*
X220999Y693739D01*
X218914Y692875D01*
X217123Y691501D01*
X212871Y687249D01*
X208858Y690386D01*
X209209Y692150D01*
X208858Y693914D01*
X208316Y694725D01*
X208209Y695066D01*
X208153Y699057D01*
X208160Y699145D01*
X208774Y700676D01*
X210054Y702591D01*
X210251Y703580D01*
X199600D01*
Y704850D01*
X198330D01*
Y710753D01*
X194600D01*
X192341Y710304D01*
X190426Y709024D01*
X189146Y707109D01*
X188696Y704850D01*
X184700Y700797D01*
X136160D01*
Y738855D01*
X137922Y740399D01*
X182131D01*
X186550Y735563D01*
D02*
G37*
G36*
X18945Y681628D02*
X18360Y680600D01*
X17675Y680600D01*
X11090D01*
Y670560D01*
Y660520D01*
X17675D01*
X18360Y660520D01*
X18945Y659492D01*
Y654050D01*
X-32970D01*
Y678583D01*
X-21944Y689610D01*
X18945D01*
Y681628D01*
D02*
G37*
G36*
X131436Y683503D02*
X157608D01*
X158741Y682675D01*
X161566Y678423D01*
X161534Y678180D01*
X161828Y675942D01*
X162692Y673857D01*
X164066Y672066D01*
X165857Y670692D01*
X167942Y669828D01*
X170180Y669533D01*
X170764D01*
X170764Y669533D01*
X171883Y669681D01*
X173002Y669828D01*
X175088Y670692D01*
X175233Y670804D01*
X182455D01*
X186735Y666023D01*
X186544Y664670D01*
X185379Y663967D01*
X161036D01*
X158798Y663672D01*
X156713Y662808D01*
X154922Y661434D01*
X153548Y659643D01*
X152684Y657558D01*
X152389Y655320D01*
X148313Y651266D01*
X140742D01*
X125486Y666522D01*
Y679837D01*
X126983Y681434D01*
X130567Y683618D01*
X131436Y683503D01*
D02*
G37*
G36*
X173190Y612337D02*
Y596970D01*
X169510D01*
Y587050D01*
X169510Y586430D01*
Y581970D01*
X169510Y581350D01*
Y571430D01*
X169510D01*
X170149Y566350D01*
X168110Y564816D01*
X167200Y565070D01*
D01*
D01*
X166890Y565070D01*
X161930D01*
Y557530D01*
Y550164D01*
Y549990D01*
X166444D01*
Y549990D01*
X167200D01*
X167990Y550210D01*
X169858Y548792D01*
X170266Y542237D01*
X169480Y541450D01*
X161250D01*
Y542720D01*
X156730D01*
Y534180D01*
X154190D01*
Y542720D01*
X149670D01*
Y541450D01*
X141630D01*
X141440Y541450D01*
X140220Y541564D01*
Y533400D01*
X139336Y532516D01*
X138575Y532007D01*
X133448Y526880D01*
X133133D01*
X132700Y526350D01*
X123540D01*
Y517878D01*
X122296Y513279D01*
X122270Y513278D01*
Y513185D01*
X115389D01*
X111982Y516592D01*
X111010Y516995D01*
X110038Y516592D01*
X109954Y516508D01*
X105261Y518452D01*
Y615900D01*
X169627D01*
X173190Y612337D01*
D02*
G37*
G36*
X378460Y595912D02*
X378178Y595630D01*
X330720D01*
Y588264D01*
X329392D01*
X327898Y587645D01*
X326755Y586502D01*
X326136Y585008D01*
Y583392D01*
X326755Y581898D01*
X327898Y580755D01*
X329392Y580136D01*
X330720D01*
Y550164D01*
X329392D01*
X327898Y549545D01*
X326755Y548402D01*
X326136Y546908D01*
Y545292D01*
X326755Y543798D01*
X327898Y542655D01*
X329392Y542036D01*
X330720D01*
Y530860D01*
X326910Y527050D01*
Y523670D01*
X324370D01*
Y515130D01*
X321830D01*
Y523670D01*
X319290D01*
Y528320D01*
X320111Y529250D01*
X324940D01*
Y535770D01*
X317150D01*
Y537040D01*
X315880D01*
Y544830D01*
X310400D01*
Y548640D01*
X307860D01*
X306620Y549880D01*
X307146Y551150D01*
X312410D01*
Y566420D01*
X305390D01*
Y552906D01*
X304120Y552380D01*
X300240Y556260D01*
Y627380D01*
X299720Y627900D01*
Y640080D01*
X378460D01*
Y595912D01*
D02*
G37*
G36*
X378178Y594255D02*
X378875Y593170D01*
Y592611D01*
X378919Y592506D01*
X378893Y592395D01*
X379083Y591203D01*
X379305Y590841D01*
X379468Y590448D01*
X379574Y590404D01*
X379633Y590307D01*
X380047Y590208D01*
X380250Y590124D01*
Y537636D01*
X380047Y537552D01*
X379633Y537453D01*
X379574Y537356D01*
X379468Y537312D01*
X379305Y536919D01*
X379083Y536557D01*
X378893Y535365D01*
X378919Y535254D01*
X378875Y535149D01*
Y517459D01*
X366578Y505162D01*
X363740Y508000D01*
X357560D01*
Y512210D01*
X349770D01*
X341980D01*
Y508000D01*
X338390D01*
Y513860D01*
X332600D01*
Y515130D01*
X331330D01*
Y523670D01*
X328285D01*
Y526481D01*
X331692Y529888D01*
X332095Y530860D01*
X332095Y530860D01*
Y542036D01*
X331936Y542420D01*
X332502Y542655D01*
X333645Y543798D01*
X334264Y545292D01*
Y546908D01*
X333645Y548402D01*
X332502Y549545D01*
X331936Y549780D01*
X332095Y550164D01*
Y580136D01*
X331936Y580520D01*
X332502Y580755D01*
X333645Y581898D01*
X334264Y583392D01*
Y585008D01*
X333645Y586502D01*
X332502Y587645D01*
X331936Y587880D01*
X332095Y588264D01*
Y594255D01*
X378178D01*
X378178Y594255D01*
D02*
G37*
G36*
X337418Y507028D02*
X338390Y506625D01*
X342005Y506532D01*
X343250Y501932D01*
Y498392D01*
X340899Y496041D01*
X337120Y492900D01*
Y492900D01*
X337120Y492900D01*
X328890D01*
Y494170D01*
X322463D01*
X320552Y499250D01*
X324791Y503489D01*
X325133Y504001D01*
X328080Y507860D01*
X337073D01*
X337418Y507028D01*
D02*
G37*
G36*
X365606Y504190D02*
X366175Y503954D01*
Y407670D01*
Y403910D01*
X357513D01*
X357320Y408910D01*
D01*
D01*
X357320Y408940D01*
Y424180D01*
X349030D01*
X340740D01*
Y408990D01*
Y408989D01*
Y408940D01*
X340740Y408910D01*
D01*
D01*
X340547Y403910D01*
X308933D01*
X305370Y407473D01*
Y424110D01*
X309050D01*
Y434030D01*
X309050Y434650D01*
Y439110D01*
X309050Y439730D01*
Y449650D01*
X309050D01*
X309726Y454450D01*
X310450Y454994D01*
X311360Y454740D01*
D01*
D01*
X311670Y454740D01*
X316630D01*
Y462280D01*
Y469820D01*
X311670D01*
X311360Y469820D01*
D01*
D01*
X310570Y469600D01*
X308702Y471018D01*
X308294Y477573D01*
X309080Y478360D01*
X317310D01*
Y478040D01*
Y477090D01*
X321830D01*
Y485630D01*
X324370D01*
Y477090D01*
X328890D01*
Y478360D01*
X337120D01*
Y487044D01*
X338154D01*
X339145Y487241D01*
X339725Y487629D01*
D01*
X339985Y487803D01*
X345112Y492930D01*
X345643Y493460D01*
X356290D01*
Y505777D01*
X357446Y506614D01*
X357560Y506625D01*
X363171D01*
X365606Y504190D01*
D02*
G37*
G36*
X114820Y511810D02*
X122270D01*
Y507600D01*
X137850D01*
Y511810D01*
X140170D01*
Y505950D01*
X145960D01*
Y504680D01*
X147230D01*
Y496140D01*
X150275D01*
Y493329D01*
X146868Y489922D01*
X146465Y488950D01*
X146465Y488950D01*
Y425555D01*
X99685D01*
Y434775D01*
X99770Y436010D01*
X100955Y436010D01*
X116040D01*
Y463550D01*
Y491090D01*
X100955D01*
X99770Y491090D01*
X99685Y492325D01*
Y502351D01*
X104858Y507524D01*
X105261Y508496D01*
X105261Y508496D01*
Y509871D01*
X111010Y515620D01*
X114820Y511810D01*
D02*
G37*
G36*
X103886Y508496D02*
X98310Y502920D01*
Y425555D01*
X81280D01*
X80308Y425152D01*
X79905Y424180D01*
X53860D01*
Y636270D01*
X36080Y654050D01*
X20320D01*
Y689610D01*
X103886D01*
Y508496D01*
D02*
G37*
G36*
X156730Y496140D02*
X159270D01*
Y491490D01*
X173240D01*
Y489120D01*
X169030D01*
Y481330D01*
Y473540D01*
X173240D01*
Y471170D01*
X177020Y467390D01*
X176494Y466120D01*
X171230D01*
Y450850D01*
X178250D01*
Y464364D01*
X179520Y464890D01*
X187960Y456450D01*
X187960Y392430D01*
X81280D01*
Y424180D01*
X147840D01*
Y488950D01*
X151650Y492760D01*
Y496140D01*
X154190D01*
Y504680D01*
X156730D01*
Y496140D01*
D02*
G37*
G36*
X424700Y363740D02*
X424180Y363220D01*
X-10160D01*
X-43180Y396240D01*
Y504190D01*
X-76200D01*
X-77470Y505460D01*
Y584200D01*
X17780D01*
X38100Y563880D01*
Y393700D01*
X39370Y392430D01*
X79905D01*
X80308Y391458D01*
X81280Y391055D01*
X187960D01*
X188647Y391340D01*
X189335Y391055D01*
X238760D01*
X239732Y391458D01*
X240135Y392430D01*
X367550D01*
Y504190D01*
X380250Y516890D01*
Y535149D01*
X380440Y536340D01*
X381520Y536340D01*
X396710D01*
Y563880D01*
Y591420D01*
X381520D01*
X380440Y591420D01*
X380250Y592611D01*
Y638810D01*
X424700D01*
Y363740D01*
D02*
G37*
G36*
X60692Y148906D02*
Y141188D01*
X60890Y140197D01*
X61451Y139357D01*
X65479Y135329D01*
X66319Y134767D01*
X67310Y134570D01*
X110085D01*
X111959Y132130D01*
X109474Y127050D01*
X77470D01*
X76479Y126853D01*
X75639Y126291D01*
X54807Y105460D01*
X21297D01*
X20226Y106531D01*
X18639Y107188D01*
X16835Y112232D01*
X55612Y151010D01*
X60692Y148906D01*
D02*
G37*
G36*
X62884Y171901D02*
X66008Y170228D01*
X65557Y168001D01*
X64717Y167439D01*
X-21188Y81534D01*
X-22398D01*
X-23892Y80915D01*
X-25035Y79772D01*
X-25654Y78278D01*
Y76662D01*
X-25035Y75168D01*
X-23892Y74025D01*
X-22398Y73406D01*
X-20782D01*
X-19288Y74025D01*
X-18145Y75168D01*
X-17526Y76662D01*
Y77871D01*
X8418Y103815D01*
X13462Y102011D01*
X14119Y100424D01*
X15334Y99209D01*
X16921Y98552D01*
X18639D01*
X20226Y99209D01*
X21297Y100280D01*
X55880D01*
X56871Y100477D01*
X57711Y101039D01*
X78543Y121870D01*
X118076D01*
X131976Y107970D01*
X132043Y107397D01*
X131048Y102505D01*
X129905Y101362D01*
X124593Y101320D01*
X117401Y108511D01*
X116561Y109073D01*
X115570Y109270D01*
X96227D01*
X95156Y110341D01*
X93569Y110998D01*
X91851D01*
X90264Y110341D01*
X89049Y109126D01*
X88392Y107539D01*
Y105821D01*
X89049Y104234D01*
X90264Y103019D01*
X91851Y102362D01*
X93569D01*
X95156Y103019D01*
X96227Y104090D01*
X114497D01*
X168860Y49727D01*
Y-1220D01*
X145370D01*
Y2460D01*
X134830D01*
Y2460D01*
X130370D01*
Y2460D01*
X119830D01*
Y-10080D01*
X122113D01*
Y-16340D01*
X119830D01*
Y-29380D01*
X122363D01*
Y-44840D01*
X111530D01*
Y-51373D01*
X102070D01*
Y-50090D01*
X90117D01*
X87530Y-50090D01*
X85037Y-46042D01*
Y-38171D01*
X89289Y-33919D01*
X89991Y-32869D01*
X90237Y-31630D01*
X92270Y-29130D01*
X96730D01*
X97350Y-29130D01*
X107270D01*
Y-16590D01*
X104590D01*
Y-13100D01*
X104393Y-12109D01*
X103831Y-11269D01*
X97840Y-5277D01*
Y41910D01*
X97643Y42901D01*
X97081Y43741D01*
X86921Y53901D01*
X86081Y54463D01*
X85090Y54660D01*
X55587D01*
X54516Y55731D01*
X52929Y56388D01*
X51211D01*
X49624Y55731D01*
X48409Y54516D01*
X47752Y52929D01*
Y51211D01*
X48409Y49624D01*
X49624Y48409D01*
X51211Y47752D01*
X52929D01*
X54516Y48409D01*
X55587Y49480D01*
X84017D01*
X92660Y40837D01*
Y29022D01*
X89824Y27340D01*
X87580Y26677D01*
X86070Y27548D01*
X83751Y28170D01*
X81349D01*
X79030Y27548D01*
X76950Y26348D01*
X75252Y24650D01*
X74051Y22570D01*
X73430Y20251D01*
Y17849D01*
X74051Y15530D01*
X75252Y13450D01*
X76950Y11752D01*
X79030Y10552D01*
X81349Y9930D01*
X83751D01*
X86070Y10552D01*
X87580Y11423D01*
X89824Y10760D01*
X92660Y9078D01*
Y-6350D01*
X92857Y-7341D01*
X93419Y-8181D01*
X96748Y-11510D01*
X96730Y-16590D01*
X92270D01*
X91650Y-16590D01*
X81730D01*
Y-29130D01*
X81730D01*
X80395Y-33657D01*
X79511Y-34541D01*
X78809Y-35591D01*
X76989Y-37743D01*
X74273Y-39320D01*
X73483D01*
X70070D01*
Y-45110D01*
Y-50900D01*
X72998D01*
X75102Y-55980D01*
X71492Y-59590D01*
X61530D01*
Y-68630D01*
X76070D01*
Y-64168D01*
X82450Y-57788D01*
X87530Y-59130D01*
X88076Y-59130D01*
X102070D01*
Y-57847D01*
X111530D01*
Y-64380D01*
X122363D01*
Y-102739D01*
X122110Y-102991D01*
X121975Y-103317D01*
X98561Y-126731D01*
X97859Y-127781D01*
X97613Y-129020D01*
Y-132135D01*
X94885D01*
X93195Y-132471D01*
X91762Y-133428D01*
X90805Y-134860D01*
X90469Y-136550D01*
X90805Y-138240D01*
X90805Y-138240D01*
X91762Y-139672D01*
X89609Y-143865D01*
X84429Y-146251D01*
X83175Y-145868D01*
Y-142788D01*
X83021Y-142417D01*
X82943Y-142024D01*
X82826Y-141946D01*
X82772Y-141816D01*
X82402Y-141663D01*
X82068Y-141440D01*
X81848Y-141396D01*
X81400Y-141097D01*
X81007Y-141019D01*
X80637Y-140865D01*
X31000D01*
X30028Y-141268D01*
X29625Y-142240D01*
Y-289510D01*
X-118810D01*
Y45734D01*
X-113730Y47838D01*
X-101961Y36069D01*
X-101121Y35507D01*
X-100130Y35310D01*
X-96876D01*
X-96704Y34667D01*
X-95602Y32758D01*
X-94042Y31198D01*
X-92133Y30096D01*
X-90003Y29525D01*
X-87797D01*
X-85667Y30096D01*
X-83758Y31198D01*
X-78345Y29797D01*
X-77557Y28630D01*
X-77831Y27231D01*
X-85091Y19971D01*
X-85667Y20304D01*
X-87797Y20875D01*
X-90003D01*
X-92133Y20304D01*
X-94042Y19202D01*
X-95602Y17642D01*
X-96704Y15733D01*
X-97275Y13603D01*
Y11397D01*
X-96704Y9267D01*
X-95602Y7358D01*
X-94042Y5798D01*
X-92133Y4696D01*
X-90003Y4125D01*
X-87797D01*
X-85667Y4696D01*
X-83758Y5798D01*
X-82198Y7358D01*
X-81096Y9267D01*
X-80525Y11397D01*
Y13603D01*
X-81096Y15733D01*
X-81428Y16309D01*
X-76883Y20854D01*
X-74249Y20452D01*
X-72002Y16850D01*
X-71497Y15012D01*
X-71875Y13603D01*
Y11397D01*
X-71304Y9267D01*
X-70202Y7358D01*
X-68642Y5798D01*
X-66733Y4696D01*
X-64603Y4125D01*
X-62397D01*
X-60267Y4696D01*
X-58358Y5798D01*
X-56798Y7358D01*
X-55696Y9267D01*
X-55125Y11397D01*
Y13603D01*
X-55696Y15733D01*
X-56798Y17642D01*
X-56886Y17730D01*
X-54805Y22810D01*
X-41852D01*
X-38693Y17730D01*
X-39391Y16316D01*
X-41184Y11035D01*
X-42271Y5565D01*
X-42636Y0D01*
X-42271Y-5565D01*
X-41184Y-11035D01*
X-39391Y-16316D01*
X-36924Y-21318D01*
X-33826Y-25955D01*
X-30148Y-30148D01*
X-25955Y-33826D01*
X-21318Y-36924D01*
X-17625Y-38746D01*
X-17081Y-41459D01*
X-17092Y-42689D01*
X-17468Y-44285D01*
X-46539Y-73356D01*
X-54128D01*
X-55812Y-70510D01*
X-56471Y-68276D01*
X-55696Y-66933D01*
X-55125Y-64803D01*
Y-62597D01*
X-55696Y-60467D01*
X-56798Y-58558D01*
X-58358Y-56998D01*
X-60267Y-55896D01*
X-62397Y-55325D01*
X-64603D01*
X-66733Y-55896D01*
X-68642Y-56998D01*
X-70202Y-58558D01*
X-71304Y-60467D01*
X-71875Y-62597D01*
Y-64803D01*
X-71304Y-66933D01*
X-70529Y-68276D01*
X-71188Y-70510D01*
X-72872Y-73356D01*
X-75746D01*
X-76737Y-73553D01*
X-77577Y-74115D01*
X-85091Y-81629D01*
X-85667Y-81296D01*
X-87797Y-80725D01*
X-90003D01*
X-92133Y-81296D01*
X-94042Y-82398D01*
X-95602Y-83958D01*
X-96704Y-85867D01*
X-97275Y-87997D01*
Y-90203D01*
X-96704Y-92333D01*
X-95602Y-94242D01*
X-94042Y-95802D01*
X-92133Y-96904D01*
X-90003Y-97475D01*
X-87797D01*
X-85667Y-96904D01*
X-83758Y-95802D01*
X-82198Y-94242D01*
X-81096Y-92333D01*
X-80525Y-90203D01*
Y-87997D01*
X-81096Y-85867D01*
X-81428Y-85291D01*
X-76370Y-80233D01*
X-73908Y-80641D01*
X-73501Y-81005D01*
X-71359Y-85747D01*
X-71382Y-86156D01*
X-71875Y-87997D01*
Y-90203D01*
X-71304Y-92333D01*
X-70202Y-94242D01*
X-68642Y-95802D01*
X-66733Y-96904D01*
X-64603Y-97475D01*
X-62397D01*
X-60267Y-96904D01*
X-58358Y-95802D01*
X-56798Y-94242D01*
X-56230Y-93258D01*
X-52896Y-93026D01*
X-52748Y-93063D01*
X-50999Y-98337D01*
X-59691Y-107029D01*
X-60267Y-106696D01*
X-62397Y-106125D01*
X-64603D01*
X-66733Y-106696D01*
X-68642Y-107798D01*
X-70202Y-109358D01*
X-71304Y-111267D01*
X-71875Y-113397D01*
Y-115603D01*
X-71304Y-117733D01*
X-70202Y-119642D01*
X-68642Y-121202D01*
X-66733Y-122304D01*
X-64603Y-122875D01*
X-62397D01*
X-60267Y-122304D01*
X-58358Y-121202D01*
X-56798Y-119642D01*
X-55696Y-117733D01*
X-55125Y-115603D01*
Y-113397D01*
X-55696Y-111267D01*
X-56028Y-110691D01*
X-5585Y-60248D01*
X47642D01*
X48498Y-61103D01*
X49992Y-61722D01*
X51608D01*
X53102Y-61103D01*
X54245Y-59960D01*
X54864Y-58466D01*
Y-56850D01*
X54245Y-55356D01*
X53102Y-54213D01*
X51608Y-53594D01*
X49992D01*
X49925Y-53563D01*
X45827Y-50435D01*
X45720Y-50283D01*
Y-49992D01*
X45101Y-48498D01*
X43958Y-47355D01*
X42464Y-46736D01*
X41953D01*
X39768Y-45359D01*
X37592Y-42586D01*
Y-42372D01*
X36973Y-40878D01*
X35830Y-39735D01*
X34455Y-39165D01*
X34336Y-39116D01*
X32564Y-38317D01*
X31135Y-37413D01*
X29327Y-35469D01*
X29181Y-35142D01*
X29144Y-35051D01*
X30092Y-30421D01*
X30490Y-29759D01*
X33826Y-25955D01*
X36924Y-21318D01*
X39391Y-16316D01*
X41184Y-11035D01*
X42271Y-5565D01*
X42636Y0D01*
X42271Y5565D01*
X41184Y11035D01*
X39391Y16316D01*
X36924Y21318D01*
X33826Y25955D01*
X32535Y27427D01*
X34837Y32507D01*
X64741D01*
Y31987D01*
X65359Y30493D01*
X66503Y29350D01*
X67996Y28731D01*
X69613D01*
X71107Y29350D01*
X72250Y30493D01*
X72869Y31987D01*
Y33604D01*
X72250Y35097D01*
X71107Y36241D01*
X69613Y36859D01*
X68403D01*
X68334Y36928D01*
X67494Y37489D01*
X66503Y37687D01*
X27035D01*
X23227Y40231D01*
X17777Y42918D01*
X12023Y44872D01*
X6064Y46057D01*
X0Y46455D01*
X-6064Y46057D01*
X-12023Y44872D01*
X-17777Y42918D01*
X-23227Y40231D01*
X-28280Y36855D01*
X-32848Y32848D01*
X-36855Y28280D01*
X-37071Y28043D01*
X-37086Y28037D01*
X-37093Y28019D01*
X-37103Y27990D01*
X-47233D01*
X-49968Y31788D01*
X-50339Y33070D01*
X-49537Y36062D01*
Y39738D01*
X-50489Y43289D01*
X-52327Y46473D01*
X-53144Y47290D01*
X-54364Y50600D01*
X-53144Y53910D01*
X-52327Y54727D01*
X-50489Y57910D01*
X-49537Y61462D01*
Y65138D01*
X-50489Y68689D01*
X-50787Y69206D01*
X-52015Y72824D01*
X-51509Y74369D01*
X-32027Y93851D01*
X-17859D01*
X-16868Y94048D01*
X-16028Y94609D01*
X61174Y171811D01*
X61850Y172003D01*
X62884Y171901D01*
D02*
G37*
G36*
X167738Y-11480D02*
X151720Y-27497D01*
X146640Y-25393D01*
Y-24130D01*
X140870D01*
Y-30650D01*
X141383D01*
X143488Y-35730D01*
X141679Y-37539D01*
X141117Y-38379D01*
X140920Y-39370D01*
Y-40526D01*
X139070Y-44840D01*
X128837D01*
Y-33927D01*
X132560Y-30650D01*
X135924Y-30650D01*
X138330D01*
Y-22860D01*
X139600D01*
Y-21590D01*
X146640D01*
Y-15070D01*
X146640D01*
X146429Y-9990D01*
X148549Y-6823D01*
X148962Y-6400D01*
X165634D01*
X167738Y-11480D01*
D02*
G37*
G36*
X178004Y-15722D02*
Y-32004D01*
X178201Y-32995D01*
X178763Y-33835D01*
X209500Y-64573D01*
Y-95902D01*
X208645Y-96758D01*
X208026Y-98252D01*
Y-99868D01*
X208645Y-101362D01*
X209788Y-102505D01*
X211282Y-103124D01*
X212898D01*
X214392Y-102505D01*
X215535Y-101362D01*
X216154Y-99868D01*
Y-98252D01*
X215535Y-96758D01*
X214680Y-95902D01*
Y-69316D01*
X219760Y-67212D01*
X224740Y-72193D01*
Y-140865D01*
X152148D01*
X147828Y-138019D01*
Y-136301D01*
X147828Y-136301D01*
X147629Y-135820D01*
X149199Y-132203D01*
X150381Y-130740D01*
X151180D01*
X161885D01*
Y-122450D01*
Y-114160D01*
X151180D01*
X146615Y-114160D01*
X146100Y-109293D01*
Y-67870D01*
X150260Y-65650D01*
X151180Y-65650D01*
X164030D01*
Y-54610D01*
Y-43570D01*
X151180D01*
X150260Y-43570D01*
X150193Y-43534D01*
X149263Y-37280D01*
X172924Y-13618D01*
X178004Y-15722D01*
D02*
G37*
G36*
X236220Y-181505D02*
X113655D01*
Y-161151D01*
X113557Y-160916D01*
X114583Y-160074D01*
X115709Y-160826D01*
X117894Y-161260D01*
X122590D01*
Y-155550D01*
Y-149840D01*
X117894D01*
X115709Y-150274D01*
X113856Y-151512D01*
X112546Y-151486D01*
X112416Y-151382D01*
Y-142240D01*
X236220D01*
Y-181505D01*
D02*
G37*
G36*
X254520Y-289510D02*
X198640D01*
Y-245215D01*
X236740D01*
X237712Y-244812D01*
X238115Y-243840D01*
X254520D01*
Y-289510D01*
D02*
G37*
G36*
X81311Y-142691D02*
X81800Y-142788D01*
Y-152400D01*
X89284D01*
Y-154280D01*
X100850D01*
Y-155550D01*
X102120D01*
Y-161151D01*
X112280D01*
Y-181505D01*
X111308Y-181908D01*
X110905Y-182880D01*
Y-243517D01*
X110905Y-243610D01*
X110619Y-243610D01*
X102120D01*
Y-252730D01*
X111240D01*
Y-246159D01*
X112280Y-245215D01*
X197265D01*
Y-251801D01*
X196612Y-252800D01*
X195995Y-252800D01*
X181342D01*
Y-261090D01*
Y-269380D01*
X195995D01*
X196612Y-269380D01*
X197265Y-270379D01*
Y-289510D01*
X112280D01*
Y-289560D01*
X31000D01*
Y-142240D01*
X80637D01*
X81311Y-142691D01*
D02*
G37*
%LPC*%
G36*
X270048Y995934D02*
X268432D01*
X266938Y995315D01*
X265795Y994172D01*
X265176Y992678D01*
Y991062D01*
X265795Y989568D01*
X266938Y988425D01*
X268432Y987806D01*
X270048D01*
X271542Y988425D01*
X272685Y989568D01*
X273304Y991062D01*
Y992678D01*
X272685Y994172D01*
X271542Y995315D01*
X270048Y995934D01*
D02*
G37*
G36*
X281478Y987044D02*
X279862D01*
X278368Y986425D01*
X277225Y985282D01*
X276606Y983788D01*
Y982172D01*
X277225Y980678D01*
X278368Y979535D01*
X279862Y978916D01*
X281478D01*
X282972Y979535D01*
X284115Y980678D01*
X284734Y982172D01*
Y983788D01*
X284115Y985282D01*
X282972Y986425D01*
X281478Y987044D01*
D02*
G37*
G36*
X256078Y984504D02*
X254462D01*
X252968Y983885D01*
X251825Y982742D01*
X251206Y981248D01*
Y979632D01*
X251825Y978138D01*
X252968Y976995D01*
X254462Y976376D01*
X256078D01*
X257572Y976995D01*
X258715Y978138D01*
X259334Y979632D01*
Y981248D01*
X258715Y982742D01*
X257572Y983885D01*
X256078Y984504D01*
D02*
G37*
G36*
X235412Y973997D02*
X233795D01*
X232301Y973379D01*
X231158Y972235D01*
X230539Y970742D01*
Y969125D01*
X231158Y967631D01*
X232301Y966488D01*
X233795Y965869D01*
X235412D01*
X236905Y966488D01*
X238049Y967631D01*
X238667Y969125D01*
Y970742D01*
X238049Y972235D01*
X236905Y973379D01*
X235412Y973997D01*
D02*
G37*
G36*
X266238Y973074D02*
X264622D01*
X263128Y972455D01*
X261985Y971312D01*
X261366Y969818D01*
Y968202D01*
X261985Y966708D01*
X263128Y965565D01*
X264622Y964946D01*
X266238D01*
X267732Y965565D01*
X268875Y966708D01*
X269494Y968202D01*
Y969818D01*
X268875Y971312D01*
X267732Y972455D01*
X266238Y973074D01*
D02*
G37*
G36*
X417928Y969240D02*
X417830D01*
Y960120D01*
X426950D01*
Y960218D01*
X426242Y962860D01*
X424874Y965230D01*
X422940Y967164D01*
X420570Y968532D01*
X417928Y969240D01*
D02*
G37*
G36*
X415290D02*
X415192D01*
X412550Y968532D01*
X410180Y967164D01*
X408246Y965230D01*
X406878Y962860D01*
X406170Y960218D01*
Y960120D01*
X415290D01*
Y969240D01*
D02*
G37*
G36*
X150668Y967994D02*
X149052D01*
X147558Y967375D01*
X146415Y966232D01*
X145796Y964738D01*
Y963122D01*
X146415Y961628D01*
X147558Y960485D01*
X149052Y959866D01*
X150668D01*
X152162Y960485D01*
X153305Y961628D01*
X153924Y963122D01*
Y964738D01*
X153305Y966232D01*
X152162Y967375D01*
X150668Y967994D01*
D02*
G37*
G36*
X263603Y958296D02*
X261987D01*
X260493Y957677D01*
X259350Y956534D01*
X258731Y955040D01*
Y953424D01*
X259350Y951930D01*
X260493Y950787D01*
X261987Y950168D01*
X263603D01*
X265097Y950787D01*
X266240Y951930D01*
X266859Y953424D01*
Y955040D01*
X266240Y956534D01*
X265097Y957677D01*
X263603Y958296D01*
D02*
G37*
G36*
X426950Y957580D02*
X417830D01*
Y948460D01*
X417928D01*
X420570Y949168D01*
X422940Y950536D01*
X424874Y952470D01*
X426242Y954840D01*
X426950Y957482D01*
Y957580D01*
D02*
G37*
G36*
X415290D02*
X406170D01*
Y957482D01*
X406878Y954840D01*
X408246Y952470D01*
X410180Y950536D01*
X412550Y949168D01*
X415192Y948460D01*
X415290D01*
Y957580D01*
D02*
G37*
G36*
X240550Y952605D02*
X215150D01*
X214178Y952202D01*
X213775Y951230D01*
Y933450D01*
X214178Y932478D01*
X215150Y932075D01*
X240550D01*
X241522Y932478D01*
X241925Y933450D01*
Y951230D01*
X241522Y952202D01*
X240550Y952605D01*
D02*
G37*
G36*
X354042Y912114D02*
X353602Y911932D01*
X352548Y911495D01*
X352548D01*
X352442Y911389D01*
X351405Y910352D01*
X350536Y909517D01*
X350350Y909384D01*
X348519Y909151D01*
X348481D01*
X346650Y909384D01*
X346464Y909517D01*
X345595Y910352D01*
X344452Y911495D01*
X342958Y912114D01*
X341342D01*
X339848Y911495D01*
X338705Y910352D01*
X338086Y908858D01*
X338086Y907242D01*
X338086Y907242D01*
X338705Y905748D01*
X338705Y905748D01*
X339848Y904605D01*
X341342Y903986D01*
X341342Y903986D01*
X341342Y903986D01*
X342958D01*
X344452Y904605D01*
X345595Y905748D01*
X346464Y906583D01*
X346650Y906716D01*
X348481Y906949D01*
X348519D01*
X350350Y906716D01*
X350536Y906583D01*
X351405Y905748D01*
X352435Y904718D01*
X352548Y904605D01*
X352548D01*
X354042Y903986D01*
X355658D01*
X355658Y903986D01*
X356098Y904168D01*
X357152Y904605D01*
X357152D01*
X357152Y904605D01*
X358295Y905748D01*
X358296Y905749D01*
X360271Y907170D01*
X362275Y907065D01*
X363976Y905732D01*
X364240Y905500D01*
X365383Y904357D01*
X365383Y904357D01*
X365383D01*
X365515Y904303D01*
X366877Y903738D01*
X366877Y903738D01*
X368494D01*
X369987Y904357D01*
X369987D01*
X370093Y904463D01*
X371130Y905500D01*
X372000Y906336D01*
X372186Y906469D01*
X374016Y906701D01*
X374054D01*
X375885Y906469D01*
X376071Y906336D01*
X376940Y905500D01*
X378083Y904357D01*
X379577Y903738D01*
X381194D01*
X381194Y903738D01*
X381194Y903738D01*
X381633Y903921D01*
X382687Y904357D01*
X382687Y904357D01*
X383831Y905500D01*
X383831Y905500D01*
X384449Y906994D01*
X384449Y906994D01*
X384449Y907120D01*
Y908611D01*
X384449Y908611D01*
X384267Y909050D01*
X383831Y910105D01*
X382687Y911248D01*
X381194Y911866D01*
X379577D01*
X378083Y911248D01*
X376940Y910105D01*
X376071Y909269D01*
X375885Y909136D01*
X374054Y908904D01*
X374016D01*
X372186Y909136D01*
X372000Y909269D01*
X371131Y910105D01*
X370101Y911135D01*
X369987Y911248D01*
X369987D01*
X368494Y911866D01*
X368494Y911866D01*
X366877D01*
X365383Y911248D01*
X365383D01*
X365383Y911248D01*
X364240Y910105D01*
X364239Y910104D01*
X362264Y908682D01*
X360260Y908788D01*
X358559Y910120D01*
X358295Y910352D01*
X357152Y911495D01*
X357152Y911495D01*
X357152D01*
X355658Y912114D01*
X354042D01*
X354042Y912114D01*
D02*
G37*
G36*
X322118Y903391D02*
X320502D01*
X319173Y902841D01*
X318703Y902717D01*
X316230Y902262D01*
X313757Y902717D01*
X313287Y902841D01*
X312929Y902989D01*
X311958Y903391D01*
X310342D01*
X309013Y902841D01*
X308542Y902717D01*
X306070Y902262D01*
X303598Y902717D01*
X303127Y902841D01*
X302769Y902989D01*
X301798Y903391D01*
X300182D01*
X298853Y902841D01*
X298382Y902717D01*
X295910Y902262D01*
X293438Y902717D01*
X292967Y902841D01*
X292609Y902989D01*
X291638Y903391D01*
X290022D01*
X288528Y902773D01*
X287385Y901629D01*
X286766Y900136D01*
Y898519D01*
X287385Y897025D01*
X288528Y895882D01*
X290022Y895263D01*
X291638D01*
X292967Y895814D01*
X293438Y895938D01*
X295910Y896393D01*
X298382Y895938D01*
X298853Y895814D01*
X299211Y895666D01*
X300182Y895263D01*
X301798D01*
X303127Y895814D01*
X303598Y895938D01*
X306070Y896393D01*
X308542Y895938D01*
X309013Y895814D01*
X309371Y895666D01*
X310342Y895263D01*
X311958D01*
X313287Y895814D01*
X313757Y895938D01*
X316230Y896393D01*
X318703Y895938D01*
X319173Y895814D01*
X319531Y895666D01*
X320502Y895263D01*
X322118D01*
X323612Y895882D01*
X324755Y897025D01*
X325374Y898519D01*
Y900136D01*
X324755Y901629D01*
X323612Y902773D01*
X322118Y903391D01*
D02*
G37*
G36*
X160828Y889254D02*
X159212D01*
X157718Y888635D01*
X156575Y887492D01*
X155956Y885998D01*
Y884382D01*
X156575Y882888D01*
X157718Y881745D01*
X159212Y881126D01*
X160828D01*
X162322Y881745D01*
X163465Y882888D01*
X164084Y884382D01*
Y885998D01*
X163465Y887492D01*
X162322Y888635D01*
X160828Y889254D01*
D02*
G37*
G36*
X253712Y882904D02*
X252096D01*
X250602Y882285D01*
X249459Y881142D01*
X248840Y879648D01*
Y878032D01*
X249459Y876538D01*
X250314Y875682D01*
Y856811D01*
X248928Y856056D01*
X245234Y855253D01*
X244872Y855615D01*
X243378Y856234D01*
X241762Y856234D01*
X241762Y856234D01*
X240268Y855615D01*
X240268Y855615D01*
X239125Y854472D01*
X238506Y852978D01*
X238506Y852978D01*
Y851362D01*
X239125Y849868D01*
X240268Y848725D01*
X240268Y848725D01*
X241762Y848106D01*
X243985Y843277D01*
X222447Y821740D01*
X207628D01*
X206772Y822595D01*
X205278Y823214D01*
X203661D01*
X202168Y822595D01*
X201114Y821541D01*
X201024Y821452D01*
Y821452D01*
X200406Y819958D01*
Y818342D01*
X201024Y816848D01*
Y816848D01*
X201025Y816848D01*
X202168Y815705D01*
X203661Y815086D01*
X205278D01*
X205278Y815086D01*
X209272Y812017D01*
X209467Y811480D01*
X209296Y811068D01*
Y809452D01*
X209915Y807958D01*
X211058Y806815D01*
X212552Y806196D01*
X214168D01*
X215662Y806815D01*
X216518Y807670D01*
X255778D01*
X256769Y807867D01*
X257609Y808429D01*
X264591Y815410D01*
X271860D01*
Y812730D01*
X284400D01*
Y815410D01*
X288918D01*
X289909Y815607D01*
X290749Y816169D01*
X307647Y833067D01*
X308209Y833907D01*
X308406Y834898D01*
Y838344D01*
X309261Y839200D01*
X309880Y840694D01*
Y842310D01*
X309261Y843804D01*
X308118Y844947D01*
X306624Y845566D01*
X305008D01*
X303514Y844947D01*
X302371Y843804D01*
X301752Y842310D01*
Y840694D01*
X302371Y839200D01*
X303226Y838344D01*
Y835971D01*
X292415Y825159D01*
X285996Y825925D01*
X285670Y826460D01*
X285670Y827824D01*
Y831730D01*
X278130D01*
X270590D01*
Y827824D01*
X270590Y826460D01*
X270810Y825670D01*
X266953Y820590D01*
X263518D01*
X262527Y820393D01*
X261687Y819831D01*
X254705Y812850D01*
X227807D01*
X226387Y815434D01*
X225962Y817930D01*
X254735Y846703D01*
X255297Y847543D01*
X255496Y847655D01*
X258612Y848660D01*
X260574Y848739D01*
X260588Y848725D01*
X262082Y848106D01*
X263698D01*
X265192Y848725D01*
X266335Y849868D01*
X266954Y851362D01*
Y852978D01*
X266335Y854472D01*
X265192Y855615D01*
X263698Y856234D01*
X262082D01*
X260588Y855615D01*
X260574Y855601D01*
X255494Y857198D01*
Y875682D01*
X256349Y876538D01*
X256968Y878032D01*
Y879648D01*
X256349Y881142D01*
X255206Y882285D01*
X253712Y882904D01*
D02*
G37*
G36*
X215438Y856234D02*
X213822D01*
X212328Y855615D01*
X211185Y854472D01*
X210566Y852978D01*
Y851362D01*
X211185Y849868D01*
X212328Y848725D01*
X213822Y848106D01*
X215438D01*
X216932Y848725D01*
X218075Y849868D01*
X218694Y851362D01*
Y852978D01*
X218075Y854472D01*
X216932Y855615D01*
X215438Y856234D01*
D02*
G37*
G36*
X285670Y839540D02*
X279400D01*
Y834270D01*
X285670D01*
Y839540D01*
D02*
G37*
G36*
X276860D02*
X270590D01*
Y834270D01*
X276860D01*
Y839540D01*
D02*
G37*
G36*
X345990Y781190D02*
X330720D01*
Y774170D01*
X345990D01*
Y781190D01*
D02*
G37*
G36*
X328180D02*
X312910D01*
Y774170D01*
X328180D01*
Y781190D01*
D02*
G37*
G36*
X345990Y771630D02*
X330720D01*
Y764610D01*
X345990D01*
Y771630D01*
D02*
G37*
G36*
X328180D02*
X312910D01*
Y764610D01*
X328180D01*
Y771630D01*
D02*
G37*
G36*
X299140Y757490D02*
X292620D01*
Y750970D01*
X299140D01*
Y757490D01*
D02*
G37*
G36*
X345990Y711340D02*
X330720D01*
Y704320D01*
X345990D01*
Y711340D01*
D02*
G37*
G36*
X328180D02*
X312910D01*
Y704320D01*
X328180D01*
Y711340D01*
D02*
G37*
G36*
X345990Y701780D02*
X330720D01*
Y694760D01*
X345990D01*
Y701780D01*
D02*
G37*
G36*
X328180D02*
X312910D01*
Y694760D01*
X328180D01*
Y701780D01*
D02*
G37*
G36*
X299140Y687640D02*
X292620D01*
Y681120D01*
X299140D01*
Y687640D01*
D02*
G37*
G36*
X-87797Y681275D02*
X-90003D01*
X-92133Y680704D01*
X-94042Y679602D01*
X-95602Y678042D01*
X-96704Y676133D01*
X-97275Y674003D01*
Y671797D01*
X-96704Y669667D01*
X-95602Y667758D01*
X-94042Y666198D01*
X-92133Y665096D01*
X-90003Y664525D01*
X-87797D01*
X-85667Y665096D01*
X-83758Y666198D01*
X-82198Y667758D01*
X-81096Y669667D01*
X-80525Y671797D01*
Y674003D01*
X-81096Y676133D01*
X-82198Y678042D01*
X-83758Y679602D01*
X-85667Y680704D01*
X-87797Y681275D01*
D02*
G37*
G36*
X-64770Y657145D02*
X-67223Y656488D01*
X-69422Y655218D01*
X-71218Y653422D01*
X-72488Y651223D01*
X-73145Y648770D01*
X-64770D01*
Y657145D01*
D02*
G37*
G36*
Y646230D02*
X-73145D01*
X-72488Y643777D01*
X-71218Y641578D01*
X-69422Y639782D01*
X-67223Y638512D01*
X-64770Y637855D01*
Y646230D01*
D02*
G37*
G36*
X287470Y622330D02*
X280450D01*
Y607060D01*
X287470D01*
Y622330D01*
D02*
G37*
G36*
X277910D02*
X270890D01*
Y607060D01*
X277910D01*
Y622330D01*
D02*
G37*
G36*
X287470Y604520D02*
X280450D01*
Y589250D01*
X287470D01*
Y589310D01*
Y604520D01*
D02*
G37*
G36*
X277910D02*
X270890D01*
Y589250D01*
X277910D01*
Y604520D01*
D02*
G37*
G36*
X287470Y584230D02*
X280450D01*
Y568960D01*
X287470D01*
Y584230D01*
D02*
G37*
G36*
X277910D02*
X270890D01*
Y568960D01*
X277910D01*
Y584230D01*
D02*
G37*
G36*
X287470Y566420D02*
X280450D01*
Y551150D01*
X287470D01*
Y566420D01*
D02*
G37*
G36*
X277910D02*
X270890D01*
Y551150D01*
X277910D01*
Y566420D01*
D02*
G37*
G36*
X302380Y544830D02*
X295860D01*
Y538310D01*
X302380D01*
Y544830D01*
D02*
G37*
G36*
Y535770D02*
X295860D01*
Y529250D01*
X302380D01*
Y535770D01*
D02*
G37*
G36*
X212780Y527120D02*
X206260D01*
Y521350D01*
X212780D01*
Y527120D01*
D02*
G37*
G36*
X203720D02*
X197200D01*
Y521350D01*
X203720D01*
Y527120D01*
D02*
G37*
G36*
X-90170Y504745D02*
X-92623Y504088D01*
X-94822Y502818D01*
X-96618Y501022D01*
X-97888Y498823D01*
X-98545Y496370D01*
X-90170D01*
Y504745D01*
D02*
G37*
G36*
X281360Y498460D02*
X274840D01*
Y492690D01*
X281360D01*
Y498460D01*
D02*
G37*
G36*
X272300D02*
X265780D01*
Y492690D01*
X272300D01*
Y498460D01*
D02*
G37*
G36*
X-53855Y493830D02*
X-62230D01*
Y485455D01*
X-59777Y486112D01*
X-57578Y487382D01*
X-55782Y489178D01*
X-54512Y491377D01*
X-53855Y493830D01*
D02*
G37*
G36*
X-79255D02*
X-87630D01*
Y485455D01*
X-85177Y486112D01*
X-82978Y487382D01*
X-81182Y489178D01*
X-79912Y491377D01*
X-79255Y493830D01*
D02*
G37*
G36*
X-90170D02*
X-98545D01*
X-97888Y491377D01*
X-96618Y489178D01*
X-94822Y487382D01*
X-92623Y486112D01*
X-90170Y485455D01*
Y493830D01*
D02*
G37*
G36*
X-64770D02*
X-73145D01*
X-72488Y491377D01*
X-71218Y489178D01*
X-69422Y487382D01*
X-67223Y486112D01*
X-64770Y485455D01*
Y493830D01*
D02*
G37*
G36*
X189050Y489120D02*
X182530D01*
Y482600D01*
X189050D01*
Y489120D01*
D02*
G37*
G36*
Y480060D02*
X182530D01*
Y473540D01*
X189050D01*
Y480060D01*
D02*
G37*
G36*
X-62230Y479345D02*
Y470970D01*
X-53855D01*
X-54512Y473423D01*
X-55782Y475622D01*
X-57578Y477418D01*
X-59777Y478688D01*
X-62230Y479345D01*
D02*
G37*
G36*
X-64770Y479345D02*
X-67223Y478688D01*
X-69422Y477418D01*
X-71218Y475622D01*
X-72488Y473423D01*
X-73145Y470970D01*
X-64770D01*
Y479345D01*
D02*
G37*
G36*
X-87797Y478075D02*
X-90003D01*
X-92133Y477504D01*
X-94042Y476402D01*
X-95602Y474842D01*
X-96704Y472933D01*
X-97275Y470803D01*
Y468597D01*
X-96704Y466467D01*
X-95602Y464558D01*
X-94042Y462998D01*
X-92133Y461896D01*
X-90003Y461325D01*
X-87797D01*
X-85667Y461896D01*
X-83758Y462998D01*
X-82198Y464558D01*
X-81096Y466467D01*
X-80525Y468597D01*
Y470803D01*
X-81096Y472933D01*
X-82198Y474842D01*
X-83758Y476402D01*
X-85667Y477504D01*
X-87797Y478075D01*
D02*
G37*
G36*
X-53855Y468430D02*
X-62230D01*
Y460055D01*
X-59777Y460712D01*
X-57578Y461982D01*
X-55782Y463778D01*
X-54512Y465977D01*
X-53855Y468430D01*
D02*
G37*
G36*
X-64770D02*
X-73145D01*
X-72488Y465977D01*
X-71218Y463778D01*
X-69422Y461982D01*
X-67223Y460712D01*
X-64770Y460055D01*
Y468430D01*
D02*
G37*
G36*
X212750Y466120D02*
X205730D01*
Y450850D01*
X212750D01*
Y466120D01*
D02*
G37*
G36*
X203190D02*
X196170D01*
Y450850D01*
X203190D01*
Y466120D01*
D02*
G37*
G36*
X-62397Y452675D02*
X-64603D01*
X-66733Y452104D01*
X-68642Y451002D01*
X-70202Y449442D01*
X-71304Y447533D01*
X-71875Y445403D01*
Y443197D01*
X-71304Y441067D01*
X-70202Y439158D01*
X-68642Y437598D01*
X-66733Y436496D01*
X-64603Y435925D01*
X-62397D01*
X-60267Y436496D01*
X-58358Y437598D01*
X-56798Y439158D01*
X-55696Y441067D01*
X-55125Y443197D01*
Y445403D01*
X-55696Y447533D01*
X-56798Y449442D01*
X-58358Y451002D01*
X-60267Y452104D01*
X-62397Y452675D01*
D02*
G37*
G36*
X-87797D02*
X-90003D01*
X-92133Y452104D01*
X-94042Y451002D01*
X-95602Y449442D01*
X-96704Y447533D01*
X-97275Y445403D01*
Y443197D01*
X-96704Y441067D01*
X-95602Y439158D01*
X-94042Y437598D01*
X-92133Y436496D01*
X-90003Y435925D01*
X-87797D01*
X-85667Y436496D01*
X-83758Y437598D01*
X-82198Y439158D01*
X-81096Y441067D01*
X-80525Y443197D01*
Y445403D01*
X-81096Y447533D01*
X-82198Y449442D01*
X-83758Y451002D01*
X-85667Y452104D01*
X-87797Y452675D01*
D02*
G37*
G36*
X212750Y448310D02*
X205730D01*
Y433040D01*
X212750D01*
Y433100D01*
Y448310D01*
D02*
G37*
G36*
X203190D02*
X198997D01*
X196170D01*
Y433040D01*
X203190D01*
Y448310D01*
D02*
G37*
G36*
X212750Y428020D02*
X205730D01*
Y412750D01*
X211630D01*
X212750D01*
Y428020D01*
D02*
G37*
G36*
X203190D02*
X196170D01*
Y412750D01*
X203190D01*
Y428020D01*
D02*
G37*
G36*
X-62397Y427275D02*
X-64603D01*
X-66733Y426704D01*
X-68642Y425602D01*
X-70202Y424042D01*
X-71304Y422133D01*
X-71875Y420003D01*
Y417797D01*
X-71304Y415667D01*
X-70202Y413758D01*
X-68642Y412198D01*
X-66733Y411096D01*
X-64603Y410525D01*
X-62397D01*
X-60267Y411096D01*
X-58358Y412198D01*
X-56798Y413758D01*
X-55696Y415667D01*
X-55125Y417797D01*
Y420003D01*
X-55696Y422133D01*
X-56798Y424042D01*
X-58358Y425602D01*
X-60267Y426704D01*
X-62397Y427275D01*
D02*
G37*
G36*
X-87797D02*
X-90003D01*
X-92133Y426704D01*
X-94042Y425602D01*
X-95602Y424042D01*
X-96704Y422133D01*
X-97275Y420003D01*
Y417797D01*
X-96704Y415667D01*
X-95602Y413758D01*
X-94042Y412198D01*
X-92133Y411096D01*
X-90003Y410525D01*
X-87797D01*
X-85667Y411096D01*
X-83758Y412198D01*
X-82198Y413758D01*
X-81096Y415667D01*
X-80525Y417797D01*
Y420003D01*
X-81096Y422133D01*
X-82198Y424042D01*
X-83758Y425602D01*
X-85667Y426704D01*
X-87797Y427275D01*
D02*
G37*
G36*
X212750Y410210D02*
X211810D01*
X205730D01*
Y394940D01*
X212750D01*
Y410210D01*
D02*
G37*
G36*
X203190D02*
X198841D01*
X196170D01*
Y394940D01*
X203190D01*
Y410210D01*
D02*
G37*
G36*
X-62397Y401875D02*
X-64603D01*
X-66733Y401304D01*
X-68642Y400202D01*
X-70202Y398642D01*
X-71304Y396733D01*
X-71875Y394603D01*
Y392397D01*
X-71304Y390267D01*
X-70202Y388358D01*
X-68642Y386798D01*
X-66733Y385696D01*
X-64603Y385125D01*
X-62397D01*
X-60267Y385696D01*
X-58358Y386798D01*
X-56798Y388358D01*
X-55696Y390267D01*
X-55125Y392397D01*
Y394603D01*
X-55696Y396733D01*
X-56798Y398642D01*
X-58358Y400202D01*
X-60267Y401304D01*
X-62397Y401875D01*
D02*
G37*
G36*
X-87797D02*
X-90003D01*
X-92133Y401304D01*
X-94042Y400202D01*
X-95602Y398642D01*
X-96704Y396733D01*
X-97275Y394603D01*
Y392397D01*
X-96704Y390267D01*
X-95602Y388358D01*
X-94042Y386798D01*
X-92133Y385696D01*
X-90003Y385125D01*
X-87797D01*
X-85667Y385696D01*
X-83758Y386798D01*
X-82198Y388358D01*
X-81096Y390267D01*
X-80525Y392397D01*
Y394603D01*
X-81096Y396733D01*
X-82198Y398642D01*
X-83758Y400202D01*
X-85667Y401304D01*
X-87797Y401875D01*
D02*
G37*
G36*
X-62397Y376475D02*
X-64603D01*
X-66733Y375904D01*
X-68642Y374802D01*
X-70202Y373242D01*
X-71304Y371333D01*
X-71875Y369203D01*
Y366997D01*
X-71304Y364867D01*
X-70202Y362958D01*
X-68642Y361398D01*
X-66733Y360296D01*
X-64603Y359725D01*
X-62397D01*
X-60267Y360296D01*
X-58358Y361398D01*
X-56798Y362958D01*
X-55696Y364867D01*
X-55125Y366997D01*
Y369203D01*
X-55696Y371333D01*
X-56798Y373242D01*
X-58358Y374802D01*
X-60267Y375904D01*
X-62397Y376475D01*
D02*
G37*
G36*
X-87797D02*
X-90003D01*
X-92133Y375904D01*
X-94042Y374802D01*
X-95602Y373242D01*
X-96704Y371333D01*
X-97275Y369203D01*
Y366997D01*
X-96704Y364867D01*
X-95602Y362958D01*
X-94042Y361398D01*
X-92133Y360296D01*
X-90003Y359725D01*
X-87797D01*
X-85667Y360296D01*
X-83758Y361398D01*
X-82198Y362958D01*
X-81096Y364867D01*
X-80525Y366997D01*
Y369203D01*
X-81096Y371333D01*
X-82198Y373242D01*
X-83758Y374802D01*
X-85667Y375904D01*
X-87797Y376475D01*
D02*
G37*
G36*
X-62397Y351075D02*
X-64603D01*
X-66733Y350504D01*
X-68642Y349402D01*
X-70202Y347842D01*
X-71304Y345933D01*
X-71875Y343803D01*
Y341597D01*
X-71304Y339467D01*
X-70202Y337558D01*
X-68642Y335998D01*
X-66733Y334896D01*
X-64603Y334325D01*
X-62397D01*
X-60267Y334896D01*
X-58358Y335998D01*
X-56798Y337558D01*
X-55696Y339467D01*
X-55125Y341597D01*
Y343803D01*
X-55696Y345933D01*
X-56798Y347842D01*
X-58358Y349402D01*
X-60267Y350504D01*
X-62397Y351075D01*
D02*
G37*
G36*
X-87797D02*
X-90003D01*
X-92133Y350504D01*
X-94042Y349402D01*
X-95602Y347842D01*
X-96704Y345933D01*
X-97275Y343803D01*
Y341597D01*
X-96704Y339467D01*
X-95602Y337558D01*
X-94042Y335998D01*
X-92133Y334896D01*
X-90003Y334325D01*
X-87797D01*
X-85667Y334896D01*
X-83758Y335998D01*
X-82198Y337558D01*
X-81096Y339467D01*
X-80525Y341597D01*
Y343803D01*
X-81096Y345933D01*
X-82198Y347842D01*
X-83758Y349402D01*
X-85667Y350504D01*
X-87797Y351075D01*
D02*
G37*
G36*
X-62397Y325675D02*
X-64603D01*
X-66733Y325104D01*
X-68642Y324002D01*
X-70202Y322442D01*
X-71304Y320533D01*
X-71875Y318403D01*
Y316197D01*
X-71304Y314067D01*
X-70202Y312158D01*
X-68642Y310598D01*
X-68215Y310352D01*
X-68549Y305063D01*
X-68577Y304995D01*
X-68889Y304911D01*
X-72073Y303073D01*
X-72890Y302256D01*
X-76200Y301036D01*
X-79510Y302256D01*
X-80326Y303073D01*
X-83511Y304911D01*
X-83823Y304995D01*
X-83851Y305063D01*
X-84185Y310352D01*
X-83758Y310598D01*
X-82198Y312158D01*
X-81096Y314067D01*
X-80525Y316197D01*
Y318403D01*
X-81096Y320533D01*
X-82198Y322442D01*
X-83758Y324002D01*
X-85667Y325104D01*
X-87797Y325675D01*
X-90003D01*
X-92133Y325104D01*
X-94042Y324002D01*
X-95602Y322442D01*
X-96704Y320533D01*
X-97275Y318403D01*
Y316197D01*
X-96704Y314067D01*
X-95602Y312158D01*
X-94042Y310598D01*
X-93615Y310352D01*
X-93949Y305063D01*
X-93977Y304995D01*
X-94290Y304911D01*
X-97473Y303073D01*
X-100073Y300473D01*
X-101911Y297290D01*
X-102863Y293738D01*
Y290062D01*
X-101911Y286511D01*
X-100073Y283326D01*
X-99256Y282510D01*
X-98036Y279200D01*
X-99256Y275890D01*
X-100073Y275074D01*
X-101911Y271889D01*
X-102863Y268338D01*
Y264662D01*
X-101911Y261110D01*
X-100073Y257927D01*
X-97473Y255327D01*
X-94290Y253489D01*
X-93977Y253405D01*
X-93949Y253337D01*
X-93615Y248048D01*
X-94042Y247802D01*
X-95602Y246242D01*
X-96704Y244333D01*
X-97275Y242203D01*
Y239997D01*
X-96704Y237867D01*
X-95602Y235958D01*
X-94042Y234398D01*
X-92133Y233296D01*
X-90003Y232725D01*
X-87797D01*
X-85667Y233296D01*
X-83758Y234398D01*
X-82198Y235958D01*
X-81096Y237867D01*
X-80525Y239997D01*
Y242203D01*
X-81096Y244333D01*
X-82198Y246242D01*
X-83758Y247802D01*
X-84185Y248048D01*
X-83851Y253337D01*
X-83823Y253405D01*
X-83511Y253489D01*
X-80326Y255327D01*
X-79510Y256144D01*
X-76200Y257364D01*
X-72890Y256144D01*
X-72073Y255327D01*
X-68889Y253489D01*
X-68577Y253405D01*
X-68549Y253337D01*
X-68215Y248048D01*
X-68642Y247802D01*
X-70202Y246242D01*
X-71304Y244333D01*
X-71875Y242203D01*
Y239997D01*
X-71304Y237867D01*
X-70202Y235958D01*
X-68642Y234398D01*
X-66733Y233296D01*
X-64603Y232725D01*
X-62397D01*
X-60267Y233296D01*
X-58358Y234398D01*
X-56798Y235958D01*
X-55696Y237867D01*
X-55125Y239997D01*
Y242203D01*
X-55696Y244333D01*
X-56798Y246242D01*
X-58358Y247802D01*
X-58785Y248048D01*
X-58451Y253337D01*
X-58423Y253405D01*
X-58110Y253489D01*
X-54927Y255327D01*
X-52327Y257927D01*
X-50489Y261110D01*
X-49537Y264662D01*
Y268338D01*
X-50489Y271889D01*
X-52327Y275074D01*
X-53144Y275890D01*
X-54364Y279200D01*
X-53144Y282510D01*
X-52327Y283326D01*
X-50489Y286511D01*
X-49537Y290062D01*
Y293738D01*
X-50489Y297290D01*
X-52327Y300473D01*
X-54927Y303073D01*
X-58110Y304911D01*
X-58423Y304995D01*
X-58451Y305063D01*
X-58785Y310352D01*
X-58358Y310598D01*
X-56798Y312158D01*
X-55696Y314067D01*
X-55125Y316197D01*
Y318403D01*
X-55696Y320533D01*
X-56798Y322442D01*
X-58358Y324002D01*
X-60267Y325104D01*
X-62397Y325675D01*
D02*
G37*
G36*
X130399Y281178D02*
X128681D01*
X127094Y280521D01*
X126023Y279450D01*
X17128D01*
X16272Y280305D01*
X14778Y280924D01*
X13162D01*
X11668Y280305D01*
X10525Y279162D01*
X9906Y277668D01*
Y276052D01*
X10525Y274558D01*
X11668Y273415D01*
X13162Y272796D01*
X14778D01*
X16272Y273415D01*
X17128Y274270D01*
X126023D01*
X127094Y273199D01*
X128681Y272542D01*
X130399D01*
X131986Y273199D01*
X133201Y274414D01*
X133858Y276001D01*
Y277719D01*
X133201Y279306D01*
X131986Y280521D01*
X130399Y281178D01*
D02*
G37*
G36*
Y265938D02*
X128681D01*
X127094Y265281D01*
X126023Y264210D01*
X9508D01*
X8591Y265126D01*
X7098Y265745D01*
X5481D01*
X3987Y265126D01*
X2844Y263983D01*
X2225Y262489D01*
Y260872D01*
X2844Y259379D01*
X3987Y258235D01*
X5481Y257617D01*
X7098D01*
X8591Y258235D01*
X9386Y259030D01*
X126023D01*
X127094Y257959D01*
X128681Y257302D01*
X130399D01*
X131986Y257959D01*
X133201Y259174D01*
X133858Y260761D01*
Y262479D01*
X133201Y264066D01*
X131986Y265281D01*
X130399Y265938D01*
D02*
G37*
G36*
X-23576Y366014D02*
X-25192D01*
X-26686Y365395D01*
X-26686D01*
X-27829Y364252D01*
X-28448Y362758D01*
Y361142D01*
X-27829Y359648D01*
X-26974Y358792D01*
Y238367D01*
X-30528Y234813D01*
X-36763D01*
X-37754Y234615D01*
X-38594Y234054D01*
X-41762Y230886D01*
X-42972D01*
X-44466Y230267D01*
X-45609Y229124D01*
X-46228Y227630D01*
Y226014D01*
X-45609Y224520D01*
X-44466Y223377D01*
X-44144Y223243D01*
X-42683Y219471D01*
X-42524Y217678D01*
X-49616Y210586D01*
X-51238Y210371D01*
X-51661Y210569D01*
X-55346Y213771D01*
X-55125Y214597D01*
Y216803D01*
X-55696Y218933D01*
X-56798Y220842D01*
X-58358Y222402D01*
X-60267Y223504D01*
X-62397Y224075D01*
X-64603D01*
X-66733Y223504D01*
X-68642Y222402D01*
X-70202Y220842D01*
X-71304Y218933D01*
X-71875Y216803D01*
Y214597D01*
X-71304Y212467D01*
X-70202Y210558D01*
X-68642Y208998D01*
X-66733Y207896D01*
X-64603Y207325D01*
X-62397D01*
X-61308Y207617D01*
X-59697Y206265D01*
X-57501Y202095D01*
X-57502Y202094D01*
Y202094D01*
X-59213Y199626D01*
X-60754Y198243D01*
X-60763Y198237D01*
X-62397Y198675D01*
X-64603D01*
X-66733Y198104D01*
X-68642Y197002D01*
X-70202Y195442D01*
X-71304Y193533D01*
X-71875Y191403D01*
Y189197D01*
X-71304Y187067D01*
X-70202Y185158D01*
X-68642Y183598D01*
X-66733Y182496D01*
X-64603Y181925D01*
X-62397D01*
X-60267Y182496D01*
X-59691Y182829D01*
X-53623Y176761D01*
X-53940Y174368D01*
X-55879Y173154D01*
X-59354Y172177D01*
X-60267Y172704D01*
X-62397Y173275D01*
X-64603D01*
X-66733Y172704D01*
X-68642Y171602D01*
X-70202Y170042D01*
X-71304Y168133D01*
X-71875Y166003D01*
Y163797D01*
X-71304Y161667D01*
X-70202Y159758D01*
X-68642Y158198D01*
X-66733Y157096D01*
X-64603Y156525D01*
X-62397D01*
X-60267Y157096D01*
X-58358Y158198D01*
X-56798Y159758D01*
X-55696Y161667D01*
X-55330Y163034D01*
X-54815Y163422D01*
X-53101Y164161D01*
X-50045Y164710D01*
X-47333Y161999D01*
X-46493Y161437D01*
X-45502Y161240D01*
X-23769D01*
X-22910Y160381D01*
Y153740D01*
X-26590D01*
Y144564D01*
X-27860Y140010D01*
X-27860Y138646D01*
Y134740D01*
X-12780D01*
Y138646D01*
X-12780Y140010D01*
X-14050Y144564D01*
Y153740D01*
X-17730D01*
Y160381D01*
X-16871Y161240D01*
X-8597D01*
X-7526Y160169D01*
X-5939Y159512D01*
X-4221D01*
X-2634Y160169D01*
X-1419Y161384D01*
X-762Y162971D01*
Y164689D01*
X-1419Y166276D01*
X-2634Y167491D01*
X-4221Y168148D01*
X-5939D01*
X-7526Y167491D01*
X-8597Y166420D01*
X-16871D01*
X-17901Y167450D01*
X-19471Y168100D01*
X-21169D01*
X-22739Y167450D01*
X-23769Y166420D01*
X-40724D01*
X-41333Y167390D01*
X-41383Y167913D01*
X-40306Y172895D01*
X-39163Y174038D01*
X-38544Y175532D01*
Y176742D01*
X-36415Y178871D01*
X-35573Y179039D01*
X-34733Y179600D01*
X-8329Y206004D01*
X-7767Y206844D01*
X-7570Y207836D01*
Y340621D01*
X-6715Y341477D01*
X-6096Y342971D01*
Y344587D01*
X-6715Y346081D01*
X-7858Y347224D01*
X-9352Y347843D01*
X-9518D01*
X-12261Y349894D01*
X-13716Y352203D01*
Y352598D01*
X-14335Y354092D01*
X-15478Y355235D01*
X-16972Y355854D01*
X-17548D01*
X-19508Y358047D01*
X-19541Y358097D01*
X-20573Y360530D01*
X-20320Y361142D01*
X-20320Y361142D01*
Y362758D01*
X-20939Y364252D01*
X-22082Y365395D01*
X-22082Y365395D01*
X-22522Y365577D01*
X-23576Y366014D01*
D02*
G37*
G36*
X-87797Y224075D02*
X-90003D01*
X-92133Y223504D01*
X-94042Y222402D01*
X-95602Y220842D01*
X-96704Y218933D01*
X-97275Y216803D01*
Y214597D01*
X-96704Y212467D01*
X-95602Y210558D01*
X-94042Y208998D01*
X-92133Y207896D01*
X-90003Y207325D01*
X-87797D01*
X-85667Y207896D01*
X-83758Y208998D01*
X-82198Y210558D01*
X-81096Y212467D01*
X-80525Y214597D01*
Y216803D01*
X-81096Y218933D01*
X-82198Y220842D01*
X-83758Y222402D01*
X-85667Y223504D01*
X-87797Y224075D01*
D02*
G37*
G36*
X74468Y221234D02*
X72852D01*
X71358Y220615D01*
X70215Y219472D01*
X69596Y217978D01*
Y216362D01*
X70215Y214868D01*
X70680Y214403D01*
X71063Y211455D01*
X70680Y208507D01*
X70215Y208042D01*
X69596Y206548D01*
Y204932D01*
X70215Y203438D01*
X71358Y202295D01*
X72852Y201676D01*
X74468D01*
X75962Y202295D01*
X77105Y203438D01*
X77724Y204932D01*
Y206548D01*
X77105Y208042D01*
X76640Y208507D01*
X76257Y211455D01*
X76640Y214403D01*
X77105Y214868D01*
X77724Y216362D01*
Y217978D01*
X77105Y219472D01*
X75962Y220615D01*
X74468Y221234D01*
D02*
G37*
G36*
X-87797Y198675D02*
X-90003D01*
X-92133Y198104D01*
X-94042Y197002D01*
X-95602Y195442D01*
X-96704Y193533D01*
X-97275Y191403D01*
Y189197D01*
X-96704Y187067D01*
X-95602Y185158D01*
X-94042Y183598D01*
X-92133Y182496D01*
X-90003Y181925D01*
X-87797D01*
X-85667Y182496D01*
X-83758Y183598D01*
X-82198Y185158D01*
X-81096Y187067D01*
X-80525Y189197D01*
Y191403D01*
X-81096Y193533D01*
X-82198Y195442D01*
X-83758Y197002D01*
X-85667Y198104D01*
X-87797Y198675D01*
D02*
G37*
G36*
Y173275D02*
X-90003D01*
X-92133Y172704D01*
X-94042Y171602D01*
X-95602Y170042D01*
X-96704Y168133D01*
X-97275Y166003D01*
Y163797D01*
X-96704Y161667D01*
X-95602Y159758D01*
X-94042Y158198D01*
X-92133Y157096D01*
X-90003Y156525D01*
X-87797D01*
X-85667Y157096D01*
X-83758Y158198D01*
X-82198Y159758D01*
X-81096Y161667D01*
X-80525Y163797D01*
Y166003D01*
X-81096Y168133D01*
X-82198Y170042D01*
X-83758Y171602D01*
X-85667Y172704D01*
X-87797Y173275D01*
D02*
G37*
G36*
X-62397Y147875D02*
X-64603D01*
X-66733Y147304D01*
X-68642Y146202D01*
X-70202Y144642D01*
X-71304Y142733D01*
X-71875Y140603D01*
Y138397D01*
X-71304Y136267D01*
X-70202Y134358D01*
X-68642Y132798D01*
X-66733Y131696D01*
X-64603Y131125D01*
X-62397D01*
X-60267Y131696D01*
X-58358Y132798D01*
X-56798Y134358D01*
X-55696Y136267D01*
X-55125Y138397D01*
Y140603D01*
X-55696Y142733D01*
X-56798Y144642D01*
X-58358Y146202D01*
X-60267Y147304D01*
X-62397Y147875D01*
D02*
G37*
G36*
X-87797D02*
X-90003D01*
X-92133Y147304D01*
X-94042Y146202D01*
X-95602Y144642D01*
X-96704Y142733D01*
X-97275Y140603D01*
Y138397D01*
X-96704Y136267D01*
X-95602Y134358D01*
X-94042Y132798D01*
X-92133Y131696D01*
X-90003Y131125D01*
X-87797D01*
X-85667Y131696D01*
X-83758Y132798D01*
X-82198Y134358D01*
X-81096Y136267D01*
X-80525Y138397D01*
Y140603D01*
X-81096Y142733D01*
X-82198Y144642D01*
X-83758Y146202D01*
X-85667Y147304D01*
X-87797Y147875D01*
D02*
G37*
G36*
X-12780Y132200D02*
X-19050D01*
Y126930D01*
X-12780D01*
Y132200D01*
D02*
G37*
G36*
X-21590D02*
X-27860D01*
Y126930D01*
X-21590D01*
Y132200D01*
D02*
G37*
G36*
X-87630Y123745D02*
Y115370D01*
X-79255D01*
X-79912Y117823D01*
X-81182Y120022D01*
X-82978Y121818D01*
X-85177Y123088D01*
X-87630Y123745D01*
D02*
G37*
G36*
X-90170D02*
X-92623Y123088D01*
X-94822Y121818D01*
X-96618Y120022D01*
X-97888Y117823D01*
X-98545Y115370D01*
X-90170D01*
Y123745D01*
D02*
G37*
G36*
X-79255Y112830D02*
X-87630D01*
Y104455D01*
X-85177Y105112D01*
X-82978Y106382D01*
X-81182Y108178D01*
X-79912Y110377D01*
X-79255Y112830D01*
D02*
G37*
G36*
X-90170D02*
X-98545D01*
X-97888Y110377D01*
X-96618Y108178D01*
X-94822Y106382D01*
X-92623Y105112D01*
X-90170Y104455D01*
Y112830D01*
D02*
G37*
%LPD*%
G36*
X-12750Y231616D02*
Y208908D01*
X-37666Y183992D01*
X-38508Y183824D01*
X-39349Y183263D01*
X-42207Y180404D01*
X-43417Y180404D01*
X-43417Y180404D01*
X-44911Y179785D01*
X-48717Y180013D01*
X-50436Y180898D01*
X-56028Y186491D01*
X-55696Y187067D01*
X-55125Y189197D01*
Y191403D01*
X-55696Y193533D01*
X-56262Y194513D01*
X-54936Y197413D01*
X-53545Y198885D01*
D01*
X-53545Y198885D01*
X-52954Y199031D01*
X-52532Y199136D01*
X-51038Y199755D01*
X-51038Y199755D01*
X-49895Y200898D01*
X-49276Y202392D01*
Y203601D01*
X-34859Y218018D01*
X-34605D01*
X-33614Y218215D01*
X-32773Y218777D01*
X-17830Y233720D01*
X-12750Y231616D01*
D02*
G37*
%LPC*%
G36*
X469859Y791915D02*
X464294Y791550D01*
X458824Y790462D01*
X453543Y788670D01*
X448541Y786203D01*
X443904Y783104D01*
X439711Y779427D01*
X436034Y775234D01*
X432935Y770597D01*
X430469Y765595D01*
X428676Y760314D01*
X427588Y754844D01*
X427223Y749279D01*
X427588Y743714D01*
X428676Y738244D01*
X430469Y732963D01*
X432935Y727961D01*
X436034Y723324D01*
X439711Y719130D01*
X443904Y715453D01*
X448541Y712355D01*
X453543Y709888D01*
X458824Y708095D01*
X464294Y707007D01*
X469859Y706643D01*
X475424Y707007D01*
X480894Y708095D01*
X486176Y709888D01*
X491177Y712355D01*
X495815Y715453D01*
X500008Y719130D01*
X503685Y723324D01*
X506783Y727961D01*
X507245Y728897D01*
X512325Y727712D01*
Y715325D01*
X529075D01*
Y732075D01*
X514314D01*
X510403Y736359D01*
X511043Y738244D01*
X512131Y743714D01*
X512496Y749279D01*
X512131Y754844D01*
X511043Y760314D01*
X509250Y765595D01*
X506783Y770597D01*
X503685Y775234D01*
X500008Y779427D01*
X495815Y783104D01*
X491177Y786203D01*
X486176Y788670D01*
X480894Y790462D01*
X475424Y791550D01*
X469859Y791915D01*
D02*
G37*
G36*
X521803Y706675D02*
X519597D01*
X517467Y706104D01*
X515558Y705002D01*
X513998Y703443D01*
X512896Y701533D01*
X512325Y699403D01*
Y697197D01*
X512896Y695068D01*
X513998Y693158D01*
X515558Y691598D01*
X517467Y690496D01*
X519597Y689925D01*
X521803D01*
X523933Y690496D01*
X525842Y691598D01*
X527402Y693158D01*
X528504Y695068D01*
X529075Y697197D01*
Y699403D01*
X528504Y701533D01*
X527402Y703443D01*
X525842Y705002D01*
X523933Y706104D01*
X521803Y706675D01*
D02*
G37*
G36*
Y681275D02*
X519597D01*
X517467Y680704D01*
X515558Y679602D01*
X513998Y678043D01*
X512896Y676133D01*
X512325Y674003D01*
Y671797D01*
X512896Y669668D01*
X513998Y667758D01*
X515558Y666198D01*
X517467Y665096D01*
X519597Y664525D01*
X521803D01*
X523933Y665096D01*
X525842Y666198D01*
X527402Y667758D01*
X528504Y669668D01*
X529075Y671797D01*
Y674003D01*
X528504Y676133D01*
X527402Y678043D01*
X525842Y679602D01*
X523933Y680704D01*
X521803Y681275D01*
D02*
G37*
G36*
Y655875D02*
X519597D01*
X517467Y655304D01*
X515558Y654202D01*
X513998Y652643D01*
X512896Y650733D01*
X512325Y648603D01*
Y646397D01*
X512896Y644268D01*
X513998Y642358D01*
X515558Y640798D01*
X517467Y639696D01*
X519597Y639125D01*
X521803D01*
X523933Y639696D01*
X525842Y640798D01*
X527402Y642358D01*
X528504Y644268D01*
X529075Y646397D01*
Y648603D01*
X528504Y650733D01*
X527402Y652643D01*
X525842Y654202D01*
X523933Y655304D01*
X521803Y655875D01*
D02*
G37*
G36*
X521970Y631745D02*
Y623370D01*
X530345D01*
X529688Y625823D01*
X528418Y628022D01*
X526622Y629818D01*
X524423Y631088D01*
X521970Y631745D01*
D02*
G37*
G36*
X519430Y631745D02*
X516977Y631088D01*
X514778Y629818D01*
X512982Y628022D01*
X511712Y625823D01*
X511055Y623370D01*
X519430D01*
Y631745D01*
D02*
G37*
G36*
Y620830D02*
X511055D01*
X511712Y618377D01*
X512982Y616178D01*
X514778Y614382D01*
X516977Y613112D01*
X519430Y612455D01*
Y620830D01*
D02*
G37*
G36*
X530345D02*
X521970D01*
Y612455D01*
X524423Y613112D01*
X526622Y614382D01*
X528418Y616178D01*
X529688Y618377D01*
X530345Y620830D01*
D02*
G37*
G36*
X521803Y605075D02*
X519597D01*
X517467Y604504D01*
X515558Y603402D01*
X513998Y601842D01*
X512896Y599933D01*
X512325Y597803D01*
Y595597D01*
X512896Y593467D01*
X513998Y591558D01*
X515558Y589998D01*
X517467Y588896D01*
X519597Y588325D01*
X521803D01*
X523933Y588896D01*
X525842Y589998D01*
X527402Y591558D01*
X528504Y593467D01*
X529075Y595597D01*
Y597803D01*
X528504Y599933D01*
X527402Y601842D01*
X525842Y603402D01*
X523933Y604504D01*
X521803Y605075D01*
D02*
G37*
G36*
Y579675D02*
X519597D01*
X517467Y579104D01*
X515558Y578002D01*
X513998Y576442D01*
X512896Y574533D01*
X512325Y572403D01*
Y570197D01*
X512896Y568068D01*
X513998Y566158D01*
X515558Y564598D01*
X517467Y563496D01*
X519597Y562925D01*
X521803D01*
X523933Y563496D01*
X525842Y564598D01*
X527402Y566158D01*
X528504Y568068D01*
X529075Y570197D01*
Y572403D01*
X528504Y574533D01*
X527402Y576442D01*
X525842Y578002D01*
X523933Y579104D01*
X521803Y579675D01*
D02*
G37*
G36*
Y554275D02*
X519597D01*
X517467Y553704D01*
X515558Y552602D01*
X513998Y551043D01*
X512896Y549133D01*
X512325Y547003D01*
Y544798D01*
X512896Y542668D01*
X513998Y540758D01*
X515558Y539198D01*
X517467Y538096D01*
X519597Y537525D01*
X521803D01*
X523933Y538096D01*
X525842Y539198D01*
X527402Y540758D01*
X528504Y542668D01*
X529075Y544798D01*
Y547003D01*
X528504Y549133D01*
X527402Y551043D01*
X525842Y552602D01*
X523933Y553704D01*
X521803Y554275D01*
D02*
G37*
G36*
Y528875D02*
X519597D01*
X517467Y528304D01*
X515558Y527202D01*
X513998Y525643D01*
X512896Y523733D01*
X512325Y521603D01*
Y519398D01*
X512896Y517267D01*
X513998Y515358D01*
X515558Y513798D01*
X517467Y512696D01*
X519597Y512125D01*
X521803D01*
X523933Y512696D01*
X525842Y513798D01*
X527402Y515358D01*
X528504Y517267D01*
X529075Y519398D01*
Y521603D01*
X528504Y523733D01*
X527402Y525643D01*
X525842Y527202D01*
X523933Y528304D01*
X521803Y528875D01*
D02*
G37*
G36*
Y503475D02*
X519597D01*
X517467Y502904D01*
X515558Y501802D01*
X513998Y500243D01*
X512896Y498333D01*
X512325Y496203D01*
Y493997D01*
X512896Y491867D01*
X513998Y489958D01*
X515558Y488398D01*
X517467Y487296D01*
X519597Y486725D01*
X521803D01*
X523933Y487296D01*
X525842Y488398D01*
X527402Y489958D01*
X528504Y491867D01*
X529075Y493997D01*
Y496203D01*
X528504Y498333D01*
X527402Y500243D01*
X525842Y501802D01*
X523933Y502904D01*
X521803Y503475D01*
D02*
G37*
G36*
Y478075D02*
X519597D01*
X517467Y477504D01*
X515558Y476402D01*
X513998Y474842D01*
X512896Y472933D01*
X512325Y470803D01*
Y468597D01*
X512896Y466468D01*
X513998Y464558D01*
X515558Y462998D01*
X517467Y461896D01*
X519597Y461325D01*
X521803D01*
X523933Y461896D01*
X525842Y462998D01*
X527402Y464558D01*
X528504Y466468D01*
X529075Y468597D01*
Y470803D01*
X528504Y472933D01*
X527402Y474842D01*
X525842Y476402D01*
X523933Y477504D01*
X521803Y478075D01*
D02*
G37*
G36*
Y452675D02*
X519597D01*
X517467Y452104D01*
X515558Y451002D01*
X513998Y449442D01*
X512896Y447533D01*
X512325Y445403D01*
Y443198D01*
X512896Y441068D01*
X513998Y439158D01*
X515558Y437598D01*
X517467Y436496D01*
X519597Y435925D01*
X521803D01*
X523933Y436496D01*
X525842Y437598D01*
X527402Y439158D01*
X528504Y441068D01*
X529075Y443198D01*
Y445403D01*
X528504Y447533D01*
X527402Y449442D01*
X525842Y451002D01*
X523933Y452104D01*
X521803Y452675D01*
D02*
G37*
G36*
Y427275D02*
X519597D01*
X517467Y426704D01*
X515558Y425602D01*
X513998Y424043D01*
X512896Y422133D01*
X512325Y420003D01*
Y417798D01*
X512896Y415667D01*
X513998Y413758D01*
X515558Y412198D01*
X517467Y411096D01*
X519597Y410525D01*
X521803D01*
X523933Y411096D01*
X525842Y412198D01*
X527402Y413758D01*
X528504Y415667D01*
X529075Y417798D01*
Y420003D01*
X528504Y422133D01*
X527402Y424043D01*
X525842Y425602D01*
X523933Y426704D01*
X521803Y427275D01*
D02*
G37*
G36*
Y401875D02*
X519597D01*
X517467Y401304D01*
X515558Y400202D01*
X513998Y398643D01*
X512896Y396733D01*
X512325Y394603D01*
Y392397D01*
X512896Y390267D01*
X513998Y388358D01*
X515558Y386798D01*
X517467Y385696D01*
X519597Y385125D01*
X521803D01*
X523933Y385696D01*
X525842Y386798D01*
X527402Y388358D01*
X528504Y390267D01*
X529075Y392397D01*
Y394603D01*
X528504Y396733D01*
X527402Y398643D01*
X525842Y400202D01*
X523933Y401304D01*
X521803Y401875D01*
D02*
G37*
G36*
Y376475D02*
X519597D01*
X517467Y375904D01*
X515558Y374802D01*
X513998Y373242D01*
X512896Y371333D01*
X512325Y369203D01*
Y366997D01*
X512896Y364868D01*
X513998Y362958D01*
X515558Y361398D01*
X517467Y360296D01*
X519597Y359725D01*
X521803D01*
X523933Y360296D01*
X525842Y361398D01*
X527402Y362958D01*
X528504Y364868D01*
X529075Y366997D01*
Y369203D01*
X528504Y371333D01*
X527402Y373242D01*
X525842Y374802D01*
X523933Y375904D01*
X521803Y376475D01*
D02*
G37*
G36*
Y351075D02*
X519597D01*
X517467Y350504D01*
X515558Y349402D01*
X513998Y347842D01*
X512896Y345933D01*
X512325Y343803D01*
Y341598D01*
X512896Y339468D01*
X513998Y337558D01*
X515558Y335998D01*
X517467Y334896D01*
X519597Y334325D01*
X521803D01*
X523933Y334896D01*
X525842Y335998D01*
X527402Y337558D01*
X528504Y339468D01*
X529075Y341598D01*
Y343803D01*
X528504Y345933D01*
X527402Y347842D01*
X525842Y349402D01*
X523933Y350504D01*
X521803Y351075D01*
D02*
G37*
G36*
X458657Y338640D02*
X458470D01*
Y325120D01*
X471990D01*
Y325307D01*
X471422Y328164D01*
X470307Y330856D01*
X468688Y333278D01*
X466628Y335338D01*
X464206Y336957D01*
X461514Y338072D01*
X458657Y338640D01*
D02*
G37*
G36*
X407857D02*
X407670D01*
Y325120D01*
X421190D01*
Y325307D01*
X420622Y328164D01*
X419507Y330856D01*
X417888Y333278D01*
X415828Y335338D01*
X413406Y336957D01*
X410714Y338072D01*
X407857Y338640D01*
D02*
G37*
G36*
X405130D02*
X404943D01*
X402086Y338072D01*
X399394Y336957D01*
X396972Y335338D01*
X394912Y333278D01*
X393293Y330856D01*
X392178Y328164D01*
X391610Y325307D01*
Y325120D01*
X405130D01*
Y338640D01*
D02*
G37*
G36*
X455930D02*
X455743D01*
X452886Y338072D01*
X450194Y336957D01*
X447772Y335338D01*
X445712Y333278D01*
X444093Y330856D01*
X442978Y328164D01*
X442410Y325307D01*
Y325120D01*
X455930D01*
Y338640D01*
D02*
G37*
G36*
X471990Y322580D02*
X458470D01*
Y309060D01*
X458657D01*
X461514Y309628D01*
X464206Y310743D01*
X466628Y312362D01*
X468688Y314422D01*
X470307Y316844D01*
X471422Y319536D01*
X471990Y322393D01*
Y322580D01*
D02*
G37*
G36*
X421190D02*
X407670D01*
Y309060D01*
X407857D01*
X408362Y309160D01*
D01*
X410714Y309628D01*
X412172Y310232D01*
X413442Y309384D01*
Y287516D01*
X412172Y286668D01*
X410714Y287272D01*
X408362Y287740D01*
X407857Y287840D01*
X407670D01*
Y274320D01*
X421190D01*
Y274507D01*
X420622Y277364D01*
X420018Y278822D01*
X420866Y280092D01*
X442734D01*
X443582Y278822D01*
X442978Y277364D01*
X442482Y274869D01*
X442410Y274507D01*
Y274320D01*
X455930D01*
Y287840D01*
X455743D01*
X452886Y287272D01*
X451428Y286668D01*
X450158Y287516D01*
Y291640D01*
Y305260D01*
Y309384D01*
X451428Y310232D01*
X452886Y309628D01*
X455238Y309160D01*
D01*
X455743Y309060D01*
X455930D01*
Y322580D01*
X442410D01*
D01*
Y322393D01*
X442978Y319536D01*
X443582Y318078D01*
X442734Y316808D01*
X420866D01*
X420018Y318078D01*
X420622Y319536D01*
X421190Y322393D01*
Y322580D01*
D02*
G37*
G36*
X405130D02*
X391610D01*
Y322393D01*
X392178Y319536D01*
X393293Y316844D01*
X394912Y314422D01*
X396972Y312362D01*
X399394Y310743D01*
X402086Y309628D01*
X404943Y309060D01*
X405130D01*
Y322580D01*
D02*
G37*
G36*
X521803Y325675D02*
X519597D01*
X517467Y325104D01*
X515558Y324002D01*
X513998Y322443D01*
X512896Y320533D01*
X512325Y318403D01*
Y316197D01*
X512896Y314067D01*
X513998Y312158D01*
X515558Y310598D01*
X517467Y309496D01*
X519597Y308925D01*
X521803D01*
X523933Y309496D01*
X525842Y310598D01*
X527402Y312158D01*
X528504Y314067D01*
X529075Y316197D01*
Y318403D01*
X528504Y320533D01*
X527402Y322443D01*
X525842Y324002D01*
X523933Y325104D01*
X521803Y325675D01*
D02*
G37*
G36*
X308600Y300870D02*
X291560D01*
Y283330D01*
X308600D01*
Y288043D01*
Y289510D01*
X313072D01*
X313680Y288903D01*
X313928Y288655D01*
X315422Y288036D01*
X317038D01*
X318532Y288655D01*
X319675Y289798D01*
X320294Y291292D01*
Y292908D01*
X319675Y294402D01*
X318532Y295545D01*
X317038Y296164D01*
X315422D01*
X313928Y295545D01*
X313680Y295297D01*
X313072Y294690D01*
X308600D01*
Y296157D01*
Y300870D01*
D02*
G37*
G36*
X521803Y300275D02*
X519597D01*
X517467Y299704D01*
X515558Y298602D01*
X513998Y297043D01*
X512896Y295133D01*
X512723Y294490D01*
X500103D01*
X499112Y294293D01*
X498272Y293731D01*
X486510Y281969D01*
X485053D01*
X483483Y281318D01*
X482282Y280117D01*
X481632Y278548D01*
Y276849D01*
X482282Y275280D01*
X483312Y274250D01*
Y182175D01*
X458921Y157784D01*
X311912D01*
X310921Y157587D01*
X310081Y157025D01*
X281379Y128323D01*
X280817Y127483D01*
X280620Y126492D01*
Y98408D01*
X279765Y97552D01*
X279146Y96058D01*
Y94442D01*
X279765Y92948D01*
X280908Y91805D01*
X282402Y91186D01*
X284018D01*
X285512Y91805D01*
X286655Y92948D01*
X287274Y94442D01*
Y96058D01*
X286655Y97552D01*
X285800Y98408D01*
Y125419D01*
X290780Y130400D01*
X292050Y129874D01*
Y92513D01*
X283612Y84074D01*
X282402D01*
X281155Y83558D01*
X280908Y83455D01*
X279765Y82312D01*
X279146Y80818D01*
Y79202D01*
X279765Y77708D01*
X280908Y76565D01*
X282402Y75946D01*
X284018D01*
X285512Y76565D01*
X286655Y77708D01*
X287274Y79202D01*
Y80412D01*
X296471Y89609D01*
X297033Y90449D01*
X297230Y91440D01*
Y129737D01*
X315525Y148032D01*
X470916D01*
X471907Y148229D01*
X472747Y148791D01*
X498401Y174445D01*
X498963Y175285D01*
X499160Y176276D01*
Y254421D01*
X500190Y255451D01*
X500197Y255467D01*
X500840Y257020D01*
Y258477D01*
X506273Y263910D01*
X512724D01*
X512896Y263267D01*
X513998Y261358D01*
X515558Y259798D01*
X517467Y258696D01*
X519597Y258125D01*
X521803D01*
X523933Y258696D01*
X525842Y259798D01*
X527402Y261358D01*
X528504Y263267D01*
X529075Y265397D01*
Y267603D01*
X528504Y269733D01*
X527402Y271642D01*
X525842Y273202D01*
X523933Y274304D01*
X521803Y274875D01*
X519597D01*
X517467Y274304D01*
X515558Y273202D01*
X513998Y271642D01*
X512896Y269733D01*
X512723Y269090D01*
X505200D01*
X504209Y268893D01*
X503369Y268331D01*
X497178Y262140D01*
X495721D01*
X494151Y261490D01*
X493572Y260910D01*
X490640Y261418D01*
X488492Y262467D01*
Y274250D01*
X489522Y275280D01*
X490172Y276849D01*
Y278306D01*
X501176Y289310D01*
X512724D01*
X512896Y288668D01*
X513998Y286758D01*
X515558Y285198D01*
X517467Y284096D01*
X519597Y283525D01*
X521803D01*
X523933Y284096D01*
X525842Y285198D01*
X527402Y286758D01*
X528504Y288668D01*
X529075Y290798D01*
Y293003D01*
X528504Y295133D01*
X527402Y297043D01*
X525842Y298602D01*
X523933Y299704D01*
X521803Y300275D01*
D02*
G37*
G36*
X347518Y288544D02*
X345902D01*
X344408Y287925D01*
X343265Y286782D01*
X342646Y285288D01*
Y283672D01*
X343265Y282178D01*
X344408Y281035D01*
X345902Y280416D01*
X347518D01*
X349012Y281035D01*
X350155Y282178D01*
X350774Y283672D01*
Y285288D01*
X350155Y286782D01*
X349012Y287925D01*
X347518Y288544D01*
D02*
G37*
G36*
X458657Y287840D02*
X458470D01*
Y274320D01*
X471990D01*
Y274507D01*
X471422Y277364D01*
X470307Y280056D01*
X468688Y282478D01*
X466628Y284538D01*
X464206Y286157D01*
X461514Y287272D01*
X458657Y287840D01*
D02*
G37*
G36*
X405130D02*
X404943D01*
X402086Y287272D01*
X399394Y286157D01*
X396972Y284538D01*
X394912Y282478D01*
X393293Y280056D01*
X392178Y277364D01*
X391610Y274507D01*
Y274320D01*
X405130D01*
Y287840D01*
D02*
G37*
G36*
X308050Y269420D02*
X299010D01*
Y254880D01*
X308050D01*
Y255320D01*
Y257095D01*
Y260300D01*
X311802D01*
X312658Y259445D01*
X314152Y258826D01*
X315768D01*
X317262Y259445D01*
X318316Y260499D01*
X318405Y260588D01*
X318779Y261490D01*
X319024Y262082D01*
Y263698D01*
X318405Y265192D01*
X318405Y265192D01*
X317262Y266335D01*
X315768Y266954D01*
X314152D01*
X313130Y266531D01*
D01*
D01*
X312658Y266335D01*
X311802Y265480D01*
X308050D01*
Y268685D01*
Y269420D01*
D02*
G37*
G36*
X471990Y271780D02*
X458470D01*
Y258260D01*
X458657D01*
X461514Y258828D01*
X464206Y259943D01*
X466628Y261562D01*
X468688Y263622D01*
X470307Y266044D01*
X471422Y268736D01*
X471990Y271593D01*
Y271780D01*
D02*
G37*
G36*
X455930D02*
X442410D01*
Y271593D01*
X442978Y268736D01*
X444093Y266044D01*
X445712Y263622D01*
X447772Y261562D01*
X450194Y259943D01*
X452886Y258828D01*
X455743Y258260D01*
X455930D01*
Y271780D01*
D02*
G37*
G36*
X421190D02*
X407670D01*
Y258260D01*
X407857D01*
X410714Y258828D01*
X413406Y259943D01*
X415828Y261562D01*
X417888Y263622D01*
X419507Y266044D01*
X420622Y268736D01*
X421190Y271593D01*
Y271780D01*
D02*
G37*
G36*
X405130D02*
X391610D01*
Y271593D01*
X392178Y268736D01*
X393293Y266044D01*
X394912Y263622D01*
X396972Y261562D01*
X399394Y259943D01*
X402086Y258828D01*
X404943Y258260D01*
X405130D01*
Y271780D01*
D02*
G37*
G36*
X368890Y261540D02*
X363620D01*
Y255270D01*
X368890D01*
Y261540D01*
D02*
G37*
G36*
X361080Y252730D02*
X355810D01*
Y246460D01*
X361080D01*
Y252730D01*
D02*
G37*
G36*
X521970Y250745D02*
Y242370D01*
X530345D01*
X529688Y244823D01*
X528418Y247022D01*
X526622Y248818D01*
X524423Y250088D01*
X521970Y250745D01*
D02*
G37*
G36*
X519430D02*
X516977Y250088D01*
X514778Y248818D01*
X512982Y247022D01*
X511712Y244823D01*
X511055Y242370D01*
X519430D01*
Y250745D01*
D02*
G37*
G36*
X248310Y243190D02*
X243790D01*
Y243190D01*
Y236170D01*
X248310D01*
Y243190D01*
D02*
G37*
G36*
X530345Y239830D02*
X521970D01*
Y231455D01*
X524423Y232112D01*
X526622Y233382D01*
X528418Y235178D01*
X529688Y237377D01*
X530345Y239830D01*
D02*
G37*
G36*
X519430D02*
X511055D01*
X511712Y237377D01*
X512982Y235178D01*
X514778Y233382D01*
X516977Y232112D01*
X519430Y231455D01*
Y239830D01*
D02*
G37*
G36*
X456738Y239014D02*
X455122D01*
X453628Y238395D01*
X452485Y237252D01*
X451866Y235758D01*
Y234142D01*
X452485Y232648D01*
X453628Y231505D01*
X455122Y230886D01*
X456738D01*
X458232Y231505D01*
X459375Y232648D01*
X459994Y234142D01*
Y235758D01*
X459375Y237252D01*
X458232Y238395D01*
X456738Y239014D01*
D02*
G37*
G36*
X255370Y233630D02*
X250850D01*
Y226610D01*
X255370D01*
Y233049D01*
Y233630D01*
D02*
G37*
G36*
X248310D02*
X243790D01*
Y226610D01*
X248310D01*
Y233630D01*
D02*
G37*
G36*
X263600Y267420D02*
X254560D01*
Y253380D01*
X263600D01*
Y257810D01*
X273197D01*
X275540Y255467D01*
Y223811D01*
Y218243D01*
X273127Y215830D01*
X265350D01*
Y218510D01*
X252810D01*
Y207970D01*
X265350D01*
Y210650D01*
X274200D01*
X275191Y210847D01*
X276031Y211409D01*
X279961Y215339D01*
X280523Y216179D01*
X280720Y217170D01*
Y229897D01*
X281990Y230423D01*
X282432Y229981D01*
X283926Y229362D01*
X285542D01*
X287036Y229981D01*
X287244Y230189D01*
X289510D01*
Y225880D01*
X298550D01*
Y240420D01*
X289510D01*
Y236663D01*
X287244D01*
X287036Y236871D01*
X285542Y237490D01*
X283926D01*
X282432Y236871D01*
X281990Y236429D01*
X280720Y236955D01*
Y256540D01*
X280523Y257531D01*
X279961Y258371D01*
X276101Y262231D01*
X275261Y262793D01*
X274270Y262990D01*
X263600D01*
Y267420D01*
D02*
G37*
G36*
X427528Y232664D02*
X425912D01*
X424418Y232045D01*
X423275Y230902D01*
X422656Y229408D01*
Y227792D01*
X423275Y226298D01*
X423435Y226138D01*
X424418Y225155D01*
X425912Y224536D01*
X427528D01*
X429022Y225155D01*
X430165Y226298D01*
X430784Y227792D01*
Y229408D01*
Y229408D01*
X430165Y230902D01*
X429022Y232045D01*
X427528Y232664D01*
D02*
G37*
G36*
X346830Y223690D02*
X340310D01*
Y217170D01*
X346830D01*
Y223690D01*
D02*
G37*
G36*
X433878Y219964D02*
X432262D01*
X430768Y219345D01*
X429625Y218202D01*
X429006Y216708D01*
Y215092D01*
X429625Y213598D01*
X430768Y212455D01*
X432262Y211836D01*
X433878D01*
X435372Y212455D01*
X435560Y212643D01*
X436515Y213598D01*
X437134Y215092D01*
Y216708D01*
X436515Y218202D01*
X435560Y219157D01*
X435372Y219345D01*
X433878Y219964D01*
D02*
G37*
G36*
X346830Y214630D02*
X340310D01*
Y208110D01*
X346830D01*
Y214630D01*
D02*
G37*
G36*
X456738Y213614D02*
X455122D01*
X453628Y212995D01*
X452485Y211852D01*
X451866Y210358D01*
Y208742D01*
X452485Y207248D01*
X453628Y206105D01*
X455122Y205486D01*
X456738D01*
X458232Y206105D01*
X459187Y207060D01*
X459375Y207248D01*
X459994Y208742D01*
Y210358D01*
X459375Y211852D01*
X458232Y212995D01*
X456738Y213614D01*
D02*
G37*
G36*
X290100Y300870D02*
X273060D01*
Y283330D01*
X278990D01*
Y274869D01*
X278320Y274199D01*
X277670Y272629D01*
Y270931D01*
X278320Y269361D01*
X278990Y268691D01*
Y263250D01*
X279187Y262259D01*
X279749Y261419D01*
X295349Y245819D01*
X296189Y245257D01*
X297180Y245060D01*
X308807D01*
X310440Y243427D01*
Y240420D01*
X308510D01*
Y225880D01*
X309321D01*
X309848Y224610D01*
X294199Y208961D01*
X293637Y208121D01*
X293440Y207130D01*
Y205660D01*
X290760D01*
Y200830D01*
X265350D01*
Y203510D01*
X252810D01*
Y202890D01*
Y192970D01*
X265350D01*
Y195650D01*
X290760D01*
Y193120D01*
X301300D01*
Y205660D01*
X300019D01*
X299492Y206930D01*
X312360Y219798D01*
X314861Y222299D01*
X315423Y223139D01*
X315620Y224130D01*
Y225880D01*
X317550D01*
Y240420D01*
X315620D01*
Y244500D01*
X315423Y245491D01*
X314861Y246331D01*
X311711Y249481D01*
X310871Y250043D01*
X309880Y250240D01*
X298253D01*
X294154Y254338D01*
X285104Y263389D01*
X284170Y264323D01*
Y268082D01*
X284359Y268160D01*
X284359Y268160D01*
X285560Y269361D01*
X286210Y270931D01*
Y272629D01*
X285560Y274199D01*
X284359Y275400D01*
X284359Y275400D01*
X284170Y275478D01*
Y275478D01*
Y283330D01*
X290100D01*
Y300870D01*
D02*
G37*
G36*
X311958Y214884D02*
X310342D01*
X308848Y214265D01*
X307705Y213122D01*
X307086Y211628D01*
Y210012D01*
X307705Y208518D01*
X307853Y208370D01*
Y205660D01*
X305760D01*
Y193120D01*
X316300D01*
Y205660D01*
Y205660D01*
X314327D01*
Y208250D01*
X314595Y208518D01*
X315214Y210012D01*
Y210012D01*
Y211628D01*
X314595Y213122D01*
X313452Y214265D01*
X311958Y214884D01*
D02*
G37*
G36*
X455468Y193294D02*
X453852D01*
X452358Y192675D01*
X451403Y191720D01*
X451215Y191532D01*
X450596Y190038D01*
Y188422D01*
X451215Y186928D01*
X452358Y185785D01*
X453852Y185166D01*
X455468D01*
X456962Y185785D01*
X458105Y186928D01*
X458724Y188422D01*
Y190038D01*
X458105Y191532D01*
X456962Y192675D01*
X455468Y193294D01*
D02*
G37*
G36*
X368890Y252730D02*
X363620D01*
Y246460D01*
X365095D01*
X365801Y245404D01*
X365734Y245244D01*
Y243526D01*
X366060Y242740D01*
X365212Y241470D01*
X356080D01*
Y228430D01*
X359010D01*
Y222420D01*
X355890D01*
Y223690D01*
X349370D01*
Y215900D01*
Y208110D01*
X355890D01*
Y209380D01*
X359865D01*
X360118Y208110D01*
X359648Y207915D01*
X358505Y206772D01*
X357886Y205278D01*
Y203857D01*
Y203662D01*
X358505Y202168D01*
X359648Y201025D01*
X361142Y200406D01*
X362758D01*
X364252Y201025D01*
X365108Y201880D01*
X376365D01*
X377356Y202077D01*
X378196Y202639D01*
X378686Y203128D01*
X378982Y203006D01*
X380598D01*
X382092Y203625D01*
X383235Y204768D01*
X383854Y206262D01*
Y207878D01*
X383235Y209372D01*
X382092Y210515D01*
X380598Y211134D01*
X378982D01*
X377488Y210515D01*
X376345Y209372D01*
X375726Y207878D01*
Y207493D01*
X375293Y207060D01*
X365108D01*
X364252Y207915D01*
X363782Y208110D01*
X364035Y209380D01*
X368120D01*
Y213310D01*
X373380D01*
X374371Y213507D01*
X375211Y214069D01*
X376922Y215779D01*
X389439Y228296D01*
X412641D01*
X413496Y227441D01*
X414990Y226822D01*
X416607D01*
X418101Y227441D01*
X419244Y228584D01*
X419863Y230078D01*
Y231694D01*
X419244Y233188D01*
X418101Y234331D01*
X416607Y234950D01*
X416727Y236170D01*
X434537D01*
X440640Y230067D01*
Y211085D01*
Y201930D01*
X440837Y200939D01*
X441399Y200099D01*
X443939Y197559D01*
X444779Y196997D01*
X445770Y196800D01*
X459937D01*
X461757Y194981D01*
X466852Y189886D01*
Y188371D01*
X467509Y186784D01*
X468724Y185569D01*
X470311Y184912D01*
X472029D01*
X473616Y185569D01*
X474831Y186784D01*
X475488Y188371D01*
Y190089D01*
X474831Y191676D01*
X473616Y192891D01*
X472029Y193548D01*
X470514D01*
X462841Y201221D01*
X462001Y201783D01*
X461010Y201980D01*
X446843D01*
X445820Y203003D01*
Y207276D01*
Y231140D01*
X445623Y232131D01*
X445061Y232971D01*
X437441Y240591D01*
X436601Y241153D01*
X435610Y241350D01*
X416363D01*
X411496Y246217D01*
X410656Y246778D01*
X409665Y246975D01*
X373569D01*
X372498Y248046D01*
X370911Y248703D01*
X369194D01*
X369193Y248703D01*
X368890Y248906D01*
X368890Y248906D01*
Y250445D01*
Y252730D01*
D02*
G37*
G36*
X521803Y198675D02*
X519597D01*
X517467Y198104D01*
X515558Y197002D01*
X513998Y195443D01*
X512896Y193533D01*
X512325Y191403D01*
Y189198D01*
X512896Y187068D01*
X513998Y185158D01*
X515558Y183598D01*
X517467Y182496D01*
X519597Y181925D01*
X521803D01*
X523933Y182496D01*
X525842Y183598D01*
X527402Y185158D01*
X528504Y187068D01*
X529075Y189198D01*
Y191403D01*
X528504Y193533D01*
X527402Y195443D01*
X525842Y197002D01*
X523933Y198104D01*
X521803Y198675D01*
D02*
G37*
G36*
Y173275D02*
X519597D01*
X517467Y172704D01*
X515558Y171602D01*
X513998Y170042D01*
X512896Y168133D01*
X512325Y166003D01*
Y163797D01*
X512896Y161667D01*
X513998Y159758D01*
X515558Y158198D01*
X517467Y157096D01*
X519597Y156525D01*
X521803D01*
X523933Y157096D01*
X525842Y158198D01*
X527402Y159758D01*
X528504Y161667D01*
X529075Y163797D01*
Y166003D01*
X528504Y168133D01*
X527402Y170042D01*
X525842Y171602D01*
X523933Y172704D01*
X521803Y173275D01*
D02*
G37*
G36*
Y147875D02*
X519597D01*
X517467Y147304D01*
X515558Y146202D01*
X513998Y144642D01*
X512896Y142733D01*
X512325Y140603D01*
Y138398D01*
X512896Y136267D01*
X513998Y134358D01*
X515558Y132798D01*
X517467Y131696D01*
X519597Y131125D01*
X521803D01*
X523933Y131696D01*
X525842Y132798D01*
X527402Y134358D01*
X528504Y136267D01*
X529075Y138398D01*
Y140603D01*
X528504Y142733D01*
X527402Y144642D01*
X525842Y146202D01*
X523933Y147304D01*
X521803Y147875D01*
D02*
G37*
G36*
X458657Y141790D02*
X458470D01*
Y128270D01*
X471990D01*
Y128457D01*
X471422Y131314D01*
X470307Y134006D01*
X468688Y136428D01*
X466628Y138488D01*
X464206Y140107D01*
X461514Y141222D01*
X458657Y141790D01*
D02*
G37*
G36*
X407857D02*
X407670D01*
Y128270D01*
X421190D01*
Y128457D01*
X420622Y131314D01*
X419507Y134006D01*
X417888Y136428D01*
X415828Y138488D01*
X413406Y140107D01*
X410714Y141222D01*
X407857Y141790D01*
D02*
G37*
G36*
X455930D02*
X455743D01*
X452886Y141222D01*
X450194Y140107D01*
X447772Y138488D01*
X445712Y136428D01*
X444093Y134006D01*
X442978Y131314D01*
X442410Y128457D01*
Y128270D01*
X455930D01*
Y141790D01*
D02*
G37*
G36*
X405130D02*
X404943D01*
X402086Y141222D01*
X399394Y140107D01*
X396972Y138488D01*
X394912Y136428D01*
X393293Y134006D01*
X392178Y131314D01*
X391610Y128457D01*
Y128270D01*
X405130D01*
Y141790D01*
D02*
G37*
G36*
X471990Y125730D02*
X458470D01*
Y112210D01*
X458657D01*
X461514Y112778D01*
X464206Y113893D01*
X466628Y115512D01*
X468688Y117572D01*
X470307Y119994D01*
X471422Y122686D01*
X471990Y125543D01*
Y125730D01*
D02*
G37*
G36*
X421190D02*
X407670D01*
Y112210D01*
X407857D01*
X408362Y112310D01*
X410714Y112778D01*
X412172Y113382D01*
X413442Y112534D01*
Y90666D01*
X412172Y89818D01*
X410714Y90422D01*
X408362Y90890D01*
X407857Y90990D01*
X407670D01*
Y77470D01*
X421190D01*
Y77657D01*
X420622Y80514D01*
X420018Y81972D01*
X420866Y83242D01*
X442734D01*
X443582Y81972D01*
X442978Y80514D01*
X442420Y77708D01*
X442410Y77657D01*
Y77470D01*
X455930D01*
Y90990D01*
X455743D01*
X452886Y90422D01*
X451428Y89818D01*
X450158Y90666D01*
Y94790D01*
Y108410D01*
Y112534D01*
X451428Y113382D01*
X452886Y112778D01*
X455238Y112310D01*
X455743Y112210D01*
X455930D01*
Y125730D01*
X442410D01*
Y125543D01*
X442978Y122686D01*
X443582Y121228D01*
X442734Y119958D01*
X420866D01*
X420018Y121228D01*
X420622Y122686D01*
X421190Y125543D01*
Y125730D01*
D02*
G37*
G36*
X405130D02*
X391610D01*
Y125543D01*
X392178Y122686D01*
X393293Y119994D01*
X394912Y117572D01*
X396972Y115512D01*
X399394Y113893D01*
X402086Y112778D01*
X404943Y112210D01*
X405130D01*
Y125730D01*
D02*
G37*
G36*
X521803Y122475D02*
X519597D01*
X517467Y121904D01*
X515558Y120802D01*
X513998Y119242D01*
X512896Y117333D01*
X512325Y115203D01*
Y112998D01*
X512896Y110868D01*
X513998Y108958D01*
X515558Y107398D01*
X517467Y106296D01*
X519597Y105725D01*
X521803D01*
X523933Y106296D01*
X525842Y107398D01*
X527402Y108958D01*
X528504Y110868D01*
X529075Y112998D01*
Y115203D01*
X528504Y117333D01*
X527402Y119242D01*
X525842Y120802D01*
X523933Y121904D01*
X521803Y122475D01*
D02*
G37*
G36*
Y97075D02*
X519597D01*
X517467Y96504D01*
X515558Y95402D01*
X513998Y93842D01*
X512896Y91933D01*
X512325Y89803D01*
Y87598D01*
X512896Y85468D01*
X513998Y83558D01*
X515558Y81998D01*
X517467Y80896D01*
X519597Y80325D01*
X521803D01*
X523933Y80896D01*
X525842Y81998D01*
X527402Y83558D01*
X528504Y85468D01*
X529075Y87598D01*
Y89803D01*
X528504Y91933D01*
X527402Y93842D01*
X525842Y95402D01*
X523933Y96504D01*
X521803Y97075D01*
D02*
G37*
G36*
X458657Y90990D02*
X458470D01*
Y77470D01*
X471990D01*
Y77657D01*
X471422Y80514D01*
X470307Y83206D01*
X468688Y85628D01*
X466628Y87688D01*
X464206Y89307D01*
X461514Y90422D01*
X458657Y90990D01*
D02*
G37*
G36*
X405130D02*
X404943D01*
X402086Y90422D01*
X399394Y89307D01*
X396972Y87688D01*
X394912Y85628D01*
X393293Y83206D01*
X392178Y80514D01*
X391610Y77657D01*
Y77470D01*
X405130D01*
Y90990D01*
D02*
G37*
G36*
X544830Y72945D02*
X542377Y72288D01*
X540178Y71018D01*
X538382Y69222D01*
X537112Y67023D01*
X536455Y64570D01*
X544830D01*
Y72945D01*
D02*
G37*
G36*
X471990Y74930D02*
X458470D01*
Y61410D01*
X458657D01*
X461514Y61978D01*
X464206Y63093D01*
X466628Y64712D01*
X468688Y66772D01*
X470307Y69194D01*
X471422Y71886D01*
X471990Y74743D01*
Y74930D01*
D02*
G37*
G36*
X455930D02*
X442410D01*
Y74743D01*
X442978Y71886D01*
X444093Y69194D01*
X445712Y66772D01*
X447772Y64712D01*
X450194Y63093D01*
X452886Y61978D01*
X455743Y61410D01*
X455930D01*
Y74930D01*
D02*
G37*
G36*
X421190D02*
X407670D01*
Y61410D01*
X407857D01*
X410714Y61978D01*
X413406Y63093D01*
X415828Y64712D01*
X417888Y66772D01*
X419507Y69194D01*
X420622Y71886D01*
X421190Y74743D01*
Y74930D01*
D02*
G37*
G36*
X405130D02*
X391610D01*
Y74743D01*
X392178Y71886D01*
X393293Y69194D01*
X394912Y66772D01*
X396972Y64712D01*
X399394Y63093D01*
X402086Y61978D01*
X404943Y61410D01*
X405130D01*
Y74930D01*
D02*
G37*
G36*
X521803Y71675D02*
X519597D01*
X517467Y71104D01*
X515558Y70002D01*
X513998Y68443D01*
X512896Y66533D01*
X512325Y64403D01*
Y62197D01*
X512896Y60068D01*
X513998Y58158D01*
X515558Y56598D01*
X517467Y55496D01*
X519597Y54925D01*
X521803D01*
X523933Y55496D01*
X525842Y56598D01*
X527402Y58158D01*
X528504Y60068D01*
X529075Y62197D01*
Y64403D01*
X528504Y66533D01*
X527402Y68443D01*
X525842Y70002D01*
X523933Y71104D01*
X521803Y71675D01*
D02*
G37*
G36*
X328988Y52324D02*
X327372D01*
X325878Y51705D01*
X324735Y50562D01*
X324116Y49068D01*
Y47452D01*
X324735Y45958D01*
X325878Y44815D01*
X327372Y44196D01*
X328988D01*
X330482Y44815D01*
X330482Y44815D01*
X331625Y45958D01*
X332244Y47452D01*
Y49068D01*
X331625Y50562D01*
X331625Y50562D01*
X330482Y51705D01*
X328988Y52324D01*
D02*
G37*
G36*
X457200Y42636D02*
X451635Y42271D01*
X446165Y41184D01*
X440884Y39391D01*
X435882Y36924D01*
X431245Y33826D01*
X427052Y30148D01*
X423374Y25955D01*
X420276Y21318D01*
X420112Y20987D01*
X418719Y21032D01*
X418481Y21606D01*
X417338Y22749D01*
X417338D01*
D01*
D01*
X415844Y23368D01*
X414228D01*
X412734Y22749D01*
X411591Y21606D01*
X410972Y20112D01*
Y18496D01*
X411591Y17002D01*
X412446Y16146D01*
Y13487D01*
X412372Y12294D01*
D01*
D01*
X412359Y12261D01*
X412141Y11081D01*
X411143Y6064D01*
X410746Y0D01*
X411143Y-6064D01*
X411397Y-7339D01*
X412368Y-12284D01*
X412770Y-13661D01*
X414282Y-17777D01*
X414551Y-18324D01*
X416969Y-23227D01*
X420345Y-28280D01*
X424352Y-32848D01*
X428920Y-36855D01*
X433973Y-40231D01*
X439423Y-42918D01*
X445177Y-44872D01*
X451137Y-46057D01*
X457200Y-46455D01*
X463264Y-46057D01*
X463271Y-46055D01*
X479137Y-61921D01*
X478369Y-68338D01*
X477440Y-68905D01*
X476560Y-68660D01*
X475196Y-68660D01*
X471290D01*
Y-76200D01*
Y-83740D01*
X475196D01*
X476560Y-83740D01*
X477724Y-83415D01*
X482804Y-87108D01*
Y-138066D01*
X481949Y-138922D01*
X481330Y-140416D01*
Y-142032D01*
X481949Y-143526D01*
X483092Y-144669D01*
X484586Y-145288D01*
X486202D01*
X487696Y-144669D01*
X488839Y-143526D01*
X489458Y-142032D01*
Y-140416D01*
X488839Y-138922D01*
X487984Y-138066D01*
Y-82470D01*
X490290D01*
Y-69930D01*
X487984D01*
Y-64516D01*
X487787Y-63525D01*
X487225Y-62685D01*
X487225Y-62685D01*
X470365Y-45825D01*
X471724Y-39999D01*
X473516Y-39391D01*
X478518Y-36924D01*
X483155Y-33826D01*
X487348Y-30148D01*
X491026Y-25955D01*
X494124Y-21318D01*
X496591Y-16316D01*
X498383Y-11035D01*
X499472Y-5565D01*
X499836Y0D01*
X499472Y5565D01*
X498383Y11035D01*
X496591Y16316D01*
X494124Y21318D01*
X491026Y25955D01*
X487348Y30148D01*
X483155Y33826D01*
X478518Y36924D01*
X473516Y39391D01*
X468235Y41184D01*
X462765Y42271D01*
X457200Y42636D01*
D02*
G37*
G36*
X521803Y20875D02*
X519597D01*
X517467Y20304D01*
X515558Y19202D01*
X513998Y17643D01*
X512896Y15733D01*
X512325Y13603D01*
Y11398D01*
X512896Y9268D01*
X513998Y7358D01*
X515558Y5798D01*
X517467Y4696D01*
X519597Y4125D01*
X521803D01*
X523933Y4696D01*
X525842Y5798D01*
X527402Y7358D01*
X528504Y9268D01*
X529075Y11398D01*
Y13603D01*
X528504Y15733D01*
X527402Y17643D01*
X525842Y19202D01*
X523933Y20304D01*
X521803Y20875D01*
D02*
G37*
G36*
X317089Y48768D02*
X315371D01*
X313784Y48111D01*
X312569Y46896D01*
X311912Y45309D01*
Y43794D01*
X299917Y31800D01*
X243840D01*
X242849Y31603D01*
X242009Y31041D01*
X233754Y22786D01*
X208936Y-2032D01*
X207421D01*
X205834Y-2689D01*
X204619Y-3904D01*
X203962Y-5491D01*
Y-7209D01*
X204619Y-8796D01*
X205834Y-10011D01*
X207421Y-10668D01*
X209139D01*
X210726Y-10011D01*
X211941Y-8796D01*
X212598Y-7209D01*
Y-5695D01*
X237416Y19124D01*
X244913Y26620D01*
X300990D01*
X301981Y26817D01*
X302821Y27379D01*
X315574Y40132D01*
X317089D01*
X318676Y40789D01*
X319891Y42004D01*
X320548Y43591D01*
Y45309D01*
X319891Y46896D01*
X318676Y48111D01*
X317089Y48768D01*
D02*
G37*
G36*
X547203Y-4525D02*
X544997D01*
X542867Y-5096D01*
X540958Y-6198D01*
X539398Y-7757D01*
X538296Y-9667D01*
X537725Y-11797D01*
Y-14002D01*
X538296Y-16133D01*
X539398Y-18042D01*
X540958Y-19602D01*
X542867Y-20704D01*
X544997Y-21275D01*
X547203D01*
X549333Y-20704D01*
X551242Y-19602D01*
X552802Y-18042D01*
X553904Y-16133D01*
X554475Y-14002D01*
Y-11797D01*
X553904Y-9667D01*
X552802Y-7757D01*
X551242Y-6198D01*
X549333Y-5096D01*
X547203Y-4525D01*
D02*
G37*
G36*
X521803D02*
X519597D01*
X517467Y-5096D01*
X515558Y-6198D01*
X513998Y-7757D01*
X512896Y-9667D01*
X512325Y-11797D01*
Y-14002D01*
X512896Y-16133D01*
X513998Y-18042D01*
X515558Y-19602D01*
X517467Y-20704D01*
X519597Y-21275D01*
X521803D01*
X523933Y-20704D01*
X525842Y-19602D01*
X527402Y-18042D01*
X528504Y-16133D01*
X529075Y-14002D01*
Y-11797D01*
X528504Y-9667D01*
X527402Y-7757D01*
X525842Y-6198D01*
X523933Y-5096D01*
X521803Y-4525D01*
D02*
G37*
G36*
X323908Y-27686D02*
X323908Y-27686D01*
X322292D01*
X320798Y-28305D01*
X319655Y-29448D01*
X318786Y-30284D01*
X318600Y-30416D01*
X316769Y-30649D01*
X316731D01*
X314900Y-30416D01*
X314714Y-30284D01*
X313845Y-29448D01*
X312702Y-28305D01*
X311208Y-27686D01*
X311208Y-27686D01*
X309592D01*
X309592Y-27686D01*
X309152Y-27868D01*
X308098Y-28305D01*
X306955Y-29448D01*
X306086Y-30284D01*
X305900Y-30416D01*
X304069Y-30649D01*
X304031D01*
X302200Y-30416D01*
X302014Y-30284D01*
X301145Y-29448D01*
X300002Y-28305D01*
X298508Y-27686D01*
X296892D01*
X296892Y-27686D01*
X296891Y-27686D01*
X296452Y-27868D01*
X295398Y-28305D01*
X294255Y-29448D01*
X294255Y-29448D01*
X293636Y-30942D01*
X293636Y-30942D01*
X293636Y-31068D01*
X293636Y-32558D01*
X293636Y-32558D01*
X294255Y-34052D01*
X294255Y-34052D01*
X295398Y-35195D01*
X296891Y-35814D01*
X296892Y-35814D01*
X296892Y-35814D01*
X298508D01*
X300002Y-35195D01*
X301145Y-34053D01*
X302014Y-33217D01*
X302200Y-33084D01*
X304031Y-32851D01*
X304069D01*
X305900Y-33084D01*
X306086Y-33217D01*
X306955Y-34052D01*
X308098Y-35195D01*
X309592Y-35814D01*
X309592Y-35814D01*
X311208D01*
X312702Y-35195D01*
X313845Y-34053D01*
X314714Y-33217D01*
X314900Y-33084D01*
X316731Y-32851D01*
X316769D01*
X318600Y-33084D01*
X318786Y-33217D01*
X319655Y-34052D01*
X320798Y-35195D01*
X322292Y-35814D01*
X323908D01*
X323908Y-35814D01*
X323909Y-35814D01*
X324348Y-35632D01*
X325402Y-35195D01*
X325402Y-35195D01*
X326545Y-34052D01*
X326545Y-34052D01*
X327164Y-32558D01*
X327164Y-32558D01*
X327164Y-32432D01*
Y-31068D01*
X327164Y-30942D01*
X326991Y-30523D01*
X326545Y-29448D01*
X326545Y-29448D01*
X325402Y-28305D01*
X323909Y-27686D01*
X323908Y-27686D01*
D02*
G37*
G36*
X547203Y-29925D02*
X544997D01*
X542867Y-30496D01*
X540958Y-31598D01*
X539398Y-33157D01*
X538296Y-35067D01*
X537725Y-37197D01*
Y-39402D01*
X538296Y-41533D01*
X539398Y-43442D01*
X540958Y-45002D01*
X542867Y-46104D01*
X544997Y-46675D01*
X547203D01*
X549333Y-46104D01*
X551242Y-45002D01*
X552802Y-43442D01*
X553904Y-41533D01*
X554475Y-39402D01*
Y-37197D01*
X553904Y-35067D01*
X552802Y-33157D01*
X551242Y-31598D01*
X549333Y-30496D01*
X547203Y-29925D01*
D02*
G37*
G36*
X521803D02*
X519597D01*
X517467Y-30496D01*
X515558Y-31598D01*
X513998Y-33157D01*
X512896Y-35067D01*
X512325Y-37197D01*
Y-39402D01*
X512896Y-41533D01*
X513998Y-43442D01*
X515558Y-45002D01*
X517467Y-46104D01*
X519597Y-46675D01*
X521803D01*
X523933Y-46104D01*
X525842Y-45002D01*
X527402Y-43442D01*
X528504Y-41533D01*
X529075Y-39402D01*
Y-37197D01*
X528504Y-35067D01*
X527402Y-33157D01*
X525842Y-31598D01*
X523933Y-30496D01*
X521803Y-29925D01*
D02*
G37*
G36*
X331837Y-45214D02*
X324817D01*
Y-49734D01*
X331837D01*
Y-45214D01*
D02*
G37*
G36*
X322277D02*
X315257D01*
Y-49734D01*
X322277D01*
Y-45214D01*
D02*
G37*
G36*
X273858Y-53086D02*
X272242D01*
X270748Y-53705D01*
X269605Y-54847D01*
X268736Y-55683D01*
X268550Y-55816D01*
X266719Y-56049D01*
X266681D01*
X264850Y-55816D01*
X264664Y-55683D01*
X263795Y-54848D01*
X262652Y-53705D01*
X261158Y-53086D01*
X259542D01*
X258048Y-53705D01*
X256905Y-54848D01*
X256286Y-56342D01*
Y-57958D01*
X256905Y-59452D01*
X258048Y-60595D01*
X258883Y-61464D01*
X259016Y-61650D01*
X259249Y-63481D01*
Y-63519D01*
X259016Y-65350D01*
X258883Y-65536D01*
X258048Y-66405D01*
X256905Y-67548D01*
X256286Y-69042D01*
X256286Y-70658D01*
X256286Y-70658D01*
X256286Y-70658D01*
X256468Y-71098D01*
X256905Y-72152D01*
X256905Y-72152D01*
X258048Y-73295D01*
X259541Y-73914D01*
X259542Y-73914D01*
X259542Y-73914D01*
X259668Y-73914D01*
X261158D01*
X262652Y-73295D01*
X263795Y-72153D01*
X264664Y-71316D01*
X264850Y-71184D01*
X266681Y-70951D01*
X266719D01*
X268550Y-71184D01*
X268736Y-71316D01*
X269605Y-72152D01*
X270748Y-73295D01*
X272242Y-73914D01*
X273858D01*
X275352Y-73295D01*
X276495Y-72152D01*
X277114Y-70658D01*
Y-69042D01*
X276495Y-67548D01*
X275352Y-66405D01*
X274517Y-65536D01*
X274384Y-65350D01*
X274151Y-63519D01*
Y-63481D01*
X274384Y-61650D01*
X274517Y-61464D01*
X275352Y-60595D01*
X276495Y-59452D01*
X277114Y-57958D01*
Y-56342D01*
X276495Y-54848D01*
X275352Y-53705D01*
X273858Y-53086D01*
D02*
G37*
G36*
X521970Y-54055D02*
Y-62430D01*
X530345D01*
X529688Y-59977D01*
X528418Y-57778D01*
X526622Y-55982D01*
X524423Y-54712D01*
X521970Y-54055D01*
D02*
G37*
G36*
X519430D02*
X516977Y-54712D01*
X514778Y-55982D01*
X512982Y-57778D01*
X511712Y-59977D01*
X511055Y-62430D01*
X519430D01*
Y-54055D01*
D02*
G37*
G36*
X547203Y-55325D02*
X544997D01*
X542867Y-55896D01*
X540958Y-56998D01*
X539398Y-58558D01*
X538296Y-60467D01*
X537725Y-62597D01*
Y-64802D01*
X538296Y-66933D01*
X539398Y-68842D01*
X540958Y-70402D01*
X542867Y-71504D01*
X544997Y-72075D01*
X547203D01*
X549333Y-71504D01*
X551242Y-70402D01*
X552802Y-68842D01*
X553904Y-66933D01*
X554475Y-64802D01*
Y-62597D01*
X553904Y-60467D01*
X552802Y-58558D01*
X551242Y-56998D01*
X549333Y-55896D01*
X547203Y-55325D01*
D02*
G37*
G36*
X530345Y-64970D02*
X521970D01*
Y-73345D01*
X524423Y-72688D01*
X526622Y-71418D01*
X528418Y-69622D01*
X529688Y-67423D01*
X530345Y-64970D01*
D02*
G37*
G36*
X519430D02*
X511055D01*
X511712Y-67423D01*
X512982Y-69622D01*
X514778Y-71418D01*
X516977Y-72688D01*
X519430Y-73345D01*
Y-64970D01*
D02*
G37*
G36*
X379167Y-44074D02*
X374707D01*
X374087Y-44074D01*
X364167D01*
Y-47754D01*
X361627D01*
X360636Y-47951D01*
X359795Y-48513D01*
X355746Y-52563D01*
X355584Y-52804D01*
X352404Y-55984D01*
X342027D01*
Y-65024D01*
X356067D01*
Y-59647D01*
X359090Y-56623D01*
X364167Y-56614D01*
X364167Y-56614D01*
X365013Y-56819D01*
X367501Y-62649D01*
X366487Y-64394D01*
X364167D01*
Y-76934D01*
X371044D01*
X381287Y-87177D01*
Y-88633D01*
X381937Y-90203D01*
X383138Y-91404D01*
X384707Y-92054D01*
X386406D01*
X387975Y-91404D01*
X389006Y-90374D01*
X403427D01*
Y-92304D01*
X404345D01*
X405337Y-93147D01*
X406370Y-95176D01*
X403594Y-100225D01*
X381000D01*
X380028Y-100628D01*
X379625Y-101600D01*
Y-116418D01*
X378952Y-116697D01*
X377809Y-117840D01*
X377190Y-119334D01*
Y-120950D01*
X377809Y-122444D01*
X378952Y-123587D01*
X379625Y-123866D01*
Y-146050D01*
X380028Y-147022D01*
X381000Y-147425D01*
X457200D01*
X458172Y-147022D01*
X458575Y-146050D01*
Y-84162D01*
X463480Y-83740D01*
X463655Y-83740D01*
X468750D01*
Y-76200D01*
Y-68660D01*
X463480D01*
Y-69428D01*
X458575Y-69850D01*
X458172Y-68878D01*
X457200Y-68475D01*
X420887D01*
X418444Y-65242D01*
X417967Y-64264D01*
X403427D01*
Y-68726D01*
X399475Y-72678D01*
X398780Y-72390D01*
X398005D01*
X396441Y-70826D01*
X395391Y-70124D01*
X394152Y-69878D01*
X389707D01*
Y-64394D01*
X384006D01*
X381818Y-59486D01*
X384067Y-56614D01*
X389707D01*
Y-44074D01*
X379787D01*
X379167Y-44074D01*
D02*
G37*
G36*
X347607Y-84634D02*
Y-90904D01*
X352877D01*
Y-84634D01*
X347607D01*
D02*
G37*
G36*
X547203Y-80725D02*
X544997D01*
X542867Y-81296D01*
X540958Y-82398D01*
X539398Y-83958D01*
X538296Y-85867D01*
X537725Y-87997D01*
Y-90203D01*
X538296Y-92332D01*
X539398Y-94242D01*
X540958Y-95802D01*
X542867Y-96904D01*
X544997Y-97475D01*
X547203D01*
X549333Y-96904D01*
X551242Y-95802D01*
X552802Y-94242D01*
X553904Y-92332D01*
X554475Y-90203D01*
Y-87997D01*
X553904Y-85867D01*
X552802Y-83958D01*
X551242Y-82398D01*
X549333Y-81296D01*
X547203Y-80725D01*
D02*
G37*
G36*
X521803D02*
X519597D01*
X517467Y-81296D01*
X515558Y-82398D01*
X513998Y-83958D01*
X512896Y-85867D01*
X512325Y-87997D01*
Y-90203D01*
X512896Y-92332D01*
X513998Y-94242D01*
X515558Y-95802D01*
X517467Y-96904D01*
X519597Y-97475D01*
X521803D01*
X523933Y-96904D01*
X525842Y-95802D01*
X527402Y-94242D01*
X528504Y-92332D01*
X529075Y-90203D01*
Y-87997D01*
X528504Y-85867D01*
X527402Y-83958D01*
X525842Y-82398D01*
X523933Y-81296D01*
X521803Y-80725D01*
D02*
G37*
G36*
X352877Y-93444D02*
X347607D01*
Y-99714D01*
X352877D01*
Y-93444D01*
D02*
G37*
G36*
X331837Y-52274D02*
X323547D01*
X315257D01*
Y-56794D01*
X315257D01*
X318516Y-59390D01*
Y-61006D01*
X316527Y-65484D01*
X316527D01*
Y-74524D01*
X325437D01*
Y-78396D01*
X325634Y-79387D01*
X326195Y-80227D01*
X326792Y-80824D01*
X326067Y-85904D01*
X326067D01*
Y-98444D01*
X335243D01*
X339797Y-99714D01*
X341161Y-99714D01*
X345067D01*
Y-92174D01*
Y-84634D01*
X341161D01*
X339797Y-84634D01*
X339007Y-84854D01*
X334413Y-82008D01*
X333800Y-81072D01*
X333729Y-80715D01*
X333168Y-79875D01*
X330616Y-77323D01*
Y-71984D01*
X330567Y-71734D01*
Y-65484D01*
X330567D01*
X329220Y-60673D01*
X329858Y-57504D01*
X331067Y-56794D01*
X331837D01*
Y-52274D01*
D02*
G37*
G36*
X547203Y-106125D02*
X544997D01*
X542867Y-106696D01*
X540958Y-107798D01*
X539398Y-109358D01*
X538296Y-111267D01*
X537725Y-113397D01*
Y-115603D01*
X538296Y-117732D01*
X539398Y-119642D01*
X540958Y-121202D01*
X542867Y-122304D01*
X544997Y-122875D01*
X547203D01*
X549333Y-122304D01*
X551242Y-121202D01*
X552802Y-119642D01*
X553904Y-117732D01*
X554475Y-115603D01*
Y-113397D01*
X553904Y-111267D01*
X552802Y-109358D01*
X551242Y-107798D01*
X549333Y-106696D01*
X547203Y-106125D01*
D02*
G37*
G36*
X521803D02*
X519597D01*
X517467Y-106696D01*
X515558Y-107798D01*
X513998Y-109358D01*
X512896Y-111267D01*
X512325Y-113397D01*
Y-115603D01*
X512896Y-117732D01*
X513998Y-119642D01*
X515558Y-121202D01*
X517467Y-122304D01*
X519597Y-122875D01*
X521803D01*
X523933Y-122304D01*
X525842Y-121202D01*
X527402Y-119642D01*
X528504Y-117732D01*
X529075Y-115603D01*
Y-113397D01*
X528504Y-111267D01*
X527402Y-109358D01*
X525842Y-107798D01*
X523933Y-106696D01*
X521803Y-106125D01*
D02*
G37*
G36*
X547203Y-131525D02*
X544997D01*
X542867Y-132096D01*
X540958Y-133198D01*
X539398Y-134757D01*
X538296Y-136667D01*
X537725Y-138797D01*
Y-141003D01*
X538296Y-143132D01*
X539398Y-145042D01*
X540958Y-146602D01*
X542867Y-147704D01*
X544997Y-148275D01*
X547203D01*
X549333Y-147704D01*
X551242Y-146602D01*
X552802Y-145042D01*
X553904Y-143132D01*
X554475Y-141003D01*
Y-138797D01*
X553904Y-136667D01*
X552802Y-134757D01*
X551242Y-133198D01*
X549333Y-132096D01*
X547203Y-131525D01*
D02*
G37*
G36*
X521803D02*
X519597D01*
X517467Y-132096D01*
X515558Y-133198D01*
X513998Y-134757D01*
X512896Y-136667D01*
X512325Y-138797D01*
Y-141003D01*
X512896Y-143132D01*
X513998Y-145042D01*
X515558Y-146602D01*
X517467Y-147704D01*
X519597Y-148275D01*
X521803D01*
X523933Y-147704D01*
X525842Y-146602D01*
X527402Y-145042D01*
X528504Y-143132D01*
X529075Y-141003D01*
Y-138797D01*
X528504Y-136667D01*
X527402Y-134757D01*
X525842Y-133198D01*
X523933Y-132096D01*
X521803Y-131525D01*
D02*
G37*
G36*
X345232Y-146050D02*
X343616D01*
X342122Y-146669D01*
X340979Y-147812D01*
X340360Y-149306D01*
Y-150922D01*
X340979Y-152416D01*
X342122Y-153559D01*
X343616Y-154178D01*
X345232D01*
X346726Y-153559D01*
X347869Y-152416D01*
X348488Y-150922D01*
Y-149306D01*
X347869Y-147812D01*
X346726Y-146669D01*
X345232Y-146050D01*
D02*
G37*
G36*
X334389Y-153670D02*
X332772D01*
X331278Y-154289D01*
X330135Y-155432D01*
X329516Y-156926D01*
Y-158542D01*
X330135Y-160036D01*
X331278Y-161179D01*
X332772Y-161798D01*
X334389D01*
X335882Y-161179D01*
X337025Y-160036D01*
X337644Y-158542D01*
Y-156926D01*
X337025Y-155432D01*
X335882Y-154289D01*
X334389Y-153670D01*
D02*
G37*
G36*
X492858Y-169950D02*
X492760D01*
Y-179070D01*
X501880D01*
Y-178972D01*
X501172Y-176330D01*
X499804Y-173960D01*
X497870Y-172026D01*
X495500Y-170658D01*
X492858Y-169950D01*
D02*
G37*
G36*
X490220D02*
X490122D01*
X487480Y-170658D01*
X485110Y-172026D01*
X483176Y-173960D01*
X481808Y-176330D01*
X481100Y-178972D01*
Y-179070D01*
X490220D01*
Y-169950D01*
D02*
G37*
G36*
X501880Y-181610D02*
X492760D01*
Y-190730D01*
X492858D01*
X495500Y-190022D01*
X497870Y-188654D01*
X499804Y-186720D01*
X501172Y-184350D01*
X501880Y-181708D01*
Y-181610D01*
D02*
G37*
G36*
X490220D02*
X481100D01*
Y-181708D01*
X481808Y-184350D01*
X483176Y-186720D01*
X485110Y-188654D01*
X487480Y-190022D01*
X490122Y-190730D01*
X490220D01*
Y-181610D01*
D02*
G37*
G36*
X553558Y-189086D02*
X551587D01*
X549767Y-189840D01*
X548373Y-191234D01*
X547619Y-193054D01*
Y-195024D01*
X548373Y-196845D01*
X549767Y-198238D01*
X551587Y-198992D01*
X553558D01*
X555378Y-198238D01*
X556771Y-196845D01*
X557525Y-195024D01*
Y-193054D01*
X556771Y-191234D01*
X555378Y-189840D01*
X553558Y-189086D01*
D02*
G37*
G36*
X234712Y-218300D02*
X219442D01*
Y-225320D01*
X234712D01*
Y-218300D01*
D02*
G37*
G36*
X196612D02*
X181342D01*
Y-225320D01*
X196612D01*
Y-218300D01*
D02*
G37*
G36*
X216902D02*
X201632D01*
Y-225320D01*
X216902D01*
Y-218300D01*
D02*
G37*
G36*
X178802D02*
X163532D01*
Y-225320D01*
X178802D01*
Y-218300D01*
D02*
G37*
G36*
X234712Y-227860D02*
X219442D01*
Y-234880D01*
X234712D01*
Y-227860D01*
D02*
G37*
G36*
X216902D02*
X201632D01*
Y-234880D01*
X216902D01*
Y-227860D01*
D02*
G37*
G36*
X196612D02*
X181342D01*
Y-234880D01*
X196612D01*
Y-227860D01*
D02*
G37*
G36*
X178802D02*
X163532D01*
Y-234880D01*
X178802D01*
Y-234698D01*
Y-227860D01*
D02*
G37*
G36*
X357340Y-216790D02*
X354900D01*
X352542Y-217422D01*
X350428Y-218642D01*
X348702Y-220368D01*
X347482Y-222482D01*
X346850Y-224840D01*
Y-227280D01*
X347482Y-229638D01*
X348702Y-231752D01*
X350428Y-233478D01*
X352542Y-234698D01*
X354900Y-235330D01*
X357340D01*
X359698Y-234698D01*
X361812Y-233478D01*
X363538Y-231752D01*
X364758Y-229638D01*
X365390Y-227280D01*
Y-224840D01*
X364758Y-222482D01*
X363538Y-220368D01*
X361812Y-218642D01*
X359698Y-217422D01*
X357340Y-216790D01*
D02*
G37*
G36*
X331940D02*
X329500D01*
X327142Y-217422D01*
X325028Y-218642D01*
X323302Y-220368D01*
X322082Y-222482D01*
X321450Y-224840D01*
Y-227280D01*
X322082Y-229638D01*
X323302Y-231752D01*
X325028Y-233478D01*
X327142Y-234698D01*
X329500Y-235330D01*
X331940D01*
X334298Y-234698D01*
X336412Y-233478D01*
X338138Y-231752D01*
X339358Y-229638D01*
X339990Y-227280D01*
Y-224840D01*
X339358Y-222482D01*
X338138Y-220368D01*
X336412Y-218642D01*
X334298Y-217422D01*
X331940Y-216790D01*
D02*
G37*
G36*
X306540D02*
X304100D01*
X301742Y-217422D01*
X299628Y-218642D01*
X297902Y-220368D01*
X296682Y-222482D01*
X296050Y-224840D01*
Y-227280D01*
X296682Y-229638D01*
X297902Y-231752D01*
X299628Y-233478D01*
X301742Y-234698D01*
X304100Y-235330D01*
X306540D01*
X308898Y-234698D01*
X311012Y-233478D01*
X312738Y-231752D01*
X313958Y-229638D01*
X314590Y-227280D01*
Y-224840D01*
X313958Y-222482D01*
X312738Y-220368D01*
X311012Y-218642D01*
X308898Y-217422D01*
X306540Y-216790D01*
D02*
G37*
G36*
X547500Y-212480D02*
X527960D01*
Y-232020D01*
X533904D01*
X534848Y-236894D01*
X532162Y-238007D01*
X529856Y-239776D01*
X528087Y-242082D01*
X526974Y-244768D01*
X526762Y-246380D01*
X537730D01*
X548698D01*
X548486Y-244768D01*
X547373Y-242082D01*
X545604Y-239776D01*
X543298Y-238007D01*
X540612Y-236894D01*
X541556Y-232020D01*
X547500D01*
Y-212480D01*
D02*
G37*
G36*
X357508Y-240920D02*
X357390D01*
Y-250190D01*
X366660D01*
Y-250072D01*
X365942Y-247392D01*
X364554Y-244988D01*
X362592Y-243026D01*
X360188Y-241638D01*
X357508Y-240920D01*
D02*
G37*
G36*
X354850D02*
X354732D01*
X352052Y-241638D01*
X349648Y-243026D01*
X347686Y-244988D01*
X346298Y-247392D01*
X345580Y-250072D01*
Y-250190D01*
X354850D01*
Y-240920D01*
D02*
G37*
G36*
X331940Y-242190D02*
X329500D01*
X327142Y-242822D01*
X325028Y-244042D01*
X323302Y-245768D01*
X322082Y-247882D01*
X321450Y-250240D01*
Y-252680D01*
X322082Y-255038D01*
X323302Y-257152D01*
X325028Y-258878D01*
X327142Y-260098D01*
X329500Y-260730D01*
X331940D01*
X334298Y-260098D01*
X336412Y-258878D01*
X338138Y-257152D01*
X339358Y-255038D01*
X339990Y-252680D01*
Y-250240D01*
X339358Y-247882D01*
X338138Y-245768D01*
X336412Y-244042D01*
X334298Y-242822D01*
X331940Y-242190D01*
D02*
G37*
G36*
X314590D02*
X296050D01*
Y-260730D01*
X314590D01*
Y-242190D01*
D02*
G37*
G36*
X366660Y-252730D02*
X357390D01*
Y-262000D01*
X357508D01*
X360188Y-261282D01*
X362592Y-259894D01*
X364554Y-257932D01*
X365942Y-255528D01*
X366660Y-252848D01*
Y-252730D01*
D02*
G37*
G36*
X354850D02*
X345580D01*
Y-252848D01*
X346298Y-255528D01*
X347686Y-257932D01*
X349648Y-259894D01*
X352052Y-261282D01*
X354732Y-262000D01*
X354850D01*
Y-252730D01*
D02*
G37*
G36*
X548698Y-248920D02*
X537730D01*
X526762D01*
X526974Y-250532D01*
X528087Y-253218D01*
X529856Y-255524D01*
X532162Y-257293D01*
X534848Y-258406D01*
X535021Y-258429D01*
X535179Y-263531D01*
X532803Y-264516D01*
X530762Y-266082D01*
X529196Y-268123D01*
X528212Y-270499D01*
X527876Y-273050D01*
X528212Y-275600D01*
X529196Y-277977D01*
X530762Y-280018D01*
X532803Y-281584D01*
X535179Y-282568D01*
X537730Y-282904D01*
X540280Y-282568D01*
X542657Y-281584D01*
X544698Y-280018D01*
X546264Y-277977D01*
X547248Y-275600D01*
X547584Y-273050D01*
X547248Y-270499D01*
X546264Y-268123D01*
X544698Y-266082D01*
X542657Y-264516D01*
X540280Y-263531D01*
X540439Y-258429D01*
X540612Y-258406D01*
X543298Y-257293D01*
X545604Y-255524D01*
X547373Y-253218D01*
X548486Y-250532D01*
X548698Y-248920D01*
D02*
G37*
%LPD*%
G36*
X413459Y236929D02*
X414299Y236367D01*
X415040Y236220D01*
X414990Y234950D01*
X413496Y234331D01*
X412641Y233476D01*
X388366D01*
X387375Y233279D01*
X386535Y232717D01*
X373200Y219382D01*
X372307Y218490D01*
X368120D01*
Y220645D01*
Y222420D01*
X364190D01*
Y228430D01*
X367620D01*
Y239576D01*
X368676Y240282D01*
X369193Y240067D01*
X370911D01*
X372498Y240725D01*
X373569Y241796D01*
X408592D01*
X413459Y236929D01*
D02*
G37*
G36*
X457200Y-146050D02*
X381000D01*
Y-101600D01*
X414168D01*
X421227Y-108659D01*
X422067Y-109221D01*
X423058Y-109418D01*
X430142D01*
X430142Y-115348D01*
X428951Y-115538D01*
X428872D01*
Y-124058D01*
X438912D01*
X448952D01*
Y-115538D01*
X448873D01*
X447682Y-115348D01*
X447682Y-114268D01*
Y-98308D01*
X430142D01*
Y-104238D01*
X424131D01*
X419100Y-99207D01*
Y-80512D01*
X420370Y-79992D01*
X421640Y-80518D01*
X423257D01*
X424751Y-79899D01*
X425894Y-78756D01*
X426512Y-77262D01*
Y-75646D01*
X425894Y-74152D01*
X424751Y-73009D01*
X423257Y-72390D01*
X421640D01*
X421633Y-72393D01*
X420361Y-71120D01*
X420887Y-69850D01*
X457200D01*
Y-146050D01*
D02*
G37*
%LPC*%
G36*
X448237Y-72494D02*
X440967D01*
Y-77014D01*
X448237D01*
Y-72494D01*
D02*
G37*
G36*
X438427D02*
X431157D01*
Y-77014D01*
X438427D01*
Y-72494D01*
D02*
G37*
G36*
X448237Y-79554D02*
X440967D01*
Y-84074D01*
X448237D01*
Y-79554D01*
D02*
G37*
G36*
X438427D02*
X431157D01*
Y-84074D01*
X438427D01*
Y-79554D01*
D02*
G37*
G36*
X417368Y-107696D02*
X415752D01*
X414258Y-108315D01*
X413115Y-109458D01*
X412496Y-110952D01*
Y-112568D01*
X413115Y-114062D01*
X414258Y-115205D01*
X415752Y-115824D01*
X417368D01*
X418862Y-115205D01*
X420005Y-114062D01*
X420624Y-112568D01*
Y-110952D01*
X420005Y-109458D01*
X418862Y-108315D01*
X417368Y-107696D01*
D02*
G37*
G36*
X448952Y-126598D02*
X440182D01*
Y-135118D01*
X448952D01*
Y-126598D01*
D02*
G37*
G36*
X437642D02*
X428872D01*
Y-135118D01*
X437642D01*
Y-126598D01*
D02*
G37*
G36*
X204600Y710753D02*
X200870D01*
Y706120D01*
X210251D01*
X210054Y707109D01*
X208774Y709024D01*
X206859Y710304D01*
X204600Y710753D01*
D02*
G37*
G36*
X8550Y680600D02*
X1280D01*
Y671830D01*
X8550D01*
Y680600D01*
D02*
G37*
G36*
Y669290D02*
X1280D01*
Y660520D01*
X8550D01*
Y669290D01*
D02*
G37*
G36*
X136550Y605820D02*
X129530D01*
Y590550D01*
X136550D01*
Y605820D01*
D02*
G37*
G36*
X126990D02*
X119970D01*
Y590550D01*
X126990D01*
Y605820D01*
D02*
G37*
G36*
X136550Y588010D02*
X129530D01*
Y572740D01*
X136550D01*
Y572800D01*
Y588010D01*
D02*
G37*
G36*
X126990D02*
X121164D01*
X119970D01*
Y572740D01*
X126990D01*
Y588010D01*
D02*
G37*
G36*
X159390Y565070D02*
X154120D01*
Y558800D01*
X159390D01*
Y565070D01*
D02*
G37*
G36*
X136550Y567720D02*
X129530D01*
Y552450D01*
X135611D01*
X136550D01*
Y567720D01*
D02*
G37*
G36*
X126990D02*
X119970D01*
Y567660D01*
Y552450D01*
X126990D01*
Y567720D01*
D02*
G37*
G36*
X159390Y556260D02*
X154120D01*
Y549990D01*
X159390D01*
Y556260D01*
D02*
G37*
G36*
X136550Y549910D02*
X129530D01*
Y534640D01*
X136550D01*
Y549910D01*
D02*
G37*
G36*
X126990D02*
X119970D01*
Y534640D01*
X126990D01*
Y549910D01*
D02*
G37*
G36*
X321970Y622330D02*
X314950D01*
Y607060D01*
X321970D01*
Y622330D01*
D02*
G37*
G36*
X312410D02*
X305390D01*
Y607060D01*
X312410D01*
Y622330D01*
D02*
G37*
G36*
X321970Y604520D02*
X314950D01*
Y589250D01*
X321970D01*
Y604520D01*
D02*
G37*
G36*
X312410D02*
X305390D01*
Y589250D01*
X312410D01*
Y604520D01*
D02*
G37*
G36*
X321970Y584230D02*
X314950D01*
Y568960D01*
X321970D01*
Y584230D01*
D02*
G37*
G36*
X312410D02*
X305390D01*
Y568960D01*
X312410D01*
Y584230D01*
D02*
G37*
G36*
X321970Y566420D02*
X314950D01*
Y551150D01*
X321970D01*
Y566420D01*
D02*
G37*
G36*
X324940Y544830D02*
X318420D01*
Y538310D01*
X324940D01*
Y544830D01*
D02*
G37*
G36*
X377520Y591420D02*
X361250D01*
Y565150D01*
X377520D01*
Y591420D01*
D02*
G37*
G36*
X358710D02*
X342440D01*
Y565150D01*
X358710D01*
Y591420D01*
D02*
G37*
G36*
X377520Y562610D02*
X361250D01*
Y536340D01*
X377520D01*
Y562610D01*
D02*
G37*
G36*
X358710D02*
X342440D01*
Y536340D01*
X358710D01*
Y562610D01*
D02*
G37*
G36*
X338390Y523670D02*
X333870D01*
Y516400D01*
X338390D01*
Y523670D01*
D02*
G37*
G36*
X357560Y521270D02*
X351040D01*
Y514750D01*
X357560D01*
Y521270D01*
D02*
G37*
G36*
X348500D02*
X341980D01*
Y514750D01*
X348500D01*
Y521270D01*
D02*
G37*
G36*
X357320Y480090D02*
X350300D01*
Y464820D01*
X357320D01*
Y480090D01*
D02*
G37*
G36*
X347760D02*
X340740D01*
Y464820D01*
X347760D01*
Y468362D01*
Y480090D01*
D02*
G37*
G36*
X319170Y469820D02*
Y463550D01*
X324440D01*
Y469820D01*
D01*
X319170D01*
D02*
G37*
G36*
X324440Y461010D02*
X319170D01*
Y454740D01*
X324440D01*
Y461010D01*
D02*
G37*
G36*
X357320Y462280D02*
X350300D01*
Y447010D01*
X357320D01*
Y447070D01*
Y462280D01*
D02*
G37*
G36*
X347760D02*
X340740D01*
Y447010D01*
X347760D01*
Y462280D01*
D02*
G37*
G36*
X357320Y441990D02*
X350300D01*
Y426720D01*
X357320D01*
Y441990D01*
D02*
G37*
G36*
X347760D02*
X340740D01*
Y441930D01*
Y441930D01*
Y426720D01*
X340844D01*
X347760D01*
Y441990D01*
D02*
G37*
G36*
X137850Y505060D02*
X131330D01*
Y498540D01*
X137850D01*
Y505060D01*
D02*
G37*
G36*
X128790D02*
X122270D01*
Y498540D01*
X128790D01*
Y505060D01*
D02*
G37*
G36*
X144690Y503410D02*
X140170D01*
Y496140D01*
X144690D01*
Y503410D01*
D02*
G37*
G36*
X118580Y491090D02*
Y464820D01*
X134850D01*
Y491090D01*
X118580D01*
D02*
G37*
G36*
X134850Y462280D02*
X118580D01*
Y436010D01*
X134850D01*
Y462280D01*
D02*
G37*
G36*
X39360Y680600D02*
X32090D01*
Y671830D01*
X39360D01*
Y680600D01*
D02*
G37*
G36*
X29550D02*
X22280D01*
Y671830D01*
X29550D01*
Y680600D01*
D02*
G37*
G36*
X72390Y667140D02*
Y662940D01*
X76590D01*
X75817Y664808D01*
X74258Y666367D01*
X72390Y667140D01*
D02*
G37*
G36*
X69850D02*
X67982Y666367D01*
X66423Y664808D01*
X65650Y662940D01*
X69850D01*
Y667140D01*
D02*
G37*
G36*
X39360Y669290D02*
X32090D01*
Y660520D01*
X39360D01*
Y669290D01*
D02*
G37*
G36*
X29550D02*
X22280D01*
Y660520D01*
X29550D01*
Y669290D01*
D02*
G37*
G36*
X76590Y660400D02*
X72390D01*
Y656200D01*
X74258Y656973D01*
X75817Y658532D01*
X76590Y660400D01*
D02*
G37*
G36*
X69850D02*
X65650D01*
X66423Y658532D01*
X67982Y656973D01*
X69850Y656200D01*
Y660400D01*
D02*
G37*
G36*
X102050Y605820D02*
X95030D01*
Y590550D01*
X102050D01*
Y605820D01*
D02*
G37*
G36*
X92490D02*
X85470D01*
Y590550D01*
X92490D01*
Y605820D01*
D02*
G37*
G36*
X102050Y588010D02*
X95030D01*
Y572740D01*
X102050D01*
Y588010D01*
D02*
G37*
G36*
X92490D02*
X85470D01*
Y572740D01*
X92490D01*
Y588010D01*
D02*
G37*
G36*
X102050Y567720D02*
X95030D01*
Y552450D01*
X102050D01*
Y567720D01*
D02*
G37*
G36*
X92490D02*
X85470D01*
Y552450D01*
X92490D01*
Y567720D01*
D02*
G37*
G36*
X102050Y549910D02*
X95030D01*
Y534640D01*
X102050D01*
Y549910D01*
D02*
G37*
G36*
X92490D02*
X85470D01*
Y534640D01*
X92490D01*
Y549910D01*
D02*
G37*
G36*
X96058Y512064D02*
X94442D01*
X92948Y511445D01*
X91805Y510302D01*
X91186Y508808D01*
Y507192D01*
X91805Y505698D01*
X92948Y504555D01*
X94442Y503936D01*
X96058D01*
X97552Y504555D01*
X98695Y505698D01*
X99314Y507192D01*
Y508808D01*
X98695Y510302D01*
X97552Y511445D01*
X96058Y512064D01*
D02*
G37*
G36*
X77008D02*
X75392D01*
X73898Y511445D01*
X72755Y510302D01*
X72136Y508808D01*
Y507192D01*
X72755Y505698D01*
X73898Y504555D01*
X75392Y503936D01*
X77008D01*
X78502Y504555D01*
X79645Y505698D01*
X80264Y507192D01*
Y508808D01*
X79645Y510302D01*
X78502Y511445D01*
X77008Y512064D01*
D02*
G37*
G36*
X96850Y491090D02*
X80580D01*
Y464820D01*
X96850D01*
Y491090D01*
D02*
G37*
G36*
X78040D02*
X61770D01*
Y464820D01*
X78040D01*
Y491090D01*
D02*
G37*
G36*
X96850Y462280D02*
X80580D01*
Y436010D01*
X96850D01*
Y462280D01*
D02*
G37*
G36*
X78040D02*
X61770D01*
Y436010D01*
X78040D01*
Y462280D01*
D02*
G37*
G36*
X166490Y489120D02*
X159970D01*
Y482600D01*
X166490D01*
Y489120D01*
D02*
G37*
G36*
Y480060D02*
X159970D01*
Y473540D01*
X166490D01*
Y480060D01*
D02*
G37*
G36*
X168690Y466120D02*
X161670D01*
Y450850D01*
X168690D01*
Y466120D01*
D02*
G37*
G36*
X178250Y448310D02*
X171230D01*
Y433040D01*
X178250D01*
Y448310D01*
D02*
G37*
G36*
X168690D02*
X161670D01*
Y433040D01*
X168690D01*
Y448310D01*
D02*
G37*
G36*
X178250Y428020D02*
X171230D01*
Y412750D01*
X178250D01*
Y428020D01*
D02*
G37*
G36*
X168690D02*
X161670D01*
Y412750D01*
X168690D01*
Y428020D01*
D02*
G37*
G36*
X178250Y410210D02*
X171230D01*
Y394940D01*
X178250D01*
Y410210D01*
D02*
G37*
G36*
X168690D02*
X161670D01*
Y394940D01*
X168690D01*
Y410210D01*
D02*
G37*
G36*
X402590Y622690D02*
Y618490D01*
X406790D01*
X406017Y620358D01*
X404458Y621917D01*
X402590Y622690D01*
D02*
G37*
G36*
X400050D02*
X398182Y621917D01*
X396623Y620358D01*
X395850Y618490D01*
X400050D01*
Y622690D01*
D02*
G37*
G36*
X406790Y615950D02*
X402590D01*
Y611750D01*
X404458Y612523D01*
X406017Y614082D01*
X406790Y615950D01*
D02*
G37*
G36*
X400050D02*
X395850D01*
X396623Y614082D01*
X398182Y612523D01*
X400050Y611750D01*
Y615950D01*
D02*
G37*
G36*
X399250Y591420D02*
Y565150D01*
X415520D01*
Y591420D01*
X399250D01*
D02*
G37*
G36*
X-62397Y579675D02*
X-64603D01*
X-66733Y579104D01*
X-68642Y578002D01*
X-70202Y576442D01*
X-71304Y574533D01*
X-71875Y572403D01*
Y570197D01*
X-71304Y568067D01*
X-70202Y566158D01*
X-68642Y564598D01*
X-66733Y563496D01*
X-64603Y562925D01*
X-62397D01*
X-60267Y563496D01*
X-58358Y564598D01*
X-56798Y566158D01*
X-55696Y568067D01*
X-55125Y570197D01*
Y572403D01*
X-55696Y574533D01*
X-56798Y576442D01*
X-58358Y578002D01*
X-60267Y579104D01*
X-62397Y579675D01*
D02*
G37*
G36*
X-62230Y555545D02*
Y547170D01*
X-53855D01*
X-54512Y549623D01*
X-55782Y551822D01*
X-57578Y553618D01*
X-59777Y554888D01*
X-62230Y555545D01*
D02*
G37*
G36*
X-64770Y555545D02*
X-67223Y554888D01*
X-69422Y553618D01*
X-71218Y551822D01*
X-72488Y549623D01*
X-73145Y547170D01*
X-64770D01*
Y555545D01*
D02*
G37*
G36*
X415520Y562610D02*
X399250D01*
Y536340D01*
X415520D01*
Y562610D01*
D02*
G37*
G36*
X-53855Y544630D02*
X-62230D01*
Y536255D01*
X-59777Y536912D01*
X-57578Y538182D01*
X-55782Y539978D01*
X-54512Y542177D01*
X-53855Y544630D01*
D02*
G37*
G36*
X-64770D02*
X-73145D01*
X-72488Y542177D01*
X-71218Y539978D01*
X-69422Y538182D01*
X-67223Y536912D01*
X-64770Y536255D01*
Y544630D01*
D02*
G37*
G36*
X-62397Y528875D02*
X-64603D01*
X-66733Y528304D01*
X-68642Y527202D01*
X-70202Y525642D01*
X-71304Y523733D01*
X-71875Y521603D01*
Y519397D01*
X-71304Y517267D01*
X-70202Y515358D01*
X-68642Y513798D01*
X-66733Y512696D01*
X-64603Y512125D01*
X-62397D01*
X-60267Y512696D01*
X-58358Y513798D01*
X-56798Y515358D01*
X-55696Y517267D01*
X-55125Y519397D01*
Y521603D01*
X-55696Y523733D01*
X-56798Y525642D01*
X-58358Y527202D01*
X-60267Y528304D01*
X-62397Y528875D01*
D02*
G37*
G36*
X391820Y480090D02*
X384800D01*
Y464820D01*
X391820D01*
Y480090D01*
D02*
G37*
G36*
X382260D02*
X375240D01*
Y464820D01*
X382260D01*
Y480090D01*
D02*
G37*
G36*
X391820Y462280D02*
X384800D01*
Y447010D01*
X391820D01*
Y462280D01*
D02*
G37*
G36*
X382260D02*
X375240D01*
Y447010D01*
X382260D01*
Y462280D01*
D02*
G37*
G36*
X391820Y441990D02*
X384800D01*
Y426720D01*
X391820D01*
Y441990D01*
D02*
G37*
G36*
X382260D02*
X375240D01*
Y426720D01*
X382260D01*
Y441990D01*
D02*
G37*
G36*
X391820Y424180D02*
X384800D01*
Y408910D01*
X391820D01*
Y424180D01*
D02*
G37*
G36*
X382260D02*
X375240D01*
Y408910D01*
X382260D01*
Y424180D01*
D02*
G37*
G36*
X204008Y378714D02*
X202392D01*
X200898Y378095D01*
X199755Y376952D01*
X199136Y375458D01*
Y373842D01*
X199755Y372348D01*
X200898Y371205D01*
X202392Y370586D01*
X204008D01*
X205502Y371205D01*
X206645Y372348D01*
X207264Y373842D01*
Y375458D01*
X206645Y376952D01*
X205502Y378095D01*
X204008Y378714D01*
D02*
G37*
G36*
X107142Y29464D02*
X107142Y29464D01*
X106702Y29282D01*
X105648Y28845D01*
X105648Y28845D01*
X104505Y27702D01*
X104505Y27702D01*
X103886Y26208D01*
X103886Y26208D01*
X103886Y26082D01*
Y24592D01*
X103886Y24592D01*
X104068Y24152D01*
X104505Y23098D01*
X105647Y21955D01*
X106483Y21086D01*
X106616Y20900D01*
X106849Y19069D01*
Y19031D01*
X106616Y17200D01*
X106483Y17014D01*
X105648Y16145D01*
X104505Y15002D01*
X103886Y13508D01*
X103886Y11892D01*
X103886Y11892D01*
X103886Y11892D01*
X104068Y11452D01*
X104505Y10398D01*
X104505Y10398D01*
X105648Y9255D01*
X107142Y8636D01*
X107142Y8636D01*
X107142Y8636D01*
X107268Y8636D01*
X108758D01*
X110252Y9255D01*
X111395Y10397D01*
X112264Y11234D01*
X112450Y11366D01*
X114281Y11599D01*
X114319D01*
X116150Y11366D01*
X116336Y11234D01*
X117205Y10398D01*
X118348Y9255D01*
X119842Y8636D01*
X119842Y8636D01*
X121458D01*
X122952Y9255D01*
X124095Y10397D01*
X124964Y11234D01*
X125150Y11366D01*
X126981Y11599D01*
X127019D01*
X128850Y11366D01*
X129036Y11234D01*
X129905Y10398D01*
X131048Y9255D01*
X132542Y8636D01*
X132542Y8636D01*
X134158D01*
X135652Y9255D01*
X136795Y10397D01*
X137664Y11234D01*
X137850Y11366D01*
X139681Y11599D01*
X139719D01*
X141550Y11366D01*
X141736Y11234D01*
X142605Y10398D01*
X143748Y9255D01*
X145242Y8636D01*
X146858D01*
X148352Y9255D01*
X148997Y9899D01*
X151892Y10172D01*
X154787Y9899D01*
X155432Y9255D01*
X156926Y8636D01*
X158542D01*
X160036Y9255D01*
X161179Y10398D01*
X161798Y11892D01*
Y13508D01*
X161179Y15002D01*
X160037Y16145D01*
X159075Y17145D01*
X158835Y19031D01*
Y19069D01*
X159075Y20955D01*
X160036Y21955D01*
X161179Y23098D01*
X161798Y24592D01*
Y26208D01*
X161798Y26208D01*
X161798Y26209D01*
X161616Y26648D01*
X161179Y27702D01*
X161179Y27702D01*
X160036Y28845D01*
X160036Y28845D01*
X158542Y29464D01*
X158542Y29464D01*
X158416Y29464D01*
X156926D01*
X156926Y29464D01*
X156486Y29282D01*
X155432Y28845D01*
X154787Y28201D01*
X151892Y27928D01*
X148997Y28201D01*
X148352Y28845D01*
X146858Y29464D01*
X146858Y29464D01*
X145242D01*
X143748Y28845D01*
X142605Y27703D01*
X141736Y26867D01*
X141550Y26734D01*
X139719Y26501D01*
X139681D01*
X137850Y26734D01*
X137664Y26867D01*
X136795Y27702D01*
X135652Y28845D01*
X134158Y29464D01*
X134158Y29464D01*
X132542D01*
X131048Y28845D01*
X129905Y27703D01*
X129036Y26867D01*
X128850Y26734D01*
X127019Y26501D01*
X126981D01*
X125150Y26734D01*
X124964Y26867D01*
X124095Y27702D01*
X122952Y28845D01*
X121458Y29464D01*
X121458Y29464D01*
X119842D01*
X119842Y29464D01*
X119402Y29282D01*
X118348Y28845D01*
X117205Y27703D01*
X116336Y26867D01*
X116150Y26734D01*
X114319Y26501D01*
X114281D01*
X112450Y26734D01*
X112264Y26867D01*
X111395Y27702D01*
X110252Y28845D01*
X108758Y29464D01*
X107142D01*
X107142Y29464D01*
D02*
G37*
G36*
X-62230Y-3255D02*
Y-11630D01*
X-53855D01*
X-54512Y-9177D01*
X-55782Y-6978D01*
X-57578Y-5182D01*
X-59777Y-3912D01*
X-62230Y-3255D01*
D02*
G37*
G36*
X-64770D02*
X-67223Y-3912D01*
X-69422Y-5182D01*
X-71218Y-6978D01*
X-72488Y-9177D01*
X-73145Y-11630D01*
X-64770D01*
Y-3255D01*
D02*
G37*
G36*
X-87797Y-4525D02*
X-90003D01*
X-92133Y-5096D01*
X-94042Y-6198D01*
X-95602Y-7758D01*
X-96704Y-9667D01*
X-97275Y-11797D01*
Y-14003D01*
X-96704Y-16133D01*
X-95602Y-18042D01*
X-94042Y-19602D01*
X-92133Y-20704D01*
X-90003Y-21275D01*
X-87797D01*
X-85667Y-20704D01*
X-83758Y-19602D01*
X-82198Y-18042D01*
X-81096Y-16133D01*
X-80525Y-14003D01*
Y-11797D01*
X-81096Y-9667D01*
X-82198Y-7758D01*
X-83758Y-6198D01*
X-85667Y-5096D01*
X-87797Y-4525D01*
D02*
G37*
G36*
X-53855Y-14170D02*
X-62230D01*
Y-22545D01*
X-59777Y-21888D01*
X-57578Y-20618D01*
X-55782Y-18822D01*
X-54512Y-16623D01*
X-53855Y-14170D01*
D02*
G37*
G36*
X-64770D02*
X-73145D01*
X-72488Y-16623D01*
X-71218Y-18822D01*
X-69422Y-20618D01*
X-67223Y-21888D01*
X-64770Y-22545D01*
Y-14170D01*
D02*
G37*
G36*
X67530Y-39320D02*
X60260D01*
Y-43840D01*
X67530D01*
Y-39320D01*
D02*
G37*
G36*
X-62397Y-29925D02*
X-64603D01*
X-66733Y-30496D01*
X-68642Y-31598D01*
X-70202Y-33158D01*
X-71304Y-35067D01*
X-71875Y-37197D01*
Y-39403D01*
X-71304Y-41533D01*
X-70202Y-43442D01*
X-68642Y-45002D01*
X-66733Y-46104D01*
X-64603Y-46675D01*
X-62397D01*
X-60267Y-46104D01*
X-58358Y-45002D01*
X-56798Y-43442D01*
X-55696Y-41533D01*
X-55125Y-39403D01*
Y-37197D01*
X-55696Y-35067D01*
X-56798Y-33158D01*
X-58358Y-31598D01*
X-60267Y-30496D01*
X-62397Y-29925D01*
D02*
G37*
G36*
X-87797D02*
X-90003D01*
X-92133Y-30496D01*
X-94042Y-31598D01*
X-95602Y-33158D01*
X-96704Y-35067D01*
X-97275Y-37197D01*
Y-39403D01*
X-96704Y-41533D01*
X-95602Y-43442D01*
X-94042Y-45002D01*
X-92133Y-46104D01*
X-90003Y-46675D01*
X-87797D01*
X-85667Y-46104D01*
X-83758Y-45002D01*
X-82198Y-43442D01*
X-81096Y-41533D01*
X-80525Y-39403D01*
Y-37197D01*
X-81096Y-35067D01*
X-82198Y-33158D01*
X-83758Y-31598D01*
X-85667Y-30496D01*
X-87797Y-29925D01*
D02*
G37*
G36*
X67530Y-46380D02*
X60260D01*
Y-50900D01*
X67530D01*
Y-46380D01*
D02*
G37*
G36*
X-87797Y-55325D02*
X-90003D01*
X-92133Y-55896D01*
X-94042Y-56998D01*
X-95602Y-58558D01*
X-96704Y-60467D01*
X-97275Y-62597D01*
Y-64803D01*
X-96704Y-66933D01*
X-95602Y-68842D01*
X-94042Y-70402D01*
X-92133Y-71504D01*
X-90003Y-72075D01*
X-87797D01*
X-85667Y-71504D01*
X-83758Y-70402D01*
X-82198Y-68842D01*
X-81096Y-66933D01*
X-80525Y-64803D01*
Y-62597D01*
X-81096Y-60467D01*
X-82198Y-58558D01*
X-83758Y-56998D01*
X-85667Y-55896D01*
X-87797Y-55325D01*
D02*
G37*
G36*
X79548Y-86106D02*
X77932D01*
X76438Y-86725D01*
X75295Y-87868D01*
X74676Y-89362D01*
Y-90978D01*
X75295Y-92472D01*
X76438Y-93615D01*
X77932Y-94234D01*
X79548D01*
X81042Y-93615D01*
X82185Y-92472D01*
X82804Y-90978D01*
Y-89362D01*
X82185Y-87868D01*
X81042Y-86725D01*
X79548Y-86106D01*
D02*
G37*
G36*
X55418D02*
X53802D01*
X52308Y-86725D01*
X51165Y-87868D01*
X50546Y-89362D01*
Y-90978D01*
X51165Y-92472D01*
X52308Y-93615D01*
X53802Y-94234D01*
X55418D01*
X56912Y-93615D01*
X58055Y-92472D01*
X58674Y-90978D01*
Y-89362D01*
X58055Y-87868D01*
X56912Y-86725D01*
X55418Y-86106D01*
D02*
G37*
G36*
X-14772Y-88838D02*
X-16389D01*
X-17882Y-89457D01*
X-19025Y-90600D01*
X-19644Y-92094D01*
Y-93710D01*
X-19025Y-95204D01*
X-17882Y-96347D01*
X-16389Y-96966D01*
X-14772D01*
X-13278Y-96347D01*
X-12135Y-95204D01*
X-11516Y-93710D01*
Y-92094D01*
X-12135Y-90600D01*
X-13278Y-89457D01*
X-14772Y-88838D01*
D02*
G37*
G36*
X66848Y-105156D02*
X65232D01*
X63738Y-105775D01*
X62595Y-106918D01*
X61976Y-108412D01*
X61976Y-110028D01*
X58595Y-114160D01*
X56475D01*
Y-121180D01*
X71745D01*
Y-116336D01*
X71745Y-114160D01*
X70104Y-109760D01*
X70104Y-108412D01*
X69485Y-106918D01*
X68342Y-105775D01*
X66848Y-105156D01*
D02*
G37*
G36*
X53935Y-114160D02*
X38665D01*
Y-121180D01*
X53935D01*
Y-114160D01*
D02*
G37*
G36*
X-87797Y-106125D02*
X-90003D01*
X-92133Y-106696D01*
X-94042Y-107798D01*
X-95602Y-109358D01*
X-96704Y-111267D01*
X-97275Y-113397D01*
Y-115603D01*
X-96704Y-117733D01*
X-95602Y-119642D01*
X-94042Y-121202D01*
X-92133Y-122304D01*
X-90003Y-122875D01*
X-87797D01*
X-85667Y-122304D01*
X-83758Y-121202D01*
X-82198Y-119642D01*
X-81096Y-117733D01*
X-80525Y-115603D01*
Y-113397D01*
X-81096Y-111267D01*
X-82198Y-109358D01*
X-83758Y-107798D01*
X-85667Y-106696D01*
X-87797Y-106125D01*
D02*
G37*
G36*
X2078Y-121666D02*
X462D01*
X-1032Y-122285D01*
X-2175Y-123428D01*
X-2794Y-124922D01*
Y-126538D01*
X-2175Y-128032D01*
X-1032Y-129175D01*
X462Y-129794D01*
X2078D01*
X3572Y-129175D01*
X4715Y-128032D01*
X5334Y-126538D01*
Y-124922D01*
X4715Y-123428D01*
X3572Y-122285D01*
X2078Y-121666D01*
D02*
G37*
G36*
X71745Y-123720D02*
X56475D01*
Y-130740D01*
X71745D01*
Y-123720D01*
D02*
G37*
G36*
X53935D02*
X38665D01*
Y-130740D01*
X53935D01*
Y-123720D01*
D02*
G37*
G36*
X-62397Y-131525D02*
X-64603D01*
X-66733Y-132096D01*
X-68642Y-133198D01*
X-70202Y-134758D01*
X-71304Y-136667D01*
X-71875Y-138797D01*
Y-141003D01*
X-71304Y-143133D01*
X-70202Y-145042D01*
X-68642Y-146602D01*
X-66733Y-147704D01*
X-64603Y-148275D01*
X-62397D01*
X-60267Y-147704D01*
X-58358Y-146602D01*
X-56798Y-145042D01*
X-55696Y-143133D01*
X-55125Y-141003D01*
Y-138797D01*
X-55696Y-136667D01*
X-56798Y-134758D01*
X-58358Y-133198D01*
X-60267Y-132096D01*
X-62397Y-131525D01*
D02*
G37*
G36*
X-87797D02*
X-90003D01*
X-92133Y-132096D01*
X-94042Y-133198D01*
X-95602Y-134758D01*
X-96704Y-136667D01*
X-97275Y-138797D01*
Y-141003D01*
X-96704Y-143133D01*
X-95602Y-145042D01*
X-94042Y-146602D01*
X-92133Y-147704D01*
X-90003Y-148275D01*
X-87797D01*
X-85667Y-147704D01*
X-83758Y-146602D01*
X-82198Y-145042D01*
X-81096Y-143133D01*
X-80525Y-141003D01*
Y-138797D01*
X-81096Y-136667D01*
X-82198Y-134758D01*
X-83758Y-133198D01*
X-85667Y-132096D01*
X-87797Y-131525D01*
D02*
G37*
G36*
X4272Y-167640D02*
X3832Y-167822D01*
X2778Y-168259D01*
X1971Y-169065D01*
X1635Y-169402D01*
X1635Y-169402D01*
Y-169402D01*
X1453Y-169842D01*
X1016Y-170896D01*
Y-172512D01*
X1635Y-174006D01*
X1635Y-177530D01*
X1453Y-177969D01*
X1016Y-179024D01*
Y-180640D01*
X899Y-180826D01*
X899Y-180826D01*
X-247Y-182641D01*
X-1928Y-184571D01*
X-2768Y-184766D01*
X-3399Y-184912D01*
X-4986Y-185569D01*
X-4986Y-185569D01*
X-6201Y-186784D01*
X-6858Y-188371D01*
Y-190089D01*
X-6201Y-191676D01*
X-4986Y-192891D01*
X-3399Y-193548D01*
X-1681D01*
X-94Y-192891D01*
X-94Y-192890D01*
X1121Y-191676D01*
X1778Y-190089D01*
X1971Y-189030D01*
X2249Y-187511D01*
X2249D01*
X2249Y-187510D01*
X2249Y-187510D01*
X3056Y-186068D01*
X4650Y-184160D01*
X5004Y-183896D01*
X5888D01*
X7382Y-183277D01*
X8189Y-182471D01*
X8525Y-182134D01*
Y-182134D01*
X9144Y-180640D01*
Y-179024D01*
X8525Y-177530D01*
Y-174006D01*
X8707Y-173566D01*
X9144Y-172512D01*
Y-170896D01*
X8525Y-169402D01*
Y-169402D01*
X8525Y-169402D01*
X7382Y-168259D01*
X5888Y-167640D01*
X5888Y-167640D01*
X4272D01*
X4272Y-167640D01*
D02*
G37*
G36*
X-82030Y-212396D02*
X-84580Y-212731D01*
X-86957Y-213716D01*
X-88998Y-215282D01*
X-90564Y-217323D01*
X-91549Y-219699D01*
X-91884Y-222250D01*
X-91549Y-224800D01*
X-90564Y-227177D01*
X-88998Y-229218D01*
X-86957Y-230784D01*
X-84580Y-231768D01*
X-84739Y-236871D01*
X-84912Y-236894D01*
X-87598Y-238007D01*
X-89904Y-239776D01*
X-91673Y-242082D01*
X-92786Y-244768D01*
X-92998Y-246380D01*
X-82030D01*
X-71062D01*
X-71274Y-244768D01*
X-72387Y-242082D01*
X-74156Y-239776D01*
X-76462Y-238007D01*
X-79148Y-236894D01*
X-79321Y-236871D01*
X-79479Y-231768D01*
X-77103Y-230784D01*
X-75062Y-229218D01*
X-73496Y-227177D01*
X-72512Y-224800D01*
X-72176Y-222250D01*
X-72512Y-219699D01*
X-73496Y-217323D01*
X-75062Y-215282D01*
X-77103Y-213716D01*
X-79479Y-212731D01*
X-82030Y-212396D01*
D02*
G37*
G36*
X-53105Y-268097D02*
X-55075D01*
X-56896Y-268851D01*
X-58289Y-270244D01*
X-59043Y-272065D01*
Y-274035D01*
X-58289Y-275856D01*
X-56896Y-277249D01*
X-55075Y-278003D01*
X-53105D01*
X-51284Y-277249D01*
X-49891Y-275856D01*
X-49137Y-274035D01*
Y-272065D01*
X-49891Y-270244D01*
X-51284Y-268851D01*
X-53105Y-268097D01*
D02*
G37*
G36*
X-71062Y-248920D02*
X-82030D01*
X-92998D01*
X-92786Y-250532D01*
X-91673Y-253218D01*
X-89904Y-255524D01*
X-87598Y-257293D01*
X-84912Y-258406D01*
X-85856Y-263280D01*
X-91800D01*
Y-282820D01*
X-72260D01*
Y-263280D01*
X-78204D01*
X-79148Y-258406D01*
X-76462Y-257293D01*
X-74156Y-255524D01*
X-72387Y-253218D01*
X-71274Y-250532D01*
X-71062Y-248920D01*
D02*
G37*
G36*
X166570Y-43570D02*
Y-53340D01*
X180340D01*
Y-43570D01*
X166570D01*
D02*
G37*
G36*
X180340Y-55880D02*
X166570D01*
Y-65650D01*
X180340D01*
Y-55880D01*
D02*
G37*
G36*
X164425Y-114160D02*
Y-121180D01*
X179695D01*
Y-114160D01*
X164425D01*
D02*
G37*
G36*
X179695Y-123720D02*
X164425D01*
Y-130740D01*
X179695D01*
Y-123720D01*
D02*
G37*
G36*
X129825Y-149840D02*
X125130D01*
Y-154280D01*
X135283D01*
X135101Y-153365D01*
X133863Y-151512D01*
X132010Y-150274D01*
X129825Y-149840D01*
D02*
G37*
G36*
X179695Y-148660D02*
X164425D01*
Y-155680D01*
X179695D01*
Y-148660D01*
D02*
G37*
G36*
X161885D02*
X146615D01*
Y-155680D01*
X161885D01*
Y-148660D01*
D02*
G37*
G36*
X135283Y-156820D02*
X125130D01*
Y-161260D01*
X129825D01*
X132010Y-160826D01*
X133863Y-159588D01*
X135101Y-157735D01*
X135283Y-156820D01*
D02*
G37*
G36*
X179695Y-158220D02*
X164425D01*
Y-165240D01*
X179695D01*
Y-158220D01*
D02*
G37*
G36*
X161885D02*
X146615D01*
Y-165240D01*
X161885D01*
Y-158220D01*
D02*
G37*
G36*
X197658Y-164846D02*
X196042D01*
X194548Y-165465D01*
X193405Y-166608D01*
X192786Y-168102D01*
Y-169718D01*
X193405Y-171212D01*
X194548Y-172355D01*
X196042Y-172974D01*
X197658D01*
X199152Y-172355D01*
X200295Y-171212D01*
X200914Y-169718D01*
Y-168102D01*
X200295Y-166608D01*
X199152Y-165465D01*
X197658Y-164846D01*
D02*
G37*
G36*
X234712Y-252800D02*
X219442D01*
Y-259820D01*
X234712D01*
Y-252800D01*
D02*
G37*
G36*
X216902D02*
X201632D01*
Y-259820D01*
X216902D01*
Y-252800D01*
D02*
G37*
G36*
X234712Y-262360D02*
X219442D01*
Y-269380D01*
X234712D01*
Y-262360D01*
D02*
G37*
G36*
X216902D02*
X201632D01*
Y-269380D01*
X216902D01*
Y-262360D01*
D02*
G37*
G36*
X71745Y-148660D02*
X56475D01*
Y-155680D01*
X71745D01*
Y-148660D01*
D02*
G37*
G36*
X53935D02*
X38665D01*
Y-155680D01*
X53935D01*
Y-148660D01*
D02*
G37*
G36*
X99580Y-156820D02*
X89284D01*
Y-161151D01*
X99580D01*
Y-156820D01*
D02*
G37*
G36*
X71745Y-158220D02*
X56475D01*
Y-165240D01*
X71745D01*
Y-158220D01*
D02*
G37*
G36*
X53935D02*
X38665D01*
Y-165240D01*
X53935D01*
Y-158220D01*
D02*
G37*
G36*
X99580Y-243610D02*
X90460D01*
Y-252730D01*
X99580D01*
Y-243610D01*
D02*
G37*
G36*
X178802Y-252800D02*
X163532D01*
Y-259820D01*
X178802D01*
Y-252800D01*
D02*
G37*
G36*
X70850Y-244801D02*
X68469Y-245115D01*
X66251Y-246034D01*
X64345Y-247495D01*
X62884Y-249401D01*
X61965Y-251619D01*
X61651Y-254000D01*
X61965Y-256381D01*
X62884Y-258599D01*
X64345Y-260504D01*
X66251Y-261966D01*
X68469Y-262885D01*
X70850Y-263199D01*
X73231Y-262885D01*
X75449Y-261966D01*
X77354Y-260504D01*
X78816Y-258599D01*
X79735Y-256381D01*
X80049Y-254000D01*
X79735Y-251619D01*
X78816Y-249401D01*
X77354Y-247495D01*
X75449Y-246034D01*
X73231Y-245115D01*
X70850Y-244801D01*
D02*
G37*
G36*
X111240Y-255270D02*
X102120D01*
Y-264390D01*
X111240D01*
Y-255270D01*
D02*
G37*
G36*
X99580D02*
X90460D01*
Y-264390D01*
X99580D01*
Y-255270D01*
D02*
G37*
G36*
X178802Y-262360D02*
X163532D01*
Y-269380D01*
X178802D01*
Y-262360D01*
D02*
G37*
G36*
X130850Y-265914D02*
X128861Y-266176D01*
X127007Y-266944D01*
X125415Y-268165D01*
X124194Y-269757D01*
X123426Y-271611D01*
X123164Y-273600D01*
X123426Y-275589D01*
X124194Y-277443D01*
X125415Y-279035D01*
X127007Y-280256D01*
X128861Y-281024D01*
X130850Y-281286D01*
X132839Y-281024D01*
X134693Y-280256D01*
X136285Y-279035D01*
X137506Y-277443D01*
X138274Y-275589D01*
X138536Y-273600D01*
X138274Y-271611D01*
X137506Y-269757D01*
X136285Y-268165D01*
X134693Y-266944D01*
X132839Y-266176D01*
X130850Y-265914D01*
D02*
G37*
G36*
X40850D02*
X38861Y-266176D01*
X37007Y-266944D01*
X35415Y-268165D01*
X34194Y-269757D01*
X33426Y-271611D01*
X33164Y-273600D01*
X33426Y-275589D01*
X34194Y-277443D01*
X35415Y-279035D01*
X37007Y-280256D01*
X38861Y-281024D01*
X40850Y-281286D01*
X42839Y-281024D01*
X44693Y-280256D01*
X46285Y-279035D01*
X47506Y-277443D01*
X48274Y-275589D01*
X48536Y-273600D01*
X48274Y-271611D01*
X47506Y-269757D01*
X46285Y-268165D01*
X44693Y-266944D01*
X42839Y-266176D01*
X40850Y-265914D01*
D02*
G37*
%LPD*%
D22*
X348100Y215900D02*
D03*
X361600D02*
D03*
X303650Y537040D02*
D03*
X317150D02*
D03*
X167760Y481330D02*
D03*
X181260D02*
D03*
D31*
X-20320Y133470D02*
D03*
Y148470D02*
D03*
X278130Y833000D02*
D03*
Y818000D02*
D03*
X259080Y213240D02*
D03*
Y198240D02*
D03*
X302780Y429380D02*
D03*
Y444380D02*
D03*
X175780Y576700D02*
D03*
Y591700D02*
D03*
D33*
X346337Y-92174D02*
D03*
X331337D02*
D03*
X369437Y-70664D02*
D03*
X384437D02*
D03*
X369437Y-50344D02*
D03*
X384437D02*
D03*
X470020Y-76200D02*
D03*
X485020D02*
D03*
X102000Y-22860D02*
D03*
X87000D02*
D03*
X140100Y-3810D02*
D03*
X125100D02*
D03*
X296030Y199390D02*
D03*
X311030D02*
D03*
X347350Y254000D02*
D03*
X362350D02*
D03*
X317900Y462280D02*
D03*
X302900D02*
D03*
X175660Y557530D02*
D03*
X160660D02*
D03*
D34*
X204990Y506080D02*
D03*
Y520080D02*
D03*
X184670Y520080D02*
D03*
Y506080D02*
D03*
X295160Y499730D02*
D03*
Y513730D02*
D03*
X273570Y513730D02*
D03*
Y499730D02*
D03*
D35*
X438912Y-106828D02*
D03*
Y-125328D02*
D03*
D38*
X139600Y-22860D02*
D03*
X125600D02*
D03*
X347850Y234950D02*
D03*
X361850D02*
D03*
D39*
X268580Y234900D02*
D03*
X249580D02*
D03*
X259080Y260400D02*
D03*
D40*
X303530Y262150D02*
D03*
X294030Y233150D02*
D03*
X313030D02*
D03*
X332600Y515130D02*
D03*
X323100D02*
D03*
X313600D02*
D03*
Y485630D02*
D03*
X323100D02*
D03*
X332600D02*
D03*
X145960Y534180D02*
D03*
X155460D02*
D03*
X164960D02*
D03*
Y504680D02*
D03*
X155460D02*
D03*
X145960D02*
D03*
D41*
X9820Y670560D02*
D03*
X30820D02*
D03*
D44*
X349770Y513480D02*
D03*
Y499980D02*
D03*
X291350Y736200D02*
D03*
Y749700D02*
D03*
Y666350D02*
D03*
Y679850D02*
D03*
X130060Y519830D02*
D03*
Y506330D02*
D03*
D50*
X313680Y605790D02*
D03*
X279180D02*
D03*
X169960Y411480D02*
D03*
X204460D02*
D03*
X279180Y567690D02*
D03*
X313680D02*
D03*
X349030Y463550D02*
D03*
X383530D02*
D03*
X349030Y425450D02*
D03*
X383530D02*
D03*
X93760Y551180D02*
D03*
X128260D02*
D03*
X93760Y589280D02*
D03*
X128260D02*
D03*
X169960Y449580D02*
D03*
X204460D02*
D03*
D51*
X323547Y-70004D02*
D03*
Y-51004D02*
D03*
X349047Y-60504D02*
D03*
D52*
X439697Y-78284D02*
D03*
X410697Y-68784D02*
D03*
Y-87784D02*
D03*
X94800Y-54610D02*
D03*
X68800Y-45110D02*
D03*
Y-64110D02*
D03*
D53*
X281580Y292100D02*
D03*
X300080D02*
D03*
D114*
X26229Y35097D02*
G03*
X-34967Y26402I-26229J-35097D01*
G01*
X-36163Y25538D02*
G03*
X-34967Y26402I-826J2402D01*
G01*
X415317Y-12869D02*
G03*
X463076Y-43419I41883J12869D01*
G01*
X414998Y-11822D02*
G03*
X414948Y-11600I-2502J-439D01*
G01*
X414949Y11601D02*
G03*
X414945Y-11589I42251J-11601D01*
G01*
X415317Y-12869D02*
G03*
X415304Y-12826I-2425J-755D01*
G01*
X414998Y-11822D02*
G03*
X415085Y-12166I2499J454D01*
G01*
X414949Y11601D02*
G03*
X415036Y12261I-2453J660D01*
G01*
X75934Y755283D02*
Y863866D01*
X-11430Y919480D02*
X20320D01*
X75934Y863866D01*
X69850Y759614D02*
Y850900D01*
X8890Y911860D02*
X69850Y850900D01*
X-22860Y911860D02*
X8890D01*
X21898Y927100D02*
X82550Y866448D01*
Y752255D02*
Y866448D01*
X13970Y927100D02*
X21898D01*
X-85090Y901700D02*
X-62230Y924560D01*
X-85090Y748030D02*
Y901700D01*
X-66040Y961390D02*
X1270D01*
X-93980Y933450D02*
X-66040Y961390D01*
X-93980Y749300D02*
Y933450D01*
X23627Y693332D02*
X82550Y752255D01*
X-104140Y739140D02*
X-93980Y749300D01*
X283210Y80010D02*
X294640Y91440D01*
Y130810D01*
X283210Y95250D02*
Y126492D01*
X311912Y155194D01*
X294640Y130810D02*
X314452Y150622D01*
X459994Y155194D02*
X485902Y181102D01*
X311912Y155194D02*
X459994D01*
X485902Y181102D02*
Y277699D01*
X500103Y291900D01*
X520700D01*
X30591Y-46116D02*
X33528Y-43180D01*
X-15637Y-46116D02*
X30591D01*
X-45466Y-75946D02*
X-15637Y-46116D01*
X67247Y34353D02*
X68805Y32795D01*
X26229Y35097D02*
X66503D01*
X67247Y34353D01*
X19614Y698963D02*
X75934Y755283D01*
X-43180Y648354D02*
Y683874D01*
X-28090Y698963D02*
X19614D01*
X-43180Y683874D02*
X-28090Y698963D01*
X-36484Y704107D02*
X14343D01*
X-48260Y692330D02*
X-36484Y704107D01*
X14343D02*
X69850Y759614D01*
X-21884Y693332D02*
X23627D01*
X-35560Y679656D02*
X-21884Y693332D01*
X-35560Y651510D02*
Y679656D01*
X-76000Y25400D02*
X-36988D01*
X-36564Y25400D02*
X-36163Y25538D01*
X-36988Y25400D02*
X-36564Y25400D01*
X465041Y-44163D02*
X465041Y-44163D01*
X463076Y-43419D02*
X464297D01*
X414945Y-11589D02*
X414948Y-11600D01*
X415085Y-12166D02*
X415304Y-12826D01*
X464297Y-43419D02*
X465041Y-44163D01*
X485394Y-76200D02*
Y-64516D01*
X415036Y12261D02*
Y19304D01*
X485394Y-141224D02*
Y-76200D01*
X465041Y-44163D02*
X485394Y-64516D01*
X323216Y-69673D02*
X323547Y-70004D01*
X322580Y-69037D02*
X323216Y-69673D01*
X322580Y-69037D02*
Y-60198D01*
X422910Y-88900D02*
X423493Y-88317D01*
X436947Y-78284D02*
X439697D01*
X426914Y-88317D02*
X436947Y-78284D01*
X423493Y-88317D02*
X426914D01*
X427580Y-129950D02*
X434290D01*
X422910Y-134620D02*
X427580Y-129950D01*
X434290D02*
X438912Y-125328D01*
X410697Y-94467D02*
X423058Y-106828D01*
X410697Y-94467D02*
Y-87784D01*
X423058Y-106828D02*
X438912D01*
X369437Y-71664D02*
X385557Y-87784D01*
X410697D01*
X210820Y-44450D02*
X247251D01*
X443230Y-217170D02*
Y-186427D01*
X247251Y-95613D02*
X325120Y-173482D01*
X247251Y-95613D02*
Y-44450D01*
X430285Y-173482D02*
X443230Y-186427D01*
X325120Y-173482D02*
X430285D01*
X328027Y-78396D02*
Y-71984D01*
X331337Y-92174D02*
Y-81706D01*
X328027Y-78396D02*
X331337Y-81706D01*
X326047Y-70004D02*
X328027Y-71984D01*
X323547Y-70004D02*
X326047D01*
X369437Y-71664D02*
Y-70664D01*
X372167Y-63614D02*
X384437Y-51344D01*
X369437Y-70664D02*
X372167Y-67934D01*
X384437Y-51344D02*
Y-50344D01*
X372167Y-67934D02*
Y-63614D01*
X351547Y-60504D02*
X357577Y-54474D01*
X361627Y-50344D02*
X369437D01*
X349047Y-60504D02*
X351547D01*
X357577Y-54474D02*
Y-54394D01*
X361627Y-50344D01*
X278130Y818000D02*
X288918D01*
X305816Y834898D01*
Y841502D01*
X263518Y818000D02*
X278130D01*
X255778Y810260D02*
X263518Y818000D01*
X-20320Y163830D02*
X-5080D01*
X-45502D02*
X-20320D01*
Y148470D02*
Y163830D01*
X29210Y102870D02*
X55880D01*
X273050Y513730D02*
Y525780D01*
Y513730D02*
X273570D01*
X6289Y261681D02*
X6350Y261620D01*
X129540D01*
X-36564Y181431D02*
X-10160Y207836D01*
X-42608Y176340D02*
X-37517Y181431D01*
X-36564D01*
X-10160Y207836D02*
Y343779D01*
X-10160Y343779D02*
X-10160Y343779D01*
X-49530Y167858D02*
Y176330D01*
X-63500Y190300D02*
X-49530Y176330D01*
X-21590Y77470D02*
X66548Y165608D01*
X197358D01*
X-88900Y12500D02*
X-76000Y25400D01*
X-17859Y96441D02*
X72390Y186690D01*
X-53340Y76200D02*
X-33099Y96441D01*
X-17859D01*
X72390Y186690D02*
X119380D01*
X-19997Y101600D02*
X70174Y191770D01*
X-76000Y101600D02*
X-19997D01*
X-76000Y76200D02*
X-53340D01*
X70174Y191770D02*
X117994D01*
X-88900Y63300D02*
X-76000Y76200D01*
X-88900Y88700D02*
X-76000Y101600D01*
X197358Y165608D02*
X210820Y179070D01*
X205740Y495300D02*
Y505330D01*
X204990Y506080D02*
X205740Y505330D01*
X-5525Y666750D02*
X-1715Y670560D01*
X9820D01*
X-6350Y666750D02*
X-5525D01*
X505200Y266500D02*
X520700D01*
X496570Y176276D02*
Y257870D01*
X505200Y266500D01*
X470916Y150622D02*
X496570Y176276D01*
X-35560Y651510D02*
X-8890Y624840D01*
Y610045D02*
Y624840D01*
X-16764Y602617D02*
Y621938D01*
X-43180Y648354D02*
X-16764Y621938D01*
X-48260Y646249D02*
Y692330D01*
X-24384Y595630D02*
Y622374D01*
X-48260Y646249D02*
X-24384Y622374D01*
X41148Y-51308D02*
X41656Y-50800D01*
X-9498Y-51308D02*
X41148D01*
X373380Y215900D02*
X388366Y230886D01*
X415798D01*
X415290Y238760D02*
X435610D01*
X443230Y231140D01*
X409665Y244385D02*
X415290Y238760D01*
X-114300Y902970D02*
X-114300Y52070D01*
X-100130Y37900D01*
X-88900D01*
X359410Y317500D02*
X373380Y303530D01*
Y273050D02*
Y303530D01*
X161290Y316012D02*
X162778Y317500D01*
X359410D01*
X161290Y261620D02*
Y316012D01*
X169926Y276860D02*
X215900D01*
X249180Y250190D02*
X259990Y239380D01*
X242570Y250190D02*
X249180D01*
X268580Y234900D02*
Y237400D01*
X266600Y239380D02*
X268580Y237400D01*
X259990Y239380D02*
X266600D01*
X215900Y276860D02*
X242570Y250190D01*
X151130Y336114D02*
X169267Y354251D01*
X151130Y218440D02*
Y336114D01*
X146558Y220334D02*
Y338838D01*
X117994Y191770D02*
X146558Y220334D01*
X119380Y186690D02*
X151130Y218440D01*
X146558Y338838D02*
X167130Y359410D01*
X169267Y354251D02*
X427587D01*
X167130Y359410D02*
X425450D01*
X63282Y154722D02*
X66921Y158361D01*
X74176D01*
X73660Y147320D02*
X109220D01*
X63282Y141188D02*
Y154722D01*
X17780Y102870D02*
X55880D01*
X77470Y124460D01*
X13970Y276860D02*
X129540D01*
X-24384Y237295D02*
Y361950D01*
X-29456Y232223D02*
X-24384Y237295D01*
X-17780Y351790D02*
X-17780Y351790D01*
X-34605Y220608D02*
X-17780Y237433D01*
Y351790D01*
X-36763Y232223D02*
X-29456D01*
X185166Y-28956D02*
Y64908D01*
X77470Y124460D02*
X119149D01*
X67310Y137160D02*
X112914D01*
X109220Y147320D02*
X189738Y66802D01*
Y-23368D02*
Y66802D01*
X112914Y137160D02*
X185166Y64908D01*
X180594Y-32004D02*
Y63014D01*
X119149Y124460D02*
X180594Y63014D01*
X137385Y98835D02*
X176022Y60198D01*
X189738Y-23368D02*
X210820Y-44450D01*
X143510Y-39370D02*
X176022Y-6858D01*
X169962Y-3810D02*
X171450Y-2322D01*
X176022Y-6858D02*
Y60198D01*
X171450Y-2322D02*
Y50800D01*
X115570Y106680D02*
X171450Y50800D01*
X140100Y-3810D02*
X169962D01*
X180594Y-32004D02*
X212090Y-63500D01*
X185166Y-28956D02*
X227330Y-71120D01*
X92710Y106680D02*
X115570D01*
X85090Y52070D02*
X95250Y41910D01*
Y-6350D02*
X102000Y-13100D01*
X95250Y-6350D02*
Y41910D01*
X52070Y52070D02*
X85090D01*
X102000Y-22860D02*
Y-13100D01*
X133575Y98835D02*
X137385D01*
X133350Y99060D02*
X133575Y98835D01*
X143510Y-137160D02*
Y-39370D01*
X208280Y-6350D02*
X243840Y29210D01*
X300990D01*
X316230Y44450D01*
X227330Y-176186D02*
Y-71120D01*
X212090Y-99060D02*
Y-63500D01*
X-75746Y-75946D02*
X-45466D01*
X-47290Y-89100D02*
X-9498Y-51308D01*
X-49530Y167858D02*
X-45502Y163830D01*
X63282Y141188D02*
X67310Y137160D01*
X425450Y359410D02*
X467360Y401320D01*
X427587Y354251D02*
X472519Y399183D01*
X213360Y810260D02*
X255778D01*
X223520Y819150D02*
X252904Y848534D01*
X204470Y819150D02*
X223520D01*
X414423Y899239D02*
X481330D01*
X415115Y892635D02*
X500205D01*
X382270Y859790D02*
X415115Y892635D01*
X500205D02*
X506730Y899160D01*
X377111Y861927D02*
X414423Y899239D01*
X377111Y861927D02*
X377111Y762403D01*
X382270Y859790D02*
X382270Y764540D01*
X377111Y762403D02*
X467360Y672154D01*
X382270Y764540D02*
X472519Y674291D01*
Y399183D02*
Y674291D01*
X467360Y401320D02*
Y672154D01*
X-53340Y203200D02*
X-35932Y220608D01*
X-34605D01*
X-42164Y226822D02*
X-36763Y232223D01*
X252904Y848534D02*
Y878840D01*
X314452Y150622D02*
X470916D01*
X-63500Y-114500D02*
X-6658Y-57658D01*
X50800D01*
X-63500Y-89100D02*
X-47290D01*
X-88900D02*
X-75746Y-75946D01*
X273570Y513730D02*
X293890D01*
X293890Y513730D01*
X-85090Y748030D02*
X-76200Y739140D01*
Y711000D02*
Y739140D01*
X-104140Y713540D02*
Y739140D01*
Y713540D02*
X-88900Y698300D01*
X-76200Y711000D02*
X-63500Y698300D01*
X376365Y204470D02*
X378965Y207070D01*
X379790D01*
X361950Y204470D02*
X376365D01*
X297180Y247650D02*
X309880D01*
X281580Y263250D02*
Y292100D01*
Y263250D02*
X297180Y247650D01*
X313030Y233150D02*
Y244500D01*
X309880Y247650D02*
X313030Y244500D01*
X274270Y260400D02*
X278130Y256540D01*
X259080Y260400D02*
X274270D01*
X278130Y217170D02*
Y256540D01*
X274200Y213240D02*
X278130Y217170D01*
X259080Y213240D02*
X274200D01*
X296030Y199390D02*
Y207130D01*
X313030Y224130D01*
Y233150D01*
X259080Y198240D02*
X294880D01*
X296030Y199390D01*
X304011Y262189D02*
X304713Y262890D01*
X314960D01*
X300600Y292100D02*
X316230D01*
X370052Y244385D02*
X409665D01*
X443230Y201930D02*
Y231140D01*
X361600Y234700D02*
X361850Y234950D01*
X361600Y215900D02*
Y234700D01*
Y215900D02*
X373380D01*
X347350Y254000D02*
X347850Y253500D01*
Y234950D02*
Y253500D01*
X443230Y201930D02*
X445770Y199390D01*
X461010D01*
X471170Y189230D01*
X347350Y255000D02*
X365400Y273050D01*
X373380D01*
X347350Y254000D02*
Y255000D01*
X170700Y618490D02*
X175780Y613410D01*
X93230Y618490D02*
X170700D01*
X334580Y489634D02*
X338154D01*
X332600Y485630D02*
Y487654D01*
X338154Y489634D02*
X348500Y499980D01*
X332600Y487654D02*
X334580Y489634D01*
X302780Y406400D02*
Y428110D01*
Y406400D02*
X307860Y401320D01*
X385330D01*
X302780Y443110D02*
Y462160D01*
X302900Y462280D01*
Y480180D01*
X307860Y485140D01*
X313110D01*
X313600Y485630D01*
X322960Y505320D02*
Y514990D01*
X323100Y515130D01*
X317370Y499730D02*
X322960Y505320D01*
X293890Y499730D02*
X317370D01*
X312200Y513730D02*
X313600Y515130D01*
X293890Y513730D02*
X312200D01*
X166360Y506080D02*
X184670D01*
X164960Y504680D02*
X166360Y506080D01*
X184670D02*
X184670Y506080D01*
X204990D01*
X161190Y520080D02*
X184670D01*
X155600Y514490D02*
X161190Y520080D01*
X155460Y504680D02*
X155600Y504820D01*
Y514490D01*
X164960Y534180D02*
X165450Y534670D01*
X170700D01*
X175660Y539630D01*
Y557530D01*
X175780Y557650D01*
Y576700D01*
Y591700D02*
Y613410D01*
X143980Y530176D02*
X145960Y532156D01*
X130060Y519830D02*
X140406Y530176D01*
X145960Y532156D02*
Y534180D01*
X140406Y530176D02*
X143980D01*
D115*
X401517Y851454D02*
G03*
X399092Y850450I0J-3429D01*
G01*
X401071Y859658D02*
G03*
X399533Y859280I26J-3429D01*
G01*
X401517Y851454D02*
X490244D01*
X505667D01*
X397251Y858111D02*
X399533Y859280D01*
X401071Y859658D02*
X401084Y859658D01*
X397510Y848868D02*
X399092Y850450D01*
X397251Y858111D02*
Y858111D01*
X505667Y851454D02*
X559562Y797560D01*
X401084Y859658D02*
X457447D01*
X509677D01*
X568198Y801137D01*
X256100Y762000D02*
X271780D01*
X179070Y761873D02*
X199473D01*
X234950Y699008D02*
X240792Y704850D01*
X234950Y680720D02*
Y699008D01*
X209550Y655320D02*
X234950Y680720D01*
X245364Y679450D02*
X256100D01*
X137160Y642620D02*
X208534D01*
X245364Y679450D01*
X161036Y655320D02*
X209550D01*
X112776Y767588D02*
X116840Y763524D01*
Y662940D02*
X137160Y642620D01*
X116840Y662940D02*
Y763524D01*
X127603Y756888D02*
X128016Y757301D01*
X127603Y753517D02*
Y756888D01*
X127514Y696072D02*
Y753428D01*
X137922Y749046D02*
X199346D01*
X127514Y753428D02*
X127603Y753517D01*
X127514Y696072D02*
X131436Y692150D01*
X137801Y749167D02*
X137922Y749046D01*
X170180Y678180D02*
X170764D01*
X172034Y679450D02*
X199600D01*
X170764Y678180D02*
X172034Y679450D01*
X226917Y685387D02*
X227330Y685800D01*
X223237Y685387D02*
X226917D01*
X204600Y666750D02*
X223237Y685387D01*
X199600Y736600D02*
X227330D01*
X240792Y704850D02*
X256100D01*
X234950Y725170D02*
X238760Y728980D01*
X242570Y749300D02*
X256100D01*
X238760Y728980D02*
Y745490D01*
X242570Y749300D01*
X256100Y692150D02*
X271780D01*
X199600Y666750D02*
X204600D01*
X169672Y725170D02*
X234950D01*
X170180Y786130D02*
X239670D01*
X251100Y774700D01*
X156210Y772160D02*
X170180Y786130D01*
X131436Y692150D02*
X199600D01*
X199346Y749046D02*
X199600Y749300D01*
X170053Y761873D02*
X179070D01*
X199473D02*
X199600Y762000D01*
X169926Y761746D02*
X170053Y761873D01*
X251100Y774700D02*
X256100D01*
X568198Y801137D02*
X568198Y59998D01*
X559562Y797560D02*
X559562Y229162D01*
X546100Y37900D02*
X568198Y59998D01*
X546100Y215700D02*
X559562Y229162D01*
D118*
X457447Y859658D02*
D03*
X385557Y-87784D02*
D03*
X172720Y655320D02*
D03*
X179070Y679450D02*
D03*
X149860Y692150D02*
D03*
X172720Y642620D02*
D03*
X226060Y786130D02*
D03*
X158750Y749300D02*
D03*
X179070Y762000D02*
D03*
X184150Y725170D02*
D03*
X490244Y851454D02*
D03*
X215900Y276860D02*
D03*
X281940Y271780D02*
D03*
X273050Y527050D02*
D03*
X401320Y617220D02*
D03*
X197612Y165608D02*
D03*
X71120Y661670D02*
D03*
X125730Y-105410D02*
D03*
X496570Y257870D02*
D03*
X485902Y277699D02*
D03*
X-20320Y163830D02*
D03*
D119*
X64705Y-43765D02*
X66050Y-45110D01*
X68800D01*
X420776Y-76114D02*
X422108D01*
X413447Y-68784D02*
X420776Y-76114D01*
X422108D02*
X422448Y-76454D01*
X407947Y-68784D02*
X413447D01*
X398312Y-76114D02*
X400617D01*
X407947Y-68784D01*
X397972Y-76454D02*
X398312Y-76114D01*
X384437Y-71020D02*
X386532Y-73115D01*
X397491Y-76454D02*
X397972D01*
X384437Y-71020D02*
Y-70664D01*
X386532Y-73115D02*
X394152D01*
X397491Y-76454D01*
X88534Y-139700D02*
X94885Y-146050D01*
X100850D01*
X82550Y-139700D02*
X88534D01*
X139600Y-22860D02*
X149860D01*
X329980Y668020D02*
X349250D01*
X329450Y668550D02*
X329980Y668020D01*
X330200Y669300D02*
Y680720D01*
X329450Y668550D02*
X330200Y669300D01*
X329980Y737870D02*
X350520D01*
X329450Y738400D02*
X329980Y737870D01*
X328930Y738920D02*
X329450Y738400D01*
X328930Y738920D02*
Y750570D01*
X327250Y736200D02*
X329450Y738400D01*
X291350Y736200D02*
X327250D01*
Y666350D02*
X329450Y668550D01*
X291350Y666350D02*
X327250D01*
X256300Y666550D02*
X291150D01*
X256100Y666750D02*
X256300Y666550D01*
X291150D02*
X291350Y666350D01*
X256300Y736400D02*
X291150D01*
X291350Y736200D01*
X256100Y736600D02*
X256300Y736400D01*
X324445Y486975D02*
Y495414D01*
X323100Y485630D02*
X324445Y486975D01*
Y495414D02*
X327660Y498629D01*
Y499110D01*
X273570Y490181D02*
X274320Y489431D01*
X273570Y490181D02*
Y499730D01*
X274320Y488950D02*
Y489431D01*
X174752Y774700D02*
X199600D01*
X174752Y704850D02*
X199600D01*
X163830Y-134620D02*
Y-123125D01*
X163155Y-122450D02*
X163830Y-123125D01*
Y-121775D02*
Y-110490D01*
X163155Y-122450D02*
X163830Y-121775D01*
X54610Y-134620D02*
Y-123045D01*
X55205Y-122450D01*
X45720Y-118605D02*
X49565Y-122450D01*
X55205D01*
X45720Y-118605D02*
Y-109220D01*
X125600Y-104270D02*
Y-22860D01*
X100850Y-129020D02*
X125600Y-104270D01*
X100850Y-136550D02*
Y-129020D01*
X165300Y-54610D02*
X184150D01*
X290830Y762000D02*
X291090Y761740D01*
Y749960D02*
X291350Y749700D01*
X291090Y749960D02*
Y761740D01*
Y680110D02*
Y693160D01*
Y680110D02*
X291350Y679850D01*
X290830Y693420D02*
X291090Y693160D01*
X308610Y773430D02*
X328920D01*
X329450Y772900D01*
X329980Y773430D01*
X350520D01*
X329980Y703580D02*
X350520D01*
X329450Y703050D02*
X329980Y703580D01*
X328920D02*
X329450Y703050D01*
X308610Y703580D02*
X328920D01*
X311030Y199390D02*
X311090Y199450D01*
Y210760D01*
X311150Y210820D01*
X284734Y233426D02*
X293754D01*
X294030Y233150D01*
X81800Y-36830D02*
X87000Y-31630D01*
Y-22860D01*
X81800Y-53860D02*
Y-36830D01*
X71550Y-64110D02*
X81800Y-53860D01*
X94800Y-54610D02*
X125300D01*
X125350Y-22610D02*
Y-4060D01*
Y-22610D02*
X125600Y-22860D01*
X125100Y-3810D02*
X125350Y-4060D01*
X68800Y-64110D02*
X71550D01*
D122*
X-82030Y-222250D02*
D03*
Y-247650D02*
D03*
X537730Y-273050D02*
D03*
Y-247650D02*
D03*
D123*
X-82030Y-273050D02*
D03*
X537730Y-222250D02*
D03*
D124*
X406400Y323850D02*
D03*
X457200D02*
D03*
X406400Y273050D02*
D03*
X457200D02*
D03*
Y76200D02*
D03*
X406400D02*
D03*
X457200Y127000D02*
D03*
X406400D02*
D03*
D125*
X431800Y298450D02*
D03*
Y101600D02*
D03*
D126*
X416560Y958850D02*
D03*
X491490Y-180340D02*
D03*
X70850Y-254000D02*
D03*
X82550Y19050D02*
D03*
D127*
X100850Y-254000D02*
D03*
D128*
X130850Y-273600D02*
D03*
X40850D02*
D03*
D129*
X-88900Y723700D02*
D03*
X520700Y723700D02*
D03*
D130*
X-63500Y723700D02*
D03*
X-88900Y698300D02*
D03*
X-63500D02*
D03*
X-88900Y672900D02*
D03*
X-63500D02*
D03*
X-88900Y647500D02*
D03*
X-63500D02*
D03*
X-88900Y622100D02*
D03*
X-63500D02*
D03*
X-88900Y596700D02*
D03*
X-63500D02*
D03*
X-88900Y571300D02*
D03*
X-63500D02*
D03*
X-88900Y545900D02*
D03*
X-63500D02*
D03*
X-88900Y520500D02*
D03*
X-63500D02*
D03*
X-88900Y495100D02*
D03*
X-63500D02*
D03*
X-88900Y469700D02*
D03*
X-63500D02*
D03*
X-88900Y444300D02*
D03*
X-63500D02*
D03*
X-88900Y418900D02*
D03*
X-63500D02*
D03*
X-88900Y393500D02*
D03*
X-63500D02*
D03*
X-88900Y368100D02*
D03*
X-63500D02*
D03*
X-88900Y342700D02*
D03*
X-63500D02*
D03*
X-88900Y317300D02*
D03*
X-63500D02*
D03*
X-88900Y291900D02*
D03*
X-63500D02*
D03*
X-88900Y266500D02*
D03*
X-63500D02*
D03*
X-88900Y241100D02*
D03*
X-63500D02*
D03*
X-88900Y215700D02*
D03*
X-63500D02*
D03*
X-88900Y190300D02*
D03*
X-63500D02*
D03*
X-88900Y164900D02*
D03*
X-63500D02*
D03*
X-88900Y139500D02*
D03*
X-63500D02*
D03*
X-88900Y114100D02*
D03*
X-63500D02*
D03*
X-88900Y88700D02*
D03*
X-63500D02*
D03*
X-88900Y63300D02*
D03*
X-63500D02*
D03*
X-88900Y37900D02*
D03*
X-63500D02*
D03*
X-88900Y12500D02*
D03*
X-63500D02*
D03*
X-88900Y-12900D02*
D03*
X-63500D02*
D03*
X-88900Y-38300D02*
D03*
X-63500D02*
D03*
X-88900Y-63700D02*
D03*
X-63500D02*
D03*
X-88900Y-89100D02*
D03*
X-63500D02*
D03*
X-88900Y-114500D02*
D03*
X-63500D02*
D03*
X-88900Y-139900D02*
D03*
X-63500D02*
D03*
X546100Y723700D02*
D03*
X520700Y698300D02*
D03*
X546100D02*
D03*
X520700Y672900D02*
D03*
X546100D02*
D03*
X520700Y647500D02*
D03*
X546100D02*
D03*
X520700Y622100D02*
D03*
X546100D02*
D03*
X520700Y596700D02*
D03*
X546100D02*
D03*
X520700Y571300D02*
D03*
X546100D02*
D03*
X520700Y545900D02*
D03*
X546100D02*
D03*
X520700Y520500D02*
D03*
X546100D02*
D03*
X520700Y495100D02*
D03*
X546100D02*
D03*
X520700Y469700D02*
D03*
X546100D02*
D03*
X520700Y444300D02*
D03*
X546100D02*
D03*
X520700Y418900D02*
D03*
X546100D02*
D03*
X520700Y393500D02*
D03*
X546100D02*
D03*
X520700Y368100D02*
D03*
X546100D02*
D03*
X520700Y342700D02*
D03*
X546100D02*
D03*
X520700Y317300D02*
D03*
X546100D02*
D03*
X520700Y291900D02*
D03*
X546100D02*
D03*
X520700Y266500D02*
D03*
X546100D02*
D03*
X520700Y241100D02*
D03*
X546100D02*
D03*
X520700Y215700D02*
D03*
X546100D02*
D03*
X520700Y190300D02*
D03*
X546100D02*
D03*
X520700Y164900D02*
D03*
X546100D02*
D03*
X520700Y139500D02*
D03*
X546100D02*
D03*
X520700Y114100D02*
D03*
X546100D02*
D03*
X520700Y88700D02*
D03*
X546100D02*
D03*
X520700Y63300D02*
D03*
X546100D02*
D03*
X520700Y37900D02*
D03*
X546100D02*
D03*
X520700Y12500D02*
D03*
X546100D02*
D03*
X520700Y-12900D02*
D03*
X546100D02*
D03*
X520700Y-38300D02*
D03*
X546100D02*
D03*
X520700Y-63700D02*
D03*
X546100D02*
D03*
X520700Y-89100D02*
D03*
X546100D02*
D03*
X520700Y-114500D02*
D03*
X546100D02*
D03*
X520700Y-139900D02*
D03*
X546100D02*
D03*
D131*
X421600Y814320D02*
D03*
X34600D02*
D03*
D132*
X356120Y-226060D02*
D03*
Y-251460D02*
D03*
X330720Y-226060D02*
D03*
Y-251460D02*
D03*
X305320Y-226060D02*
D03*
D133*
Y-251460D02*
D03*
D134*
X-12739Y761980D02*
D03*
X0Y0D02*
D03*
X457200D02*
D03*
X469859Y749279D02*
D03*
D135*
X552572Y-194039D02*
D03*
X143510Y-172720D02*
D03*
X-54090Y-273050D02*
D03*
X189750Y-279400D02*
D03*
X170700D02*
D03*
X151650Y-260350D02*
D03*
Y-279400D02*
D03*
X246900D02*
D03*
X227850D02*
D03*
X208800D02*
D03*
X246900Y-260350D02*
D03*
X170700Y-205740D02*
D03*
X226580D02*
D03*
Y-193040D02*
D03*
X170700D02*
D03*
X198640Y-240030D02*
D03*
D136*
X32584Y927100D02*
D03*
X56178Y876078D02*
D03*
X-11430Y919480D02*
D03*
X-22860Y911860D02*
D03*
X13970Y927100D02*
D03*
X-62230Y924560D02*
D03*
X1270Y961390D02*
D03*
X56400Y901700D02*
D03*
X5600Y927100D02*
D03*
X-99314D02*
D03*
X-70976Y927476D02*
D03*
X31000Y876300D02*
D03*
X283210Y95250D02*
D03*
X397251Y858111D02*
D03*
X412000Y774700D02*
D03*
X513600D02*
D03*
X516140Y749300D02*
D03*
X61430Y-33325D02*
D03*
X68805Y32795D02*
D03*
X50800Y698500D02*
D03*
X25698Y-37353D02*
D03*
X33528Y-43180D02*
D03*
X506521Y974840D02*
D03*
X481121D02*
D03*
X262795Y954232D02*
D03*
X333074Y-115184D02*
D03*
X422448Y-76454D02*
D03*
X397972D02*
D03*
X381254Y-120142D02*
D03*
X322580Y-60198D02*
D03*
X273050Y-69850D02*
D03*
X139700Y355600D02*
D03*
X127000Y317500D02*
D03*
X95250Y508000D02*
D03*
X76200D02*
D03*
X539000Y1003300D02*
D03*
Y977900D02*
D03*
Y952500D02*
D03*
Y927100D02*
D03*
Y901700D02*
D03*
Y876300D02*
D03*
Y774700D02*
D03*
Y749300D02*
D03*
Y-165100D02*
D03*
X513600Y1003300D02*
D03*
Y977900D02*
D03*
Y876300D02*
D03*
Y800100D02*
D03*
Y-165100D02*
D03*
Y-190500D02*
D03*
X488200Y1003300D02*
D03*
Y977900D02*
D03*
Y876300D02*
D03*
Y825500D02*
D03*
Y698500D02*
D03*
Y673100D02*
D03*
Y647700D02*
D03*
Y622300D02*
D03*
Y596900D02*
D03*
Y571500D02*
D03*
Y546100D02*
D03*
Y520700D02*
D03*
Y495300D02*
D03*
Y469900D02*
D03*
Y444500D02*
D03*
Y419100D02*
D03*
Y393700D02*
D03*
Y368300D02*
D03*
X462800Y1003300D02*
D03*
Y977900D02*
D03*
Y952500D02*
D03*
Y927100D02*
D03*
Y876300D02*
D03*
Y825500D02*
D03*
Y698500D02*
D03*
Y-63500D02*
D03*
Y-88900D02*
D03*
Y-114300D02*
D03*
Y-139700D02*
D03*
Y-165100D02*
D03*
X437400Y1003300D02*
D03*
Y977900D02*
D03*
Y952500D02*
D03*
Y927100D02*
D03*
Y876300D02*
D03*
Y342900D02*
D03*
Y63500D02*
D03*
X412000Y1003300D02*
D03*
Y977900D02*
D03*
Y927100D02*
D03*
Y876300D02*
D03*
Y38100D02*
D03*
X386600Y1003300D02*
D03*
Y977900D02*
D03*
Y952500D02*
D03*
Y927100D02*
D03*
Y139700D02*
D03*
Y114300D02*
D03*
Y88900D02*
D03*
Y63500D02*
D03*
Y38100D02*
D03*
X361200Y1003300D02*
D03*
Y977900D02*
D03*
Y952500D02*
D03*
Y927100D02*
D03*
Y114300D02*
D03*
Y88900D02*
D03*
Y38100D02*
D03*
X335800Y114300D02*
D03*
Y88900D02*
D03*
Y-190500D02*
D03*
X310400Y114300D02*
D03*
Y88900D02*
D03*
X285000Y469900D02*
D03*
Y444500D02*
D03*
Y419100D02*
D03*
Y-190500D02*
D03*
Y-215900D02*
D03*
X259600Y165100D02*
D03*
Y139700D02*
D03*
Y114300D02*
D03*
Y88900D02*
D03*
Y-190500D02*
D03*
Y-215900D02*
D03*
X132600Y1003300D02*
D03*
Y977900D02*
D03*
Y952500D02*
D03*
Y927100D02*
D03*
Y901700D02*
D03*
Y876300D02*
D03*
Y850900D02*
D03*
Y825500D02*
D03*
Y800100D02*
D03*
Y774700D02*
D03*
Y673100D02*
D03*
Y-215900D02*
D03*
X107200Y1003300D02*
D03*
Y977900D02*
D03*
Y952500D02*
D03*
Y927100D02*
D03*
Y901700D02*
D03*
Y876300D02*
D03*
X81800Y1003300D02*
D03*
X56400Y342900D02*
D03*
X31000Y241300D02*
D03*
Y88900D02*
D03*
X5600Y1003300D02*
D03*
X-19800D02*
D03*
Y977900D02*
D03*
X-45200Y1003300D02*
D03*
Y977900D02*
D03*
Y368300D02*
D03*
Y342900D02*
D03*
X-70600Y1003300D02*
D03*
Y850900D02*
D03*
Y800100D02*
D03*
Y774700D02*
D03*
Y749300D02*
D03*
Y-190500D02*
D03*
X-96000Y1003300D02*
D03*
Y-190500D02*
D03*
Y-215900D02*
D03*
X379730Y193040D02*
D03*
X372110Y198120D02*
D03*
X400050Y163830D02*
D03*
X387350D02*
D03*
X443230Y193040D02*
D03*
Y181610D02*
D03*
X440690Y170180D02*
D03*
X444500Y243840D02*
D03*
X379730Y234950D02*
D03*
X325120Y854710D02*
D03*
X345440D02*
D03*
X234950Y802640D02*
D03*
X175260Y843280D02*
D03*
X199390Y923290D02*
D03*
X228600Y843280D02*
D03*
X207010Y834390D02*
D03*
X228600Y871220D02*
D03*
X204470Y892810D02*
D03*
X234950Y923290D02*
D03*
X222250D02*
D03*
X259080Y906780D02*
D03*
Y919480D02*
D03*
X205893Y967345D02*
D03*
X22860Y648970D02*
D03*
X406400Y-215900D02*
D03*
X292100Y-279400D02*
D03*
X355600D02*
D03*
X419100D02*
D03*
X482600D02*
D03*
X558800D02*
D03*
X-101600D02*
D03*
X0Y-266700D02*
D03*
X-49530Y127000D02*
D03*
Y151130D02*
D03*
X-49432Y189533D02*
D03*
X-49530Y234950D02*
D03*
X-41910Y247650D02*
D03*
X19050Y292100D02*
D03*
X57150Y330200D02*
D03*
X63500Y406400D02*
D03*
X330200Y546100D02*
D03*
Y584200D02*
D03*
X444500Y431800D02*
D03*
Y469900D02*
D03*
Y508000D02*
D03*
Y546100D02*
D03*
Y584200D02*
D03*
Y622300D02*
D03*
Y660400D02*
D03*
X222250Y63500D02*
D03*
Y101600D02*
D03*
Y139700D02*
D03*
X361950Y336550D02*
D03*
X317500D02*
D03*
X273050D02*
D03*
X203200D02*
D03*
Y228600D02*
D03*
Y374650D02*
D03*
Y298450D02*
D03*
X69850Y711200D02*
D03*
X88900Y723900D02*
D03*
X112776Y767588D02*
D03*
X6289Y261681D02*
D03*
X147259Y402651D02*
D03*
X-42608Y176340D02*
D03*
X137801Y749167D02*
D03*
X128016Y757301D02*
D03*
X-19050Y666750D02*
D03*
Y679450D02*
D03*
X-21590Y77470D02*
D03*
X161036Y655320D02*
D03*
X397510Y848868D02*
D03*
X-6350Y186690D02*
D03*
X210820Y179070D02*
D03*
X205740Y495300D02*
D03*
X255270Y980440D02*
D03*
X234603Y969933D02*
D03*
X-6350Y666750D02*
D03*
Y679450D02*
D03*
X-8890Y610870D02*
D03*
X-16764Y602617D02*
D03*
X76200Y-20320D02*
D03*
X41656Y-50800D02*
D03*
X415798Y230886D02*
D03*
X-114300Y902970D02*
D03*
X260350Y-171450D02*
D03*
X149860Y-22860D02*
D03*
X328930Y750570D02*
D03*
X330200Y680720D02*
D03*
X349250Y668020D02*
D03*
X350520Y737870D02*
D03*
X265430Y614680D02*
D03*
X327660Y499110D02*
D03*
X274320Y488950D02*
D03*
X174752Y774700D02*
D03*
Y704850D02*
D03*
X170180Y678180D02*
D03*
X200914Y482600D02*
D03*
X122780Y213770D02*
D03*
X73660Y147320D02*
D03*
X74176Y158361D02*
D03*
X13970Y276860D02*
D03*
X163830Y-134620D02*
D03*
Y-110490D02*
D03*
X157734Y12700D02*
D03*
Y25400D02*
D03*
X133350D02*
D03*
Y12700D02*
D03*
X107950Y25400D02*
D03*
X120650D02*
D03*
Y12700D02*
D03*
X107950D02*
D03*
X54610Y-134620D02*
D03*
X146050Y25400D02*
D03*
Y12700D02*
D03*
X133350Y99060D02*
D03*
X57150Y119380D02*
D03*
X45720Y-109220D02*
D03*
X323100Y-31750D02*
D03*
X310400D02*
D03*
X297700D02*
D03*
X212090Y-99060D02*
D03*
X184150Y-54610D02*
D03*
X443230Y-217170D02*
D03*
X122492Y253428D02*
D03*
X73660Y205740D02*
D03*
Y217170D02*
D03*
X-24384Y595630D02*
D03*
X-17780Y351790D02*
D03*
X-24384Y361950D02*
D03*
X-10160Y343779D02*
D03*
X-29210Y-259080D02*
D03*
X22860Y-200660D02*
D03*
X11430Y-153670D02*
D03*
X-13970D02*
D03*
X-38100D02*
D03*
X196850Y-168910D02*
D03*
X524206Y-208006D02*
D03*
X455930Y-191770D02*
D03*
X422910Y-160020D02*
D03*
X421640Y-63500D02*
D03*
X240030Y-101600D02*
D03*
X284480Y-102870D02*
D03*
X302260Y-95250D02*
D03*
X81280Y-69850D02*
D03*
X114300Y-90170D02*
D03*
X101600Y-69850D02*
D03*
Y-109220D02*
D03*
X15240Y-102870D02*
D03*
X-16510Y-120650D02*
D03*
X149860Y147320D02*
D03*
Y125730D02*
D03*
X74930Y88900D02*
D03*
X228600Y396240D02*
D03*
Y421640D02*
D03*
Y441960D02*
D03*
Y462280D02*
D03*
Y482600D02*
D03*
Y533400D02*
D03*
Y502920D02*
D03*
X227330Y736600D02*
D03*
X213360Y810260D02*
D03*
X227330Y685800D02*
D03*
X147320Y594360D02*
D03*
Y574040D02*
D03*
Y553720D02*
D03*
Y563880D02*
D03*
Y584200D02*
D03*
Y604520D02*
D03*
X290830Y693420D02*
D03*
Y762000D02*
D03*
X350520Y703580D02*
D03*
X308610D02*
D03*
Y773430D02*
D03*
X350520D02*
D03*
X271780Y692150D02*
D03*
X245110Y966470D02*
D03*
X308610Y822960D02*
D03*
X146050Y918210D02*
D03*
X139700Y941070D02*
D03*
X194310Y852170D02*
D03*
X327660Y919480D02*
D03*
Y944880D02*
D03*
X299720Y982980D02*
D03*
X313690Y969010D02*
D03*
X255270Y1016000D02*
D03*
X194310D02*
D03*
X149860Y984250D02*
D03*
X51170Y932180D02*
D03*
Y958850D02*
D03*
X-105226Y888817D02*
D03*
X481330Y899239D02*
D03*
X506730Y899160D02*
D03*
X-53340Y203200D02*
D03*
X257810Y-91440D02*
D03*
X1270Y-125730D02*
D03*
X271780Y762000D02*
D03*
X262890Y852170D02*
D03*
X242570D02*
D03*
X169672Y725170D02*
D03*
X169926Y761746D02*
D03*
X156210Y772160D02*
D03*
X344424Y-150114D02*
D03*
X333580Y-157734D02*
D03*
X5080Y-179832D02*
D03*
Y-171704D02*
D03*
X252904Y878840D02*
D03*
X204470Y819150D02*
D03*
X305816Y841502D02*
D03*
X415036Y19304D02*
D03*
X283210Y80010D02*
D03*
X50800Y-57658D02*
D03*
X-15580Y-92902D02*
D03*
X485394Y-141224D02*
D03*
X-42164Y226822D02*
D03*
X160020Y885190D02*
D03*
X290830Y899327D02*
D03*
X300990D02*
D03*
X311150D02*
D03*
X321310D02*
D03*
X214630Y852170D02*
D03*
X265430Y969010D02*
D03*
X280670Y982980D02*
D03*
X269240Y991870D02*
D03*
X149860Y963930D02*
D03*
X379790Y207070D02*
D03*
X361950Y204470D02*
D03*
X271840Y80070D02*
D03*
X360680Y139700D02*
D03*
X337820D02*
D03*
X311150Y210820D02*
D03*
X284734Y233426D02*
D03*
X314960Y262890D02*
D03*
X316230Y292100D02*
D03*
X426720Y228600D02*
D03*
X433070Y215900D02*
D03*
X373380Y273050D02*
D03*
X346710Y284480D02*
D03*
X454660Y189230D02*
D03*
X469900Y209550D02*
D03*
Y234950D02*
D03*
X455930D02*
D03*
Y209550D02*
D03*
X416560Y-111760D02*
D03*
X422910Y-134620D02*
D03*
Y-88900D02*
D03*
X260350Y-69850D02*
D03*
X273050Y-57150D02*
D03*
X260350D02*
D03*
X96520Y402590D02*
D03*
Y415290D02*
D03*
X331470Y619760D02*
D03*
X318770Y632460D02*
D03*
X331470D02*
D03*
X344170D02*
D03*
Y619760D02*
D03*
X356870D02*
D03*
Y632460D02*
D03*
X369570Y619760D02*
D03*
Y632460D02*
D03*
X109220Y415290D02*
D03*
X121920D02*
D03*
Y402590D02*
D03*
X109220D02*
D03*
X134620D02*
D03*
Y415290D02*
D03*
X147320D02*
D03*
X66040Y-109220D02*
D03*
X78740Y-90170D02*
D03*
X54610D02*
D03*
X380385Y907802D02*
D03*
X367685D02*
D03*
X354850Y908050D02*
D03*
X342150D02*
D03*
X328180Y48260D02*
D03*
X405650Y431800D02*
D03*
Y444500D02*
D03*
Y469900D02*
D03*
Y457200D02*
D03*
Y482600D02*
D03*
Y495300D02*
D03*
Y520700D02*
D03*
Y508000D02*
D03*
X418350Y431800D02*
D03*
Y444500D02*
D03*
Y469900D02*
D03*
Y457200D02*
D03*
Y508000D02*
D03*
Y520700D02*
D03*
Y495300D02*
D03*
Y482600D02*
D03*
X62750Y596900D02*
D03*
Y609600D02*
D03*
Y584200D02*
D03*
Y571500D02*
D03*
X100850Y622300D02*
D03*
X88150D02*
D03*
X62750D02*
D03*
X75450D02*
D03*
X-7100Y807720D02*
D03*
X-19800D02*
D03*
X-7100Y819150D02*
D03*
X-19800D02*
D03*
X-7100Y831850D02*
D03*
X-19800D02*
D03*
X-7100Y844550D02*
D03*
X-19800D02*
D03*
D137*
X417500Y202350D02*
D03*
Y191350D02*
D03*
X406500Y202350D02*
D03*
Y191350D02*
D03*
D138*
X169926Y276860D02*
D03*
X161290Y261620D02*
D03*
X129540D02*
D03*
Y276860D02*
D03*
X17780Y102870D02*
D03*
X73660Y172720D02*
D03*
X92710Y106680D02*
D03*
X-2540Y-189230D02*
D03*
X143510Y-137160D02*
D03*
X208280Y-6350D02*
D03*
X316230Y44450D02*
D03*
X52070Y52070D02*
D03*
X-5080Y163830D02*
D03*
X370052Y244385D02*
D03*
X471170Y189230D02*
D03*
D139*
X125300Y-54610D02*
D03*
X165300D02*
D03*
D140*
X100850Y-155550D02*
D03*
D141*
Y-146050D02*
D03*
Y-136550D02*
D03*
X123860D02*
D03*
Y-155550D02*
D03*
D142*
X163155Y-156950D02*
D03*
Y-122450D02*
D03*
X55205D02*
D03*
Y-156950D02*
D03*
X180072Y-261090D02*
D03*
Y-226590D02*
D03*
X218172Y-261090D02*
D03*
Y-226590D02*
D03*
X329450Y668550D02*
D03*
Y703050D02*
D03*
Y738400D02*
D03*
Y772900D02*
D03*
D143*
X397980Y563880D02*
D03*
X359980D02*
D03*
X117310Y463550D02*
D03*
X79310D02*
D03*
D144*
X256100Y774700D02*
D03*
Y762000D02*
D03*
Y749300D02*
D03*
Y736600D02*
D03*
X199600Y774700D02*
D03*
Y762000D02*
D03*
Y749300D02*
D03*
Y736600D02*
D03*
X256100Y704850D02*
D03*
Y692150D02*
D03*
Y679450D02*
D03*
Y666750D02*
D03*
X199600Y704850D02*
D03*
Y692150D02*
D03*
Y679450D02*
D03*
Y666750D02*
D03*
M02*
